<svg xmlns="http://www.w3.org/2000/svg" xmlns:xlink="http://www.w3.org/1999/xlink" width="2360" height="320.52"><rect width="2360" height="320.52" rx="5" ry="5" class="a"></rect><svg y="0%" x="0%"><circle cx="20" cy="20" r="6" class="b"></circle><circle cx="40" cy="20" r="6" class="c"></circle><circle cx="60" cy="20" r="6" class="d"></circle></svg><svg height="260.52" viewBox="0 0 232 26.052" width="2320" x="15" xmlns="http://www.w3.org/2000/svg" xmlns:xlink="http://www.w3.org/1999/xlink" y="50"><style>.a{fill:rgb(35,35,35)}.b{fill:#ff5f58}.c{fill:#ffbd2e}.d{fill:#18c132}.e{font-family:Monaco,Consolas,Menlo,'Bitstream Vera Sans Mono','Powerline Symbols',monospace}.f{fill:rgb(160,160,160);white-space:pre}.g{fill:transparent}.h{fill:rgb(160,160,160)}.j{animation-duration:5.629534s;animation-iteration-count:infinite;animation-name:i;animation-timing-function:steps(1,end)}@keyframes i{0%{transform:translateX(-0px)}11.2%{transform:translateX(-232px)}100%{transform:translateX(-464px)}}</style><g font-family="Monaco, Consolas, Menlo, &#x27;Bitstream Vera Sans Mono&#x27;, &#x27;Powerline Symbols&#x27;, monospace" font-size="1.67" class="e"><defs><symbol id="1"><text x="0" y="1.67" class="f">This</text><text x="5.01" y="1.67" class="f">is</text><text x="8.016" y="1.67" class="f">the</text><text x="12.024" y="1.67" class="f">default</text><text x="20.04" y="1.67" class="f">paragraph</text><text x="30.059999999999995" y="1.67" class="f">printer.</text><text x="39.077999999999996" y="1.67" class="f">As</text><text x="42.083999999999996" y="1.67" class="f">you</text><text x="46.09199999999999" y="1.67" class="f">can</text><text x="50.1" y="1.67" class="f">see,</text><text x="55.10999999999999" y="1.67" class="f">no</text><text x="58.116" y="1.67" class="f">words</text><text x="64.128" y="1.67" class="f">are</text><text x="68.136" y="1.67" class="f">separated,</text></symbol><symbol id="2"><text x="0" y="1.67" class="f">but</text><text x="4.008" y="1.67" class="f">the</text><text x="8.016" y="1.67" class="f">text</text><text x="13.026" y="1.67" class="f">is</text><text x="16.032" y="1.67" class="f">split</text><text x="22.043999999999997" y="1.67" class="f">at</text><text x="25.05" y="1.67" class="f">the</text><text x="29.058" y="1.67" class="f">spaces.</text><text x="37.074" y="1.67" class="f">This</text><text x="42.083999999999996" y="1.67" class="f">is</text><text x="45.089999999999996" y="1.67" class="f">useful</text><text x="52.104" y="1.67" class="f">for</text><text x="56.111999999999995" y="1.67" class="f">continuous</text><text x="67.134" y="1.67" class="f">text</text><text x="72.14399999999999" y="1.67" class="f">of</text><text x="75.14999999999999" y="1.67" class="f">all</text></symbol><symbol id="3"><text x="0" y="1.67" class="f">kinds.</text><text x="7.013999999999999" y="1.67" class="f">You</text><text x="11.021999999999998" y="1.67" class="f">can</text><text x="15.029999999999998" y="1.67" class="f">manually</text><text x="24.048" y="1.67" class="f">change</text><text x="31.061999999999998" y="1.67" class="f">the</text><text x="35.06999999999999" y="1.67" class="f">line</text><text x="40.08" y="1.67" class="f">width</text><text x="46.09199999999999" y="1.67" class="f">if</text><text x="49.098" y="1.67" class="f">you</text><text x="53.105999999999995" y="1.67" class="f">want</text><text x="58.116" y="1.67" class="f">to.Lorem</text><text x="67.134" y="1.67" class="f">ipsum</text><text x="73.146" y="1.67" class="f">dolor</text></symbol><symbol id="4"><text x="0" y="1.67" class="f">sit</text><text x="4.008" y="1.67" class="f">amet,</text><text x="10.02" y="1.67" class="f">consetetur</text><text x="21.041999999999998" y="1.67" class="f">sadipscing</text><text x="32.064" y="1.67" class="f">elitr,</text><text x="39.077999999999996" y="1.67" class="f">sed</text><text x="43.086" y="1.67" class="f">diam</text><text x="48.096" y="1.67" class="f">nonumy</text><text x="55.10999999999999" y="1.67" class="f">eirmod</text><text x="62.123999999999995" y="1.67" class="f">tempor</text><text x="69.13799999999999" y="1.67" class="f">invidunt</text><text x="78.15599999999999" y="1.67" class="f">ut</text></symbol><symbol id="5"><text x="0" y="1.67" class="f">labore</text><text x="7.013999999999999" y="1.67" class="f">et</text><text x="10.02" y="1.67" class="f">dolore</text><text x="17.034" y="1.67" class="f">magna</text><text x="23.045999999999996" y="1.67" class="f">aliquyam</text></symbol><symbol id="6"><text x="0" y="1.67" class="f">This</text><text x="5.01" y="1.67" class="f">text</text><text x="10.02" y="1.67" class="f">is</text><text x="13.026" y="1.67" class="f">written</text><text x="21.041999999999998" y="1.67" class="f">with</text><text x="26.052" y="1.67" class="f">the</text><text x="30.059999999999995" y="1.67" class="f">default</text><text x="38.07599999999999" y="1.67" class="f">Println()</text><text x="48.096" y="1.67" class="f">function.</text><text x="58.116" y="1.67" class="f">No</text><text x="61.12199999999999" y="1.67" class="f">intelligent</text><text x="73.146" y="1.67" class="f">splitting</text><text x="83.16599999999998" y="1.67" class="f">here.Lorem</text><text x="94.18799999999999" y="1.67" class="f">ipsum</text><text x="100.2" y="1.67" class="f">dolor</text><text x="106.21199999999999" y="1.67" class="f">sit</text><text x="110.21999999999998" y="1.67" class="f">amet,</text><text x="116.232" y="1.67" class="f">consetetur</text><text x="127.25399999999999" y="1.67" class="f">sadipscing</text><text x="138.27599999999998" y="1.67" class="f">elitr,</text><text x="145.29" y="1.67" class="f">sed</text><text x="149.29799999999997" y="1.67" class="f">diam</text><text x="154.308" y="1.67" class="f">nonumy</text><text x="161.322" y="1.67" class="f">eirmod</text><text x="168.33599999999998" y="1.67" class="f">tempor</text><text x="175.35" y="1.67" class="f">invidunt</text><text x="184.36799999999997" y="1.67" class="f">ut</text><text x="187.37399999999997" y="1.67" class="f">labore</text><text x="194.38799999999998" y="1.67" class="f">et</text><text x="197.394" y="1.67" class="f">dolore</text><text x="204.408" y="1.67" class="f">magna</text><text x="210.42" y="1.67" class="f">aliquyam</text></symbol><symbol id="a"><rect height="12" width="232" x="0" y="0" class="g"></rect></symbol><symbol id="b"><rect height="2.171" width="1.1022" class="h"></rect></symbol></defs><rect height="26.052" width="232" class="a"></rect><g class="j"><svg x="0" y="0" width="696"><svg x="0"><use xlink:href="#a"></use><use xlink:href="#b" x="-0.0040000000000000036" y="0"></use></svg><svg x="232"><use xlink:href="#a"></use><use xlink:href="#b" x="-0.0040000000000000036" y="15.171999999999999"></use><use xlink:href="#1" y="0"></use><use xlink:href="#2" y="2.171"></use><use xlink:href="#3" y="4.342"></use><use xlink:href="#4" y="6.513"></use><use xlink:href="#5" y="8.684"></use><use xlink:href="#6" y="13.026"></use></svg><svg x="464"><use xlink:href="#a"></use><use xlink:href="#b" x="-0.0040000000000000036" y="19.514000000000003"></use><use xlink:href="#1" y="0"></use><use xlink:href="#2" y="2.171"></use><use xlink:href="#3" y="4.342"></use><use xlink:href="#4" y="6.513"></use><use xlink:href="#5" y="8.684"></use><use xlink:href="#6" y="13.026"></use><text x="0" y="19.037999999999997" class="f">restarting...</text></svg></svg></g></g></svg></svg>