<svg xmlns="http://www.w3.org/2000/svg" xmlns:xlink="http://www.w3.org/1999/xlink" width="840" height="581.04"><rect width="840" height="581.04" rx="5" ry="5" class="a"></rect><svg y="0%" x="0%"><circle cx="20" cy="20" r="6" class="b"></circle><circle cx="40" cy="20" r="6" class="c"></circle><circle cx="60" cy="20" r="6" class="d"></circle></svg><svg height="521.04" viewBox="0 0 80 52.104" width="800" x="15" xmlns="http://www.w3.org/2000/svg" xmlns:xlink="http://www.w3.org/1999/xlink" y="50"><style>.e, .g, .f {
	font-family:
			'Courier New'
			Roboto,
			Helvetica,
			Arial,
			sans-serif,
			'Apple Color Emoji',
			'Segoe UI Emoji' !important;
}.a{fill:rgb(35,35,35)}.b{fill:#ff5f58}.c{fill:#ffbd2e}.d{fill:#18c132}.e{font-family:'Courier New',Monaco,Consolas,Menlo,'Bitstream Vera Sans Mono','Powerline Symbols',monospace}.f{fill:rgb(160,160,160);white-space:pre}.g{fill:rgb(126,231,233);white-space:pre}.h{fill:rgb(25,246,0)}.i{fill:rgb(0,0,0);white-space:pre}.j{fill:rgb(203,183,0)}.k{fill:rgb(255,49,0)}.l{fill:rgb(153,201,0)}.m{fill:rgb(255,82,0)}.n{fill:rgb(102,219,0)}.o{fill:rgb(255,115,0)}.p{fill:rgb(51,237,0)}.q{fill:rgb(255,148,0)}.r{fill:rgb(255,0,0)}.s{fill:rgb(229,174,0)}.t{fill:rgb(255,32,0)}.u{fill:rgb(178,192,0)}.v{fill:rgb(127,210,0)}.w{fill:rgb(255,16,0)}.x{fill:rgb(255,132,0)}.y{fill:rgb(0,255,0)}.z{fill:rgb(76,228,0)}.A{fill:rgb(255,165,0)}.B{fill:rgb(255,36,0)}.C{fill:rgb(255,73,0)}.D{fill:rgb(255,110,0)}.E{fill:rgb(255,146,0)}.F{fill:rgb(226,175,0)}.G{fill:rgb(170,195,0)}.H{fill:rgb(113,215,0)}.I{fill:rgb(56,235,0)}.J{fill:transparent}.L{animation-duration:5.310423s;animation-iteration-count:infinite;animation-name:K;animation-timing-function:steps(1,end)}@keyframes K{0%{transform:translateX(-0px)}4.8%{transform:translateX(-80px)}5.8%{transform:translateX(-160px)}5.8%{transform:translateX(-240px)}5.8%{transform:translateX(-320px)}5.8%{transform:translateX(-400px)}100%{transform:translateX(-480px)}}</style><g font-family="'Courier New',Monaco, Consolas, Menlo, &#x27;Bitstream Vera Sans Mono&#x27;, &#x27;Powerline Symbols&#x27;, monospace" font-size="1.67" class="e"><defs><symbol id="1"><text x="0" y="1.67" class="f">┌────┬────┬────┬────┬────┬────┬────┬────┬────┬────┬────┬────┬────┬────┐</text></symbol><symbol id="2"><text x="0" y="1.67" class="f">│</text><text x="2.004" y="1.67" class="g">1</text><text x="5.01" y="1.67" class="f">│</text><rect height="2.171" width="4" x="6.012" y="0" class="h"></rect><text x="6.012" y="1.67" class="i"> 0.9</text><text x="10.02" y="1.67" class="f">│</text><rect height="2.171" width="4" x="11.021999999999998" y="0" class="j"></rect><text x="11.021999999999998" y="1.67" class="i"> 0.2</text><text x="15.029999999999998" y="1.67" class="f">│</text><rect height="2.171" width="4" x="16.032" y="0" class="k"></rect><text x="16.032" y="1.67" class="i">-0.7</text><text x="20.04" y="1.67" class="f">│</text><rect height="2.171" width="4" x="21.041999999999998" y="0" class="l"></rect><text x="21.041999999999998" y="1.67" class="i"> 0.4</text><text x="25.05" y="1.67" class="f">│</text><rect height="2.171" width="4" x="26.052" y="0" class="m"></rect><text x="26.052" y="1.67" class="i">-0.5</text><text x="30.059999999999995" y="1.67" class="f">│</text><rect height="2.171" width="4" x="31.061999999999998" y="0" class="n"></rect><text x="31.061999999999998" y="1.67" class="i"> 0.6</text><text x="35.06999999999999" y="1.67" class="f">│</text><rect height="2.171" width="4" x="36.071999999999996" y="0" class="o"></rect><text x="36.071999999999996" y="1.67" class="i">-0.3</text><text x="40.08" y="1.67" class="f">│</text><rect height="2.171" width="4" x="41.082" y="0" class="p"></rect><text x="41.082" y="1.67" class="i"> 0.8</text><text x="45.089999999999996" y="1.67" class="f">│</text><rect height="2.171" width="4" x="46.09199999999999" y="0" class="q"></rect><text x="46.09199999999999" y="1.67" class="i">-0.1</text><text x="50.1" y="1.67" class="f">│</text><rect height="2.171" width="4" x="51.102" y="0" class="r"></rect><text x="51.102" y="1.67" class="i"> -1 </text><text x="55.10999999999999" y="1.67" class="f">│</text><rect height="2.171" width="4" x="56.111999999999995" y="0" class="s"></rect><text x="56.111999999999995" y="1.67" class="i"> 0.1</text><text x="60.11999999999999" y="1.67" class="f">│</text><rect height="2.171" width="4" x="61.12199999999999" y="0" class="t"></rect><text x="61.12199999999999" y="1.67" class="i">-0.8</text><text x="65.13" y="1.67" class="f">│</text><rect height="2.171" width="4" x="66.13199999999999" y="0" class="u"></rect><text x="66.13199999999999" y="1.67" class="i"> 0.3</text><text x="70.13999999999999" y="1.67" class="f">│</text></symbol><symbol id="3"><text x="0" y="1.67" class="f">├────┼────┼────┼────┼────┼────┼────┼────┼────┼────┼────┼────┼────┼────┤</text></symbol><symbol id="4"><text x="0" y="1.67" class="f">│</text><text x="2.004" y="1.67" class="g">2</text><text x="5.01" y="1.67" class="f">│</text><rect height="2.171" width="4" x="6.012" y="0" class="j"></rect><text x="6.012" y="1.67" class="i"> 0.2</text><text x="10.02" y="1.67" class="f">│</text><rect height="2.171" width="4" x="11.021999999999998" y="0" class="k"></rect><text x="11.021999999999998" y="1.67" class="i">-0.7</text><text x="15.029999999999998" y="1.67" class="f">│</text><rect height="2.171" width="4" x="16.032" y="0" class="m"></rect><text x="16.032" y="1.67" class="i">-0.5</text><text x="20.04" y="1.67" class="f">│</text><rect height="2.171" width="4" x="21.041999999999998" y="0" class="o"></rect><text x="21.041999999999998" y="1.67" class="i">-0.3</text><text x="25.05" y="1.67" class="f">│</text><rect height="2.171" width="4" x="26.052" y="0" class="q"></rect><text x="26.052" y="1.67" class="i">-0.1</text><text x="30.059999999999995" y="1.67" class="f">│</text><rect height="2.171" width="4" x="31.061999999999998" y="0" class="s"></rect><text x="31.061999999999998" y="1.67" class="i"> 0.1</text><text x="35.06999999999999" y="1.67" class="f">│</text><rect height="2.171" width="4" x="36.071999999999996" y="0" class="u"></rect><text x="36.071999999999996" y="1.67" class="i"> 0.3</text><text x="40.08" y="1.67" class="f">│</text><rect height="2.171" width="4" x="41.082" y="0" class="v"></rect><text x="41.082" y="1.67" class="i"> 0.5</text><text x="45.089999999999996" y="1.67" class="f">│</text><rect height="2.171" width="4" x="46.09199999999999" y="0" class="h"></rect><text x="46.09199999999999" y="1.67" class="i"> 0.9</text><text x="50.1" y="1.67" class="f">│</text><rect height="2.171" width="4" x="51.102" y="0" class="w"></rect><text x="51.102" y="1.67" class="i">-0.9</text><text x="55.10999999999999" y="1.67" class="f">│</text><rect height="2.171" width="4" x="56.111999999999995" y="0" class="k"></rect><text x="56.111999999999995" y="1.67" class="i">-0.7</text><text x="60.11999999999999" y="1.67" class="f">│</text><rect height="2.171" width="4" x="61.12199999999999" y="0" class="m"></rect><text x="61.12199999999999" y="1.67" class="i">-0.5</text><text x="65.13" y="1.67" class="f">│</text><rect height="2.171" width="4" x="66.13199999999999" y="0" class="o"></rect><text x="66.13199999999999" y="1.67" class="i">-0.3</text><text x="70.13999999999999" y="1.67" class="f">│</text></symbol><symbol id="5"><text x="0" y="1.67" class="f">│</text><text x="2.004" y="1.67" class="g">3</text><text x="5.01" y="1.67" class="f">│</text><rect height="2.171" width="4" x="6.012" y="0" class="l"></rect><text x="6.012" y="1.67" class="i"> 0.4</text><text x="10.02" y="1.67" class="f">│</text><rect height="2.171" width="4" x="11.021999999999998" y="0" class="l"></rect><text x="11.021999999999998" y="1.67" class="i"> 0.4</text><text x="15.029999999999998" y="1.67" class="f">│</text><rect height="2.171" width="4" x="16.032" y="0" class="o"></rect><text x="16.032" y="1.67" class="i">-0.3</text><text x="20.04" y="1.67" class="f">│</text><rect height="2.171" width="4" x="21.041999999999998" y="0" class="r"></rect><text x="21.041999999999998" y="1.67" class="i"> -1 </text><text x="25.05" y="1.67" class="f">│</text><rect height="2.171" width="4" x="26.052" y="0" class="u"></rect><text x="26.052" y="1.67" class="i"> 0.3</text><text x="30.059999999999995" y="1.67" class="f">│</text><rect height="2.171" width="4" x="31.061999999999998" y="0" class="x"></rect><text x="31.061999999999998" y="1.67" class="i">-0.2</text><text x="35.06999999999999" y="1.67" class="f">│</text><rect height="2.171" width="4" x="36.071999999999996" y="0" class="w"></rect><text x="36.071999999999996" y="1.67" class="i">-0.9</text><text x="40.08" y="1.67" class="f">│</text><rect height="2.171" width="4" x="41.082" y="0" class="v"></rect><text x="41.082" y="1.67" class="i"> 0.5</text><text x="45.089999999999996" y="1.67" class="f">│</text><rect height="2.171" width="4" x="46.09199999999999" y="0" class="o"></rect><text x="46.09199999999999" y="1.67" class="i">-0.3</text><text x="50.1" y="1.67" class="f">│</text><rect height="2.171" width="4" x="51.102" y="0" class="r"></rect><text x="51.102" y="1.67" class="i"> -1 </text><text x="55.10999999999999" y="1.67" class="f">│</text><rect height="2.171" width="4" x="56.111999999999995" y="0" class="n"></rect><text x="56.111999999999995" y="1.67" class="i"> 0.6</text><text x="60.11999999999999" y="1.67" class="f">│</text><rect height="2.171" width="4" x="61.12199999999999" y="0" class="x"></rect><text x="61.12199999999999" y="1.67" class="i">-0.2</text><text x="65.13" y="1.67" class="f">│</text><rect height="2.171" width="4" x="66.13199999999999" y="0" class="w"></rect><text x="66.13199999999999" y="1.67" class="i">-0.9</text><text x="70.13999999999999" y="1.67" class="f">│</text></symbol><symbol id="6"><text x="0" y="1.67" class="f">│</text><text x="2.004" y="1.67" class="g">4</text><text x="5.01" y="1.67" class="f">│</text><rect height="2.171" width="4" x="6.012" y="0" class="h"></rect><text x="6.012" y="1.67" class="i"> 0.9</text><text x="10.02" y="1.67" class="f">│</text><rect height="2.171" width="4" x="11.021999999999998" y="0" class="m"></rect><text x="11.021999999999998" y="1.67" class="i">-0.5</text><text x="15.029999999999998" y="1.67" class="f">│</text><rect height="2.171" width="4" x="16.032" y="0" class="q"></rect><text x="16.032" y="1.67" class="i">-0.1</text><text x="20.04" y="1.67" class="f">│</text><rect height="2.171" width="4" x="21.041999999999998" y="0" class="u"></rect><text x="21.041999999999998" y="1.67" class="i"> 0.3</text><text x="25.05" y="1.67" class="f">│</text><rect height="2.171" width="4" x="26.052" y="0" class="y"></rect><text x="26.052" y="1.67" class="i"> 1  </text><text x="30.059999999999995" y="1.67" class="f">│</text><rect height="2.171" width="4" x="31.061999999999998" y="0" class="k"></rect><text x="31.061999999999998" y="1.67" class="i">-0.7</text><text x="35.06999999999999" y="1.67" class="f">│</text><rect height="2.171" width="4" x="36.071999999999996" y="0" class="o"></rect><text x="36.071999999999996" y="1.67" class="i">-0.3</text><text x="40.08" y="1.67" class="f">│</text><rect height="2.171" width="4" x="41.082" y="0" class="s"></rect><text x="41.082" y="1.67" class="i"> 0.1</text><text x="45.089999999999996" y="1.67" class="f">│</text><rect height="2.171" width="4" x="46.09199999999999" y="0" class="z"></rect><text x="46.09199999999999" y="1.67" class="i"> 0.7</text><text x="50.1" y="1.67" class="f">│</text><rect height="2.171" width="4" x="51.102" y="0" class="w"></rect><text x="51.102" y="1.67" class="i">-0.9</text><text x="55.10999999999999" y="1.67" class="f">│</text><rect height="2.171" width="4" x="56.111999999999995" y="0" class="m"></rect><text x="56.111999999999995" y="1.67" class="i">-0.5</text><text x="60.11999999999999" y="1.67" class="f">│</text><rect height="2.171" width="4" x="61.12199999999999" y="0" class="j"></rect><text x="61.12199999999999" y="1.67" class="i"> 0.2</text><text x="65.13" y="1.67" class="f">│</text><rect height="2.171" width="4" x="66.13199999999999" y="0" class="n"></rect><text x="66.13199999999999" y="1.67" class="i"> 0.6</text><text x="70.13999999999999" y="1.67" class="f">│</text></symbol><symbol id="7"><text x="0" y="1.67" class="f">│</text><text x="2.004" y="1.67" class="g">5</text><text x="5.01" y="1.67" class="f">│</text><rect height="2.171" width="4" x="6.012" y="0" class="v"></rect><text x="6.012" y="1.67" class="i"> 0.5</text><text x="10.02" y="1.67" class="f">│</text><rect height="2.171" width="4" x="11.021999999999998" y="0" class="n"></rect><text x="11.021999999999998" y="1.67" class="i"> 0.6</text><text x="15.029999999999998" y="1.67" class="f">│</text><rect height="2.171" width="4" x="16.032" y="0" class="s"></rect><text x="16.032" y="1.67" class="i"> 0.1</text><text x="20.04" y="1.67" class="f">│</text><rect height="2.171" width="4" x="21.041999999999998" y="0" class="x"></rect><text x="21.041999999999998" y="1.67" class="i">-0.2</text><text x="25.05" y="1.67" class="f">│</text><rect height="2.171" width="4" x="26.052" y="0" class="k"></rect><text x="26.052" y="1.67" class="i">-0.7</text><text x="30.059999999999995" y="1.67" class="f">│</text><rect height="2.171" width="4" x="31.061999999999998" y="0" class="p"></rect><text x="31.061999999999998" y="1.67" class="i"> 0.8</text><text x="35.06999999999999" y="1.67" class="f">│</text><rect height="2.171" width="4" x="36.071999999999996" y="0" class="n"></rect><text x="36.071999999999996" y="1.67" class="i"> 0.6</text><text x="40.08" y="1.67" class="f">│</text><rect height="2.171" width="4" x="41.082" y="0" class="s"></rect><text x="41.082" y="1.67" class="i"> 0.1</text><text x="45.089999999999996" y="1.67" class="f">│</text><rect height="2.171" width="4" x="46.09199999999999" y="0" class="m"></rect><text x="46.09199999999999" y="1.67" class="i">-0.5</text><text x="50.1" y="1.67" class="f">│</text><rect height="2.171" width="4" x="51.102" y="0" class="k"></rect><text x="51.102" y="1.67" class="i">-0.7</text><text x="55.10999999999999" y="1.67" class="f">│</text><rect height="2.171" width="4" x="56.111999999999995" y="0" class="z"></rect><text x="56.111999999999995" y="1.67" class="i"> 0.7</text><text x="60.11999999999999" y="1.67" class="f">│</text><rect height="2.171" width="4" x="61.12199999999999" y="0" class="u"></rect><text x="61.12199999999999" y="1.67" class="i"> 0.3</text><text x="65.13" y="1.67" class="f">│</text><rect height="2.171" width="4" x="66.13199999999999" y="0" class="A"></rect><text x="66.13199999999999" y="1.67" class="i"> 0  </text><text x="70.13999999999999" y="1.67" class="f">│</text></symbol><symbol id="8"><text x="0" y="1.67" class="f">│</text><text x="5.01" y="1.67" class="f">│</text><text x="7.013999999999999" y="1.67" class="g">a</text><text x="10.02" y="1.67" class="f">│</text><text x="12.024" y="1.67" class="g">b</text><text x="15.029999999999998" y="1.67" class="f">│</text><text x="17.034" y="1.67" class="g">c</text><text x="20.04" y="1.67" class="f">│</text><text x="22.043999999999997" y="1.67" class="g">d</text><text x="25.05" y="1.67" class="f">│</text><text x="27.054" y="1.67" class="g">e</text><text x="30.059999999999995" y="1.67" class="f">│</text><text x="32.064" y="1.67" class="g">f</text><text x="35.06999999999999" y="1.67" class="f">│</text><text x="37.074" y="1.67" class="g">g</text><text x="40.08" y="1.67" class="f">│</text><text x="42.083999999999996" y="1.67" class="g">h</text><text x="45.089999999999996" y="1.67" class="f">│</text><text x="47.093999999999994" y="1.67" class="g">i</text><text x="50.1" y="1.67" class="f">│</text><text x="52.104" y="1.67" class="g">j</text><text x="55.10999999999999" y="1.67" class="f">│</text><text x="57.114" y="1.67" class="g">k</text><text x="60.11999999999999" y="1.67" class="f">│</text><text x="62.123999999999995" y="1.67" class="g">l</text><text x="65.13" y="1.67" class="f">│</text><text x="67.134" y="1.67" class="g">m</text><text x="70.13999999999999" y="1.67" class="f">│</text></symbol><symbol id="9"><text x="0" y="1.67" class="f">└────┴────┴────┴────┴────┴────┴────┴────┴────┴────┴────┴────┴────┴────┘</text></symbol><symbol id="10"><text x="0" y="1.67" class="f">┌──────┬──────┬──────┬──────┬──────┬──────┬──────┬──────┬──────┬──────┬──────┐</text></symbol><symbol id="11"><text x="0" y="1.67" class="f">│</text><text x="1.002" y="1.67" class="g">Legend</text><text x="7.013999999999999" y="1.67" class="f">│</text><rect height="2.171" width="6" x="8.016" y="0" class="r"></rect><text x="8.016" y="1.67" class="i">  -1  </text><text x="14.027999999999999" y="1.67" class="f">│</text><rect height="2.171" width="6" x="15.029999999999998" y="0" class="B"></rect><text x="15.029999999999998" y="1.67" class="i"> -0.78</text><text x="21.041999999999998" y="1.67" class="f">│</text><rect height="2.171" width="6" x="22.043999999999997" y="0" class="C"></rect><text x="22.043999999999997" y="1.67" class="i"> -0.56</text><text x="28.055999999999997" y="1.67" class="f">│</text><rect height="2.171" width="6" x="29.058" y="0" class="D"></rect><text x="29.058" y="1.67" class="i"> -0.33</text><text x="35.06999999999999" y="1.67" class="f">│</text><rect height="2.171" width="6" x="36.071999999999996" y="0" class="E"></rect><text x="36.071999999999996" y="1.67" class="i"> -0.11</text><text x="42.083999999999996" y="1.67" class="f">│</text><rect height="2.171" width="6" x="43.086" y="0" class="F"></rect><text x="43.086" y="1.67" class="i"> 0.11 </text><text x="49.098" y="1.67" class="f">│</text><rect height="2.171" width="6" x="50.1" y="0" class="G"></rect><text x="50.1" y="1.67" class="i"> 0.33 </text><text x="56.111999999999995" y="1.67" class="f">│</text><rect height="2.171" width="6" x="57.114" y="0" class="H"></rect><text x="57.114" y="1.67" class="i"> 0.56 </text><text x="63.12599999999999" y="1.67" class="f">│</text><rect height="2.171" width="6" x="64.128" y="0" class="I"></rect><text x="64.128" y="1.67" class="i"> 0.78 </text><text x="70.13999999999999" y="1.67" class="f">│</text><rect height="2.171" width="6" x="71.142" y="0" class="y"></rect><text x="71.142" y="1.67" class="i">  1   </text><text x="77.154" y="1.67" class="f">│</text></symbol><symbol id="12"><text x="0" y="1.67" class="f">└──────┴──────┴──────┴──────┴──────┴──────┴──────┴──────┴──────┴──────┴──────┘</text></symbol><symbol id="a"><rect height="24" width="80" x="0" y="0" class="J"></rect></symbol></defs><rect height="52.104" width="80" class="a"></rect><g class="L"><svg x="0" y="0" width="560"><svg x="0"><use xlink:href="#a"></use></svg><svg x="80"><use xlink:href="#a"></use><use xlink:href="#1" y="0"></use><use xlink:href="#2" y="2.171"></use><use xlink:href="#3" y="4.342"></use><use xlink:href="#4" y="6.513"></use><use xlink:href="#3" y="8.684"></use><text x="0" y="12.525" class="f">│</text><text x="2.004" y="12.525" class="g">3</text><text x="5.01" y="12.525" class="f">│</text><rect height="2.171" width="4" x="6.012" y="10.855" class="l"></rect><text x="6.012" y="12.525" class="i"> 0.4</text><text x="10.02" y="12.525" class="f">│</text><rect height="2.171" width="4" x="11.021999999999998" y="10.855" class="l"></rect><text x="11.021999999999998" y="12.525" class="i"> 0.4</text><text x="15.029999999999998" y="12.525" class="f">│</text><rect height="2.171" width="4" x="16.032" y="10.855" class="o"></rect><text x="16.032" y="12.525" class="i">-0.3</text><text x="20.04" y="12.525" class="f">│</text><rect height="2.171" width="4" x="21.041999999999998" y="10.855" class="r"></rect><text x="21.041999999999998" y="12.525" class="i"> -1 </text><text x="25.05" y="12.525" class="f">│</text><rect height="2.171" width="4" x="26.052" y="10.855" class="u"></rect><text x="26.052" y="12.525" class="i"> 0.3</text><text x="30.059999999999995" y="12.525" class="f">│</text><rect height="2.171" width="4" x="31.061999999999998" y="10.855" class="x"></rect><text x="31.061999999999998" y="12.525" class="i">-0.2</text><text x="35.06999999999999" y="12.525" class="f">│</text><rect height="2.171" width="4" x="36.071999999999996" y="10.855" class="w"></rect><text x="36.071999999999996" y="12.525" class="i">-0.9</text></svg><svg x="160"><use xlink:href="#a"></use><use xlink:href="#1" y="0"></use><use xlink:href="#2" y="2.171"></use><use xlink:href="#3" y="4.342"></use><use xlink:href="#4" y="6.513"></use><use xlink:href="#3" y="8.684"></use><use xlink:href="#5" y="10.855"></use><use xlink:href="#3" y="13.026"></use><use xlink:href="#6" y="15.197"></use><text x="0" y="19.037999999999997" class="f">├────┼────┼────┼────┼────┼────┼────┼────┼────┼────┼────┼────┼────┼───</text></svg><svg x="240"><use xlink:href="#a"></use><use xlink:href="#1" y="0"></use><use xlink:href="#2" y="2.171"></use><use xlink:href="#3" y="4.342"></use><use xlink:href="#4" y="6.513"></use><use xlink:href="#3" y="8.684"></use><use xlink:href="#5" y="10.855"></use><use xlink:href="#3" y="13.026"></use><use xlink:href="#6" y="15.197"></use><use xlink:href="#3" y="17.368"></use><use xlink:href="#7" y="19.539"></use><use xlink:href="#3" y="21.71"></use><use xlink:href="#8" y="23.880999999999997"></use><text x="0" y="27.722" class="f">└────┴────┴────┴────┴────┴────┴────┴────┴────┴────┴───</text></svg><svg x="320"><use xlink:href="#a"></use><use xlink:href="#1" y="0"></use><use xlink:href="#2" y="2.171"></use><use xlink:href="#3" y="4.342"></use><use xlink:href="#4" y="6.513"></use><use xlink:href="#3" y="8.684"></use><use xlink:href="#5" y="10.855"></use><use xlink:href="#3" y="13.026"></use><use xlink:href="#6" y="15.197"></use><use xlink:href="#3" y="17.368"></use><use xlink:href="#7" y="19.539"></use><use xlink:href="#3" y="21.71"></use><use xlink:href="#8" y="23.880999999999997"></use><use xlink:href="#9" y="26.052"></use><use xlink:href="#10" y="30.394"></use><use xlink:href="#11" y="32.565"></use><text x="0" y="36.406" class="f">└──────┴──────┴──────┴──────┴──────┴──────┴──────┴──────┴──────┴────</text></svg><svg x="400"><use xlink:href="#a"></use><use xlink:href="#1" y="0"></use><use xlink:href="#2" y="2.171"></use><use xlink:href="#3" y="4.342"></use><use xlink:href="#4" y="6.513"></use><use xlink:href="#3" y="8.684"></use><use xlink:href="#5" y="10.855"></use><use xlink:href="#3" y="13.026"></use><use xlink:href="#6" y="15.197"></use><use xlink:href="#3" y="17.368"></use><use xlink:href="#7" y="19.539"></use><use xlink:href="#3" y="21.71"></use><use xlink:href="#8" y="23.880999999999997"></use><use xlink:href="#9" y="26.052"></use><use xlink:href="#10" y="30.394"></use><use xlink:href="#11" y="32.565"></use><use xlink:href="#12" y="34.736"></use></svg><svg x="480"><use xlink:href="#a"></use><use xlink:href="#1" y="0"></use><use xlink:href="#2" y="2.171"></use><use xlink:href="#3" y="4.342"></use><use xlink:href="#4" y="6.513"></use><use xlink:href="#3" y="8.684"></use><use xlink:href="#5" y="10.855"></use><use xlink:href="#3" y="13.026"></use><use xlink:href="#6" y="15.197"></use><use xlink:href="#3" y="17.368"></use><use xlink:href="#7" y="19.539"></use><use xlink:href="#3" y="21.71"></use><use xlink:href="#8" y="23.880999999999997"></use><use xlink:href="#9" y="26.052"></use><use xlink:href="#10" y="30.394"></use><use xlink:href="#11" y="32.565"></use><use xlink:href="#12" y="34.736"></use><text x="0" y="42.919" class="f">Restarting</text><text x="11.021999999999998" y="42.919" class="f">animation...</text></svg></svg></g></g></svg></svg>