<svg xmlns="http://www.w3.org/2000/svg" xmlns:xlink="http://www.w3.org/1999/xlink" width="840" height="581.04"><rect width="840" height="581.04" rx="5" ry="5" class="a"></rect><svg y="0%" x="0%"><circle cx="20" cy="20" r="6" class="b"></circle><circle cx="40" cy="20" r="6" class="c"></circle><circle cx="60" cy="20" r="6" class="d"></circle></svg><svg height="521.04" viewBox="0 0 80 52.104" width="800" x="15" xmlns="http://www.w3.org/2000/svg" xmlns:xlink="http://www.w3.org/1999/xlink" y="50"><style>.e, .g, .f {
	font-family:
			'Courier New'
			Roboto,
			Helvetica,
			Arial,
			sans-serif,
			'Apple Color Emoji',
			'Segoe UI Emoji' !important;
}.a{fill:rgb(35,35,35)}.b{fill:#ff5f58}.c{fill:#ffbd2e}.d{fill:#18c132}.e{font-family:'Courier New',Monaco,Consolas,Menlo,'Bitstream Vera Sans Mono','Powerline Symbols',monospace}.f{fill:rgb(160,160,160);white-space:pre}.g{fill:transparent}.i{animation-duration:9.18577s;animation-iteration-count:infinite;animation-name:h;animation-timing-function:steps(1,end)}@keyframes h{0%{transform:translateX(-0px)}2%{transform:translateX(-80px)}12.9%{transform:translateX(-160px)}12.9%{transform:translateX(-240px)}23.8%{transform:translateX(-320px)}34.7%{transform:translateX(-400px)}34.7%{transform:translateX(-480px)}45.6%{transform:translateX(-560px)}100%{transform:translateX(-640px)}}</style><g font-family="'Courier New',Monaco, Consolas, Menlo, &#x27;Bitstream Vera Sans Mono&#x27;, &#x27;Powerline Symbols&#x27;, monospace" font-size="1.67" class="e"><defs><symbol id="1"><text x="0" y="1.67" class="f">Current</text><text x="8.016" y="1.67" class="f">count:</text><text x="15.029999999999998" y="1.67" class="f">0</text></symbol><symbol id="2"><text x="0" y="1.67" class="f">Areas</text><text x="6.012" y="1.67" class="f">can</text><text x="10.02" y="1.67" class="f">update</text><text x="17.034" y="1.67" class="f">their</text><text x="23.045999999999996" y="1.67" class="f">content</text><text x="31.061999999999998" y="1.67" class="f">dynamically!</text></symbol><symbol id="3"><text x="0" y="1.67" class="f">Current</text><text x="8.016" y="1.67" class="f">count:</text><text x="15.029999999999998" y="1.67" class="f">2</text></symbol><symbol id="4"><text x="0" y="1.67" class="f">Current</text><text x="8.016" y="1.67" class="f">count:</text><text x="15.029999999999998" y="1.67" class="f">4</text></symbol><symbol id="a"><rect height="24" width="80" x="0" y="0" class="g"></rect></symbol></defs><rect height="52.104" width="80" class="a"></rect><g class="i"><svg x="0" y="0" width="720"><svg x="0"><use xlink:href="#a"></use></svg><svg x="80"><use xlink:href="#a"></use><use xlink:href="#1" y="0"></use><use xlink:href="#2" y="2.171"></use></svg><svg x="160"><use xlink:href="#a"></use><use xlink:href="#1" y="0"></use><use xlink:href="#2" y="2.171"></use></svg><svg x="240"><use xlink:href="#a"></use><text x="0" y="1.67" class="f">Current</text><text x="8.016" y="1.67" class="f">count:</text><text x="15.029999999999998" y="1.67" class="f">1</text><use xlink:href="#2" y="2.171"></use></svg><svg x="320"><use xlink:href="#a"></use><use xlink:href="#3" y="0"></use><use xlink:href="#2" y="2.171"></use></svg><svg x="400"><use xlink:href="#a"></use><use xlink:href="#3" y="0"></use><use xlink:href="#2" y="2.171"></use></svg><svg x="480"><use xlink:href="#a"></use><text x="0" y="1.67" class="f">Current</text><text x="8.016" y="1.67" class="f">count:</text><text x="15.029999999999998" y="1.67" class="f">3</text><use xlink:href="#2" y="2.171"></use></svg><svg x="560"><use xlink:href="#a"></use><use xlink:href="#4" y="0"></use><use xlink:href="#2" y="2.171"></use></svg><svg x="640"><use xlink:href="#a"></use><use xlink:href="#4" y="0"></use><use xlink:href="#2" y="2.171"></use><text x="43.086" y="6.012" class="f">Restarting</text><text x="54.108" y="6.012" class="f">animation...</text></svg></svg></g></g></svg></svg>