<svg xmlns="http://www.w3.org/2000/svg" xmlns:xlink="http://www.w3.org/1999/xlink" width="840" height="581.04"><rect width="840" height="581.04" rx="5" ry="5" class="a"></rect><svg y="0%" x="0%"><circle cx="20" cy="20" r="6" class="b"></circle><circle cx="40" cy="20" r="6" class="c"></circle><circle cx="60" cy="20" r="6" class="d"></circle></svg><svg height="521.04" viewBox="0 0 80 52.104" width="800" x="15" xmlns="http://www.w3.org/2000/svg" xmlns:xlink="http://www.w3.org/1999/xlink" y="50"><style>.e, .g, .f {
	font-family:
			'Courier New'
			Roboto,
			Helvetica,
			Arial,
			sans-serif,
			'Apple Color Emoji',
			'Segoe UI Emoji' !important;
}.a{fill:rgb(35,35,35)}.b{fill:#ff5f58}.c{fill:#ffbd2e}.d{fill:#18c132}.e{font-family:'Courier New',Monaco,Consolas,Menlo,'Bitstream Vera Sans Mono','Powerline Symbols',monospace}.f{fill:rgb(160,160,160);white-space:pre}.g{fill:transparent}.i{animation-duration:5.00761s;animation-iteration-count:infinite;animation-name:h;animation-timing-function:steps(1,end)}@keyframes h{0%{transform:translateX(-0px)}0.2%{transform:translateX(-80px)}100%{transform:translateX(-160px)}}</style><g font-family="'Courier New',Monaco, Consolas, Menlo, &#x27;Bitstream Vera Sans Mono&#x27;, &#x27;Powerline Symbols&#x27;, monospace" font-size="1.67" class="e"><defs><symbol id="1"><text x="0" y="1.67" class="f">██████</text><text x="8.016" y="1.67" class="f">████████</text><text x="17.034" y="1.67" class="f">███████</text><text x="25.05" y="1.67" class="f">██████</text><text x="33.065999999999995" y="1.67" class="f">███</text><text x="40.08" y="1.67" class="f">███</text></symbol><symbol id="2"><text x="0" y="1.67" class="f">██</text><text x="5.01" y="1.67" class="f">██</text><text x="11.021999999999998" y="1.67" class="f">██</text><text x="17.034" y="1.67" class="f">██</text><text x="25.05" y="1.67" class="f">██</text><text x="30.059999999999995" y="1.67" class="f">██</text><text x="33.065999999999995" y="1.67" class="f">████</text><text x="39.077999999999996" y="1.67" class="f">████</text></symbol><symbol id="3"><text x="0" y="1.67" class="f">██████</text><text x="11.021999999999998" y="1.67" class="f">██</text><text x="17.034" y="1.67" class="f">█████</text><text x="25.05" y="1.67" class="f">██████</text><text x="33.065999999999995" y="1.67" class="f">██</text><text x="36.071999999999996" y="1.67" class="f">████</text><text x="41.082" y="1.67" class="f">██</text></symbol><symbol id="4"><text x="0" y="1.67" class="f">██</text><text x="11.021999999999998" y="1.67" class="f">██</text><text x="17.034" y="1.67" class="f">██</text><text x="25.05" y="1.67" class="f">██</text><text x="30.059999999999995" y="1.67" class="f">██</text><text x="33.065999999999995" y="1.67" class="f">██</text><text x="37.074" y="1.67" class="f">██</text><text x="41.082" y="1.67" class="f">██</text></symbol><symbol id="5"><text x="0" y="1.67" class="f">██</text><text x="11.021999999999998" y="1.67" class="f">██</text><text x="17.034" y="1.67" class="f">███████</text><text x="25.05" y="1.67" class="f">██</text><text x="30.059999999999995" y="1.67" class="f">██</text><text x="33.065999999999995" y="1.67" class="f">██</text><text x="41.082" y="1.67" class="f">██</text></symbol><symbol id="a"><rect height="24" width="80" x="0" y="0" class="g"></rect></symbol></defs><rect height="52.104" width="80" class="a"></rect><g class="i"><svg x="0" y="0" width="240"><svg x="0"><use xlink:href="#a"></use></svg><svg x="80"><use xlink:href="#a"></use><use xlink:href="#1" y="0"></use><use xlink:href="#2" y="2.171"></use><use xlink:href="#3" y="4.342"></use><use xlink:href="#4" y="6.513"></use><use xlink:href="#5" y="8.684"></use></svg><svg x="160"><use xlink:href="#a"></use><use xlink:href="#1" y="0"></use><use xlink:href="#2" y="2.171"></use><use xlink:href="#3" y="4.342"></use><use xlink:href="#4" y="6.513"></use><use xlink:href="#5" y="8.684"></use><text x="0" y="16.866999999999997" class="f">Restarting</text><text x="11.021999999999998" y="16.866999999999997" class="f">animation...</text></svg></svg></g></g></svg></svg>