<svg xmlns="http://www.w3.org/2000/svg" xmlns:xlink="http://www.w3.org/1999/xlink" width="840" height="581.04"><rect width="840" height="581.04" rx="5" ry="5" class="a"></rect><svg y="0%" x="0%"><circle cx="20" cy="20" r="6" class="b"></circle><circle cx="40" cy="20" r="6" class="c"></circle><circle cx="60" cy="20" r="6" class="d"></circle></svg><svg height="521.04" viewBox="0 0 80 52.104" width="800" x="15" xmlns="http://www.w3.org/2000/svg" xmlns:xlink="http://www.w3.org/1999/xlink" y="50"><style>.a{fill:rgb(35,35,35)}.b{fill:#ff5f58}.c{fill:#ffbd2e}.d{fill:#18c132}.e{font-family:Monaco,Consolas,Menlo,'Bitstream Vera Sans Mono','Powerline Symbols',monospace}.f{fill:rgb(160,160,160);white-space:pre}.g{fill:transparent}.i{animation-duration:6.331233s;animation-iteration-count:infinite;animation-name:h;animation-timing-function:steps(1,end)}@keyframes h{0%{transform:translateX(-0px)}21%{transform:translateX(-80px)}100%{transform:translateX(-160px)}}</style><g font-family="Monaco, Consolas, Menlo, &#x27;Bitstream Vera Sans Mono&#x27;, &#x27;Powerline Symbols&#x27;, monospace" font-size="1.67" class="e"><defs><symbol id="1"><text x="0" y="1.67" class="f">#</text><text x="2.004" y="1.67" class="f">github.com/pterm/pterm/_examples/print-color-fade</text></symbol><symbol id="2"><text x="0" y="1.67" class="f">_examples/print-color-fade/main.go:11:67:</text><text x="42.083999999999996" y="1.67" class="f">cannot</text><text x="49.098" y="1.67" class="f">call</text><text x="54.108" y="1.67" class="f">pointer</text><text x="62.123999999999995" y="1.67" class="f">method</text><text x="69.13799999999999" y="1.67" class="f">on</text><text x="72.14399999999999" y="1.67" class="f">from.Fad</text></symbol><symbol id="3"><text x="0" y="1.67" class="f">e(0,</text><text x="5.01" y="1.67" class="f">float32(pterm.GetTerminalHeight()),</text><text x="41.082" y="1.67" class="f">float32(i),</text><text x="53.105999999999995" y="1.67" class="f">to)</text></symbol><symbol id="4"><text x="0" y="1.67" class="f">_examples/print-color-fade/main.go:11:67:</text><text x="42.083999999999996" y="1.67" class="f">cannot</text><text x="49.098" y="1.67" class="f">take</text><text x="54.108" y="1.67" class="f">the</text><text x="58.116" y="1.67" class="f">address</text><text x="66.13199999999999" y="1.67" class="f">of</text><text x="69.13799999999999" y="1.67" class="f">from.Fade(0</text></symbol><symbol id="5"><text x="0" y="1.67" class="f">,</text><text x="2.004" y="1.67" class="f">float32(pterm.GetTerminalHeight()),</text><text x="38.07599999999999" y="1.67" class="f">float32(i),</text><text x="50.1" y="1.67" class="f">to)</text></symbol><symbol id="6"><text x="0" y="1.67" class="f">note:</text><text x="6.012" y="1.67" class="f">module</text><text x="13.026" y="1.67" class="f">requires</text><text x="22.043999999999997" y="1.67" class="f">Go</text><text x="25.05" y="1.67" class="f">1.15</text></symbol><symbol id="a"><rect height="24" width="80" x="0" y="0" class="g"></rect></symbol></defs><rect height="52.104" width="80" class="a"></rect><g class="i"><svg x="0" y="0" width="240"><svg x="0"><use xlink:href="#a"></use></svg><svg x="80"><use xlink:href="#a"></use><use xlink:href="#1" y="0"></use><use xlink:href="#2" y="2.171"></use><use xlink:href="#3" y="4.342"></use><use xlink:href="#4" y="6.513"></use><use xlink:href="#5" y="8.684"></use><use xlink:href="#6" y="10.855"></use></svg><svg x="160"><use xlink:href="#a"></use><use xlink:href="#1" y="0"></use><use xlink:href="#2" y="2.171"></use><use xlink:href="#3" y="4.342"></use><use xlink:href="#4" y="6.513"></use><use xlink:href="#5" y="8.684"></use><use xlink:href="#6" y="10.855"></use><text x="0" y="16.866999999999997" class="f">restarting...</text></svg></svg></g></g></svg></svg>