<svg xmlns="http://www.w3.org/2000/svg" xmlns:xlink="http://www.w3.org/1999/xlink" width="840" height="581.04"><rect width="840" height="581.04" rx="5" ry="5" class="a"></rect><svg y="0%" x="0%"><circle cx="20" cy="20" r="6" class="b"></circle><circle cx="40" cy="20" r="6" class="c"></circle><circle cx="60" cy="20" r="6" class="d"></circle></svg><svg height="521.04" viewBox="0 0 80 52.104" width="800" x="15" xmlns="http://www.w3.org/2000/svg" xmlns:xlink="http://www.w3.org/1999/xlink" y="50"><style>.e, .g, .f {
	font-family:
			'Courier New'
			Roboto,
			Helvetica,
			Arial,
			sans-serif,
			'Apple Color Emoji',
			'Segoe UI Emoji' !important;
}.a{fill:rgb(35,35,35)}.b{fill:#ff5f58}.c{fill:#ffbd2e}.d{fill:#18c132}.e{font-family:'Courier New',Monaco,Consolas,Menlo,'Bitstream Vera Sans Mono','Powerline Symbols',monospace}.f{fill:rgb(160,160,160);white-space:pre}.g{fill:rgb(104,104,104);white-space:pre}.h{fill:transparent}.j{animation-duration:5.512968s;animation-iteration-count:infinite;animation-name:i;animation-timing-function:steps(1,end)}@keyframes i{0%{transform:translateX(-0px)}7%{transform:translateX(-80px)}9.3%{transform:translateX(-160px)}100%{transform:translateX(-240px)}}</style><g font-family="'Courier New',Monaco, Consolas, Menlo, &#x27;Bitstream Vera Sans Mono&#x27;, &#x27;Powerline Symbols&#x27;, monospace" font-size="1.67" class="e"><defs><symbol id="1"><text x="0" y="1.67" class="f">Firstname</text><text x="10.02" y="1.67" class="g">|</text><text x="12.024" y="1.67" class="f">Lastname</text><text x="21.041999999999998" y="1.67" class="g">|</text><text x="42.083999999999996" y="1.67" class="f">Email</text><text x="48.096" y="1.67" class="g">|</text><text x="65.13" y="1.67" class="f">Note</text></symbol><symbol id="2"><text x="5.01" y="1.67" class="f">Paul</text><text x="10.02" y="1.67" class="g">|</text><text x="16.032" y="1.67" class="f">Dean</text><text x="21.041999999999998" y="1.67" class="g">|</text><text x="23.045999999999996" y="1.67" class="f">augue@velitAliquam.co.uk</text><text x="48.096" y="1.67" class="g">|</text></symbol><symbol id="3"><text x="3.006" y="1.67" class="f">Callie</text><text x="10.02" y="1.67" class="g">|</text><text x="15.029999999999998" y="1.67" class="f">Mckay</text><text x="21.041999999999998" y="1.67" class="g">|</text><text x="31.061999999999998" y="1.67" class="f">nunc.sed@est.com</text><text x="48.096" y="1.67" class="g">|</text><text x="50.1" y="1.67" class="f">这是一个测试,</text><text x="58.116" y="1.67" class="f">haha!</text></symbol><symbol id="4"><text x="4.008" y="1.67" class="f">Libby</text><text x="10.02" y="1.67" class="g">|</text><text x="13.026" y="1.67" class="f">Camacho</text><text x="21.041999999999998" y="1.67" class="g">|</text><text x="28.055999999999997" y="1.67" class="f">lobortis@semper.com</text><text x="48.096" y="1.67" class="g">|</text><text x="52.104" y="1.67" class="f">just</text><text x="57.114" y="1.67" class="f">a</text><text x="59.117999999999995" y="1.67" class="f">test,</text><text x="65.13" y="1.67" class="f">hey!</text></symbol><symbol id="5"><text x="7.013999999999999" y="1.67" class="f">张</text><text x="9.017999999999999" y="1.67" class="g">|</text><text x="15.029999999999998" y="1.67" class="f">小宝</text><text x="18.035999999999998" y="1.67" class="g">|</text><text x="27.054" y="1.67" class="f">zhang@example.com</text><text x="45.089999999999996" y="1.67" class="g">|</text></symbol><symbol id="a"><rect height="24" width="80" x="0" y="0" class="h"></rect></symbol></defs><rect height="52.104" width="80" class="a"></rect><g class="j"><svg x="0" y="0" width="320"><svg x="0"><use xlink:href="#a"></use></svg><svg x="80"><use xlink:href="#a"></use><use xlink:href="#1" y="0"></use><use xlink:href="#2" y="4.342"></use><use xlink:href="#3" y="8.684"></use><use xlink:href="#4" y="10.855"></use></svg><svg x="160"><use xlink:href="#a"></use><use xlink:href="#1" y="0"></use><use xlink:href="#2" y="4.342"></use><use xlink:href="#3" y="8.684"></use><use xlink:href="#4" y="10.855"></use><use xlink:href="#5" y="13.026"></use></svg><svg x="240"><use xlink:href="#a"></use><use xlink:href="#1" y="0"></use><use xlink:href="#2" y="4.342"></use><use xlink:href="#3" y="8.684"></use><use xlink:href="#4" y="10.855"></use><use xlink:href="#5" y="13.026"></use><text x="0" y="23.380000000000003" class="f">Restarting</text><text x="11.021999999999998" y="23.380000000000003" class="f">animation...</text></svg></svg></g></g></svg></svg>