<svg xmlns="http://www.w3.org/2000/svg" xmlns:xlink="http://www.w3.org/1999/xlink" width="3160" height="363.94"><rect width="3160" height="363.94" rx="5" ry="5" class="a"></rect><svg y="0%" x="0%"><circle cx="20" cy="20" r="6" class="b"></circle><circle cx="40" cy="20" r="6" class="c"></circle><circle cx="60" cy="20" r="6" class="d"></circle></svg><svg height="303.94" viewBox="0 0 312 30.394" width="3120" x="15" xmlns="http://www.w3.org/2000/svg" xmlns:xlink="http://www.w3.org/1999/xlink" y="50"><style>@font-face{
  font-family: 'JetBrainsMono';
  src: url('https://cdn.jsdelivr.net/gh/JetBrains/JetBrainsMono/web/woff2/JetBrainsMono-Regular.woff2') format('woff2'),
    url('https://cdn.jsdelivr.net/gh/JetBrains/JetBrainsMono/web/woff/JetBrainsMono-Regular.woff') format('woff'),
    url('https://cdn.jsdelivr.net/gh/JetBrains/JetBrainsMono/ttf/JetBrainsMono-Regular.ttf') format('truetype');
  font-weight: 400;
  font-style: normal;
}.a{fill:rgb(35,35,35)}.b{fill:#ff5f58}.c{fill:#ffbd2e}.d{fill:#18c132}.e{font-family:Consolas,Monaco,Consolas,Menlo,'Bitstream Vera Sans Mono','Powerline Symbols',monospace}.f{fill:rgb(104,104,104);white-space:pre}.g{fill:rgb(160,160,160);white-space:pre}.h{fill:transparent}.j{animation-duration:5.644772s;animation-iteration-count:infinite;animation-name:i;animation-timing-function:steps(1,end)}@keyframes i{0%{transform:translateX(-0px)}11.4%{transform:translateX(-312px)}11.4%{transform:translateX(-624px)}100%{transform:translateX(-936px)}}</style><g font-family="Consolas,Monaco, Consolas, Menlo, &#x27;Bitstream Vera Sans Mono&#x27;, &#x27;Powerline Symbols&#x27;, monospace" font-size="1.67" class="e"><defs><symbol id="1"><text x="0" y="1.67" class="f">│</text><text x="2.004" y="1.67" class="f">│</text><text x="4.008" y="1.67" class="f">└──</text><text x="7.013999999999999" y="1.67" class="g">LinkinPark</text></symbol><symbol id="2"><text x="0" y="1.67" class="f">│</text><text x="2.004" y="1.67" class="f">└─┬</text><text x="5.01" y="1.67" class="g">Games</text></symbol><symbol id="3"><text x="0" y="1.67" class="f">│</text><text x="4.008" y="1.67" class="f">└─┬</text><text x="7.013999999999999" y="1.67" class="g">Shooter</text></symbol><symbol id="4"><text x="0" y="1.67" class="f">│</text><text x="6.012" y="1.67" class="f">├──</text><text x="9.017999999999999" y="1.67" class="g">CallOfDuty</text></symbol><symbol id="5"><text x="0" y="1.67" class="f">│</text><text x="6.012" y="1.67" class="f">├──</text><text x="9.017999999999999" y="1.67" class="g">CS:GO</text></symbol><symbol id="6"><text x="0" y="1.67" class="f">│</text><text x="6.012" y="1.67" class="f">└─┬</text><text x="9.017999999999999" y="1.67" class="g">Battlefield</text></symbol><symbol id="7"><text x="0" y="1.67" class="f">│</text><text x="8.016" y="1.67" class="f">├──</text><text x="11.021999999999998" y="1.67" class="g">Battlefield</text><text x="23.045999999999996" y="1.67" class="g">1</text></symbol><symbol id="8"><text x="0" y="1.67" class="f">│</text><text x="8.016" y="1.67" class="f">└──</text><text x="11.021999999999998" y="1.67" class="g">Battlefield</text><text x="23.045999999999996" y="1.67" class="g">2</text></symbol><symbol id="9"><text x="0" y="1.67" class="f">└─┬</text><text x="3.006" y="1.67" class="g">F:</text></symbol><symbol id="10"><text x="2.004" y="1.67" class="f">└─┬</text><text x="5.01" y="1.67" class="g">dev</text></symbol><symbol id="11"><text x="4.008" y="1.67" class="f">├──</text><text x="7.013999999999999" y="1.67" class="g">dops</text></symbol><symbol id="12"><text x="4.008" y="1.67" class="f">└──</text><text x="7.013999999999999" y="1.67" class="g">PTerm</text></symbol><symbol id="a"><rect height="14" width="312" x="0" y="0" class="h"></rect></symbol></defs><rect height="30.394" width="312" class="a"></rect><g class="j"><svg x="0" y="0" width="1248"><svg x="0"><use xlink:href="#a"></use></svg><svg x="312"><use xlink:href="#a"></use><text x="0" y="1.67" class="f">│</text><text x="2.004" y="1.67" class="f">├──</text><text x="5.01" y="1.67" class="g">Windows</text><text x="0" y="3.8409999999999997" class="f">│</text><text x="2.004" y="3.8409999999999997" class="f">├──</text><text x="5.01" y="3.8409999999999997" class="g">Programs</text><text x="0" y="6.012" class="f">│</text><text x="2.004" y="6.012" class="f">├──</text><text x="5.01" y="6.012" class="g">Programs(x86)</text><text x="0" y="8.183" class="f">│</text><text x="2.004" y="8.183" class="f">└──</text><text x="5.01" y="8.183" class="g">dev</text><text x="0" y="10.354" class="f">├──</text><text x="3.006" y="10.354" class="g">D:</text><text x="0" y="12.525" class="f">├─┬</text><text x="3.006" y="12.525" class="g">E:</text><text x="0" y="14.696" class="f">│</text><text x="2.004" y="14.696" class="f">├──</text><text x="5.01" y="14.696" class="g">Movies</text><text x="0" y="16.866999999999997" class="f">│</text><text x="2.004" y="16.866999999999997" class="f">├─┬</text><text x="5.01" y="16.866999999999997" class="g">Music</text><use xlink:href="#1" y="17.368"></use><use xlink:href="#2" y="19.539"></use><use xlink:href="#3" y="21.71"></use><use xlink:href="#4" y="23.880999999999997"></use><use xlink:href="#5" y="26.052"></use><text x="0" y="29.893" class="f">│</text><text x="6.012" y="29.893" class="f">└─┬</text></svg><svg x="624"><use xlink:href="#a"></use><use xlink:href="#1" y="0"></use><use xlink:href="#2" y="2.171"></use><use xlink:href="#3" y="4.342"></use><use xlink:href="#4" y="6.513"></use><use xlink:href="#5" y="8.684"></use><use xlink:href="#6" y="10.855"></use><use xlink:href="#7" y="13.026"></use><use xlink:href="#8" y="15.197"></use><use xlink:href="#9" y="17.368"></use><use xlink:href="#10" y="19.539"></use><use xlink:href="#11" y="21.71"></use><use xlink:href="#12" y="23.880999999999997"></use></svg><svg x="936"><use xlink:href="#a"></use><use xlink:href="#3" y="0"></use><use xlink:href="#4" y="2.171"></use><use xlink:href="#5" y="4.342"></use><use xlink:href="#6" y="6.513"></use><use xlink:href="#7" y="8.684"></use><use xlink:href="#8" y="10.855"></use><use xlink:href="#9" y="13.026"></use><use xlink:href="#10" y="15.197"></use><use xlink:href="#11" y="17.368"></use><use xlink:href="#12" y="19.539"></use><text x="0" y="27.722" class="g">Restarting</text><text x="11.021999999999998" y="27.722" class="g">animation...</text></svg></svg></g></g></svg></svg>