<svg xmlns="http://www.w3.org/2000/svg" xmlns:xlink="http://www.w3.org/1999/xlink" width="840" height="581.04"><rect width="840" height="581.04" rx="5" ry="5" class="a"></rect><svg y="0%" x="0%"><circle cx="20" cy="20" r="6" class="b"></circle><circle cx="40" cy="20" r="6" class="c"></circle><circle cx="60" cy="20" r="6" class="d"></circle></svg><svg height="521.04" viewBox="0 0 80 52.104" width="800" x="15" xmlns="http://www.w3.org/2000/svg" xmlns:xlink="http://www.w3.org/1999/xlink" y="50"><style>.e, .g, .f {
	font-family:
			'Courier New'
			Roboto,
			Helvetica,
			Arial,
			sans-serif,
			'Apple Color Emoji',
			'Segoe UI Emoji' !important;
}.a{fill:rgb(35,35,35)}.b{fill:#ff5f58}.c{fill:#ffbd2e}.d{fill:#18c132}.e{font-family:'Courier New',Monaco,Consolas,Menlo,'Bitstream Vera Sans Mono','Powerline Symbols',monospace}.f{fill:rgb(232,131,136)}.g{white-space:pre}.h{fill:rgb(243,86,86);white-space:pre}.i{fill:rgb(102,194,205)}.j{fill:rgb(255,0,4);white-space:pre}.k{fill:transparent}.m{animation-duration:5.385776s;animation-iteration-count:infinite;animation-name:l;animation-timing-function:steps(1,end)}.n{fill:rgb(160,160,160);white-space:pre}@keyframes l{0%{transform:translateX(-0px)}5.5%{transform:translateX(-80px)}7.2%{transform:translateX(-160px)}100%{transform:translateX(-240px)}}</style><g font-family="'Courier New',Monaco, Consolas, Menlo, &#x27;Bitstream Vera Sans Mono&#x27;, &#x27;Powerline Symbols&#x27;, monospace" font-size="1.67" class="e"><defs><symbol id="1"><rect height="2.171" width="9" x="0" y="0" class="f"></rect><text x="0" y="1.67" class="g">  ERROR  </text><text x="10.02" y="1.67" class="h">This</text><text x="15.029999999999998" y="1.67" class="h">is</text><text x="18.035999999999998" y="1.67" class="h">the</text><text x="22.043999999999997" y="1.67" class="h">default</text><text x="30.059999999999995" y="1.67" class="h">Error</text></symbol><symbol id="2"><rect height="2.171" width="10" x="0" y="0" class="i"></rect><text x="0" y="1.67" class="j"> OVERRIDE </text><text x="11.021999999999998" y="1.67" class="h">This</text><text x="16.032" y="1.67" class="h">is</text><text x="19.037999999999997" y="1.67" class="h">the</text><text x="23.045999999999996" y="1.67" class="h">default</text><text x="31.061999999999998" y="1.67" class="h">Error</text><text x="37.074" y="1.67" class="h">after</text><text x="43.086" y="1.67" class="h">the</text><text x="47.093999999999994" y="1.67" class="h">prefix</text><text x="54.108" y="1.67" class="h">was</text><text x="58.116" y="1.67" class="h">overridden</text></symbol><symbol id="a"><rect height="24" width="80" x="0" y="0" class="k"></rect></symbol></defs><rect height="52.104" width="80" class="a"></rect><g class="m"><svg x="0" y="0" width="320"><svg x="0"><use xlink:href="#a"></use></svg><svg x="80"><use xlink:href="#a"></use><use xlink:href="#1" y="0"></use><use xlink:href="#2" y="2.171"></use></svg><svg x="160"><use xlink:href="#a"></use><use xlink:href="#1" y="0"></use><use xlink:href="#2" y="2.171"></use></svg><svg x="240"><use xlink:href="#a"></use><use xlink:href="#1" y="0"></use><use xlink:href="#2" y="2.171"></use><text x="0" y="8.183" class="n">Restarting</text><text x="11.021999999999998" y="8.183" class="n">animation...</text></svg></svg></g></g></svg></svg>