<svg xmlns="http://www.w3.org/2000/svg" xmlns:xlink="http://www.w3.org/1999/xlink" width="840" height="581.04"><rect width="840" height="581.04" rx="5" ry="5" class="a"></rect><svg y="0%" x="0%"><circle cx="20" cy="20" r="6" class="b"></circle><circle cx="40" cy="20" r="6" class="c"></circle><circle cx="60" cy="20" r="6" class="d"></circle></svg><svg height="521.04" viewBox="0 0 80 52.104" width="800" x="15" xmlns="http://www.w3.org/2000/svg" xmlns:xlink="http://www.w3.org/1999/xlink" y="50"><style>.e, .g, .f {
	font-family:
			'Courier New'
			Roboto,
			Helvetica,
			Arial,
			sans-serif,
			'Apple Color Emoji',
			'Segoe UI Emoji' !important;
}.a{fill:rgb(35,35,35)}.b{fill:#ff5f58}.c{fill:#ffbd2e}.d{fill:#18c132}.e{font-family:'Courier New',Monaco,Consolas,Menlo,'Bitstream Vera Sans Mono','Powerline Symbols',monospace}.f{fill:rgb(160,160,160);white-space:pre}.g{fill:transparent}.i{animation-duration:5.287276s;animation-iteration-count:infinite;animation-name:h;animation-timing-function:steps(1,end)}@keyframes h{0%{transform:translateX(-0px)}4.2%{transform:translateX(-80px)}5.4%{transform:translateX(-160px)}100%{transform:translateX(-240px)}}</style><g font-family="'Courier New',Monaco, Consolas, Menlo, &#x27;Bitstream Vera Sans Mono&#x27;, &#x27;Powerline Symbols&#x27;, monospace" font-size="1.67" class="e"><defs><symbol id="1"><text x="0" y="1.67" class="f">{&quot;level&quot;:&quot;TRACE&quot;,&quot;msg&quot;:&quot;Doing</text><text x="30.059999999999995" y="1.67" class="f">not</text><text x="34.068" y="1.67" class="f">so</text><text x="37.074" y="1.67" class="f">important</text><text x="47.093999999999994" y="1.67" class="f">stuff&quot;,&quot;priority&quot;:&quot;super</text><text x="72.14399999999999" y="1.67" class="f">low&quot;,&quot;ti</text></symbol><symbol id="2"><text x="0" y="1.67" class="f">mestamp&quot;:&quot;2024-11-27</text><text x="21.041999999999998" y="1.67" class="f">12:35:35&quot;}</text></symbol><symbol id="3"><text x="0" y="1.67" class="f">{&quot;is</text><text x="5.01" y="1.67" class="f">this</text><text x="10.02" y="1.67" class="f">interesting&quot;:true,&quot;level&quot;:&quot;DEBUG&quot;,&quot;msg&quot;:&quot;This</text><text x="56.111999999999995" y="1.67" class="f">might</text><text x="62.123999999999995" y="1.67" class="f">be</text><text x="65.13" y="1.67" class="f">interesting&quot;,&quot;t</text></symbol><symbol id="4"><text x="0" y="1.67" class="f">imestamp&quot;:&quot;2024-11-27</text><text x="22.043999999999997" y="1.67" class="f">12:35:35&quot;,&quot;what</text><text x="38.07599999999999" y="1.67" class="f">is</text><text x="41.082" y="1.67" class="f">the</text><text x="45.089999999999996" y="1.67" class="f">meaning</text><text x="53.105999999999995" y="1.67" class="f">of</text><text x="56.111999999999995" y="1.67" class="f">life&quot;:42,&quot;when</text><text x="71.142" y="1.67" class="f">were</text><text x="76.15199999999999" y="1.67" class="f">cray</text></symbol><symbol id="5"><text x="0" y="1.67" class="f">ons</text><text x="4.008" y="1.67" class="f">invented&quot;:&quot;1903&quot;}</text></symbol><symbol id="6"><text x="0" y="1.67" class="f">{&quot;level&quot;:&quot;INFO&quot;,&quot;msg&quot;:&quot;That</text><text x="28.055999999999997" y="1.67" class="f">was</text><text x="32.064" y="1.67" class="f">actually</text><text x="41.082" y="1.67" class="f">interesting&quot;,&quot;such&quot;:&quot;wow&quot;,&quot;timestamp&quot;:&quot;</text></symbol><symbol id="7"><text x="0" y="1.67" class="f">2024-11-27</text><text x="11.021999999999998" y="1.67" class="f">12:35:35&quot;}</text></symbol><symbol id="8"><text x="0" y="1.67" class="f">{&quot;level&quot;:&quot;WARN&quot;,&quot;measures&quot;:&quot;mph&quot;,&quot;msg&quot;:&quot;Oh</text><text x="43.086" y="1.67" class="f">no,</text><text x="47.093999999999994" y="1.67" class="f">I</text><text x="49.098" y="1.67" class="f">see</text><text x="53.105999999999995" y="1.67" class="f">an</text><text x="56.111999999999995" y="1.67" class="f">error</text><text x="62.123999999999995" y="1.67" class="f">coming</text><text x="69.13799999999999" y="1.67" class="f">to</text><text x="72.14399999999999" y="1.67" class="f">us!&quot;,&quot;sp</text></symbol><symbol id="9"><text x="0" y="1.67" class="f">eed&quot;:88,&quot;timestamp&quot;:&quot;2024-11-27</text><text x="32.064" y="1.67" class="f">12:35:35&quot;}</text></symbol><symbol id="10"><text x="0" y="1.67" class="f">{&quot;error&quot;:&quot;something</text><text x="20.04" y="1.67" class="f">went</text><text x="25.05" y="1.67" class="f">wrong&quot;,&quot;level&quot;:&quot;ERROR&quot;,&quot;msg&quot;:&quot;Damn,</text><text x="61.12199999999999" y="1.67" class="f">here</text><text x="66.13199999999999" y="1.67" class="f">it</text><text x="69.13799999999999" y="1.67" class="f">is!&quot;,&quot;times</text></symbol><symbol id="11"><text x="0" y="1.67" class="f">tamp&quot;:&quot;2024-11-27</text><text x="18.035999999999998" y="1.67" class="f">12:35:35&quot;}</text></symbol><symbol id="12"><text x="0" y="1.67" class="f">{&quot;level&quot;:&quot;INFO&quot;,&quot;msg&quot;:&quot;But</text><text x="27.054" y="1.67" class="f">what&#x27;s</text><text x="34.068" y="1.67" class="f">really</text><text x="41.082" y="1.67" class="f">cool</text><text x="46.09199999999999" y="1.67" class="f">is,</text><text x="50.1" y="1.67" class="f">that</text><text x="55.10999999999999" y="1.67" class="f">you</text><text x="59.117999999999995" y="1.67" class="f">can</text><text x="63.12599999999999" y="1.67" class="f">print</text><text x="69.13799999999999" y="1.67" class="f">very</text><text x="74.148" y="1.67" class="f">long</text><text x="79.158" y="1.67" class="f">l</text></symbol><symbol id="13"><text x="0" y="1.67" class="f">ogs,</text><text x="5.01" y="1.67" class="f">and</text><text x="9.017999999999999" y="1.67" class="f">PTerm</text><text x="15.029999999999998" y="1.67" class="f">will</text><text x="20.04" y="1.67" class="f">automatically</text><text x="34.068" y="1.67" class="f">wrap</text><text x="39.077999999999996" y="1.67" class="f">them</text><text x="44.087999999999994" y="1.67" class="f">for</text><text x="48.096" y="1.67" class="f">you!</text><text x="53.105999999999995" y="1.67" class="f">Say</text><text x="57.114" y="1.67" class="f">goodbye</text><text x="65.13" y="1.67" class="f">to</text><text x="68.136" y="1.67" class="f">text,</text><text x="74.148" y="1.67" class="f">that</text><text x="79.158" y="1.67" class="f">h</text></symbol><symbol id="14"><text x="0" y="1.67" class="f">as</text><text x="3.006" y="1.67" class="f">weird</text><text x="9.017999999999999" y="1.67" class="f">line</text><text x="14.027999999999999" y="1.67" class="f">breaks!&quot;,&quot;timestamp&quot;:&quot;2024-11-27</text><text x="47.093999999999994" y="1.67" class="f">12:35:35&quot;,&quot;very&quot;:&quot;long&quot;}</text></symbol><symbol id="15"><text x="0" y="1.67" class="f">{&quot;fatal&quot;:true,&quot;level&quot;:&quot;FATAL&quot;,&quot;msg&quot;:&quot;Oh</text><text x="40.08" y="1.67" class="f">no,</text><text x="44.087999999999994" y="1.67" class="f">this</text><text x="49.098" y="1.67" class="f">process</text><text x="57.114" y="1.67" class="f">is</text><text x="60.11999999999999" y="1.67" class="f">getting</text><text x="68.136" y="1.67" class="f">killed!&quot;,&quot;ti</text></symbol><symbol id="a"><rect height="24" width="80" x="0" y="0" class="g"></rect></symbol></defs><rect height="52.104" width="80" class="a"></rect><g class="i"><svg x="0" y="0" width="320"><svg x="0"><use xlink:href="#a"></use></svg><svg x="80"><use xlink:href="#a"></use><use xlink:href="#1" y="0"></use><use xlink:href="#2" y="2.171"></use></svg><svg x="160"><use xlink:href="#a"></use><use xlink:href="#1" y="0"></use><use xlink:href="#2" y="2.171"></use><use xlink:href="#3" y="4.342"></use><use xlink:href="#4" y="6.513"></use><use xlink:href="#5" y="8.684"></use><use xlink:href="#6" y="10.855"></use><use xlink:href="#7" y="13.026"></use><use xlink:href="#8" y="15.197"></use><use xlink:href="#9" y="17.368"></use><use xlink:href="#10" y="19.539"></use><use xlink:href="#11" y="21.71"></use><use xlink:href="#12" y="23.880999999999997"></use><use xlink:href="#13" y="26.052"></use><use xlink:href="#14" y="28.223000000000003"></use><use xlink:href="#15" y="30.394"></use><use xlink:href="#2" y="32.565"></use></svg><svg x="240"><use xlink:href="#a"></use><use xlink:href="#1" y="0"></use><use xlink:href="#2" y="2.171"></use><use xlink:href="#3" y="4.342"></use><use xlink:href="#4" y="6.513"></use><use xlink:href="#5" y="8.684"></use><use xlink:href="#6" y="10.855"></use><use xlink:href="#7" y="13.026"></use><use xlink:href="#8" y="15.197"></use><use xlink:href="#9" y="17.368"></use><use xlink:href="#10" y="19.539"></use><use xlink:href="#11" y="21.71"></use><use xlink:href="#12" y="23.880999999999997"></use><use xlink:href="#13" y="26.052"></use><use xlink:href="#14" y="28.223000000000003"></use><use xlink:href="#15" y="30.394"></use><use xlink:href="#2" y="32.565"></use><text x="0" y="38.577000000000005" class="f">Restarting</text><text x="11.021999999999998" y="38.577000000000005" class="f">animation...</text></svg></svg></g></g></svg></svg>