<svg xmlns="http://www.w3.org/2000/svg" xmlns:xlink="http://www.w3.org/1999/xlink" width="840" height="581.04"><rect width="840" height="581.04" rx="5" ry="5" class="a"></rect><svg y="0%" x="0%"><circle cx="20" cy="20" r="6" class="b"></circle><circle cx="40" cy="20" r="6" class="c"></circle><circle cx="60" cy="20" r="6" class="d"></circle></svg><svg height="521.04" viewBox="0 0 80 52.104" width="800" x="15" xmlns="http://www.w3.org/2000/svg" xmlns:xlink="http://www.w3.org/1999/xlink" y="50"><style>.a{fill:rgb(35,35,35)}.b{fill:#ff5f58}.c{fill:#ffbd2e}.d{fill:#18c132}.e{font-family:Monaco,Consolas,Menlo,'Bitstream Vera Sans Mono','Powerline Symbols',monospace}.f{fill:rgb(160,160,160);white-space:pre}.g{fill:rgb(126,231,233);white-space:pre}.h{fill:transparent}.j{animation-duration:20.920478s;animation-iteration-count:infinite;animation-name:i;animation-timing-function:steps(1,end)}@keyframes i{0%{transform:translateX(-0px)}13.95%{transform:translateX(-80px)}28.29%{transform:translateX(-160px)}28.29%{transform:translateX(-240px)}42.63%{transform:translateX(-320px)}56.97%{transform:translateX(-400px)}56.98%{transform:translateX(-480px)}66.54%{transform:translateX(-560px)}66.54%{transform:translateX(-640px)}76.1%{transform:translateX(-720px)}100%{transform:translateX(-800px)}}</style><g font-family="Monaco, Consolas, Menlo, &#x27;Bitstream Vera Sans Mono&#x27;, &#x27;Powerline Symbols&#x27;, monospace" font-size="1.67" class="e"><defs><symbol id="1"><text x="0" y="1.67" class="f">How</text><text x="4.008" y="1.67" class="f">do</text><text x="7.013999999999999" y="1.67" class="f">you</text><text x="11.021999999999998" y="1.67" class="f">make</text><text x="16.032" y="1.67" class="f">something</text><text x="26.052" y="1.67" class="f">as</text><text x="29.058" y="1.67" class="f">simple</text><text x="36.071999999999996" y="1.67" class="f">as</text><text x="39.077999999999996" y="1.67" class="f">printing</text><text x="48.096" y="1.67" class="f">text</text><text x="53.105999999999995" y="1.67" class="f">exciting?</text><text x="63.12599999999999" y="1.67" class="f">🤔</text></symbol><symbol id="2"><text x="0" y="1.67" class="f">By</text><text x="3.006" y="1.67" class="f">going</text><text x="9.017999999999999" y="1.67" class="f">over</text><text x="14.027999999999999" y="1.67" class="f">every</text><text x="20.04" y="1.67" class="f">example</text><text x="28.055999999999997" y="1.67" class="f">in</text><text x="31.061999999999998" y="1.67" class="f">excruciating</text><text x="44.087999999999994" y="1.67" class="f">detail,</text><text x="52.104" y="1.67" class="f">of</text><text x="55.10999999999999" y="1.67" class="f">course!</text><text x="63.12599999999999" y="1.67" class="f">🤷</text></symbol><symbol id="3"><text x="0" y="1.67" class="f">Just</text><text x="5.01" y="1.67" class="f">Kidding!</text><text x="14.027999999999999" y="1.67" class="f">Here</text><text x="19.037999999999997" y="1.67" class="f">are</text><text x="23.045999999999996" y="1.67" class="f">some</text><text x="28.055999999999997" y="1.67" class="f">examples</text><text x="37.074" y="1.67" class="f">for</text><text x="41.082" y="1.67" class="f">your</text><text x="46.09199999999999" y="1.67" class="f">benefit</text></symbol><symbol id="4"><text x="0" y="1.67" class="f">This</text><text x="5.01" y="1.67" class="f">has</text><text x="9.017999999999999" y="1.67" class="f">been</text><text x="14.027999999999999" y="1.67" class="f">printed</text><text x="22.043999999999997" y="1.67" class="f">using</text><text x="28.055999999999997" y="1.67" class="f">formatting</text><text x="39.077999999999996" y="1.67" class="f">in</text><text x="42.083999999999996" y="1.67" class="f">Printf</text><text x="49.098" y="1.67" class="f">100%</text></symbol><symbol id="5"><text x="0" y="1.67" class="f">This</text><text x="5.01" y="1.67" class="f">has</text><text x="9.017999999999999" y="1.67" class="f">been</text><text x="14.027999999999999" y="1.67" class="f">printed</text><text x="22.043999999999997" y="1.67" class="f">using</text><text x="28.055999999999997" y="1.67" class="f">Println</text></symbol><symbol id="6"><text x="1.002" y="1.67" class="f">🎉</text><text x="5.01" y="1.67" class="f">Now</text><text x="9.017999999999999" y="1.67" class="f">Styling</text><text x="17.034" y="1.67" class="f">our</text><text x="21.041999999999998" y="1.67" class="f">examples</text><text x="30.059999999999995" y="1.67" class="f">up</text><text x="33.065999999999995" y="1.67" class="f">a</text><text x="35.06999999999999" y="1.67" class="f">bit</text><text x="39.077999999999996" y="1.67" class="f">🎉</text></symbol><symbol id="7"><text x="0" y="1.67" class="g">Thought</text><text x="8.016" y="1.67" class="g">I</text><text x="10.02" y="1.67" class="g">would</text><text x="16.032" y="1.67" class="g">dress</text><text x="22.043999999999997" y="1.67" class="g">up</text><text x="25.05" y="1.67" class="g">for</text><text x="29.058" y="1.67" class="g">the</text><text x="33.065999999999995" y="1.67" class="g">occasion!</text></symbol><symbol id="a"><rect height="24" width="80" x="0" y="0" class="h"></rect></symbol></defs><rect height="52.104" width="80" class="a"></rect><g class="j"><svg x="0" y="0" width="880"><svg x="0"><use xlink:href="#a"></use></svg><svg x="80"><use xlink:href="#a"></use><use xlink:href="#1" y="0"></use></svg><svg x="160"><use xlink:href="#a"></use><use xlink:href="#1" y="0"></use><use xlink:href="#2" y="2.171"></use></svg><svg x="240"><use xlink:href="#a"></use><use xlink:href="#1" y="0"></use><use xlink:href="#2" y="2.171"></use></svg><svg x="320"><use xlink:href="#a"></use><use xlink:href="#1" y="0"></use><use xlink:href="#2" y="2.171"></use><use xlink:href="#3" y="4.342"></use></svg><svg x="400"><use xlink:href="#a"></use><use xlink:href="#1" y="0"></use><use xlink:href="#2" y="2.171"></use><use xlink:href="#3" y="4.342"></use><use xlink:href="#4" y="6.513"></use></svg><svg x="480"><use xlink:href="#a"></use><use xlink:href="#1" y="0"></use><use xlink:href="#2" y="2.171"></use><use xlink:href="#3" y="4.342"></use><use xlink:href="#4" y="6.513"></use><use xlink:href="#5" y="8.684"></use></svg><svg x="560"><use xlink:href="#a"></use><use xlink:href="#1" y="0"></use><use xlink:href="#2" y="2.171"></use><use xlink:href="#3" y="4.342"></use><use xlink:href="#4" y="6.513"></use><use xlink:href="#5" y="8.684"></use><use xlink:href="#6" y="10.855"></use></svg><svg x="640"><use xlink:href="#a"></use><use xlink:href="#1" y="0"></use><use xlink:href="#2" y="2.171"></use><use xlink:href="#3" y="4.342"></use><use xlink:href="#4" y="6.513"></use><use xlink:href="#5" y="8.684"></use><use xlink:href="#6" y="10.855"></use></svg><svg x="720"><use xlink:href="#a"></use><use xlink:href="#1" y="0"></use><use xlink:href="#2" y="2.171"></use><use xlink:href="#3" y="4.342"></use><use xlink:href="#4" y="6.513"></use><use xlink:href="#5" y="8.684"></use><use xlink:href="#6" y="10.855"></use><use xlink:href="#7" y="13.026"></use></svg><svg x="800"><use xlink:href="#a"></use><use xlink:href="#1" y="0"></use><use xlink:href="#2" y="2.171"></use><use xlink:href="#3" y="4.342"></use><use xlink:href="#4" y="6.513"></use><use xlink:href="#5" y="8.684"></use><use xlink:href="#6" y="10.855"></use><use xlink:href="#7" y="13.026"></use><text x="0" y="19.037999999999997" class="f">restarting...</text></svg></svg></g></g></svg></svg>