<svg xmlns="http://www.w3.org/2000/svg" xmlns:xlink="http://www.w3.org/1999/xlink" width="840" height="581.04"><rect width="840" height="581.04" rx="5" ry="5" class="a"></rect><svg y="0%" x="0%"><circle cx="20" cy="20" r="6" class="b"></circle><circle cx="40" cy="20" r="6" class="c"></circle><circle cx="60" cy="20" r="6" class="d"></circle></svg><svg height="521.04" viewBox="0 0 80 52.104" width="800" x="15" xmlns="http://www.w3.org/2000/svg" xmlns:xlink="http://www.w3.org/1999/xlink" y="50"><style>.a{fill:rgb(35,35,35)}.b{fill:#ff5f58}.c{fill:#ffbd2e}.d{fill:#18c132}.e{font-family:Monaco,Consolas,Menlo,'Bitstream Vera Sans Mono','Powerline Symbols',monospace}.f{fill:rgb(160,160,160);white-space:pre}.g{fill:rgb(234,89,246);white-space:pre}.h{fill:transparent}.j{animation-duration:14.549987s;animation-iteration-count:infinite;animation-name:i;animation-timing-function:steps(1,end)}@keyframes i{0%{transform:translateX(-0px)}65.6%{transform:translateX(-80px)}100%{transform:translateX(-160px)}}</style><g font-family="Monaco, Consolas, Menlo, &#x27;Bitstream Vera Sans Mono&#x27;, &#x27;Powerline Symbols&#x27;, monospace" font-size="1.67" class="e"><defs><symbol id="1"><letters x="0" y="1.67" class="f">Default</letters><letters x="8.016" y="1.67" class="f">basic</letters><letters x="14.027999999999999" y="1.67" class="f">letters</letters><letters x="19.037999999999997" y="1.67" class="f">printer.</letters></symbol><symbol id="2"><letters x="0" y="1.67" class="f">Can</letters><letters x="4.008" y="1.67" class="f">be</letters><letters x="7.013999999999999" y="1.67" class="f">used</letters><letters x="12.024" y="1.67" class="f">in</letters><letters x="15.029999999999998" y="1.67" class="f">any</letters><letters x="19.037999999999997" y="1.67" class="g">TextPrinter</letters><letters x="31.061999999999998" y="1.67" class="f">context.</letters></symbol><symbol id="3"><letters x="0" y="1.67" class="f">For</letters><letters x="4.008" y="1.67" class="f">example</letters><letters x="12.024" y="1.67" class="f">to</letters><letters x="15.029999999999998" y="1.67" class="f">resolve</letters><letters x="23.045999999999996" y="1.67" class="f">progressbars</letters><letters x="36.071999999999996" y="1.67" class="f">and</letters><letters x="40.08" y="1.67" class="f">spinners.</letters></symbol><symbol id="a"><rect height="24" width="80" x="0" y="0" class="h"></rect></symbol></defs><rect height="52.104" width="80" class="a"></rect><g class="j"><svg x="0" y="0" width="240"><svg x="0"><use xlink:href="#a"></use></svg><svg x="80"><use xlink:href="#a"></use><use xlink:href="#1" y="0"></use><use xlink:href="#2" y="2.171"></use><use xlink:href="#3" y="4.342"></use></svg><svg x="160"><use xlink:href="#a"></use><use xlink:href="#1" y="0"></use><use xlink:href="#2" y="2.171"></use><use xlink:href="#3" y="4.342"></use><letters x="0" y="10.354" class="f">restarting...</letters></svg></svg></g></g></svg></svg>