<svg xmlns="http://www.w3.org/2000/svg" xmlns:xlink="http://www.w3.org/1999/xlink" width="840" height="581.04"><rect width="840" height="581.04" rx="5" ry="5" class="a"></rect><svg y="0%" x="0%"><circle cx="20" cy="20" r="6" class="b"></circle><circle cx="40" cy="20" r="6" class="c"></circle><circle cx="60" cy="20" r="6" class="d"></circle></svg><svg height="521.04" viewBox="0 0 80 52.104" width="800" x="15" xmlns="http://www.w3.org/2000/svg" xmlns:xlink="http://www.w3.org/1999/xlink" y="50"><style>.e, .g, .f {
	font-family:
			'Courier New'
			Roboto,
			Helvetica,
			Arial,
			sans-serif,
			'Apple Color Emoji',
			'Segoe UI Emoji' !important;
}.a{fill:rgb(35,35,35)}.b{fill:#ff5f58}.c{fill:#ffbd2e}.d{fill:#18c132}.e{font-family:'Courier New',Monaco,Consolas,Menlo,'Bitstream Vera Sans Mono','Powerline Symbols',monospace}.f{fill:rgb(102,194,205)}.g{white-space:pre}.h{fill:rgb(126,231,233);white-space:pre}.i{fill:rgb(160,160,160);white-space:pre}.j{fill:rgb(25,246,0)}.k{fill:rgb(0,0,0);white-space:pre}.l{fill:rgb(203,183,0)}.m{fill:rgb(255,49,0)}.n{fill:rgb(153,201,0)}.o{fill:rgb(255,82,0)}.p{fill:rgb(102,219,0)}.q{fill:rgb(255,115,0)}.r{fill:rgb(51,237,0)}.s{fill:rgb(255,148,0)}.t{fill:rgb(255,0,0)}.u{fill:rgb(229,174,0)}.v{fill:rgb(255,32,0)}.w{fill:rgb(178,192,0)}.x{fill:rgb(127,210,0)}.y{fill:rgb(255,16,0)}.z{fill:rgb(255,132,0)}.A{fill:rgb(0,255,0)}.B{fill:rgb(76,228,0)}.C{fill:rgb(255,165,0)}.D{fill:rgb(255,11,0)}.E{fill:rgb(255,22,0)}.F{fill:rgb(255,34,0)}.G{fill:rgb(255,45,0)}.H{fill:rgb(255,56,0)}.I{fill:rgb(255,68,0)}.J{fill:rgb(255,79,0)}.K{fill:rgb(255,91,0)}.L{fill:rgb(255,102,0)}.M{fill:rgb(255,113,0)}.N{fill:rgb(255,125,0)}.O{fill:rgb(255,136,0)}.P{fill:rgb(255,147,0)}.Q{fill:rgb(255,159,0)}.R{fill:rgb(246,168,0)}.S{fill:rgb(228,174,0)}.T{fill:rgb(211,180,0)}.U{fill:rgb(193,186,0)}.V{fill:rgb(175,192,0)}.W{fill:rgb(158,199,0)}.X{fill:rgb(140,205,0)}.Y{fill:rgb(123,211,0)}.Z{fill:rgb(105,217,0)}.aa{fill:rgb(87,223,0)}.ab{fill:rgb(70,230,0)}.ac{fill:rgb(52,236,0)}.ad{fill:rgb(35,242,0)}.ae{fill:rgb(17,248,0)}.af{fill:transparent}.ah{animation-duration:5.282122s;animation-iteration-count:infinite;animation-name:ag;animation-timing-function:steps(1,end)}@keyframes ag{0%{transform:translateX(-0px)}4.1%{transform:translateX(-80px)}5.3%{transform:translateX(-160px)}5.3%{transform:translateX(-240px)}5.3%{transform:translateX(-320px)}5.3%{transform:translateX(-400px)}100%{transform:translateX(-480px)}}</style><g font-family="'Courier New',Monaco, Consolas, Menlo, &#x27;Bitstream Vera Sans Mono&#x27;, &#x27;Powerline Symbols&#x27;, monospace" font-size="1.67" class="e"><defs><symbol id="1"><rect height="2.171" width="6" x="0" y="0" class="f"></rect><text x="0" y="1.67" class="g"> INFO </text><text x="7.013999999999999" y="1.67" class="h">The</text><text x="11.021999999999998" y="1.67" class="h">following</text><text x="21.041999999999998" y="1.67" class="h">table</text><text x="27.054" y="1.67" class="h">has</text><text x="31.061999999999998" y="1.67" class="h">rgb</text><text x="35.06999999999999" y="1.67" class="h">(not</text><text x="40.08" y="1.67" class="h">supported</text><text x="50.1" y="1.67" class="h">by</text><text x="53.105999999999995" y="1.67" class="h">every</text><text x="59.117999999999995" y="1.67" class="h">terminal),</text><text x="70.13999999999999" y="1.67" class="h">axis</text><text x="75.14999999999999" y="1.67" class="h">data</text></symbol><symbol id="2"><text x="0" y="1.67" class="h">and</text><text x="4.008" y="1.67" class="h">a</text><text x="6.012" y="1.67" class="h">custom</text><text x="13.026" y="1.67" class="h">legend.</text></symbol><symbol id="3"><text x="1.002" y="1.67" class="h">1</text><text x="4.008" y="1.67" class="i">│</text><rect height="2.171" width="4" x="5.01" y="0" class="j"></rect><text x="5.01" y="1.67" class="k"> 0.9</text><text x="9.017999999999999" y="1.67" class="i">│</text><rect height="2.171" width="4" x="10.02" y="0" class="l"></rect><text x="10.02" y="1.67" class="k"> 0.2</text><text x="14.027999999999999" y="1.67" class="i">│</text><rect height="2.171" width="4" x="15.029999999999998" y="0" class="m"></rect><text x="15.029999999999998" y="1.67" class="k">-0.7</text><text x="19.037999999999997" y="1.67" class="i">│</text><rect height="2.171" width="4" x="20.04" y="0" class="n"></rect><text x="20.04" y="1.67" class="k"> 0.4</text><text x="24.048" y="1.67" class="i">│</text><rect height="2.171" width="4" x="25.05" y="0" class="o"></rect><text x="25.05" y="1.67" class="k">-0.5</text><text x="29.058" y="1.67" class="i">│</text><rect height="2.171" width="4" x="30.059999999999995" y="0" class="p"></rect><text x="30.059999999999995" y="1.67" class="k"> 0.6</text><text x="34.068" y="1.67" class="i">│</text><rect height="2.171" width="4" x="35.06999999999999" y="0" class="q"></rect><text x="35.06999999999999" y="1.67" class="k">-0.3</text><text x="39.077999999999996" y="1.67" class="i">│</text><rect height="2.171" width="4" x="40.08" y="0" class="r"></rect><text x="40.08" y="1.67" class="k"> 0.8</text><text x="44.087999999999994" y="1.67" class="i">│</text><rect height="2.171" width="4" x="45.089999999999996" y="0" class="s"></rect><text x="45.089999999999996" y="1.67" class="k">-0.1</text><text x="49.098" y="1.67" class="i">│</text><rect height="2.171" width="4" x="50.1" y="0" class="t"></rect><text x="50.1" y="1.67" class="k"> -1 </text><text x="54.108" y="1.67" class="i">│</text><rect height="2.171" width="4" x="55.10999999999999" y="0" class="u"></rect><text x="55.10999999999999" y="1.67" class="k"> 0.1</text><text x="59.117999999999995" y="1.67" class="i">│</text><rect height="2.171" width="4" x="60.11999999999999" y="0" class="v"></rect><text x="60.11999999999999" y="1.67" class="k">-0.8</text><text x="64.128" y="1.67" class="i">│</text><rect height="2.171" width="4" x="65.13" y="0" class="w"></rect><text x="65.13" y="1.67" class="k"> 0.3</text></symbol><symbol id="4"><text x="0" y="1.67" class="i">────┼────┼────┼────┼────┼────┼────┼────┼────┼────┼────┼────┼────┼────</text></symbol><symbol id="5"><text x="1.002" y="1.67" class="h">2</text><text x="4.008" y="1.67" class="i">│</text><rect height="2.171" width="4" x="5.01" y="0" class="l"></rect><text x="5.01" y="1.67" class="k"> 0.2</text><text x="9.017999999999999" y="1.67" class="i">│</text><rect height="2.171" width="4" x="10.02" y="0" class="m"></rect><text x="10.02" y="1.67" class="k">-0.7</text><text x="14.027999999999999" y="1.67" class="i">│</text><rect height="2.171" width="4" x="15.029999999999998" y="0" class="o"></rect><text x="15.029999999999998" y="1.67" class="k">-0.5</text><text x="19.037999999999997" y="1.67" class="i">│</text><rect height="2.171" width="4" x="20.04" y="0" class="q"></rect><text x="20.04" y="1.67" class="k">-0.3</text><text x="24.048" y="1.67" class="i">│</text><rect height="2.171" width="4" x="25.05" y="0" class="s"></rect><text x="25.05" y="1.67" class="k">-0.1</text><text x="29.058" y="1.67" class="i">│</text><rect height="2.171" width="4" x="30.059999999999995" y="0" class="u"></rect><text x="30.059999999999995" y="1.67" class="k"> 0.1</text><text x="34.068" y="1.67" class="i">│</text><rect height="2.171" width="4" x="35.06999999999999" y="0" class="w"></rect><text x="35.06999999999999" y="1.67" class="k"> 0.3</text><text x="39.077999999999996" y="1.67" class="i">│</text><rect height="2.171" width="4" x="40.08" y="0" class="x"></rect><text x="40.08" y="1.67" class="k"> 0.5</text><text x="44.087999999999994" y="1.67" class="i">│</text><rect height="2.171" width="4" x="45.089999999999996" y="0" class="j"></rect><text x="45.089999999999996" y="1.67" class="k"> 0.9</text><text x="49.098" y="1.67" class="i">│</text><rect height="2.171" width="4" x="50.1" y="0" class="y"></rect><text x="50.1" y="1.67" class="k">-0.9</text><text x="54.108" y="1.67" class="i">│</text><rect height="2.171" width="4" x="55.10999999999999" y="0" class="m"></rect><text x="55.10999999999999" y="1.67" class="k">-0.7</text><text x="59.117999999999995" y="1.67" class="i">│</text><rect height="2.171" width="4" x="60.11999999999999" y="0" class="o"></rect><text x="60.11999999999999" y="1.67" class="k">-0.5</text><text x="64.128" y="1.67" class="i">│</text><rect height="2.171" width="4" x="65.13" y="0" class="q"></rect><text x="65.13" y="1.67" class="k">-0.3</text></symbol><symbol id="6"><text x="1.002" y="1.67" class="h">3</text><text x="4.008" y="1.67" class="i">│</text><rect height="2.171" width="4" x="5.01" y="0" class="n"></rect><text x="5.01" y="1.67" class="k"> 0.4</text><text x="9.017999999999999" y="1.67" class="i">│</text><rect height="2.171" width="4" x="10.02" y="0" class="n"></rect><text x="10.02" y="1.67" class="k"> 0.4</text><text x="14.027999999999999" y="1.67" class="i">│</text><rect height="2.171" width="4" x="15.029999999999998" y="0" class="q"></rect><text x="15.029999999999998" y="1.67" class="k">-0.3</text><text x="19.037999999999997" y="1.67" class="i">│</text><rect height="2.171" width="4" x="20.04" y="0" class="t"></rect><text x="20.04" y="1.67" class="k"> -1 </text><text x="24.048" y="1.67" class="i">│</text><rect height="2.171" width="4" x="25.05" y="0" class="w"></rect><text x="25.05" y="1.67" class="k"> 0.3</text><text x="29.058" y="1.67" class="i">│</text><rect height="2.171" width="4" x="30.059999999999995" y="0" class="z"></rect><text x="30.059999999999995" y="1.67" class="k">-0.2</text><text x="34.068" y="1.67" class="i">│</text><rect height="2.171" width="4" x="35.06999999999999" y="0" class="y"></rect><text x="35.06999999999999" y="1.67" class="k">-0.9</text><text x="39.077999999999996" y="1.67" class="i">│</text><rect height="2.171" width="4" x="40.08" y="0" class="x"></rect><text x="40.08" y="1.67" class="k"> 0.5</text><text x="44.087999999999994" y="1.67" class="i">│</text><rect height="2.171" width="4" x="45.089999999999996" y="0" class="q"></rect><text x="45.089999999999996" y="1.67" class="k">-0.3</text><text x="49.098" y="1.67" class="i">│</text><rect height="2.171" width="4" x="50.1" y="0" class="t"></rect><text x="50.1" y="1.67" class="k"> -1 </text><text x="54.108" y="1.67" class="i">│</text><rect height="2.171" width="4" x="55.10999999999999" y="0" class="p"></rect><text x="55.10999999999999" y="1.67" class="k"> 0.6</text><text x="59.117999999999995" y="1.67" class="i">│</text><rect height="2.171" width="4" x="60.11999999999999" y="0" class="z"></rect><text x="60.11999999999999" y="1.67" class="k">-0.2</text><text x="64.128" y="1.67" class="i">│</text><rect height="2.171" width="4" x="65.13" y="0" class="y"></rect><text x="65.13" y="1.67" class="k">-0.9</text></symbol><symbol id="7"><text x="1.002" y="1.67" class="h">4</text><text x="4.008" y="1.67" class="i">│</text><rect height="2.171" width="4" x="5.01" y="0" class="j"></rect><text x="5.01" y="1.67" class="k"> 0.9</text><text x="9.017999999999999" y="1.67" class="i">│</text><rect height="2.171" width="4" x="10.02" y="0" class="o"></rect><text x="10.02" y="1.67" class="k">-0.5</text><text x="14.027999999999999" y="1.67" class="i">│</text><rect height="2.171" width="4" x="15.029999999999998" y="0" class="s"></rect><text x="15.029999999999998" y="1.67" class="k">-0.1</text><text x="19.037999999999997" y="1.67" class="i">│</text><rect height="2.171" width="4" x="20.04" y="0" class="w"></rect><text x="20.04" y="1.67" class="k"> 0.3</text><text x="24.048" y="1.67" class="i">│</text><rect height="2.171" width="4" x="25.05" y="0" class="A"></rect><text x="25.05" y="1.67" class="k"> 1  </text><text x="29.058" y="1.67" class="i">│</text><rect height="2.171" width="4" x="30.059999999999995" y="0" class="m"></rect><text x="30.059999999999995" y="1.67" class="k">-0.7</text><text x="34.068" y="1.67" class="i">│</text><rect height="2.171" width="4" x="35.06999999999999" y="0" class="q"></rect><text x="35.06999999999999" y="1.67" class="k">-0.3</text><text x="39.077999999999996" y="1.67" class="i">│</text><rect height="2.171" width="4" x="40.08" y="0" class="u"></rect><text x="40.08" y="1.67" class="k"> 0.1</text><text x="44.087999999999994" y="1.67" class="i">│</text><rect height="2.171" width="4" x="45.089999999999996" y="0" class="B"></rect><text x="45.089999999999996" y="1.67" class="k"> 0.7</text><text x="49.098" y="1.67" class="i">│</text><rect height="2.171" width="4" x="50.1" y="0" class="y"></rect><text x="50.1" y="1.67" class="k">-0.9</text><text x="54.108" y="1.67" class="i">│</text><rect height="2.171" width="4" x="55.10999999999999" y="0" class="o"></rect><text x="55.10999999999999" y="1.67" class="k">-0.5</text><text x="59.117999999999995" y="1.67" class="i">│</text><rect height="2.171" width="4" x="60.11999999999999" y="0" class="l"></rect><text x="60.11999999999999" y="1.67" class="k"> 0.2</text><text x="64.128" y="1.67" class="i">│</text><rect height="2.171" width="4" x="65.13" y="0" class="p"></rect><text x="65.13" y="1.67" class="k"> 0.6</text></symbol><symbol id="8"><text x="1.002" y="1.67" class="h">5</text><text x="4.008" y="1.67" class="i">│</text><rect height="2.171" width="4" x="5.01" y="0" class="x"></rect><text x="5.01" y="1.67" class="k"> 0.5</text><text x="9.017999999999999" y="1.67" class="i">│</text><rect height="2.171" width="4" x="10.02" y="0" class="p"></rect><text x="10.02" y="1.67" class="k"> 0.6</text><text x="14.027999999999999" y="1.67" class="i">│</text><rect height="2.171" width="4" x="15.029999999999998" y="0" class="u"></rect><text x="15.029999999999998" y="1.67" class="k"> 0.1</text><text x="19.037999999999997" y="1.67" class="i">│</text><rect height="2.171" width="4" x="20.04" y="0" class="z"></rect><text x="20.04" y="1.67" class="k">-0.2</text><text x="24.048" y="1.67" class="i">│</text><rect height="2.171" width="4" x="25.05" y="0" class="m"></rect><text x="25.05" y="1.67" class="k">-0.7</text><text x="29.058" y="1.67" class="i">│</text><rect height="2.171" width="4" x="30.059999999999995" y="0" class="r"></rect><text x="30.059999999999995" y="1.67" class="k"> 0.8</text><text x="34.068" y="1.67" class="i">│</text><rect height="2.171" width="4" x="35.06999999999999" y="0" class="p"></rect><text x="35.06999999999999" y="1.67" class="k"> 0.6</text><text x="39.077999999999996" y="1.67" class="i">│</text><rect height="2.171" width="4" x="40.08" y="0" class="u"></rect><text x="40.08" y="1.67" class="k"> 0.1</text><text x="44.087999999999994" y="1.67" class="i">│</text><rect height="2.171" width="4" x="45.089999999999996" y="0" class="o"></rect><text x="45.089999999999996" y="1.67" class="k">-0.5</text><text x="49.098" y="1.67" class="i">│</text><rect height="2.171" width="4" x="50.1" y="0" class="m"></rect><text x="50.1" y="1.67" class="k">-0.7</text><text x="54.108" y="1.67" class="i">│</text><rect height="2.171" width="4" x="55.10999999999999" y="0" class="B"></rect><text x="55.10999999999999" y="1.67" class="k"> 0.7</text><text x="59.117999999999995" y="1.67" class="i">│</text><rect height="2.171" width="4" x="60.11999999999999" y="0" class="w"></rect><text x="60.11999999999999" y="1.67" class="k"> 0.3</text><text x="64.128" y="1.67" class="i">│</text><rect height="2.171" width="4" x="65.13" y="0" class="C"></rect><text x="65.13" y="1.67" class="k"> 0  </text></symbol><symbol id="9"><text x="4.008" y="1.67" class="i">│</text><text x="6.012" y="1.67" class="h">a</text><text x="9.017999999999999" y="1.67" class="i">│</text><text x="11.021999999999998" y="1.67" class="h">b</text><text x="14.027999999999999" y="1.67" class="i">│</text><text x="16.032" y="1.67" class="h">c</text><text x="19.037999999999997" y="1.67" class="i">│</text><text x="21.041999999999998" y="1.67" class="h">d</text><text x="24.048" y="1.67" class="i">│</text><text x="26.052" y="1.67" class="h">e</text><text x="29.058" y="1.67" class="i">│</text><text x="31.061999999999998" y="1.67" class="h">f</text><text x="34.068" y="1.67" class="i">│</text><text x="36.071999999999996" y="1.67" class="h">g</text><text x="39.077999999999996" y="1.67" class="i">│</text><text x="41.082" y="1.67" class="h">h</text><text x="44.087999999999994" y="1.67" class="i">│</text><text x="46.09199999999999" y="1.67" class="h">i</text><text x="49.098" y="1.67" class="i">│</text><text x="51.102" y="1.67" class="h">j</text><text x="54.108" y="1.67" class="i">│</text><text x="56.111999999999995" y="1.67" class="h">k</text><text x="59.117999999999995" y="1.67" class="i">│</text><text x="61.12199999999999" y="1.67" class="h">l</text><text x="64.128" y="1.67" class="i">│</text><text x="66.13199999999999" y="1.67" class="h">m</text></symbol><symbol id="10"><text x="0" y="1.67" class="h">custom</text><text x="6.012" y="1.67" class="i">│</text><rect height="2.171" width="1" x="7.013999999999999" y="0" class="t"></rect><text x="7.013999999999999" y="1.67" class="k"> </text><rect height="2.171" width="1" x="8.016" y="0" class="D"></rect><text x="8.016" y="1.67" class="k"> </text><rect height="2.171" width="1" x="9.017999999999999" y="0" class="E"></rect><text x="9.017999999999999" y="1.67" class="k"> </text><rect height="2.171" width="1" x="10.02" y="0" class="F"></rect><text x="10.02" y="1.67" class="k"> </text><rect height="2.171" width="1" x="11.021999999999998" y="0" class="G"></rect><text x="11.021999999999998" y="1.67" class="k"> </text><rect height="2.171" width="1" x="12.024" y="0" class="H"></rect><text x="12.024" y="1.67" class="k"> </text><rect height="2.171" width="1" x="13.026" y="0" class="I"></rect><text x="13.026" y="1.67" class="k"> </text><rect height="2.171" width="1" x="14.027999999999999" y="0" class="J"></rect><text x="14.027999999999999" y="1.67" class="k"> </text><rect height="2.171" width="1" x="15.029999999999998" y="0" class="K"></rect><text x="15.029999999999998" y="1.67" class="k"> </text><rect height="2.171" width="1" x="16.032" y="0" class="L"></rect><text x="16.032" y="1.67" class="k"> </text><rect height="2.171" width="1" x="17.034" y="0" class="M"></rect><text x="17.034" y="1.67" class="k"> </text><rect height="2.171" width="1" x="18.035999999999998" y="0" class="N"></rect><text x="18.035999999999998" y="1.67" class="k"> </text><rect height="2.171" width="1" x="19.037999999999997" y="0" class="O"></rect><text x="19.037999999999997" y="1.67" class="k"> </text><rect height="2.171" width="1" x="20.04" y="0" class="P"></rect><text x="20.04" y="1.67" class="k"> </text><rect height="2.171" width="1" x="21.041999999999998" y="0" class="Q"></rect><text x="21.041999999999998" y="1.67" class="k"> </text><rect height="2.171" width="1" x="22.043999999999997" y="0" class="R"></rect><text x="22.043999999999997" y="1.67" class="k"> </text><rect height="2.171" width="1" x="23.045999999999996" y="0" class="S"></rect><text x="23.045999999999996" y="1.67" class="k"> </text><rect height="2.171" width="1" x="24.048" y="0" class="T"></rect><text x="24.048" y="1.67" class="k"> </text><rect height="2.171" width="1" x="25.05" y="0" class="U"></rect><text x="25.05" y="1.67" class="k"> </text><rect height="2.171" width="1" x="26.052" y="0" class="V"></rect><text x="26.052" y="1.67" class="k"> </text><rect height="2.171" width="1" x="27.054" y="0" class="W"></rect><text x="27.054" y="1.67" class="k"> </text><rect height="2.171" width="1" x="28.055999999999997" y="0" class="X"></rect><text x="28.055999999999997" y="1.67" class="k"> </text><rect height="2.171" width="1" x="29.058" y="0" class="Y"></rect><text x="29.058" y="1.67" class="k"> </text><rect height="2.171" width="1" x="30.059999999999995" y="0" class="Z"></rect><text x="30.059999999999995" y="1.67" class="k"> </text><rect height="2.171" width="1" x="31.061999999999998" y="0" class="aa"></rect><text x="31.061999999999998" y="1.67" class="k"> </text><rect height="2.171" width="1" x="32.064" y="0" class="ab"></rect><text x="32.064" y="1.67" class="k"> </text><rect height="2.171" width="1" x="33.065999999999995" y="0" class="ac"></rect><text x="33.065999999999995" y="1.67" class="k"> </text><rect height="2.171" width="1" x="34.068" y="0" class="ad"></rect><text x="34.068" y="1.67" class="k"> </text><rect height="2.171" width="1" x="35.06999999999999" y="0" class="ae"></rect><text x="35.06999999999999" y="1.67" class="k"> </text><rect height="2.171" width="1" x="36.071999999999996" y="0" class="A"></rect><text x="36.071999999999996" y="1.67" class="k"> </text></symbol><symbol id="a"><rect height="24" width="80" x="0" y="0" class="af"></rect></symbol></defs><rect height="52.104" width="80" class="a"></rect><g class="ah"><svg x="0" y="0" width="560"><svg x="0"><use xlink:href="#a"></use></svg><svg x="80"><use xlink:href="#a"></use><use xlink:href="#1" y="0"></use><use xlink:href="#2" y="2.171"></use></svg><svg x="160"><use xlink:href="#a"></use><use xlink:href="#1" y="0"></use><use xlink:href="#2" y="2.171"></use><use xlink:href="#3" y="6.513"></use><use xlink:href="#4" y="8.684"></use><use xlink:href="#5" y="10.855"></use><text x="0" y="14.696" class="i">────┼────┼────┼────┼────┼────┼────┼────┼────┼────┼────</text></svg><svg x="240"><use xlink:href="#a"></use><use xlink:href="#1" y="0"></use><use xlink:href="#2" y="2.171"></use><use xlink:href="#3" y="6.513"></use><use xlink:href="#4" y="8.684"></use><use xlink:href="#5" y="10.855"></use><use xlink:href="#4" y="13.026"></use><use xlink:href="#6" y="15.197"></use><use xlink:href="#4" y="17.368"></use><use xlink:href="#7" y="19.539"></use><text x="0" y="23.380000000000003" class="i">────┼────┼────┼────┼────┼────┼────┼───</text></svg><svg x="320"><use xlink:href="#a"></use><use xlink:href="#1" y="0"></use><use xlink:href="#2" y="2.171"></use><use xlink:href="#3" y="6.513"></use><use xlink:href="#4" y="8.684"></use><use xlink:href="#5" y="10.855"></use><use xlink:href="#4" y="13.026"></use><use xlink:href="#6" y="15.197"></use><use xlink:href="#4" y="17.368"></use><use xlink:href="#7" y="19.539"></use><use xlink:href="#4" y="21.71"></use><use xlink:href="#8" y="23.880999999999997"></use><use xlink:href="#4" y="26.052"></use><use xlink:href="#9" y="28.223000000000003"></use><text x="0" y="34.235" class="h">custom</text><text x="6.012" y="34.235" class="i">│</text><rect height="2.171" width="1" x="7.013999999999999" y="32.565" class="t"></rect><text x="7.013999999999999" y="34.235" class="k"> </text><rect height="2.171" width="1" x="8.016" y="32.565" class="D"></rect><text x="8.016" y="34.235" class="k"> </text><rect height="2.171" width="1" x="9.017999999999999" y="32.565" class="E"></rect><text x="9.017999999999999" y="34.235" class="k"> </text><rect height="2.171" width="1" x="10.02" y="32.565" class="F"></rect><text x="10.02" y="34.235" class="k"> </text><rect height="2.171" width="1" x="11.021999999999998" y="32.565" class="G"></rect><text x="11.021999999999998" y="34.235" class="k"> </text><rect height="2.171" width="1" x="12.024" y="32.565" class="H"></rect><text x="12.024" y="34.235" class="k"> </text><rect height="2.171" width="1" x="13.026" y="32.565" class="I"></rect><text x="13.026" y="34.235" class="k"> </text><rect height="2.171" width="1" x="14.027999999999999" y="32.565" class="J"></rect><text x="14.027999999999999" y="34.235" class="k"> </text><rect height="2.171" width="1" x="15.029999999999998" y="32.565" class="K"></rect><text x="15.029999999999998" y="34.235" class="k"> </text><rect height="2.171" width="1" x="16.032" y="32.565" class="L"></rect><text x="16.032" y="34.235" class="k"> </text><rect height="2.171" width="1" x="17.034" y="32.565" class="M"></rect><text x="17.034" y="34.235" class="k"> </text><rect height="2.171" width="1" x="18.035999999999998" y="32.565" class="N"></rect><text x="18.035999999999998" y="34.235" class="k"> </text><rect height="2.171" width="1" x="19.037999999999997" y="32.565" class="O"></rect><text x="19.037999999999997" y="34.235" class="k"> </text><rect height="2.171" width="1" x="20.04" y="32.565" class="P"></rect><text x="20.04" y="34.235" class="k"> </text><rect height="2.171" width="1" x="21.041999999999998" y="32.565" class="Q"></rect><text x="21.041999999999998" y="34.235" class="k"> </text><rect height="2.171" width="1" x="22.043999999999997" y="32.565" class="R"></rect><text x="22.043999999999997" y="34.235" class="k"> </text><rect height="2.171" width="1" x="23.045999999999996" y="32.565" class="S"></rect><text x="23.045999999999996" y="34.235" class="k"> </text><rect height="2.171" width="1" x="24.048" y="32.565" class="T"></rect><text x="24.048" y="34.235" class="k"> </text></svg><svg x="400"><use xlink:href="#a"></use><use xlink:href="#1" y="0"></use><use xlink:href="#2" y="2.171"></use><use xlink:href="#3" y="6.513"></use><use xlink:href="#4" y="8.684"></use><use xlink:href="#5" y="10.855"></use><use xlink:href="#4" y="13.026"></use><use xlink:href="#6" y="15.197"></use><use xlink:href="#4" y="17.368"></use><use xlink:href="#7" y="19.539"></use><use xlink:href="#4" y="21.71"></use><use xlink:href="#8" y="23.880999999999997"></use><use xlink:href="#4" y="26.052"></use><use xlink:href="#9" y="28.223000000000003"></use><use xlink:href="#10" y="32.565"></use></svg><svg x="480"><use xlink:href="#a"></use><use xlink:href="#1" y="0"></use><use xlink:href="#2" y="2.171"></use><use xlink:href="#3" y="6.513"></use><use xlink:href="#4" y="8.684"></use><use xlink:href="#5" y="10.855"></use><use xlink:href="#4" y="13.026"></use><use xlink:href="#6" y="15.197"></use><use xlink:href="#4" y="17.368"></use><use xlink:href="#7" y="19.539"></use><use xlink:href="#4" y="21.71"></use><use xlink:href="#8" y="23.880999999999997"></use><use xlink:href="#4" y="26.052"></use><use xlink:href="#9" y="28.223000000000003"></use><use xlink:href="#10" y="32.565"></use><text x="0" y="40.748000000000005" class="i">Restarting</text><text x="11.021999999999998" y="40.748000000000005" class="i">animation...</text></svg></svg></g></g></svg></svg>