<svg xmlns="http://www.w3.org/2000/svg" xmlns:xlink="http://www.w3.org/1999/xlink" width="2560" height="472.48999999999995"><rect width="2560" height="472.48999999999995" rx="5" ry="5" class="a"></rect><svg y="0%" x="0%"><circle cx="20" cy="20" r="6" class="b"></circle><circle cx="40" cy="20" r="6" class="c"></circle><circle cx="60" cy="20" r="6" class="d"></circle></svg><svg height="412.48999999999995" viewBox="0 0 252 41.248999999999995" width="2520" x="15" xmlns="http://www.w3.org/2000/svg" xmlns:xlink="http://www.w3.org/1999/xlink" y="50"><style>.e, .g, .f {
	font-family:
			'Courier New'
			Roboto,
			Helvetica,
			Arial,
			sans-serif,
			'Apple Color Emoji',
			'Segoe UI Emoji' !important;
}.a{fill:rgb(35,35,35)}.b{fill:#ff5f58}.c{fill:#ffbd2e}.d{fill:#18c132}.e{font-family:'JetBrainsMono',Monaco,Consolas,Menlo,'Bitstream Vera Sans Mono','Powerline Symbols',monospace}.f{fill:rgb(126,231,233);white-space:pre}.g{fill:rgb(255,255,255);white-space:pre}.h{fill:rgb(104,104,104);white-space:pre}.i{fill:rgb(168,204,140)}.j{white-space:pre}.k{fill:rgb(124,255,0);white-space:pre}.l{fill:rgb(219,171,121)}.m{fill:rgb(255,241,0);white-space:pre}.n{fill:rgb(232,131,136)}.o{fill:rgb(243,86,86);white-space:pre}.p{fill:transparent}.r{animation-duration:15.590879s;animation-iteration-count:infinite;animation-name:q;animation-timing-function:steps(1,end)}.s{fill:rgb(160,160,160);white-space:pre}@keyframes q{0%{transform:translateX(-0px)}10.2%{transform:translateX(-252px)}11.5%{transform:translateX(-504px)}12.8%{transform:translateX(-756px)}14%{transform:translateX(-1008px)}15.3%{transform:translateX(-1260px)}16.6%{transform:translateX(-1512px)}17.9%{transform:translateX(-1764px)}19.2%{transform:translateX(-2016px)}20.5%{transform:translateX(-2268px)}21.8%{transform:translateX(-2520px)}23%{transform:translateX(-2772px)}23%{transform:translateX(-3024px)}24.3%{transform:translateX(-3276px)}25.6%{transform:translateX(-3528px)}26.9%{transform:translateX(-3780px)}28.2%{transform:translateX(-4032px)}29.4%{transform:translateX(-4284px)}30.7%{transform:translateX(-4536px)}32%{transform:translateX(-4788px)}33.3%{transform:translateX(-5040px)}34.6%{transform:translateX(-5292px)}35.8%{transform:translateX(-5544px)}35.9%{transform:translateX(-5796px)}37.1%{transform:translateX(-6048px)}38.4%{transform:translateX(-6300px)}39.7%{transform:translateX(-6552px)}41%{transform:translateX(-6804px)}42.3%{transform:translateX(-7056px)}43.6%{transform:translateX(-7308px)}44.9%{transform:translateX(-7560px)}46.1%{transform:translateX(-7812px)}47.4%{transform:translateX(-8064px)}48.7%{transform:translateX(-8316px)}48.7%{transform:translateX(-8568px)}50%{transform:translateX(-8820px)}51.3%{transform:translateX(-9072px)}52.5%{transform:translateX(-9324px)}53.8%{transform:translateX(-9576px)}55.1%{transform:translateX(-9828px)}55.1%{transform:translateX(-10080px)}56.4%{transform:translateX(-10332px)}57.7%{transform:translateX(-10584px)}59%{transform:translateX(-10836px)}60.3%{transform:translateX(-11088px)}61.5%{transform:translateX(-11340px)}61.5%{transform:translateX(-11592px)}62.8%{transform:translateX(-11844px)}64.1%{transform:translateX(-12096px)}65.4%{transform:translateX(-12348px)}66.7%{transform:translateX(-12600px)}67.9%{transform:translateX(-12852px)}100%{transform:translateX(-13104px)}}</style><g font-family="'JetBrainsMono',Monaco, Consolas, Menlo, &#x27;Bitstream Vera Sans Mono&#x27;, &#x27;Powerline Symbols&#x27;, monospace" font-size="1.67" class="e"><defs><symbol id="1"><text x="0" y="1.67" class="f">▄</text><text x="3.006" y="1.67" class="g">Doing</text><text x="9.017999999999999" y="1.67" class="g">something</text><text x="19.037999999999997" y="1.67" class="g">important...</text><text x="32.064" y="1.67" class="g">(will</text><text x="38.07599999999999" y="1.67" class="g">succeed)</text><text x="47.093999999999994" y="1.67" class="h">(1s)</text></symbol><symbol id="2"><rect height="2.171" width="9" x="0" y="0" class="i"></rect><text x="0" y="1.67" class="j"> SUCCESS </text><text x="10.02" y="1.67" class="k">Doing</text><text x="16.032" y="1.67" class="k">something</text><text x="26.052" y="1.67" class="k">important...</text><text x="39.077999999999996" y="1.67" class="k">(will</text><text x="45.089999999999996" y="1.67" class="k">succeed)</text></symbol><symbol id="3"><text x="0" y="1.67" class="f">▄</text><text x="3.006" y="1.67" class="g">Doing</text><text x="9.017999999999999" y="1.67" class="g">something</text><text x="19.037999999999997" y="1.67" class="g">important...</text><text x="32.064" y="1.67" class="g">(will</text><text x="38.07599999999999" y="1.67" class="g">warn)</text><text x="44.087999999999994" y="1.67" class="h">(1s)</text></symbol><symbol id="4"><rect height="2.171" width="9" x="0" y="0" class="l"></rect><text x="0" y="1.67" class="j"> WARNING </text><text x="10.02" y="1.67" class="m">Doing</text><text x="16.032" y="1.67" class="m">something</text><text x="26.052" y="1.67" class="m">important...</text><text x="39.077999999999996" y="1.67" class="m">(will</text><text x="45.089999999999996" y="1.67" class="m">warn)</text></symbol><symbol id="5"><text x="0" y="1.67" class="f">▄</text><text x="3.006" y="1.67" class="g">Doing</text><text x="9.017999999999999" y="1.67" class="g">something</text><text x="19.037999999999997" y="1.67" class="g">important...</text><text x="32.064" y="1.67" class="g">(will</text><text x="38.07599999999999" y="1.67" class="g">fail)</text><text x="44.087999999999994" y="1.67" class="h">(1s)</text></symbol><symbol id="6"><rect height="2.171" width="9" x="0" y="0" class="n"></rect><text x="0" y="1.67" class="j">  ERROR  </text><text x="10.02" y="1.67" class="o">Doing</text><text x="16.032" y="1.67" class="o">something</text><text x="26.052" y="1.67" class="o">important...</text><text x="39.077999999999996" y="1.67" class="o">(will</text><text x="45.089999999999996" y="1.67" class="o">fail)</text></symbol><symbol id="7"><rect height="2.171" width="9" x="0" y="0" class="i"></rect><text x="0" y="1.67" class="j"> SUCCESS </text><text x="10.02" y="1.67" class="k">Finally!</text></symbol><symbol id="a"><rect height="19" width="252" x="0" y="0" class="p"></rect></symbol></defs><rect height="41.248999999999995" width="252" class="a"></rect><g class="r"><svg x="0" y="0" width="13356"><svg x="0"><use xlink:href="#a"></use></svg><svg x="252"><use xlink:href="#a"></use><text x="0" y="1.67" class="f">▀</text><text x="3.006" y="1.67" class="g">Doing</text><text x="9.017999999999999" y="1.67" class="g">something</text><text x="19.037999999999997" y="1.67" class="g">important...</text><text x="32.064" y="1.67" class="g">(will</text><text x="38.07599999999999" y="1.67" class="g">succeed)</text><text x="47.093999999999994" y="1.67" class="h">(0s)</text></svg><svg x="504"><use xlink:href="#a"></use><text x="1.002" y="1.67" class="f">▀</text><text x="3.006" y="1.67" class="g">Doing</text><text x="9.017999999999999" y="1.67" class="g">something</text><text x="19.037999999999997" y="1.67" class="g">important...</text><text x="32.064" y="1.67" class="g">(will</text><text x="38.07599999999999" y="1.67" class="g">succeed)</text><text x="47.093999999999994" y="1.67" class="h">(0s)</text></svg><svg x="756"><use xlink:href="#a"></use><text x="1.002" y="1.67" class="f">▄</text><text x="3.006" y="1.67" class="g">Doing</text><text x="9.017999999999999" y="1.67" class="g">something</text><text x="19.037999999999997" y="1.67" class="g">important...</text><text x="32.064" y="1.67" class="g">(will</text><text x="38.07599999999999" y="1.67" class="g">succeed)</text><text x="47.093999999999994" y="1.67" class="h">(0s)</text></svg><svg x="1008"><use xlink:href="#a"></use><use xlink:href="#1" y="0"></use></svg><svg x="1260"><use xlink:href="#a"></use><text x="0" y="1.67" class="f">▀</text><text x="3.006" y="1.67" class="g">Doing</text><text x="9.017999999999999" y="1.67" class="g">something</text><text x="19.037999999999997" y="1.67" class="g">important...</text><text x="32.064" y="1.67" class="g">(will</text><text x="38.07599999999999" y="1.67" class="g">succeed)</text><text x="47.093999999999994" y="1.67" class="h">(1s)</text></svg><svg x="1512"><use xlink:href="#a"></use><text x="1.002" y="1.67" class="f">▀</text><text x="3.006" y="1.67" class="g">Doing</text><text x="9.017999999999999" y="1.67" class="g">something</text><text x="19.037999999999997" y="1.67" class="g">important...</text><text x="32.064" y="1.67" class="g">(will</text><text x="38.07599999999999" y="1.67" class="g">succeed)</text><text x="47.093999999999994" y="1.67" class="h">(1s)</text></svg><svg x="1764"><use xlink:href="#a"></use><text x="1.002" y="1.67" class="f">▄</text><text x="3.006" y="1.67" class="g">Doing</text><text x="9.017999999999999" y="1.67" class="g">something</text><text x="19.037999999999997" y="1.67" class="g">important...</text><text x="32.064" y="1.67" class="g">(will</text><text x="38.07599999999999" y="1.67" class="g">succeed)</text><text x="47.093999999999994" y="1.67" class="h">(1s)</text></svg><svg x="2016"><use xlink:href="#a"></use><use xlink:href="#1" y="0"></use></svg><svg x="2268"><use xlink:href="#a"></use><text x="0" y="1.67" class="f">▀</text><text x="3.006" y="1.67" class="g">Doing</text><text x="9.017999999999999" y="1.67" class="g">something</text><text x="19.037999999999997" y="1.67" class="g">important...</text><text x="32.064" y="1.67" class="g">(will</text><text x="38.07599999999999" y="1.67" class="g">succeed)</text><text x="47.093999999999994" y="1.67" class="h">(2s)</text></svg><svg x="2520"><use xlink:href="#a"></use><text x="1.002" y="1.67" class="f">▀</text><text x="3.006" y="1.67" class="g">Doing</text><text x="9.017999999999999" y="1.67" class="g">something</text><text x="19.037999999999997" y="1.67" class="g">important...</text><text x="32.064" y="1.67" class="g">(will</text><text x="38.07599999999999" y="1.67" class="g">succeed)</text><text x="47.093999999999994" y="1.67" class="h">(2s)</text></svg><svg x="2772"><use xlink:href="#a"></use><use xlink:href="#2" y="0"></use></svg><svg x="3024"><use xlink:href="#a"></use><use xlink:href="#2" y="0"></use><text x="0" y="3.8409999999999997" class="f">▀</text><text x="3.006" y="3.8409999999999997" class="g">Doing</text><text x="9.017999999999999" y="3.8409999999999997" class="g">something</text><text x="19.037999999999997" y="3.8409999999999997" class="g">important...</text><text x="32.064" y="3.8409999999999997" class="g">(will</text><text x="38.07599999999999" y="3.8409999999999997" class="g">warn)</text><text x="44.087999999999994" y="3.8409999999999997" class="h">(0s)</text></svg><svg x="3276"><use xlink:href="#a"></use><use xlink:href="#2" y="0"></use><text x="1.002" y="3.8409999999999997" class="f">▀</text><text x="3.006" y="3.8409999999999997" class="g">Doing</text><text x="9.017999999999999" y="3.8409999999999997" class="g">something</text><text x="19.037999999999997" y="3.8409999999999997" class="g">important...</text><text x="32.064" y="3.8409999999999997" class="g">(will</text><text x="38.07599999999999" y="3.8409999999999997" class="g">warn)</text><text x="44.087999999999994" y="3.8409999999999997" class="h">(0s)</text></svg><svg x="3528"><use xlink:href="#a"></use><use xlink:href="#2" y="0"></use><text x="1.002" y="3.8409999999999997" class="f">▄</text><text x="3.006" y="3.8409999999999997" class="g">Doing</text><text x="9.017999999999999" y="3.8409999999999997" class="g">something</text><text x="19.037999999999997" y="3.8409999999999997" class="g">important...</text><text x="32.064" y="3.8409999999999997" class="g">(will</text><text x="38.07599999999999" y="3.8409999999999997" class="g">warn)</text><text x="44.087999999999994" y="3.8409999999999997" class="h">(0s)</text></svg><svg x="3780"><use xlink:href="#a"></use><use xlink:href="#2" y="0"></use><use xlink:href="#3" y="2.171"></use></svg><svg x="4032"><use xlink:href="#a"></use><use xlink:href="#2" y="0"></use><text x="0" y="3.8409999999999997" class="f">▀</text><text x="3.006" y="3.8409999999999997" class="g">Doing</text><text x="9.017999999999999" y="3.8409999999999997" class="g">something</text><text x="19.037999999999997" y="3.8409999999999997" class="g">important...</text><text x="32.064" y="3.8409999999999997" class="g">(will</text><text x="38.07599999999999" y="3.8409999999999997" class="g">warn)</text><text x="44.087999999999994" y="3.8409999999999997" class="h">(1s)</text></svg><svg x="4284"><use xlink:href="#a"></use><use xlink:href="#2" y="0"></use><text x="1.002" y="3.8409999999999997" class="f">▀</text><text x="3.006" y="3.8409999999999997" class="g">Doing</text><text x="9.017999999999999" y="3.8409999999999997" class="g">something</text><text x="19.037999999999997" y="3.8409999999999997" class="g">important...</text><text x="32.064" y="3.8409999999999997" class="g">(will</text><text x="38.07599999999999" y="3.8409999999999997" class="g">warn)</text><text x="44.087999999999994" y="3.8409999999999997" class="h">(1s)</text></svg><svg x="4536"><use xlink:href="#a"></use><use xlink:href="#2" y="0"></use><text x="1.002" y="3.8409999999999997" class="f">▄</text><text x="3.006" y="3.8409999999999997" class="g">Doing</text><text x="9.017999999999999" y="3.8409999999999997" class="g">something</text><text x="19.037999999999997" y="3.8409999999999997" class="g">important...</text><text x="32.064" y="3.8409999999999997" class="g">(will</text><text x="38.07599999999999" y="3.8409999999999997" class="g">warn)</text><text x="44.087999999999994" y="3.8409999999999997" class="h">(1s)</text></svg><svg x="4788"><use xlink:href="#a"></use><use xlink:href="#2" y="0"></use><use xlink:href="#3" y="2.171"></use></svg><svg x="5040"><use xlink:href="#a"></use><use xlink:href="#2" y="0"></use><text x="0" y="3.8409999999999997" class="f">▀</text><text x="3.006" y="3.8409999999999997" class="g">Doing</text><text x="9.017999999999999" y="3.8409999999999997" class="g">something</text><text x="19.037999999999997" y="3.8409999999999997" class="g">important...</text><text x="32.064" y="3.8409999999999997" class="g">(will</text><text x="38.07599999999999" y="3.8409999999999997" class="g">warn)</text><text x="44.087999999999994" y="3.8409999999999997" class="h">(2s)</text></svg><svg x="5292"><use xlink:href="#a"></use><use xlink:href="#2" y="0"></use><text x="1.002" y="3.8409999999999997" class="f">▀</text><text x="3.006" y="3.8409999999999997" class="g">Doing</text><text x="9.017999999999999" y="3.8409999999999997" class="g">something</text><text x="19.037999999999997" y="3.8409999999999997" class="g">important...</text><text x="32.064" y="3.8409999999999997" class="g">(will</text><text x="38.07599999999999" y="3.8409999999999997" class="g">warn)</text><text x="44.087999999999994" y="3.8409999999999997" class="h">(2s)</text></svg><svg x="5544"><use xlink:href="#a"></use><use xlink:href="#2" y="0"></use><use xlink:href="#4" y="2.171"></use></svg><svg x="5796"><use xlink:href="#a"></use><use xlink:href="#2" y="0"></use><use xlink:href="#4" y="2.171"></use><text x="0" y="6.012" class="f">▀</text><text x="3.006" y="6.012" class="g">Doing</text><text x="9.017999999999999" y="6.012" class="g">something</text><text x="19.037999999999997" y="6.012" class="g">important...</text><text x="32.064" y="6.012" class="g">(will</text><text x="38.07599999999999" y="6.012" class="g">fail)</text><text x="44.087999999999994" y="6.012" class="h">(0s)</text></svg><svg x="6048"><use xlink:href="#a"></use><use xlink:href="#2" y="0"></use><use xlink:href="#4" y="2.171"></use><text x="1.002" y="6.012" class="f">▀</text><text x="3.006" y="6.012" class="g">Doing</text><text x="9.017999999999999" y="6.012" class="g">something</text><text x="19.037999999999997" y="6.012" class="g">important...</text><text x="32.064" y="6.012" class="g">(will</text><text x="38.07599999999999" y="6.012" class="g">fail)</text><text x="44.087999999999994" y="6.012" class="h">(0s)</text></svg><svg x="6300"><use xlink:href="#a"></use><use xlink:href="#2" y="0"></use><use xlink:href="#4" y="2.171"></use><text x="1.002" y="6.012" class="f">▄</text><text x="3.006" y="6.012" class="g">Doing</text><text x="9.017999999999999" y="6.012" class="g">something</text><text x="19.037999999999997" y="6.012" class="g">important...</text><text x="32.064" y="6.012" class="g">(will</text><text x="38.07599999999999" y="6.012" class="g">fail)</text><text x="44.087999999999994" y="6.012" class="h">(0s)</text></svg><svg x="6552"><use xlink:href="#a"></use><use xlink:href="#2" y="0"></use><use xlink:href="#4" y="2.171"></use><use xlink:href="#5" y="4.342"></use></svg><svg x="6804"><use xlink:href="#a"></use><use xlink:href="#2" y="0"></use><use xlink:href="#4" y="2.171"></use><text x="0" y="6.012" class="f">▀</text><text x="3.006" y="6.012" class="g">Doing</text><text x="9.017999999999999" y="6.012" class="g">something</text><text x="19.037999999999997" y="6.012" class="g">important...</text><text x="32.064" y="6.012" class="g">(will</text><text x="38.07599999999999" y="6.012" class="g">fail)</text><text x="44.087999999999994" y="6.012" class="h">(1s)</text></svg><svg x="7056"><use xlink:href="#a"></use><use xlink:href="#2" y="0"></use><use xlink:href="#4" y="2.171"></use><text x="1.002" y="6.012" class="f">▀</text><text x="3.006" y="6.012" class="g">Doing</text><text x="9.017999999999999" y="6.012" class="g">something</text><text x="19.037999999999997" y="6.012" class="g">important...</text><text x="32.064" y="6.012" class="g">(will</text><text x="38.07599999999999" y="6.012" class="g">fail)</text><text x="44.087999999999994" y="6.012" class="h">(1s)</text></svg><svg x="7308"><use xlink:href="#a"></use><use xlink:href="#2" y="0"></use><use xlink:href="#4" y="2.171"></use><text x="1.002" y="6.012" class="f">▄</text><text x="3.006" y="6.012" class="g">Doing</text><text x="9.017999999999999" y="6.012" class="g">something</text><text x="19.037999999999997" y="6.012" class="g">important...</text><text x="32.064" y="6.012" class="g">(will</text><text x="38.07599999999999" y="6.012" class="g">fail)</text><text x="44.087999999999994" y="6.012" class="h">(1s)</text></svg><svg x="7560"><use xlink:href="#a"></use><use xlink:href="#2" y="0"></use><use xlink:href="#4" y="2.171"></use><use xlink:href="#5" y="4.342"></use></svg><svg x="7812"><use xlink:href="#a"></use><use xlink:href="#2" y="0"></use><use xlink:href="#4" y="2.171"></use><text x="0" y="6.012" class="f">▀</text><text x="3.006" y="6.012" class="g">Doing</text><text x="9.017999999999999" y="6.012" class="g">something</text><text x="19.037999999999997" y="6.012" class="g">important...</text><text x="32.064" y="6.012" class="g">(will</text><text x="38.07599999999999" y="6.012" class="g">fail)</text><text x="44.087999999999994" y="6.012" class="h">(2s)</text></svg><svg x="8064"><use xlink:href="#a"></use><use xlink:href="#2" y="0"></use><use xlink:href="#4" y="2.171"></use><text x="1.002" y="6.012" class="f">▀</text><text x="3.006" y="6.012" class="g">Doing</text><text x="9.017999999999999" y="6.012" class="g">something</text><text x="19.037999999999997" y="6.012" class="g">important...</text><text x="32.064" y="6.012" class="g">(will</text><text x="38.07599999999999" y="6.012" class="g">fail)</text><text x="44.087999999999994" y="6.012" class="h">(2s)</text></svg><svg x="8316"><use xlink:href="#a"></use><use xlink:href="#2" y="0"></use><use xlink:href="#4" y="2.171"></use><use xlink:href="#6" y="4.342"></use></svg><svg x="8568"><use xlink:href="#a"></use><use xlink:href="#2" y="0"></use><use xlink:href="#4" y="2.171"></use><use xlink:href="#6" y="4.342"></use><text x="0" y="8.183" class="f">▀</text><text x="3.006" y="8.183" class="g">Doing</text><text x="9.017999999999999" y="8.183" class="g">a</text><text x="11.021999999999998" y="8.183" class="g">lot</text><text x="15.029999999999998" y="8.183" class="g">of</text><text x="18.035999999999998" y="8.183" class="g">stuff...</text><text x="27.054" y="8.183" class="h">(0s)</text></svg><svg x="8820"><use xlink:href="#a"></use><use xlink:href="#2" y="0"></use><use xlink:href="#4" y="2.171"></use><use xlink:href="#6" y="4.342"></use><text x="1.002" y="8.183" class="f">▀</text><text x="3.006" y="8.183" class="g">Doing</text><text x="9.017999999999999" y="8.183" class="g">a</text><text x="11.021999999999998" y="8.183" class="g">lot</text><text x="15.029999999999998" y="8.183" class="g">of</text><text x="18.035999999999998" y="8.183" class="g">stuff...</text><text x="27.054" y="8.183" class="h">(0s)</text></svg><svg x="9072"><use xlink:href="#a"></use><use xlink:href="#2" y="0"></use><use xlink:href="#4" y="2.171"></use><use xlink:href="#6" y="4.342"></use><text x="1.002" y="8.183" class="f">▄</text><text x="3.006" y="8.183" class="g">Doing</text><text x="9.017999999999999" y="8.183" class="g">a</text><text x="11.021999999999998" y="8.183" class="g">lot</text><text x="15.029999999999998" y="8.183" class="g">of</text><text x="18.035999999999998" y="8.183" class="g">stuff...</text><text x="27.054" y="8.183" class="h">(0s)</text></svg><svg x="9324"><use xlink:href="#a"></use><use xlink:href="#2" y="0"></use><use xlink:href="#4" y="2.171"></use><use xlink:href="#6" y="4.342"></use><text x="0" y="8.183" class="f">▄</text><text x="3.006" y="8.183" class="g">Doing</text><text x="9.017999999999999" y="8.183" class="g">a</text><text x="11.021999999999998" y="8.183" class="g">lot</text><text x="15.029999999999998" y="8.183" class="g">of</text><text x="18.035999999999998" y="8.183" class="g">stuff...</text><text x="27.054" y="8.183" class="h">(1s)</text></svg><svg x="9576"><use xlink:href="#a"></use><use xlink:href="#2" y="0"></use><use xlink:href="#4" y="2.171"></use><use xlink:href="#6" y="4.342"></use><text x="0" y="8.183" class="f">▀</text><text x="3.006" y="8.183" class="g">Doing</text><text x="9.017999999999999" y="8.183" class="g">a</text><text x="11.021999999999998" y="8.183" class="g">lot</text><text x="15.029999999999998" y="8.183" class="g">of</text><text x="18.035999999999998" y="8.183" class="g">stuff...</text><text x="27.054" y="8.183" class="h">(1s)</text></svg><svg x="9828"><use xlink:href="#a"></use><use xlink:href="#2" y="0"></use><use xlink:href="#4" y="2.171"></use><use xlink:href="#6" y="4.342"></use><text x="0" y="8.183" class="f">▀</text><text x="3.006" y="8.183" class="g">It&#x27;s</text><text x="8.016" y="8.183" class="g">really</text><text x="15.029999999999998" y="8.183" class="g">much</text></svg><svg x="10080"><use xlink:href="#a"></use><use xlink:href="#2" y="0"></use><use xlink:href="#4" y="2.171"></use><use xlink:href="#6" y="4.342"></use><text x="1.002" y="8.183" class="f">▀</text><text x="3.006" y="8.183" class="g">It&#x27;s</text><text x="8.016" y="8.183" class="g">really</text><text x="15.029999999999998" y="8.183" class="g">much</text><text x="20.04" y="8.183" class="h">(1s)</text></svg><svg x="10332"><use xlink:href="#a"></use><use xlink:href="#2" y="0"></use><use xlink:href="#4" y="2.171"></use><use xlink:href="#6" y="4.342"></use><text x="1.002" y="8.183" class="f">▄</text><text x="3.006" y="8.183" class="g">It&#x27;s</text><text x="8.016" y="8.183" class="g">really</text><text x="15.029999999999998" y="8.183" class="g">much</text><text x="20.04" y="8.183" class="h">(1s)</text></svg><svg x="10584"><use xlink:href="#a"></use><use xlink:href="#2" y="0"></use><use xlink:href="#4" y="2.171"></use><use xlink:href="#6" y="4.342"></use><text x="0" y="8.183" class="f">▄</text><text x="3.006" y="8.183" class="g">It&#x27;s</text><text x="8.016" y="8.183" class="g">really</text><text x="15.029999999999998" y="8.183" class="g">much</text><text x="20.04" y="8.183" class="h">(1s)</text></svg><svg x="10836"><use xlink:href="#a"></use><use xlink:href="#2" y="0"></use><use xlink:href="#4" y="2.171"></use><use xlink:href="#6" y="4.342"></use><text x="0" y="8.183" class="f">▀</text><text x="3.006" y="8.183" class="g">It&#x27;s</text><text x="8.016" y="8.183" class="g">really</text><text x="15.029999999999998" y="8.183" class="g">much</text><text x="20.04" y="8.183" class="h">(2s)</text></svg><svg x="11088"><use xlink:href="#a"></use><use xlink:href="#2" y="0"></use><use xlink:href="#4" y="2.171"></use><use xlink:href="#6" y="4.342"></use><text x="1.002" y="8.183" class="f">▀</text><text x="3.006" y="8.183" class="g">It&#x27;s</text><text x="8.016" y="8.183" class="g">really</text><text x="15.029999999999998" y="8.183" class="g">much</text><text x="20.04" y="8.183" class="h">(2s)</text></svg><svg x="11340"><use xlink:href="#a"></use><use xlink:href="#2" y="0"></use><use xlink:href="#4" y="2.171"></use><use xlink:href="#6" y="4.342"></use><text x="1.002" y="8.183" class="f">▀</text><text x="3.006" y="8.183" class="g">We&#x27;re</text><text x="9.017999999999999" y="8.183" class="g">nearly</text><text x="16.032" y="8.183" class="g">done!</text></svg><svg x="11592"><use xlink:href="#a"></use><use xlink:href="#2" y="0"></use><use xlink:href="#4" y="2.171"></use><use xlink:href="#6" y="4.342"></use><text x="1.002" y="8.183" class="f">▄</text><text x="3.006" y="8.183" class="g">We&#x27;re</text><text x="9.017999999999999" y="8.183" class="g">nearly</text><text x="16.032" y="8.183" class="g">done!</text><text x="22.043999999999997" y="8.183" class="h">(2s)</text></svg><svg x="11844"><use xlink:href="#a"></use><use xlink:href="#2" y="0"></use><use xlink:href="#4" y="2.171"></use><use xlink:href="#6" y="4.342"></use><text x="0" y="8.183" class="f">▄</text><text x="3.006" y="8.183" class="g">We&#x27;re</text><text x="9.017999999999999" y="8.183" class="g">nearly</text><text x="16.032" y="8.183" class="g">done!</text><text x="22.043999999999997" y="8.183" class="h">(2s)</text></svg><svg x="12096"><use xlink:href="#a"></use><use xlink:href="#2" y="0"></use><use xlink:href="#4" y="2.171"></use><use xlink:href="#6" y="4.342"></use><text x="0" y="8.183" class="f">▀</text><text x="3.006" y="8.183" class="g">We&#x27;re</text><text x="9.017999999999999" y="8.183" class="g">nearly</text><text x="16.032" y="8.183" class="g">done!</text><text x="22.043999999999997" y="8.183" class="h">(2s)</text></svg><svg x="12348"><use xlink:href="#a"></use><use xlink:href="#2" y="0"></use><use xlink:href="#4" y="2.171"></use><use xlink:href="#6" y="4.342"></use><text x="1.002" y="8.183" class="f">▀</text><text x="3.006" y="8.183" class="g">We&#x27;re</text><text x="9.017999999999999" y="8.183" class="g">nearly</text><text x="16.032" y="8.183" class="g">done!</text><text x="22.043999999999997" y="8.183" class="h">(3s)</text></svg><svg x="12600"><use xlink:href="#a"></use><use xlink:href="#2" y="0"></use><use xlink:href="#4" y="2.171"></use><use xlink:href="#6" y="4.342"></use><text x="1.002" y="8.183" class="f">▄</text><text x="3.006" y="8.183" class="g">We&#x27;re</text><text x="9.017999999999999" y="8.183" class="g">nearly</text><text x="16.032" y="8.183" class="g">done!</text><text x="22.043999999999997" y="8.183" class="h">(3s)</text></svg><svg x="12852"><use xlink:href="#a"></use><use xlink:href="#2" y="0"></use><use xlink:href="#4" y="2.171"></use><use xlink:href="#6" y="4.342"></use><use xlink:href="#7" y="6.513"></use></svg><svg x="13104"><use xlink:href="#a"></use><use xlink:href="#2" y="0"></use><use xlink:href="#4" y="2.171"></use><use xlink:href="#6" y="4.342"></use><use xlink:href="#7" y="6.513"></use><text x="0" y="12.525" class="s">Restarting</text><text x="11.021999999999998" y="12.525" class="s">animation...</text></svg></svg></g></g></svg></svg>