<svg xmlns="http://www.w3.org/2000/svg" xmlns:xlink="http://www.w3.org/1999/xlink" width="840" height="581.04"><rect width="840" height="581.04" rx="5" ry="5" class="a"></rect><svg y="0%" x="0%"><circle cx="20" cy="20" r="6" class="b"></circle><circle cx="40" cy="20" r="6" class="c"></circle><circle cx="60" cy="20" r="6" class="d"></circle></svg><svg height="521.04" viewBox="0 0 80 52.104" width="800" x="15" xmlns="http://www.w3.org/2000/svg" xmlns:xlink="http://www.w3.org/1999/xlink" y="50"><style>.e, .g, .f {
	font-family:
			'Courier New'
			Roboto,
			Helvetica,
			Arial,
			sans-serif,
			'Apple Color Emoji',
			'Segoe UI Emoji' !important;
}.a{fill:rgb(35,35,35)}.b{fill:#ff5f58}.c{fill:#ffbd2e}.d{fill:#18c132}.e{font-family:'Courier New',Monaco,Consolas,Menlo,'Bitstream Vera Sans Mono','Powerline Symbols',monospace}.f{fill:rgb(126,231,233);white-space:pre}.g{fill:rgb(255,255,255);white-space:pre}.h{fill:rgb(104,104,104);white-space:pre}.i{fill:rgb(102,194,205)}.j{white-space:pre}.k{fill:rgb(168,204,140)}.l{fill:rgb(124,255,0);white-space:pre}.m{fill:rgb(219,171,121)}.n{fill:rgb(255,241,0);white-space:pre}.o{fill:rgb(232,131,136)}.p{fill:rgb(243,86,86);white-space:pre}.q{fill:rgb(115,190,243)}.r{fill:rgb(152,161,254);white-space:pre}.s{fill:transparent}.u{animation-duration:18.363328s;animation-iteration-count:infinite;animation-name:t;animation-timing-function:steps(1,end)}.v{fill:rgb(160,160,160);white-space:pre}@keyframes t{0%{transform:translateX(-0px)}1.93%{transform:translateX(-80px)}3.03%{transform:translateX(-160px)}4.12%{transform:translateX(-240px)}5.21%{transform:translateX(-320px)}6.3%{transform:translateX(-400px)}7.39%{transform:translateX(-480px)}8.49%{transform:translateX(-560px)}9.58%{transform:translateX(-640px)}10.68%{transform:translateX(-720px)}11.77%{transform:translateX(-800px)}12.83%{transform:translateX(-880px)}12.83%{transform:translateX(-960px)}13.92%{transform:translateX(-1040px)}15.02%{transform:translateX(-1120px)}16.11%{transform:translateX(-1200px)}17.2%{transform:translateX(-1280px)}18.29%{transform:translateX(-1360px)}19.38%{transform:translateX(-1440px)}20.47%{transform:translateX(-1520px)}21.56%{transform:translateX(-1600px)}22.66%{transform:translateX(-1680px)}23.73%{transform:translateX(-1760px)}23.73%{transform:translateX(-1840px)}24.82%{transform:translateX(-1920px)}25.91%{transform:translateX(-2000px)}27%{transform:translateX(-2080px)}28.09%{transform:translateX(-2160px)}29.19%{transform:translateX(-2240px)}30.27%{transform:translateX(-2320px)}31.37%{transform:translateX(-2400px)}32.46%{transform:translateX(-2480px)}33.55%{transform:translateX(-2560px)}34.62%{transform:translateX(-2640px)}35.72%{transform:translateX(-2720px)}36.81%{transform:translateX(-2800px)}37.9%{transform:translateX(-2880px)}39.01%{transform:translateX(-2960px)}40.1%{transform:translateX(-3040px)}41.19%{transform:translateX(-3120px)}42.29%{transform:translateX(-3200px)}43.38%{transform:translateX(-3280px)}44.48%{transform:translateX(-3360px)}45.52%{transform:translateX(-3440px)}46.61%{transform:translateX(-3520px)}47.72%{transform:translateX(-3600px)}48.81%{transform:translateX(-3680px)}49.91%{transform:translateX(-3760px)}51%{transform:translateX(-3840px)}52.09%{transform:translateX(-3920px)}53.18%{transform:translateX(-4000px)}54.27%{transform:translateX(-4080px)}55.37%{transform:translateX(-4160px)}56.41%{transform:translateX(-4240px)}56.42%{transform:translateX(-4320px)}57.51%{transform:translateX(-4400px)}58.6%{transform:translateX(-4480px)}59.7%{transform:translateX(-4560px)}60.79%{transform:translateX(-4640px)}61.87%{transform:translateX(-4720px)}61.88%{transform:translateX(-4800px)}62.97%{transform:translateX(-4880px)}64.07%{transform:translateX(-4960px)}65.16%{transform:translateX(-5040px)}66.25%{transform:translateX(-5120px)}67.32%{transform:translateX(-5200px)}67.34%{transform:translateX(-5280px)}68.43%{transform:translateX(-5360px)}69.53%{transform:translateX(-5440px)}70.62%{transform:translateX(-5520px)}71.71%{transform:translateX(-5600px)}72.77%{transform:translateX(-5680px)}72.77%{transform:translateX(-5760px)}100%{transform:translateX(-5840px)}}</style><g font-family="'Courier New',Monaco, Consolas, Menlo, &#x27;Bitstream Vera Sans Mono&#x27;, &#x27;Powerline Symbols&#x27;, monospace" font-size="1.67" class="e"><defs><symbol id="1"><text x="0" y="1.67" class="f">▄</text><text x="3.006" y="1.67" class="g">Some</text><text x="8.016" y="1.67" class="g">informational</text><text x="22.043999999999997" y="1.67" class="g">action...</text><text x="32.064" y="1.67" class="h">(1s)</text></symbol><symbol id="2"><rect height="2.171" width="6" x="0" y="0" class="i"></rect><text x="0" y="1.67" class="j"> INFO </text><text x="7.013999999999999" y="1.67" class="f">Some</text><text x="12.024" y="1.67" class="f">informational</text><text x="26.052" y="1.67" class="f">action...</text></symbol><symbol id="3"><text x="0" y="1.67" class="f">▄</text><text x="3.006" y="1.67" class="g">Doing</text><text x="9.017999999999999" y="1.67" class="g">something</text><text x="19.037999999999997" y="1.67" class="g">important...</text><text x="32.064" y="1.67" class="g">(will</text><text x="38.07599999999999" y="1.67" class="g">succeed)</text><text x="47.093999999999994" y="1.67" class="h">(1s)</text></symbol><symbol id="4"><rect height="2.171" width="9" x="0" y="0" class="k"></rect><text x="0" y="1.67" class="j"> SUCCESS </text><text x="10.02" y="1.67" class="l">Doing</text><text x="16.032" y="1.67" class="l">something</text><text x="26.052" y="1.67" class="l">important...</text><text x="39.077999999999996" y="1.67" class="l">(will</text><text x="45.089999999999996" y="1.67" class="l">succeed)</text></symbol><symbol id="5"><text x="0" y="1.67" class="f">▄</text><text x="3.006" y="1.67" class="g">Doing</text><text x="9.017999999999999" y="1.67" class="g">something</text><text x="19.037999999999997" y="1.67" class="g">important...</text><text x="32.064" y="1.67" class="g">(will</text><text x="38.07599999999999" y="1.67" class="g">warn)</text><text x="44.087999999999994" y="1.67" class="h">(1s)</text></symbol><symbol id="6"><rect height="2.171" width="9" x="0" y="0" class="m"></rect><text x="0" y="1.67" class="j"> WARNING </text><text x="10.02" y="1.67" class="n">Doing</text><text x="16.032" y="1.67" class="n">something</text><text x="26.052" y="1.67" class="n">important...</text><text x="39.077999999999996" y="1.67" class="n">(will</text><text x="45.089999999999996" y="1.67" class="n">warn)</text></symbol><symbol id="7"><text x="0" y="1.67" class="f">▄</text><text x="3.006" y="1.67" class="g">Doing</text><text x="9.017999999999999" y="1.67" class="g">something</text><text x="19.037999999999997" y="1.67" class="g">important...</text><text x="32.064" y="1.67" class="g">(will</text><text x="38.07599999999999" y="1.67" class="g">fail)</text><text x="44.087999999999994" y="1.67" class="h">(1s)</text></symbol><symbol id="8"><rect height="2.171" width="9" x="0" y="0" class="o"></rect><text x="0" y="1.67" class="j">  ERROR  </text><text x="10.02" y="1.67" class="p">Doing</text><text x="16.032" y="1.67" class="p">something</text><text x="26.052" y="1.67" class="p">important...</text><text x="39.077999999999996" y="1.67" class="p">(will</text><text x="45.089999999999996" y="1.67" class="p">fail)</text></symbol><symbol id="9"><text x="0" y="1.67" class="f">▄</text><text x="3.006" y="1.67" class="g">Checking</text><text x="12.024" y="1.67" class="g">something</text><text x="22.043999999999997" y="1.67" class="g">important...</text><text x="35.06999999999999" y="1.67" class="g">(will</text><text x="41.082" y="1.67" class="g">result</text><text x="48.096" y="1.67" class="g">in</text><text x="51.102" y="1.67" class="g">no</text><text x="54.108" y="1.67" class="g">change)</text><text x="62.123999999999995" y="1.67" class="h">(1s)</text></symbol><symbol id="10"><rect height="2.171" width="9" x="0" y="0" class="q"></rect><text x="0" y="1.67" class="j">  NOCHG  </text><text x="10.02" y="1.67" class="r">No</text><text x="13.026" y="1.67" class="r">change</text><text x="20.04" y="1.67" class="r">were</text><text x="25.05" y="1.67" class="r">required</text></symbol><symbol id="11"><rect height="2.171" width="9" x="0" y="0" class="k"></rect><text x="0" y="1.67" class="j"> SUCCESS </text><text x="10.02" y="1.67" class="l">Finally!</text></symbol><symbol id="a"><rect height="24" width="80" x="0" y="0" class="s"></rect></symbol></defs><rect height="52.104" width="80" class="a"></rect><g class="u"><svg x="0" y="0" width="5920"><svg x="0"><use xlink:href="#a"></use></svg><svg x="80"><use xlink:href="#a"></use><text x="0" y="1.67" class="f">▀</text><text x="3.006" y="1.67" class="g">Some</text><text x="8.016" y="1.67" class="g">informational</text><text x="22.043999999999997" y="1.67" class="g">action...</text><text x="32.064" y="1.67" class="h">(0s)</text></svg><svg x="160"><use xlink:href="#a"></use><text x="1.002" y="1.67" class="f">▀</text><text x="3.006" y="1.67" class="g">Some</text><text x="8.016" y="1.67" class="g">informational</text><text x="22.043999999999997" y="1.67" class="g">action...</text><text x="32.064" y="1.67" class="h">(0s)</text></svg><svg x="240"><use xlink:href="#a"></use><text x="1.002" y="1.67" class="f">▄</text><text x="3.006" y="1.67" class="g">Some</text><text x="8.016" y="1.67" class="g">informational</text><text x="22.043999999999997" y="1.67" class="g">action...</text><text x="32.064" y="1.67" class="h">(0s)</text></svg><svg x="320"><use xlink:href="#a"></use><use xlink:href="#1" y="0"></use></svg><svg x="400"><use xlink:href="#a"></use><text x="0" y="1.67" class="f">▀</text><text x="3.006" y="1.67" class="g">Some</text><text x="8.016" y="1.67" class="g">informational</text><text x="22.043999999999997" y="1.67" class="g">action...</text><text x="32.064" y="1.67" class="h">(1s)</text></svg><svg x="480"><use xlink:href="#a"></use><text x="1.002" y="1.67" class="f">▀</text><text x="3.006" y="1.67" class="g">Some</text><text x="8.016" y="1.67" class="g">informational</text><text x="22.043999999999997" y="1.67" class="g">action...</text><text x="32.064" y="1.67" class="h">(1s)</text></svg><svg x="560"><use xlink:href="#a"></use><text x="1.002" y="1.67" class="f">▄</text><text x="3.006" y="1.67" class="g">Some</text><text x="8.016" y="1.67" class="g">informational</text><text x="22.043999999999997" y="1.67" class="g">action...</text><text x="32.064" y="1.67" class="h">(1s)</text></svg><svg x="640"><use xlink:href="#a"></use><use xlink:href="#1" y="0"></use></svg><svg x="720"><use xlink:href="#a"></use><text x="0" y="1.67" class="f">▀</text><text x="3.006" y="1.67" class="g">Some</text><text x="8.016" y="1.67" class="g">informational</text><text x="22.043999999999997" y="1.67" class="g">action...</text><text x="32.064" y="1.67" class="h">(2s)</text></svg><svg x="800"><use xlink:href="#a"></use><text x="1.002" y="1.67" class="f">▀</text><text x="3.006" y="1.67" class="g">Some</text><text x="8.016" y="1.67" class="g">informational</text><text x="22.043999999999997" y="1.67" class="g">action...</text><text x="32.064" y="1.67" class="h">(2s)</text></svg><svg x="880"><use xlink:href="#a"></use></svg><svg x="960"><use xlink:href="#a"></use><use xlink:href="#2" y="0"></use><text x="0" y="3.8409999999999997" class="f">▀</text><text x="3.006" y="3.8409999999999997" class="g">Doing</text><text x="9.017999999999999" y="3.8409999999999997" class="g">something</text><text x="19.037999999999997" y="3.8409999999999997" class="g">important...</text><text x="32.064" y="3.8409999999999997" class="g">(will</text><text x="38.07599999999999" y="3.8409999999999997" class="g">succeed)</text><text x="47.093999999999994" y="3.8409999999999997" class="h">(0s)</text></svg><svg x="1040"><use xlink:href="#a"></use><use xlink:href="#2" y="0"></use><text x="1.002" y="3.8409999999999997" class="f">▀</text><text x="3.006" y="3.8409999999999997" class="g">Doing</text><text x="9.017999999999999" y="3.8409999999999997" class="g">something</text><text x="19.037999999999997" y="3.8409999999999997" class="g">important...</text><text x="32.064" y="3.8409999999999997" class="g">(will</text><text x="38.07599999999999" y="3.8409999999999997" class="g">succeed)</text><text x="47.093999999999994" y="3.8409999999999997" class="h">(0s)</text></svg><svg x="1120"><use xlink:href="#a"></use><use xlink:href="#2" y="0"></use><text x="1.002" y="3.8409999999999997" class="f">▄</text><text x="3.006" y="3.8409999999999997" class="g">Doing</text><text x="9.017999999999999" y="3.8409999999999997" class="g">something</text><text x="19.037999999999997" y="3.8409999999999997" class="g">important...</text><text x="32.064" y="3.8409999999999997" class="g">(will</text><text x="38.07599999999999" y="3.8409999999999997" class="g">succeed)</text><text x="47.093999999999994" y="3.8409999999999997" class="h">(0s)</text></svg><svg x="1200"><use xlink:href="#a"></use><use xlink:href="#2" y="0"></use><use xlink:href="#3" y="2.171"></use></svg><svg x="1280"><use xlink:href="#a"></use><use xlink:href="#2" y="0"></use><text x="0" y="3.8409999999999997" class="f">▀</text><text x="3.006" y="3.8409999999999997" class="g">Doing</text><text x="9.017999999999999" y="3.8409999999999997" class="g">something</text><text x="19.037999999999997" y="3.8409999999999997" class="g">important...</text><text x="32.064" y="3.8409999999999997" class="g">(will</text><text x="38.07599999999999" y="3.8409999999999997" class="g">succeed)</text><text x="47.093999999999994" y="3.8409999999999997" class="h">(1s)</text></svg><svg x="1360"><use xlink:href="#a"></use><use xlink:href="#2" y="0"></use><text x="1.002" y="3.8409999999999997" class="f">▀</text><text x="3.006" y="3.8409999999999997" class="g">Doing</text><text x="9.017999999999999" y="3.8409999999999997" class="g">something</text><text x="19.037999999999997" y="3.8409999999999997" class="g">important...</text><text x="32.064" y="3.8409999999999997" class="g">(will</text><text x="38.07599999999999" y="3.8409999999999997" class="g">succeed)</text><text x="47.093999999999994" y="3.8409999999999997" class="h">(1s)</text></svg><svg x="1440"><use xlink:href="#a"></use><use xlink:href="#2" y="0"></use><text x="1.002" y="3.8409999999999997" class="f">▄</text><text x="3.006" y="3.8409999999999997" class="g">Doing</text><text x="9.017999999999999" y="3.8409999999999997" class="g">something</text><text x="19.037999999999997" y="3.8409999999999997" class="g">important...</text><text x="32.064" y="3.8409999999999997" class="g">(will</text><text x="38.07599999999999" y="3.8409999999999997" class="g">succeed)</text><text x="47.093999999999994" y="3.8409999999999997" class="h">(1s)</text></svg><svg x="1520"><use xlink:href="#a"></use><use xlink:href="#2" y="0"></use><use xlink:href="#3" y="2.171"></use></svg><svg x="1600"><use xlink:href="#a"></use><use xlink:href="#2" y="0"></use><text x="0" y="3.8409999999999997" class="f">▀</text><text x="3.006" y="3.8409999999999997" class="g">Doing</text><text x="9.017999999999999" y="3.8409999999999997" class="g">something</text><text x="19.037999999999997" y="3.8409999999999997" class="g">important...</text><text x="32.064" y="3.8409999999999997" class="g">(will</text><text x="38.07599999999999" y="3.8409999999999997" class="g">succeed)</text><text x="47.093999999999994" y="3.8409999999999997" class="h">(2s)</text></svg><svg x="1680"><use xlink:href="#a"></use><use xlink:href="#2" y="0"></use><text x="1.002" y="3.8409999999999997" class="f">▀</text><text x="3.006" y="3.8409999999999997" class="g">Doing</text><text x="9.017999999999999" y="3.8409999999999997" class="g">something</text><text x="19.037999999999997" y="3.8409999999999997" class="g">important...</text><text x="32.064" y="3.8409999999999997" class="g">(will</text><text x="38.07599999999999" y="3.8409999999999997" class="g">succeed)</text><text x="47.093999999999994" y="3.8409999999999997" class="h">(2s)</text></svg><svg x="1760"><use xlink:href="#a"></use><use xlink:href="#2" y="0"></use><use xlink:href="#4" y="2.171"></use></svg><svg x="1840"><use xlink:href="#a"></use><use xlink:href="#2" y="0"></use><use xlink:href="#4" y="2.171"></use><text x="0" y="6.012" class="f">▀</text><text x="3.006" y="6.012" class="g">Doing</text><text x="9.017999999999999" y="6.012" class="g">something</text><text x="19.037999999999997" y="6.012" class="g">important...</text><text x="32.064" y="6.012" class="g">(will</text><text x="38.07599999999999" y="6.012" class="g">warn)</text><text x="44.087999999999994" y="6.012" class="h">(0s)</text></svg><svg x="1920"><use xlink:href="#a"></use><use xlink:href="#2" y="0"></use><use xlink:href="#4" y="2.171"></use><text x="1.002" y="6.012" class="f">▀</text><text x="3.006" y="6.012" class="g">Doing</text><text x="9.017999999999999" y="6.012" class="g">something</text><text x="19.037999999999997" y="6.012" class="g">important...</text><text x="32.064" y="6.012" class="g">(will</text><text x="38.07599999999999" y="6.012" class="g">warn)</text><text x="44.087999999999994" y="6.012" class="h">(0s)</text></svg><svg x="2000"><use xlink:href="#a"></use><use xlink:href="#2" y="0"></use><use xlink:href="#4" y="2.171"></use><text x="1.002" y="6.012" class="f">▄</text><text x="3.006" y="6.012" class="g">Doing</text><text x="9.017999999999999" y="6.012" class="g">something</text><text x="19.037999999999997" y="6.012" class="g">important...</text><text x="32.064" y="6.012" class="g">(will</text><text x="38.07599999999999" y="6.012" class="g">warn)</text><text x="44.087999999999994" y="6.012" class="h">(0s)</text></svg><svg x="2080"><use xlink:href="#a"></use><use xlink:href="#2" y="0"></use><use xlink:href="#4" y="2.171"></use><use xlink:href="#5" y="4.342"></use></svg><svg x="2160"><use xlink:href="#a"></use><use xlink:href="#2" y="0"></use><use xlink:href="#4" y="2.171"></use><text x="0" y="6.012" class="f">▀</text><text x="3.006" y="6.012" class="g">Doing</text><text x="9.017999999999999" y="6.012" class="g">something</text><text x="19.037999999999997" y="6.012" class="g">important...</text><text x="32.064" y="6.012" class="g">(will</text><text x="38.07599999999999" y="6.012" class="g">warn)</text><text x="44.087999999999994" y="6.012" class="h">(1s)</text></svg><svg x="2240"><use xlink:href="#a"></use><use xlink:href="#2" y="0"></use><use xlink:href="#4" y="2.171"></use><text x="1.002" y="6.012" class="f">▀</text><text x="3.006" y="6.012" class="g">Doing</text><text x="9.017999999999999" y="6.012" class="g">something</text><text x="19.037999999999997" y="6.012" class="g">important...</text><text x="32.064" y="6.012" class="g">(will</text><text x="38.07599999999999" y="6.012" class="g">warn)</text><text x="44.087999999999994" y="6.012" class="h">(1s)</text></svg><svg x="2320"><use xlink:href="#a"></use><use xlink:href="#2" y="0"></use><use xlink:href="#4" y="2.171"></use><text x="1.002" y="6.012" class="f">▄</text><text x="3.006" y="6.012" class="g">Doing</text><text x="9.017999999999999" y="6.012" class="g">something</text><text x="19.037999999999997" y="6.012" class="g">important...</text><text x="32.064" y="6.012" class="g">(will</text><text x="38.07599999999999" y="6.012" class="g">warn)</text><text x="44.087999999999994" y="6.012" class="h">(1s)</text></svg><svg x="2400"><use xlink:href="#a"></use><use xlink:href="#2" y="0"></use><use xlink:href="#4" y="2.171"></use><use xlink:href="#5" y="4.342"></use></svg><svg x="2480"><use xlink:href="#a"></use><use xlink:href="#2" y="0"></use><use xlink:href="#4" y="2.171"></use><text x="0" y="6.012" class="f">▀</text><text x="3.006" y="6.012" class="g">Doing</text><text x="9.017999999999999" y="6.012" class="g">something</text><text x="19.037999999999997" y="6.012" class="g">important...</text><text x="32.064" y="6.012" class="g">(will</text><text x="38.07599999999999" y="6.012" class="g">warn)</text><text x="44.087999999999994" y="6.012" class="h">(2s)</text></svg><svg x="2560"><use xlink:href="#a"></use><use xlink:href="#2" y="0"></use><use xlink:href="#4" y="2.171"></use><text x="1.002" y="6.012" class="f">▀</text><text x="3.006" y="6.012" class="g">Doing</text><text x="9.017999999999999" y="6.012" class="g">something</text><text x="19.037999999999997" y="6.012" class="g">important...</text><text x="32.064" y="6.012" class="g">(will</text><text x="38.07599999999999" y="6.012" class="g">warn)</text><text x="44.087999999999994" y="6.012" class="h">(2s)</text></svg><svg x="2640"><use xlink:href="#a"></use><use xlink:href="#2" y="0"></use><use xlink:href="#4" y="2.171"></use><use xlink:href="#6" y="4.342"></use><text x="0" y="8.183" class="f">▀</text><text x="3.006" y="8.183" class="g">Doing</text><text x="9.017999999999999" y="8.183" class="g">something</text><text x="19.037999999999997" y="8.183" class="g">important...</text><text x="32.064" y="8.183" class="g">(will</text><text x="38.07599999999999" y="8.183" class="g">fail)</text><text x="44.087999999999994" y="8.183" class="h">(0s)</text></svg><svg x="2720"><use xlink:href="#a"></use><use xlink:href="#2" y="0"></use><use xlink:href="#4" y="2.171"></use><use xlink:href="#6" y="4.342"></use><text x="1.002" y="8.183" class="f">▀</text><text x="3.006" y="8.183" class="g">Doing</text><text x="9.017999999999999" y="8.183" class="g">something</text><text x="19.037999999999997" y="8.183" class="g">important...</text><text x="32.064" y="8.183" class="g">(will</text><text x="38.07599999999999" y="8.183" class="g">fail)</text><text x="44.087999999999994" y="8.183" class="h">(0s)</text></svg><svg x="2800"><use xlink:href="#a"></use><use xlink:href="#2" y="0"></use><use xlink:href="#4" y="2.171"></use><use xlink:href="#6" y="4.342"></use><text x="1.002" y="8.183" class="f">▄</text><text x="3.006" y="8.183" class="g">Doing</text><text x="9.017999999999999" y="8.183" class="g">something</text><text x="19.037999999999997" y="8.183" class="g">important...</text><text x="32.064" y="8.183" class="g">(will</text><text x="38.07599999999999" y="8.183" class="g">fail)</text><text x="44.087999999999994" y="8.183" class="h">(0s)</text></svg><svg x="2880"><use xlink:href="#a"></use><use xlink:href="#2" y="0"></use><use xlink:href="#4" y="2.171"></use><use xlink:href="#6" y="4.342"></use><use xlink:href="#7" y="6.513"></use></svg><svg x="2960"><use xlink:href="#a"></use><use xlink:href="#2" y="0"></use><use xlink:href="#4" y="2.171"></use><use xlink:href="#6" y="4.342"></use><text x="0" y="8.183" class="f">▀</text><text x="3.006" y="8.183" class="g">Doing</text><text x="9.017999999999999" y="8.183" class="g">something</text><text x="19.037999999999997" y="8.183" class="g">important...</text><text x="32.064" y="8.183" class="g">(will</text><text x="38.07599999999999" y="8.183" class="g">fail)</text><text x="44.087999999999994" y="8.183" class="h">(1s)</text></svg><svg x="3040"><use xlink:href="#a"></use><use xlink:href="#2" y="0"></use><use xlink:href="#4" y="2.171"></use><use xlink:href="#6" y="4.342"></use><text x="1.002" y="8.183" class="f">▀</text><text x="3.006" y="8.183" class="g">Doing</text><text x="9.017999999999999" y="8.183" class="g">something</text><text x="19.037999999999997" y="8.183" class="g">important...</text><text x="32.064" y="8.183" class="g">(will</text><text x="38.07599999999999" y="8.183" class="g">fail)</text><text x="44.087999999999994" y="8.183" class="h">(1s)</text></svg><svg x="3120"><use xlink:href="#a"></use><use xlink:href="#2" y="0"></use><use xlink:href="#4" y="2.171"></use><use xlink:href="#6" y="4.342"></use><text x="1.002" y="8.183" class="f">▄</text><text x="3.006" y="8.183" class="g">Doing</text><text x="9.017999999999999" y="8.183" class="g">something</text><text x="19.037999999999997" y="8.183" class="g">important...</text><text x="32.064" y="8.183" class="g">(will</text><text x="38.07599999999999" y="8.183" class="g">fail)</text><text x="44.087999999999994" y="8.183" class="h">(1s)</text></svg><svg x="3200"><use xlink:href="#a"></use><use xlink:href="#2" y="0"></use><use xlink:href="#4" y="2.171"></use><use xlink:href="#6" y="4.342"></use><use xlink:href="#7" y="6.513"></use></svg><svg x="3280"><use xlink:href="#a"></use><use xlink:href="#2" y="0"></use><use xlink:href="#4" y="2.171"></use><use xlink:href="#6" y="4.342"></use><text x="0" y="8.183" class="f">▀</text><text x="3.006" y="8.183" class="g">Doing</text><text x="9.017999999999999" y="8.183" class="g">something</text><text x="19.037999999999997" y="8.183" class="g">important...</text><text x="32.064" y="8.183" class="g">(will</text><text x="38.07599999999999" y="8.183" class="g">fail)</text><text x="44.087999999999994" y="8.183" class="h">(2s)</text></svg><svg x="3360"><use xlink:href="#a"></use><use xlink:href="#2" y="0"></use><use xlink:href="#4" y="2.171"></use><use xlink:href="#6" y="4.342"></use><text x="1.002" y="8.183" class="f">▀</text><text x="3.006" y="8.183" class="g">Doing</text><text x="9.017999999999999" y="8.183" class="g">something</text><text x="19.037999999999997" y="8.183" class="g">important...</text><text x="32.064" y="8.183" class="g">(will</text><text x="38.07599999999999" y="8.183" class="g">fail)</text><text x="44.087999999999994" y="8.183" class="h">(2s)</text></svg><svg x="3440"><use xlink:href="#a"></use><use xlink:href="#2" y="0"></use><use xlink:href="#4" y="2.171"></use><use xlink:href="#6" y="4.342"></use><use xlink:href="#8" y="6.513"></use><text x="0" y="10.354" class="f">▀</text><text x="3.006" y="10.354" class="g">Checking</text><text x="12.024" y="10.354" class="g">something</text><text x="22.043999999999997" y="10.354" class="g">important...</text><text x="35.06999999999999" y="10.354" class="g">(will</text><text x="41.082" y="10.354" class="g">result</text><text x="48.096" y="10.354" class="g">in</text><text x="51.102" y="10.354" class="g">no</text><text x="54.108" y="10.354" class="g">change)</text><text x="62.123999999999995" y="10.354" class="h">(0s)</text></svg><svg x="3520"><use xlink:href="#a"></use><use xlink:href="#2" y="0"></use><use xlink:href="#4" y="2.171"></use><use xlink:href="#6" y="4.342"></use><use xlink:href="#8" y="6.513"></use><text x="1.002" y="10.354" class="f">▀</text><text x="3.006" y="10.354" class="g">Checking</text><text x="12.024" y="10.354" class="g">something</text><text x="22.043999999999997" y="10.354" class="g">important...</text><text x="35.06999999999999" y="10.354" class="g">(will</text><text x="41.082" y="10.354" class="g">result</text><text x="48.096" y="10.354" class="g">in</text><text x="51.102" y="10.354" class="g">no</text><text x="54.108" y="10.354" class="g">change)</text><text x="62.123999999999995" y="10.354" class="h">(0s)</text></svg><svg x="3600"><use xlink:href="#a"></use><use xlink:href="#2" y="0"></use><use xlink:href="#4" y="2.171"></use><use xlink:href="#6" y="4.342"></use><use xlink:href="#8" y="6.513"></use><text x="1.002" y="10.354" class="f">▄</text><text x="3.006" y="10.354" class="g">Checking</text><text x="12.024" y="10.354" class="g">something</text><text x="22.043999999999997" y="10.354" class="g">important...</text><text x="35.06999999999999" y="10.354" class="g">(will</text><text x="41.082" y="10.354" class="g">result</text><text x="48.096" y="10.354" class="g">in</text><text x="51.102" y="10.354" class="g">no</text><text x="54.108" y="10.354" class="g">change)</text><text x="62.123999999999995" y="10.354" class="h">(0s)</text></svg><svg x="3680"><use xlink:href="#a"></use><use xlink:href="#2" y="0"></use><use xlink:href="#4" y="2.171"></use><use xlink:href="#6" y="4.342"></use><use xlink:href="#8" y="6.513"></use><use xlink:href="#9" y="8.684"></use></svg><svg x="3760"><use xlink:href="#a"></use><use xlink:href="#2" y="0"></use><use xlink:href="#4" y="2.171"></use><use xlink:href="#6" y="4.342"></use><use xlink:href="#8" y="6.513"></use><text x="0" y="10.354" class="f">▀</text><text x="3.006" y="10.354" class="g">Checking</text><text x="12.024" y="10.354" class="g">something</text><text x="22.043999999999997" y="10.354" class="g">important...</text><text x="35.06999999999999" y="10.354" class="g">(will</text><text x="41.082" y="10.354" class="g">result</text><text x="48.096" y="10.354" class="g">in</text><text x="51.102" y="10.354" class="g">no</text><text x="54.108" y="10.354" class="g">change)</text><text x="62.123999999999995" y="10.354" class="h">(1s)</text></svg><svg x="3840"><use xlink:href="#a"></use><use xlink:href="#2" y="0"></use><use xlink:href="#4" y="2.171"></use><use xlink:href="#6" y="4.342"></use><use xlink:href="#8" y="6.513"></use><text x="1.002" y="10.354" class="f">▀</text><text x="3.006" y="10.354" class="g">Checking</text><text x="12.024" y="10.354" class="g">something</text><text x="22.043999999999997" y="10.354" class="g">important...</text><text x="35.06999999999999" y="10.354" class="g">(will</text><text x="41.082" y="10.354" class="g">result</text><text x="48.096" y="10.354" class="g">in</text><text x="51.102" y="10.354" class="g">no</text><text x="54.108" y="10.354" class="g">change)</text><text x="62.123999999999995" y="10.354" class="h">(1s)</text></svg><svg x="3920"><use xlink:href="#a"></use><use xlink:href="#2" y="0"></use><use xlink:href="#4" y="2.171"></use><use xlink:href="#6" y="4.342"></use><use xlink:href="#8" y="6.513"></use><text x="1.002" y="10.354" class="f">▄</text><text x="3.006" y="10.354" class="g">Checking</text><text x="12.024" y="10.354" class="g">something</text><text x="22.043999999999997" y="10.354" class="g">important...</text><text x="35.06999999999999" y="10.354" class="g">(will</text><text x="41.082" y="10.354" class="g">result</text><text x="48.096" y="10.354" class="g">in</text><text x="51.102" y="10.354" class="g">no</text><text x="54.108" y="10.354" class="g">change)</text><text x="62.123999999999995" y="10.354" class="h">(1s)</text></svg><svg x="4000"><use xlink:href="#a"></use><use xlink:href="#2" y="0"></use><use xlink:href="#4" y="2.171"></use><use xlink:href="#6" y="4.342"></use><use xlink:href="#8" y="6.513"></use><use xlink:href="#9" y="8.684"></use></svg><svg x="4080"><use xlink:href="#a"></use><use xlink:href="#2" y="0"></use><use xlink:href="#4" y="2.171"></use><use xlink:href="#6" y="4.342"></use><use xlink:href="#8" y="6.513"></use><text x="0" y="10.354" class="f">▀</text><text x="3.006" y="10.354" class="g">Checking</text><text x="12.024" y="10.354" class="g">something</text><text x="22.043999999999997" y="10.354" class="g">important...</text><text x="35.06999999999999" y="10.354" class="g">(will</text><text x="41.082" y="10.354" class="g">result</text><text x="48.096" y="10.354" class="g">in</text><text x="51.102" y="10.354" class="g">no</text><text x="54.108" y="10.354" class="g">change)</text><text x="62.123999999999995" y="10.354" class="h">(2s)</text></svg><svg x="4160"><use xlink:href="#a"></use><use xlink:href="#2" y="0"></use><use xlink:href="#4" y="2.171"></use><use xlink:href="#6" y="4.342"></use><use xlink:href="#8" y="6.513"></use><text x="1.002" y="10.354" class="f">▀</text><text x="3.006" y="10.354" class="g">Checking</text><text x="12.024" y="10.354" class="g">something</text><text x="22.043999999999997" y="10.354" class="g">important...</text><text x="35.06999999999999" y="10.354" class="g">(will</text><text x="41.082" y="10.354" class="g">result</text><text x="48.096" y="10.354" class="g">in</text><text x="51.102" y="10.354" class="g">no</text><text x="54.108" y="10.354" class="g">change)</text><text x="62.123999999999995" y="10.354" class="h">(2s)</text></svg><svg x="4240"><use xlink:href="#a"></use><use xlink:href="#2" y="0"></use><use xlink:href="#4" y="2.171"></use><use xlink:href="#6" y="4.342"></use><use xlink:href="#8" y="6.513"></use></svg><svg x="4320"><use xlink:href="#a"></use><use xlink:href="#2" y="0"></use><use xlink:href="#4" y="2.171"></use><use xlink:href="#6" y="4.342"></use><use xlink:href="#8" y="6.513"></use><use xlink:href="#10" y="8.684"></use><text x="0" y="12.525" class="f">▀</text><text x="3.006" y="12.525" class="g">Doing</text><text x="9.017999999999999" y="12.525" class="g">a</text><text x="11.021999999999998" y="12.525" class="g">lot</text><text x="15.029999999999998" y="12.525" class="g">of</text><text x="18.035999999999998" y="12.525" class="g">stuff...</text><text x="27.054" y="12.525" class="h">(0s)</text></svg><svg x="4400"><use xlink:href="#a"></use><use xlink:href="#2" y="0"></use><use xlink:href="#4" y="2.171"></use><use xlink:href="#6" y="4.342"></use><use xlink:href="#8" y="6.513"></use><use xlink:href="#10" y="8.684"></use><text x="1.002" y="12.525" class="f">▀</text><text x="3.006" y="12.525" class="g">Doing</text><text x="9.017999999999999" y="12.525" class="g">a</text><text x="11.021999999999998" y="12.525" class="g">lot</text><text x="15.029999999999998" y="12.525" class="g">of</text><text x="18.035999999999998" y="12.525" class="g">stuff...</text><text x="27.054" y="12.525" class="h">(0s)</text></svg><svg x="4480"><use xlink:href="#a"></use><use xlink:href="#2" y="0"></use><use xlink:href="#4" y="2.171"></use><use xlink:href="#6" y="4.342"></use><use xlink:href="#8" y="6.513"></use><use xlink:href="#10" y="8.684"></use><text x="1.002" y="12.525" class="f">▄</text><text x="3.006" y="12.525" class="g">Doing</text><text x="9.017999999999999" y="12.525" class="g">a</text><text x="11.021999999999998" y="12.525" class="g">lot</text><text x="15.029999999999998" y="12.525" class="g">of</text><text x="18.035999999999998" y="12.525" class="g">stuff...</text><text x="27.054" y="12.525" class="h">(0s)</text></svg><svg x="4560"><use xlink:href="#a"></use><use xlink:href="#2" y="0"></use><use xlink:href="#4" y="2.171"></use><use xlink:href="#6" y="4.342"></use><use xlink:href="#8" y="6.513"></use><use xlink:href="#10" y="8.684"></use><text x="0" y="12.525" class="f">▄</text><text x="3.006" y="12.525" class="g">Doing</text><text x="9.017999999999999" y="12.525" class="g">a</text><text x="11.021999999999998" y="12.525" class="g">lot</text><text x="15.029999999999998" y="12.525" class="g">of</text><text x="18.035999999999998" y="12.525" class="g">stuff...</text><text x="27.054" y="12.525" class="h">(1s)</text></svg><svg x="4640"><use xlink:href="#a"></use><use xlink:href="#2" y="0"></use><use xlink:href="#4" y="2.171"></use><use xlink:href="#6" y="4.342"></use><use xlink:href="#8" y="6.513"></use><use xlink:href="#10" y="8.684"></use><text x="0" y="12.525" class="f">▀</text><text x="3.006" y="12.525" class="g">Doing</text><text x="9.017999999999999" y="12.525" class="g">a</text><text x="11.021999999999998" y="12.525" class="g">lot</text><text x="15.029999999999998" y="12.525" class="g">of</text><text x="18.035999999999998" y="12.525" class="g">stuff...</text><text x="27.054" y="12.525" class="h">(1s)</text></svg><svg x="4720"><use xlink:href="#a"></use><use xlink:href="#2" y="0"></use><use xlink:href="#4" y="2.171"></use><use xlink:href="#6" y="4.342"></use><use xlink:href="#8" y="6.513"></use><use xlink:href="#10" y="8.684"></use><text x="0" y="12.525" class="f">▀</text><text x="3.006" y="12.525" class="g">It&#x27;s</text><text x="8.016" y="12.525" class="g">really</text><text x="15.029999999999998" y="12.525" class="g">muchtuff...</text><text x="27.054" y="12.525" class="h">(1s)</text></svg><svg x="4800"><use xlink:href="#a"></use><use xlink:href="#2" y="0"></use><use xlink:href="#4" y="2.171"></use><use xlink:href="#6" y="4.342"></use><use xlink:href="#8" y="6.513"></use><use xlink:href="#10" y="8.684"></use><text x="1.002" y="12.525" class="f">▀</text><text x="3.006" y="12.525" class="g">It&#x27;s</text><text x="8.016" y="12.525" class="g">really</text><text x="15.029999999999998" y="12.525" class="g">much</text><text x="20.04" y="12.525" class="h">(1s)</text><text x="24.048" y="12.525" class="g">..</text><text x="27.054" y="12.525" class="h">(1s)</text></svg><svg x="4880"><use xlink:href="#a"></use><use xlink:href="#2" y="0"></use><use xlink:href="#4" y="2.171"></use><use xlink:href="#6" y="4.342"></use><use xlink:href="#8" y="6.513"></use><use xlink:href="#10" y="8.684"></use><text x="1.002" y="12.525" class="f">▄</text><text x="3.006" y="12.525" class="g">It&#x27;s</text><text x="8.016" y="12.525" class="g">really</text><text x="15.029999999999998" y="12.525" class="g">much</text><text x="20.04" y="12.525" class="h">(1s)</text><text x="24.048" y="12.525" class="g">..</text><text x="27.054" y="12.525" class="h">(1s)</text></svg><svg x="4960"><use xlink:href="#a"></use><use xlink:href="#2" y="0"></use><use xlink:href="#4" y="2.171"></use><use xlink:href="#6" y="4.342"></use><use xlink:href="#8" y="6.513"></use><use xlink:href="#10" y="8.684"></use><text x="0" y="12.525" class="f">▄</text><text x="3.006" y="12.525" class="g">It&#x27;s</text><text x="8.016" y="12.525" class="g">really</text><text x="15.029999999999998" y="12.525" class="g">much</text><text x="20.04" y="12.525" class="h">(1s)</text><text x="24.048" y="12.525" class="g">..</text><text x="27.054" y="12.525" class="h">(1s)</text></svg><svg x="5040"><use xlink:href="#a"></use><use xlink:href="#2" y="0"></use><use xlink:href="#4" y="2.171"></use><use xlink:href="#6" y="4.342"></use><use xlink:href="#8" y="6.513"></use><use xlink:href="#10" y="8.684"></use><text x="0" y="12.525" class="f">▀</text><text x="3.006" y="12.525" class="g">It&#x27;s</text><text x="8.016" y="12.525" class="g">really</text><text x="15.029999999999998" y="12.525" class="g">much</text><text x="20.04" y="12.525" class="h">(2s)</text><text x="24.048" y="12.525" class="g">..</text><text x="27.054" y="12.525" class="h">(1s)</text></svg><svg x="5120"><use xlink:href="#a"></use><use xlink:href="#2" y="0"></use><use xlink:href="#4" y="2.171"></use><use xlink:href="#6" y="4.342"></use><use xlink:href="#8" y="6.513"></use><use xlink:href="#10" y="8.684"></use><text x="1.002" y="12.525" class="f">▀</text><text x="3.006" y="12.525" class="g">It&#x27;s</text><text x="8.016" y="12.525" class="g">really</text><text x="15.029999999999998" y="12.525" class="g">much</text><text x="20.04" y="12.525" class="h">(2s)</text><text x="24.048" y="12.525" class="g">..</text><text x="27.054" y="12.525" class="h">(1s)</text></svg><svg x="5200"><use xlink:href="#a"></use><use xlink:href="#2" y="0"></use><use xlink:href="#4" y="2.171"></use><use xlink:href="#6" y="4.342"></use><use xlink:href="#8" y="6.513"></use><use xlink:href="#10" y="8.684"></use><text x="1.002" y="12.525" class="f">▀</text><text x="3.006" y="12.525" class="g">We&#x27;re</text><text x="9.017999999999999" y="12.525" class="g">nearly</text><text x="16.032" y="12.525" class="g">done!</text><text x="21.041999999999998" y="12.525" class="h">2s)</text><text x="24.048" y="12.525" class="g">..</text><text x="27.054" y="12.525" class="h">(1s)</text></svg><svg x="5280"><use xlink:href="#a"></use><use xlink:href="#2" y="0"></use><use xlink:href="#4" y="2.171"></use><use xlink:href="#6" y="4.342"></use><use xlink:href="#8" y="6.513"></use><use xlink:href="#10" y="8.684"></use><text x="1.002" y="12.525" class="f">▄</text><text x="3.006" y="12.525" class="g">We&#x27;re</text><text x="9.017999999999999" y="12.525" class="g">nearly</text><text x="16.032" y="12.525" class="g">done!</text><text x="22.043999999999997" y="12.525" class="h">(2s)</text><text x="27.054" y="12.525" class="h">(1s)</text></svg><svg x="5360"><use xlink:href="#a"></use><use xlink:href="#2" y="0"></use><use xlink:href="#4" y="2.171"></use><use xlink:href="#6" y="4.342"></use><use xlink:href="#8" y="6.513"></use><use xlink:href="#10" y="8.684"></use><text x="0" y="12.525" class="f">▄</text><text x="3.006" y="12.525" class="g">We&#x27;re</text><text x="9.017999999999999" y="12.525" class="g">nearly</text><text x="16.032" y="12.525" class="g">done!</text><text x="22.043999999999997" y="12.525" class="h">(2s)</text><text x="27.054" y="12.525" class="h">(1s)</text></svg><svg x="5440"><use xlink:href="#a"></use><use xlink:href="#2" y="0"></use><use xlink:href="#4" y="2.171"></use><use xlink:href="#6" y="4.342"></use><use xlink:href="#8" y="6.513"></use><use xlink:href="#10" y="8.684"></use><text x="0" y="12.525" class="f">▀</text><text x="3.006" y="12.525" class="g">We&#x27;re</text><text x="9.017999999999999" y="12.525" class="g">nearly</text><text x="16.032" y="12.525" class="g">done!</text><text x="22.043999999999997" y="12.525" class="h">(2s)</text><text x="27.054" y="12.525" class="h">(1s)</text></svg><svg x="5520"><use xlink:href="#a"></use><use xlink:href="#2" y="0"></use><use xlink:href="#4" y="2.171"></use><use xlink:href="#6" y="4.342"></use><use xlink:href="#8" y="6.513"></use><use xlink:href="#10" y="8.684"></use><text x="1.002" y="12.525" class="f">▀</text><text x="3.006" y="12.525" class="g">We&#x27;re</text><text x="9.017999999999999" y="12.525" class="g">nearly</text><text x="16.032" y="12.525" class="g">done!</text><text x="22.043999999999997" y="12.525" class="h">(3s)</text><text x="27.054" y="12.525" class="h">(1s)</text></svg><svg x="5600"><use xlink:href="#a"></use><use xlink:href="#2" y="0"></use><use xlink:href="#4" y="2.171"></use><use xlink:href="#6" y="4.342"></use><use xlink:href="#8" y="6.513"></use><use xlink:href="#10" y="8.684"></use><text x="1.002" y="12.525" class="f">▄</text><text x="3.006" y="12.525" class="g">We&#x27;re</text><text x="9.017999999999999" y="12.525" class="g">nearly</text><text x="16.032" y="12.525" class="g">done!</text><text x="22.043999999999997" y="12.525" class="h">(3s)</text><text x="27.054" y="12.525" class="h">(1s)</text></svg><svg x="5680"><use xlink:href="#a"></use><use xlink:href="#2" y="0"></use><use xlink:href="#4" y="2.171"></use><use xlink:href="#6" y="4.342"></use><use xlink:href="#8" y="6.513"></use><use xlink:href="#10" y="8.684"></use></svg><svg x="5760"><use xlink:href="#a"></use><use xlink:href="#2" y="0"></use><use xlink:href="#4" y="2.171"></use><use xlink:href="#6" y="4.342"></use><use xlink:href="#8" y="6.513"></use><use xlink:href="#10" y="8.684"></use><use xlink:href="#11" y="10.855"></use></svg><svg x="5840"><use xlink:href="#a"></use><use xlink:href="#2" y="0"></use><use xlink:href="#4" y="2.171"></use><use xlink:href="#6" y="4.342"></use><use xlink:href="#8" y="6.513"></use><use xlink:href="#10" y="8.684"></use><use xlink:href="#11" y="10.855"></use><text x="0" y="16.866999999999997" class="v">Restarting</text><text x="11.021999999999998" y="16.866999999999997" class="v">animation...</text></svg></svg></g></g></svg></svg>