<svg xmlns="http://www.w3.org/2000/svg" xmlns:xlink="http://www.w3.org/1999/xlink" width="840" height="581.04"><rect width="840" height="581.04" rx="5" ry="5" class="a"></rect><svg y="0%" x="0%"><circle cx="20" cy="20" r="6" class="b"></circle><circle cx="40" cy="20" r="6" class="c"></circle><circle cx="60" cy="20" r="6" class="d"></circle></svg><svg height="521.04" viewBox="0 0 80 52.104" width="800" x="15" xmlns="http://www.w3.org/2000/svg" xmlns:xlink="http://www.w3.org/1999/xlink" y="50"><style>.e, .g, .f {
	font-family:
			'Courier New'
			Roboto,
			Helvetica,
			Arial,
			sans-serif,
			'Apple Color Emoji',
			'Segoe UI Emoji' !important;
}.a{fill:rgb(35,35,35)}.b{fill:#ff5f58}.c{fill:#ffbd2e}.d{fill:#18c132}.e{font-family:'Courier New',Monaco,Consolas,Menlo,'Bitstream Vera Sans Mono','Powerline Symbols',monospace}.f{fill:rgb(160,160,160);white-space:pre}.g{fill:rgb(255,241,0);font-weight:bold;white-space:pre}.h{fill:rgb(102,194,205)}.i{white-space:pre}.j{fill:rgb(126,231,233);white-space:pre}.k{fill:transparent}.m{animation-duration:5.291768s;animation-iteration-count:infinite;animation-name:l;animation-timing-function:steps(1,end)}@keyframes l{0%{transform:translateX(-0px)}4.6%{transform:translateX(-80px)}5.5%{transform:translateX(-160px)}100%{transform:translateX(-240px)}}</style><g font-family="'Courier New',Monaco, Consolas, Menlo, &#x27;Bitstream Vera Sans Mono&#x27;, &#x27;Powerline Symbols&#x27;, monospace" font-size="1.67" class="e"><defs><symbol id="1"><text x="0" y="1.67" class="f">#</text><text x="2.004" y="1.67" class="g">This</text><text x="7.013999999999999" y="1.67" class="g">is</text><text x="10.02" y="1.67" class="g">a</text><text x="12.024" y="1.67" class="g">section!</text></symbol><symbol id="2"><rect height="2.171" width="6" x="0" y="0" class="h"></rect><text x="0" y="1.67" class="i"> INFO </text><text x="7.013999999999999" y="1.67" class="j">And</text><text x="11.021999999999998" y="1.67" class="j">here</text><text x="16.032" y="1.67" class="j">is</text><text x="19.037999999999997" y="1.67" class="j">some</text><text x="24.048" y="1.67" class="j">text.</text></symbol><symbol id="3"><rect height="2.171" width="6" x="0" y="0" class="h"></rect><text x="0" y="1.67" class="i">      </text><text x="7.013999999999999" y="1.67" class="j">This</text><text x="12.024" y="1.67" class="j">text</text><text x="17.034" y="1.67" class="j">could</text><text x="23.045999999999996" y="1.67" class="j">be</text><text x="26.052" y="1.67" class="j">anything.</text></symbol><symbol id="4"><rect height="2.171" width="6" x="0" y="0" class="h"></rect><text x="0" y="1.67" class="i">      </text><text x="7.013999999999999" y="1.67" class="j">Basically</text><text x="17.034" y="1.67" class="j">it&#x27;s</text><text x="22.043999999999997" y="1.67" class="j">just</text><text x="27.054" y="1.67" class="j">a</text><text x="29.058" y="1.67" class="j">placeholder</text></symbol><symbol id="5"><text x="0" y="1.67" class="f">##</text><text x="3.006" y="1.67" class="g">This</text><text x="8.016" y="1.67" class="g">is</text><text x="11.021999999999998" y="1.67" class="g">another</text><text x="19.037999999999997" y="1.67" class="g">section!</text></symbol><symbol id="6"><rect height="2.171" width="6" x="0" y="0" class="h"></rect><text x="0" y="1.67" class="i"> INFO </text><text x="7.013999999999999" y="1.67" class="j">And</text><text x="11.021999999999998" y="1.67" class="j">this</text><text x="16.032" y="1.67" class="j">is</text></symbol><symbol id="7"><rect height="2.171" width="6" x="0" y="0" class="h"></rect><text x="0" y="1.67" class="i">      </text><text x="7.013999999999999" y="1.67" class="j">more</text><text x="12.024" y="1.67" class="j">placeholder</text><text x="24.048" y="1.67" class="j">text</text></symbol><symbol id="a"><rect height="24" width="80" x="0" y="0" class="k"></rect></symbol></defs><rect height="52.104" width="80" class="a"></rect><g class="m"><svg x="0" y="0" width="320"><svg x="0"><use xlink:href="#a"></use></svg><svg x="80"><use xlink:href="#a"></use></svg><svg x="160"><use xlink:href="#a"></use><use xlink:href="#1" y="2.171"></use><use xlink:href="#2" y="6.513"></use><use xlink:href="#3" y="8.684"></use><use xlink:href="#4" y="10.855"></use><use xlink:href="#5" y="15.197"></use><use xlink:href="#6" y="19.539"></use><use xlink:href="#7" y="21.71"></use></svg><svg x="240"><use xlink:href="#a"></use><use xlink:href="#1" y="2.171"></use><use xlink:href="#2" y="6.513"></use><use xlink:href="#3" y="8.684"></use><use xlink:href="#4" y="10.855"></use><use xlink:href="#5" y="15.197"></use><use xlink:href="#6" y="19.539"></use><use xlink:href="#7" y="21.71"></use><text x="0" y="27.722" class="f">Restarting</text><text x="11.021999999999998" y="27.722" class="f">animation...</text></svg></svg></g></g></svg></svg>