<svg xmlns="http://www.w3.org/2000/svg" xmlns:xlink="http://www.w3.org/1999/xlink" width="840" height="581.04"><rect width="840" height="581.04" rx="5" ry="5" class="a"></rect><svg y="0%" x="0%"><circle cx="20" cy="20" r="6" class="b"></circle><circle cx="40" cy="20" r="6" class="c"></circle><circle cx="60" cy="20" r="6" class="d"></circle></svg><svg height="521.04" viewBox="0 0 80 52.104" width="800" x="15" xmlns="http://www.w3.org/2000/svg" xmlns:xlink="http://www.w3.org/1999/xlink" y="50"><style>.e, .g, .f {
	font-family:
			'Courier New'
			Roboto,
			Helvetica,
			Arial,
			sans-serif,
			'Apple Color Emoji',
			'Segoe UI Emoji' !important;
}.a{fill:rgb(35,35,35)}.b{fill:#ff5f58}.c{fill:#ffbd2e}.d{fill:#18c132}.e{font-family:'Courier New',Monaco,Consolas,Menlo,'Bitstream Vera Sans Mono','Powerline Symbols',monospace}.f{fill:rgb(126,231,233);white-space:pre}.g{fill:rgb(0,198,255);white-space:pre}.h{fill:rgb(160,160,160);white-space:pre}.i{fill:transparent}.k{animation-duration:5.449508s;animation-iteration-count:infinite;animation-name:j;animation-timing-function:steps(1,end)}@keyframes j{0%{transform:translateX(-0px)}6%{transform:translateX(-80px)}8.2%{transform:translateX(-160px)}8.2%{transform:translateX(-240px)}100%{transform:translateX(-320px)}}</style><g font-family="'Courier New',Monaco, Consolas, Menlo, &#x27;Bitstream Vera Sans Mono&#x27;, &#x27;Powerline Symbols&#x27;, monospace" font-size="1.67" class="e"><defs><symbol id="1"><text x="0" y="1.67" class="f">A</text><text x="2.004" y="1.67" class="g">██████████</text><text x="57.114" y="1.67" class="h">10</text></symbol><symbol id="2"><text x="0" y="1.67" class="f">B</text><text x="2.004" y="1.67" class="g">█████████████████████</text><text x="57.114" y="1.67" class="h">20</text></symbol><symbol id="3"><text x="0" y="1.67" class="f">C</text><text x="2.004" y="1.67" class="g">███████████████████████████████</text><text x="57.114" y="1.67" class="h">30</text></symbol><symbol id="4"><text x="0" y="1.67" class="f">D</text><text x="2.004" y="1.67" class="g">██████████████████████████████████████████</text><text x="57.114" y="1.67" class="h">40</text></symbol><symbol id="5"><text x="0" y="1.67" class="f">E</text><text x="2.004" y="1.67" class="g">████████████████████████████████████████████████████</text><text x="57.114" y="1.67" class="h">50</text></symbol><symbol id="6"><text x="0" y="1.67" class="f">F</text><text x="2.004" y="1.67" class="g">██████████████████████████████████████████</text><text x="57.114" y="1.67" class="h">40</text></symbol><symbol id="7"><text x="0" y="1.67" class="f">G</text><text x="2.004" y="1.67" class="g">███████████████████████████████</text><text x="57.114" y="1.67" class="h">30</text></symbol><symbol id="8"><text x="0" y="1.67" class="f">H</text><text x="2.004" y="1.67" class="g">█████████████████████</text><text x="57.114" y="1.67" class="h">20</text></symbol><symbol id="9"><text x="0" y="1.67" class="f">I</text><text x="2.004" y="1.67" class="g">██████████</text><text x="57.114" y="1.67" class="h">10</text></symbol><symbol id="a"><rect height="24" width="80" x="0" y="0" class="i"></rect></symbol></defs><rect height="52.104" width="80" class="a"></rect><g class="k"><svg x="0" y="0" width="400"><svg x="0"><use xlink:href="#a"></use></svg><svg x="80"><use xlink:href="#a"></use></svg><svg x="160"><use xlink:href="#a"></use><use xlink:href="#1" y="2.171"></use><use xlink:href="#2" y="4.342"></use><use xlink:href="#3" y="6.513"></use><use xlink:href="#4" y="8.684"></use><use xlink:href="#5" y="10.855"></use><text x="0" y="14.696" class="f">F</text><text x="2.004" y="14.696" class="g">██████████████████████</text></svg><svg x="240"><use xlink:href="#a"></use><use xlink:href="#1" y="2.171"></use><use xlink:href="#2" y="4.342"></use><use xlink:href="#3" y="6.513"></use><use xlink:href="#4" y="8.684"></use><use xlink:href="#5" y="10.855"></use><use xlink:href="#6" y="13.026"></use><use xlink:href="#7" y="15.197"></use><use xlink:href="#8" y="17.368"></use><use xlink:href="#9" y="19.539"></use></svg><svg x="320"><use xlink:href="#a"></use><use xlink:href="#1" y="2.171"></use><use xlink:href="#2" y="4.342"></use><use xlink:href="#3" y="6.513"></use><use xlink:href="#4" y="8.684"></use><use xlink:href="#5" y="10.855"></use><use xlink:href="#6" y="13.026"></use><use xlink:href="#7" y="15.197"></use><use xlink:href="#8" y="17.368"></use><use xlink:href="#9" y="19.539"></use><text x="0" y="27.722" class="h">Restarting</text><text x="11.021999999999998" y="27.722" class="h">animation...</text></svg></svg></g></g></svg></svg>