<svg xmlns="http://www.w3.org/2000/svg" xmlns:xlink="http://www.w3.org/1999/xlink" width="840" height="581.04"><rect width="840" height="581.04" rx="5" ry="5" class="a"></rect><svg y="0%" x="0%"><circle cx="20" cy="20" r="6" class="b"></circle><circle cx="40" cy="20" r="6" class="c"></circle><circle cx="60" cy="20" r="6" class="d"></circle></svg><svg height="521.04" viewBox="0 0 80 52.104" width="800" x="15" xmlns="http://www.w3.org/2000/svg" xmlns:xlink="http://www.w3.org/1999/xlink" y="50"><style>.e, .g, .f {
	font-family:
			'Courier New'
			Roboto,
			Helvetica,
			Arial,
			sans-serif,
			'Apple Color Emoji',
			'Segoe UI Emoji' !important;
}.a{fill:rgb(35,35,35)}.b{fill:#ff5f58}.c{fill:#ffbd2e}.d{fill:#18c132}.e{font-family:'Courier New',Monaco,Consolas,Menlo,'Bitstream Vera Sans Mono','Powerline Symbols',monospace}.f{fill:rgb(126,231,233);white-space:pre}.g{fill:rgb(160,160,160);white-space:pre}.h{fill:rgb(234,89,246);white-space:pre}.i{fill:rgb(255,0,4);white-space:pre}.j{fill:rgb(234,89,246);font-weight:bold;white-space:pre}.k{fill:rgb(124,255,0);white-space:pre}.l{fill:rgb(102,194,205)}.m{white-space:pre}.n{fill:transparent}.o{fill:rgb(160,160,160)}.q{animation-duration:15.219119s;animation-iteration-count:infinite;animation-name:p;animation-timing-function:steps(1,end)}@keyframes p{0%{transform:translateX(-0px)}0%{transform:translateX(-80px)}0%{transform:translateX(-160px)}6.6%{transform:translateX(-240px)}7.3%{transform:translateX(-320px)}7.3%{transform:translateX(-400px)}10.6%{transform:translateX(-480px)}13.8%{transform:translateX(-560px)}13.8%{transform:translateX(-640px)}13.8%{transform:translateX(-720px)}13.8%{transform:translateX(-800px)}14.5%{transform:translateX(-880px)}14.5%{transform:translateX(-960px)}17.8%{transform:translateX(-1040px)}17.8%{transform:translateX(-1120px)}21.1%{transform:translateX(-1200px)}21.7%{transform:translateX(-1280px)}21.7%{transform:translateX(-1360px)}25%{transform:translateX(-1440px)}28.3%{transform:translateX(-1520px)}28.3%{transform:translateX(-1600px)}28.3%{transform:translateX(-1680px)}28.3%{transform:translateX(-1760px)}28.3%{transform:translateX(-1840px)}28.3%{transform:translateX(-1920px)}29%{transform:translateX(-2000px)}29%{transform:translateX(-2080px)}32.3%{transform:translateX(-2160px)}35.5%{transform:translateX(-2240px)}35.6%{transform:translateX(-2320px)}36.2%{transform:translateX(-2400px)}39.5%{transform:translateX(-2480px)}39.5%{transform:translateX(-2560px)}39.5%{transform:translateX(-2640px)}49.4%{transform:translateX(-2720px)}49.4%{transform:translateX(-2800px)}49.4%{transform:translateX(-2880px)}49.4%{transform:translateX(-2960px)}49.4%{transform:translateX(-3040px)}50.4%{transform:translateX(-3120px)}51.3%{transform:translateX(-3200px)}51.3%{transform:translateX(-3280px)}52.3%{transform:translateX(-3360px)}53.3%{transform:translateX(-3440px)}53.3%{transform:translateX(-3520px)}60.9%{transform:translateX(-3600px)}60.9%{transform:translateX(-3680px)}62.9%{transform:translateX(-3760px)}62.9%{transform:translateX(-3840px)}64.8%{transform:translateX(-3920px)}64.8%{transform:translateX(-4000px)}64.8%{transform:translateX(-4080px)}64.8%{transform:translateX(-4160px)}64.8%{transform:translateX(-4240px)}67.1%{transform:translateX(-4320px)}67.1%{transform:translateX(-4400px)}100%{transform:translateX(-4480px)}}</style><g font-family="'Courier New',Monaco, Consolas, Menlo, &#x27;Bitstream Vera Sans Mono&#x27;, &#x27;Powerline Symbols&#x27;, monospace" font-size="1.67" class="e"><defs><symbol id="1"><text x="0" y="1.67" class="f">Please</text><text x="7.013999999999999" y="1.67" class="f">select</text><text x="14.027999999999999" y="1.67" class="f">your</text><text x="19.037999999999997" y="1.67" class="f">options</text><text x="26.052" y="1.67" class="g">:</text></symbol><symbol id="2"><text x="0" y="1.67" class="h">&gt;</text><text x="2.004" y="1.67" class="g">[</text><text x="3.006" y="1.67" class="i">✗</text><text x="4.008" y="1.67" class="g">]</text><text x="6.012" y="1.67" class="g">Option</text><text x="13.026" y="1.67" class="g">0</text></symbol><symbol id="3"><text x="2.004" y="1.67" class="g">[</text><text x="3.006" y="1.67" class="i">✗</text><text x="4.008" y="1.67" class="g">]</text><text x="6.012" y="1.67" class="g">Option</text><text x="13.026" y="1.67" class="g">1</text></symbol><symbol id="4"><text x="2.004" y="1.67" class="g">[</text><text x="3.006" y="1.67" class="i">✗</text><text x="4.008" y="1.67" class="g">]</text><text x="6.012" y="1.67" class="g">Option</text><text x="13.026" y="1.67" class="g">2</text></symbol><symbol id="5"><text x="2.004" y="1.67" class="g">[</text><text x="3.006" y="1.67" class="i">✗</text><text x="4.008" y="1.67" class="g">]</text><text x="6.012" y="1.67" class="g">Option</text><text x="13.026" y="1.67" class="g">3</text></symbol><symbol id="6"><text x="2.004" y="1.67" class="g">[</text><text x="3.006" y="1.67" class="i">✗</text><text x="4.008" y="1.67" class="g">]</text><text x="6.012" y="1.67" class="g">Option</text><text x="13.026" y="1.67" class="g">4</text></symbol><symbol id="7"><text x="0" y="1.67" class="h">enter:</text><text x="7.013999999999999" y="1.67" class="j">select</text><text x="14.027999999999999" y="1.67" class="h">|</text><text x="16.032" y="1.67" class="h">tab:</text><text x="21.041999999999998" y="1.67" class="j">confirm</text><text x="29.058" y="1.67" class="h">|</text><text x="31.061999999999998" y="1.67" class="h">left:</text><text x="37.074" y="1.67" class="j">none</text><text x="42.083999999999996" y="1.67" class="h">|</text><text x="44.087999999999994" y="1.67" class="h">right:</text><text x="51.102" y="1.67" class="j">all</text><text x="54.108" y="1.67" class="h">|</text><text x="56.111999999999995" y="1.67" class="h">type</text><text x="61.12199999999999" y="1.67" class="h">to</text><text x="64.128" y="1.67" class="j">filter</text></symbol><symbol id="8"><text x="2.004" y="1.67" class="g">[</text><text x="3.006" y="1.67" class="i">✗</text><text x="4.008" y="1.67" class="g">]</text><text x="6.012" y="1.67" class="g">Option</text><text x="13.026" y="1.67" class="g">0</text></symbol><symbol id="9"><text x="2.004" y="1.67" class="g">[</text><text x="3.006" y="1.67" class="k">✓</text><text x="4.008" y="1.67" class="g">]</text><text x="6.012" y="1.67" class="g">Option</text><text x="13.026" y="1.67" class="g">1</text></symbol><symbol id="10"><text x="0" y="1.67" class="h">&gt;</text><text x="2.004" y="1.67" class="g">[</text><text x="3.006" y="1.67" class="i">✗</text><text x="4.008" y="1.67" class="g">]</text><text x="6.012" y="1.67" class="g">Option</text><text x="13.026" y="1.67" class="g">3</text></symbol><symbol id="11"><text x="2.004" y="1.67" class="g">[</text><text x="3.006" y="1.67" class="k">✓</text><text x="4.008" y="1.67" class="g">]</text><text x="6.012" y="1.67" class="g">Option</text><text x="13.026" y="1.67" class="g">3</text></symbol><symbol id="12"><text x="2.004" y="1.67" class="g">[</text><text x="3.006" y="1.67" class="k">✓</text><text x="4.008" y="1.67" class="g">]</text><text x="6.012" y="1.67" class="g">Option</text><text x="13.026" y="1.67" class="g">5</text></symbol><symbol id="13"><text x="2.004" y="1.67" class="g">[</text><text x="3.006" y="1.67" class="i">✗</text><text x="4.008" y="1.67" class="g">]</text><text x="6.012" y="1.67" class="g">Option</text><text x="13.026" y="1.67" class="g">6</text></symbol><symbol id="14"><text x="0" y="1.67" class="h">&gt;</text><text x="2.004" y="1.67" class="g">[</text><text x="3.006" y="1.67" class="i">✗</text><text x="4.008" y="1.67" class="g">]</text><text x="6.012" y="1.67" class="g">Option</text><text x="13.026" y="1.67" class="g">7</text></symbol><symbol id="15"><text x="2.004" y="1.67" class="g">[</text><text x="3.006" y="1.67" class="k">✓</text><text x="4.008" y="1.67" class="g">]</text><text x="6.012" y="1.67" class="g">Option</text><text x="13.026" y="1.67" class="g">7</text></symbol><symbol id="16"><text x="2.004" y="1.67" class="g">[</text><text x="3.006" y="1.67" class="i">✗</text><text x="4.008" y="1.67" class="g">]</text><text x="6.012" y="1.67" class="g">Option</text><text x="13.026" y="1.67" class="g">8</text></symbol><symbol id="17"><text x="2.004" y="1.67" class="g">[</text><text x="3.006" y="1.67" class="k">✓</text><text x="4.008" y="1.67" class="g">]</text><text x="6.012" y="1.67" class="g">Option</text><text x="13.026" y="1.67" class="g">9</text></symbol><symbol id="18"><text x="0" y="1.67" class="h">&gt;</text><text x="2.004" y="1.67" class="g">[</text><text x="3.006" y="1.67" class="i">✗</text><text x="4.008" y="1.67" class="g">]</text><text x="6.012" y="1.67" class="g">Option</text><text x="13.026" y="1.67" class="g">10</text></symbol><symbol id="19"><text x="0" y="1.67" class="f">Please</text><text x="7.013999999999999" y="1.67" class="f">select</text><text x="14.027999999999999" y="1.67" class="f">your</text><text x="19.037999999999997" y="1.67" class="f">options</text><text x="26.052" y="1.67" class="g">:</text><text x="28.055999999999997" y="1.67" class="g">f</text></symbol><symbol id="20"><text x="0" y="1.67" class="h">&gt;</text><text x="2.004" y="1.67" class="g">[</text><text x="3.006" y="1.67" class="i">✗</text><text x="4.008" y="1.67" class="g">]</text><text x="6.012" y="1.67" class="g">You</text><text x="10.02" y="1.67" class="g">can</text><text x="14.027999999999999" y="1.67" class="g">use</text><text x="18.035999999999998" y="1.67" class="g">fuzzy</text><text x="24.048" y="1.67" class="g">searching</text><text x="34.068" y="1.67" class="g">(0)</text></symbol><symbol id="21"><text x="2.004" y="1.67" class="g">[</text><text x="3.006" y="1.67" class="i">✗</text><text x="4.008" y="1.67" class="g">]</text><text x="6.012" y="1.67" class="g">You</text><text x="10.02" y="1.67" class="g">can</text><text x="14.027999999999999" y="1.67" class="g">use</text><text x="18.035999999999998" y="1.67" class="g">fuzzy</text><text x="24.048" y="1.67" class="g">searching</text><text x="34.068" y="1.67" class="g">(1)</text></symbol><symbol id="22"><text x="2.004" y="1.67" class="g">[</text><text x="3.006" y="1.67" class="i">✗</text><text x="4.008" y="1.67" class="g">]</text><text x="6.012" y="1.67" class="g">You</text><text x="10.02" y="1.67" class="g">can</text><text x="14.027999999999999" y="1.67" class="g">use</text><text x="18.035999999999998" y="1.67" class="g">fuzzy</text><text x="24.048" y="1.67" class="g">searching</text><text x="34.068" y="1.67" class="g">(2)</text></symbol><symbol id="23"><text x="2.004" y="1.67" class="g">[</text><text x="3.006" y="1.67" class="i">✗</text><text x="4.008" y="1.67" class="g">]</text><text x="6.012" y="1.67" class="g">You</text><text x="10.02" y="1.67" class="g">can</text><text x="14.027999999999999" y="1.67" class="g">use</text><text x="18.035999999999998" y="1.67" class="g">fuzzy</text><text x="24.048" y="1.67" class="g">searching</text><text x="34.068" y="1.67" class="g">(3)</text></symbol><symbol id="24"><text x="2.004" y="1.67" class="g">[</text><text x="3.006" y="1.67" class="i">✗</text><text x="4.008" y="1.67" class="g">]</text><text x="6.012" y="1.67" class="g">You</text><text x="10.02" y="1.67" class="g">can</text><text x="14.027999999999999" y="1.67" class="g">use</text><text x="18.035999999999998" y="1.67" class="g">fuzzy</text><text x="24.048" y="1.67" class="g">searching</text><text x="34.068" y="1.67" class="g">(4)</text></symbol><symbol id="25"><text x="0" y="1.67" class="f">Please</text><text x="7.013999999999999" y="1.67" class="f">select</text><text x="14.027999999999999" y="1.67" class="f">your</text><text x="19.037999999999997" y="1.67" class="f">options</text><text x="26.052" y="1.67" class="g">:</text><text x="28.055999999999997" y="1.67" class="g">fu</text></symbol><symbol id="26"><text x="0" y="1.67" class="f">Please</text><text x="7.013999999999999" y="1.67" class="f">select</text><text x="14.027999999999999" y="1.67" class="f">your</text><text x="19.037999999999997" y="1.67" class="f">options</text><text x="26.052" y="1.67" class="g">:</text><text x="28.055999999999997" y="1.67" class="g">fuzz</text></symbol><symbol id="27"><text x="0" y="1.67" class="f">Please</text><text x="7.013999999999999" y="1.67" class="f">select</text><text x="14.027999999999999" y="1.67" class="f">your</text><text x="19.037999999999997" y="1.67" class="f">options</text><text x="26.052" y="1.67" class="g">:</text><text x="28.055999999999997" y="1.67" class="g">fuzzy</text></symbol><symbol id="28"><text x="2.004" y="1.67" class="g">[</text><text x="3.006" y="1.67" class="i">✗</text><text x="4.008" y="1.67" class="g">]</text><text x="6.012" y="1.67" class="g">You</text><text x="10.02" y="1.67" class="g">can</text><text x="14.027999999999999" y="1.67" class="g">use</text><text x="18.035999999999998" y="1.67" class="g">fuzzy</text><text x="24.048" y="1.67" class="g">searching</text><text x="34.068" y="1.67" class="g">(0)</text></symbol><symbol id="29"><text x="0" y="1.67" class="h">&gt;</text><text x="2.004" y="1.67" class="g">[</text><text x="3.006" y="1.67" class="i">✗</text><text x="4.008" y="1.67" class="g">]</text><text x="6.012" y="1.67" class="g">You</text><text x="10.02" y="1.67" class="g">can</text><text x="14.027999999999999" y="1.67" class="g">use</text><text x="18.035999999999998" y="1.67" class="g">fuzzy</text><text x="24.048" y="1.67" class="g">searching</text><text x="34.068" y="1.67" class="g">(1)</text></symbol><symbol id="30"><text x="0" y="1.67" class="h">&gt;</text><text x="2.004" y="1.67" class="g">[</text><text x="3.006" y="1.67" class="k">✓</text><text x="4.008" y="1.67" class="g">]</text><text x="6.012" y="1.67" class="g">You</text><text x="10.02" y="1.67" class="g">can</text><text x="14.027999999999999" y="1.67" class="g">use</text><text x="18.035999999999998" y="1.67" class="g">fuzzy</text><text x="24.048" y="1.67" class="g">searching</text><text x="34.068" y="1.67" class="g">(2)</text></symbol><symbol id="31"><text x="2.004" y="1.67" class="h">&gt;</text><text x="4.008" y="1.67" class="g">Option</text><text x="11.021999999999998" y="1.67" class="g">1</text></symbol><symbol id="32"><text x="2.004" y="1.67" class="h">&gt;</text><text x="4.008" y="1.67" class="g">Option</text><text x="11.021999999999998" y="1.67" class="g">3</text></symbol><symbol id="33"><text x="2.004" y="1.67" class="h">&gt;</text><text x="4.008" y="1.67" class="g">Option</text><text x="11.021999999999998" y="1.67" class="g">5</text></symbol><symbol id="34"><text x="2.004" y="1.67" class="h">&gt;</text><text x="4.008" y="1.67" class="g">Option</text><text x="11.021999999999998" y="1.67" class="g">7</text></symbol><symbol id="35"><text x="2.004" y="1.67" class="h">&gt;</text><text x="4.008" y="1.67" class="g">Option</text><text x="11.021999999999998" y="1.67" class="g">9</text></symbol><symbol id="36"><text x="2.004" y="1.67" class="h">&gt;</text><text x="4.008" y="1.67" class="g">You</text><text x="8.016" y="1.67" class="g">can</text><text x="12.024" y="1.67" class="g">use</text><text x="16.032" y="1.67" class="g">fuzzy</text><text x="22.043999999999997" y="1.67" class="g">searching</text><text x="32.064" y="1.67" class="g">(2)</text></symbol><symbol id="37"><rect height="2.171" width="6" x="0" y="0" class="l"></rect><text x="0" y="1.67" class="m"> INFO </text><text x="7.013999999999999" y="1.67" class="f">Selected</text><text x="16.032" y="1.67" class="f">options:</text><text x="25.05" y="1.67" class="k">[Option</text><text x="33.065999999999995" y="1.67" class="k">1</text><text x="35.06999999999999" y="1.67" class="k">Option</text><text x="42.083999999999996" y="1.67" class="k">3</text><text x="44.087999999999994" y="1.67" class="k">Option</text><text x="51.102" y="1.67" class="k">5</text><text x="53.105999999999995" y="1.67" class="k">Option</text><text x="60.11999999999999" y="1.67" class="k">7</text><text x="62.123999999999995" y="1.67" class="k">Option</text><text x="69.13799999999999" y="1.67" class="k">9</text><text x="71.142" y="1.67" class="k">You</text><text x="75.14999999999999" y="1.67" class="k">can</text><text x="79.158" y="1.67" class="k">u</text></symbol><symbol id="38"><text x="0" y="1.67" class="k">se</text><text x="3.006" y="1.67" class="k">fuzzy</text><text x="9.017999999999999" y="1.67" class="k">searching</text><text x="19.037999999999997" y="1.67" class="k">(2)]</text></symbol><symbol id="a"><rect height="24" width="80" x="0" y="0" class="n"></rect></symbol><symbol id="b"><rect height="2.171" width="1.1022" class="o"></rect></symbol></defs><rect height="52.104" width="80" class="a"></rect><g class="q"><svg x="0" y="0" width="4560"><svg x="0"><use xlink:href="#a"></use><use xlink:href="#b" x="-0.0040000000000000036" y="0"></use></svg><svg x="80"><use xlink:href="#a"></use><use xlink:href="#b" x="13.996" y="6.4879999999999995"></use><use xlink:href="#1" y="0"></use><use xlink:href="#2" y="2.171"></use><use xlink:href="#3" y="4.342"></use><use xlink:href="#4" y="6.513"></use></svg><svg x="160"><use xlink:href="#a"></use><use xlink:href="#1" y="0"></use><use xlink:href="#2" y="2.171"></use><use xlink:href="#3" y="4.342"></use><use xlink:href="#4" y="6.513"></use><use xlink:href="#5" y="8.684"></use><use xlink:href="#6" y="10.855"></use><use xlink:href="#7" y="13.026"></use></svg><svg x="240"><use xlink:href="#a"></use><use xlink:href="#1" y="0"></use><use xlink:href="#8" y="2.171"></use><text x="0" y="6.012" class="h">&gt;</text><text x="2.004" y="6.012" class="g">[</text><text x="3.006" y="6.012" class="i">✗</text><text x="4.008" y="6.012" class="g">]</text><text x="6.012" y="6.012" class="g">Option</text><text x="13.026" y="6.012" class="g">1</text><use xlink:href="#4" y="6.513"></use><use xlink:href="#5" y="8.684"></use><use xlink:href="#6" y="10.855"></use><use xlink:href="#7" y="13.026"></use></svg><svg x="320"><use xlink:href="#a"></use><use xlink:href="#1" y="0"></use><use xlink:href="#8" y="2.171"></use></svg><svg x="400"><use xlink:href="#a"></use><use xlink:href="#1" y="0"></use><use xlink:href="#8" y="2.171"></use><text x="0" y="6.012" class="h">&gt;</text><text x="2.004" y="6.012" class="g">[</text><text x="3.006" y="6.012" class="k">✓</text><text x="4.008" y="6.012" class="g">]</text><text x="6.012" y="6.012" class="g">Option</text><text x="13.026" y="6.012" class="g">1</text><use xlink:href="#4" y="6.513"></use><use xlink:href="#5" y="8.684"></use><use xlink:href="#6" y="10.855"></use><use xlink:href="#7" y="13.026"></use></svg><svg x="480"><use xlink:href="#a"></use><use xlink:href="#1" y="0"></use><use xlink:href="#8" y="2.171"></use><use xlink:href="#9" y="4.342"></use><text x="0" y="8.183" class="h">&gt;</text><text x="2.004" y="8.183" class="g">[</text><text x="3.006" y="8.183" class="i">✗</text><text x="4.008" y="8.183" class="g">]</text><text x="6.012" y="8.183" class="g">Option</text><text x="13.026" y="8.183" class="g">2</text><use xlink:href="#5" y="8.684"></use><use xlink:href="#6" y="10.855"></use><use xlink:href="#7" y="13.026"></use></svg><svg x="560"><use xlink:href="#a"></use><use xlink:href="#1" y="0"></use></svg><svg x="640"><use xlink:href="#a"></use><use xlink:href="#1" y="0"></use><use xlink:href="#8" y="2.171"></use><use xlink:href="#9" y="4.342"></use><use xlink:href="#4" y="6.513"></use><use xlink:href="#10" y="8.684"></use></svg><svg x="720"><use xlink:href="#a"></use><use xlink:href="#1" y="0"></use><use xlink:href="#8" y="2.171"></use><use xlink:href="#9" y="4.342"></use><use xlink:href="#4" y="6.513"></use><use xlink:href="#10" y="8.684"></use><use xlink:href="#6" y="10.855"></use></svg><svg x="800"><use xlink:href="#a"></use><use xlink:href="#1" y="0"></use><use xlink:href="#8" y="2.171"></use><use xlink:href="#9" y="4.342"></use><use xlink:href="#4" y="6.513"></use><use xlink:href="#10" y="8.684"></use><use xlink:href="#6" y="10.855"></use><use xlink:href="#7" y="13.026"></use></svg><svg x="880"><use xlink:href="#a"></use><use xlink:href="#1" y="0"></use><use xlink:href="#8" y="2.171"></use><use xlink:href="#9" y="4.342"></use><use xlink:href="#4" y="6.513"></use></svg><svg x="960"><use xlink:href="#a"></use><use xlink:href="#1" y="0"></use><use xlink:href="#8" y="2.171"></use><use xlink:href="#9" y="4.342"></use><use xlink:href="#4" y="6.513"></use><text x="0" y="10.354" class="h">&gt;</text><text x="2.004" y="10.354" class="g">[</text><text x="3.006" y="10.354" class="k">✓</text><text x="4.008" y="10.354" class="g">]</text><text x="6.012" y="10.354" class="g">Option</text><text x="13.026" y="10.354" class="g">3</text><use xlink:href="#6" y="10.855"></use><use xlink:href="#7" y="13.026"></use></svg><svg x="1040"><use xlink:href="#a"></use><use xlink:href="#1" y="0"></use><use xlink:href="#8" y="2.171"></use></svg><svg x="1120"><use xlink:href="#a"></use><use xlink:href="#1" y="0"></use><use xlink:href="#8" y="2.171"></use><use xlink:href="#9" y="4.342"></use><use xlink:href="#4" y="6.513"></use><use xlink:href="#11" y="8.684"></use><text x="0" y="12.525" class="h">&gt;</text><text x="2.004" y="12.525" class="g">[</text><text x="3.006" y="12.525" class="i">✗</text><text x="4.008" y="12.525" class="g">]</text><text x="6.012" y="12.525" class="g">Option</text><text x="13.026" y="12.525" class="g">4</text><use xlink:href="#7" y="13.026"></use></svg><svg x="1200"><use xlink:href="#a"></use><use xlink:href="#1" y="0"></use><use xlink:href="#9" y="2.171"></use><use xlink:href="#4" y="4.342"></use><use xlink:href="#11" y="6.513"></use><use xlink:href="#6" y="8.684"></use><text x="0" y="12.525" class="h">&gt;</text><text x="2.004" y="12.525" class="g">[</text><text x="3.006" y="12.525" class="i">✗</text><text x="4.008" y="12.525" class="g">]</text><text x="6.012" y="12.525" class="g">Option</text><text x="13.026" y="12.525" class="g">5</text><use xlink:href="#7" y="13.026"></use></svg><svg x="1280"><use xlink:href="#a"></use><use xlink:href="#1" y="0"></use><use xlink:href="#9" y="2.171"></use><use xlink:href="#4" y="4.342"></use><use xlink:href="#11" y="6.513"></use></svg><svg x="1360"><use xlink:href="#a"></use><use xlink:href="#1" y="0"></use><use xlink:href="#9" y="2.171"></use><use xlink:href="#4" y="4.342"></use><use xlink:href="#11" y="6.513"></use><use xlink:href="#6" y="8.684"></use><text x="0" y="12.525" class="h">&gt;</text><text x="2.004" y="12.525" class="g">[</text><text x="3.006" y="12.525" class="k">✓</text><text x="4.008" y="12.525" class="g">]</text><text x="6.012" y="12.525" class="g">Option</text><text x="13.026" y="12.525" class="g">5</text><use xlink:href="#7" y="13.026"></use></svg><svg x="1440"><use xlink:href="#a"></use><use xlink:href="#1" y="0"></use><use xlink:href="#4" y="2.171"></use><use xlink:href="#11" y="4.342"></use><use xlink:href="#6" y="6.513"></use><use xlink:href="#12" y="8.684"></use><text x="0" y="12.525" class="h">&gt;</text><text x="2.004" y="12.525" class="g">[</text><text x="3.006" y="12.525" class="i">✗</text><text x="4.008" y="12.525" class="g">]</text><text x="6.012" y="12.525" class="g">Option</text><text x="13.026" y="12.525" class="g">6</text><use xlink:href="#7" y="13.026"></use></svg><svg x="1520"><use xlink:href="#a"></use><use xlink:href="#1" y="0"></use><use xlink:href="#4" y="2.171"></use><use xlink:href="#11" y="4.342"></use><use xlink:href="#6" y="6.513"></use><use xlink:href="#12" y="8.684"></use></svg><svg x="1600"><use xlink:href="#a"></use></svg><svg x="1680"><use xlink:href="#a"></use><use xlink:href="#1" y="0"></use><use xlink:href="#11" y="2.171"></use></svg><svg x="1760"><use xlink:href="#a"></use><use xlink:href="#1" y="0"></use><use xlink:href="#11" y="2.171"></use><use xlink:href="#6" y="4.342"></use></svg><svg x="1840"><use xlink:href="#a"></use><use xlink:href="#1" y="0"></use><use xlink:href="#11" y="2.171"></use><use xlink:href="#6" y="4.342"></use><use xlink:href="#12" y="6.513"></use><use xlink:href="#13" y="8.684"></use><use xlink:href="#14" y="10.855"></use><use xlink:href="#7" y="13.026"></use></svg><svg x="1920"><use xlink:href="#a"></use><use xlink:href="#1" y="0"></use><use xlink:href="#11" y="2.171"></use><use xlink:href="#6" y="4.342"></use><use xlink:href="#12" y="6.513"></use><use xlink:href="#13" y="8.684"></use><use xlink:href="#14" y="10.855"></use><use xlink:href="#7" y="13.026"></use></svg><svg x="2000"><use xlink:href="#a"></use><use xlink:href="#1" y="0"></use><use xlink:href="#11" y="2.171"></use><use xlink:href="#6" y="4.342"></use><use xlink:href="#12" y="6.513"></use><use xlink:href="#13" y="8.684"></use></svg><svg x="2080"><use xlink:href="#a"></use><use xlink:href="#1" y="0"></use><use xlink:href="#11" y="2.171"></use><use xlink:href="#6" y="4.342"></use><use xlink:href="#12" y="6.513"></use><use xlink:href="#13" y="8.684"></use><text x="0" y="12.525" class="h">&gt;</text><text x="2.004" y="12.525" class="g">[</text><text x="3.006" y="12.525" class="k">✓</text><text x="4.008" y="12.525" class="g">]</text><text x="6.012" y="12.525" class="g">Option</text><text x="13.026" y="12.525" class="g">7</text><use xlink:href="#7" y="13.026"></use></svg><svg x="2160"><use xlink:href="#a"></use><use xlink:href="#1" y="0"></use><use xlink:href="#6" y="2.171"></use><use xlink:href="#12" y="4.342"></use><use xlink:href="#13" y="6.513"></use><use xlink:href="#15" y="8.684"></use><text x="0" y="12.525" class="h">&gt;</text><text x="2.004" y="12.525" class="g">[</text><text x="3.006" y="12.525" class="i">✗</text><text x="4.008" y="12.525" class="g">]</text><text x="6.012" y="12.525" class="g">Option</text><text x="13.026" y="12.525" class="g">8</text><use xlink:href="#7" y="13.026"></use></svg><svg x="2240"><use xlink:href="#a"></use><use xlink:href="#1" y="0"></use><use xlink:href="#6" y="2.171"></use><use xlink:href="#12" y="4.342"></use><use xlink:href="#13" y="6.513"></use><use xlink:href="#15" y="8.684"></use></svg><svg x="2320"><use xlink:href="#a"></use><use xlink:href="#1" y="0"></use><use xlink:href="#12" y="2.171"></use><use xlink:href="#13" y="4.342"></use><use xlink:href="#15" y="6.513"></use><use xlink:href="#16" y="8.684"></use><text x="0" y="12.525" class="h">&gt;</text><text x="2.004" y="12.525" class="g">[</text><text x="3.006" y="12.525" class="i">✗</text><text x="4.008" y="12.525" class="g">]</text><text x="6.012" y="12.525" class="g">Option</text><text x="13.026" y="12.525" class="g">9</text><use xlink:href="#7" y="13.026"></use></svg><svg x="2400"><use xlink:href="#a"></use><use xlink:href="#1" y="0"></use><use xlink:href="#12" y="2.171"></use><use xlink:href="#13" y="4.342"></use><use xlink:href="#15" y="6.513"></use><use xlink:href="#16" y="8.684"></use><text x="0" y="12.525" class="h">&gt;</text><text x="2.004" y="12.525" class="g">[</text><text x="3.006" y="12.525" class="k">✓</text><text x="4.008" y="12.525" class="g">]</text><text x="6.012" y="12.525" class="g">Option</text><text x="13.026" y="12.525" class="g">9</text><use xlink:href="#7" y="13.026"></use></svg><svg x="2480"><use xlink:href="#a"></use><use xlink:href="#1" y="0"></use></svg><svg x="2560"><use xlink:href="#a"></use><use xlink:href="#1" y="0"></use><use xlink:href="#13" y="2.171"></use><use xlink:href="#15" y="4.342"></use><use xlink:href="#16" y="6.513"></use><use xlink:href="#17" y="8.684"></use><use xlink:href="#18" y="10.855"></use></svg><svg x="2640"><use xlink:href="#a"></use><use xlink:href="#1" y="0"></use><use xlink:href="#13" y="2.171"></use><use xlink:href="#15" y="4.342"></use><use xlink:href="#16" y="6.513"></use><use xlink:href="#17" y="8.684"></use><use xlink:href="#18" y="10.855"></use><use xlink:href="#7" y="13.026"></use></svg><svg x="2720"><use xlink:href="#a"></use><use xlink:href="#1" y="0"></use><use xlink:href="#13" y="2.171"></use><use xlink:href="#15" y="4.342"></use><use xlink:href="#16" y="6.513"></use></svg><svg x="2800"><use xlink:href="#a"></use><use xlink:href="#19" y="0"></use><use xlink:href="#20" y="2.171"></use></svg><svg x="2880"><use xlink:href="#a"></use><use xlink:href="#19" y="0"></use><use xlink:href="#20" y="2.171"></use><use xlink:href="#21" y="4.342"></use><use xlink:href="#22" y="6.513"></use></svg><svg x="2960"><use xlink:href="#a"></use><use xlink:href="#19" y="0"></use><use xlink:href="#20" y="2.171"></use><use xlink:href="#21" y="4.342"></use><use xlink:href="#22" y="6.513"></use><use xlink:href="#23" y="8.684"></use><use xlink:href="#24" y="10.855"></use></svg><svg x="3040"><use xlink:href="#a"></use><use xlink:href="#19" y="0"></use><use xlink:href="#20" y="2.171"></use><use xlink:href="#21" y="4.342"></use><use xlink:href="#22" y="6.513"></use><use xlink:href="#23" y="8.684"></use><use xlink:href="#24" y="10.855"></use><use xlink:href="#7" y="13.026"></use></svg><svg x="3120"><use xlink:href="#a"></use><use xlink:href="#25" y="0"></use><use xlink:href="#20" y="2.171"></use><use xlink:href="#21" y="4.342"></use><use xlink:href="#22" y="6.513"></use><use xlink:href="#23" y="8.684"></use><use xlink:href="#24" y="10.855"></use><use xlink:href="#7" y="13.026"></use></svg><svg x="3200"><use xlink:href="#a"></use><use xlink:href="#25" y="0"></use><use xlink:href="#20" y="2.171"></use><use xlink:href="#21" y="4.342"></use><use xlink:href="#22" y="6.513"></use><use xlink:href="#23" y="8.684"></use></svg><svg x="3280"><use xlink:href="#a"></use><text x="0" y="1.67" class="f">Please</text><text x="7.013999999999999" y="1.67" class="f">select</text><text x="14.027999999999999" y="1.67" class="f">your</text><text x="19.037999999999997" y="1.67" class="f">options</text><text x="26.052" y="1.67" class="g">:</text><text x="28.055999999999997" y="1.67" class="g">fuz</text><use xlink:href="#20" y="2.171"></use><use xlink:href="#21" y="4.342"></use><use xlink:href="#22" y="6.513"></use><use xlink:href="#23" y="8.684"></use><use xlink:href="#24" y="10.855"></use><use xlink:href="#7" y="13.026"></use></svg><svg x="3360"><use xlink:href="#a"></use><use xlink:href="#26" y="0"></use><use xlink:href="#20" y="2.171"></use><use xlink:href="#21" y="4.342"></use><use xlink:href="#22" y="6.513"></use><use xlink:href="#23" y="8.684"></use><use xlink:href="#24" y="10.855"></use><use xlink:href="#7" y="13.026"></use></svg><svg x="3440"><use xlink:href="#a"></use><use xlink:href="#26" y="0"></use><use xlink:href="#20" y="2.171"></use><use xlink:href="#21" y="4.342"></use><use xlink:href="#22" y="6.513"></use><use xlink:href="#23" y="8.684"></use></svg><svg x="3520"><use xlink:href="#a"></use><use xlink:href="#27" y="0"></use><use xlink:href="#20" y="2.171"></use><use xlink:href="#21" y="4.342"></use><use xlink:href="#22" y="6.513"></use><use xlink:href="#23" y="8.684"></use><use xlink:href="#24" y="10.855"></use><use xlink:href="#7" y="13.026"></use></svg><svg x="3600"><use xlink:href="#a"></use><use xlink:href="#27" y="0"></use><use xlink:href="#20" y="2.171"></use><use xlink:href="#21" y="4.342"></use><use xlink:href="#22" y="6.513"></use></svg><svg x="3680"><use xlink:href="#a"></use><use xlink:href="#27" y="0"></use><use xlink:href="#28" y="2.171"></use><use xlink:href="#29" y="4.342"></use><use xlink:href="#22" y="6.513"></use><use xlink:href="#23" y="8.684"></use><use xlink:href="#24" y="10.855"></use><use xlink:href="#7" y="13.026"></use></svg><svg x="3760"><use xlink:href="#a"></use><use xlink:href="#27" y="0"></use><use xlink:href="#28" y="2.171"></use><use xlink:href="#29" y="4.342"></use></svg><svg x="3840"><use xlink:href="#a"></use><use xlink:href="#27" y="0"></use><use xlink:href="#28" y="2.171"></use><use xlink:href="#21" y="4.342"></use><text x="0" y="8.183" class="h">&gt;</text><text x="2.004" y="8.183" class="g">[</text><text x="3.006" y="8.183" class="i">✗</text><text x="4.008" y="8.183" class="g">]</text><text x="6.012" y="8.183" class="g">You</text><text x="10.02" y="8.183" class="g">can</text><text x="14.027999999999999" y="8.183" class="g">use</text><text x="18.035999999999998" y="8.183" class="g">fuzzy</text><text x="24.048" y="8.183" class="g">searching</text><text x="34.068" y="8.183" class="g">(2)</text><use xlink:href="#23" y="8.684"></use><use xlink:href="#24" y="10.855"></use><use xlink:href="#7" y="13.026"></use></svg><svg x="3920"><use xlink:href="#a"></use><use xlink:href="#27" y="0"></use><use xlink:href="#28" y="2.171"></use></svg><svg x="4000"><use xlink:href="#a"></use><use xlink:href="#27" y="0"></use><use xlink:href="#28" y="2.171"></use><use xlink:href="#21" y="4.342"></use><use xlink:href="#30" y="6.513"></use></svg><svg x="4080"><use xlink:href="#a"></use><use xlink:href="#27" y="0"></use><use xlink:href="#28" y="2.171"></use><use xlink:href="#21" y="4.342"></use><use xlink:href="#30" y="6.513"></use><use xlink:href="#23" y="8.684"></use><use xlink:href="#24" y="10.855"></use></svg><svg x="4160"><use xlink:href="#a"></use><use xlink:href="#27" y="0"></use><use xlink:href="#28" y="2.171"></use><use xlink:href="#21" y="4.342"></use><use xlink:href="#30" y="6.513"></use><use xlink:href="#23" y="8.684"></use><use xlink:href="#24" y="10.855"></use><use xlink:href="#7" y="13.026"></use></svg><svg x="4240"><use xlink:href="#a"></use><use xlink:href="#27" y="0"></use><use xlink:href="#28" y="2.171"></use><use xlink:href="#21" y="4.342"></use><use xlink:href="#30" y="6.513"></use><use xlink:href="#23" y="8.684"></use><use xlink:href="#24" y="10.855"></use><use xlink:href="#7" y="13.026"></use></svg><svg x="4320"><use xlink:href="#a"></use><use xlink:href="#27" y="0"></use><use xlink:href="#28" y="2.171"></use><use xlink:href="#21" y="4.342"></use></svg><svg x="4400"><use xlink:href="#a"></use><use xlink:href="#b" x="-0.0040000000000000036" y="21.685000000000002"></use><use xlink:href="#27" y="0"></use><use xlink:href="#31" y="2.171"></use><use xlink:href="#32" y="4.342"></use><use xlink:href="#33" y="6.513"></use><use xlink:href="#34" y="8.684"></use><use xlink:href="#35" y="10.855"></use><use xlink:href="#36" y="13.026"></use><use xlink:href="#37" y="17.368"></use><use xlink:href="#38" y="19.539"></use></svg><svg x="4480"><use xlink:href="#a"></use><use xlink:href="#b" x="22.996" y="26.027"></use><use xlink:href="#27" y="0"></use><use xlink:href="#31" y="2.171"></use><use xlink:href="#32" y="4.342"></use><use xlink:href="#33" y="6.513"></use><use xlink:href="#34" y="8.684"></use><use xlink:href="#35" y="10.855"></use><use xlink:href="#36" y="13.026"></use><use xlink:href="#37" y="17.368"></use><use xlink:href="#38" y="19.539"></use><text x="0" y="25.550999999999995" class="g">Restarting</text><text x="11.021999999999998" y="25.550999999999995" class="g">animation...</text></svg></svg></g></g></svg></svg>