<svg xmlns="http://www.w3.org/2000/svg" xmlns:xlink="http://www.w3.org/1999/xlink" width="840" height="581.04"><rect width="840" height="581.04" rx="5" ry="5" class="a"></rect><svg y="0%" x="0%"><circle cx="20" cy="20" r="6" class="b"></circle><circle cx="40" cy="20" r="6" class="c"></circle><circle cx="60" cy="20" r="6" class="d"></circle></svg><svg height="521.04" viewBox="0 0 80 52.104" width="800" x="15" xmlns="http://www.w3.org/2000/svg" xmlns:xlink="http://www.w3.org/1999/xlink" y="50"><style>@font-face{
  font-family: 'JetBrainsMono';
  src: url('https://cdn.jsdelivr.net/gh/JetBrains/JetBrainsMono/web/woff2/JetBrainsMono-Regular.woff2') format('woff2'),
    url('https://cdn.jsdelivr.net/gh/JetBrains/JetBrainsMono/web/woff/JetBrainsMono-Regular.woff') format('woff'),
    url('https://cdn.jsdelivr.net/gh/JetBrains/JetBrainsMono/ttf/JetBrainsMono-Regular.ttf') format('truetype');
  font-weight: 400;
  font-style: normal;
}.a{fill:rgb(35,35,35)}.b{fill:#ff5f58}.c{fill:#ffbd2e}.d{fill:#18c132}.e{font-family:'JetBrainsMono',Monaco,Consolas,Menlo,'Bitstream Vera Sans Mono','Powerline Symbols',monospace}.f{fill:rgb(111,119,131)}.g{white-space:pre}.h{fill:rgb(104,104,104);white-space:pre}.i{fill:rgb(102,194,205)}.j{fill:rgb(126,231,233);white-space:pre}.k{fill:rgb(168,204,140)}.l{fill:rgb(124,255,0);white-space:pre}.m{fill:rgb(219,171,121)}.n{fill:rgb(255,241,0);white-space:pre}.o{fill:rgb(232,131,136)}.p{fill:rgb(243,86,86);white-space:pre}.q{fill:transparent}.s{animation-duration:5.570422s;animation-iteration-count:infinite;animation-name:r;animation-timing-function:steps(1,end)}.t{fill:rgb(160,160,160);white-space:pre}@keyframes r{0%{transform:translateX(-0px)}10.2%{transform:translateX(-80px)}100%{transform:translateX(-160px)}}</style><g font-family="'JetBrainsMono',Monaco, Consolas, Menlo, &#x27;Bitstream Vera Sans Mono&#x27;, &#x27;Powerline Symbols&#x27;, monospace" font-size="1.67" class="e"><defs><symbol id="1"><rect height="2.171" width="9" x="0" y="0" class="f"></rect><text x="0" y="1.67" class="g">  DEBUG  </text><text x="10.02" y="1.67" class="h">Hello,</text><text x="17.034" y="1.67" class="h">World!</text></symbol><symbol id="2"><rect height="2.171" width="6" x="0" y="0" class="i"></rect><text x="0" y="1.67" class="g"> INFO </text><text x="7.013999999999999" y="1.67" class="j">Hello,</text><text x="14.027999999999999" y="1.67" class="j">World!</text></symbol><symbol id="3"><rect height="2.171" width="9" x="0" y="0" class="k"></rect><text x="0" y="1.67" class="g"> SUCCESS </text><text x="10.02" y="1.67" class="l">Hello,</text><text x="17.034" y="1.67" class="l">World!</text></symbol><symbol id="4"><rect height="2.171" width="9" x="0" y="0" class="m"></rect><text x="0" y="1.67" class="g"> WARNING </text><text x="10.02" y="1.67" class="n">Hello,</text><text x="17.034" y="1.67" class="n">World!</text></symbol><symbol id="5"><rect height="2.171" width="9" x="0" y="0" class="o"></rect><text x="0" y="1.67" class="g">  ERROR  </text><text x="10.02" y="1.67" class="p">Hello,</text><text x="17.034" y="1.67" class="p">World!</text></symbol><symbol id="6"><rect height="2.171" width="9" x="0" y="0" class="o"></rect><text x="0" y="1.67" class="g">  FATAL  </text><text x="10.02" y="1.67" class="p">Hello,</text><text x="17.034" y="1.67" class="p">World!</text></symbol><symbol id="a"><rect height="24" width="80" x="0" y="0" class="q"></rect></symbol></defs><rect height="52.104" width="80" class="a"></rect><g class="s"><svg x="0" y="0" width="240"><svg x="0"><use xlink:href="#a"></use></svg><svg x="80"><use xlink:href="#a"></use><use xlink:href="#1" y="0"></use><use xlink:href="#2" y="2.171"></use><use xlink:href="#3" y="4.342"></use><use xlink:href="#4" y="6.513"></use><use xlink:href="#5" y="8.684"></use><use xlink:href="#6" y="10.855"></use></svg><svg x="160"><use xlink:href="#a"></use><use xlink:href="#1" y="0"></use><use xlink:href="#2" y="2.171"></use><use xlink:href="#3" y="4.342"></use><use xlink:href="#4" y="6.513"></use><use xlink:href="#5" y="8.684"></use><use xlink:href="#6" y="10.855"></use><text x="0" y="16.866999999999997" class="t">Restarting</text><text x="11.021999999999998" y="16.866999999999997" class="t">animation...</text></svg></svg></g></g></svg></svg>