<svg xmlns="http://www.w3.org/2000/svg" xmlns:xlink="http://www.w3.org/1999/xlink" width="840" height="581.04"><rect width="840" height="581.04" rx="5" ry="5" class="a"></rect><svg y="0%" x="0%"><circle cx="20" cy="20" r="6" class="b"></circle><circle cx="40" cy="20" r="6" class="c"></circle><circle cx="60" cy="20" r="6" class="d"></circle></svg><svg height="521.04" viewBox="0 0 80 52.104" width="800" x="15" xmlns="http://www.w3.org/2000/svg" xmlns:xlink="http://www.w3.org/1999/xlink" y="50"><style>.e, .g, .f {
	font-family:
			'Courier New'
			Roboto,
			Helvetica,
			Arial,
			sans-serif,
			'Apple Color Emoji',
			'Segoe UI Emoji' !important;
}.a{fill:rgb(35,35,35)}.b{fill:#ff5f58}.c{fill:#ffbd2e}.d{fill:#18c132}.e{font-family:'Courier New',Monaco,Consolas,Menlo,'Bitstream Vera Sans Mono','Powerline Symbols',monospace}.f{fill:rgb(128,128,128)}.g{fill:rgb(255,255,255);white-space:pre}.h{fill:rgb(125,125,125)}.i{fill:rgb(255,250,255);white-space:pre}.j{fill:rgb(123,123,123)}.k{fill:rgb(255,246,255);white-space:pre}.l{fill:rgb(121,121,121)}.m{fill:rgb(255,241,255);white-space:pre}.n{fill:rgb(119,119,119)}.o{fill:rgb(255,237,255);white-space:pre}.p{fill:rgb(116,116,116)}.q{fill:rgb(255,233,255);white-space:pre}.r{fill:rgb(114,114,114)}.s{fill:rgb(255,228,255);white-space:pre}.t{fill:rgb(112,112,112)}.u{fill:rgb(255,224,255);white-space:pre}.v{fill:rgb(110,110,110)}.w{fill:rgb(255,219,255);white-space:pre}.x{fill:rgb(108,108,108)}.y{fill:rgb(255,215,255);white-space:pre}.z{fill:rgb(105,105,105)}.A{fill:rgb(255,211,255);white-space:pre}.B{fill:rgb(103,103,103)}.C{fill:rgb(255,206,255);white-space:pre}.D{fill:rgb(101,101,101)}.E{fill:rgb(255,202,255);white-space:pre}.F{fill:rgb(99,99,99)}.G{fill:rgb(255,197,255);white-space:pre}.H{fill:rgb(97,97,97)}.I{fill:rgb(255,193,255);white-space:pre}.J{fill:rgb(94,94,94)}.K{fill:rgb(255,189,255);white-space:pre}.L{fill:rgb(92,92,92)}.M{fill:rgb(255,184,255);white-space:pre}.N{fill:rgb(90,90,90)}.O{fill:rgb(255,180,255);white-space:pre}.P{fill:rgb(88,88,88)}.Q{fill:rgb(255,175,255);white-space:pre}.R{fill:rgb(86,86,86)}.S{fill:rgb(255,171,255);white-space:pre}.T{fill:rgb(83,83,83)}.U{fill:rgb(255,167,255);white-space:pre}.V{fill:rgb(81,81,81)}.W{fill:rgb(255,162,255);white-space:pre}.X{fill:rgb(79,79,79)}.Y{fill:rgb(255,158,255);white-space:pre}.Z{fill:rgb(77,77,77)}.aa{fill:rgb(255,153,255);white-space:pre}.ab{fill:rgb(75,75,75)}.ac{fill:rgb(255,149,255);white-space:pre}.ad{fill:rgb(72,72,72)}.ae{fill:rgb(255,145,255);white-space:pre}.af{fill:rgb(70,70,70)}.ag{fill:rgb(255,140,255);white-space:pre}.ah{fill:rgb(68,68,68)}.ai{fill:rgb(255,136,255);white-space:pre}.aj{fill:rgb(66,66,66)}.ak{fill:rgb(255,131,255);white-space:pre}.al{fill:rgb(64,64,64)}.am{fill:rgb(255,127,255);white-space:pre}.an{fill:rgb(61,61,61)}.ao{fill:rgb(255,123,255);white-space:pre}.ap{fill:rgb(59,59,59)}.aq{fill:rgb(255,118,255);white-space:pre}.ar{fill:rgb(57,57,57)}.as{fill:rgb(255,114,255);white-space:pre}.at{fill:rgb(55,55,55)}.au{fill:rgb(255,109,255);white-space:pre}.av{fill:rgb(52,52,52)}.aw{fill:rgb(255,105,255);white-space:pre}.ax{fill:rgb(50,50,50)}.ay{fill:rgb(255,101,255);white-space:pre}.az{fill:rgb(48,48,48)}.aA{fill:rgb(255,96,255);white-space:pre}.aB{fill:rgb(46,46,46)}.aC{fill:rgb(255,92,255);white-space:pre}.aD{fill:rgb(44,44,44)}.aE{fill:rgb(255,87,255);white-space:pre}.aF{fill:rgb(41,41,41)}.aG{fill:rgb(255,83,255);white-space:pre}.aH{fill:rgb(39,39,39)}.aI{fill:rgb(255,79,255);white-space:pre}.aJ{fill:rgb(37,37,37)}.aK{fill:rgb(255,74,255);white-space:pre}.aL{fill:rgb(255,70,255);white-space:pre}.aM{fill:rgb(33,33,33)}.aN{fill:rgb(255,65,255);white-space:pre}.aO{fill:rgb(30,30,30)}.aP{fill:rgb(255,61,255);white-space:pre}.aQ{fill:rgb(28,28,28)}.aR{fill:rgb(255,57,255);white-space:pre}.aS{fill:rgb(26,26,26)}.aT{fill:rgb(255,52,255);white-space:pre}.aU{fill:rgb(24,24,24)}.aV{fill:rgb(255,48,255);white-space:pre}.aW{fill:rgb(22,22,22)}.aX{fill:rgb(255,43,255);white-space:pre}.aY{fill:rgb(19,19,19)}.aZ{fill:rgb(255,39,255);white-space:pre}.ba{fill:rgb(17,17,17)}.bb{fill:rgb(255,35,255);white-space:pre}.bc{fill:rgb(15,15,15)}.bd{fill:rgb(255,30,255);white-space:pre}.be{fill:rgb(13,13,13)}.bf{fill:rgb(255,26,255);white-space:pre}.bg{fill:rgb(11,11,11)}.bh{fill:rgb(255,21,255);white-space:pre}.bi{fill:rgb(8,8,8)}.bj{fill:rgb(255,17,255);white-space:pre}.bk{fill:rgb(6,6,6)}.bl{fill:rgb(255,13,255);white-space:pre}.bm{fill:rgb(4,4,4)}.bn{fill:rgb(255,8,255);white-space:pre}.bo{fill:rgb(2,2,2)}.bp{fill:rgb(255,4,255);white-space:pre}.bq{fill:rgb(255,0,0)}.br{fill:rgb(0,0,0);white-space:pre}.bs{fill:rgb(3,0,3);white-space:pre}.bt{fill:rgb(7,0,7);white-space:pre}.bu{fill:rgb(11,0,11);white-space:pre}.bv{fill:rgb(15,0,15);white-space:pre}.bw{fill:rgb(18,0,18);white-space:pre}.bx{fill:rgb(22,0,22);white-space:pre}.by{fill:rgb(26,0,26);white-space:pre}.bz{fill:rgb(30,0,30);white-space:pre}.bA{fill:rgb(33,0,33);white-space:pre}.bB{fill:rgb(37,0,37);white-space:pre}.bC{fill:rgb(41,0,41);white-space:pre}.bD{fill:rgb(45,0,45);white-space:pre}.bE{fill:rgb(48,0,48);white-space:pre}.bF{fill:rgb(52,0,52);white-space:pre}.bG{fill:rgb(56,0,56);white-space:pre}.bH{fill:rgb(60,0,60);white-space:pre}.bI{fill:rgb(63,0,63);white-space:pre}.bJ{fill:rgb(67,0,67);white-space:pre}.bK{fill:rgb(71,0,71);white-space:pre}.bL{fill:rgb(75,0,75);white-space:pre}.bM{fill:rgb(78,0,78);white-space:pre}.bN{fill:rgb(82,0,82);white-space:pre}.bO{fill:rgb(86,0,86);white-space:pre}.bP{fill:rgb(90,0,90);white-space:pre}.bQ{fill:rgb(93,0,93);white-space:pre}.bR{fill:rgb(97,0,97);white-space:pre}.bS{fill:rgb(101,0,101);white-space:pre}.bT{fill:rgb(105,0,105);white-space:pre}.bU{fill:rgb(108,0,108);white-space:pre}.bV{fill:rgb(112,0,112);white-space:pre}.bW{fill:rgb(116,0,116);white-space:pre}.bX{fill:rgb(120,0,120);white-space:pre}.bY{fill:rgb(123,0,123);white-space:pre}.bZ{fill:rgb(127,0,127);white-space:pre}.ca{fill:rgb(131,0,131);white-space:pre}.cb{fill:rgb(135,0,135);white-space:pre}.cc{fill:rgb(138,0,138);white-space:pre}.cd{fill:rgb(142,0,142);white-space:pre}.ce{fill:rgb(146,0,146);white-space:pre}.cf{fill:rgb(150,0,150);white-space:pre}.cg{fill:rgb(153,0,153);white-space:pre}.ch{fill:rgb(157,0,157);white-space:pre}.ci{fill:rgb(161,0,161);white-space:pre}.cj{fill:rgb(165,0,165);white-space:pre}.ck{fill:rgb(168,0,168);white-space:pre}.cl{fill:rgb(172,0,172);white-space:pre}.cm{fill:rgb(176,0,176);white-space:pre}.cn{fill:rgb(180,0,180);white-space:pre}.co{fill:rgb(183,0,183);white-space:pre}.cp{fill:rgb(187,0,187);white-space:pre}.cq{fill:rgb(191,0,191);white-space:pre}.cr{fill:rgb(195,0,195);white-space:pre}.cs{fill:rgb(198,0,198);white-space:pre}.ct{fill:rgb(202,0,202);white-space:pre}.cu{fill:rgb(206,0,206);white-space:pre}.cv{fill:rgb(210,0,210);white-space:pre}.cw{fill:rgb(213,0,213);white-space:pre}.cx{fill:rgb(217,0,217);white-space:pre}.cy{fill:rgb(221,0,221);white-space:pre}.cz{fill:rgb(225,0,225);white-space:pre}.cA{fill:rgb(228,0,228);white-space:pre}.cB{fill:rgb(232,0,232);white-space:pre}.cC{fill:rgb(236,0,236);white-space:pre}.cD{fill:rgb(240,0,240);white-space:pre}.cE{fill:rgb(243,0,243);white-space:pre}.cF{fill:rgb(247,0,247);white-space:pre}.cG{fill:rgb(251,0,251);white-space:pre}.cH{fill:rgb(250,0,0)}.cI{fill:rgb(250,255,250);white-space:pre}.cJ{fill:rgb(245,0,0)}.cK{fill:rgb(245,255,245);white-space:pre}.cL{fill:rgb(241,0,0)}.cM{fill:rgb(241,255,241);white-space:pre}.cN{fill:rgb(236,0,0)}.cO{fill:rgb(236,255,236);white-space:pre}.cP{fill:rgb(232,0,0)}.cQ{fill:rgb(232,255,232);white-space:pre}.cR{fill:rgb(227,0,0)}.cS{fill:rgb(227,255,227);white-space:pre}.cT{fill:rgb(223,0,0)}.cU{fill:rgb(223,255,223);white-space:pre}.cV{fill:rgb(218,0,0)}.cW{fill:rgb(218,255,218);white-space:pre}.cX{fill:rgb(214,0,0)}.cY{fill:rgb(214,255,214);white-space:pre}.cZ{fill:rgb(209,0,0)}.da{fill:rgb(209,255,209);white-space:pre}.db{fill:rgb(204,0,0)}.dc{fill:rgb(204,255,204);white-space:pre}.dd{fill:rgb(200,0,0)}.de{fill:rgb(200,255,200);white-space:pre}.df{fill:rgb(195,0,0)}.dg{fill:rgb(195,255,195);white-space:pre}.dh{fill:rgb(191,0,0)}.di{fill:rgb(191,255,191);white-space:pre}.dj{fill:rgb(186,0,0)}.dk{fill:rgb(186,255,186);white-space:pre}.dl{fill:rgb(182,0,0)}.dm{fill:rgb(182,255,182);white-space:pre}.dn{fill:rgb(177,0,0)}.do{fill:rgb(177,255,177);white-space:pre}.dp{fill:rgb(173,0,0)}.dq{fill:rgb(173,255,173);white-space:pre}.dr{fill:rgb(168,0,0)}.ds{fill:rgb(168,255,168);white-space:pre}.dt{fill:rgb(163,0,0)}.du{fill:rgb(163,255,163);white-space:pre}.dv{fill:rgb(159,0,0)}.dw{fill:rgb(159,255,159);white-space:pre}.dx{fill:rgb(154,0,0)}.dy{fill:rgb(154,255,154);white-space:pre}.dz{fill:rgb(150,0,0)}.dA{fill:rgb(150,255,150);white-space:pre}.dB{fill:rgb(145,0,0)}.dC{fill:rgb(145,255,145);white-space:pre}.dD{fill:rgb(141,0,0)}.dE{fill:rgb(141,255,141);white-space:pre}.dF{fill:rgb(136,0,0)}.dG{fill:rgb(136,255,136);white-space:pre}.dH{fill:rgb(132,0,0)}.dI{fill:rgb(132,255,132);white-space:pre}.dJ{fill:rgb(127,0,0)}.dK{fill:rgb(127,255,127);white-space:pre}.dL{fill:rgb(122,0,0)}.dM{fill:rgb(122,255,122);white-space:pre}.dN{fill:rgb(118,0,0)}.dO{fill:rgb(118,255,118);white-space:pre}.dP{fill:rgb(113,0,0)}.dQ{fill:rgb(113,255,113);white-space:pre}.dR{fill:rgb(109,0,0)}.dS{fill:rgb(109,255,109);white-space:pre}.dT{fill:rgb(104,0,0)}.dU{fill:rgb(104,255,104);white-space:pre}.dV{fill:rgb(100,0,0)}.dW{fill:rgb(100,255,100);white-space:pre}.dX{fill:rgb(95,0,0)}.dY{fill:rgb(95,255,95);white-space:pre}.dZ{fill:rgb(91,0,0)}.ea{fill:rgb(91,255,91);white-space:pre}.eb{fill:rgb(86,0,0)}.ec{fill:rgb(86,255,86);white-space:pre}.ed{fill:rgb(81,0,0)}.ee{fill:rgb(81,255,81);white-space:pre}.ef{fill:rgb(77,0,0)}.eg{fill:rgb(77,255,77);white-space:pre}.eh{fill:rgb(72,0,0)}.ei{fill:rgb(72,255,72);white-space:pre}.ej{fill:rgb(68,0,0)}.ek{fill:rgb(68,255,68);font-weight:bold;white-space:pre}.el{fill:rgb(63,0,0)}.em{fill:rgb(63,255,63);font-weight:bold;white-space:pre}.en{fill:rgb(59,0,0)}.eo{fill:rgb(59,255,59);font-weight:bold;white-space:pre}.ep{fill:rgb(54,0,0)}.eq{fill:rgb(54,255,54);font-weight:bold;white-space:pre}.er{fill:rgb(50,0,0)}.es{fill:rgb(50,255,50);white-space:pre}.et{fill:rgb(45,0,0)}.eu{fill:rgb(45,255,45);white-space:pre}.ev{fill:rgb(40,0,0)}.ew{fill:rgb(40,255,40);white-space:pre}.ex{fill:rgb(36,0,0)}.ey{fill:rgb(36,255,36);white-space:pre}.ez{fill:rgb(31,0,0)}.eA{fill:rgb(31,255,31);white-space:pre}.eB{fill:rgb(27,0,0)}.eC{fill:rgb(27,255,27);white-space:pre}.eD{fill:rgb(22,0,0)}.eE{fill:rgb(22,255,22);white-space:pre}.eF{fill:rgb(18,0,0)}.eG{fill:rgb(18,255,18);white-space:pre}.eH{fill:rgb(13,0,0)}.eI{fill:rgb(13,255,13);white-space:pre}.eJ{fill:rgb(9,0,0)}.eK{fill:rgb(9,255,9);white-space:pre}.eL{fill:rgb(4,0,0)}.eM{fill:rgb(4,255,4);white-space:pre}.eN{fill:transparent}.eP{animation-duration:5.252543s;animation-iteration-count:infinite;animation-name:eO;animation-timing-function:steps(1,end)}.eQ{fill:rgb(160,160,160);white-space:pre}@keyframes eO{0%{transform:translateX(-0px)}4.1%{transform:translateX(-80px)}4.8%{transform:translateX(-160px)}4.8%{transform:translateX(-240px)}100%{transform:translateX(-320px)}}</style><g font-family="'Courier New',Monaco, Consolas, Menlo, &#x27;Bitstream Vera Sans Mono&#x27;, &#x27;Powerline Symbols&#x27;, monospace" font-size="1.67" class="e"><defs><symbol id="1"><rect height="2.171" width="1" x="0" y="0" class="f"></rect><text x="0" y="1.67" class="g">R</text><rect height="2.171" width="1" x="1.002" y="0" class="h"></rect><text x="1.002" y="1.67" class="i">G</text><rect height="2.171" width="1" x="2.004" y="0" class="j"></rect><text x="2.004" y="1.67" class="k">B</text><rect height="2.171" width="1" x="3.006" y="0" class="l"></rect><text x="3.006" y="1.67" class="m"> </text><rect height="2.171" width="1" x="4.008" y="0" class="n"></rect><text x="4.008" y="1.67" class="o">c</text><rect height="2.171" width="1" x="5.01" y="0" class="p"></rect><text x="5.01" y="1.67" class="q">o</text><rect height="2.171" width="1" x="6.012" y="0" class="r"></rect><text x="6.012" y="1.67" class="s">l</text><rect height="2.171" width="1" x="7.013999999999999" y="0" class="t"></rect><text x="7.013999999999999" y="1.67" class="u">o</text><rect height="2.171" width="1" x="8.016" y="0" class="v"></rect><text x="8.016" y="1.67" class="w">r</text><rect height="2.171" width="1" x="9.017999999999999" y="0" class="x"></rect><text x="9.017999999999999" y="1.67" class="y">s</text><rect height="2.171" width="1" x="10.02" y="0" class="z"></rect><text x="10.02" y="1.67" class="A"> </text><rect height="2.171" width="1" x="11.021999999999998" y="0" class="B"></rect><text x="11.021999999999998" y="1.67" class="C">o</text><rect height="2.171" width="1" x="12.024" y="0" class="D"></rect><text x="12.024" y="1.67" class="E">n</text><rect height="2.171" width="1" x="13.026" y="0" class="F"></rect><text x="13.026" y="1.67" class="G">l</text><rect height="2.171" width="1" x="14.027999999999999" y="0" class="H"></rect><text x="14.027999999999999" y="1.67" class="I">y</text><rect height="2.171" width="1" x="15.029999999999998" y="0" class="J"></rect><text x="15.029999999999998" y="1.67" class="K"> </text><rect height="2.171" width="1" x="16.032" y="0" class="L"></rect><text x="16.032" y="1.67" class="M">w</text><rect height="2.171" width="1" x="17.034" y="0" class="N"></rect><text x="17.034" y="1.67" class="O">o</text><rect height="2.171" width="1" x="18.035999999999998" y="0" class="P"></rect><text x="18.035999999999998" y="1.67" class="Q">r</text><rect height="2.171" width="1" x="19.037999999999997" y="0" class="R"></rect><text x="19.037999999999997" y="1.67" class="S">k</text><rect height="2.171" width="1" x="20.04" y="0" class="T"></rect><text x="20.04" y="1.67" class="U"> </text><rect height="2.171" width="1" x="21.041999999999998" y="0" class="V"></rect><text x="21.041999999999998" y="1.67" class="W">i</text><rect height="2.171" width="1" x="22.043999999999997" y="0" class="X"></rect><text x="22.043999999999997" y="1.67" class="Y">n</text><rect height="2.171" width="1" x="23.045999999999996" y="0" class="Z"></rect><text x="23.045999999999996" y="1.67" class="aa"> </text><rect height="2.171" width="1" x="24.048" y="0" class="ab"></rect><text x="24.048" y="1.67" class="ac">T</text><rect height="2.171" width="1" x="25.05" y="0" class="ad"></rect><text x="25.05" y="1.67" class="ae">e</text><rect height="2.171" width="1" x="26.052" y="0" class="af"></rect><text x="26.052" y="1.67" class="ag">r</text><rect height="2.171" width="1" x="27.054" y="0" class="ah"></rect><text x="27.054" y="1.67" class="ai">m</text><rect height="2.171" width="1" x="28.055999999999997" y="0" class="aj"></rect><text x="28.055999999999997" y="1.67" class="ak">i</text><rect height="2.171" width="1" x="29.058" y="0" class="al"></rect><text x="29.058" y="1.67" class="am">n</text><rect height="2.171" width="1" x="30.059999999999995" y="0" class="an"></rect><text x="30.059999999999995" y="1.67" class="ao">a</text><rect height="2.171" width="1" x="31.061999999999998" y="0" class="ap"></rect><text x="31.061999999999998" y="1.67" class="aq">l</text><rect height="2.171" width="1" x="32.064" y="0" class="ar"></rect><text x="32.064" y="1.67" class="as">s</text><rect height="2.171" width="1" x="33.065999999999995" y="0" class="at"></rect><text x="33.065999999999995" y="1.67" class="au"> </text><rect height="2.171" width="1" x="34.068" y="0" class="av"></rect><text x="34.068" y="1.67" class="aw">w</text><rect height="2.171" width="1" x="35.06999999999999" y="0" class="ax"></rect><text x="35.06999999999999" y="1.67" class="ay">h</text><rect height="2.171" width="1" x="36.071999999999996" y="0" class="az"></rect><text x="36.071999999999996" y="1.67" class="aA">i</text><rect height="2.171" width="1" x="37.074" y="0" class="aB"></rect><text x="37.074" y="1.67" class="aC">c</text><rect height="2.171" width="1" x="38.07599999999999" y="0" class="aD"></rect><text x="38.07599999999999" y="1.67" class="aE">h</text><rect height="2.171" width="1" x="39.077999999999996" y="0" class="aF"></rect><text x="39.077999999999996" y="1.67" class="aG"> </text><rect height="2.171" width="1" x="40.08" y="0" class="aH"></rect><text x="40.08" y="1.67" class="aI">s</text><rect height="2.171" width="1" x="41.082" y="0" class="aJ"></rect><text x="41.082" y="1.67" class="aK">u</text><rect height="2.171" width="1" x="42.083999999999996" y="0" class="a"></rect><text x="42.083999999999996" y="1.67" class="aL">p</text><rect height="2.171" width="1" x="43.086" y="0" class="aM"></rect><text x="43.086" y="1.67" class="aN">p</text><rect height="2.171" width="1" x="44.087999999999994" y="0" class="aO"></rect><text x="44.087999999999994" y="1.67" class="aP">o</text><rect height="2.171" width="1" x="45.089999999999996" y="0" class="aQ"></rect><text x="45.089999999999996" y="1.67" class="aR">r</text><rect height="2.171" width="1" x="46.09199999999999" y="0" class="aS"></rect><text x="46.09199999999999" y="1.67" class="aT">t</text><rect height="2.171" width="1" x="47.093999999999994" y="0" class="aU"></rect><text x="47.093999999999994" y="1.67" class="aV"> </text><rect height="2.171" width="1" x="48.096" y="0" class="aW"></rect><text x="48.096" y="1.67" class="aX">T</text><rect height="2.171" width="1" x="49.098" y="0" class="aY"></rect><text x="49.098" y="1.67" class="aZ">r</text><rect height="2.171" width="1" x="50.1" y="0" class="ba"></rect><text x="50.1" y="1.67" class="bb">u</text><rect height="2.171" width="1" x="51.102" y="0" class="bc"></rect><text x="51.102" y="1.67" class="bd">e</text><rect height="2.171" width="1" x="52.104" y="0" class="be"></rect><text x="52.104" y="1.67" class="bf">C</text><rect height="2.171" width="1" x="53.105999999999995" y="0" class="bg"></rect><text x="53.105999999999995" y="1.67" class="bh">o</text><rect height="2.171" width="1" x="54.108" y="0" class="bi"></rect><text x="54.108" y="1.67" class="bj">l</text><rect height="2.171" width="1" x="55.10999999999999" y="0" class="bk"></rect><text x="55.10999999999999" y="1.67" class="bl">o</text><rect height="2.171" width="1" x="56.111999999999995" y="0" class="bm"></rect><text x="56.111999999999995" y="1.67" class="bn">r</text><rect height="2.171" width="1" x="57.114" y="0" class="bo"></rect><text x="57.114" y="1.67" class="bp">.</text></symbol><symbol id="2"><rect height="2.171" width="1" x="0" y="0" class="bq"></rect><text x="0" y="1.67" class="br">T</text><rect height="2.171" width="1" x="1.002" y="0" class="bq"></rect><text x="1.002" y="1.67" class="bs">h</text><rect height="2.171" width="1" x="2.004" y="0" class="bq"></rect><text x="2.004" y="1.67" class="bt">e</text><rect height="2.171" width="1" x="3.006" y="0" class="bq"></rect><text x="3.006" y="1.67" class="bu"> </text><rect height="2.171" width="1" x="4.008" y="0" class="bq"></rect><text x="4.008" y="1.67" class="bv">b</text><rect height="2.171" width="1" x="5.01" y="0" class="bq"></rect><text x="5.01" y="1.67" class="bw">a</text><rect height="2.171" width="1" x="6.012" y="0" class="bq"></rect><text x="6.012" y="1.67" class="bx">c</text><rect height="2.171" width="1" x="7.013999999999999" y="0" class="bq"></rect><text x="7.013999999999999" y="1.67" class="by">k</text><rect height="2.171" width="1" x="8.016" y="0" class="bq"></rect><text x="8.016" y="1.67" class="bz">g</text><rect height="2.171" width="1" x="9.017999999999999" y="0" class="bq"></rect><text x="9.017999999999999" y="1.67" class="bA">r</text><rect height="2.171" width="1" x="10.02" y="0" class="bq"></rect><text x="10.02" y="1.67" class="bB">o</text><rect height="2.171" width="1" x="11.021999999999998" y="0" class="bq"></rect><text x="11.021999999999998" y="1.67" class="bC">u</text><rect height="2.171" width="1" x="12.024" y="0" class="bq"></rect><text x="12.024" y="1.67" class="bD">n</text><rect height="2.171" width="1" x="13.026" y="0" class="bq"></rect><text x="13.026" y="1.67" class="bE">d</text><rect height="2.171" width="1" x="14.027999999999999" y="0" class="bq"></rect><text x="14.027999999999999" y="1.67" class="bF"> </text><rect height="2.171" width="1" x="15.029999999999998" y="0" class="bq"></rect><text x="15.029999999999998" y="1.67" class="bG">a</text><rect height="2.171" width="1" x="16.032" y="0" class="bq"></rect><text x="16.032" y="1.67" class="bH">n</text><rect height="2.171" width="1" x="17.034" y="0" class="bq"></rect><text x="17.034" y="1.67" class="bI">d</text><rect height="2.171" width="1" x="18.035999999999998" y="0" class="bq"></rect><text x="18.035999999999998" y="1.67" class="bJ"> </text><rect height="2.171" width="1" x="19.037999999999997" y="0" class="bq"></rect><text x="19.037999999999997" y="1.67" class="bK">f</text><rect height="2.171" width="1" x="20.04" y="0" class="bq"></rect><text x="20.04" y="1.67" class="bL">o</text><rect height="2.171" width="1" x="21.041999999999998" y="0" class="bq"></rect><text x="21.041999999999998" y="1.67" class="bM">r</text><rect height="2.171" width="1" x="22.043999999999997" y="0" class="bq"></rect><text x="22.043999999999997" y="1.67" class="bN">e</text><rect height="2.171" width="1" x="23.045999999999996" y="0" class="bq"></rect><text x="23.045999999999996" y="1.67" class="bO">g</text><rect height="2.171" width="1" x="24.048" y="0" class="bq"></rect><text x="24.048" y="1.67" class="bP">r</text><rect height="2.171" width="1" x="25.05" y="0" class="bq"></rect><text x="25.05" y="1.67" class="bQ">o</text><rect height="2.171" width="1" x="26.052" y="0" class="bq"></rect><text x="26.052" y="1.67" class="bR">u</text><rect height="2.171" width="1" x="27.054" y="0" class="bq"></rect><text x="27.054" y="1.67" class="bS">n</text><rect height="2.171" width="1" x="28.055999999999997" y="0" class="bq"></rect><text x="28.055999999999997" y="1.67" class="bT">d</text><rect height="2.171" width="1" x="29.058" y="0" class="bq"></rect><text x="29.058" y="1.67" class="bU"> </text><rect height="2.171" width="1" x="30.059999999999995" y="0" class="bq"></rect><text x="30.059999999999995" y="1.67" class="bV">c</text><rect height="2.171" width="1" x="31.061999999999998" y="0" class="bq"></rect><text x="31.061999999999998" y="1.67" class="bW">o</text><rect height="2.171" width="1" x="32.064" y="0" class="bq"></rect><text x="32.064" y="1.67" class="bX">l</text><rect height="2.171" width="1" x="33.065999999999995" y="0" class="bq"></rect><text x="33.065999999999995" y="1.67" class="bY">o</text><rect height="2.171" width="1" x="34.068" y="0" class="bq"></rect><text x="34.068" y="1.67" class="bZ">r</text><rect height="2.171" width="1" x="35.06999999999999" y="0" class="bq"></rect><text x="35.06999999999999" y="1.67" class="ca">s</text><rect height="2.171" width="1" x="36.071999999999996" y="0" class="bq"></rect><text x="36.071999999999996" y="1.67" class="cb"> </text><rect height="2.171" width="1" x="37.074" y="0" class="bq"></rect><text x="37.074" y="1.67" class="cc">c</text><rect height="2.171" width="1" x="38.07599999999999" y="0" class="bq"></rect><text x="38.07599999999999" y="1.67" class="cd">a</text><rect height="2.171" width="1" x="39.077999999999996" y="0" class="bq"></rect><text x="39.077999999999996" y="1.67" class="ce">n</text><rect height="2.171" width="1" x="40.08" y="0" class="bq"></rect><text x="40.08" y="1.67" class="cf"> </text><rect height="2.171" width="1" x="41.082" y="0" class="bq"></rect><text x="41.082" y="1.67" class="cg">b</text><rect height="2.171" width="1" x="42.083999999999996" y="0" class="bq"></rect><text x="42.083999999999996" y="1.67" class="ch">e</text><rect height="2.171" width="1" x="43.086" y="0" class="bq"></rect><text x="43.086" y="1.67" class="ci"> </text><rect height="2.171" width="1" x="44.087999999999994" y="0" class="bq"></rect><text x="44.087999999999994" y="1.67" class="cj">c</text><rect height="2.171" width="1" x="45.089999999999996" y="0" class="bq"></rect><text x="45.089999999999996" y="1.67" class="ck">u</text><rect height="2.171" width="1" x="46.09199999999999" y="0" class="bq"></rect><text x="46.09199999999999" y="1.67" class="cl">s</text><rect height="2.171" width="1" x="47.093999999999994" y="0" class="bq"></rect><text x="47.093999999999994" y="1.67" class="cm">t</text><rect height="2.171" width="1" x="48.096" y="0" class="bq"></rect><text x="48.096" y="1.67" class="cn">o</text><rect height="2.171" width="1" x="49.098" y="0" class="bq"></rect><text x="49.098" y="1.67" class="co">m</text><rect height="2.171" width="1" x="50.1" y="0" class="bq"></rect><text x="50.1" y="1.67" class="cp">i</text><rect height="2.171" width="1" x="51.102" y="0" class="bq"></rect><text x="51.102" y="1.67" class="cq">z</text><rect height="2.171" width="1" x="52.104" y="0" class="bq"></rect><text x="52.104" y="1.67" class="cr">e</text><rect height="2.171" width="1" x="53.105999999999995" y="0" class="bq"></rect><text x="53.105999999999995" y="1.67" class="cs">d</text><rect height="2.171" width="1" x="54.108" y="0" class="bq"></rect><text x="54.108" y="1.67" class="ct"> </text><rect height="2.171" width="1" x="55.10999999999999" y="0" class="bq"></rect><text x="55.10999999999999" y="1.67" class="cu">i</text><rect height="2.171" width="1" x="56.111999999999995" y="0" class="bq"></rect><text x="56.111999999999995" y="1.67" class="cv">n</text><rect height="2.171" width="1" x="57.114" y="0" class="bq"></rect><text x="57.114" y="1.67" class="cw">d</text><rect height="2.171" width="1" x="58.116" y="0" class="bq"></rect><text x="58.116" y="1.67" class="cx">i</text><rect height="2.171" width="1" x="59.117999999999995" y="0" class="bq"></rect><text x="59.117999999999995" y="1.67" class="cy">v</text><rect height="2.171" width="1" x="60.11999999999999" y="0" class="bq"></rect><text x="60.11999999999999" y="1.67" class="cz">i</text><rect height="2.171" width="1" x="61.12199999999999" y="0" class="bq"></rect><text x="61.12199999999999" y="1.67" class="cA">d</text><rect height="2.171" width="1" x="62.123999999999995" y="0" class="bq"></rect><text x="62.123999999999995" y="1.67" class="cB">u</text><rect height="2.171" width="1" x="63.12599999999999" y="0" class="bq"></rect><text x="63.12599999999999" y="1.67" class="cC">a</text><rect height="2.171" width="1" x="64.128" y="0" class="bq"></rect><text x="64.128" y="1.67" class="cD">l</text><rect height="2.171" width="1" x="65.13" y="0" class="bq"></rect><text x="65.13" y="1.67" class="cE">l</text><rect height="2.171" width="1" x="66.13199999999999" y="0" class="bq"></rect><text x="66.13199999999999" y="1.67" class="cF">y</text><rect height="2.171" width="1" x="67.134" y="0" class="bq"></rect><text x="67.134" y="1.67" class="cG">.</text></symbol><symbol id="3"><rect height="2.171" width="1" x="0" y="0" class="bq"></rect><text x="0" y="1.67" class="g">S</text><rect height="2.171" width="1" x="1.002" y="0" class="cH"></rect><text x="1.002" y="1.67" class="cI">t</text><rect height="2.171" width="1" x="2.004" y="0" class="cJ"></rect><text x="2.004" y="1.67" class="cK">y</text><rect height="2.171" width="1" x="3.006" y="0" class="cL"></rect><text x="3.006" y="1.67" class="cM">l</text><rect height="2.171" width="1" x="4.008" y="0" class="cN"></rect><text x="4.008" y="1.67" class="cO">e</text><rect height="2.171" width="1" x="5.01" y="0" class="cP"></rect><text x="5.01" y="1.67" class="cQ">s</text><rect height="2.171" width="1" x="6.012" y="0" class="cR"></rect><text x="6.012" y="1.67" class="cS"> </text><rect height="2.171" width="1" x="7.013999999999999" y="0" class="cT"></rect><text x="7.013999999999999" y="1.67" class="cU">c</text><rect height="2.171" width="1" x="8.016" y="0" class="cV"></rect><text x="8.016" y="1.67" class="cW">a</text><rect height="2.171" width="1" x="9.017999999999999" y="0" class="cX"></rect><text x="9.017999999999999" y="1.67" class="cY">n</text><rect height="2.171" width="1" x="10.02" y="0" class="cZ"></rect><text x="10.02" y="1.67" class="da"> </text><rect height="2.171" width="1" x="11.021999999999998" y="0" class="db"></rect><text x="11.021999999999998" y="1.67" class="dc">a</text><rect height="2.171" width="1" x="12.024" y="0" class="dd"></rect><text x="12.024" y="1.67" class="de">l</text><rect height="2.171" width="1" x="13.026" y="0" class="df"></rect><text x="13.026" y="1.67" class="dg">s</text><rect height="2.171" width="1" x="14.027999999999999" y="0" class="dh"></rect><text x="14.027999999999999" y="1.67" class="di">o</text><rect height="2.171" width="1" x="15.029999999999998" y="0" class="dj"></rect><text x="15.029999999999998" y="1.67" class="dk"> </text><rect height="2.171" width="1" x="16.032" y="0" class="dl"></rect><text x="16.032" y="1.67" class="dm">b</text><rect height="2.171" width="1" x="17.034" y="0" class="dn"></rect><text x="17.034" y="1.67" class="do">e</text><rect height="2.171" width="1" x="18.035999999999998" y="0" class="dp"></rect><text x="18.035999999999998" y="1.67" class="dq"> </text><rect height="2.171" width="1" x="19.037999999999997" y="0" class="dr"></rect><text x="19.037999999999997" y="1.67" class="ds">a</text><rect height="2.171" width="1" x="20.04" y="0" class="dt"></rect><text x="20.04" y="1.67" class="du">p</text><rect height="2.171" width="1" x="21.041999999999998" y="0" class="dv"></rect><text x="21.041999999999998" y="1.67" class="dw">p</text><rect height="2.171" width="1" x="22.043999999999997" y="0" class="dx"></rect><text x="22.043999999999997" y="1.67" class="dy">l</text><rect height="2.171" width="1" x="23.045999999999996" y="0" class="dz"></rect><text x="23.045999999999996" y="1.67" class="dA">i</text><rect height="2.171" width="1" x="24.048" y="0" class="dB"></rect><text x="24.048" y="1.67" class="dC">e</text><rect height="2.171" width="1" x="25.05" y="0" class="dD"></rect><text x="25.05" y="1.67" class="dE">d</text><rect height="2.171" width="1" x="26.052" y="0" class="dF"></rect><text x="26.052" y="1.67" class="dG">.</text><rect height="2.171" width="1" x="27.054" y="0" class="dH"></rect><text x="27.054" y="1.67" class="dI"> </text><rect height="2.171" width="1" x="28.055999999999997" y="0" class="dJ"></rect><text x="28.055999999999997" y="1.67" class="dK">F</text><rect height="2.171" width="1" x="29.058" y="0" class="dL"></rect><text x="29.058" y="1.67" class="dM">o</text><rect height="2.171" width="1" x="30.059999999999995" y="0" class="dN"></rect><text x="30.059999999999995" y="1.67" class="dO">r</text><rect height="2.171" width="1" x="31.061999999999998" y="0" class="dP"></rect><text x="31.061999999999998" y="1.67" class="dQ"> </text><rect height="2.171" width="1" x="32.064" y="0" class="dR"></rect><text x="32.064" y="1.67" class="dS">e</text><rect height="2.171" width="1" x="33.065999999999995" y="0" class="dT"></rect><text x="33.065999999999995" y="1.67" class="dU">x</text><rect height="2.171" width="1" x="34.068" y="0" class="dV"></rect><text x="34.068" y="1.67" class="dW">a</text><rect height="2.171" width="1" x="35.06999999999999" y="0" class="dX"></rect><text x="35.06999999999999" y="1.67" class="dY">m</text><rect height="2.171" width="1" x="36.071999999999996" y="0" class="dZ"></rect><text x="36.071999999999996" y="1.67" class="ea">p</text><rect height="2.171" width="1" x="37.074" y="0" class="eb"></rect><text x="37.074" y="1.67" class="ec">l</text><rect height="2.171" width="1" x="38.07599999999999" y="0" class="ed"></rect><text x="38.07599999999999" y="1.67" class="ee">e</text><rect height="2.171" width="1" x="39.077999999999996" y="0" class="ef"></rect><text x="39.077999999999996" y="1.67" class="eg">:</text><rect height="2.171" width="1" x="40.08" y="0" class="eh"></rect><text x="40.08" y="1.67" class="ei"> </text><rect height="2.171" width="1" x="41.082" y="0" class="ej"></rect><text x="41.082" y="1.67" class="ek">B</text><rect height="2.171" width="1" x="42.083999999999996" y="0" class="el"></rect><text x="42.083999999999996" y="1.67" class="em">o</text><rect height="2.171" width="1" x="43.086" y="0" class="en"></rect><text x="43.086" y="1.67" class="eo">l</text><rect height="2.171" width="1" x="44.087999999999994" y="0" class="ep"></rect><text x="44.087999999999994" y="1.67" class="eq">d</text><rect height="2.171" width="1" x="45.089999999999996" y="0" class="er"></rect><text x="45.089999999999996" y="1.67" class="es"> </text><rect height="2.171" width="1" x="46.09199999999999" y="0" class="et"></rect><text x="46.09199999999999" y="1.67" class="eu">o</text><rect height="2.171" width="1" x="47.093999999999994" y="0" class="ev"></rect><text x="47.093999999999994" y="1.67" class="ew">r</text><rect height="2.171" width="1" x="48.096" y="0" class="ex"></rect><text x="48.096" y="1.67" class="ey"> </text><rect height="2.171" width="1" x="49.098" y="0" class="ez"></rect><text x="49.098" y="1.67" class="eA">I</text><rect height="2.171" width="1" x="50.1" y="0" class="eB"></rect><text x="50.1" y="1.67" class="eC">t</text><rect height="2.171" width="1" x="51.102" y="0" class="eD"></rect><text x="51.102" y="1.67" class="eE">a</text><rect height="2.171" width="1" x="52.104" y="0" class="eF"></rect><text x="52.104" y="1.67" class="eG">l</text><rect height="2.171" width="1" x="53.105999999999995" y="0" class="eH"></rect><text x="53.105999999999995" y="1.67" class="eI">i</text><rect height="2.171" width="1" x="54.108" y="0" class="eJ"></rect><text x="54.108" y="1.67" class="eK">c</text><rect height="2.171" width="1" x="55.10999999999999" y="0" class="eL"></rect><text x="55.10999999999999" y="1.67" class="eM">.</text></symbol><symbol id="a"><rect height="24" width="80" x="0" y="0" class="eN"></rect></symbol></defs><rect height="52.104" width="80" class="a"></rect><g class="eP"><svg x="0" y="0" width="400"><svg x="0"><use xlink:href="#a"></use></svg><svg x="80"><use xlink:href="#a"></use><rect height="2.171" width="1" x="0" y="0" class="f"></rect><text x="0" y="1.67" class="g">R</text><rect height="2.171" width="1" x="1.002" y="0" class="h"></rect><text x="1.002" y="1.67" class="i">G</text><rect height="2.171" width="1" x="2.004" y="0" class="j"></rect><text x="2.004" y="1.67" class="k">B</text><rect height="2.171" width="1" x="3.006" y="0" class="l"></rect><text x="3.006" y="1.67" class="m"> </text><rect height="2.171" width="1" x="4.008" y="0" class="n"></rect><text x="4.008" y="1.67" class="o">c</text><rect height="2.171" width="1" x="5.01" y="0" class="p"></rect><text x="5.01" y="1.67" class="q">o</text><rect height="2.171" width="1" x="6.012" y="0" class="r"></rect><text x="6.012" y="1.67" class="s">l</text><rect height="2.171" width="1" x="7.013999999999999" y="0" class="t"></rect><text x="7.013999999999999" y="1.67" class="u">o</text><rect height="2.171" width="1" x="8.016" y="0" class="v"></rect><text x="8.016" y="1.67" class="w">r</text><rect height="2.171" width="1" x="9.017999999999999" y="0" class="x"></rect><text x="9.017999999999999" y="1.67" class="y">s</text><rect height="2.171" width="1" x="10.02" y="0" class="z"></rect><text x="10.02" y="1.67" class="A"> </text><rect height="2.171" width="1" x="11.021999999999998" y="0" class="B"></rect><text x="11.021999999999998" y="1.67" class="C">o</text><rect height="2.171" width="1" x="12.024" y="0" class="D"></rect><text x="12.024" y="1.67" class="E">n</text><rect height="2.171" width="1" x="13.026" y="0" class="F"></rect><text x="13.026" y="1.67" class="G">l</text><rect height="2.171" width="1" x="14.027999999999999" y="0" class="H"></rect><text x="14.027999999999999" y="1.67" class="I">y</text><rect height="2.171" width="1" x="15.029999999999998" y="0" class="J"></rect><text x="15.029999999999998" y="1.67" class="K"> </text><rect height="2.171" width="1" x="16.032" y="0" class="L"></rect><text x="16.032" y="1.67" class="M">w</text><rect height="2.171" width="1" x="17.034" y="0" class="N"></rect><text x="17.034" y="1.67" class="O">o</text><rect height="2.171" width="1" x="18.035999999999998" y="0" class="P"></rect><text x="18.035999999999998" y="1.67" class="Q">r</text><rect height="2.171" width="1" x="19.037999999999997" y="0" class="R"></rect><text x="19.037999999999997" y="1.67" class="S">k</text><rect height="2.171" width="1" x="20.04" y="0" class="T"></rect><text x="20.04" y="1.67" class="U"> </text><rect height="2.171" width="1" x="21.041999999999998" y="0" class="V"></rect><text x="21.041999999999998" y="1.67" class="W">i</text><rect height="2.171" width="1" x="22.043999999999997" y="0" class="X"></rect><text x="22.043999999999997" y="1.67" class="Y">n</text><rect height="2.171" width="1" x="23.045999999999996" y="0" class="Z"></rect><text x="23.045999999999996" y="1.67" class="aa"> </text><rect height="2.171" width="1" x="24.048" y="0" class="ab"></rect><text x="24.048" y="1.67" class="ac">T</text><rect height="2.171" width="1" x="25.05" y="0" class="ad"></rect><text x="25.05" y="1.67" class="ae">e</text><rect height="2.171" width="1" x="26.052" y="0" class="af"></rect><text x="26.052" y="1.67" class="ag">r</text><rect height="2.171" width="1" x="27.054" y="0" class="ah"></rect><text x="27.054" y="1.67" class="ai">m</text><rect height="2.171" width="1" x="28.055999999999997" y="0" class="aj"></rect><text x="28.055999999999997" y="1.67" class="ak">i</text><rect height="2.171" width="1" x="29.058" y="0" class="al"></rect><text x="29.058" y="1.67" class="am">n</text><rect height="2.171" width="1" x="30.059999999999995" y="0" class="an"></rect><text x="30.059999999999995" y="1.67" class="ao">a</text><rect height="2.171" width="1" x="31.061999999999998" y="0" class="ap"></rect><text x="31.061999999999998" y="1.67" class="aq">l</text><rect height="2.171" width="1" x="32.064" y="0" class="ar"></rect><text x="32.064" y="1.67" class="as">s</text><rect height="2.171" width="1" x="33.065999999999995" y="0" class="at"></rect><text x="33.065999999999995" y="1.67" class="au"> </text><rect height="2.171" width="1" x="34.068" y="0" class="av"></rect><text x="34.068" y="1.67" class="aw">w</text><rect height="2.171" width="1" x="35.06999999999999" y="0" class="ax"></rect><text x="35.06999999999999" y="1.67" class="ay">h</text><rect height="2.171" width="1" x="36.071999999999996" y="0" class="az"></rect><text x="36.071999999999996" y="1.67" class="aA">i</text><rect height="2.171" width="1" x="37.074" y="0" class="aB"></rect><text x="37.074" y="1.67" class="aC">c</text><rect height="2.171" width="1" x="38.07599999999999" y="0" class="aD"></rect><text x="38.07599999999999" y="1.67" class="aE">h</text><rect height="2.171" width="1" x="39.077999999999996" y="0" class="aF"></rect><text x="39.077999999999996" y="1.67" class="aG"> </text><rect height="2.171" width="1" x="40.08" y="0" class="aH"></rect><text x="40.08" y="1.67" class="aI">s</text><rect height="2.171" width="1" x="41.082" y="0" class="aJ"></rect><text x="41.082" y="1.67" class="aK">u</text><rect height="2.171" width="1" x="42.083999999999996" y="0" class="a"></rect><text x="42.083999999999996" y="1.67" class="aL">p</text><rect height="2.171" width="1" x="43.086" y="0" class="aM"></rect><text x="43.086" y="1.67" class="aN">p</text><rect height="2.171" width="1" x="44.087999999999994" y="0" class="aO"></rect><text x="44.087999999999994" y="1.67" class="aP">o</text><rect height="2.171" width="1" x="45.089999999999996" y="0" class="aQ"></rect><text x="45.089999999999996" y="1.67" class="aR">r</text><rect height="2.171" width="1" x="46.09199999999999" y="0" class="aS"></rect><text x="46.09199999999999" y="1.67" class="aT">t</text><rect height="2.171" width="1" x="47.093999999999994" y="0" class="aU"></rect><text x="47.093999999999994" y="1.67" class="aV"> </text><rect height="2.171" width="1" x="48.096" y="0" class="aW"></rect><text x="48.096" y="1.67" class="aX">T</text><rect height="2.171" width="1" x="49.098" y="0" class="aY"></rect><text x="49.098" y="1.67" class="aZ">r</text><rect height="2.171" width="1" x="50.1" y="0" class="ba"></rect><text x="50.1" y="1.67" class="bb">u</text><rect height="2.171" width="1" x="51.102" y="0" class="bc"></rect><text x="51.102" y="1.67" class="bd">e</text><rect height="2.171" width="1" x="52.104" y="0" class="be"></rect><text x="52.104" y="1.67" class="bf">C</text></svg><svg x="160"><use xlink:href="#a"></use><use xlink:href="#1" y="0"></use><use xlink:href="#2" y="2.171"></use><rect height="2.171" width="1" x="0" y="4.342" class="bq"></rect><text x="0" y="6.012" class="g">S</text><rect height="2.171" width="1" x="1.002" y="4.342" class="cH"></rect><text x="1.002" y="6.012" class="cI">t</text><rect height="2.171" width="1" x="2.004" y="4.342" class="cJ"></rect><text x="2.004" y="6.012" class="cK">y</text><rect height="2.171" width="1" x="3.006" y="4.342" class="cL"></rect><text x="3.006" y="6.012" class="cM">l</text><rect height="2.171" width="1" x="4.008" y="4.342" class="cN"></rect><text x="4.008" y="6.012" class="cO">e</text><rect height="2.171" width="1" x="5.01" y="4.342" class="cP"></rect><text x="5.01" y="6.012" class="cQ">s</text><rect height="2.171" width="1" x="6.012" y="4.342" class="cR"></rect><text x="6.012" y="6.012" class="cS"> </text><rect height="2.171" width="1" x="7.013999999999999" y="4.342" class="cT"></rect><text x="7.013999999999999" y="6.012" class="cU">c</text><rect height="2.171" width="1" x="8.016" y="4.342" class="cV"></rect><text x="8.016" y="6.012" class="cW">a</text><rect height="2.171" width="1" x="9.017999999999999" y="4.342" class="cX"></rect><text x="9.017999999999999" y="6.012" class="cY">n</text><rect height="2.171" width="1" x="10.02" y="4.342" class="cZ"></rect><text x="10.02" y="6.012" class="da"> </text><rect height="2.171" width="1" x="11.021999999999998" y="4.342" class="db"></rect><text x="11.021999999999998" y="6.012" class="dc">a</text><rect height="2.171" width="1" x="12.024" y="4.342" class="dd"></rect><text x="12.024" y="6.012" class="de">l</text><rect height="2.171" width="1" x="13.026" y="4.342" class="df"></rect><text x="13.026" y="6.012" class="dg">s</text><rect height="2.171" width="1" x="14.027999999999999" y="4.342" class="dh"></rect><text x="14.027999999999999" y="6.012" class="di">o</text><rect height="2.171" width="1" x="15.029999999999998" y="4.342" class="dj"></rect><text x="15.029999999999998" y="6.012" class="dk"> </text><rect height="2.171" width="1" x="16.032" y="4.342" class="dl"></rect><text x="16.032" y="6.012" class="dm">b</text><rect height="2.171" width="1" x="17.034" y="4.342" class="dn"></rect><text x="17.034" y="6.012" class="do">e</text><rect height="2.171" width="1" x="18.035999999999998" y="4.342" class="dp"></rect><text x="18.035999999999998" y="6.012" class="dq"> </text><rect height="2.171" width="1" x="19.037999999999997" y="4.342" class="dr"></rect><text x="19.037999999999997" y="6.012" class="ds">a</text><rect height="2.171" width="1" x="20.04" y="4.342" class="dt"></rect><text x="20.04" y="6.012" class="du">p</text><rect height="2.171" width="1" x="21.041999999999998" y="4.342" class="dv"></rect><text x="21.041999999999998" y="6.012" class="dw">p</text><rect height="2.171" width="1" x="22.043999999999997" y="4.342" class="dx"></rect><text x="22.043999999999997" y="6.012" class="dy">l</text><rect height="2.171" width="1" x="23.045999999999996" y="4.342" class="dz"></rect><text x="23.045999999999996" y="6.012" class="dA">i</text><rect height="2.171" width="1" x="24.048" y="4.342" class="dB"></rect><text x="24.048" y="6.012" class="dC">e</text><rect height="2.171" width="1" x="25.05" y="4.342" class="dD"></rect><text x="25.05" y="6.012" class="dE">d</text><rect height="2.171" width="1" x="26.052" y="4.342" class="dF"></rect><text x="26.052" y="6.012" class="dG">.</text><rect height="2.171" width="1" x="27.054" y="4.342" class="dH"></rect><text x="27.054" y="6.012" class="dI"> </text><rect height="2.171" width="1" x="28.055999999999997" y="4.342" class="dJ"></rect><text x="28.055999999999997" y="6.012" class="dK">F</text><rect height="2.171" width="1" x="29.058" y="4.342" class="dL"></rect><text x="29.058" y="6.012" class="dM">o</text><rect height="2.171" width="1" x="30.059999999999995" y="4.342" class="dN"></rect><text x="30.059999999999995" y="6.012" class="dO">r</text><rect height="2.171" width="1" x="31.061999999999998" y="4.342" class="dP"></rect><text x="31.061999999999998" y="6.012" class="dQ"> </text><rect height="2.171" width="1" x="32.064" y="4.342" class="dR"></rect><text x="32.064" y="6.012" class="dS">e</text><rect height="2.171" width="1" x="33.065999999999995" y="4.342" class="dT"></rect><text x="33.065999999999995" y="6.012" class="dU">x</text><rect height="2.171" width="1" x="34.068" y="4.342" class="dV"></rect><text x="34.068" y="6.012" class="dW">a</text><rect height="2.171" width="1" x="35.06999999999999" y="4.342" class="dX"></rect><text x="35.06999999999999" y="6.012" class="dY">m</text><rect height="2.171" width="1" x="36.071999999999996" y="4.342" class="dZ"></rect><text x="36.071999999999996" y="6.012" class="ea">p</text><rect height="2.171" width="1" x="37.074" y="4.342" class="eb"></rect><text x="37.074" y="6.012" class="ec">l</text><rect height="2.171" width="1" x="38.07599999999999" y="4.342" class="ed"></rect><text x="38.07599999999999" y="6.012" class="ee">e</text><rect height="2.171" width="1" x="39.077999999999996" y="4.342" class="ef"></rect><text x="39.077999999999996" y="6.012" class="eg">:</text><rect height="2.171" width="1" x="40.08" y="4.342" class="eh"></rect><text x="40.08" y="6.012" class="ei"> </text><rect height="2.171" width="1" x="41.082" y="4.342" class="ej"></rect><text x="41.082" y="6.012" class="ek">B</text><rect height="2.171" width="1" x="42.083999999999996" y="4.342" class="el"></rect><text x="42.083999999999996" y="6.012" class="em">o</text><rect height="2.171" width="1" x="43.086" y="4.342" class="en"></rect><text x="43.086" y="6.012" class="eo">l</text></svg><svg x="240"><use xlink:href="#a"></use><use xlink:href="#1" y="0"></use><use xlink:href="#2" y="2.171"></use><use xlink:href="#3" y="4.342"></use></svg><svg x="320"><use xlink:href="#a"></use><use xlink:href="#1" y="0"></use><use xlink:href="#2" y="2.171"></use><use xlink:href="#3" y="4.342"></use><text x="0" y="10.354" class="eQ">Restarting</text><text x="11.021999999999998" y="10.354" class="eQ">animation...</text></svg></svg></g></g></svg></svg>