<svg xmlns="http://www.w3.org/2000/svg" xmlns:xlink="http://www.w3.org/1999/xlink" width="840" height="581.04"><rect width="840" height="581.04" rx="5" ry="5" class="a"></rect><svg y="0%" x="0%"><circle cx="20" cy="20" r="6" class="b"></circle><circle cx="40" cy="20" r="6" class="c"></circle><circle cx="60" cy="20" r="6" class="d"></circle></svg><svg height="521.04" viewBox="0 0 80 52.104" width="800" x="15" xmlns="http://www.w3.org/2000/svg" xmlns:xlink="http://www.w3.org/1999/xlink" y="50"><style>.e, .g, .f {
	font-family:
			'Courier New'
			Roboto,
			Helvetica,
			Arial,
			sans-serif,
			'Apple Color Emoji',
			'Segoe UI Emoji' !important;
}.a{fill:rgb(35,35,35)}.b{fill:#ff5f58}.c{fill:#ffbd2e}.d{fill:#18c132}.e{font-family:'Courier New',Monaco,Consolas,Menlo,'Bitstream Vera Sans Mono','Powerline Symbols',monospace}.f{fill:rgb(160,160,160);white-space:pre}.g{fill:transparent}.i{animation-duration:5.019661s;animation-iteration-count:infinite;animation-name:h;animation-timing-function:steps(1,end)}@keyframes h{0%{transform:translateX(-0px)}0.3%{transform:translateX(-80px)}0.4%{transform:translateX(-160px)}100%{transform:translateX(-240px)}}</style><g font-family="'Courier New',Monaco, Consolas, Menlo, &#x27;Bitstream Vera Sans Mono&#x27;, &#x27;Powerline Symbols&#x27;, monospace" font-size="1.67" class="e"><defs><symbol id="1"><text x="20.04" y="1.67" class="f">This</text><text x="25.05" y="1.67" class="f">text</text><text x="30.059999999999995" y="1.67" class="f">is</text><text x="33.065999999999995" y="1.67" class="f">centered!</text></symbol><symbol id="2"><text x="20.04" y="1.67" class="f">It</text><text x="23.045999999999996" y="1.67" class="f">centers</text><text x="31.061999999999998" y="1.67" class="f">the</text><text x="35.06999999999999" y="1.67" class="f">whole</text><text x="41.082" y="1.67" class="f">block</text><text x="47.093999999999994" y="1.67" class="f">by</text><text x="50.1" y="1.67" class="f">default.</text></symbol><symbol id="3"><text x="20.04" y="1.67" class="f">In</text><text x="23.045999999999996" y="1.67" class="f">that</text><text x="28.055999999999997" y="1.67" class="f">way</text><text x="32.064" y="1.67" class="f">you</text><text x="36.071999999999996" y="1.67" class="f">can</text><text x="40.08" y="1.67" class="f">do</text><text x="43.086" y="1.67" class="f">stuff</text><text x="49.098" y="1.67" class="f">like</text><text x="54.108" y="1.67" class="f">this:</text></symbol><symbol id="4"><text x="18.035999999999998" y="1.67" class="f">██████</text><text x="26.052" y="1.67" class="f">████████</text><text x="35.06999999999999" y="1.67" class="f">███████</text><text x="43.086" y="1.67" class="f">██████</text><text x="51.102" y="1.67" class="f">███</text><text x="58.116" y="1.67" class="f">███</text></symbol><symbol id="5"><text x="18.035999999999998" y="1.67" class="f">██</text><text x="23.045999999999996" y="1.67" class="f">██</text><text x="29.058" y="1.67" class="f">██</text><text x="35.06999999999999" y="1.67" class="f">██</text><text x="43.086" y="1.67" class="f">██</text><text x="48.096" y="1.67" class="f">██</text><text x="51.102" y="1.67" class="f">████</text><text x="57.114" y="1.67" class="f">████</text></symbol><symbol id="6"><text x="18.035999999999998" y="1.67" class="f">██████</text><text x="29.058" y="1.67" class="f">██</text><text x="35.06999999999999" y="1.67" class="f">█████</text><text x="43.086" y="1.67" class="f">██████</text><text x="51.102" y="1.67" class="f">██</text><text x="54.108" y="1.67" class="f">████</text><text x="59.117999999999995" y="1.67" class="f">██</text></symbol><symbol id="7"><text x="18.035999999999998" y="1.67" class="f">██</text><text x="29.058" y="1.67" class="f">██</text><text x="35.06999999999999" y="1.67" class="f">██</text><text x="43.086" y="1.67" class="f">██</text><text x="48.096" y="1.67" class="f">██</text><text x="51.102" y="1.67" class="f">██</text><text x="55.10999999999999" y="1.67" class="f">██</text><text x="59.117999999999995" y="1.67" class="f">██</text></symbol><symbol id="8"><text x="18.035999999999998" y="1.67" class="f">██</text><text x="29.058" y="1.67" class="f">██</text><text x="35.06999999999999" y="1.67" class="f">███████</text><text x="43.086" y="1.67" class="f">██</text><text x="48.096" y="1.67" class="f">██</text><text x="51.102" y="1.67" class="f">██</text><text x="59.117999999999995" y="1.67" class="f">██</text></symbol><symbol id="9"><text x="29.058" y="1.67" class="f">This</text><text x="34.068" y="1.67" class="f">text</text><text x="39.077999999999996" y="1.67" class="f">is</text><text x="42.083999999999996" y="1.67" class="f">centered!</text></symbol><symbol id="10"><text x="32.064" y="1.67" class="f">But</text><text x="36.071999999999996" y="1.67" class="f">each</text><text x="41.082" y="1.67" class="f">line</text><text x="46.09199999999999" y="1.67" class="f">is</text></symbol><symbol id="11"><text x="36.071999999999996" y="1.67" class="f">centered</text></symbol><symbol id="12"><text x="35.06999999999999" y="1.67" class="f">separately</text></symbol><symbol id="a"><rect height="24" width="80" x="0" y="0" class="g"></rect></symbol></defs><rect height="52.104" width="80" class="a"></rect><g class="i"><svg x="0" y="0" width="320"><svg x="0"><use xlink:href="#a"></use></svg><svg x="80"><use xlink:href="#a"></use><use xlink:href="#1" y="0"></use><use xlink:href="#2" y="2.171"></use><use xlink:href="#3" y="4.342"></use></svg><svg x="160"><use xlink:href="#a"></use><use xlink:href="#1" y="0"></use><use xlink:href="#2" y="2.171"></use><use xlink:href="#3" y="4.342"></use><use xlink:href="#4" y="8.684"></use><use xlink:href="#5" y="10.855"></use><use xlink:href="#6" y="13.026"></use><use xlink:href="#7" y="15.197"></use><use xlink:href="#8" y="17.368"></use><use xlink:href="#9" y="23.880999999999997"></use><use xlink:href="#10" y="26.052"></use><use xlink:href="#11" y="28.223000000000003"></use><use xlink:href="#12" y="30.394"></use></svg><svg x="240"><use xlink:href="#a"></use><use xlink:href="#1" y="0"></use><use xlink:href="#2" y="2.171"></use><use xlink:href="#3" y="4.342"></use><use xlink:href="#4" y="8.684"></use><use xlink:href="#5" y="10.855"></use><use xlink:href="#6" y="13.026"></use><use xlink:href="#7" y="15.197"></use><use xlink:href="#8" y="17.368"></use><use xlink:href="#9" y="23.880999999999997"></use><use xlink:href="#10" y="26.052"></use><use xlink:href="#11" y="28.223000000000003"></use><use xlink:href="#12" y="30.394"></use><text x="0" y="38.577000000000005" class="f">Restarting</text><text x="11.021999999999998" y="38.577000000000005" class="f">animation...</text></svg></svg></g></g></svg></svg>