<svg xmlns="http://www.w3.org/2000/svg" xmlns:xlink="http://www.w3.org/1999/xlink" width="840" height="581.04"><rect width="840" height="581.04" rx="5" ry="5" class="a"></rect><svg y="0%" x="0%"><circle cx="20" cy="20" r="6" class="b"></circle><circle cx="40" cy="20" r="6" class="c"></circle><circle cx="60" cy="20" r="6" class="d"></circle></svg><svg height="521.04" viewBox="0 0 80 52.104" width="800" x="15" xmlns="http://www.w3.org/2000/svg" xmlns:xlink="http://www.w3.org/1999/xlink" y="50"><style>.e, .g, .f {
	font-family:
			'Courier New'
			Roboto,
			Helvetica,
			Arial,
			sans-serif,
			'Apple Color Emoji',
			'Segoe UI Emoji' !important;
}.a{fill:rgb(35,35,35)}.b{fill:#ff5f58}.c{fill:#ffbd2e}.d{fill:#18c132}.e{font-family:'Courier New',Monaco,Consolas,Menlo,'Bitstream Vera Sans Mono','Powerline Symbols',monospace}.f{fill:rgb(126,231,233);white-space:pre}.g{fill:rgb(234,89,246);white-space:pre}.h{fill:rgb(124,255,0);white-space:pre}.i{fill:rgb(102,194,205)}.j{white-space:pre}.k{fill:transparent}.l{fill:rgb(160,160,160)}.n{animation-duration:7.229906s;animation-iteration-count:infinite;animation-name:m;animation-timing-function:steps(1,end)}.o{fill:rgb(160,160,160);white-space:pre}@keyframes m{0%{transform:translateX(-0px)}3.1%{transform:translateX(-80px)}30.8%{transform:translateX(-160px)}30.8%{transform:translateX(-240px)}30.8%{transform:translateX(-320px)}30.8%{transform:translateX(-400px)}100%{transform:translateX(-480px)}}</style><g font-family="'Courier New',Monaco, Consolas, Menlo, &#x27;Bitstream Vera Sans Mono&#x27;, &#x27;Powerline Symbols&#x27;, monospace" font-size="1.67" class="e"><defs><symbol id="1"><text x="0" y="1.67" class="f">Do</text><text x="3.006" y="1.67" class="f">you</text><text x="7.013999999999999" y="1.67" class="f">want</text><text x="12.024" y="1.67" class="f">to</text><text x="15.029999999999998" y="1.67" class="f">continue</text><text x="24.048" y="1.67" class="g">[Yes/no/all/cancel]</text><text x="43.086" y="1.67" class="f">:</text><text x="45.089999999999996" y="1.67" class="h">yes</text></symbol><symbol id="2"><rect height="2.171" width="6" x="0" y="0" class="i"></rect><text x="0" y="1.67" class="j"> INFO </text><text x="7.013999999999999" y="1.67" class="f">You</text><text x="11.021999999999998" y="1.67" class="f">answered:</text><text x="21.041999999999998" y="1.67" class="f">yes</text></symbol><symbol id="a"><rect height="24" width="80" x="0" y="0" class="k"></rect></symbol><symbol id="b"><rect height="2.171" width="1.1022" class="l"></rect></symbol></defs><rect height="52.104" width="80" class="a"></rect><g class="n"><svg x="0" y="0" width="560"><svg x="0"><use xlink:href="#a"></use><use xlink:href="#b" x="-0.0040000000000000036" y="0"></use></svg><svg x="80"><use xlink:href="#a"></use><use xlink:href="#b" x="44.996" y="0"></use><text x="0" y="1.67" class="f">Do</text><text x="3.006" y="1.67" class="f">you</text><text x="7.013999999999999" y="1.67" class="f">want</text><text x="12.024" y="1.67" class="f">to</text><text x="15.029999999999998" y="1.67" class="f">continue</text><text x="24.048" y="1.67" class="g">[Yes/no/all/cancel]</text><text x="43.086" y="1.67" class="f">:</text></svg><svg x="160"><use xlink:href="#a"></use><use xlink:href="#b" x="47.996" y="0"></use><use xlink:href="#1" y="0"></use></svg><svg x="240"><use xlink:href="#a"></use><use xlink:href="#b" x="-0.0040000000000000036" y="2.146"></use><use xlink:href="#1" y="0"></use></svg><svg x="320"><use xlink:href="#a"></use><use xlink:href="#b" x="-0.0040000000000000036" y="4.317"></use><use xlink:href="#1" y="0"></use></svg><svg x="400"><use xlink:href="#a"></use><use xlink:href="#b" x="-0.0040000000000000036" y="6.4879999999999995"></use><use xlink:href="#1" y="0"></use><use xlink:href="#2" y="4.342"></use></svg><svg x="480"><use xlink:href="#a"></use><use xlink:href="#b" x="22.996" y="10.83"></use><use xlink:href="#1" y="0"></use><use xlink:href="#2" y="4.342"></use><text x="0" y="10.354" class="o">Restarting</text><text x="11.021999999999998" y="10.354" class="o">animation...</text></svg></svg></g></g></svg></svg>