<svg xmlns="http://www.w3.org/2000/svg" xmlns:xlink="http://www.w3.org/1999/xlink" width="840" height="581.04"><rect width="840" height="581.04" rx="5" ry="5" class="a"></rect><svg y="0%" x="0%"><circle cx="20" cy="20" r="6" class="b"></circle><circle cx="40" cy="20" r="6" class="c"></circle><circle cx="60" cy="20" r="6" class="d"></circle></svg><svg height="521.04" viewBox="0 0 80 52.104" width="800" x="15" xmlns="http://www.w3.org/2000/svg" xmlns:xlink="http://www.w3.org/1999/xlink" y="50"><style>.e, .g, .f {
	font-family:
			'Courier New'
			Roboto,
			Helvetica,
			Arial,
			sans-serif,
			'Apple Color Emoji',
			'Segoe UI Emoji' !important;
}.a{fill:rgb(35,35,35)}.b{fill:#ff5f58}.c{fill:#ffbd2e}.d{fill:#18c132}.e{font-family:'Courier New',Monaco,Consolas,Menlo,'Bitstream Vera Sans Mono','Powerline Symbols',monospace}.f{fill:rgb(104,104,104);white-space:pre}.g{fill:rgb(160,160,160);white-space:pre}.h{fill:transparent}.j{animation-duration:5.006552s;animation-iteration-count:infinite;animation-name:i;animation-timing-function:steps(1,end)}@keyframes i{0%{transform:translateX(-0px)}0.1%{transform:translateX(-80px)}0.1%{transform:translateX(-160px)}100%{transform:translateX(-240px)}}</style><g font-family="'Courier New',Monaco, Consolas, Menlo, &#x27;Bitstream Vera Sans Mono&#x27;, &#x27;Powerline Symbols&#x27;, monospace" font-size="1.67" class="e"><defs><symbol id="1"><text x="0" y="1.67" class="f">├─┬</text><text x="3.006" y="1.67" class="g">C:</text></symbol><symbol id="2"><text x="0" y="1.67" class="f">│</text><text x="2.004" y="1.67" class="f">├──</text><text x="5.01" y="1.67" class="g">Users</text></symbol><symbol id="3"><text x="0" y="1.67" class="f">│</text><text x="2.004" y="1.67" class="f">├──</text><text x="5.01" y="1.67" class="g">Windows</text></symbol><symbol id="4"><text x="0" y="1.67" class="f">│</text><text x="2.004" y="1.67" class="f">├──</text><text x="5.01" y="1.67" class="g">Programs</text></symbol><symbol id="5"><text x="0" y="1.67" class="f">│</text><text x="2.004" y="1.67" class="f">├──</text><text x="5.01" y="1.67" class="g">Programs(x86)</text></symbol><symbol id="6"><text x="0" y="1.67" class="f">│</text><text x="2.004" y="1.67" class="f">└──</text><text x="5.01" y="1.67" class="g">dev</text></symbol><symbol id="7"><text x="0" y="1.67" class="f">├──</text><text x="3.006" y="1.67" class="g">D:</text></symbol><symbol id="8"><text x="0" y="1.67" class="f">├─┬</text><text x="3.006" y="1.67" class="g">E:</text></symbol><symbol id="9"><text x="0" y="1.67" class="f">│</text><text x="2.004" y="1.67" class="f">├──</text><text x="5.01" y="1.67" class="g">Movies</text></symbol><symbol id="10"><text x="0" y="1.67" class="f">│</text><text x="2.004" y="1.67" class="f">├─┬</text><text x="5.01" y="1.67" class="g">Music</text></symbol><symbol id="11"><text x="0" y="1.67" class="f">│</text><text x="2.004" y="1.67" class="f">│</text><text x="4.008" y="1.67" class="f">└──</text><text x="7.013999999999999" y="1.67" class="g">LinkinPark</text></symbol><symbol id="12"><text x="0" y="1.67" class="f">│</text><text x="2.004" y="1.67" class="f">└─┬</text><text x="5.01" y="1.67" class="g">Games</text></symbol><symbol id="13"><text x="0" y="1.67" class="f">│</text><text x="4.008" y="1.67" class="f">└─┬</text><text x="7.013999999999999" y="1.67" class="g">Shooter</text></symbol><symbol id="14"><text x="0" y="1.67" class="f">│</text><text x="6.012" y="1.67" class="f">├──</text><text x="9.017999999999999" y="1.67" class="g">CallOfDuty</text></symbol><symbol id="15"><text x="0" y="1.67" class="f">│</text><text x="6.012" y="1.67" class="f">├──</text><text x="9.017999999999999" y="1.67" class="g">CS:GO</text></symbol><symbol id="16"><text x="0" y="1.67" class="f">│</text><text x="6.012" y="1.67" class="f">└─┬</text><text x="9.017999999999999" y="1.67" class="g">Battlefield</text></symbol><symbol id="17"><text x="0" y="1.67" class="f">│</text><text x="8.016" y="1.67" class="f">├──</text><text x="11.021999999999998" y="1.67" class="g">Battlefield</text><text x="23.045999999999996" y="1.67" class="g">1</text></symbol><symbol id="18"><text x="0" y="1.67" class="f">│</text><text x="8.016" y="1.67" class="f">└──</text><text x="11.021999999999998" y="1.67" class="g">Battlefield</text><text x="23.045999999999996" y="1.67" class="g">2</text></symbol><symbol id="19"><text x="0" y="1.67" class="f">└─┬</text><text x="3.006" y="1.67" class="g">F:</text></symbol><symbol id="20"><text x="2.004" y="1.67" class="f">└─┬</text><text x="5.01" y="1.67" class="g">dev</text></symbol><symbol id="21"><text x="4.008" y="1.67" class="f">├──</text><text x="7.013999999999999" y="1.67" class="g">dops</text></symbol><symbol id="22"><text x="4.008" y="1.67" class="f">└──</text><text x="7.013999999999999" y="1.67" class="g">PTerm</text></symbol><symbol id="a"><rect height="24" width="80" x="0" y="0" class="h"></rect></symbol></defs><rect height="52.104" width="80" class="a"></rect><g class="j"><svg x="0" y="0" width="320"><svg x="0"><use xlink:href="#a"></use></svg><svg x="80"><use xlink:href="#a"></use><text x="0" y="1.67" class="g">Computer</text><use xlink:href="#1" y="2.171"></use><use xlink:href="#2" y="4.342"></use><use xlink:href="#3" y="6.513"></use><use xlink:href="#4" y="8.684"></use><use xlink:href="#5" y="10.855"></use><use xlink:href="#6" y="13.026"></use><use xlink:href="#7" y="15.197"></use><use xlink:href="#8" y="17.368"></use></svg><svg x="160"><use xlink:href="#a"></use><use xlink:href="#1" y="0"></use><use xlink:href="#2" y="2.171"></use><use xlink:href="#3" y="4.342"></use><use xlink:href="#4" y="6.513"></use><use xlink:href="#5" y="8.684"></use><use xlink:href="#6" y="10.855"></use><use xlink:href="#7" y="13.026"></use><use xlink:href="#8" y="15.197"></use><use xlink:href="#9" y="17.368"></use><use xlink:href="#10" y="19.539"></use><use xlink:href="#11" y="21.71"></use><use xlink:href="#12" y="23.880999999999997"></use><use xlink:href="#13" y="26.052"></use><use xlink:href="#14" y="28.223000000000003"></use><use xlink:href="#15" y="30.394"></use><use xlink:href="#16" y="32.565"></use><use xlink:href="#17" y="34.736"></use><use xlink:href="#18" y="36.907000000000004"></use><use xlink:href="#19" y="39.078"></use><use xlink:href="#20" y="41.248999999999995"></use><use xlink:href="#21" y="43.42"></use><use xlink:href="#22" y="45.591"></use></svg><svg x="240"><use xlink:href="#a"></use><use xlink:href="#3" y="0"></use><use xlink:href="#4" y="2.171"></use><use xlink:href="#5" y="4.342"></use><use xlink:href="#6" y="6.513"></use><use xlink:href="#7" y="8.684"></use><use xlink:href="#8" y="10.855"></use><use xlink:href="#9" y="13.026"></use><use xlink:href="#10" y="15.197"></use><use xlink:href="#11" y="17.368"></use><use xlink:href="#12" y="19.539"></use><use xlink:href="#13" y="21.71"></use><use xlink:href="#14" y="23.880999999999997"></use><use xlink:href="#15" y="26.052"></use><use xlink:href="#16" y="28.223000000000003"></use><use xlink:href="#17" y="30.394"></use><use xlink:href="#18" y="32.565"></use><use xlink:href="#19" y="34.736"></use><use xlink:href="#20" y="36.907000000000004"></use><use xlink:href="#21" y="39.078"></use><use xlink:href="#22" y="41.248999999999995"></use><text x="0" y="49.431999999999995" class="g">Restarting</text><text x="11.021999999999998" y="49.431999999999995" class="g">animation...</text></svg></svg></g></g></svg></svg>