<svg xmlns="http://www.w3.org/2000/svg" xmlns:xlink="http://www.w3.org/1999/xlink" width="840" height="581.04"><rect width="840" height="581.04" rx="5" ry="5" class="a"></rect><svg y="0%" x="0%"><circle cx="20" cy="20" r="6" class="b"></circle><circle cx="40" cy="20" r="6" class="c"></circle><circle cx="60" cy="20" r="6" class="d"></circle></svg><svg height="521.04" viewBox="0 0 80 52.104" width="800" x="15" xmlns="http://www.w3.org/2000/svg" xmlns:xlink="http://www.w3.org/1999/xlink" y="50"><style>.e, .g, .f {
	font-family:
			'Courier New'
			Roboto,
			Helvetica,
			Arial,
			sans-serif,
			'Apple Color Emoji',
			'Segoe UI Emoji' !important;
}.a{fill:rgb(35,35,35)}.b{fill:#ff5f58}.c{fill:#ffbd2e}.d{fill:#18c132}.e{font-family:'Courier New',Monaco,Consolas,Menlo,'Bitstream Vera Sans Mono','Powerline Symbols',monospace}.f{fill:rgb(160,160,160);white-space:pre}.g{fill:rgb(126,231,233);white-space:pre}.h{fill:rgb(104,104,104);white-space:pre}.i{fill:rgb(111,119,131)}.j{fill:transparent}.l{animation-duration:5.36385s;animation-iteration-count:infinite;animation-name:k;animation-timing-function:steps(1,end)}@keyframes k{0%{transform:translateX(-0px)}5.6%{transform:translateX(-80px)}6.8%{transform:translateX(-160px)}100%{transform:translateX(-240px)}}</style><g font-family="'Courier New',Monaco, Consolas, Menlo, &#x27;Bitstream Vera Sans Mono&#x27;, &#x27;Powerline Symbols&#x27;, monospace" font-size="1.67" class="e"><defs><symbol id="1"><text x="0" y="1.67" class="f">┌───────────────────────────────────────────────────────────────────────┐</text></symbol><symbol id="2"><text x="0" y="1.67" class="f">|</text><text x="2.004" y="1.67" class="g">Firstname</text><text x="12.024" y="1.67" class="h">|</text><text x="14.027999999999999" y="1.67" class="g">Lastname</text><text x="23.045999999999996" y="1.67" class="h">|</text><text x="25.05" y="1.67" class="g">Email</text><text x="50.1" y="1.67" class="h">|</text><text x="52.104" y="1.67" class="g">Note</text><text x="72.14399999999999" y="1.67" class="f">|</text></symbol><symbol id="3"><text x="0" y="1.67" class="f">|</text><rect height="2.171" width="9" x="2.004" y="0" class="i"></rect><text x="2.004" y="1.67" class="f">Paul     </text><rect height="2.171" width="3" x="11.021999999999998" y="0" class="i"></rect><text x="11.021999999999998" y="1.67" class="h"> | </text><rect height="2.171" width="8" x="14.027999999999999" y="0" class="i"></rect><text x="14.027999999999999" y="1.67" class="f">Dean    </text><rect height="2.171" width="3" x="22.043999999999997" y="0" class="i"></rect><text x="22.043999999999997" y="1.67" class="h"> | </text><rect height="2.171" width="24" x="25.05" y="0" class="i"></rect><text x="25.05" y="1.67" class="f">augue@velitAliquam.co.uk</text><rect height="2.171" width="3" x="49.098" y="0" class="i"></rect><text x="49.098" y="1.67" class="h"> | </text><rect height="2.171" width="19" x="52.104" y="0" class="i"></rect><text x="52.104" y="1.67" class="f">                   </text><text x="72.14399999999999" y="1.67" class="f">|</text></symbol><symbol id="4"><text x="0" y="1.67" class="f">|</text><text x="2.004" y="1.67" class="f">Callie</text><text x="12.024" y="1.67" class="h">|</text><text x="14.027999999999999" y="1.67" class="f">Mckay</text><text x="23.045999999999996" y="1.67" class="h">|</text><text x="25.05" y="1.67" class="f">nunc.sed@est.com</text><text x="50.1" y="1.67" class="h">|</text><text x="52.104" y="1.67" class="f">这是一个测试,</text><text x="60.11999999999999" y="1.67" class="f">haha!</text><text x="66.13199999999999" y="1.67" class="f">|</text></symbol><symbol id="5"><text x="0" y="1.67" class="f">|</text><rect height="2.171" width="9" x="2.004" y="0" class="i"></rect><text x="2.004" y="1.67" class="f">Libby    </text><rect height="2.171" width="3" x="11.021999999999998" y="0" class="i"></rect><text x="11.021999999999998" y="1.67" class="h"> | </text><rect height="2.171" width="8" x="14.027999999999999" y="0" class="i"></rect><text x="14.027999999999999" y="1.67" class="f">Camacho </text><rect height="2.171" width="3" x="22.043999999999997" y="0" class="i"></rect><text x="22.043999999999997" y="1.67" class="h"> | </text><rect height="2.171" width="24" x="25.05" y="0" class="i"></rect><text x="25.05" y="1.67" class="f">lobortis@semper.com     </text><rect height="2.171" width="3" x="49.098" y="0" class="i"></rect><text x="49.098" y="1.67" class="h"> | </text><rect height="2.171" width="19" x="52.104" y="0" class="i"></rect><text x="52.104" y="1.67" class="f">just a test, hey!  </text><text x="72.14399999999999" y="1.67" class="f">|</text></symbol><symbol id="6"><text x="0" y="1.67" class="f">|</text><text x="2.004" y="1.67" class="f">张</text><text x="11.021999999999998" y="1.67" class="h">|</text><text x="13.026" y="1.67" class="f">小宝</text><text x="20.04" y="1.67" class="h">|</text><text x="22.043999999999997" y="1.67" class="f">zhang@example.com</text><text x="47.093999999999994" y="1.67" class="h">|</text><text x="69.13799999999999" y="1.67" class="f">|</text></symbol><symbol id="7"><text x="0" y="1.67" class="f">└───────────────────────────────────────────────────────────────────────┘</text></symbol><symbol id="a"><rect height="24" width="80" x="0" y="0" class="j"></rect></symbol></defs><rect height="52.104" width="80" class="a"></rect><g class="l"><svg x="0" y="0" width="320"><svg x="0"><use xlink:href="#a"></use></svg><svg x="80"><use xlink:href="#a"></use><use xlink:href="#1" y="0"></use><use xlink:href="#2" y="2.171"></use><use xlink:href="#3" y="4.342"></use><use xlink:href="#4" y="6.513"></use><use xlink:href="#5" y="8.684"></use><use xlink:href="#6" y="10.855"></use><text x="0" y="14.696" class="f">└───────────────────────────────────────────────────────────</text></svg><svg x="160"><use xlink:href="#a"></use><use xlink:href="#1" y="0"></use><use xlink:href="#2" y="2.171"></use><use xlink:href="#3" y="4.342"></use><use xlink:href="#4" y="6.513"></use><use xlink:href="#5" y="8.684"></use><use xlink:href="#6" y="10.855"></use><use xlink:href="#7" y="13.026"></use></svg><svg x="240"><use xlink:href="#a"></use><use xlink:href="#1" y="0"></use><use xlink:href="#2" y="2.171"></use><use xlink:href="#3" y="4.342"></use><use xlink:href="#4" y="6.513"></use><use xlink:href="#5" y="8.684"></use><use xlink:href="#6" y="10.855"></use><use xlink:href="#7" y="13.026"></use><text x="0" y="19.037999999999997" class="f">Restarting</text><text x="11.021999999999998" y="19.037999999999997" class="f">animation...</text></svg></svg></g></g></svg></svg>