<svg xmlns="http://www.w3.org/2000/svg" xmlns:xlink="http://www.w3.org/1999/xlink" width="840" height="581.04"><rect width="840" height="581.04" rx="5" ry="5" class="a"></rect><svg y="0%" x="0%"><circle cx="20" cy="20" r="6" class="b"></circle><circle cx="40" cy="20" r="6" class="c"></circle><circle cx="60" cy="20" r="6" class="d"></circle></svg><svg height="521.04" viewBox="0 0 80 52.104" width="800" x="15" y="50" xmlns="http://www.w3.org/2000/svg" xmlns:xlink="http://www.w3.org/1999/xlink"><style>.e, .g, .f {
    font-family: 
            'Courier New', 
            Roboto, 
            Helvetica, 
            Arial, 
            sans-serif, 
            'Apple Color Emoji', 
            'Segoe UI Emoji' !important;
}.a {fill: rgb(35, 35, 35);}.b {fill: #ff5f58;}.c {fill: #ffbd2e;}.d {fill: #18c132;}.e {font-family: 'Courier New', Monaco, Consolas, Menlo, 'Bitstream Vera Sans Mono', 'Powerline Symbols', monospace;}.f {fill: rgb(160, 160, 160);white-space: pre;}.g {fill: rgb(126, 231, 233);white-space: pre;}.h {fill: rgb(104, 104, 104);white-space: pre;}.i {fill: transparent;}.j {fill: rgb(50, 50, 50);white-space: pre;}.k {animation-duration: 5.221808s;animation-iteration-count: infinite;animation-name: l;animation-timing-function: steps(1, end);}@keyframes l {0% {transform: translateX(-0px);}1.5% {transform: translateX(-80px);}4.2% {transform: translateX(-160px);}4.2% {transform: translateX(-240px);}100% {transform: translateX(-320px);}}</style><g font-family="'Courier New', Monaco, Consolas, Menlo, 'Bitstream Vera Sans Mono', 'Powerline Symbols', monospace" font-size="1.67" class="e"><defs><symbol id="1"><text x="0" y="1.67" class="f">┌───────────────────────────────────────────────────────────────────────┐</text></symbol><symbol id="2"><text x="0" y="1.67" class="f">|</text><text x="2.004" y="1.67" class="g">Firstname</text><text x="12.024" y="1.67" class="h">|</text><text x="14.028" y="1.67" class="g">Lastname</text><text x="23.046" y="1.67" class="h">|</text><text x="25.05" y="1.67" class="g">Email</text><text x="50.1" y="1.67" class="h">|</text><text x="52.104" y="1.67" class="g">Note</text><text x="72.144" y="1.67" class="f">|</text></symbol><symbol id="3"><rect width="80" height="2.171" y="0" class="i"></rect><text x="0" y="1.67" class="f">|</text><text x="2.004" y="1.67" class="f">Paul</text><text x="12.024" y="1.67" class="h">|</text><text x="14.028" y="1.67" class="f">Dean</text><text x="23.046" y="1.67" class="h">|</text><text x="25.05" y="1.67" class="f">augue@velitAliquam.co.uk</text><text x="50.1" y="1.67" class="h">|</text><text x="72.144" y="1.67" class="f">|</text></symbol><symbol id="4"><rect width="72.144" height="2.171" y="0" class="j"></rect><text x="0" y="1.67" class="f">|</text><text x="2.004" y="1.67" class="f">Callie</text><text x="12.024" y="1.67" class="h">|</text><text x="14.028" y="1.67" class="f">Mckay</text><text x="23.046" y="1.67" class="h">|</text><text x="25.05" y="1.67" class="f">nunc.sed@est.com</text><text x="50.1" y="1.67" class="h">|</text><text x="52.104" y="1.67" class="f">这是一个测试,</text><text x="60.12" y="1.67" class="f">haha!</text><text x="72.144" y="1.67" class="f">|</text></symbol><symbol id="5"><rect width="80" height="2.171" y="0" class="i"></rect><text x="0" y="1.67" class="f">|</text><text x="2.004" y="1.67" class="f">Libby</text><text x="12.024" y="1.67" class="h">|</text><text x="14.028" y="1.67" class="f">Camacho</text><text x="23.046" y="1.67" class="h">|</text><text x="25.05" y="1.67" class="f">lobortis@semper.com</text><text x="50.1" y="1.67" class="h">|</text><text x="52.104" y="1.67" class="f">just</text><text x="57.114" y="1.67" class="f">a</text><text x="59.118" y="1.67" class="f">test,</text><text x="65.13" y="1.67" class="f">hey!</text><text x="72.144" y="1.67" class="f">|</text></symbol><symbol id="6"><rect width="72.144" height="2.171" y="0" class="j"></rect><text x="0" y="1.67" class="f">|</text><text x="2.004" y="1.67" class="f">张</text><text x="12.024" y="1.67" class="h">|</text><text x="14.028" y="1.67" class="f">小宝</text><text x="23.046" y="1.67" class="h">|</text><text x="25.05" y="1.67" class="f">zhang@example.com</text><text x="50.1" y="1.67" class="h">|</text><text x="72.144" y="1.67" class="f">|</text></symbol><symbol id="7"><text x="0" y="1.67" class="f">└───────────────────────────────────────────────────────────────────────┘</text></symbol><symbol id="a"><rect height="24" width="80" x="0" y="0" class="i"></rect></symbol></defs><rect height="52.104" width="80" class="a"></rect><g class="k"><svg x="0" y="0" width="400"><svg x="0"><use xlink:href="#a"></use></svg><svg x="80"><use xlink:href="#a"></use><use xlink:href="#1" y="0"></use><use xlink:href="#2" y="2.171"></use><use xlink:href="#3" y="4.342"></use><use xlink:href="#4" y="6.513"></use></svg><svg x="160"><use xlink:href="#a"></use><use xlink:href="#1" y="0"></use><use xlink:href="#2" y="2.171"></use><use xlink:href="#3" y="4.342"></use><use xlink:href="#4" y="6.513"></use></svg><svg x="240"><use xlink:href="#a"></use><use xlink:href="#1" y="0"></use><use xlink:href="#2" y="2.171"></use><use xlink:href="#3" y="4.342"></use><use xlink:href="#4" y="6.513"></use><use xlink:href="#5" y="8.684"></use><use xlink:href="#6" y="10.855"></use><use xlink:href="#7" y="13.026"></use></svg><svg x="320"><use xlink:href="#a"></use><use xlink:href="#1" y="0"></use><use xlink:href="#2" y="2.171"></use><use xlink:href="#3" y="4.342"></use><use xlink:href="#4" y="6.513"></use><use xlink:href="#5" y="8.684"></use><use xlink:href="#6" y="10.855"></use><use xlink:href="#7" y="13.026"></use><text x="0" y="19.038" class="f">Restarting</text><text x="11.022" y="19.038" class="f">animation...</text></svg></svg></g></g></svg></svg>
