<svg xmlns="http://www.w3.org/2000/svg" xmlns:xlink="http://www.w3.org/1999/xlink" width="840" height="581.04"><rect width="840" height="581.04" rx="5" ry="5" class="a"></rect><svg y="0%" x="0%"><circle cx="20" cy="20" r="6" class="b"></circle><circle cx="40" cy="20" r="6" class="c"></circle><circle cx="60" cy="20" r="6" class="d"></circle></svg><svg height="521.04" viewBox="0 0 80 52.104" width="800" x="15" xmlns="http://www.w3.org/2000/svg" xmlns:xlink="http://www.w3.org/1999/xlink" y="50"><style>.e, .g, .f {
	font-family:
			'Courier New'
			Roboto,
			Helvetica,
			Arial,
			sans-serif,
			'Apple Color Emoji',
			'Segoe UI Emoji' !important;
}.a{fill:rgb(35,35,35)}.b{fill:#ff5f58}.c{fill:#ffbd2e}.d{fill:#18c132}.e{font-family:'Courier New',Monaco,Consolas,Menlo,'Bitstream Vera Sans Mono','Powerline Symbols',monospace}.f{fill:rgb(126,231,233);white-space:pre}.g{fill:rgb(234,89,246);white-space:pre}.h{fill:rgb(104,104,104);white-space:pre}.i{fill:rgb(102,194,205)}.j{white-space:pre}.k{fill:transparent}.l{fill:rgb(160,160,160)}.n{animation-duration:16.507225s;animation-iteration-count:infinite;animation-name:m;animation-timing-function:steps(1,end)}.o{fill:rgb(160,160,160);white-space:pre}@keyframes m{0%{transform:translateX(-0px)}0.6%{transform:translateX(-80px)}6.6%{transform:translateX(-160px)}8.1%{transform:translateX(-240px)}9.7%{transform:translateX(-320px)}11.2%{transform:translateX(-400px)}12.7%{transform:translateX(-480px)}14.2%{transform:translateX(-560px)}15.8%{transform:translateX(-640px)}17.3%{transform:translateX(-720px)}19%{transform:translateX(-800px)}20.4%{transform:translateX(-880px)}21.9%{transform:translateX(-960px)}21.9%{transform:translateX(-1040px)}23.4%{transform:translateX(-1120px)}24.9%{transform:translateX(-1200px)}26.5%{transform:translateX(-1280px)}27.9%{transform:translateX(-1360px)}29.5%{transform:translateX(-1440px)}30.4%{transform:translateX(-1520px)}31.4%{transform:translateX(-1600px)}32.3%{transform:translateX(-1680px)}33.2%{transform:translateX(-1760px)}34.1%{transform:translateX(-1840px)}35.1%{transform:translateX(-1920px)}36%{transform:translateX(-2000px)}39%{transform:translateX(-2080px)}42%{transform:translateX(-2160px)}43.6%{transform:translateX(-2240px)}45.2%{transform:translateX(-2320px)}46.8%{transform:translateX(-2400px)}48.2%{transform:translateX(-2480px)}49.8%{transform:translateX(-2560px)}51.3%{transform:translateX(-2640px)}52.8%{transform:translateX(-2720px)}54.3%{transform:translateX(-2800px)}55.9%{transform:translateX(-2880px)}57.4%{transform:translateX(-2960px)}58.9%{transform:translateX(-3040px)}60.4%{transform:translateX(-3120px)}61.9%{transform:translateX(-3200px)}63.5%{transform:translateX(-3280px)}65%{transform:translateX(-3360px)}66.6%{transform:translateX(-3440px)}68.1%{transform:translateX(-3520px)}69.7%{transform:translateX(-3600px)}100%{transform:translateX(-3680px)}}</style><g font-family="'Courier New',Monaco, Consolas, Menlo, &#x27;Bitstream Vera Sans Mono&#x27;, &#x27;Powerline Symbols&#x27;, monospace" font-size="1.67" class="e"><defs><symbol id="1"><text x="0" y="1.67" class="f">Input</text><text x="6.012" y="1.67" class="f">text</text><text x="11.021999999999998" y="1.67" class="g">[Press</text><text x="18.035999999999998" y="1.67" class="g">tab</text><text x="22.043999999999997" y="1.67" class="g">to</text><text x="25.05" y="1.67" class="g">submit]</text><text x="33.065999999999995" y="1.67" class="f">:</text></symbol><symbol id="2"><text x="0" y="1.67" class="h">1111111</text></symbol><symbol id="3"><text x="0" y="1.67" class="h">2222222</text></symbol><symbol id="4"><text x="0" y="1.67" class="h">11111112222222</text></symbol><symbol id="5"><text x="0" y="1.67" class="h">33333333</text></symbol><symbol id="6"><text x="0" y="1.67" class="h">4</text></symbol><symbol id="7"><text x="0" y="1.67" class="h">5555555</text></symbol><symbol id="8"><rect height="2.171" width="6" x="0" y="0" class="i"></rect><text x="0" y="1.67" class="j"> INFO </text><text x="7.013999999999999" y="1.67" class="f">You</text><text x="11.021999999999998" y="1.67" class="f">answered:</text><text x="21.041999999999998" y="1.67" class="f">11111112222222</text></symbol><symbol id="9"><rect height="2.171" width="6" x="0" y="0" class="i"></rect><text x="0" y="1.67" class="j">      </text><text x="7.013999999999999" y="1.67" class="f">33333333</text></symbol><symbol id="10"><rect height="2.171" width="6" x="0" y="0" class="i"></rect><text x="0" y="1.67" class="j">      </text><text x="7.013999999999999" y="1.67" class="f">4</text></symbol><symbol id="11"><rect height="2.171" width="6" x="0" y="0" class="i"></rect><text x="0" y="1.67" class="j">      </text><text x="7.013999999999999" y="1.67" class="f">5555555</text></symbol><symbol id="a"><rect height="24" width="80" x="0" y="0" class="k"></rect></symbol><symbol id="b"><rect height="2.171" width="1.1022" class="l"></rect></symbol></defs><rect height="52.104" width="80" class="a"></rect><g class="n"><svg x="0" y="0" width="3760"><svg x="0"><use xlink:href="#a"></use><use xlink:href="#b" x="-0.0040000000000000036" y="0"></use></svg><svg x="80"><use xlink:href="#a"></use><use xlink:href="#b" x="-0.0040000000000000036" y="2.146"></use><use xlink:href="#1" y="0"></use></svg><svg x="160"><use xlink:href="#a"></use><use xlink:href="#b" x="0.996" y="2.146"></use><use xlink:href="#1" y="0"></use><text x="0" y="3.8409999999999997" class="h">1</text></svg><svg x="240"><use xlink:href="#a"></use><use xlink:href="#b" x="1.996" y="2.146"></use><use xlink:href="#1" y="0"></use><text x="0" y="3.8409999999999997" class="h">11</text></svg><svg x="320"><use xlink:href="#a"></use><use xlink:href="#b" x="2.996" y="2.146"></use><use xlink:href="#1" y="0"></use><text x="0" y="3.8409999999999997" class="h">111</text></svg><svg x="400"><use xlink:href="#a"></use><use xlink:href="#b" x="3.996" y="2.146"></use><use xlink:href="#1" y="0"></use><text x="0" y="3.8409999999999997" class="h">1111</text></svg><svg x="480"><use xlink:href="#a"></use><use xlink:href="#b" x="4.996" y="2.146"></use><use xlink:href="#1" y="0"></use><text x="0" y="3.8409999999999997" class="h">11111</text></svg><svg x="560"><use xlink:href="#a"></use><use xlink:href="#b" x="5.996" y="2.146"></use><use xlink:href="#1" y="0"></use><text x="0" y="3.8409999999999997" class="h">111111</text></svg><svg x="640"><use xlink:href="#a"></use><use xlink:href="#b" x="6.996" y="2.146"></use><use xlink:href="#1" y="0"></use><use xlink:href="#2" y="2.171"></use></svg><svg x="720"><use xlink:href="#a"></use><use xlink:href="#b" x="-0.0040000000000000036" y="4.317"></use><use xlink:href="#1" y="0"></use><use xlink:href="#2" y="2.171"></use></svg><svg x="800"><use xlink:href="#a"></use><use xlink:href="#b" x="0.996" y="4.317"></use><use xlink:href="#1" y="0"></use><use xlink:href="#2" y="2.171"></use><text x="0" y="6.012" class="h">2</text></svg><svg x="880"><use xlink:href="#a"></use><use xlink:href="#b" x="1.996" y="4.317"></use><use xlink:href="#1" y="0"></use><use xlink:href="#2" y="2.171"></use><text x="0" y="6.012" class="h">22</text></svg><svg x="960"><use xlink:href="#a"></use><use xlink:href="#b" x="6.996" y="2.146"></use><use xlink:href="#1" y="0"></use><use xlink:href="#2" y="2.171"></use></svg><svg x="1040"><use xlink:href="#a"></use><use xlink:href="#b" x="2.996" y="4.317"></use><use xlink:href="#1" y="0"></use><use xlink:href="#2" y="2.171"></use><text x="0" y="6.012" class="h">222</text></svg><svg x="1120"><use xlink:href="#a"></use><use xlink:href="#b" x="3.996" y="4.317"></use><use xlink:href="#1" y="0"></use><use xlink:href="#2" y="2.171"></use><text x="0" y="6.012" class="h">2222</text></svg><svg x="1200"><use xlink:href="#a"></use><use xlink:href="#b" x="4.996" y="4.317"></use><use xlink:href="#1" y="0"></use><use xlink:href="#2" y="2.171"></use><text x="0" y="6.012" class="h">22222</text></svg><svg x="1280"><use xlink:href="#a"></use><use xlink:href="#b" x="5.996" y="4.317"></use><use xlink:href="#1" y="0"></use><use xlink:href="#2" y="2.171"></use><text x="0" y="6.012" class="h">222222</text></svg><svg x="1360"><use xlink:href="#a"></use><use xlink:href="#b" x="6.996" y="4.317"></use><use xlink:href="#1" y="0"></use><use xlink:href="#2" y="2.171"></use><use xlink:href="#3" y="4.342"></use></svg><svg x="1440"><use xlink:href="#a"></use><use xlink:href="#b" x="5.996" y="4.317"></use><use xlink:href="#1" y="0"></use><use xlink:href="#2" y="2.171"></use><use xlink:href="#3" y="4.342"></use></svg><svg x="1520"><use xlink:href="#a"></use><use xlink:href="#b" x="4.996" y="4.317"></use><use xlink:href="#1" y="0"></use><use xlink:href="#2" y="2.171"></use><use xlink:href="#3" y="4.342"></use></svg><svg x="1600"><use xlink:href="#a"></use><use xlink:href="#b" x="3.996" y="4.317"></use><use xlink:href="#1" y="0"></use><use xlink:href="#2" y="2.171"></use><use xlink:href="#3" y="4.342"></use></svg><svg x="1680"><use xlink:href="#a"></use><use xlink:href="#b" x="2.996" y="4.317"></use><use xlink:href="#1" y="0"></use><use xlink:href="#2" y="2.171"></use><use xlink:href="#3" y="4.342"></use></svg><svg x="1760"><use xlink:href="#a"></use><use xlink:href="#b" x="1.996" y="4.317"></use><use xlink:href="#1" y="0"></use><use xlink:href="#2" y="2.171"></use><use xlink:href="#3" y="4.342"></use></svg><svg x="1840"><use xlink:href="#a"></use><use xlink:href="#b" x="0.996" y="4.317"></use><use xlink:href="#1" y="0"></use><use xlink:href="#2" y="2.171"></use><use xlink:href="#3" y="4.342"></use></svg><svg x="1920"><use xlink:href="#a"></use><use xlink:href="#b" x="-0.0040000000000000036" y="4.317"></use><use xlink:href="#1" y="0"></use><use xlink:href="#2" y="2.171"></use><use xlink:href="#3" y="4.342"></use></svg><svg x="2000"><use xlink:href="#a"></use><use xlink:href="#b" x="13.996" y="2.146"></use><use xlink:href="#1" y="0"></use><use xlink:href="#4" y="2.171"></use></svg><svg x="2080"><use xlink:href="#a"></use><use xlink:href="#b" x="-0.0040000000000000036" y="4.317"></use><use xlink:href="#1" y="0"></use><use xlink:href="#4" y="2.171"></use></svg><svg x="2160"><use xlink:href="#a"></use><use xlink:href="#b" x="0.996" y="4.317"></use><use xlink:href="#1" y="0"></use><use xlink:href="#4" y="2.171"></use><text x="0" y="6.012" class="h">3</text></svg><svg x="2240"><use xlink:href="#a"></use><use xlink:href="#b" x="1.996" y="4.317"></use><use xlink:href="#1" y="0"></use><use xlink:href="#4" y="2.171"></use><text x="0" y="6.012" class="h">33</text></svg><svg x="2320"><use xlink:href="#a"></use><use xlink:href="#b" x="2.996" y="4.317"></use><use xlink:href="#1" y="0"></use><use xlink:href="#4" y="2.171"></use><text x="0" y="6.012" class="h">333</text></svg><svg x="2400"><use xlink:href="#a"></use><use xlink:href="#b" x="3.996" y="4.317"></use><use xlink:href="#1" y="0"></use><use xlink:href="#4" y="2.171"></use><text x="0" y="6.012" class="h">3333</text></svg><svg x="2480"><use xlink:href="#a"></use><use xlink:href="#b" x="4.996" y="4.317"></use><use xlink:href="#1" y="0"></use><use xlink:href="#4" y="2.171"></use><text x="0" y="6.012" class="h">33333</text></svg><svg x="2560"><use xlink:href="#a"></use><use xlink:href="#b" x="5.996" y="4.317"></use><use xlink:href="#1" y="0"></use><use xlink:href="#4" y="2.171"></use><text x="0" y="6.012" class="h">333333</text></svg><svg x="2640"><use xlink:href="#a"></use><use xlink:href="#b" x="6.996" y="4.317"></use><use xlink:href="#1" y="0"></use><use xlink:href="#4" y="2.171"></use><text x="0" y="6.012" class="h">3333333</text></svg><svg x="2720"><use xlink:href="#a"></use><use xlink:href="#b" x="7.996" y="4.317"></use><use xlink:href="#1" y="0"></use><use xlink:href="#4" y="2.171"></use><use xlink:href="#5" y="4.342"></use></svg><svg x="2800"><use xlink:href="#a"></use><use xlink:href="#b" x="-0.0040000000000000036" y="6.4879999999999995"></use><use xlink:href="#1" y="0"></use><use xlink:href="#4" y="2.171"></use><use xlink:href="#5" y="4.342"></use></svg><svg x="2880"><use xlink:href="#a"></use><use xlink:href="#b" x="0.996" y="6.4879999999999995"></use><use xlink:href="#1" y="0"></use><use xlink:href="#4" y="2.171"></use><use xlink:href="#5" y="4.342"></use><use xlink:href="#6" y="6.513"></use></svg><svg x="2960"><use xlink:href="#a"></use><use xlink:href="#b" x="-0.0040000000000000036" y="8.658999999999999"></use><use xlink:href="#1" y="0"></use><use xlink:href="#4" y="2.171"></use><use xlink:href="#5" y="4.342"></use><use xlink:href="#6" y="6.513"></use></svg><svg x="3040"><use xlink:href="#a"></use><use xlink:href="#b" x="0.996" y="8.658999999999999"></use><use xlink:href="#1" y="0"></use><use xlink:href="#4" y="2.171"></use><use xlink:href="#5" y="4.342"></use><use xlink:href="#6" y="6.513"></use><text x="0" y="10.354" class="h">5</text></svg><svg x="3120"><use xlink:href="#a"></use><use xlink:href="#b" x="1.996" y="8.658999999999999"></use><use xlink:href="#1" y="0"></use><use xlink:href="#4" y="2.171"></use><use xlink:href="#5" y="4.342"></use><use xlink:href="#6" y="6.513"></use><text x="0" y="10.354" class="h">55</text></svg><svg x="3200"><use xlink:href="#a"></use><use xlink:href="#b" x="2.996" y="8.658999999999999"></use><use xlink:href="#1" y="0"></use><use xlink:href="#4" y="2.171"></use><use xlink:href="#5" y="4.342"></use><use xlink:href="#6" y="6.513"></use><text x="0" y="10.354" class="h">555</text></svg><svg x="3280"><use xlink:href="#a"></use><use xlink:href="#b" x="3.996" y="8.658999999999999"></use><use xlink:href="#1" y="0"></use><use xlink:href="#4" y="2.171"></use><use xlink:href="#5" y="4.342"></use><use xlink:href="#6" y="6.513"></use><text x="0" y="10.354" class="h">5555</text></svg><svg x="3360"><use xlink:href="#a"></use><use xlink:href="#b" x="4.996" y="8.658999999999999"></use><use xlink:href="#1" y="0"></use><use xlink:href="#4" y="2.171"></use><use xlink:href="#5" y="4.342"></use><use xlink:href="#6" y="6.513"></use><text x="0" y="10.354" class="h">55555</text></svg><svg x="3440"><use xlink:href="#a"></use><use xlink:href="#b" x="5.996" y="8.658999999999999"></use><use xlink:href="#1" y="0"></use><use xlink:href="#4" y="2.171"></use><use xlink:href="#5" y="4.342"></use><use xlink:href="#6" y="6.513"></use><text x="0" y="10.354" class="h">555555</text></svg><svg x="3520"><use xlink:href="#a"></use><use xlink:href="#b" x="6.996" y="8.658999999999999"></use><use xlink:href="#1" y="0"></use><use xlink:href="#4" y="2.171"></use><use xlink:href="#5" y="4.342"></use><use xlink:href="#6" y="6.513"></use><use xlink:href="#7" y="8.684"></use></svg><svg x="3600"><use xlink:href="#a"></use><use xlink:href="#b" x="-0.0040000000000000036" y="21.685000000000002"></use><use xlink:href="#1" y="0"></use><use xlink:href="#4" y="2.171"></use><use xlink:href="#5" y="4.342"></use><use xlink:href="#6" y="6.513"></use><use xlink:href="#7" y="8.684"></use><use xlink:href="#8" y="13.026"></use><use xlink:href="#9" y="15.197"></use><use xlink:href="#10" y="17.368"></use><use xlink:href="#11" y="19.539"></use></svg><svg x="3680"><use xlink:href="#a"></use><use xlink:href="#b" x="22.996" y="26.027"></use><use xlink:href="#1" y="0"></use><use xlink:href="#4" y="2.171"></use><use xlink:href="#5" y="4.342"></use><use xlink:href="#6" y="6.513"></use><use xlink:href="#7" y="8.684"></use><use xlink:href="#8" y="13.026"></use><use xlink:href="#9" y="15.197"></use><use xlink:href="#10" y="17.368"></use><use xlink:href="#11" y="19.539"></use><text x="0" y="25.550999999999995" class="o">Restarting</text><text x="11.021999999999998" y="25.550999999999995" class="o">animation...</text></svg></svg></g></g></svg></svg>