<svg xmlns="http://www.w3.org/2000/svg" xmlns:xlink="http://www.w3.org/1999/xlink" width="840" height="581.04"><rect width="840" height="581.04" rx="5" ry="5" class="a"></rect><svg y="0%" x="0%"><circle cx="20" cy="20" r="6" class="b"></circle><circle cx="40" cy="20" r="6" class="c"></circle><circle cx="60" cy="20" r="6" class="d"></circle></svg><svg height="521.04" viewBox="0 0 80 52.104" width="800" x="15" xmlns="http://www.w3.org/2000/svg" xmlns:xlink="http://www.w3.org/1999/xlink" y="50"><style>.e, .g, .f {
	font-family:
			'Courier New'
			Roboto,
			Helvetica,
			Arial,
			sans-serif,
			'Apple Color Emoji',
			'Segoe UI Emoji' !important;
}.a{fill:rgb(35,35,35)}.b{fill:#ff5f58}.c{fill:#ffbd2e}.d{fill:#18c132}.e{font-family:'Courier New',Monaco,Consolas,Menlo,'Bitstream Vera Sans Mono','Powerline Symbols',monospace}.f{fill:rgb(126,231,233);white-space:pre}.g{fill:rgb(234,89,246);white-space:pre}.h{fill:rgb(160,160,160);white-space:pre}.i{fill:rgb(102,194,205)}.j{white-space:pre}.k{fill:transparent}.l{fill:rgb(160,160,160)}.n{animation-duration:16.335855s;animation-iteration-count:infinite;animation-name:m;animation-timing-function:steps(1,end)}@keyframes m{0%{transform:translateX(-0px)}0%{transform:translateX(-80px)}0%{transform:translateX(-160px)}6.2%{transform:translateX(-240px)}6.2%{transform:translateX(-320px)}7.7%{transform:translateX(-400px)}7.7%{transform:translateX(-480px)}9.2%{transform:translateX(-560px)}9.2%{transform:translateX(-640px)}10.8%{transform:translateX(-720px)}10.8%{transform:translateX(-800px)}12.3%{transform:translateX(-880px)}12.3%{transform:translateX(-960px)}12.3%{transform:translateX(-1040px)}13.8%{transform:translateX(-1120px)}15.4%{transform:translateX(-1200px)}15.4%{transform:translateX(-1280px)}16.9%{transform:translateX(-1360px)}18.4%{transform:translateX(-1440px)}18.4%{transform:translateX(-1520px)}20%{transform:translateX(-1600px)}20%{transform:translateX(-1680px)}21.5%{transform:translateX(-1760px)}21.5%{transform:translateX(-1840px)}23%{transform:translateX(-1920px)}24.6%{transform:translateX(-2000px)}24.6%{transform:translateX(-2080px)}26.1%{transform:translateX(-2160px)}26.1%{transform:translateX(-2240px)}27.6%{transform:translateX(-2320px)}29.2%{transform:translateX(-2400px)}30.1%{transform:translateX(-2480px)}31%{transform:translateX(-2560px)}31.9%{transform:translateX(-2640px)}32.9%{transform:translateX(-2720px)}32.9%{transform:translateX(-2800px)}33.8%{transform:translateX(-2880px)}34.7%{transform:translateX(-2960px)}34.7%{transform:translateX(-3040px)}35.6%{transform:translateX(-3120px)}38.7%{transform:translateX(-3200px)}38.7%{transform:translateX(-3280px)}41.8%{transform:translateX(-3360px)}43.3%{transform:translateX(-3440px)}44.8%{transform:translateX(-3520px)}46.4%{transform:translateX(-3600px)}47.9%{transform:translateX(-3680px)}47.9%{transform:translateX(-3760px)}49.4%{transform:translateX(-3840px)}51%{transform:translateX(-3920px)}52.5%{transform:translateX(-4000px)}54%{transform:translateX(-4080px)}54%{transform:translateX(-4160px)}54%{transform:translateX(-4240px)}55.6%{transform:translateX(-4320px)}55.6%{transform:translateX(-4400px)}57.1%{transform:translateX(-4480px)}58.6%{transform:translateX(-4560px)}60.2%{transform:translateX(-4640px)}60.2%{transform:translateX(-4720px)}61.7%{transform:translateX(-4800px)}61.7%{transform:translateX(-4880px)}63.2%{transform:translateX(-4960px)}63.3%{transform:translateX(-5040px)}64.8%{transform:translateX(-5120px)}66.3%{transform:translateX(-5200px)}67.9%{transform:translateX(-5280px)}67.9%{transform:translateX(-5360px)}67.9%{transform:translateX(-5440px)}67.9%{transform:translateX(-5520px)}67.9%{transform:translateX(-5600px)}67.9%{transform:translateX(-5680px)}67.9%{transform:translateX(-5760px)}69.4%{transform:translateX(-5840px)}69.4%{transform:translateX(-5920px)}69.4%{transform:translateX(-6000px)}69.4%{transform:translateX(-6080px)}69.4%{transform:translateX(-6160px)}100%{transform:translateX(-6240px)}}</style><g font-family="'Courier New',Monaco, Consolas, Menlo, &#x27;Bitstream Vera Sans Mono&#x27;, &#x27;Powerline Symbols&#x27;, monospace" font-size="1.67" class="e"><defs><symbol id="1"><text x="0" y="1.67" class="f">Input</text><text x="6.012" y="1.67" class="f">text</text><text x="11.021999999999998" y="1.67" class="g">[Press</text><text x="18.035999999999998" y="1.67" class="g">tab</text><text x="22.043999999999997" y="1.67" class="g">to</text><text x="25.05" y="1.67" class="g">submit]</text><text x="33.065999999999995" y="1.67" class="f">:</text></symbol><symbol id="2"><text x="0" y="1.67" class="h">11</text></symbol><symbol id="3"><text x="0" y="1.67" class="h">1111</text></symbol><symbol id="4"><text x="0" y="1.67" class="h">11111</text></symbol><symbol id="5"><text x="0" y="1.67" class="h">1111111</text></symbol><symbol id="6"><text x="0" y="1.67" class="h">2222222</text></symbol><symbol id="7"><text x="0" y="1.67" class="h">11111112222222</text></symbol><symbol id="8"><text x="0" y="1.67" class="h">33333</text></symbol><symbol id="9"><text x="0" y="1.67" class="h">33333333</text></symbol><symbol id="10"><text x="0" y="1.67" class="h">4</text></symbol><symbol id="11"><text x="0" y="1.67" class="h">5555</text></symbol><symbol id="12"><text x="0" y="1.67" class="h">555555</text></symbol><symbol id="13"><text x="0" y="1.67" class="h">5555555</text></symbol><symbol id="14"><rect height="2.171" width="6" x="0" y="0" class="i"></rect><text x="0" y="1.67" class="j"> INFO </text><text x="7.013999999999999" y="1.67" class="f">You</text><text x="11.021999999999998" y="1.67" class="f">answered:</text><text x="21.041999999999998" y="1.67" class="f">11111112222222</text></symbol><symbol id="15"><rect height="2.171" width="6" x="0" y="0" class="i"></rect><text x="0" y="1.67" class="j">      </text><text x="7.013999999999999" y="1.67" class="f">33333333</text></symbol><symbol id="16"><rect height="2.171" width="6" x="0" y="0" class="i"></rect><text x="0" y="1.67" class="j">      </text><text x="7.013999999999999" y="1.67" class="f">4</text></symbol><symbol id="17"><rect height="2.171" width="6" x="0" y="0" class="i"></rect><text x="0" y="1.67" class="j">      </text><text x="7.013999999999999" y="1.67" class="f">5555555</text></symbol><symbol id="a"><rect height="24" width="80" x="0" y="0" class="k"></rect></symbol><symbol id="b"><rect height="2.171" width="1.1022" class="l"></rect></symbol></defs><rect height="52.104" width="80" class="a"></rect><g class="n"><svg x="0" y="0" width="6320"><svg x="0"><use xlink:href="#a"></use><use xlink:href="#b" x="-0.0040000000000000036" y="0"></use></svg><svg x="80"><use xlink:href="#a"></use><use xlink:href="#b" x="-0.0040000000000000036" y="2.146"></use><use xlink:href="#1" y="0"></use></svg><svg x="160"><use xlink:href="#a"></use><use xlink:href="#b" x="-0.0040000000000000036" y="2.146"></use><use xlink:href="#1" y="0"></use></svg><svg x="240"><use xlink:href="#a"></use><use xlink:href="#b" x="-0.0040000000000000036" y="2.146"></use><use xlink:href="#1" y="0"></use></svg><svg x="320"><use xlink:href="#a"></use><use xlink:href="#b" x="0.996" y="2.146"></use><use xlink:href="#1" y="0"></use><text x="0" y="3.8409999999999997" class="h">1</text></svg><svg x="400"><use xlink:href="#a"></use><use xlink:href="#b" x="-0.0040000000000000036" y="4.317"></use><use xlink:href="#1" y="0"></use><use xlink:href="#2" y="2.171"></use></svg><svg x="480"><use xlink:href="#a"></use><use xlink:href="#b" x="1.996" y="2.146"></use><use xlink:href="#1" y="0"></use><use xlink:href="#2" y="2.171"></use></svg><svg x="560"><use xlink:href="#a"></use><use xlink:href="#b" x="-0.0040000000000000036" y="2.146"></use></svg><svg x="640"><use xlink:href="#a"></use><use xlink:href="#b" x="2.996" y="2.146"></use><use xlink:href="#1" y="0"></use><text x="0" y="3.8409999999999997" class="h">111</text></svg><svg x="720"><use xlink:href="#a"></use><use xlink:href="#b" x="-0.0040000000000000036" y="4.317"></use><use xlink:href="#1" y="0"></use><use xlink:href="#3" y="2.171"></use></svg><svg x="800"><use xlink:href="#a"></use><use xlink:href="#b" x="3.996" y="2.146"></use><use xlink:href="#1" y="0"></use><use xlink:href="#3" y="2.171"></use></svg><svg x="880"><use xlink:href="#a"></use><use xlink:href="#b" x="-0.0040000000000000036" y="2.146"></use><use xlink:href="#1" y="0"></use></svg><svg x="960"><use xlink:href="#a"></use><use xlink:href="#b" x="-0.0040000000000000036" y="2.146"></use><use xlink:href="#1" y="0"></use><use xlink:href="#4" y="2.171"></use></svg><svg x="1040"><use xlink:href="#a"></use><use xlink:href="#b" x="4.996" y="2.146"></use><use xlink:href="#1" y="0"></use><use xlink:href="#4" y="2.171"></use></svg><svg x="1120"><use xlink:href="#a"></use><use xlink:href="#b" x="5.996" y="2.146"></use><use xlink:href="#1" y="0"></use><text x="0" y="3.8409999999999997" class="h">111111</text></svg><svg x="1200"><use xlink:href="#a"></use><use xlink:href="#b" x="-0.0040000000000000036" y="4.317"></use><use xlink:href="#1" y="0"></use><use xlink:href="#5" y="2.171"></use></svg><svg x="1280"><use xlink:href="#a"></use><use xlink:href="#b" x="6.996" y="2.146"></use><use xlink:href="#1" y="0"></use><use xlink:href="#5" y="2.171"></use></svg><svg x="1360"><use xlink:href="#a"></use><use xlink:href="#b" x="0.996" y="4.317"></use><use xlink:href="#1" y="0"></use><use xlink:href="#5" y="2.171"></use></svg><svg x="1440"><use xlink:href="#a"></use><use xlink:href="#b" x="33.996" y="0"></use><use xlink:href="#1" y="0"></use></svg><svg x="1520"><use xlink:href="#a"></use><use xlink:href="#b" x="0.996" y="4.317"></use><use xlink:href="#1" y="0"></use><use xlink:href="#5" y="2.171"></use><text x="0" y="6.012" class="h">2</text></svg><svg x="1600"><use xlink:href="#a"></use><use xlink:href="#b" x="-0.0040000000000000036" y="2.146"></use><use xlink:href="#1" y="0"></use></svg><svg x="1680"><use xlink:href="#a"></use><use xlink:href="#b" x="1.996" y="4.317"></use><use xlink:href="#1" y="0"></use><use xlink:href="#5" y="2.171"></use><text x="0" y="6.012" class="h">22</text></svg><svg x="1760"><use xlink:href="#a"></use><use xlink:href="#b" x="-0.0040000000000000036" y="0"></use></svg><svg x="1840"><use xlink:href="#a"></use><use xlink:href="#b" x="2.996" y="4.317"></use><use xlink:href="#1" y="0"></use><use xlink:href="#5" y="2.171"></use><text x="0" y="6.012" class="h">222</text></svg><svg x="1920"><use xlink:href="#a"></use><use xlink:href="#b" x="3.996" y="4.317"></use><use xlink:href="#1" y="0"></use><use xlink:href="#5" y="2.171"></use><text x="0" y="6.012" class="h">2222</text></svg><svg x="2000"><use xlink:href="#a"></use><use xlink:href="#b" x="-0.0040000000000000036" y="2.146"></use><use xlink:href="#1" y="0"></use><use xlink:href="#5" y="2.171"></use></svg><svg x="2080"><use xlink:href="#a"></use><use xlink:href="#b" x="4.996" y="4.317"></use><use xlink:href="#1" y="0"></use><use xlink:href="#5" y="2.171"></use><text x="0" y="6.012" class="h">22222</text></svg><svg x="2160"><use xlink:href="#a"></use><use xlink:href="#b" x="-0.0040000000000000036" y="4.317"></use></svg><svg x="2240"><use xlink:href="#a"></use><use xlink:href="#b" x="5.996" y="4.317"></use><use xlink:href="#1" y="0"></use><use xlink:href="#5" y="2.171"></use><text x="0" y="6.012" class="h">222222</text></svg><svg x="2320"><use xlink:href="#a"></use><use xlink:href="#b" x="6.996" y="4.317"></use><use xlink:href="#1" y="0"></use><use xlink:href="#5" y="2.171"></use><use xlink:href="#6" y="4.342"></use></svg><svg x="2400"><use xlink:href="#a"></use><use xlink:href="#b" x="5.996" y="4.317"></use><use xlink:href="#1" y="0"></use><use xlink:href="#5" y="2.171"></use><use xlink:href="#6" y="4.342"></use></svg><svg x="2480"><use xlink:href="#a"></use><use xlink:href="#b" x="4.996" y="4.317"></use><use xlink:href="#1" y="0"></use><use xlink:href="#5" y="2.171"></use><use xlink:href="#6" y="4.342"></use></svg><svg x="2560"><use xlink:href="#a"></use><use xlink:href="#b" x="3.996" y="4.317"></use><use xlink:href="#1" y="0"></use><use xlink:href="#5" y="2.171"></use><use xlink:href="#6" y="4.342"></use></svg><svg x="2640"><use xlink:href="#a"></use><use xlink:href="#b" x="2.996" y="4.317"></use><use xlink:href="#1" y="0"></use><use xlink:href="#5" y="2.171"></use><use xlink:href="#6" y="4.342"></use></svg><svg x="2720"><use xlink:href="#a"></use><use xlink:href="#b" x="-0.0040000000000000036" y="4.317"></use></svg><svg x="2800"><use xlink:href="#a"></use><use xlink:href="#b" x="1.996" y="4.317"></use><use xlink:href="#1" y="0"></use><use xlink:href="#5" y="2.171"></use><use xlink:href="#6" y="4.342"></use></svg><svg x="2880"><use xlink:href="#a"></use><use xlink:href="#b" x="0.996" y="4.317"></use><use xlink:href="#1" y="0"></use><use xlink:href="#5" y="2.171"></use><use xlink:href="#6" y="4.342"></use></svg><svg x="2960"><use xlink:href="#a"></use><use xlink:href="#b" x="-0.0040000000000000036" y="6.4879999999999995"></use></svg><svg x="3040"><use xlink:href="#a"></use><use xlink:href="#b" x="0.996" y="4.317"></use><use xlink:href="#1" y="0"></use><use xlink:href="#5" y="2.171"></use><use xlink:href="#6" y="4.342"></use></svg><svg x="3120"><use xlink:href="#a"></use><use xlink:href="#b" x="13.996" y="2.146"></use><use xlink:href="#1" y="0"></use><use xlink:href="#7" y="2.171"></use></svg><svg x="3200"><use xlink:href="#a"></use><use xlink:href="#b" x="13.996" y="4.317"></use><use xlink:href="#1" y="0"></use><use xlink:href="#7" y="2.171"></use></svg><svg x="3280"><use xlink:href="#a"></use><use xlink:href="#b" x="0.996" y="4.317"></use><use xlink:href="#1" y="0"></use><use xlink:href="#7" y="2.171"></use></svg><svg x="3360"><use xlink:href="#a"></use><use xlink:href="#b" x="0.996" y="4.317"></use><use xlink:href="#1" y="0"></use><use xlink:href="#7" y="2.171"></use><text x="0" y="6.012" class="h">3</text></svg><svg x="3440"><use xlink:href="#a"></use><use xlink:href="#b" x="1.996" y="4.317"></use><use xlink:href="#1" y="0"></use><use xlink:href="#7" y="2.171"></use><text x="0" y="6.012" class="h">33</text></svg><svg x="3520"><use xlink:href="#a"></use><use xlink:href="#b" x="2.996" y="4.317"></use><use xlink:href="#1" y="0"></use><use xlink:href="#7" y="2.171"></use><text x="0" y="6.012" class="h">333</text></svg><svg x="3600"><use xlink:href="#a"></use><use xlink:href="#b" x="3.996" y="4.317"></use><use xlink:href="#1" y="0"></use><use xlink:href="#7" y="2.171"></use><text x="0" y="6.012" class="h">3333</text></svg><svg x="3680"><use xlink:href="#a"></use><use xlink:href="#b" x="-0.0040000000000000036" y="4.317"></use><use xlink:href="#1" y="0"></use><use xlink:href="#7" y="2.171"></use><use xlink:href="#8" y="4.342"></use></svg><svg x="3760"><use xlink:href="#a"></use><use xlink:href="#b" x="4.996" y="4.317"></use><use xlink:href="#1" y="0"></use><use xlink:href="#7" y="2.171"></use><use xlink:href="#8" y="4.342"></use></svg><svg x="3840"><use xlink:href="#a"></use><use xlink:href="#b" x="5.996" y="4.317"></use><use xlink:href="#1" y="0"></use><use xlink:href="#7" y="2.171"></use><text x="0" y="6.012" class="h">333333</text></svg><svg x="3920"><use xlink:href="#a"></use><use xlink:href="#b" x="6.996" y="4.317"></use><use xlink:href="#1" y="0"></use><use xlink:href="#7" y="2.171"></use><text x="0" y="6.012" class="h">3333333</text></svg><svg x="4000"><use xlink:href="#a"></use><use xlink:href="#b" x="7.996" y="4.317"></use><use xlink:href="#1" y="0"></use><use xlink:href="#7" y="2.171"></use><use xlink:href="#9" y="4.342"></use></svg><svg x="4080"><use xlink:href="#a"></use><use xlink:href="#b" x="7.996" y="6.4879999999999995"></use><use xlink:href="#1" y="0"></use><use xlink:href="#7" y="2.171"></use><use xlink:href="#9" y="4.342"></use></svg><svg x="4160"><use xlink:href="#a"></use><use xlink:href="#b" x="-0.0040000000000000036" y="8.658999999999999"></use><use xlink:href="#1" y="0"></use><use xlink:href="#7" y="2.171"></use><use xlink:href="#9" y="4.342"></use></svg><svg x="4240"><use xlink:href="#a"></use><use xlink:href="#b" x="0.996" y="6.4879999999999995"></use><use xlink:href="#1" y="0"></use><use xlink:href="#7" y="2.171"></use><use xlink:href="#9" y="4.342"></use></svg><svg x="4320"><use xlink:href="#a"></use><use xlink:href="#b" x="7.996" y="4.317"></use><use xlink:href="#1" y="0"></use><use xlink:href="#7" y="2.171"></use><use xlink:href="#9" y="4.342"></use></svg><svg x="4400"><use xlink:href="#a"></use><use xlink:href="#b" x="0.996" y="6.4879999999999995"></use><use xlink:href="#1" y="0"></use><use xlink:href="#7" y="2.171"></use><use xlink:href="#9" y="4.342"></use><use xlink:href="#10" y="6.513"></use></svg><svg x="4480"><use xlink:href="#a"></use><use xlink:href="#b" x="0.996" y="8.658999999999999"></use><use xlink:href="#1" y="0"></use><use xlink:href="#7" y="2.171"></use><use xlink:href="#9" y="4.342"></use><use xlink:href="#10" y="6.513"></use></svg><svg x="4560"><use xlink:href="#a"></use><use xlink:href="#b" x="0.996" y="8.658999999999999"></use><use xlink:href="#1" y="0"></use><use xlink:href="#7" y="2.171"></use><use xlink:href="#9" y="4.342"></use><use xlink:href="#10" y="6.513"></use><text x="0" y="10.354" class="h">5</text></svg><svg x="4640"><use xlink:href="#a"></use><use xlink:href="#b" x="13.996" y="2.146"></use><use xlink:href="#1" y="0"></use><use xlink:href="#7" y="2.171"></use></svg><svg x="4720"><use xlink:href="#a"></use><use xlink:href="#b" x="1.996" y="8.658999999999999"></use><use xlink:href="#1" y="0"></use><use xlink:href="#7" y="2.171"></use><use xlink:href="#9" y="4.342"></use><use xlink:href="#10" y="6.513"></use><text x="0" y="10.354" class="h">55</text></svg><svg x="4800"><use xlink:href="#a"></use><use xlink:href="#b" x="33.996" y="0"></use><use xlink:href="#1" y="0"></use></svg><svg x="4880"><use xlink:href="#a"></use><use xlink:href="#b" x="2.996" y="8.658999999999999"></use><use xlink:href="#1" y="0"></use><use xlink:href="#7" y="2.171"></use><use xlink:href="#9" y="4.342"></use><use xlink:href="#10" y="6.513"></use><text x="0" y="10.354" class="h">555</text></svg><svg x="4960"><use xlink:href="#a"></use><use xlink:href="#b" x="3.996" y="8.658999999999999"></use><use xlink:href="#1" y="0"></use><use xlink:href="#7" y="2.171"></use><use xlink:href="#9" y="4.342"></use><use xlink:href="#10" y="6.513"></use><use xlink:href="#11" y="8.684"></use></svg><svg x="5040"><use xlink:href="#a"></use><use xlink:href="#b" x="3.996" y="8.658999999999999"></use><use xlink:href="#1" y="0"></use><use xlink:href="#7" y="2.171"></use><use xlink:href="#9" y="4.342"></use><use xlink:href="#10" y="6.513"></use><use xlink:href="#11" y="8.684"></use></svg><svg x="5120"><use xlink:href="#a"></use><use xlink:href="#b" x="4.996" y="8.658999999999999"></use><use xlink:href="#1" y="0"></use><use xlink:href="#7" y="2.171"></use><use xlink:href="#9" y="4.342"></use><use xlink:href="#10" y="6.513"></use><text x="0" y="10.354" class="h">55555</text></svg><svg x="5200"><use xlink:href="#a"></use><use xlink:href="#b" x="5.996" y="8.658999999999999"></use><use xlink:href="#1" y="0"></use><use xlink:href="#7" y="2.171"></use><use xlink:href="#9" y="4.342"></use><use xlink:href="#10" y="6.513"></use><use xlink:href="#12" y="8.684"></use></svg><svg x="5280"><use xlink:href="#a"></use><use xlink:href="#b" x="-0.0040000000000000036" y="10.83"></use><use xlink:href="#1" y="0"></use><use xlink:href="#7" y="2.171"></use><use xlink:href="#9" y="4.342"></use><use xlink:href="#10" y="6.513"></use><use xlink:href="#12" y="8.684"></use></svg><svg x="5360"><use xlink:href="#a"></use><use xlink:href="#b" x="-0.0040000000000000036" y="2.146"></use><use xlink:href="#1" y="0"></use></svg><svg x="5440"><use xlink:href="#a"></use><use xlink:href="#b" x="-0.0040000000000000036" y="0"></use><use xlink:href="#1" y="0"></use></svg><svg x="5520"><use xlink:href="#a"></use><use xlink:href="#b" x="-0.0040000000000000036" y="10.83"></use></svg><svg x="5600"><use xlink:href="#a"></use><use xlink:href="#b" x="-0.0040000000000000036" y="2.146"></use><use xlink:href="#1" y="0"></use></svg><svg x="5680"><use xlink:href="#a"></use><use xlink:href="#b" x="-0.0040000000000000036" y="4.317"></use><use xlink:href="#1" y="0"></use><use xlink:href="#7" y="2.171"></use></svg><svg x="5760"><use xlink:href="#a"></use><use xlink:href="#b" x="6.996" y="8.658999999999999"></use><use xlink:href="#1" y="0"></use><use xlink:href="#7" y="2.171"></use><use xlink:href="#9" y="4.342"></use><use xlink:href="#10" y="6.513"></use><use xlink:href="#13" y="8.684"></use></svg><svg x="5840"><use xlink:href="#a"></use><use xlink:href="#b" x="-0.0040000000000000036" y="2.146"></use><use xlink:href="#1" y="0"></use></svg><svg x="5920"><use xlink:href="#a"></use><use xlink:href="#b" x="-0.0040000000000000036" y="8.658999999999999"></use><use xlink:href="#1" y="0"></use><use xlink:href="#7" y="2.171"></use><use xlink:href="#9" y="4.342"></use><use xlink:href="#10" y="6.513"></use><use xlink:href="#13" y="8.684"></use></svg><svg x="6000"><use xlink:href="#a"></use><use xlink:href="#b" x="6.996" y="8.658999999999999"></use><use xlink:href="#1" y="0"></use><use xlink:href="#7" y="2.171"></use><use xlink:href="#9" y="4.342"></use><use xlink:href="#10" y="6.513"></use><use xlink:href="#13" y="8.684"></use></svg><svg x="6080"><use xlink:href="#a"></use><use xlink:href="#b" x="-0.0040000000000000036" y="13.001"></use><use xlink:href="#1" y="0"></use><use xlink:href="#7" y="2.171"></use><use xlink:href="#9" y="4.342"></use><use xlink:href="#10" y="6.513"></use><use xlink:href="#13" y="8.684"></use></svg><svg x="6160"><use xlink:href="#a"></use><use xlink:href="#b" x="-0.0040000000000000036" y="21.685000000000002"></use><use xlink:href="#1" y="0"></use><use xlink:href="#7" y="2.171"></use><use xlink:href="#9" y="4.342"></use><use xlink:href="#10" y="6.513"></use><use xlink:href="#13" y="8.684"></use><use xlink:href="#14" y="13.026"></use><use xlink:href="#15" y="15.197"></use><use xlink:href="#16" y="17.368"></use><use xlink:href="#17" y="19.539"></use></svg><svg x="6240"><use xlink:href="#a"></use><use xlink:href="#b" x="22.996" y="26.027"></use><use xlink:href="#1" y="0"></use><use xlink:href="#7" y="2.171"></use><use xlink:href="#9" y="4.342"></use><use xlink:href="#10" y="6.513"></use><use xlink:href="#13" y="8.684"></use><use xlink:href="#14" y="13.026"></use><use xlink:href="#15" y="15.197"></use><use xlink:href="#16" y="17.368"></use><use xlink:href="#17" y="19.539"></use><text x="0" y="25.550999999999995" class="h">Restarting</text><text x="11.021999999999998" y="25.550999999999995" class="h">animation...</text></svg></svg></g></g></svg></svg>