<svg xmlns="http://www.w3.org/2000/svg" xmlns:xlink="http://www.w3.org/1999/xlink" width="840" height="602.75"><rect width="840" height="602.75" rx="5" ry="5" class="a"></rect><svg y="0%" x="0%"><circle cx="20" cy="20" r="6" class="b"></circle><circle cx="40" cy="20" r="6" class="c"></circle><circle cx="60" cy="20" r="6" class="d"></circle></svg><svg height="542.75" viewBox="0 0 80 54.275" width="800" x="15" xmlns="http://www.w3.org/2000/svg" xmlns:xlink="http://www.w3.org/1999/xlink" y="50"><style>.e, .g, .f {
	font-family:
			'Courier New'
			Roboto,
			Helvetica,
			Arial,
			sans-serif,
			'Apple Color Emoji',
			'Segoe UI Emoji' !important;
}.a{fill:rgb(35,35,35)}.b{fill:#ff5f58}.c{fill:#ffbd2e}.d{fill:#18c132}.e{font-family:'Courier New',Monaco,Consolas,Menlo,'Bitstream Vera Sans Mono','Powerline Symbols',monospace}.f{fill:rgb(126,231,233);white-space:pre}.g{fill:rgb(104,104,104);white-space:pre}.h{fill:rgb(255,255,255);white-space:pre}.i{fill:rgb(255,0,0);white-space:pre}.j{fill:rgb(160,160,160);white-space:pre}.k{fill:rgb(168,204,140)}.l{white-space:pre}.m{fill:rgb(124,255,0);white-space:pre}.n{fill:rgb(0,198,255);white-space:pre}.o{fill:rgb(0,255,0);white-space:pre}.p{fill:transparent}.r{animation-duration:8.939564s;animation-iteration-count:infinite;animation-name:q;animation-timing-function:steps(1,end)}.s{fill:rgb(233,21,0);white-space:pre}.t{fill:rgb(212,42,0);white-space:pre}.u{fill:rgb(191,63,0);white-space:pre}.v{fill:rgb(170,85,0);white-space:pre}.w{fill:rgb(148,106,0);white-space:pre}.x{fill:rgb(127,127,0);white-space:pre}.y{fill:rgb(106,148,0);white-space:pre}.z{fill:rgb(85,170,0);white-space:pre}.A{fill:rgb(63,191,0);white-space:pre}.B{fill:rgb(42,212,0);white-space:pre}.C{fill:rgb(21,233,0);white-space:pre}@keyframes q{0%{transform:translateX(-0px)}0.9%{transform:translateX(-80px)}0.9%{transform:translateX(-160px)}0.9%{transform:translateX(-240px)}4.8%{transform:translateX(-320px)}4.8%{transform:translateX(-400px)}8.8%{transform:translateX(-480px)}8.8%{transform:translateX(-560px)}12.7%{transform:translateX(-640px)}12.7%{transform:translateX(-720px)}16.6%{transform:translateX(-800px)}16.6%{transform:translateX(-880px)}20.5%{transform:translateX(-960px)}20.5%{transform:translateX(-1040px)}24.5%{transform:translateX(-1120px)}24.5%{transform:translateX(-1200px)}28.4%{transform:translateX(-1280px)}28.4%{transform:translateX(-1360px)}32.3%{transform:translateX(-1440px)}32.3%{transform:translateX(-1520px)}36.2%{transform:translateX(-1600px)}36.2%{transform:translateX(-1680px)}40.1%{transform:translateX(-1760px)}40.1%{transform:translateX(-1840px)}44.1%{transform:translateX(-1920px)}44.1%{transform:translateX(-2000px)}100%{transform:translateX(-2080px)}}</style><g font-family="'Courier New',Monaco, Consolas, Menlo, &#x27;Bitstream Vera Sans Mono&#x27;, &#x27;Powerline Symbols&#x27;, monospace" font-size="1.67" class="e"><defs><symbol id="1"><text x="0" y="1.67" class="f">Downloading</text><text x="12.024" y="1.67" class="f">pseudo-excel</text><text x="25.05" y="1.67" class="g">[</text><text x="26.052" y="1.67" class="h">0</text><text x="27.054" y="1.67" class="g">/</text><text x="28.055999999999997" y="1.67" class="h">12</text><text x="30.059999999999995" y="1.67" class="g">]</text><text x="33.065999999999995" y="1.67" class="i">0%</text><text x="36.071999999999996" y="1.67" class="j">|</text><text x="38.07599999999999" y="1.67" class="j">0s</text></symbol><symbol id="2"><rect height="2.171" width="9" x="0" y="0" class="k"></rect><text x="0" y="1.67" class="l"> SUCCESS </text><text x="10.02" y="1.67" class="m">Downloading</text><text x="22.043999999999997" y="1.67" class="m">pseudo-excel</text></symbol><symbol id="3"><rect height="2.171" width="9" x="0" y="0" class="k"></rect><text x="0" y="1.67" class="l"> SUCCESS </text><text x="10.02" y="1.67" class="m">Downloading</text><text x="22.043999999999997" y="1.67" class="m">pseudo-photoshop</text></symbol><symbol id="4"><rect height="2.171" width="9" x="0" y="0" class="k"></rect><text x="0" y="1.67" class="l"> SUCCESS </text><text x="10.02" y="1.67" class="m">Downloading</text><text x="22.043999999999997" y="1.67" class="m">pseudo-chrome</text></symbol><symbol id="5"><rect height="2.171" width="9" x="0" y="0" class="k"></rect><text x="0" y="1.67" class="l"> SUCCESS </text><text x="10.02" y="1.67" class="m">Downloading</text><text x="22.043999999999997" y="1.67" class="m">pseudo-outlook</text></symbol><symbol id="6"><rect height="2.171" width="9" x="0" y="0" class="k"></rect><text x="0" y="1.67" class="l"> SUCCESS </text><text x="10.02" y="1.67" class="m">Downloading</text><text x="22.043999999999997" y="1.67" class="m">pseudo-explorer</text></symbol><symbol id="7"><rect height="2.171" width="9" x="0" y="0" class="k"></rect><text x="0" y="1.67" class="l"> SUCCESS </text><text x="10.02" y="1.67" class="m">Downloading</text><text x="22.043999999999997" y="1.67" class="m">pseudo-dops</text></symbol><symbol id="8"><rect height="2.171" width="9" x="0" y="0" class="k"></rect><text x="0" y="1.67" class="l"> SUCCESS </text><text x="10.02" y="1.67" class="m">Downloading</text><text x="22.043999999999997" y="1.67" class="m">pseudo-git</text></symbol><symbol id="9"><rect height="2.171" width="9" x="0" y="0" class="k"></rect><text x="0" y="1.67" class="l"> SUCCESS </text><text x="10.02" y="1.67" class="m">Downloading</text><text x="22.043999999999997" y="1.67" class="m">pseudo-vsc</text></symbol><symbol id="10"><rect height="2.171" width="9" x="0" y="0" class="k"></rect><text x="0" y="1.67" class="l"> SUCCESS </text><text x="10.02" y="1.67" class="m">Downloading</text><text x="22.043999999999997" y="1.67" class="m">pseudo-intellij</text></symbol><symbol id="11"><rect height="2.171" width="9" x="0" y="0" class="k"></rect><text x="0" y="1.67" class="l"> SUCCESS </text><text x="10.02" y="1.67" class="m">Downloading</text><text x="22.043999999999997" y="1.67" class="m">pseudo-minecraft</text></symbol><symbol id="12"><rect height="2.171" width="9" x="0" y="0" class="k"></rect><text x="0" y="1.67" class="l"> SUCCESS </text><text x="10.02" y="1.67" class="m">Downloading</text><text x="22.043999999999997" y="1.67" class="m">pseudo-scoop</text></symbol><symbol id="13"><rect height="2.171" width="9" x="0" y="0" class="k"></rect><text x="0" y="1.67" class="l"> SUCCESS </text><text x="10.02" y="1.67" class="m">Downloading</text><text x="22.043999999999997" y="1.67" class="m">pseudo-chocolatey</text></symbol><symbol id="14"><text x="0" y="1.67" class="f">Downloading</text><text x="12.024" y="1.67" class="f">pseudo-chocolatey</text><text x="30.059999999999995" y="1.67" class="g">[</text><text x="31.061999999999998" y="1.67" class="h">12</text><text x="33.065999999999995" y="1.67" class="g">/</text><text x="34.068" y="1.67" class="h">12</text><text x="36.071999999999996" y="1.67" class="g">]</text><text x="38.07599999999999" y="1.67" class="n">████████████████████████████████</text><text x="71.142" y="1.67" class="o">100%</text><text x="76.15199999999999" y="1.67" class="j">|</text><text x="78.15599999999999" y="1.67" class="j">4s</text></symbol><symbol id="a"><rect height="25" width="80" x="0" y="0" class="p"></rect></symbol></defs><rect height="54.275" width="80" class="a"></rect><g class="r"><svg x="0" y="0" width="2160"><svg x="0"><use xlink:href="#a"></use></svg><svg x="80"><use xlink:href="#a"></use><use xlink:href="#1" y="0"></use></svg><svg x="160"><use xlink:href="#a"></use><use xlink:href="#2" y="0"></use><use xlink:href="#1" y="2.171"></use></svg><svg x="240"><use xlink:href="#a"></use><use xlink:href="#2" y="0"></use><text x="0" y="3.8409999999999997" class="f">Downloading</text><text x="12.024" y="3.8409999999999997" class="f">pseudo-excel</text><text x="25.05" y="3.8409999999999997" class="g">[</text><text x="26.052" y="3.8409999999999997" class="h">1</text><text x="27.054" y="3.8409999999999997" class="g">/</text><text x="28.055999999999997" y="3.8409999999999997" class="h">12</text><text x="30.059999999999995" y="3.8409999999999997" class="g">]</text><text x="32.064" y="3.8409999999999997" class="n">████</text><text x="73.146" y="3.8409999999999997" class="s">8%</text><text x="76.15199999999999" y="3.8409999999999997" class="j">|</text><text x="78.15599999999999" y="3.8409999999999997" class="j">0s</text></svg><svg x="320"><use xlink:href="#a"></use><use xlink:href="#2" y="0"></use><use xlink:href="#3" y="2.171"></use><text x="0" y="6.012" class="f">Downloading</text><text x="12.024" y="6.012" class="f">pseudo-photoshop</text><text x="29.058" y="6.012" class="g">[</text><text x="30.059999999999995" y="6.012" class="h">1</text><text x="31.061999999999998" y="6.012" class="g">/</text><text x="32.064" y="6.012" class="h">12</text><text x="34.068" y="6.012" class="g">]</text><text x="36.071999999999996" y="6.012" class="n">███</text><text x="73.146" y="6.012" class="s">8%</text><text x="76.15199999999999" y="6.012" class="j">|</text><text x="78.15599999999999" y="6.012" class="j">0s</text></svg><svg x="400"><use xlink:href="#a"></use><use xlink:href="#2" y="0"></use><use xlink:href="#3" y="2.171"></use><text x="0" y="6.012" class="f">Downloading</text><text x="12.024" y="6.012" class="f">pseudo-photoshop</text><text x="29.058" y="6.012" class="g">[</text><text x="30.059999999999995" y="6.012" class="h">2</text><text x="31.061999999999998" y="6.012" class="g">/</text><text x="32.064" y="6.012" class="h">12</text><text x="34.068" y="6.012" class="g">]</text><text x="36.071999999999996" y="6.012" class="n">██████</text><text x="72.14399999999999" y="6.012" class="t">17%</text><text x="76.15199999999999" y="6.012" class="j">|</text><text x="78.15599999999999" y="6.012" class="j">0s</text></svg><svg x="480"><use xlink:href="#a"></use><use xlink:href="#2" y="0"></use><use xlink:href="#3" y="2.171"></use><use xlink:href="#4" y="4.342"></use><text x="0" y="8.183" class="f">Downloading</text><text x="12.024" y="8.183" class="f">pseudo-chrome</text><text x="26.052" y="8.183" class="g">[</text><text x="27.054" y="8.183" class="h">2</text><text x="28.055999999999997" y="8.183" class="g">/</text><text x="29.058" y="8.183" class="h">12</text><text x="31.061999999999998" y="8.183" class="g">]</text><text x="33.065999999999995" y="8.183" class="n">███████</text><text x="72.14399999999999" y="8.183" class="t">17%</text><text x="76.15199999999999" y="8.183" class="j">|</text><text x="78.15599999999999" y="8.183" class="j">1s</text></svg><svg x="560"><use xlink:href="#a"></use><use xlink:href="#2" y="0"></use><use xlink:href="#3" y="2.171"></use><use xlink:href="#4" y="4.342"></use><text x="0" y="8.183" class="f">Downloading</text><text x="12.024" y="8.183" class="f">pseudo-chrome</text><text x="26.052" y="8.183" class="g">[</text><text x="27.054" y="8.183" class="h">3</text><text x="28.055999999999997" y="8.183" class="g">/</text><text x="29.058" y="8.183" class="h">12</text><text x="31.061999999999998" y="8.183" class="g">]</text><text x="33.065999999999995" y="8.183" class="n">██████████</text><text x="72.14399999999999" y="8.183" class="u">25%</text><text x="76.15199999999999" y="8.183" class="j">|</text><text x="78.15599999999999" y="8.183" class="j">1s</text></svg><svg x="640"><use xlink:href="#a"></use><use xlink:href="#2" y="0"></use><use xlink:href="#3" y="2.171"></use><use xlink:href="#4" y="4.342"></use><use xlink:href="#5" y="6.513"></use></svg><svg x="720"><use xlink:href="#a"></use><use xlink:href="#2" y="0"></use><use xlink:href="#3" y="2.171"></use><use xlink:href="#4" y="4.342"></use><use xlink:href="#5" y="6.513"></use><text x="0" y="10.354" class="f">Downloading</text><text x="12.024" y="10.354" class="f">pseudo-outlook</text><text x="27.054" y="10.354" class="g">[</text><text x="28.055999999999997" y="10.354" class="h">4</text><text x="29.058" y="10.354" class="g">/</text><text x="30.059999999999995" y="10.354" class="h">12</text><text x="32.064" y="10.354" class="g">]</text><text x="34.068" y="10.354" class="n">█████████████</text><text x="72.14399999999999" y="10.354" class="v">33%</text><text x="76.15199999999999" y="10.354" class="j">|</text><text x="78.15599999999999" y="10.354" class="j">1s</text></svg><svg x="800"><use xlink:href="#a"></use><use xlink:href="#2" y="0"></use><use xlink:href="#3" y="2.171"></use><use xlink:href="#4" y="4.342"></use><use xlink:href="#5" y="6.513"></use><use xlink:href="#6" y="8.684"></use><text x="0" y="12.525" class="f">Downloading</text><text x="12.024" y="12.525" class="f">pseudo-explorer</text><text x="28.055999999999997" y="12.525" class="g">[</text><text x="29.058" y="12.525" class="h">4</text><text x="30.059999999999995" y="12.525" class="g">/</text><text x="31.061999999999998" y="12.525" class="h">12</text><text x="33.065999999999995" y="12.525" class="g">]</text><text x="35.06999999999999" y="12.525" class="n">████████████</text><text x="72.14399999999999" y="12.525" class="v">33%</text><text x="76.15199999999999" y="12.525" class="j">|</text><text x="78.15599999999999" y="12.525" class="j">1s</text></svg><svg x="880"><use xlink:href="#a"></use><use xlink:href="#2" y="0"></use><use xlink:href="#3" y="2.171"></use><use xlink:href="#4" y="4.342"></use><use xlink:href="#5" y="6.513"></use><use xlink:href="#6" y="8.684"></use><text x="0" y="12.525" class="f">Downloading</text><text x="12.024" y="12.525" class="f">pseudo-explorer</text><text x="28.055999999999997" y="12.525" class="g">[</text><text x="29.058" y="12.525" class="h">5</text><text x="30.059999999999995" y="12.525" class="g">/</text><text x="31.061999999999998" y="12.525" class="h">12</text><text x="33.065999999999995" y="12.525" class="g">]</text><text x="35.06999999999999" y="12.525" class="n">███████████████</text><text x="72.14399999999999" y="12.525" class="w">42%</text><text x="76.15199999999999" y="12.525" class="j">|</text><text x="78.15599999999999" y="12.525" class="j">1s</text></svg><svg x="960"><use xlink:href="#a"></use><use xlink:href="#2" y="0"></use><use xlink:href="#3" y="2.171"></use><use xlink:href="#4" y="4.342"></use><use xlink:href="#5" y="6.513"></use><use xlink:href="#6" y="8.684"></use><use xlink:href="#7" y="10.855"></use></svg><svg x="1040"><use xlink:href="#a"></use><use xlink:href="#2" y="0"></use><use xlink:href="#3" y="2.171"></use><use xlink:href="#4" y="4.342"></use><use xlink:href="#5" y="6.513"></use><use xlink:href="#6" y="8.684"></use><use xlink:href="#7" y="10.855"></use><text x="0" y="14.696" class="f">Downloading</text><text x="12.024" y="14.696" class="f">pseudo-dops</text><text x="24.048" y="14.696" class="g">[</text><text x="25.05" y="14.696" class="h">6</text><text x="26.052" y="14.696" class="g">/</text><text x="27.054" y="14.696" class="h">12</text><text x="29.058" y="14.696" class="g">]</text><text x="31.061999999999998" y="14.696" class="n">████████████████████</text><text x="72.14399999999999" y="14.696" class="x">50%</text><text x="76.15199999999999" y="14.696" class="j">|</text><text x="78.15599999999999" y="14.696" class="j">2s</text></svg><svg x="1120"><use xlink:href="#a"></use><use xlink:href="#2" y="0"></use><use xlink:href="#3" y="2.171"></use><use xlink:href="#4" y="4.342"></use><use xlink:href="#5" y="6.513"></use><use xlink:href="#6" y="8.684"></use><use xlink:href="#7" y="10.855"></use><use xlink:href="#8" y="13.026"></use><text x="0" y="16.866999999999997" class="f">Downloading</text><text x="12.024" y="16.866999999999997" class="f">pseudo-git</text><text x="23.045999999999996" y="16.866999999999997" class="g">[</text><text x="24.048" y="16.866999999999997" class="h">6</text><text x="25.05" y="16.866999999999997" class="g">/</text><text x="26.052" y="16.866999999999997" class="h">12</text><text x="28.055999999999997" y="16.866999999999997" class="g">]</text><text x="30.059999999999995" y="16.866999999999997" class="n">█████████████████████</text><text x="72.14399999999999" y="16.866999999999997" class="x">50%</text><text x="76.15199999999999" y="16.866999999999997" class="j">|</text><text x="78.15599999999999" y="16.866999999999997" class="j">2s</text></svg><svg x="1200"><use xlink:href="#a"></use><use xlink:href="#2" y="0"></use><use xlink:href="#3" y="2.171"></use><use xlink:href="#4" y="4.342"></use><use xlink:href="#5" y="6.513"></use><use xlink:href="#6" y="8.684"></use><use xlink:href="#7" y="10.855"></use><use xlink:href="#8" y="13.026"></use><text x="0" y="16.866999999999997" class="f">Downloading</text><text x="12.024" y="16.866999999999997" class="f">pseudo-git</text><text x="23.045999999999996" y="16.866999999999997" class="g">[</text><text x="24.048" y="16.866999999999997" class="h">7</text><text x="25.05" y="16.866999999999997" class="g">/</text><text x="26.052" y="16.866999999999997" class="h">12</text><text x="28.055999999999997" y="16.866999999999997" class="g">]</text><text x="30.059999999999995" y="16.866999999999997" class="n">████████████████████████</text><text x="72.14399999999999" y="16.866999999999997" class="y">58%</text><text x="76.15199999999999" y="16.866999999999997" class="j">|</text><text x="78.15599999999999" y="16.866999999999997" class="j">2s</text></svg><svg x="1280"><use xlink:href="#a"></use><use xlink:href="#2" y="0"></use><use xlink:href="#3" y="2.171"></use><use xlink:href="#4" y="4.342"></use><use xlink:href="#5" y="6.513"></use><use xlink:href="#6" y="8.684"></use><use xlink:href="#7" y="10.855"></use><use xlink:href="#8" y="13.026"></use><use xlink:href="#9" y="15.197"></use></svg><svg x="1360"><use xlink:href="#a"></use><use xlink:href="#2" y="0"></use><use xlink:href="#3" y="2.171"></use><use xlink:href="#4" y="4.342"></use><use xlink:href="#5" y="6.513"></use><use xlink:href="#6" y="8.684"></use><use xlink:href="#7" y="10.855"></use><use xlink:href="#8" y="13.026"></use><use xlink:href="#9" y="15.197"></use><text x="0" y="19.037999999999997" class="f">Downloading</text><text x="12.024" y="19.037999999999997" class="f">pseudo-vsc</text><text x="23.045999999999996" y="19.037999999999997" class="g">[</text><text x="24.048" y="19.037999999999997" class="h">8</text><text x="25.05" y="19.037999999999997" class="g">/</text><text x="26.052" y="19.037999999999997" class="h">12</text><text x="28.055999999999997" y="19.037999999999997" class="g">]</text><text x="30.059999999999995" y="19.037999999999997" class="n">███████████████████████████</text><text x="72.14399999999999" y="19.037999999999997" class="z">67%</text><text x="76.15199999999999" y="19.037999999999997" class="j">|</text><text x="78.15599999999999" y="19.037999999999997" class="j">2s</text></svg><svg x="1440"><use xlink:href="#a"></use><use xlink:href="#2" y="0"></use><use xlink:href="#3" y="2.171"></use><use xlink:href="#4" y="4.342"></use><use xlink:href="#5" y="6.513"></use><use xlink:href="#6" y="8.684"></use><use xlink:href="#7" y="10.855"></use><use xlink:href="#8" y="13.026"></use><use xlink:href="#9" y="15.197"></use><use xlink:href="#10" y="17.368"></use></svg><svg x="1520"><use xlink:href="#a"></use><use xlink:href="#2" y="0"></use><use xlink:href="#3" y="2.171"></use><use xlink:href="#4" y="4.342"></use><use xlink:href="#5" y="6.513"></use><use xlink:href="#6" y="8.684"></use><use xlink:href="#7" y="10.855"></use><use xlink:href="#8" y="13.026"></use><use xlink:href="#9" y="15.197"></use><use xlink:href="#10" y="17.368"></use><text x="0" y="21.209000000000003" class="f">Downloading</text><text x="12.024" y="21.209000000000003" class="f">pseudo-intellij</text><text x="28.055999999999997" y="21.209000000000003" class="g">[</text><text x="29.058" y="21.209000000000003" class="h">9</text><text x="30.059999999999995" y="21.209000000000003" class="g">/</text><text x="31.061999999999998" y="21.209000000000003" class="h">12</text><text x="33.065999999999995" y="21.209000000000003" class="g">]</text><text x="35.06999999999999" y="21.209000000000003" class="n">███████████████████████████</text><text x="72.14399999999999" y="21.209000000000003" class="A">75%</text><text x="76.15199999999999" y="21.209000000000003" class="j">|</text><text x="78.15599999999999" y="21.209000000000003" class="j">3s</text></svg><svg x="1600"><use xlink:href="#a"></use><use xlink:href="#2" y="0"></use><use xlink:href="#3" y="2.171"></use><use xlink:href="#4" y="4.342"></use><use xlink:href="#5" y="6.513"></use><use xlink:href="#6" y="8.684"></use><use xlink:href="#7" y="10.855"></use><use xlink:href="#8" y="13.026"></use><use xlink:href="#9" y="15.197"></use><use xlink:href="#10" y="17.368"></use><use xlink:href="#11" y="19.539"></use><text x="0" y="23.380000000000003" class="f">Downloading</text><text x="12.024" y="23.380000000000003" class="f">pseudo-minecraft</text><text x="29.058" y="23.380000000000003" class="g">[</text><text x="30.059999999999995" y="23.380000000000003" class="h">9</text><text x="31.061999999999998" y="23.380000000000003" class="g">/</text><text x="32.064" y="23.380000000000003" class="h">12</text><text x="34.068" y="23.380000000000003" class="g">]</text><text x="36.071999999999996" y="23.380000000000003" class="n">██████████████████████████</text><text x="72.14399999999999" y="23.380000000000003" class="A">75%</text><text x="76.15199999999999" y="23.380000000000003" class="j">|</text><text x="78.15599999999999" y="23.380000000000003" class="j">3s</text></svg><svg x="1680"><use xlink:href="#a"></use><use xlink:href="#2" y="0"></use><use xlink:href="#3" y="2.171"></use><use xlink:href="#4" y="4.342"></use><use xlink:href="#5" y="6.513"></use><use xlink:href="#6" y="8.684"></use><use xlink:href="#7" y="10.855"></use><use xlink:href="#8" y="13.026"></use><use xlink:href="#9" y="15.197"></use><use xlink:href="#10" y="17.368"></use><use xlink:href="#11" y="19.539"></use><text x="0" y="23.380000000000003" class="f">Downloading</text><text x="12.024" y="23.380000000000003" class="f">pseudo-minecraft</text><text x="29.058" y="23.380000000000003" class="g">[</text><text x="30.059999999999995" y="23.380000000000003" class="h">10</text><text x="32.064" y="23.380000000000003" class="g">/</text><text x="33.065999999999995" y="23.380000000000003" class="h">12</text><text x="35.06999999999999" y="23.380000000000003" class="g">]</text><text x="37.074" y="23.380000000000003" class="n">████████████████████████████</text><text x="72.14399999999999" y="23.380000000000003" class="B">83%</text><text x="76.15199999999999" y="23.380000000000003" class="j">|</text><text x="78.15599999999999" y="23.380000000000003" class="j">3s</text></svg><svg x="1760"><use xlink:href="#a"></use><use xlink:href="#2" y="0"></use><use xlink:href="#3" y="2.171"></use><use xlink:href="#4" y="4.342"></use><use xlink:href="#5" y="6.513"></use><use xlink:href="#6" y="8.684"></use><use xlink:href="#7" y="10.855"></use><use xlink:href="#8" y="13.026"></use><use xlink:href="#9" y="15.197"></use><use xlink:href="#10" y="17.368"></use><use xlink:href="#11" y="19.539"></use><use xlink:href="#12" y="21.71"></use></svg><svg x="1840"><use xlink:href="#a"></use><use xlink:href="#2" y="0"></use><use xlink:href="#3" y="2.171"></use><use xlink:href="#4" y="4.342"></use><use xlink:href="#5" y="6.513"></use><use xlink:href="#6" y="8.684"></use><use xlink:href="#7" y="10.855"></use><use xlink:href="#8" y="13.026"></use><use xlink:href="#9" y="15.197"></use><use xlink:href="#10" y="17.368"></use><use xlink:href="#11" y="19.539"></use><use xlink:href="#12" y="21.71"></use><text x="0" y="25.550999999999995" class="f">Downloading</text><text x="12.024" y="25.550999999999995" class="f">pseudo-scoop</text><text x="25.05" y="25.550999999999995" class="g">[</text><text x="26.052" y="25.550999999999995" class="h">11</text><text x="28.055999999999997" y="25.550999999999995" class="g">/</text><text x="29.058" y="25.550999999999995" class="h">12</text><text x="31.061999999999998" y="25.550999999999995" class="g">]</text><text x="33.065999999999995" y="25.550999999999995" class="n">██████████████████████████████████</text><text x="72.14399999999999" y="25.550999999999995" class="C">92%</text><text x="76.15199999999999" y="25.550999999999995" class="j">|</text><text x="78.15599999999999" y="25.550999999999995" class="j">4s</text></svg><svg x="1920"><use xlink:href="#a"></use><use xlink:href="#2" y="0"></use><use xlink:href="#3" y="2.171"></use><use xlink:href="#4" y="4.342"></use><use xlink:href="#5" y="6.513"></use><use xlink:href="#6" y="8.684"></use><use xlink:href="#7" y="10.855"></use><use xlink:href="#8" y="13.026"></use><use xlink:href="#9" y="15.197"></use><use xlink:href="#10" y="17.368"></use><use xlink:href="#11" y="19.539"></use><use xlink:href="#12" y="21.71"></use><use xlink:href="#13" y="23.880999999999997"></use></svg><svg x="2000"><use xlink:href="#a"></use><use xlink:href="#2" y="0"></use><use xlink:href="#3" y="2.171"></use><use xlink:href="#4" y="4.342"></use><use xlink:href="#5" y="6.513"></use><use xlink:href="#6" y="8.684"></use><use xlink:href="#7" y="10.855"></use><use xlink:href="#8" y="13.026"></use><use xlink:href="#9" y="15.197"></use><use xlink:href="#10" y="17.368"></use><use xlink:href="#11" y="19.539"></use><use xlink:href="#12" y="21.71"></use><use xlink:href="#13" y="23.880999999999997"></use><use xlink:href="#14" y="26.052"></use></svg><svg x="2080"><use xlink:href="#a"></use><use xlink:href="#2" y="0"></use><use xlink:href="#3" y="2.171"></use><use xlink:href="#4" y="4.342"></use><use xlink:href="#5" y="6.513"></use><use xlink:href="#6" y="8.684"></use><use xlink:href="#7" y="10.855"></use><use xlink:href="#8" y="13.026"></use><use xlink:href="#9" y="15.197"></use><use xlink:href="#10" y="17.368"></use><use xlink:href="#11" y="19.539"></use><use xlink:href="#12" y="21.71"></use><use xlink:href="#13" y="23.880999999999997"></use><use xlink:href="#14" y="26.052"></use><text x="0" y="32.064" class="j">Restarting</text><text x="11.021999999999998" y="32.064" class="j">animation...</text></svg></svg></g></g></svg></svg>