<svg xmlns="http://www.w3.org/2000/svg" xmlns:xlink="http://www.w3.org/1999/xlink" width="840" height="581.04"><rect width="840" height="581.04" rx="5" ry="5" class="a"></rect><svg y="0%" x="0%"><circle cx="20" cy="20" r="6" class="b"></circle><circle cx="40" cy="20" r="6" class="c"></circle><circle cx="60" cy="20" r="6" class="d"></circle></svg><svg height="521.04" viewBox="0 0 80 52.104" width="800" x="15" xmlns="http://www.w3.org/2000/svg" xmlns:xlink="http://www.w3.org/1999/xlink" y="50"><style>.e, .g, .f {
	font-family:
			'Courier New'
			Roboto,
			Helvetica,
			Arial,
			sans-serif,
			'Apple Color Emoji',
			'Segoe UI Emoji' !important;
}.a{fill:rgb(35,35,35)}.b{fill:#ff5f58}.c{fill:#ffbd2e}.d{fill:#18c132}.e{font-family:'Courier New',Monaco,Consolas,Menlo,'Bitstream Vera Sans Mono','Powerline Symbols',monospace}.f{fill:rgb(168,204,140)}.g{white-space:pre}.h{fill:rgb(124,255,0);white-space:pre}.i{fill:rgb(126,231,233);white-space:pre}.j{fill:rgb(104,104,104);white-space:pre}.k{fill:rgb(255,255,255);white-space:pre}.l{fill:rgb(0,198,255);white-space:pre}.m{fill:rgb(191,63,0);white-space:pre}.n{fill:rgb(160,160,160);white-space:pre}.o{fill:rgb(148,106,0);white-space:pre}.p{fill:rgb(127,127,0);white-space:pre}.q{fill:rgb(63,191,0);white-space:pre}.r{fill:rgb(0,255,0);white-space:pre}.s{fill:transparent}.u{animation-duration:12.166809s;animation-iteration-count:infinite;animation-name:t;animation-timing-function:steps(1,end)}.v{fill:rgb(233,21,0);white-space:pre}.w{fill:rgb(212,42,0);white-space:pre}.x{fill:rgb(170,85,0);white-space:pre}.y{fill:rgb(106,148,0);white-space:pre}.z{fill:rgb(85,170,0);white-space:pre}.A{fill:rgb(42,212,0);white-space:pre}.B{fill:rgb(21,233,0);white-space:pre}@keyframes t{0%{transform:translateX(-0px)}2.5%{transform:translateX(-80px)}3.1%{transform:translateX(-160px)}5.4%{transform:translateX(-240px)}5.4%{transform:translateX(-320px)}8.3%{transform:translateX(-400px)}8.3%{transform:translateX(-480px)}10.7%{transform:translateX(-560px)}11.2%{transform:translateX(-640px)}11.2%{transform:translateX(-720px)}14%{transform:translateX(-800px)}14%{transform:translateX(-880px)}14%{transform:translateX(-960px)}14.1%{transform:translateX(-1040px)}16.9%{transform:translateX(-1120px)}16.9%{transform:translateX(-1200px)}16.9%{transform:translateX(-1280px)}16.9%{transform:translateX(-1360px)}18.9%{transform:translateX(-1440px)}27.2%{transform:translateX(-1520px)}35.4%{transform:translateX(-1600px)}43.6%{transform:translateX(-1680px)}44.5%{transform:translateX(-1760px)}44.5%{transform:translateX(-1840px)}44.5%{transform:translateX(-1920px)}44.5%{transform:translateX(-2000px)}47.4%{transform:translateX(-2080px)}50.3%{transform:translateX(-2160px)}51.8%{transform:translateX(-2240px)}53.1%{transform:translateX(-2320px)}56%{transform:translateX(-2400px)}56%{transform:translateX(-2480px)}56%{transform:translateX(-2560px)}56%{transform:translateX(-2640px)}58.9%{transform:translateX(-2720px)}100%{transform:translateX(-2800px)}}</style><g font-family="'Courier New',Monaco, Consolas, Menlo, &#x27;Bitstream Vera Sans Mono&#x27;, &#x27;Powerline Symbols&#x27;, monospace" font-size="1.67" class="e"><defs><symbol id="1"><rect height="2.171" width="9" x="0" y="0" class="f"></rect><text x="0" y="1.67" class="g"> SUCCESS </text><text x="10.02" y="1.67" class="h">Downloading</text><text x="22.043999999999997" y="1.67" class="h">pseudo-excel</text></symbol><symbol id="2"><rect height="2.171" width="9" x="0" y="0" class="f"></rect><text x="0" y="1.67" class="g"> SUCCESS </text><text x="10.02" y="1.67" class="h">Downloading</text><text x="22.043999999999997" y="1.67" class="h">pseudo-photoshop</text></symbol><symbol id="3"><rect height="2.171" width="9" x="0" y="0" class="f"></rect><text x="0" y="1.67" class="g"> SUCCESS </text><text x="10.02" y="1.67" class="h">Downloading</text><text x="22.043999999999997" y="1.67" class="h">pseudo-chrome</text></symbol><symbol id="4"><text x="0" y="1.67" class="i">Downloading</text><text x="12.024" y="1.67" class="i">pseudo-chrome</text><text x="26.052" y="1.67" class="j">[</text><text x="27.054" y="1.67" class="k">03</text><text x="29.058" y="1.67" class="j">/</text><text x="30.059999999999995" y="1.67" class="k">12</text><text x="32.064" y="1.67" class="j">]</text><text x="34.068" y="1.67" class="l">█████████</text><text x="43.086" y="1.67" class="j">███████████████████████████</text><text x="72.14399999999999" y="1.67" class="m">25%</text><text x="76.15199999999999" y="1.67" class="n">|</text><text x="78.15599999999999" y="1.67" class="n">1s</text></symbol><symbol id="5"><rect height="2.171" width="9" x="0" y="0" class="f"></rect><text x="0" y="1.67" class="g"> SUCCESS </text><text x="10.02" y="1.67" class="h">Downloading</text><text x="22.043999999999997" y="1.67" class="h">pseudo-outlook</text></symbol><symbol id="6"><rect height="2.171" width="9" x="0" y="0" class="f"></rect><text x="0" y="1.67" class="g"> SUCCESS </text><text x="10.02" y="1.67" class="h">Downloading</text><text x="22.043999999999997" y="1.67" class="h">pseudo-explorer</text></symbol><symbol id="7"><text x="0" y="1.67" class="i">Downloading</text><text x="12.024" y="1.67" class="i">pseudo-dops</text><text x="24.048" y="1.67" class="j">[</text><text x="25.05" y="1.67" class="k">05</text><text x="27.054" y="1.67" class="j">/</text><text x="28.055999999999997" y="1.67" class="k">12</text><text x="30.059999999999995" y="1.67" class="j">]</text><text x="32.064" y="1.67" class="l">████████████████</text><text x="48.096" y="1.67" class="j">██████████████████████</text><text x="72.14399999999999" y="1.67" class="o">42%</text><text x="76.15199999999999" y="1.67" class="n">|</text><text x="78.15599999999999" y="1.67" class="n">2s</text></symbol><symbol id="8"><rect height="2.171" width="9" x="0" y="0" class="f"></rect><text x="0" y="1.67" class="g"> SUCCESS </text><text x="10.02" y="1.67" class="h">Downloading</text><text x="22.043999999999997" y="1.67" class="h">pseudo-dops</text></symbol><symbol id="9"><text x="0" y="1.67" class="i">Downloading</text><text x="12.024" y="1.67" class="i">pseudo-dops</text><text x="24.048" y="1.67" class="j">[</text><text x="25.05" y="1.67" class="k">06</text><text x="27.054" y="1.67" class="j">/</text><text x="28.055999999999997" y="1.67" class="k">12</text><text x="30.059999999999995" y="1.67" class="j">]</text><text x="32.064" y="1.67" class="l">███████████████████</text><text x="51.102" y="1.67" class="j">███████████████████</text><text x="72.14399999999999" y="1.67" class="p">50%</text><text x="76.15199999999999" y="1.67" class="n">|</text><text x="78.15599999999999" y="1.67" class="n">2s</text></symbol><symbol id="10"><text x="0" y="1.67" class="i">Downloading</text><text x="12.024" y="1.67" class="i">pseudo-git</text><text x="23.045999999999996" y="1.67" class="j">[</text><text x="24.048" y="1.67" class="k">06</text><text x="26.052" y="1.67" class="j">/</text><text x="27.054" y="1.67" class="k">12</text><text x="29.058" y="1.67" class="j">]</text><text x="31.061999999999998" y="1.67" class="l">████████████████████</text><text x="51.102" y="1.67" class="j">███████████████████</text><text x="72.14399999999999" y="1.67" class="p">50%</text><text x="76.15199999999999" y="1.67" class="n">|</text><text x="78.15599999999999" y="1.67" class="n">5s</text></symbol><symbol id="11"><rect height="2.171" width="9" x="0" y="0" class="f"></rect><text x="0" y="1.67" class="g"> SUCCESS </text><text x="10.02" y="1.67" class="h">Downloading</text><text x="22.043999999999997" y="1.67" class="h">pseudo-git</text></symbol><symbol id="12"><rect height="2.171" width="9" x="0" y="0" class="f"></rect><text x="0" y="1.67" class="g"> SUCCESS </text><text x="10.02" y="1.67" class="h">Downloading</text><text x="22.043999999999997" y="1.67" class="h">pseudo-vsc</text></symbol><symbol id="13"><rect height="2.171" width="9" x="0" y="0" class="f"></rect><text x="0" y="1.67" class="g"> SUCCESS </text><text x="10.02" y="1.67" class="h">Downloading</text><text x="22.043999999999997" y="1.67" class="h">pseudo-intellij</text></symbol><symbol id="14"><text x="0" y="1.67" class="i">Downloading</text><text x="12.024" y="1.67" class="i">pseudo-intellij</text><text x="28.055999999999997" y="1.67" class="j">[</text><text x="29.058" y="1.67" class="k">09</text><text x="31.061999999999998" y="1.67" class="j">/</text><text x="32.064" y="1.67" class="k">12</text><text x="34.068" y="1.67" class="j">]</text><text x="36.071999999999996" y="1.67" class="l">█████████████████████████</text><text x="61.12199999999999" y="1.67" class="j">█████████</text><text x="72.14399999999999" y="1.67" class="q">75%</text><text x="76.15199999999999" y="1.67" class="n">|</text><text x="78.15599999999999" y="1.67" class="n">6s</text></symbol><symbol id="15"><rect height="2.171" width="9" x="0" y="0" class="f"></rect><text x="0" y="1.67" class="g"> SUCCESS </text><text x="10.02" y="1.67" class="h">Downloading</text><text x="22.043999999999997" y="1.67" class="h">pseudo-minecraft</text></symbol><symbol id="16"><rect height="2.171" width="9" x="0" y="0" class="f"></rect><text x="0" y="1.67" class="g"> SUCCESS </text><text x="10.02" y="1.67" class="h">Downloading</text><text x="22.043999999999997" y="1.67" class="h">pseudo-scoop</text></symbol><symbol id="17"><rect height="2.171" width="9" x="0" y="0" class="f"></rect><text x="0" y="1.67" class="g"> SUCCESS </text><text x="10.02" y="1.67" class="h">Downloading</text><text x="22.043999999999997" y="1.67" class="h">pseudo-chocolatey</text></symbol><symbol id="18"><text x="0" y="1.67" class="i">Downloading</text><text x="12.024" y="1.67" class="i">pseudo-chocolatey</text><text x="30.059999999999995" y="1.67" class="j">[</text><text x="31.061999999999998" y="1.67" class="k">12</text><text x="33.065999999999995" y="1.67" class="j">/</text><text x="34.068" y="1.67" class="k">12</text><text x="36.071999999999996" y="1.67" class="j">]</text><text x="38.07599999999999" y="1.67" class="l">████████████████████████████████</text><text x="71.142" y="1.67" class="r">100%</text><text x="76.15199999999999" y="1.67" class="n">|</text><text x="78.15599999999999" y="1.67" class="n">7s</text></symbol><symbol id="a"><rect height="24" width="80" x="0" y="0" class="s"></rect></symbol></defs><rect height="52.104" width="80" class="a"></rect><g class="u"><svg x="0" y="0" width="2880"><svg x="0"><use xlink:href="#a"></use></svg><svg x="80"><use xlink:href="#a"></use></svg><svg x="160"><use xlink:href="#a"></use><use xlink:href="#1" y="0"></use><text x="0" y="3.8409999999999997" class="i">Downloading</text><text x="12.024" y="3.8409999999999997" class="i">pseudo-excel</text><text x="25.05" y="3.8409999999999997" class="j">[</text><text x="26.052" y="3.8409999999999997" class="k">01</text><text x="28.055999999999997" y="3.8409999999999997" class="j">/</text><text x="29.058" y="3.8409999999999997" class="k">12</text><text x="31.061999999999998" y="3.8409999999999997" class="j">]</text><text x="33.065999999999995" y="3.8409999999999997" class="l">████</text><text x="37.074" y="3.8409999999999997" class="j">█████████████████████████████████</text><text x="73.146" y="3.8409999999999997" class="v">8%</text><text x="76.15199999999999" y="3.8409999999999997" class="n">|</text><text x="78.15599999999999" y="3.8409999999999997" class="n">0s</text></svg><svg x="240"><use xlink:href="#a"></use><use xlink:href="#1" y="0"></use><text x="0" y="3.8409999999999997" class="i">Downloading</text><text x="12.024" y="3.8409999999999997" class="i">pseudo-photoshop</text><text x="29.058" y="3.8409999999999997" class="j">[</text><text x="30.059999999999995" y="3.8409999999999997" class="k">01</text><text x="32.064" y="3.8409999999999997" class="j">/</text><text x="33.065999999999995" y="3.8409999999999997" class="k">12</text><text x="35.06999999999999" y="3.8409999999999997" class="j">]</text><text x="37.074" y="3.8409999999999997" class="l">███</text><text x="40.08" y="3.8409999999999997" class="j">██████████████████████████████</text><text x="73.146" y="3.8409999999999997" class="v">8%</text><text x="76.15199999999999" y="3.8409999999999997" class="n">|</text><text x="78.15599999999999" y="3.8409999999999997" class="n">0s</text></svg><svg x="320"><use xlink:href="#a"></use><use xlink:href="#1" y="0"></use><use xlink:href="#2" y="2.171"></use><text x="0" y="6.012" class="i">Downloading</text><text x="12.024" y="6.012" class="i">pseudo-photoshop</text><text x="29.058" y="6.012" class="j">[</text><text x="30.059999999999995" y="6.012" class="k">02</text><text x="32.064" y="6.012" class="j">/</text><text x="33.065999999999995" y="6.012" class="k">12</text><text x="35.06999999999999" y="6.012" class="j">]</text><text x="37.074" y="6.012" class="l">██████</text><text x="43.086" y="6.012" class="j">███████████████████████████</text><text x="72.14399999999999" y="6.012" class="w">17%</text><text x="76.15199999999999" y="6.012" class="n">|</text><text x="78.15599999999999" y="6.012" class="n">0s</text></svg><svg x="400"><use xlink:href="#a"></use><use xlink:href="#1" y="0"></use><use xlink:href="#2" y="2.171"></use><use xlink:href="#3" y="4.342"></use><text x="0" y="8.183" class="i">Downloading</text><text x="12.024" y="8.183" class="i">pseudo-chrome</text><text x="26.052" y="8.183" class="j">[</text><text x="27.054" y="8.183" class="k">02</text><text x="29.058" y="8.183" class="j">/</text><text x="30.059999999999995" y="8.183" class="k">12</text><text x="32.064" y="8.183" class="j">]</text><text x="34.068" y="8.183" class="l">██████</text><text x="40.08" y="8.183" class="j">██████████████████████████████</text><text x="72.14399999999999" y="8.183" class="w">17%</text><text x="76.15199999999999" y="8.183" class="n">|</text><text x="78.15599999999999" y="8.183" class="n">1s</text></svg><svg x="480"><use xlink:href="#a"></use><use xlink:href="#1" y="0"></use><use xlink:href="#2" y="2.171"></use><use xlink:href="#3" y="4.342"></use><use xlink:href="#4" y="6.513"></use></svg><svg x="560"><use xlink:href="#a"></use><use xlink:href="#1" y="0"></use><use xlink:href="#2" y="2.171"></use><use xlink:href="#3" y="4.342"></use><use xlink:href="#4" y="6.513"></use></svg><svg x="640"><use xlink:href="#a"></use><use xlink:href="#1" y="0"></use><use xlink:href="#2" y="2.171"></use><use xlink:href="#3" y="4.342"></use><use xlink:href="#5" y="6.513"></use><text x="0" y="10.354" class="i">Downloading</text><text x="12.024" y="10.354" class="i">pseudo-outlook</text><text x="27.054" y="10.354" class="j">[</text><text x="28.055999999999997" y="10.354" class="k">03</text><text x="30.059999999999995" y="10.354" class="j">/</text><text x="31.061999999999998" y="10.354" class="k">12</text><text x="33.065999999999995" y="10.354" class="j">]</text><text x="35.06999999999999" y="10.354" class="l">█████████</text><text x="44.087999999999994" y="10.354" class="j">██████████████████████████</text><text x="72.14399999999999" y="10.354" class="m">25%</text><text x="76.15199999999999" y="10.354" class="n">|</text><text x="78.15599999999999" y="10.354" class="n">1s</text></svg><svg x="720"><use xlink:href="#a"></use><use xlink:href="#1" y="0"></use><use xlink:href="#2" y="2.171"></use><use xlink:href="#3" y="4.342"></use><use xlink:href="#5" y="6.513"></use><text x="0" y="10.354" class="i">Downloading</text><text x="12.024" y="10.354" class="i">pseudo-outlook</text><text x="27.054" y="10.354" class="j">[</text><text x="28.055999999999997" y="10.354" class="k">04</text><text x="30.059999999999995" y="10.354" class="j">/</text><text x="31.061999999999998" y="10.354" class="k">12</text><text x="33.065999999999995" y="10.354" class="j">]</text><text x="35.06999999999999" y="10.354" class="l">████████████</text><text x="47.093999999999994" y="10.354" class="j">███████████████████████</text><text x="72.14399999999999" y="10.354" class="x">33%</text><text x="76.15199999999999" y="10.354" class="n">|</text><text x="78.15599999999999" y="10.354" class="n">1s</text></svg><svg x="800"><use xlink:href="#a"></use><use xlink:href="#1" y="0"></use><use xlink:href="#2" y="2.171"></use><use xlink:href="#3" y="4.342"></use><use xlink:href="#5" y="6.513"></use><text x="0" y="10.354" class="i">Downloading</text><text x="12.024" y="10.354" class="i">pseudo-explorer</text><text x="28.055999999999997" y="10.354" class="j">[</text><text x="29.058" y="10.354" class="k">04</text><text x="31.061999999999998" y="10.354" class="j">/</text><text x="32.064" y="10.354" class="k">12</text><text x="34.068" y="10.354" class="j">]</text><text x="36.071999999999996" y="10.354" class="l">████████████</text><text x="48.096" y="10.354" class="j">██████████████████████</text><text x="72.14399999999999" y="10.354" class="x">33%</text><text x="76.15199999999999" y="10.354" class="n">|</text><text x="78.15599999999999" y="10.354" class="n">1s</text></svg><svg x="880"><use xlink:href="#a"></use><use xlink:href="#1" y="0"></use><use xlink:href="#2" y="2.171"></use><use xlink:href="#3" y="4.342"></use><use xlink:href="#5" y="6.513"></use><use xlink:href="#6" y="8.684"></use></svg><svg x="960"><use xlink:href="#a"></use><use xlink:href="#1" y="0"></use><use xlink:href="#2" y="2.171"></use><use xlink:href="#3" y="4.342"></use><use xlink:href="#5" y="6.513"></use><use xlink:href="#6" y="8.684"></use></svg><svg x="1040"><use xlink:href="#a"></use><use xlink:href="#1" y="0"></use><use xlink:href="#2" y="2.171"></use><use xlink:href="#3" y="4.342"></use><use xlink:href="#5" y="6.513"></use><use xlink:href="#6" y="8.684"></use><text x="0" y="12.525" class="i">Downloading</text><text x="12.024" y="12.525" class="i">pseudo-explorer</text><text x="28.055999999999997" y="12.525" class="j">[</text><text x="29.058" y="12.525" class="k">05</text><text x="31.061999999999998" y="12.525" class="j">/</text><text x="32.064" y="12.525" class="k">12</text><text x="34.068" y="12.525" class="j">]</text><text x="36.071999999999996" y="12.525" class="l">██████████████</text><text x="50.1" y="12.525" class="j">████████████████████</text><text x="72.14399999999999" y="12.525" class="o">42%</text><text x="76.15199999999999" y="12.525" class="n">|</text><text x="78.15599999999999" y="12.525" class="n">1s</text></svg><svg x="1120"><use xlink:href="#a"></use><use xlink:href="#1" y="0"></use><use xlink:href="#2" y="2.171"></use><use xlink:href="#3" y="4.342"></use><use xlink:href="#5" y="6.513"></use><use xlink:href="#6" y="8.684"></use><use xlink:href="#7" y="10.855"></use></svg><svg x="1200"><use xlink:href="#a"></use><use xlink:href="#1" y="0"></use><use xlink:href="#2" y="2.171"></use><use xlink:href="#3" y="4.342"></use><use xlink:href="#5" y="6.513"></use><use xlink:href="#6" y="8.684"></use><use xlink:href="#8" y="10.855"></use></svg><svg x="1280"><use xlink:href="#a"></use><use xlink:href="#1" y="0"></use><use xlink:href="#2" y="2.171"></use><use xlink:href="#3" y="4.342"></use><use xlink:href="#5" y="6.513"></use><use xlink:href="#6" y="8.684"></use><use xlink:href="#8" y="10.855"></use><use xlink:href="#7" y="13.026"></use></svg><svg x="1360"><use xlink:href="#a"></use><use xlink:href="#1" y="0"></use><use xlink:href="#2" y="2.171"></use><use xlink:href="#3" y="4.342"></use><use xlink:href="#5" y="6.513"></use><use xlink:href="#6" y="8.684"></use><use xlink:href="#8" y="10.855"></use><use xlink:href="#9" y="13.026"></use></svg><svg x="1440"><use xlink:href="#a"></use><use xlink:href="#1" y="0"></use><use xlink:href="#2" y="2.171"></use><use xlink:href="#3" y="4.342"></use><use xlink:href="#5" y="6.513"></use><use xlink:href="#6" y="8.684"></use><use xlink:href="#8" y="10.855"></use><use xlink:href="#9" y="13.026"></use></svg><svg x="1520"><use xlink:href="#a"></use><use xlink:href="#1" y="0"></use><use xlink:href="#2" y="2.171"></use><use xlink:href="#3" y="4.342"></use><use xlink:href="#5" y="6.513"></use><use xlink:href="#6" y="8.684"></use><use xlink:href="#8" y="10.855"></use><text x="0" y="14.696" class="i">Downloading</text><text x="12.024" y="14.696" class="i">pseudo-dops</text><text x="24.048" y="14.696" class="j">[</text><text x="25.05" y="14.696" class="k">06</text><text x="27.054" y="14.696" class="j">/</text><text x="28.055999999999997" y="14.696" class="k">12</text><text x="30.059999999999995" y="14.696" class="j">]</text><text x="32.064" y="14.696" class="l">███████████████████</text><text x="51.102" y="14.696" class="j">███████████████████</text><text x="72.14399999999999" y="14.696" class="p">50%</text><text x="76.15199999999999" y="14.696" class="n">|</text><text x="78.15599999999999" y="14.696" class="n">3s</text></svg><svg x="1600"><use xlink:href="#a"></use><use xlink:href="#1" y="0"></use><use xlink:href="#2" y="2.171"></use><use xlink:href="#3" y="4.342"></use><use xlink:href="#5" y="6.513"></use><use xlink:href="#6" y="8.684"></use><use xlink:href="#8" y="10.855"></use><text x="0" y="14.696" class="i">Downloading</text><text x="12.024" y="14.696" class="i">pseudo-dops</text><text x="24.048" y="14.696" class="j">[</text><text x="25.05" y="14.696" class="k">06</text><text x="27.054" y="14.696" class="j">/</text><text x="28.055999999999997" y="14.696" class="k">12</text><text x="30.059999999999995" y="14.696" class="j">]</text><text x="32.064" y="14.696" class="l">███████████████████</text><text x="51.102" y="14.696" class="j">███████████████████</text><text x="72.14399999999999" y="14.696" class="p">50%</text><text x="76.15199999999999" y="14.696" class="n">|</text><text x="78.15599999999999" y="14.696" class="n">4s</text></svg><svg x="1680"><use xlink:href="#a"></use><use xlink:href="#1" y="0"></use><use xlink:href="#2" y="2.171"></use><use xlink:href="#3" y="4.342"></use><use xlink:href="#5" y="6.513"></use><use xlink:href="#6" y="8.684"></use><use xlink:href="#8" y="10.855"></use><text x="0" y="14.696" class="i">Downloading</text><text x="12.024" y="14.696" class="i">pseudo-dops</text><text x="24.048" y="14.696" class="j">[</text><text x="25.05" y="14.696" class="k">06</text><text x="27.054" y="14.696" class="j">/</text><text x="28.055999999999997" y="14.696" class="k">12</text><text x="30.059999999999995" y="14.696" class="j">]</text><text x="32.064" y="14.696" class="l">███████████████████</text><text x="51.102" y="14.696" class="j">███████████████████</text><text x="72.14399999999999" y="14.696" class="p">50%</text><text x="76.15199999999999" y="14.696" class="n">|</text><text x="78.15599999999999" y="14.696" class="n">5s</text></svg><svg x="1760"><use xlink:href="#a"></use><use xlink:href="#1" y="0"></use><use xlink:href="#2" y="2.171"></use><use xlink:href="#3" y="4.342"></use><use xlink:href="#5" y="6.513"></use><use xlink:href="#6" y="8.684"></use><use xlink:href="#8" y="10.855"></use><use xlink:href="#10" y="13.026"></use></svg><svg x="1840"><use xlink:href="#a"></use><use xlink:href="#1" y="0"></use><use xlink:href="#2" y="2.171"></use><use xlink:href="#3" y="4.342"></use><use xlink:href="#5" y="6.513"></use><use xlink:href="#6" y="8.684"></use><use xlink:href="#8" y="10.855"></use><use xlink:href="#11" y="13.026"></use></svg><svg x="1920"><use xlink:href="#a"></use><use xlink:href="#1" y="0"></use><use xlink:href="#2" y="2.171"></use><use xlink:href="#3" y="4.342"></use><use xlink:href="#5" y="6.513"></use><use xlink:href="#6" y="8.684"></use><use xlink:href="#8" y="10.855"></use><use xlink:href="#11" y="13.026"></use><use xlink:href="#10" y="15.197"></use></svg><svg x="2000"><use xlink:href="#a"></use><use xlink:href="#1" y="0"></use><use xlink:href="#2" y="2.171"></use><use xlink:href="#3" y="4.342"></use><use xlink:href="#5" y="6.513"></use><use xlink:href="#6" y="8.684"></use><use xlink:href="#8" y="10.855"></use><use xlink:href="#11" y="13.026"></use><text x="0" y="16.866999999999997" class="i">Downloading</text><text x="12.024" y="16.866999999999997" class="i">pseudo-git</text><text x="23.045999999999996" y="16.866999999999997" class="j">[</text><text x="24.048" y="16.866999999999997" class="k">07</text><text x="26.052" y="16.866999999999997" class="j">/</text><text x="27.054" y="16.866999999999997" class="k">12</text><text x="29.058" y="16.866999999999997" class="j">]</text><text x="31.061999999999998" y="16.866999999999997" class="l">███████████████████████</text><text x="54.108" y="16.866999999999997" class="j">████████████████</text><text x="72.14399999999999" y="16.866999999999997" class="y">58%</text><text x="76.15199999999999" y="16.866999999999997" class="n">|</text><text x="78.15599999999999" y="16.866999999999997" class="n">5s</text></svg><svg x="2080"><use xlink:href="#a"></use><use xlink:href="#1" y="0"></use><use xlink:href="#2" y="2.171"></use><use xlink:href="#3" y="4.342"></use><use xlink:href="#5" y="6.513"></use><use xlink:href="#6" y="8.684"></use><use xlink:href="#8" y="10.855"></use><use xlink:href="#11" y="13.026"></use><use xlink:href="#12" y="15.197"></use><text x="0" y="19.037999999999997" class="i">Downloading</text><text x="12.024" y="19.037999999999997" class="i">pseudo-vsc</text><text x="23.045999999999996" y="19.037999999999997" class="j">[</text><text x="24.048" y="19.037999999999997" class="k">08</text><text x="26.052" y="19.037999999999997" class="j">/</text><text x="27.054" y="19.037999999999997" class="k">12</text><text x="29.058" y="19.037999999999997" class="j">]</text><text x="31.061999999999998" y="19.037999999999997" class="l">██████████████████████████</text><text x="57.114" y="19.037999999999997" class="j">█████████████</text><text x="72.14399999999999" y="19.037999999999997" class="z">67%</text><text x="76.15199999999999" y="19.037999999999997" class="n">|</text><text x="78.15599999999999" y="19.037999999999997" class="n">5s</text></svg><svg x="2160"><use xlink:href="#a"></use><use xlink:href="#1" y="0"></use><use xlink:href="#2" y="2.171"></use><use xlink:href="#3" y="4.342"></use><use xlink:href="#5" y="6.513"></use><use xlink:href="#6" y="8.684"></use><use xlink:href="#8" y="10.855"></use><use xlink:href="#11" y="13.026"></use><use xlink:href="#12" y="15.197"></use><use xlink:href="#13" y="17.368"></use><use xlink:href="#14" y="19.539"></use></svg><svg x="2240"><use xlink:href="#a"></use><use xlink:href="#1" y="0"></use><use xlink:href="#2" y="2.171"></use><use xlink:href="#3" y="4.342"></use><use xlink:href="#5" y="6.513"></use><use xlink:href="#6" y="8.684"></use><use xlink:href="#8" y="10.855"></use><use xlink:href="#11" y="13.026"></use><use xlink:href="#12" y="15.197"></use><use xlink:href="#13" y="17.368"></use><use xlink:href="#14" y="19.539"></use></svg><svg x="2320"><use xlink:href="#a"></use><use xlink:href="#1" y="0"></use><use xlink:href="#2" y="2.171"></use><use xlink:href="#3" y="4.342"></use><use xlink:href="#5" y="6.513"></use><use xlink:href="#6" y="8.684"></use><use xlink:href="#8" y="10.855"></use><use xlink:href="#11" y="13.026"></use><use xlink:href="#12" y="15.197"></use><use xlink:href="#13" y="17.368"></use><use xlink:href="#15" y="19.539"></use><text x="0" y="23.380000000000003" class="i">Downloading</text><text x="12.024" y="23.380000000000003" class="i">pseudo-minecraft</text><text x="29.058" y="23.380000000000003" class="j">[</text><text x="30.059999999999995" y="23.380000000000003" class="k">10</text><text x="32.064" y="23.380000000000003" class="j">/</text><text x="33.065999999999995" y="23.380000000000003" class="k">12</text><text x="35.06999999999999" y="23.380000000000003" class="j">]</text><text x="37.074" y="23.380000000000003" class="l">███████████████████████████</text><text x="64.128" y="23.380000000000003" class="j">██████</text><text x="72.14399999999999" y="23.380000000000003" class="A">83%</text><text x="76.15199999999999" y="23.380000000000003" class="n">|</text><text x="78.15599999999999" y="23.380000000000003" class="n">6s</text></svg><svg x="2400"><use xlink:href="#a"></use><use xlink:href="#1" y="0"></use><use xlink:href="#2" y="2.171"></use><use xlink:href="#3" y="4.342"></use><use xlink:href="#5" y="6.513"></use><use xlink:href="#6" y="8.684"></use><use xlink:href="#8" y="10.855"></use><use xlink:href="#11" y="13.026"></use><use xlink:href="#12" y="15.197"></use><use xlink:href="#13" y="17.368"></use><use xlink:href="#15" y="19.539"></use><use xlink:href="#16" y="21.71"></use></svg><svg x="2480"><use xlink:href="#a"></use><use xlink:href="#1" y="0"></use><use xlink:href="#2" y="2.171"></use><use xlink:href="#3" y="4.342"></use><use xlink:href="#5" y="6.513"></use><use xlink:href="#6" y="8.684"></use><use xlink:href="#8" y="10.855"></use><use xlink:href="#11" y="13.026"></use><use xlink:href="#12" y="15.197"></use><use xlink:href="#13" y="17.368"></use><use xlink:href="#15" y="19.539"></use><use xlink:href="#16" y="21.71"></use></svg><svg x="2560"><use xlink:href="#a"></use><use xlink:href="#1" y="0"></use><use xlink:href="#2" y="2.171"></use><use xlink:href="#3" y="4.342"></use><use xlink:href="#5" y="6.513"></use><use xlink:href="#6" y="8.684"></use><use xlink:href="#8" y="10.855"></use><use xlink:href="#11" y="13.026"></use><use xlink:href="#12" y="15.197"></use><use xlink:href="#13" y="17.368"></use><use xlink:href="#15" y="19.539"></use><use xlink:href="#16" y="21.71"></use><text x="0" y="25.550999999999995" class="i">Downloading</text><text x="12.024" y="25.550999999999995" class="i">pseudo-scoop</text><text x="25.05" y="25.550999999999995" class="j">[</text><text x="26.052" y="25.550999999999995" class="k">10</text><text x="28.055999999999997" y="25.550999999999995" class="j">/</text><text x="29.058" y="25.550999999999995" class="k">12</text><text x="31.061999999999998" y="25.550999999999995" class="j">]</text><text x="33.065999999999995" y="25.550999999999995" class="l">███████████████████████████████</text><text x="64.128" y="25.550999999999995" class="j">██████</text><text x="72.14399999999999" y="25.550999999999995" class="A">83%</text><text x="76.15199999999999" y="25.550999999999995" class="n">|</text><text x="78.15599999999999" y="25.550999999999995" class="n">7s</text></svg><svg x="2640"><use xlink:href="#a"></use><use xlink:href="#1" y="0"></use><use xlink:href="#2" y="2.171"></use><use xlink:href="#3" y="4.342"></use><use xlink:href="#5" y="6.513"></use><use xlink:href="#6" y="8.684"></use><use xlink:href="#8" y="10.855"></use><use xlink:href="#11" y="13.026"></use><use xlink:href="#12" y="15.197"></use><use xlink:href="#13" y="17.368"></use><use xlink:href="#15" y="19.539"></use><use xlink:href="#16" y="21.71"></use><text x="0" y="25.550999999999995" class="i">Downloading</text><text x="12.024" y="25.550999999999995" class="i">pseudo-scoop</text><text x="25.05" y="25.550999999999995" class="j">[</text><text x="26.052" y="25.550999999999995" class="k">11</text><text x="28.055999999999997" y="25.550999999999995" class="j">/</text><text x="29.058" y="25.550999999999995" class="k">12</text><text x="31.061999999999998" y="25.550999999999995" class="j">]</text><text x="33.065999999999995" y="25.550999999999995" class="l">██████████████████████████████████</text><text x="67.134" y="25.550999999999995" class="j">███</text><text x="72.14399999999999" y="25.550999999999995" class="B">92%</text><text x="76.15199999999999" y="25.550999999999995" class="n">|</text><text x="78.15599999999999" y="25.550999999999995" class="n">7s</text></svg><svg x="2720"><use xlink:href="#a"></use><use xlink:href="#1" y="0"></use><use xlink:href="#2" y="2.171"></use><use xlink:href="#3" y="4.342"></use><use xlink:href="#5" y="6.513"></use><use xlink:href="#6" y="8.684"></use><use xlink:href="#8" y="10.855"></use><use xlink:href="#11" y="13.026"></use><use xlink:href="#12" y="15.197"></use><use xlink:href="#13" y="17.368"></use><use xlink:href="#15" y="19.539"></use><use xlink:href="#16" y="21.71"></use><use xlink:href="#17" y="23.880999999999997"></use><use xlink:href="#18" y="26.052"></use></svg><svg x="2800"><use xlink:href="#a"></use><use xlink:href="#1" y="0"></use><use xlink:href="#2" y="2.171"></use><use xlink:href="#3" y="4.342"></use><use xlink:href="#5" y="6.513"></use><use xlink:href="#6" y="8.684"></use><use xlink:href="#8" y="10.855"></use><use xlink:href="#11" y="13.026"></use><use xlink:href="#12" y="15.197"></use><use xlink:href="#13" y="17.368"></use><use xlink:href="#15" y="19.539"></use><use xlink:href="#16" y="21.71"></use><use xlink:href="#17" y="23.880999999999997"></use><use xlink:href="#18" y="26.052"></use><text x="0" y="32.064" class="n">Restarting</text><text x="11.021999999999998" y="32.064" class="n">animation...</text></svg></svg></g></g></svg></svg>