<svg xmlns="http://www.w3.org/2000/svg" xmlns:xlink="http://www.w3.org/1999/xlink" width="840" height="581.04"><rect width="840" height="581.04" rx="5" ry="5" class="a"></rect><svg y="0%" x="0%"><circle cx="20" cy="20" r="6" class="b"></circle><circle cx="40" cy="20" r="6" class="c"></circle><circle cx="60" cy="20" r="6" class="d"></circle></svg><svg height="521.04" viewBox="0 0 80 52.104" width="800" x="15" xmlns="http://www.w3.org/2000/svg" xmlns:xlink="http://www.w3.org/1999/xlink" y="50"><style>.e, .g, .f {
	font-family:
			'Courier New'
			Roboto,
			Helvetica,
			Arial,
			sans-serif,
			'Apple Color Emoji',
			'Segoe UI Emoji' !important;
}.a{fill:rgb(35,35,35)}.b{fill:#ff5f58}.c{fill:#ffbd2e}.d{fill:#18c132}.e{font-family:'Courier New',Monaco,Consolas,Menlo,'Bitstream Vera Sans Mono','Powerline Symbols',monospace}.f{fill:rgb(126,231,233);white-space:pre}.g{fill:rgb(104,104,104);white-space:pre}.h{fill:rgb(102,194,205)}.i{white-space:pre}.j{fill:transparent}.k{fill:rgb(160,160,160)}.m{animation-duration:11.999732s;animation-iteration-count:infinite;animation-name:l;animation-timing-function:steps(1,end)}.n{fill:rgb(160,160,160);white-space:pre}@keyframes l{0%{transform:translateX(-0px)}0.9%{transform:translateX(-80px)}13.5%{transform:translateX(-160px)}15.5%{transform:translateX(-240px)}17.6%{transform:translateX(-320px)}19.8%{transform:translateX(-400px)}21.8%{transform:translateX(-480px)}23.9%{transform:translateX(-560px)}26.1%{transform:translateX(-640px)}28.1%{transform:translateX(-720px)}28.1%{transform:translateX(-800px)}30.1%{transform:translateX(-880px)}32.3%{transform:translateX(-960px)}34.3%{transform:translateX(-1040px)}36.5%{transform:translateX(-1120px)}38.5%{transform:translateX(-1200px)}40.6%{transform:translateX(-1280px)}41.9%{transform:translateX(-1360px)}43.3%{transform:translateX(-1440px)}44.5%{transform:translateX(-1520px)}44.5%{transform:translateX(-1600px)}45.7%{transform:translateX(-1680px)}47%{transform:translateX(-1760px)}48.3%{transform:translateX(-1840px)}48.3%{transform:translateX(-1920px)}49.5%{transform:translateX(-2000px)}53.7%{transform:translateX(-2080px)}53.7%{transform:translateX(-2160px)}58.3%{transform:translateX(-2240px)}100%{transform:translateX(-2320px)}}</style><g font-family="'Courier New',Monaco, Consolas, Menlo, &#x27;Bitstream Vera Sans Mono&#x27;, &#x27;Powerline Symbols&#x27;, monospace" font-size="1.67" class="e"><defs><symbol id="1"><text x="0" y="1.67" class="f">Input</text><text x="6.012" y="1.67" class="f">text:</text><text x="12.024" y="1.67" class="g">Some</text><text x="17.034" y="1.67" class="g">default</text><text x="25.05" y="1.67" class="g">valueHello;</text></symbol><symbol id="2"><text x="0" y="1.67" class="f">Input</text><text x="6.012" y="1.67" class="f">text:</text><text x="12.024" y="1.67" class="g">Some</text><text x="17.034" y="1.67" class="g">default</text><text x="25.05" y="1.67" class="g">valueHello;</text><text x="37.074" y="1.67" class="g">World!</text></symbol><symbol id="3"><text x="0" y="1.67" class="f">Input</text><text x="6.012" y="1.67" class="f">text:</text><text x="12.024" y="1.67" class="g">Some</text><text x="17.034" y="1.67" class="g">default</text><text x="25.05" y="1.67" class="g">valueHello,</text><text x="37.074" y="1.67" class="g">World!</text></symbol><symbol id="4"><rect height="2.171" width="6" x="0" y="0" class="h"></rect><text x="0" y="1.67" class="i"> INFO </text><text x="7.013999999999999" y="1.67" class="f">You</text><text x="11.021999999999998" y="1.67" class="f">answered:</text><text x="21.041999999999998" y="1.67" class="f">Some</text><text x="26.052" y="1.67" class="f">default</text><text x="34.068" y="1.67" class="f">valueHello,</text><text x="46.09199999999999" y="1.67" class="f">World!</text></symbol><symbol id="a"><rect height="24" width="80" x="0" y="0" class="j"></rect></symbol><symbol id="b"><rect height="2.171" width="1.1022" class="k"></rect></symbol></defs><rect height="52.104" width="80" class="a"></rect><g class="m"><svg x="0" y="0" width="2400"><svg x="0"><use xlink:href="#a"></use><use xlink:href="#b" x="-0.0040000000000000036" y="0"></use></svg><svg x="80"><use xlink:href="#a"></use><use xlink:href="#b" x="29.996" y="0"></use><text x="0" y="1.67" class="f">Input</text><text x="6.012" y="1.67" class="f">text:</text><text x="12.024" y="1.67" class="g">Some</text><text x="17.034" y="1.67" class="g">default</text><text x="25.05" y="1.67" class="g">value</text></svg><svg x="160"><use xlink:href="#a"></use><use xlink:href="#b" x="30.996" y="0"></use><text x="0" y="1.67" class="f">Input</text><text x="6.012" y="1.67" class="f">text:</text><text x="12.024" y="1.67" class="g">Some</text><text x="17.034" y="1.67" class="g">default</text><text x="25.05" y="1.67" class="g">valueH</text></svg><svg x="240"><use xlink:href="#a"></use><use xlink:href="#b" x="31.996" y="0"></use><text x="0" y="1.67" class="f">Input</text><text x="6.012" y="1.67" class="f">text:</text><text x="12.024" y="1.67" class="g">Some</text><text x="17.034" y="1.67" class="g">default</text><text x="25.05" y="1.67" class="g">valueHe</text></svg><svg x="320"><use xlink:href="#a"></use><use xlink:href="#b" x="32.996" y="0"></use><text x="0" y="1.67" class="f">Input</text><text x="6.012" y="1.67" class="f">text:</text><text x="12.024" y="1.67" class="g">Some</text><text x="17.034" y="1.67" class="g">default</text><text x="25.05" y="1.67" class="g">valueHel</text></svg><svg x="400"><use xlink:href="#a"></use><use xlink:href="#b" x="33.996" y="0"></use><text x="0" y="1.67" class="f">Input</text><text x="6.012" y="1.67" class="f">text:</text><text x="12.024" y="1.67" class="g">Some</text><text x="17.034" y="1.67" class="g">default</text><text x="25.05" y="1.67" class="g">valueHell</text></svg><svg x="480"><use xlink:href="#a"></use><use xlink:href="#b" x="34.996" y="0"></use><text x="0" y="1.67" class="f">Input</text><text x="6.012" y="1.67" class="f">text:</text><text x="12.024" y="1.67" class="g">Some</text><text x="17.034" y="1.67" class="g">default</text><text x="25.05" y="1.67" class="g">valueHello</text></svg><svg x="560"><use xlink:href="#a"></use><use xlink:href="#b" x="35.996" y="0"></use><use xlink:href="#1" y="0"></use></svg><svg x="640"><use xlink:href="#a"></use><use xlink:href="#b" x="36.996" y="0"></use><use xlink:href="#1" y="0"></use></svg><svg x="720"><use xlink:href="#a"></use><use xlink:href="#b" x="-0.0040000000000000036" y="0"></use><use xlink:href="#1" y="0"></use></svg><svg x="800"><use xlink:href="#a"></use><use xlink:href="#b" x="37.996" y="0"></use><text x="0" y="1.67" class="f">Input</text><text x="6.012" y="1.67" class="f">text:</text><text x="12.024" y="1.67" class="g">Some</text><text x="17.034" y="1.67" class="g">default</text><text x="25.05" y="1.67" class="g">valueHello;</text><text x="37.074" y="1.67" class="g">W</text></svg><svg x="880"><use xlink:href="#a"></use><use xlink:href="#b" x="38.996" y="0"></use><text x="0" y="1.67" class="f">Input</text><text x="6.012" y="1.67" class="f">text:</text><text x="12.024" y="1.67" class="g">Some</text><text x="17.034" y="1.67" class="g">default</text><text x="25.05" y="1.67" class="g">valueHello;</text><text x="37.074" y="1.67" class="g">Wo</text></svg><svg x="960"><use xlink:href="#a"></use><use xlink:href="#b" x="39.996" y="0"></use><text x="0" y="1.67" class="f">Input</text><text x="6.012" y="1.67" class="f">text:</text><text x="12.024" y="1.67" class="g">Some</text><text x="17.034" y="1.67" class="g">default</text><text x="25.05" y="1.67" class="g">valueHello;</text><text x="37.074" y="1.67" class="g">Wor</text></svg><svg x="1040"><use xlink:href="#a"></use><use xlink:href="#b" x="40.996" y="0"></use><text x="0" y="1.67" class="f">Input</text><text x="6.012" y="1.67" class="f">text:</text><text x="12.024" y="1.67" class="g">Some</text><text x="17.034" y="1.67" class="g">default</text><text x="25.05" y="1.67" class="g">valueHello;</text><text x="37.074" y="1.67" class="g">Worl</text></svg><svg x="1120"><use xlink:href="#a"></use><use xlink:href="#b" x="41.996" y="0"></use><text x="0" y="1.67" class="f">Input</text><text x="6.012" y="1.67" class="f">text:</text><text x="12.024" y="1.67" class="g">Some</text><text x="17.034" y="1.67" class="g">default</text><text x="25.05" y="1.67" class="g">valueHello;</text><text x="37.074" y="1.67" class="g">World</text></svg><svg x="1200"><use xlink:href="#a"></use><use xlink:href="#b" x="42.996" y="0"></use><use xlink:href="#2" y="0"></use></svg><svg x="1280"><use xlink:href="#a"></use><use xlink:href="#b" x="41.996" y="0"></use><use xlink:href="#2" y="0"></use></svg><svg x="1360"><use xlink:href="#a"></use><use xlink:href="#b" x="40.996" y="0"></use><use xlink:href="#2" y="0"></use></svg><svg x="1440"><use xlink:href="#a"></use><use xlink:href="#b" x="39.996" y="0"></use><use xlink:href="#2" y="0"></use></svg><svg x="1520"><use xlink:href="#a"></use><use xlink:href="#b" x="-0.0040000000000000036" y="0"></use><use xlink:href="#2" y="0"></use></svg><svg x="1600"><use xlink:href="#a"></use><use xlink:href="#b" x="38.996" y="0"></use><use xlink:href="#2" y="0"></use></svg><svg x="1680"><use xlink:href="#a"></use><use xlink:href="#b" x="37.996" y="0"></use><use xlink:href="#2" y="0"></use></svg><svg x="1760"><use xlink:href="#a"></use><use xlink:href="#b" x="36.996" y="0"></use><use xlink:href="#2" y="0"></use></svg><svg x="1840"><use xlink:href="#a"></use><use xlink:href="#b" x="-0.0040000000000000036" y="0"></use><use xlink:href="#2" y="0"></use></svg><svg x="1920"><use xlink:href="#a"></use><use xlink:href="#b" x="35.996" y="0"></use><use xlink:href="#2" y="0"></use></svg><svg x="2000"><use xlink:href="#a"></use><use xlink:href="#b" x="34.996" y="0"></use><text x="0" y="1.67" class="f">Input</text><text x="6.012" y="1.67" class="f">text:</text><text x="12.024" y="1.67" class="g">Some</text><text x="17.034" y="1.67" class="g">default</text><text x="25.05" y="1.67" class="g">valueHello</text><text x="36.071999999999996" y="1.67" class="g">World!</text></svg><svg x="2080"><use xlink:href="#a"></use><use xlink:href="#b" x="-0.0040000000000000036" y="0"></use><use xlink:href="#3" y="0"></use></svg><svg x="2160"><use xlink:href="#a"></use><use xlink:href="#b" x="35.996" y="0"></use><use xlink:href="#3" y="0"></use></svg><svg x="2240"><use xlink:href="#a"></use><use xlink:href="#b" x="-0.0040000000000000036" y="6.4879999999999995"></use><use xlink:href="#3" y="0"></use><use xlink:href="#4" y="4.342"></use></svg><svg x="2320"><use xlink:href="#a"></use><use xlink:href="#b" x="22.996" y="10.83"></use><use xlink:href="#3" y="0"></use><use xlink:href="#4" y="4.342"></use><text x="0" y="10.354" class="n">Restarting</text><text x="11.021999999999998" y="10.354" class="n">animation...</text></svg></svg></g></g></svg></svg>