<svg xmlns="http://www.w3.org/2000/svg" xmlns:xlink="http://www.w3.org/1999/xlink" width="840" height="581.04"><rect width="840" height="581.04" rx="5" ry="5" class="a"></rect><svg y="0%" x="0%"><circle cx="20" cy="20" r="6" class="b"></circle><circle cx="40" cy="20" r="6" class="c"></circle><circle cx="60" cy="20" r="6" class="d"></circle></svg><svg height="521.04" viewBox="0 0 80 52.104" width="800" x="15" xmlns="http://www.w3.org/2000/svg" xmlns:xlink="http://www.w3.org/1999/xlink" y="50"><style>.e, .g, .f {
	font-family:
			'Courier New'
			Roboto,
			Helvetica,
			Arial,
			sans-serif,
			'Apple Color Emoji',
			'Segoe UI Emoji' !important;
}.a{fill:rgb(35,35,35)}.b{fill:#ff5f58}.c{fill:#ffbd2e}.d{fill:#18c132}.e{font-family:'Courier New',Monaco,Consolas,Menlo,'Bitstream Vera Sans Mono','Powerline Symbols',monospace}.f{fill:rgb(126,231,233);white-space:pre}.g{fill:rgb(104,104,104);white-space:pre}.h{fill:rgb(102,194,205)}.i{white-space:pre}.j{fill:transparent}.k{fill:rgb(160,160,160)}.m{animation-duration:12.132143s;animation-iteration-count:infinite;animation-name:l;animation-timing-function:steps(1,end)}.n{fill:rgb(160,160,160);white-space:pre}@keyframes l{0%{transform:translateX(-0px)}2.5%{transform:translateX(-80px)}3.3%{transform:translateX(-160px)}14.9%{transform:translateX(-240px)}14.9%{transform:translateX(-320px)}17%{transform:translateX(-400px)}17%{transform:translateX(-480px)}17%{transform:translateX(-560px)}17%{transform:translateX(-640px)}19.1%{transform:translateX(-720px)}19.1%{transform:translateX(-800px)}19.1%{transform:translateX(-880px)}19.1%{transform:translateX(-960px)}21.1%{transform:translateX(-1040px)}21.1%{transform:translateX(-1120px)}21.1%{transform:translateX(-1200px)}21.1%{transform:translateX(-1280px)}23.2%{transform:translateX(-1360px)}23.2%{transform:translateX(-1440px)}25.3%{transform:translateX(-1520px)}25.3%{transform:translateX(-1600px)}25.3%{transform:translateX(-1680px)}27.3%{transform:translateX(-1760px)}27.3%{transform:translateX(-1840px)}27.3%{transform:translateX(-1920px)}27.3%{transform:translateX(-2000px)}29.4%{transform:translateX(-2080px)}29.4%{transform:translateX(-2160px)}29.4%{transform:translateX(-2240px)}31.5%{transform:translateX(-2320px)}31.5%{transform:translateX(-2400px)}33.6%{transform:translateX(-2480px)}33.6%{transform:translateX(-2560px)}35.6%{transform:translateX(-2640px)}35.6%{transform:translateX(-2720px)}37.7%{transform:translateX(-2800px)}37.7%{transform:translateX(-2880px)}37.7%{transform:translateX(-2960px)}37.7%{transform:translateX(-3040px)}37.7%{transform:translateX(-3120px)}39.8%{transform:translateX(-3200px)}39.8%{transform:translateX(-3280px)}39.8%{transform:translateX(-3360px)}41.8%{transform:translateX(-3440px)}41.8%{transform:translateX(-3520px)}41.8%{transform:translateX(-3600px)}41.8%{transform:translateX(-3680px)}43.1%{transform:translateX(-3760px)}43.1%{transform:translateX(-3840px)}43.1%{transform:translateX(-3920px)}43.1%{transform:translateX(-4000px)}43.1%{transform:translateX(-4080px)}44.3%{transform:translateX(-4160px)}44.3%{transform:translateX(-4240px)}44.3%{transform:translateX(-4320px)}44.3%{transform:translateX(-4400px)}45.5%{transform:translateX(-4480px)}45.5%{transform:translateX(-4560px)}46.8%{transform:translateX(-4640px)}46.8%{transform:translateX(-4720px)}46.8%{transform:translateX(-4800px)}46.8%{transform:translateX(-4880px)}48%{transform:translateX(-4960px)}48%{transform:translateX(-5040px)}48%{transform:translateX(-5120px)}48%{transform:translateX(-5200px)}48%{transform:translateX(-5280px)}49.3%{transform:translateX(-5360px)}49.3%{transform:translateX(-5440px)}50.5%{transform:translateX(-5520px)}50.5%{transform:translateX(-5600px)}50.5%{transform:translateX(-5680px)}50.5%{transform:translateX(-5760px)}54.6%{transform:translateX(-5840px)}54.6%{transform:translateX(-5920px)}54.6%{transform:translateX(-6000px)}54.6%{transform:translateX(-6080px)}58.8%{transform:translateX(-6160px)}58.8%{transform:translateX(-6240px)}58.8%{transform:translateX(-6320px)}58.8%{transform:translateX(-6400px)}58.8%{transform:translateX(-6480px)}58.8%{transform:translateX(-6560px)}58.8%{transform:translateX(-6640px)}100%{transform:translateX(-6720px)}}</style><g font-family="'Courier New',Monaco, Consolas, Menlo, &#x27;Bitstream Vera Sans Mono&#x27;, &#x27;Powerline Symbols&#x27;, monospace" font-size="1.67" class="e"><defs><symbol id="1"><text x="0" y="1.67" class="f">Input</text><text x="6.012" y="1.67" class="f">text:</text><text x="12.024" y="1.67" class="g">Some</text><text x="17.034" y="1.67" class="g">default</text><text x="25.05" y="1.67" class="g">valueH</text></symbol><symbol id="2"><text x="0" y="1.67" class="f">Input</text><text x="6.012" y="1.67" class="f">text:</text><text x="12.024" y="1.67" class="g">Some</text><text x="17.034" y="1.67" class="g">default</text><text x="25.05" y="1.67" class="g">valueHe</text></symbol><symbol id="3"><text x="0" y="1.67" class="f">Input</text><text x="6.012" y="1.67" class="f">text:</text><text x="12.024" y="1.67" class="g">Some</text><text x="17.034" y="1.67" class="g">default</text><text x="25.05" y="1.67" class="g">valueHel</text></symbol><symbol id="4"><text x="0" y="1.67" class="f">Input</text><text x="6.012" y="1.67" class="f">text:</text><text x="12.024" y="1.67" class="g">Some</text><text x="17.034" y="1.67" class="g">default</text><text x="25.05" y="1.67" class="g">valueHell</text></symbol><symbol id="5"><text x="0" y="1.67" class="f">Input</text><text x="6.012" y="1.67" class="f">text:</text><text x="12.024" y="1.67" class="g">Some</text><text x="17.034" y="1.67" class="g">default</text><text x="25.05" y="1.67" class="g">valueHello</text></symbol><symbol id="6"><text x="0" y="1.67" class="f">Input</text><text x="6.012" y="1.67" class="f">text:</text><text x="12.024" y="1.67" class="g">Some</text><text x="17.034" y="1.67" class="g">default</text><text x="25.05" y="1.67" class="g">valueHello;</text></symbol><symbol id="7"><text x="0" y="1.67" class="f">Input</text><text x="6.012" y="1.67" class="f">text:</text><text x="12.024" y="1.67" class="g">Some</text><text x="17.034" y="1.67" class="g">default</text><text x="25.05" y="1.67" class="g">valueHello;</text><text x="37.074" y="1.67" class="g">Wo</text></symbol><symbol id="8"><text x="0" y="1.67" class="f">Input</text><text x="6.012" y="1.67" class="f">text:</text><text x="12.024" y="1.67" class="g">Some</text><text x="17.034" y="1.67" class="g">default</text><text x="25.05" y="1.67" class="g">valueHello;</text><text x="37.074" y="1.67" class="g">Wor</text></symbol><symbol id="9"><text x="0" y="1.67" class="f">Input</text><text x="6.012" y="1.67" class="f">text:</text><text x="12.024" y="1.67" class="g">Some</text><text x="17.034" y="1.67" class="g">default</text><text x="25.05" y="1.67" class="g">valueHello;</text><text x="37.074" y="1.67" class="g">Worl</text></symbol><symbol id="10"><text x="0" y="1.67" class="f">Input</text><text x="6.012" y="1.67" class="f">text:</text><text x="12.024" y="1.67" class="g">Some</text><text x="17.034" y="1.67" class="g">default</text><text x="25.05" y="1.67" class="g">valueHello;</text><text x="37.074" y="1.67" class="g">World</text></symbol><symbol id="11"><text x="0" y="1.67" class="f">Input</text><text x="6.012" y="1.67" class="f">text:</text><text x="12.024" y="1.67" class="g">Some</text><text x="17.034" y="1.67" class="g">default</text><text x="25.05" y="1.67" class="g">valueHello;</text><text x="37.074" y="1.67" class="g">World!</text></symbol><symbol id="12"><text x="0" y="1.67" class="f">Input</text><text x="6.012" y="1.67" class="f">text:</text><text x="12.024" y="1.67" class="g">Some</text><text x="17.034" y="1.67" class="g">default</text><text x="25.05" y="1.67" class="g">valueHello</text><text x="36.071999999999996" y="1.67" class="g">World!</text></symbol><symbol id="13"><text x="0" y="1.67" class="f">Input</text><text x="6.012" y="1.67" class="f">text:</text><text x="12.024" y="1.67" class="g">Some</text><text x="17.034" y="1.67" class="g">default</text><text x="25.05" y="1.67" class="g">valueHello,</text><text x="37.074" y="1.67" class="g">World!</text></symbol><symbol id="14"><rect height="2.171" width="6" x="0" y="0" class="h"></rect><text x="0" y="1.67" class="i"> INFO </text><text x="7.013999999999999" y="1.67" class="f">You</text><text x="11.021999999999998" y="1.67" class="f">answered:</text><text x="21.041999999999998" y="1.67" class="f">Some</text><text x="26.052" y="1.67" class="f">default</text><text x="34.068" y="1.67" class="f">valueHello,</text><text x="46.09199999999999" y="1.67" class="f">World!</text></symbol><symbol id="a"><rect height="24" width="80" x="0" y="0" class="j"></rect></symbol><symbol id="b"><rect height="2.171" width="1.1022" class="k"></rect></symbol></defs><rect height="52.104" width="80" class="a"></rect><g class="m"><svg x="0" y="0" width="6800"><svg x="0"><use xlink:href="#a"></use><use xlink:href="#b" x="-0.0040000000000000036" y="0"></use></svg><svg x="80"><use xlink:href="#a"></use><use xlink:href="#b" x="-0.0040000000000000036" y="0"></use><text x="0" y="1.67" class="f">Input</text><text x="6.012" y="1.67" class="f">text:</text></svg><svg x="160"><use xlink:href="#a"></use><use xlink:href="#b" x="29.996" y="0"></use><text x="0" y="1.67" class="f">Input</text><text x="6.012" y="1.67" class="f">text:</text><text x="12.024" y="1.67" class="g">Some</text><text x="17.034" y="1.67" class="g">default</text><text x="25.05" y="1.67" class="g">value</text></svg><svg x="240"><use xlink:href="#a"></use><use xlink:href="#b" x="-0.0040000000000000036" y="0"></use><use xlink:href="#1" y="0"></use></svg><svg x="320"><use xlink:href="#a"></use><use xlink:href="#b" x="30.996" y="0"></use><use xlink:href="#1" y="0"></use></svg><svg x="400"><use xlink:href="#a"></use><use xlink:href="#b" x="-0.0040000000000000036" y="0"></use><use xlink:href="#1" y="0"></use></svg><svg x="480"><use xlink:href="#a"></use><use xlink:href="#b" x="-0.0040000000000000036" y="0"></use></svg><svg x="560"><use xlink:href="#a"></use><use xlink:href="#b" x="31.996" y="0"></use><use xlink:href="#2" y="0"></use></svg><svg x="640"><use xlink:href="#a"></use><use xlink:href="#b" x="31.996" y="0"></use><use xlink:href="#2" y="0"></use></svg><svg x="720"><use xlink:href="#a"></use><use xlink:href="#b" x="-0.0040000000000000036" y="0"></use><use xlink:href="#2" y="0"></use></svg><svg x="800"><use xlink:href="#a"></use><use xlink:href="#b" x="-0.0040000000000000036" y="0"></use></svg><svg x="880"><use xlink:href="#a"></use><use xlink:href="#b" x="32.996" y="0"></use><use xlink:href="#3" y="0"></use></svg><svg x="960"><use xlink:href="#a"></use><use xlink:href="#b" x="32.996" y="0"></use><use xlink:href="#3" y="0"></use></svg><svg x="1040"><use xlink:href="#a"></use><use xlink:href="#b" x="-0.0040000000000000036" y="0"></use><use xlink:href="#3" y="0"></use></svg><svg x="1120"><use xlink:href="#a"></use><use xlink:href="#b" x="-0.0040000000000000036" y="0"></use></svg><svg x="1200"><use xlink:href="#a"></use><use xlink:href="#b" x="33.996" y="0"></use><use xlink:href="#4" y="0"></use></svg><svg x="1280"><use xlink:href="#a"></use><use xlink:href="#b" x="33.996" y="0"></use><use xlink:href="#4" y="0"></use></svg><svg x="1360"><use xlink:href="#a"></use><use xlink:href="#b" x="-0.0040000000000000036" y="0"></use><use xlink:href="#5" y="0"></use></svg><svg x="1440"><use xlink:href="#a"></use><use xlink:href="#b" x="34.996" y="0"></use><use xlink:href="#5" y="0"></use></svg><svg x="1520"><use xlink:href="#a"></use><use xlink:href="#b" x="-0.0040000000000000036" y="0"></use><use xlink:href="#5" y="0"></use></svg><svg x="1600"><use xlink:href="#a"></use><use xlink:href="#b" x="-0.0040000000000000036" y="0"></use></svg><svg x="1680"><use xlink:href="#a"></use><use xlink:href="#b" x="35.996" y="0"></use><use xlink:href="#6" y="0"></use></svg><svg x="1760"><use xlink:href="#a"></use><use xlink:href="#b" x="-0.0040000000000000036" y="0"></use><use xlink:href="#6" y="0"></use></svg><svg x="1840"><use xlink:href="#a"></use><use xlink:href="#b" x="-0.0040000000000000036" y="0"></use></svg><svg x="1920"><use xlink:href="#a"></use><use xlink:href="#b" x="-0.0040000000000000036" y="0"></use><use xlink:href="#6" y="0"></use></svg><svg x="2000"><use xlink:href="#a"></use><use xlink:href="#b" x="36.996" y="0"></use><use xlink:href="#6" y="0"></use></svg><svg x="2080"><use xlink:href="#a"></use><use xlink:href="#b" x="-0.0040000000000000036" y="0"></use><use xlink:href="#6" y="0"></use></svg><svg x="2160"><use xlink:href="#a"></use><use xlink:href="#b" x="-0.0040000000000000036" y="0"></use></svg><svg x="2240"><use xlink:href="#a"></use><use xlink:href="#b" x="37.996" y="0"></use><text x="0" y="1.67" class="f">Input</text><text x="6.012" y="1.67" class="f">text:</text><text x="12.024" y="1.67" class="g">Some</text><text x="17.034" y="1.67" class="g">default</text><text x="25.05" y="1.67" class="g">valueHello;</text><text x="37.074" y="1.67" class="g">W</text></svg><svg x="2320"><use xlink:href="#a"></use><use xlink:href="#b" x="-0.0040000000000000036" y="0"></use><use xlink:href="#7" y="0"></use></svg><svg x="2400"><use xlink:href="#a"></use><use xlink:href="#b" x="38.996" y="0"></use><use xlink:href="#7" y="0"></use></svg><svg x="2480"><use xlink:href="#a"></use><use xlink:href="#b" x="-0.0040000000000000036" y="0"></use><use xlink:href="#8" y="0"></use></svg><svg x="2560"><use xlink:href="#a"></use><use xlink:href="#b" x="39.996" y="0"></use><use xlink:href="#8" y="0"></use></svg><svg x="2640"><use xlink:href="#a"></use><use xlink:href="#b" x="-0.0040000000000000036" y="0"></use><use xlink:href="#9" y="0"></use></svg><svg x="2720"><use xlink:href="#a"></use><use xlink:href="#b" x="40.996" y="0"></use><use xlink:href="#9" y="0"></use></svg><svg x="2800"><use xlink:href="#a"></use><use xlink:href="#b" x="-0.0040000000000000036" y="0"></use><use xlink:href="#9" y="0"></use></svg><svg x="2880"><use xlink:href="#a"></use><use xlink:href="#b" x="-0.0040000000000000036" y="0"></use></svg><svg x="2960"><use xlink:href="#a"></use><use xlink:href="#b" x="41.996" y="0"></use><use xlink:href="#10" y="0"></use></svg><svg x="3040"><use xlink:href="#a"></use><use xlink:href="#b" x="-0.0040000000000000036" y="0"></use><use xlink:href="#10" y="0"></use></svg><svg x="3120"><use xlink:href="#a"></use><use xlink:href="#b" x="41.996" y="0"></use><use xlink:href="#10" y="0"></use></svg><svg x="3200"><use xlink:href="#a"></use><use xlink:href="#b" x="-0.0040000000000000036" y="0"></use><use xlink:href="#10" y="0"></use></svg><svg x="3280"><use xlink:href="#a"></use><use xlink:href="#b" x="-0.0040000000000000036" y="0"></use></svg><svg x="3360"><use xlink:href="#a"></use><use xlink:href="#b" x="42.996" y="0"></use><use xlink:href="#11" y="0"></use></svg><svg x="3440"><use xlink:href="#a"></use><use xlink:href="#b" x="-0.0040000000000000036" y="0"></use><use xlink:href="#11" y="0"></use></svg><svg x="3520"><use xlink:href="#a"></use><use xlink:href="#b" x="-0.0040000000000000036" y="0"></use></svg><svg x="3600"><use xlink:href="#a"></use><use xlink:href="#b" x="42.996" y="0"></use><use xlink:href="#11" y="0"></use></svg><svg x="3680"><use xlink:href="#a"></use><use xlink:href="#b" x="41.996" y="0"></use><use xlink:href="#11" y="0"></use></svg><svg x="3760"><use xlink:href="#a"></use><use xlink:href="#b" x="-0.0040000000000000036" y="0"></use><use xlink:href="#11" y="0"></use></svg><svg x="3840"><use xlink:href="#a"></use><use xlink:href="#b" x="-0.0040000000000000036" y="0"></use></svg><svg x="3920"><use xlink:href="#a"></use><use xlink:href="#b" x="42.996" y="0"></use><use xlink:href="#11" y="0"></use></svg><svg x="4000"><use xlink:href="#a"></use><use xlink:href="#b" x="-0.0040000000000000036" y="0"></use><use xlink:href="#11" y="0"></use></svg><svg x="4080"><use xlink:href="#a"></use><use xlink:href="#b" x="40.996" y="0"></use><use xlink:href="#11" y="0"></use></svg><svg x="4160"><use xlink:href="#a"></use><use xlink:href="#b" x="-0.0040000000000000036" y="0"></use><use xlink:href="#11" y="0"></use></svg><svg x="4240"><use xlink:href="#a"></use><use xlink:href="#b" x="-0.0040000000000000036" y="0"></use></svg><svg x="4320"><use xlink:href="#a"></use><use xlink:href="#b" x="42.996" y="0"></use><use xlink:href="#11" y="0"></use></svg><svg x="4400"><use xlink:href="#a"></use><use xlink:href="#b" x="39.996" y="0"></use><use xlink:href="#11" y="0"></use></svg><svg x="4480"><use xlink:href="#a"></use><use xlink:href="#b" x="-0.0040000000000000036" y="0"></use><use xlink:href="#11" y="0"></use></svg><svg x="4560"><use xlink:href="#a"></use><use xlink:href="#b" x="38.996" y="0"></use><use xlink:href="#11" y="0"></use></svg><svg x="4640"><use xlink:href="#a"></use><use xlink:href="#b" x="-0.0040000000000000036" y="0"></use><use xlink:href="#11" y="0"></use></svg><svg x="4720"><use xlink:href="#a"></use><use xlink:href="#b" x="-0.0040000000000000036" y="0"></use></svg><svg x="4800"><use xlink:href="#a"></use><use xlink:href="#b" x="42.996" y="0"></use><use xlink:href="#11" y="0"></use></svg><svg x="4880"><use xlink:href="#a"></use><use xlink:href="#b" x="37.996" y="0"></use><use xlink:href="#11" y="0"></use></svg><svg x="4960"><use xlink:href="#a"></use><use xlink:href="#b" x="-0.0040000000000000036" y="0"></use><use xlink:href="#11" y="0"></use></svg><svg x="5040"><use xlink:href="#a"></use><use xlink:href="#b" x="-0.0040000000000000036" y="0"></use></svg><svg x="5120"><use xlink:href="#a"></use><use xlink:href="#b" x="42.996" y="0"></use><use xlink:href="#11" y="0"></use></svg><svg x="5200"><use xlink:href="#a"></use><use xlink:href="#b" x="-0.0040000000000000036" y="0"></use><use xlink:href="#11" y="0"></use></svg><svg x="5280"><use xlink:href="#a"></use><use xlink:href="#b" x="36.996" y="0"></use><use xlink:href="#11" y="0"></use></svg><svg x="5360"><use xlink:href="#a"></use><use xlink:href="#b" x="42.996" y="0"></use><use xlink:href="#11" y="0"></use></svg><svg x="5440"><use xlink:href="#a"></use><use xlink:href="#b" x="35.996" y="0"></use><use xlink:href="#11" y="0"></use></svg><svg x="5520"><use xlink:href="#a"></use><use xlink:href="#b" x="-0.0040000000000000036" y="0"></use><use xlink:href="#11" y="0"></use></svg><svg x="5600"><use xlink:href="#a"></use><use xlink:href="#b" x="-0.0040000000000000036" y="0"></use></svg><svg x="5680"><use xlink:href="#a"></use><use xlink:href="#b" x="-0.0040000000000000036" y="0"></use><use xlink:href="#12" y="0"></use></svg><svg x="5760"><use xlink:href="#a"></use><use xlink:href="#b" x="34.996" y="0"></use><use xlink:href="#12" y="0"></use></svg><svg x="5840"><use xlink:href="#a"></use><use xlink:href="#b" x="-0.0040000000000000036" y="0"></use><use xlink:href="#12" y="0"></use></svg><svg x="5920"><use xlink:href="#a"></use><use xlink:href="#b" x="-0.0040000000000000036" y="0"></use></svg><svg x="6000"><use xlink:href="#a"></use><use xlink:href="#b" x="42.996" y="0"></use><use xlink:href="#13" y="0"></use></svg><svg x="6080"><use xlink:href="#a"></use><use xlink:href="#b" x="35.996" y="0"></use><use xlink:href="#13" y="0"></use></svg><svg x="6160"><use xlink:href="#a"></use><use xlink:href="#b" x="-0.0040000000000000036" y="0"></use><use xlink:href="#13" y="0"></use></svg><svg x="6240"><use xlink:href="#a"></use><use xlink:href="#b" x="-0.0040000000000000036" y="0"></use></svg><svg x="6320"><use xlink:href="#a"></use><use xlink:href="#b" x="42.996" y="0"></use><use xlink:href="#13" y="0"></use></svg><svg x="6400"><use xlink:href="#a"></use><use xlink:href="#b" x="35.996" y="0"></use><use xlink:href="#13" y="0"></use></svg><svg x="6480"><use xlink:href="#a"></use><use xlink:href="#b" x="-0.0040000000000000036" y="2.146"></use><use xlink:href="#13" y="0"></use></svg><svg x="6560"><use xlink:href="#a"></use><use xlink:href="#b" x="51.996" y="4.317"></use><use xlink:href="#13" y="0"></use><use xlink:href="#14" y="4.342"></use></svg><svg x="6640"><use xlink:href="#a"></use><use xlink:href="#b" x="-0.0040000000000000036" y="6.4879999999999995"></use><use xlink:href="#13" y="0"></use><use xlink:href="#14" y="4.342"></use></svg><svg x="6720"><use xlink:href="#a"></use><use xlink:href="#b" x="22.996" y="10.83"></use><use xlink:href="#13" y="0"></use><use xlink:href="#14" y="4.342"></use><text x="0" y="10.354" class="n">Restarting</text><text x="11.021999999999998" y="10.354" class="n">animation...</text></svg></svg></g></g></svg></svg>