<svg xmlns="http://www.w3.org/2000/svg" xmlns:xlink="http://www.w3.org/1999/xlink" width="840" height="581.04"><rect width="840" height="581.04" rx="5" ry="5" class="a"></rect><svg y="0%" x="0%"><circle cx="20" cy="20" r="6" class="b"></circle><circle cx="40" cy="20" r="6" class="c"></circle><circle cx="60" cy="20" r="6" class="d"></circle></svg><svg height="521.04" viewBox="0 0 80 52.104" width="800" x="15" xmlns="http://www.w3.org/2000/svg" xmlns:xlink="http://www.w3.org/1999/xlink" y="50"><style>.e, .g, .f {
	font-family:
			'Courier New'
			Roboto,
			Helvetica,
			Arial,
			sans-serif,
			'Apple Color Emoji',
			'Segoe UI Emoji' !important;
}.a{fill:rgb(35,35,35)}.b{fill:#ff5f58}.c{fill:#ffbd2e}.d{fill:#18c132}.e{font-family:'Courier New',Monaco,Consolas,Menlo,'Bitstream Vera Sans Mono','Powerline Symbols',monospace}.f{fill:rgb(126,231,233);white-space:pre}.g{fill:rgb(160,160,160);white-space:pre}.h{fill:rgb(102,194,205)}.i{white-space:pre}.j{fill:transparent}.k{fill:rgb(160,160,160)}.m{animation-duration:11.506563s;animation-iteration-count:infinite;animation-name:l;animation-timing-function:steps(1,end)}@keyframes l{0%{transform:translateX(-0px)}1.7%{transform:translateX(-80px)}10.4%{transform:translateX(-160px)}10.4%{transform:translateX(-240px)}12.5%{transform:translateX(-320px)}12.5%{transform:translateX(-400px)}14.7%{transform:translateX(-480px)}16.9%{transform:translateX(-560px)}16.9%{transform:translateX(-640px)}19.1%{transform:translateX(-720px)}19.1%{transform:translateX(-800px)}19.1%{transform:translateX(-880px)}21.2%{transform:translateX(-960px)}21.3%{transform:translateX(-1040px)}21.3%{transform:translateX(-1120px)}23.4%{transform:translateX(-1200px)}23.4%{transform:translateX(-1280px)}25.6%{transform:translateX(-1360px)}25.6%{transform:translateX(-1440px)}27.8%{transform:translateX(-1520px)}27.8%{transform:translateX(-1600px)}27.8%{transform:translateX(-1680px)}30%{transform:translateX(-1760px)}32.1%{transform:translateX(-1840px)}32.2%{transform:translateX(-1920px)}32.2%{transform:translateX(-2000px)}34.3%{transform:translateX(-2080px)}34.3%{transform:translateX(-2160px)}34.3%{transform:translateX(-2240px)}36.5%{transform:translateX(-2320px)}36.5%{transform:translateX(-2400px)}36.5%{transform:translateX(-2480px)}38.7%{transform:translateX(-2560px)}38.7%{transform:translateX(-2640px)}40%{transform:translateX(-2720px)}40%{transform:translateX(-2800px)}41.3%{transform:translateX(-2880px)}42.6%{transform:translateX(-2960px)}42.6%{transform:translateX(-3040px)}43.9%{transform:translateX(-3120px)}43.9%{transform:translateX(-3200px)}43.9%{transform:translateX(-3280px)}43.9%{transform:translateX(-3360px)}45.2%{transform:translateX(-3440px)}45.2%{transform:translateX(-3520px)}45.2%{transform:translateX(-3600px)}46.5%{transform:translateX(-3680px)}46.5%{transform:translateX(-3760px)}46.5%{transform:translateX(-3840px)}47.8%{transform:translateX(-3920px)}47.8%{transform:translateX(-4000px)}47.8%{transform:translateX(-4080px)}52.2%{transform:translateX(-4160px)}52.2%{transform:translateX(-4240px)}52.2%{transform:translateX(-4320px)}56.5%{transform:translateX(-4400px)}56.5%{transform:translateX(-4480px)}56.5%{transform:translateX(-4560px)}56.5%{transform:translateX(-4640px)}56.5%{transform:translateX(-4720px)}100%{transform:translateX(-4800px)}}</style><g font-family="'Courier New',Monaco, Consolas, Menlo, &#x27;Bitstream Vera Sans Mono&#x27;, &#x27;Powerline Symbols&#x27;, monospace" font-size="1.67" class="e"><defs><symbol id="1"><text x="0" y="1.67" class="f">Input</text><text x="6.012" y="1.67" class="f">text:</text><text x="12.024" y="1.67" class="g">H</text></symbol><symbol id="2"><text x="0" y="1.67" class="f">Input</text><text x="6.012" y="1.67" class="f">text:</text><text x="12.024" y="1.67" class="g">Hel</text></symbol><symbol id="3"><text x="0" y="1.67" class="f">Input</text><text x="6.012" y="1.67" class="f">text:</text><text x="12.024" y="1.67" class="g">Hell</text></symbol><symbol id="4"><text x="0" y="1.67" class="f">Input</text><text x="6.012" y="1.67" class="f">text:</text><text x="12.024" y="1.67" class="g">Hello</text></symbol><symbol id="5"><text x="0" y="1.67" class="f">Input</text><text x="6.012" y="1.67" class="f">text:</text><text x="12.024" y="1.67" class="g">Hello;</text></symbol><symbol id="6"><text x="0" y="1.67" class="f">Input</text><text x="6.012" y="1.67" class="f">text:</text><text x="12.024" y="1.67" class="g">Hello;</text><text x="19.037999999999997" y="1.67" class="g">W</text></symbol><symbol id="7"><text x="0" y="1.67" class="f">Input</text><text x="6.012" y="1.67" class="f">text:</text><text x="12.024" y="1.67" class="g">Hello;</text><text x="19.037999999999997" y="1.67" class="g">Wo</text></symbol><symbol id="8"><text x="0" y="1.67" class="f">Input</text><text x="6.012" y="1.67" class="f">text:</text><text x="12.024" y="1.67" class="g">Hello;</text><text x="19.037999999999997" y="1.67" class="g">Worl</text></symbol><symbol id="9"><text x="0" y="1.67" class="f">Input</text><text x="6.012" y="1.67" class="f">text:</text><text x="12.024" y="1.67" class="g">Hello;</text><text x="19.037999999999997" y="1.67" class="g">World</text></symbol><symbol id="10"><text x="0" y="1.67" class="f">Input</text><text x="6.012" y="1.67" class="f">text:</text><text x="12.024" y="1.67" class="g">Hello;</text><text x="19.037999999999997" y="1.67" class="g">World!</text></symbol><symbol id="11"><text x="0" y="1.67" class="f">Input</text><text x="6.012" y="1.67" class="f">text:</text><text x="12.024" y="1.67" class="g">Hello</text><text x="18.035999999999998" y="1.67" class="g">World!</text></symbol><symbol id="12"><text x="0" y="1.67" class="f">Input</text><text x="6.012" y="1.67" class="f">text:</text><text x="12.024" y="1.67" class="g">Hello,</text><text x="19.037999999999997" y="1.67" class="g">World!</text></symbol><symbol id="13"><rect height="2.171" width="6" x="0" y="0" class="h"></rect><text x="0" y="1.67" class="i"> INFO </text><text x="7.013999999999999" y="1.67" class="f">You</text><text x="11.021999999999998" y="1.67" class="f">answered:</text><text x="21.041999999999998" y="1.67" class="f">Hello,</text><text x="28.055999999999997" y="1.67" class="f">World!</text></symbol><symbol id="a"><rect height="24" width="80" x="0" y="0" class="j"></rect></symbol><symbol id="b"><rect height="2.171" width="1.1022" class="k"></rect></symbol></defs><rect height="52.104" width="80" class="a"></rect><g class="m"><svg x="0" y="0" width="4880"><svg x="0"><use xlink:href="#a"></use><use xlink:href="#b" x="-0.0040000000000000036" y="0"></use></svg><svg x="80"><use xlink:href="#a"></use><use xlink:href="#b" x="11.996" y="0"></use><text x="0" y="1.67" class="f">Input</text><text x="6.012" y="1.67" class="f">text:</text></svg><svg x="160"><use xlink:href="#a"></use><use xlink:href="#b" x="-0.0040000000000000036" y="0"></use><use xlink:href="#1" y="0"></use></svg><svg x="240"><use xlink:href="#a"></use><use xlink:href="#b" x="12.996" y="0"></use><use xlink:href="#1" y="0"></use></svg><svg x="320"><use xlink:href="#a"></use><use xlink:href="#b" x="-0.0040000000000000036" y="0"></use><use xlink:href="#1" y="0"></use></svg><svg x="400"><use xlink:href="#a"></use><use xlink:href="#b" x="13.996" y="0"></use><text x="0" y="1.67" class="f">Input</text><text x="6.012" y="1.67" class="f">text:</text><text x="12.024" y="1.67" class="g">He</text></svg><svg x="480"><use xlink:href="#a"></use><use xlink:href="#b" x="14.996" y="0"></use><use xlink:href="#2" y="0"></use></svg><svg x="560"><use xlink:href="#a"></use><use xlink:href="#b" x="-0.0040000000000000036" y="0"></use><use xlink:href="#2" y="0"></use></svg><svg x="640"><use xlink:href="#a"></use><use xlink:href="#b" x="15.996" y="0"></use><use xlink:href="#3" y="0"></use></svg><svg x="720"><use xlink:href="#a"></use><use xlink:href="#b" x="-0.0040000000000000036" y="0"></use><use xlink:href="#3" y="0"></use></svg><svg x="800"><use xlink:href="#a"></use><use xlink:href="#b" x="16.996" y="0"></use><use xlink:href="#4" y="0"></use></svg><svg x="880"><use xlink:href="#a"></use><use xlink:href="#b" x="16.996" y="0"></use><use xlink:href="#4" y="0"></use></svg><svg x="960"><use xlink:href="#a"></use><use xlink:href="#b" x="-0.0040000000000000036" y="0"></use><use xlink:href="#4" y="0"></use></svg><svg x="1040"><use xlink:href="#a"></use><use xlink:href="#b" x="17.996" y="0"></use><use xlink:href="#5" y="0"></use></svg><svg x="1120"><use xlink:href="#a"></use><use xlink:href="#b" x="17.996" y="0"></use><use xlink:href="#5" y="0"></use></svg><svg x="1200"><use xlink:href="#a"></use><use xlink:href="#b" x="-0.0040000000000000036" y="0"></use><use xlink:href="#5" y="0"></use></svg><svg x="1280"><use xlink:href="#a"></use><use xlink:href="#b" x="18.996" y="0"></use><use xlink:href="#5" y="0"></use></svg><svg x="1360"><use xlink:href="#a"></use><use xlink:href="#b" x="-0.0040000000000000036" y="0"></use><use xlink:href="#6" y="0"></use></svg><svg x="1440"><use xlink:href="#a"></use><use xlink:href="#b" x="19.996" y="0"></use><use xlink:href="#6" y="0"></use></svg><svg x="1520"><use xlink:href="#a"></use><use xlink:href="#b" x="-0.0040000000000000036" y="0"></use><use xlink:href="#6" y="0"></use></svg><svg x="1600"><use xlink:href="#a"></use><use xlink:href="#b" x="20.996" y="0"></use><use xlink:href="#7" y="0"></use></svg><svg x="1680"><use xlink:href="#a"></use><use xlink:href="#b" x="20.996" y="0"></use><use xlink:href="#7" y="0"></use></svg><svg x="1760"><use xlink:href="#a"></use><use xlink:href="#b" x="21.996" y="0"></use><text x="0" y="1.67" class="f">Input</text><text x="6.012" y="1.67" class="f">text:</text><text x="12.024" y="1.67" class="g">Hello;</text><text x="19.037999999999997" y="1.67" class="g">Wor</text></svg><svg x="1840"><use xlink:href="#a"></use><use xlink:href="#b" x="-0.0040000000000000036" y="0"></use></svg><svg x="1920"><use xlink:href="#a"></use><use xlink:href="#b" x="-0.0040000000000000036" y="0"></use><use xlink:href="#8" y="0"></use></svg><svg x="2000"><use xlink:href="#a"></use><use xlink:href="#b" x="22.996" y="0"></use><use xlink:href="#8" y="0"></use></svg><svg x="2080"><use xlink:href="#a"></use><use xlink:href="#b" x="-0.0040000000000000036" y="0"></use><use xlink:href="#8" y="0"></use></svg><svg x="2160"><use xlink:href="#a"></use><use xlink:href="#b" x="23.996" y="0"></use><use xlink:href="#9" y="0"></use></svg><svg x="2240"><use xlink:href="#a"></use><use xlink:href="#b" x="23.996" y="0"></use><use xlink:href="#9" y="0"></use></svg><svg x="2320"><use xlink:href="#a"></use><use xlink:href="#b" x="-0.0040000000000000036" y="0"></use><use xlink:href="#9" y="0"></use></svg><svg x="2400"><use xlink:href="#a"></use><use xlink:href="#b" x="-0.0040000000000000036" y="0"></use></svg><svg x="2480"><use xlink:href="#a"></use><use xlink:href="#b" x="24.996" y="0"></use><use xlink:href="#10" y="0"></use></svg><svg x="2560"><use xlink:href="#a"></use><use xlink:href="#b" x="-0.0040000000000000036" y="0"></use><use xlink:href="#10" y="0"></use></svg><svg x="2640"><use xlink:href="#a"></use><use xlink:href="#b" x="23.996" y="0"></use><use xlink:href="#10" y="0"></use></svg><svg x="2720"><use xlink:href="#a"></use><use xlink:href="#b" x="-0.0040000000000000036" y="0"></use><use xlink:href="#10" y="0"></use></svg><svg x="2800"><use xlink:href="#a"></use><use xlink:href="#b" x="22.996" y="0"></use><use xlink:href="#10" y="0"></use></svg><svg x="2880"><use xlink:href="#a"></use><use xlink:href="#b" x="21.996" y="0"></use><use xlink:href="#10" y="0"></use></svg><svg x="2960"><use xlink:href="#a"></use><use xlink:href="#b" x="-0.0040000000000000036" y="0"></use><use xlink:href="#10" y="0"></use></svg><svg x="3040"><use xlink:href="#a"></use><use xlink:href="#b" x="20.996" y="0"></use><use xlink:href="#10" y="0"></use></svg><svg x="3120"><use xlink:href="#a"></use><use xlink:href="#b" x="-0.0040000000000000036" y="0"></use><use xlink:href="#10" y="0"></use></svg><svg x="3200"><use xlink:href="#a"></use><use xlink:href="#b" x="-0.0040000000000000036" y="0"></use></svg><svg x="3280"><use xlink:href="#a"></use><use xlink:href="#b" x="-0.0040000000000000036" y="0"></use><use xlink:href="#10" y="0"></use></svg><svg x="3360"><use xlink:href="#a"></use><use xlink:href="#b" x="19.996" y="0"></use><use xlink:href="#10" y="0"></use></svg><svg x="3440"><use xlink:href="#a"></use><use xlink:href="#b" x="-0.0040000000000000036" y="0"></use><use xlink:href="#10" y="0"></use></svg><svg x="3520"><use xlink:href="#a"></use><use xlink:href="#b" x="-0.0040000000000000036" y="0"></use></svg><svg x="3600"><use xlink:href="#a"></use><use xlink:href="#b" x="18.996" y="0"></use><use xlink:href="#10" y="0"></use></svg><svg x="3680"><use xlink:href="#a"></use><use xlink:href="#b" x="-0.0040000000000000036" y="0"></use><use xlink:href="#10" y="0"></use></svg><svg x="3760"><use xlink:href="#a"></use><use xlink:href="#b" x="-0.0040000000000000036" y="0"></use></svg><svg x="3840"><use xlink:href="#a"></use><use xlink:href="#b" x="17.996" y="0"></use><use xlink:href="#10" y="0"></use></svg><svg x="3920"><use xlink:href="#a"></use><use xlink:href="#b" x="-0.0040000000000000036" y="0"></use><use xlink:href="#10" y="0"></use></svg><svg x="4000"><use xlink:href="#a"></use><use xlink:href="#b" x="-0.0040000000000000036" y="0"></use></svg><svg x="4080"><use xlink:href="#a"></use><use xlink:href="#b" x="16.996" y="0"></use><use xlink:href="#11" y="0"></use></svg><svg x="4160"><use xlink:href="#a"></use><use xlink:href="#b" x="-0.0040000000000000036" y="0"></use><use xlink:href="#11" y="0"></use></svg><svg x="4240"><use xlink:href="#a"></use><use xlink:href="#b" x="-0.0040000000000000036" y="0"></use></svg><svg x="4320"><use xlink:href="#a"></use><use xlink:href="#b" x="17.996" y="0"></use><use xlink:href="#12" y="0"></use></svg><svg x="4400"><use xlink:href="#a"></use><use xlink:href="#b" x="-0.0040000000000000036" y="0"></use><use xlink:href="#12" y="0"></use></svg><svg x="4480"><use xlink:href="#a"></use><use xlink:href="#b" x="-0.0040000000000000036" y="0"></use></svg><svg x="4560"><use xlink:href="#a"></use><use xlink:href="#b" x="17.996" y="0"></use><use xlink:href="#12" y="0"></use></svg><svg x="4640"><use xlink:href="#a"></use><use xlink:href="#b" x="-0.0040000000000000036" y="2.146"></use><use xlink:href="#12" y="0"></use></svg><svg x="4720"><use xlink:href="#a"></use><use xlink:href="#b" x="-0.0040000000000000036" y="6.4879999999999995"></use><use xlink:href="#12" y="0"></use><use xlink:href="#13" y="4.342"></use></svg><svg x="4800"><use xlink:href="#a"></use><use xlink:href="#b" x="22.996" y="10.83"></use><use xlink:href="#12" y="0"></use><use xlink:href="#13" y="4.342"></use><text x="0" y="10.354" class="g">Restarting</text><text x="11.021999999999998" y="10.354" class="g">animation...</text></svg></svg></g></g></svg></svg>