<svg xmlns="http://www.w3.org/2000/svg" xmlns:xlink="http://www.w3.org/1999/xlink" width="840" height="581.04"><rect width="840" height="581.04" rx="5" ry="5" class="a"></rect><svg y="0%" x="0%"><circle cx="20" cy="20" r="6" class="b"></circle><circle cx="40" cy="20" r="6" class="c"></circle><circle cx="60" cy="20" r="6" class="d"></circle></svg><svg height="521.04" viewBox="0 0 80 52.104" width="800" x="15" xmlns="http://www.w3.org/2000/svg" xmlns:xlink="http://www.w3.org/1999/xlink" y="50"><style>.e, .g, .f {
	font-family:
			'Courier New'
			Roboto,
			Helvetica,
			Arial,
			sans-serif,
			'Apple Color Emoji',
			'Segoe UI Emoji' !important;
}.a{fill:rgb(35,35,35)}.b{fill:#ff5f58}.c{fill:#ffbd2e}.d{fill:#18c132}.e{font-family:'Courier New',Monaco,Consolas,Menlo,'Bitstream Vera Sans Mono','Powerline Symbols',monospace}.f{fill:rgb(126,231,233);white-space:pre}.g{fill:rgb(160,160,160);white-space:pre}.h{fill:rgb(102,194,205)}.i{white-space:pre}.j{fill:transparent}.k{fill:rgb(160,160,160)}.m{animation-duration:11.715377s;animation-iteration-count:infinite;animation-name:l;animation-timing-function:steps(1,end)}@keyframes l{0%{transform:translateX(-0px)}3.4%{transform:translateX(-80px)}3.8%{transform:translateX(-160px)}12%{transform:translateX(-240px)}12%{transform:translateX(-320px)}14.1%{transform:translateX(-400px)}14.1%{transform:translateX(-480px)}14.1%{transform:translateX(-560px)}16.3%{transform:translateX(-640px)}18.4%{transform:translateX(-720px)}18.4%{transform:translateX(-800px)}18.4%{transform:translateX(-880px)}20.5%{transform:translateX(-960px)}20.5%{transform:translateX(-1040px)}20.5%{transform:translateX(-1120px)}20.5%{transform:translateX(-1200px)}22.7%{transform:translateX(-1280px)}22.7%{transform:translateX(-1360px)}22.7%{transform:translateX(-1440px)}24.8%{transform:translateX(-1520px)}24.8%{transform:translateX(-1600px)}24.8%{transform:translateX(-1680px)}24.8%{transform:translateX(-1760px)}26.9%{transform:translateX(-1840px)}27%{transform:translateX(-1920px)}27%{transform:translateX(-2000px)}27%{transform:translateX(-2080px)}29.1%{transform:translateX(-2160px)}29.1%{transform:translateX(-2240px)}29.1%{transform:translateX(-2320px)}29.1%{transform:translateX(-2400px)}31.2%{transform:translateX(-2480px)}31.2%{transform:translateX(-2560px)}31.2%{transform:translateX(-2640px)}31.2%{transform:translateX(-2720px)}31.2%{transform:translateX(-2800px)}33.4%{transform:translateX(-2880px)}33.4%{transform:translateX(-2960px)}33.4%{transform:translateX(-3040px)}33.4%{transform:translateX(-3120px)}35.5%{transform:translateX(-3200px)}35.5%{transform:translateX(-3280px)}35.5%{transform:translateX(-3360px)}35.5%{transform:translateX(-3440px)}35.5%{transform:translateX(-3520px)}37.6%{transform:translateX(-3600px)}37.6%{transform:translateX(-3680px)}39.8%{transform:translateX(-3760px)}39.8%{transform:translateX(-3840px)}39.8%{transform:translateX(-3920px)}41%{transform:translateX(-4000px)}41.1%{transform:translateX(-4080px)}41.1%{transform:translateX(-4160px)}41.1%{transform:translateX(-4240px)}41.1%{transform:translateX(-4320px)}42.3%{transform:translateX(-4400px)}42.3%{transform:translateX(-4480px)}43.6%{transform:translateX(-4560px)}43.6%{transform:translateX(-4640px)}43.6%{transform:translateX(-4720px)}43.6%{transform:translateX(-4800px)}43.6%{transform:translateX(-4880px)}44.9%{transform:translateX(-4960px)}44.9%{transform:translateX(-5040px)}44.9%{transform:translateX(-5120px)}44.9%{transform:translateX(-5200px)}46.2%{transform:translateX(-5280px)}46.2%{transform:translateX(-5360px)}46.2%{transform:translateX(-5440px)}46.2%{transform:translateX(-5520px)}46.2%{transform:translateX(-5600px)}47.5%{transform:translateX(-5680px)}47.5%{transform:translateX(-5760px)}47.5%{transform:translateX(-5840px)}48.7%{transform:translateX(-5920px)}48.7%{transform:translateX(-6000px)}48.8%{transform:translateX(-6080px)}48.8%{transform:translateX(-6160px)}53%{transform:translateX(-6240px)}53%{transform:translateX(-6320px)}53%{transform:translateX(-6400px)}53%{transform:translateX(-6480px)}53%{transform:translateX(-6560px)}57.3%{transform:translateX(-6640px)}57.3%{transform:translateX(-6720px)}57.3%{transform:translateX(-6800px)}57.3%{transform:translateX(-6880px)}57.3%{transform:translateX(-6960px)}57.3%{transform:translateX(-7040px)}57.3%{transform:translateX(-7120px)}57.3%{transform:translateX(-7200px)}57.3%{transform:translateX(-7280px)}100%{transform:translateX(-7360px)}}</style><g font-family="'Courier New',Monaco, Consolas, Menlo, &#x27;Bitstream Vera Sans Mono&#x27;, &#x27;Powerline Symbols&#x27;, monospace" font-size="1.67" class="e"><defs><symbol id="1"><text x="0" y="1.67" class="f">Input</text><text x="6.012" y="1.67" class="f">text:</text></symbol><symbol id="2"><text x="0" y="1.67" class="f">Input</text><text x="6.012" y="1.67" class="f">text:</text><text x="12.024" y="1.67" class="g">H</text></symbol><symbol id="3"><text x="0" y="1.67" class="f">Input</text><text x="6.012" y="1.67" class="f">text:</text><text x="12.024" y="1.67" class="g">Hell</text></symbol><symbol id="4"><text x="0" y="1.67" class="f">Input</text><text x="6.012" y="1.67" class="f">text:</text><text x="12.024" y="1.67" class="g">Hello</text></symbol><symbol id="5"><text x="0" y="1.67" class="f">Input</text><text x="6.012" y="1.67" class="f">text:</text><text x="12.024" y="1.67" class="g">Hello;</text></symbol><symbol id="6"><text x="0" y="1.67" class="f">Input</text><text x="6.012" y="1.67" class="f">text:</text><text x="12.024" y="1.67" class="g">Hello;</text><text x="19.037999999999997" y="1.67" class="g">W</text></symbol><symbol id="7"><text x="0" y="1.67" class="f">Input</text><text x="6.012" y="1.67" class="f">text:</text><text x="12.024" y="1.67" class="g">Hello;</text><text x="19.037999999999997" y="1.67" class="g">Wo</text></symbol><symbol id="8"><text x="0" y="1.67" class="f">Input</text><text x="6.012" y="1.67" class="f">text:</text><text x="12.024" y="1.67" class="g">Hello;</text><text x="19.037999999999997" y="1.67" class="g">Wor</text></symbol><symbol id="9"><text x="0" y="1.67" class="f">Input</text><text x="6.012" y="1.67" class="f">text:</text><text x="12.024" y="1.67" class="g">Hello;</text><text x="19.037999999999997" y="1.67" class="g">Worl</text></symbol><symbol id="10"><text x="0" y="1.67" class="f">Input</text><text x="6.012" y="1.67" class="f">text:</text><text x="12.024" y="1.67" class="g">Hello;</text><text x="19.037999999999997" y="1.67" class="g">World</text></symbol><symbol id="11"><text x="0" y="1.67" class="f">Input</text><text x="6.012" y="1.67" class="f">text:</text><text x="12.024" y="1.67" class="g">Hello;</text><text x="19.037999999999997" y="1.67" class="g">World!</text></symbol><symbol id="12"><text x="0" y="1.67" class="f">Input</text><text x="6.012" y="1.67" class="f">text:</text><text x="12.024" y="1.67" class="g">Hello</text><text x="18.035999999999998" y="1.67" class="g">World!</text></symbol><symbol id="13"><text x="0" y="1.67" class="f">Input</text><text x="6.012" y="1.67" class="f">text:</text><text x="12.024" y="1.67" class="g">Hello,</text><text x="19.037999999999997" y="1.67" class="g">World!</text></symbol><symbol id="14"><rect height="2.171" width="6" x="0" y="0" class="h"></rect><text x="0" y="1.67" class="i"> INFO </text><text x="7.013999999999999" y="1.67" class="f">You</text><text x="11.021999999999998" y="1.67" class="f">answered:</text><text x="21.041999999999998" y="1.67" class="f">Hello,</text><text x="28.055999999999997" y="1.67" class="f">World!</text></symbol><symbol id="a"><rect height="24" width="80" x="0" y="0" class="j"></rect></symbol><symbol id="b"><rect height="2.171" width="1.1022" class="k"></rect></symbol></defs><rect height="52.104" width="80" class="a"></rect><g class="m"><svg x="0" y="0" width="7440"><svg x="0"><use xlink:href="#a"></use><use xlink:href="#b" x="-0.0040000000000000036" y="0"></use></svg><svg x="80"><use xlink:href="#a"></use><use xlink:href="#b" x="-0.0040000000000000036" y="0"></use><use xlink:href="#1" y="0"></use></svg><svg x="160"><use xlink:href="#a"></use><use xlink:href="#b" x="11.996" y="0"></use><use xlink:href="#1" y="0"></use></svg><svg x="240"><use xlink:href="#a"></use><use xlink:href="#b" x="-0.0040000000000000036" y="0"></use><use xlink:href="#2" y="0"></use></svg><svg x="320"><use xlink:href="#a"></use><use xlink:href="#b" x="12.996" y="0"></use><use xlink:href="#2" y="0"></use></svg><svg x="400"><use xlink:href="#a"></use><use xlink:href="#b" x="-0.0040000000000000036" y="0"></use><use xlink:href="#2" y="0"></use></svg><svg x="480"><use xlink:href="#a"></use><use xlink:href="#b" x="-0.0040000000000000036" y="0"></use></svg><svg x="560"><use xlink:href="#a"></use><use xlink:href="#b" x="13.996" y="0"></use><text x="0" y="1.67" class="f">Input</text><text x="6.012" y="1.67" class="f">text:</text><text x="12.024" y="1.67" class="g">He</text></svg><svg x="640"><use xlink:href="#a"></use><use xlink:href="#b" x="14.996" y="0"></use><text x="0" y="1.67" class="f">Input</text><text x="6.012" y="1.67" class="f">text:</text><text x="12.024" y="1.67" class="g">Hel</text></svg><svg x="720"><use xlink:href="#a"></use><use xlink:href="#b" x="15.996" y="0"></use><use xlink:href="#3" y="0"></use></svg><svg x="800"><use xlink:href="#a"></use><use xlink:href="#b" x="-0.0040000000000000036" y="0"></use><use xlink:href="#3" y="0"></use></svg><svg x="880"><use xlink:href="#a"></use><use xlink:href="#b" x="15.996" y="0"></use><use xlink:href="#3" y="0"></use></svg><svg x="960"><use xlink:href="#a"></use><use xlink:href="#b" x="-0.0040000000000000036" y="0"></use><use xlink:href="#3" y="0"></use></svg><svg x="1040"><use xlink:href="#a"></use><use xlink:href="#b" x="-0.0040000000000000036" y="0"></use></svg><svg x="1120"><use xlink:href="#a"></use><use xlink:href="#b" x="16.996" y="0"></use><use xlink:href="#4" y="0"></use></svg><svg x="1200"><use xlink:href="#a"></use><use xlink:href="#b" x="16.996" y="0"></use><use xlink:href="#4" y="0"></use></svg><svg x="1280"><use xlink:href="#a"></use><use xlink:href="#b" x="-0.0040000000000000036" y="0"></use><use xlink:href="#4" y="0"></use></svg><svg x="1360"><use xlink:href="#a"></use><use xlink:href="#b" x="-0.0040000000000000036" y="0"></use></svg><svg x="1440"><use xlink:href="#a"></use><use xlink:href="#b" x="17.996" y="0"></use><use xlink:href="#5" y="0"></use></svg><svg x="1520"><use xlink:href="#a"></use><use xlink:href="#b" x="-0.0040000000000000036" y="0"></use><use xlink:href="#5" y="0"></use></svg><svg x="1600"><use xlink:href="#a"></use><use xlink:href="#b" x="18.996" y="0"></use><use xlink:href="#5" y="0"></use></svg><svg x="1680"><use xlink:href="#a"></use><use xlink:href="#b" x="-0.0040000000000000036" y="0"></use><use xlink:href="#5" y="0"></use></svg><svg x="1760"><use xlink:href="#a"></use><use xlink:href="#b" x="18.996" y="0"></use><use xlink:href="#5" y="0"></use></svg><svg x="1840"><use xlink:href="#a"></use><use xlink:href="#b" x="-0.0040000000000000036" y="0"></use><use xlink:href="#5" y="0"></use></svg><svg x="1920"><use xlink:href="#a"></use><use xlink:href="#b" x="-0.0040000000000000036" y="0"></use></svg><svg x="2000"><use xlink:href="#a"></use><use xlink:href="#b" x="19.996" y="0"></use><use xlink:href="#6" y="0"></use></svg><svg x="2080"><use xlink:href="#a"></use><use xlink:href="#b" x="19.996" y="0"></use><use xlink:href="#6" y="0"></use></svg><svg x="2160"><use xlink:href="#a"></use><use xlink:href="#b" x="-0.0040000000000000036" y="0"></use><use xlink:href="#6" y="0"></use></svg><svg x="2240"><use xlink:href="#a"></use><use xlink:href="#b" x="-0.0040000000000000036" y="0"></use></svg><svg x="2320"><use xlink:href="#a"></use><use xlink:href="#b" x="20.996" y="0"></use><use xlink:href="#7" y="0"></use></svg><svg x="2400"><use xlink:href="#a"></use><use xlink:href="#b" x="20.996" y="0"></use><use xlink:href="#7" y="0"></use></svg><svg x="2480"><use xlink:href="#a"></use><use xlink:href="#b" x="-0.0040000000000000036" y="0"></use><use xlink:href="#7" y="0"></use></svg><svg x="2560"><use xlink:href="#a"></use><use xlink:href="#b" x="-0.0040000000000000036" y="0"></use></svg><svg x="2640"><use xlink:href="#a"></use><use xlink:href="#b" x="21.996" y="0"></use><use xlink:href="#8" y="0"></use></svg><svg x="2720"><use xlink:href="#a"></use><use xlink:href="#b" x="-0.0040000000000000036" y="0"></use><use xlink:href="#8" y="0"></use></svg><svg x="2800"><use xlink:href="#a"></use><use xlink:href="#b" x="21.996" y="0"></use><use xlink:href="#8" y="0"></use></svg><svg x="2880"><use xlink:href="#a"></use><use xlink:href="#b" x="-0.0040000000000000036" y="0"></use><use xlink:href="#8" y="0"></use></svg><svg x="2960"><use xlink:href="#a"></use><use xlink:href="#b" x="-0.0040000000000000036" y="0"></use></svg><svg x="3040"><use xlink:href="#a"></use><use xlink:href="#b" x="-0.0040000000000000036" y="0"></use><use xlink:href="#9" y="0"></use></svg><svg x="3120"><use xlink:href="#a"></use><use xlink:href="#b" x="22.996" y="0"></use><use xlink:href="#9" y="0"></use></svg><svg x="3200"><use xlink:href="#a"></use><use xlink:href="#b" x="-0.0040000000000000036" y="0"></use><use xlink:href="#9" y="0"></use></svg><svg x="3280"><use xlink:href="#a"></use><use xlink:href="#b" x="-0.0040000000000000036" y="0"></use></svg><svg x="3360"><use xlink:href="#a"></use><use xlink:href="#b" x="23.996" y="0"></use><use xlink:href="#10" y="0"></use></svg><svg x="3440"><use xlink:href="#a"></use><use xlink:href="#b" x="-0.0040000000000000036" y="0"></use><use xlink:href="#10" y="0"></use></svg><svg x="3520"><use xlink:href="#a"></use><use xlink:href="#b" x="23.996" y="0"></use><use xlink:href="#10" y="0"></use></svg><svg x="3600"><use xlink:href="#a"></use><use xlink:href="#b" x="-0.0040000000000000036" y="0"></use><use xlink:href="#10" y="0"></use></svg><svg x="3680"><use xlink:href="#a"></use><use xlink:href="#b" x="24.996" y="0"></use><use xlink:href="#11" y="0"></use></svg><svg x="3760"><use xlink:href="#a"></use><use xlink:href="#b" x="-0.0040000000000000036" y="0"></use><use xlink:href="#11" y="0"></use></svg><svg x="3840"><use xlink:href="#a"></use><use xlink:href="#b" x="24.996" y="0"></use><use xlink:href="#11" y="0"></use></svg><svg x="3920"><use xlink:href="#a"></use><use xlink:href="#b" x="23.996" y="0"></use><use xlink:href="#11" y="0"></use></svg><svg x="4000"><use xlink:href="#a"></use><use xlink:href="#b" x="-0.0040000000000000036" y="0"></use><use xlink:href="#11" y="0"></use></svg><svg x="4080"><use xlink:href="#a"></use><use xlink:href="#b" x="-0.0040000000000000036" y="0"></use></svg><svg x="4160"><use xlink:href="#a"></use><use xlink:href="#b" x="24.996" y="0"></use><use xlink:href="#11" y="0"></use></svg><svg x="4240"><use xlink:href="#a"></use><use xlink:href="#b" x="-0.0040000000000000036" y="0"></use><use xlink:href="#11" y="0"></use></svg><svg x="4320"><use xlink:href="#a"></use><use xlink:href="#b" x="22.996" y="0"></use><use xlink:href="#11" y="0"></use></svg><svg x="4400"><use xlink:href="#a"></use><use xlink:href="#b" x="-0.0040000000000000036" y="0"></use><use xlink:href="#11" y="0"></use></svg><svg x="4480"><use xlink:href="#a"></use><use xlink:href="#b" x="21.996" y="0"></use><use xlink:href="#11" y="0"></use></svg><svg x="4560"><use xlink:href="#a"></use><use xlink:href="#b" x="-0.0040000000000000036" y="0"></use><use xlink:href="#11" y="0"></use></svg><svg x="4640"><use xlink:href="#a"></use><use xlink:href="#b" x="-0.0040000000000000036" y="0"></use></svg><svg x="4720"><use xlink:href="#a"></use><use xlink:href="#b" x="24.996" y="0"></use><use xlink:href="#11" y="0"></use></svg><svg x="4800"><use xlink:href="#a"></use><use xlink:href="#b" x="-0.0040000000000000036" y="0"></use><use xlink:href="#11" y="0"></use></svg><svg x="4880"><use xlink:href="#a"></use><use xlink:href="#b" x="20.996" y="0"></use><use xlink:href="#11" y="0"></use></svg><svg x="4960"><use xlink:href="#a"></use><use xlink:href="#b" x="-0.0040000000000000036" y="0"></use><use xlink:href="#11" y="0"></use></svg><svg x="5040"><use xlink:href="#a"></use><use xlink:href="#b" x="-0.0040000000000000036" y="0"></use></svg><svg x="5120"><use xlink:href="#a"></use><use xlink:href="#b" x="24.996" y="0"></use><use xlink:href="#11" y="0"></use></svg><svg x="5200"><use xlink:href="#a"></use><use xlink:href="#b" x="19.996" y="0"></use><use xlink:href="#11" y="0"></use></svg><svg x="5280"><use xlink:href="#a"></use><use xlink:href="#b" x="-0.0040000000000000036" y="0"></use><use xlink:href="#11" y="0"></use></svg><svg x="5360"><use xlink:href="#a"></use><use xlink:href="#b" x="-0.0040000000000000036" y="0"></use></svg><svg x="5440"><use xlink:href="#a"></use><use xlink:href="#b" x="24.996" y="0"></use><use xlink:href="#11" y="0"></use></svg><svg x="5520"><use xlink:href="#a"></use><use xlink:href="#b" x="-0.0040000000000000036" y="0"></use><use xlink:href="#11" y="0"></use></svg><svg x="5600"><use xlink:href="#a"></use><use xlink:href="#b" x="18.996" y="0"></use><use xlink:href="#11" y="0"></use></svg><svg x="5680"><use xlink:href="#a"></use><use xlink:href="#b" x="24.996" y="0"></use><use xlink:href="#11" y="0"></use></svg><svg x="5760"><use xlink:href="#a"></use><use xlink:href="#b" x="-0.0040000000000000036" y="0"></use><use xlink:href="#11" y="0"></use></svg><svg x="5840"><use xlink:href="#a"></use><use xlink:href="#b" x="17.996" y="0"></use><use xlink:href="#11" y="0"></use></svg><svg x="5920"><use xlink:href="#a"></use><use xlink:href="#b" x="-0.0040000000000000036" y="0"></use><use xlink:href="#11" y="0"></use></svg><svg x="6000"><use xlink:href="#a"></use><use xlink:href="#b" x="-0.0040000000000000036" y="0"></use></svg><svg x="6080"><use xlink:href="#a"></use><use xlink:href="#b" x="23.996" y="0"></use><use xlink:href="#12" y="0"></use></svg><svg x="6160"><use xlink:href="#a"></use><use xlink:href="#b" x="16.996" y="0"></use><use xlink:href="#12" y="0"></use></svg><svg x="6240"><use xlink:href="#a"></use><use xlink:href="#b" x="-0.0040000000000000036" y="0"></use><use xlink:href="#12" y="0"></use></svg><svg x="6320"><use xlink:href="#a"></use><use xlink:href="#b" x="-0.0040000000000000036" y="0"></use></svg><svg x="6400"><use xlink:href="#a"></use><use xlink:href="#b" x="24.996" y="0"></use><use xlink:href="#13" y="0"></use></svg><svg x="6480"><use xlink:href="#a"></use><use xlink:href="#b" x="-0.0040000000000000036" y="0"></use><use xlink:href="#13" y="0"></use></svg><svg x="6560"><use xlink:href="#a"></use><use xlink:href="#b" x="17.996" y="0"></use><use xlink:href="#13" y="0"></use></svg><svg x="6640"><use xlink:href="#a"></use><use xlink:href="#b" x="-0.0040000000000000036" y="0"></use><use xlink:href="#13" y="0"></use></svg><svg x="6720"><use xlink:href="#a"></use><use xlink:href="#b" x="-0.0040000000000000036" y="0"></use></svg><svg x="6800"><use xlink:href="#a"></use><use xlink:href="#b" x="24.996" y="0"></use><use xlink:href="#13" y="0"></use></svg><svg x="6880"><use xlink:href="#a"></use><use xlink:href="#b" x="-0.0040000000000000036" y="0"></use><use xlink:href="#13" y="0"></use></svg><svg x="6960"><use xlink:href="#a"></use><use xlink:href="#b" x="17.996" y="0"></use><use xlink:href="#13" y="0"></use></svg><svg x="7040"><use xlink:href="#a"></use><use xlink:href="#b" x="-0.0040000000000000036" y="2.146"></use><use xlink:href="#13" y="0"></use></svg><svg x="7120"><use xlink:href="#a"></use><use xlink:href="#b" x="-0.0040000000000000036" y="4.317"></use><use xlink:href="#13" y="0"></use></svg><svg x="7200"><use xlink:href="#a"></use><use xlink:href="#b" x="33.996" y="4.317"></use><use xlink:href="#13" y="0"></use><use xlink:href="#14" y="4.342"></use></svg><svg x="7280"><use xlink:href="#a"></use><use xlink:href="#b" x="-0.0040000000000000036" y="6.4879999999999995"></use><use xlink:href="#13" y="0"></use><use xlink:href="#14" y="4.342"></use></svg><svg x="7360"><use xlink:href="#a"></use><use xlink:href="#b" x="22.996" y="10.83"></use><use xlink:href="#13" y="0"></use><use xlink:href="#14" y="4.342"></use><text x="0" y="10.354" class="g">Restarting</text><text x="11.021999999999998" y="10.354" class="g">animation...</text></svg></svg></g></g></svg></svg>