<svg xmlns="http://www.w3.org/2000/svg" xmlns:xlink="http://www.w3.org/1999/xlink" width="840" height="581.04"><rect width="840" height="581.04" rx="5" ry="5" class="a"></rect><svg y="0%" x="0%"><circle cx="20" cy="20" r="6" class="b"></circle><circle cx="40" cy="20" r="6" class="c"></circle><circle cx="60" cy="20" r="6" class="d"></circle></svg><svg height="521.04" viewBox="0 0 80 52.104" width="800" x="15" xmlns="http://www.w3.org/2000/svg" xmlns:xlink="http://www.w3.org/1999/xlink" y="50"><style>.e, .g, .f {
	font-family:
			'Courier New'
			Roboto,
			Helvetica,
			Arial,
			sans-serif,
			'Apple Color Emoji',
			'Segoe UI Emoji' !important;
}.a{fill:rgb(35,35,35)}.b{fill:#ff5f58}.c{fill:#ffbd2e}.d{fill:#18c132}.e{font-family:'Courier New',Monaco,Consolas,Menlo,'Bitstream Vera Sans Mono','Powerline Symbols',monospace}.f{fill:rgb(160,160,160);white-space:pre}.g{fill:rgb(102,194,205)}.h{white-space:pre}.i{fill:rgb(126,231,233);white-space:pre}.j{fill:transparent}.l{animation-duration:5.377691s;animation-iteration-count:infinite;animation-name:k;animation-timing-function:steps(1,end)}@keyframes k{0%{transform:translateX(-0px)}5.8%{transform:translateX(-80px)}7%{transform:translateX(-160px)}100%{transform:translateX(-240px)}}</style><g font-family="'Courier New',Monaco, Consolas, Menlo, &#x27;Bitstream Vera Sans Mono&#x27;, &#x27;Powerline Symbols&#x27;, monospace" font-size="1.67" class="e"><defs><symbol id="1"><text x="0" y="1.67" class="f">Printing</text><text x="9.017999999999999" y="1.67" class="f">something...</text><text x="22.043999999999997" y="1.67" class="f">[0/15]</text></symbol><symbol id="2"><text x="0" y="1.67" class="f">Printing</text><text x="9.017999999999999" y="1.67" class="f">something...</text><text x="22.043999999999997" y="1.67" class="f">[1/15]</text></symbol><symbol id="3"><text x="0" y="1.67" class="f">Printing</text><text x="9.017999999999999" y="1.67" class="f">something...</text><text x="22.043999999999997" y="1.67" class="f">[2/15]</text></symbol><symbol id="4"><text x="0" y="1.67" class="f">Printing</text><text x="9.017999999999999" y="1.67" class="f">something...</text><text x="22.043999999999997" y="1.67" class="f">[3/15]</text></symbol><symbol id="5"><text x="0" y="1.67" class="f">Printing</text><text x="9.017999999999999" y="1.67" class="f">something...</text><text x="22.043999999999997" y="1.67" class="f">[4/15]</text></symbol><symbol id="6"><rect height="2.171" width="6" x="0" y="0" class="g"></rect><text x="0" y="1.67" class="h"> INFO </text><text x="7.013999999999999" y="1.67" class="i">Disabled</text><text x="16.032" y="1.67" class="i">Output!</text></symbol><symbol id="7"><rect height="2.171" width="6" x="0" y="0" class="g"></rect><text x="0" y="1.67" class="h"> INFO </text><text x="7.013999999999999" y="1.67" class="i">Enabled</text><text x="15.029999999999998" y="1.67" class="i">Output!</text></symbol><symbol id="8"><text x="0" y="1.67" class="f">Printing</text><text x="9.017999999999999" y="1.67" class="f">something...</text><text x="22.043999999999997" y="1.67" class="f">[10/15]</text></symbol><symbol id="9"><text x="0" y="1.67" class="f">Printing</text><text x="9.017999999999999" y="1.67" class="f">something...</text><text x="22.043999999999997" y="1.67" class="f">[11/15]</text></symbol><symbol id="10"><text x="0" y="1.67" class="f">Printing</text><text x="9.017999999999999" y="1.67" class="f">something...</text><text x="22.043999999999997" y="1.67" class="f">[12/15]</text></symbol><symbol id="11"><text x="0" y="1.67" class="f">Printing</text><text x="9.017999999999999" y="1.67" class="f">something...</text><text x="22.043999999999997" y="1.67" class="f">[13/15]</text></symbol><symbol id="12"><text x="0" y="1.67" class="f">Printing</text><text x="9.017999999999999" y="1.67" class="f">something...</text><text x="22.043999999999997" y="1.67" class="f">[14/15]</text></symbol><symbol id="a"><rect height="24" width="80" x="0" y="0" class="j"></rect></symbol></defs><rect height="52.104" width="80" class="a"></rect><g class="l"><svg x="0" y="0" width="320"><svg x="0"><use xlink:href="#a"></use></svg><svg x="80"><use xlink:href="#a"></use><use xlink:href="#1" y="0"></use><use xlink:href="#2" y="2.171"></use><use xlink:href="#3" y="4.342"></use><use xlink:href="#4" y="6.513"></use><use xlink:href="#5" y="8.684"></use></svg><svg x="160"><use xlink:href="#a"></use><use xlink:href="#1" y="0"></use><use xlink:href="#2" y="2.171"></use><use xlink:href="#3" y="4.342"></use><use xlink:href="#4" y="6.513"></use><use xlink:href="#5" y="8.684"></use><use xlink:href="#6" y="10.855"></use><use xlink:href="#7" y="13.026"></use><use xlink:href="#8" y="15.197"></use><use xlink:href="#9" y="17.368"></use><use xlink:href="#10" y="19.539"></use><use xlink:href="#11" y="21.71"></use><use xlink:href="#12" y="23.880999999999997"></use></svg><svg x="240"><use xlink:href="#a"></use><use xlink:href="#1" y="0"></use><use xlink:href="#2" y="2.171"></use><use xlink:href="#3" y="4.342"></use><use xlink:href="#4" y="6.513"></use><use xlink:href="#5" y="8.684"></use><use xlink:href="#6" y="10.855"></use><use xlink:href="#7" y="13.026"></use><use xlink:href="#8" y="15.197"></use><use xlink:href="#9" y="17.368"></use><use xlink:href="#10" y="19.539"></use><use xlink:href="#11" y="21.71"></use><use xlink:href="#12" y="23.880999999999997"></use><text x="0" y="29.893" class="f">Restarting</text><text x="11.021999999999998" y="29.893" class="f">animation...</text></svg></svg></g></g></svg></svg>