<svg xmlns="http://www.w3.org/2000/svg" xmlns:xlink="http://www.w3.org/1999/xlink" width="840" height="581.04"><rect width="840" height="581.04" rx="5" ry="5" class="a"></rect><svg y="0%" x="0%"><circle cx="20" cy="20" r="6" class="b"></circle><circle cx="40" cy="20" r="6" class="c"></circle><circle cx="60" cy="20" r="6" class="d"></circle></svg><svg height="521.04" viewBox="0 0 80 52.104" width="800" x="15" xmlns="http://www.w3.org/2000/svg" xmlns:xlink="http://www.w3.org/1999/xlink" y="50"><style>.a{fill:rgb(40,45,53)}.b{fill:#ff5f58}.c{fill:#ffbd2e}.d{fill:#18c132}.e{font-family:Monaco,Consolas,Menlo,'Bitstream Vera Sans Mono','Powerline Symbols',monospace}.f{fill:rgb(219,171,121);text-decoration:underline;white-space:pre}.g{fill:rgb(102,194,205)}.h{white-space:pre}.i{fill:rgb(102,194,205);white-space:pre}.j{fill:transparent}.k{fill:rgb(111,118,131)}.m{animation-duration:6.907732s;animation-iteration-count:infinite;animation-name:l;animation-timing-function:steps(1,end)}.n{fill:rgb(185,192,203);white-space:pre}@keyframes l{0%{transform:translateX(-0px)}27.6%{transform:translateX(-80px)}27.6%{transform:translateX(-160px)}100%{transform:translateX(-240px)}}</style><g font-family="Monaco, Consolas, Menlo, &#x27;Bitstream Vera Sans Mono&#x27;, &#x27;Powerline Symbols&#x27;, monospace" font-size="1.67" class="e"><defs><symbol id="1"><text x="0" y="1.67" class="f">This</text><text x="5.01" y="1.67" class="f">is</text><text x="8.016" y="1.67" class="f">a</text><text x="10.02" y="1.67" class="f">section!</text></symbol><symbol id="2"><rect height="2.171" width="6" x="0" y="0" class="g"></rect><text x="0" y="1.67" class="h"> INFO </text><text x="7.013999999999999" y="1.67" class="i">And</text><text x="11.021999999999998" y="1.67" class="i">here</text><text x="16.032" y="1.67" class="i">is</text><text x="19.037999999999997" y="1.67" class="i">some</text><text x="24.048" y="1.67" class="i">text.</text></symbol><symbol id="3"><rect height="2.171" width="6" x="0" y="0" class="g"></rect><text x="0" y="1.67" class="h">      </text><text x="7.013999999999999" y="1.67" class="i">This</text><text x="12.024" y="1.67" class="i">text</text><text x="17.034" y="1.67" class="i">could</text><text x="23.045999999999996" y="1.67" class="i">be</text><text x="26.052" y="1.67" class="i">anything.</text></symbol><symbol id="4"><rect height="2.171" width="6" x="0" y="0" class="g"></rect><text x="0" y="1.67" class="h">      </text><text x="7.013999999999999" y="1.67" class="i">Basically</text><text x="17.034" y="1.67" class="i">it&#x27;s</text><text x="22.043999999999997" y="1.67" class="i">just</text><text x="27.054" y="1.67" class="i">a</text><text x="29.058" y="1.67" class="i">placeholder</text></symbol><symbol id="5"><text x="0" y="1.67" class="f">This</text><text x="5.01" y="1.67" class="f">is</text><text x="8.016" y="1.67" class="f">another</text><text x="16.032" y="1.67" class="f">section!</text></symbol><symbol id="6"><rect height="2.171" width="6" x="0" y="0" class="g"></rect><text x="0" y="1.67" class="h"> INFO </text><text x="7.013999999999999" y="1.67" class="i">And</text><text x="11.021999999999998" y="1.67" class="i">this</text><text x="16.032" y="1.67" class="i">is</text></symbol><symbol id="7"><rect height="2.171" width="6" x="0" y="0" class="g"></rect><text x="0" y="1.67" class="h">      </text><text x="7.013999999999999" y="1.67" class="i">more</text><text x="12.024" y="1.67" class="i">placeholder</text><text x="24.048" y="1.67" class="i">text</text></symbol><symbol id="a"><rect height="24" width="80" x="0" y="0" class="j"></rect></symbol><symbol id="b"><rect height="2.171" width="1.1022" class="k"></rect></symbol></defs><rect height="52.104" width="80" class="a"></rect><g class="m"><svg x="0" y="0" width="320"><svg x="0"><use xlink:href="#a"></use><use xlink:href="#b" x="-0.0040000000000000036" y="0"></use></svg><svg x="80"><use xlink:href="#a"></use><use xlink:href="#b" x="-0.0040000000000000036" y="4.317"></use><use xlink:href="#1" y="2.171"></use></svg><svg x="160"><use xlink:href="#a"></use><use xlink:href="#b" x="-0.0040000000000000036" y="19.514000000000003"></use><use xlink:href="#1" y="2.171"></use><use xlink:href="#2" y="4.342"></use><use xlink:href="#3" y="6.513"></use><use xlink:href="#4" y="8.684"></use><use xlink:href="#5" y="13.026"></use><use xlink:href="#6" y="15.197"></use><use xlink:href="#7" y="17.368"></use></svg><svg x="240"><use xlink:href="#a"></use><use xlink:href="#b" x="-0.0040000000000000036" y="23.855999999999998"></use><use xlink:href="#1" y="2.171"></use><use xlink:href="#2" y="4.342"></use><use xlink:href="#3" y="6.513"></use><use xlink:href="#4" y="8.684"></use><use xlink:href="#5" y="13.026"></use><use xlink:href="#6" y="15.197"></use><use xlink:href="#7" y="17.368"></use><text x="0" y="23.380000000000003" class="n">restarting...</text></svg></svg></g></g></svg></svg>