<svg xmlns="http://www.w3.org/2000/svg" xmlns:xlink="http://www.w3.org/1999/xlink" width="840" height="581.04"><rect width="840" height="581.04" rx="5" ry="5" class="a"></rect><svg y="0%" x="0%"><circle cx="20" cy="20" r="6" class="b"></circle><circle cx="40" cy="20" r="6" class="c"></circle><circle cx="60" cy="20" r="6" class="d"></circle></svg><svg height="521.04" viewBox="0 0 80 52.104" width="800" x="15" xmlns="http://www.w3.org/2000/svg" xmlns:xlink="http://www.w3.org/1999/xlink" y="50"><style>.a{fill:rgb(40,45,53)}.b{fill:#ff5f58}.c{fill:#ffbd2e}.d{fill:#18c132}.e{font-family:Monaco,Consolas,Menlo,'Bitstream Vera Sans Mono','Powerline Symbols',monospace}.f{fill:rgb(111,119,131)}.g{fill:rgb(185,192,203);white-space:pre}.h{fill:rgb(255,255,255);font-weight:bold;white-space:pre}.i{fill:transparent}.j{fill:rgb(111,118,131)}.l{animation-duration:8.257301s;animation-iteration-count:infinite;animation-name:k;animation-timing-function:steps(1,end)}@keyframes k{0%{transform:translateX(-0px)}15.2%{transform:translateX(-80px)}39.4%{transform:translateX(-160px)}39.4%{transform:translateX(-240px)}100%{transform:translateX(-320px)}}</style><g font-family="Monaco, Consolas, Menlo, &#x27;Bitstream Vera Sans Mono&#x27;, &#x27;Powerline Symbols&#x27;, monospace" font-size="1.67" class="e"><defs><symbol id="1"><rect height="2.171" width="42" x="0" y="0" class="f"></rect><text x="0" y="1.67" class="g">                                          </text></symbol><symbol id="2"><rect height="2.171" width="42" x="0" y="0" class="f"></rect><text x="0" y="1.67" class="h">     This is the default header style     </text></symbol><symbol id="3"><text x="0" y="1.67" class="g">panic:</text><text x="7.013999999999999" y="1.67" class="g">runtime</text><text x="15.029999999999998" y="1.67" class="g">error:</text><text x="22.043999999999997" y="1.67" class="g">index</text><text x="28.055999999999997" y="1.67" class="g">out</text><text x="32.064" y="1.67" class="g">of</text><text x="35.06999999999999" y="1.67" class="g">range</text><text x="41.082" y="1.67" class="g">[0]</text><text x="45.089999999999996" y="1.67" class="g">with</text><text x="50.1" y="1.67" class="g">length</text><text x="57.114" y="1.67" class="g">0</text></symbol><symbol id="4"><text x="0" y="1.67" class="g">goroutine</text><text x="10.02" y="1.67" class="g">1</text><text x="12.024" y="1.67" class="g">[running]:</text></symbol><symbol id="5"><text x="0" y="1.67" class="g">github.com/pterm/pterm.HeaderPrinter.WithFullWidth(...)</text></symbol><symbol id="6"><text x="8.016" y="1.67" class="g">/github/workspace/header_printer.go:44</text></symbol><symbol id="7"><text x="0" y="1.67" class="g">main.main()</text></symbol><symbol id="8"><text x="8.016" y="1.67" class="g">/github/workspace/_examples/print-header/main.go:18</text><text x="60.11999999999999" y="1.67" class="g">+0xdb</text></symbol><symbol id="9"><text x="0" y="1.67" class="g">exit</text><text x="5.01" y="1.67" class="g">status</text><text x="12.024" y="1.67" class="g">2</text></symbol><symbol id="a"><rect height="24" width="80" x="0" y="0" class="i"></rect></symbol><symbol id="b"><rect height="2.171" width="1.1022" class="j"></rect></symbol></defs><rect height="52.104" width="80" class="a"></rect><g class="l"><svg x="0" y="0" width="400"><svg x="0"><use xlink:href="#a"></use><use xlink:href="#b" x="-0.0040000000000000036" y="0"></use></svg><svg x="80"><use xlink:href="#a"></use><use xlink:href="#b" x="-0.0040000000000000036" y="8.658999999999999"></use><use xlink:href="#1" y="0"></use><use xlink:href="#2" y="2.171"></use><use xlink:href="#1" y="4.342"></use></svg><svg x="160"><use xlink:href="#a"></use><use xlink:href="#b" x="-0.0040000000000000036" y="23.855999999999998"></use><use xlink:href="#1" y="0"></use><use xlink:href="#2" y="2.171"></use><use xlink:href="#1" y="4.342"></use><use xlink:href="#3" y="8.684"></use><use xlink:href="#4" y="13.026"></use><use xlink:href="#5" y="15.197"></use><use xlink:href="#6" y="17.368"></use><use xlink:href="#7" y="19.539"></use><use xlink:href="#8" y="21.71"></use></svg><svg x="240"><use xlink:href="#a"></use><use xlink:href="#b" x="-0.0040000000000000036" y="26.027"></use><use xlink:href="#1" y="0"></use><use xlink:href="#2" y="2.171"></use><use xlink:href="#1" y="4.342"></use><use xlink:href="#3" y="8.684"></use><use xlink:href="#4" y="13.026"></use><use xlink:href="#5" y="15.197"></use><use xlink:href="#6" y="17.368"></use><use xlink:href="#7" y="19.539"></use><use xlink:href="#8" y="21.71"></use><use xlink:href="#9" y="23.880999999999997"></use></svg><svg x="320"><use xlink:href="#a"></use><use xlink:href="#b" x="-0.0040000000000000036" y="30.369"></use><use xlink:href="#1" y="0"></use><use xlink:href="#2" y="2.171"></use><use xlink:href="#1" y="4.342"></use><use xlink:href="#3" y="8.684"></use><use xlink:href="#4" y="13.026"></use><use xlink:href="#5" y="15.197"></use><use xlink:href="#6" y="17.368"></use><use xlink:href="#7" y="19.539"></use><use xlink:href="#8" y="21.71"></use><use xlink:href="#9" y="23.880999999999997"></use><text x="0" y="29.893" class="g">restarting...</text></svg></svg></g></g></svg></svg>