<svg xmlns="http://www.w3.org/2000/svg" xmlns:xlink="http://www.w3.org/1999/xlink" width="840" height="581.04"><rect width="840" height="581.04" rx="5" ry="5" class="a"></rect><svg y="0%" x="0%"><circle cx="20" cy="20" r="6" class="b"></circle><circle cx="40" cy="20" r="6" class="c"></circle><circle cx="60" cy="20" r="6" class="d"></circle></svg><svg height="521.04" viewBox="0 0 80 52.104" width="800" x="15" xmlns="http://www.w3.org/2000/svg" xmlns:xlink="http://www.w3.org/1999/xlink" y="50"><style>.a{fill:rgb(40,45,53)}.b{fill:#ff5f58}.c{fill:#ffbd2e}.d{fill:#18c132}.e{font-family:Monaco,Consolas,Menlo,'Bitstream Vera Sans Mono','Powerline Symbols',monospace}.f{fill:rgb(111,119,131)}.g{fill:rgb(185,192,203);white-space:pre}.h{fill:rgb(255,255,255);font-weight:bold;white-space:pre}.i{fill:rgb(210,144,227)}.j{fill:rgb(111,119,131);white-space:pre}.k{fill:rgb(168,204,140)}.l{fill:rgb(232,131,136);white-space:pre}.m{fill:transparent}.n{fill:rgb(111,118,131)}.p{animation-duration:10.390115s;animation-iteration-count:infinite;animation-name:o;animation-timing-function:steps(1,end)}@keyframes o{0%{transform:translateX(-0px)}13.4%{transform:translateX(-80px)}32.6%{transform:translateX(-160px)}32.6%{transform:translateX(-240px)}51.9%{transform:translateX(-320px)}100%{transform:translateX(-400px)}}</style><g font-family="Monaco, Consolas, Menlo, &#x27;Bitstream Vera Sans Mono&#x27;, &#x27;Powerline Symbols&#x27;, monospace" font-size="1.67" class="e"><defs><symbol id="1"><rect height="2.171" width="42" x="0" y="0" class="f"></rect><text x="0" y="1.67" class="g">                                          </text></symbol><symbol id="2"><rect height="2.171" width="42" x="0" y="0" class="f"></rect><text x="0" y="1.67" class="h">     This is the default header style     </text></symbol><symbol id="3"><rect height="2.171" width="79" x="0" y="0" class="i"></rect><text x="0" y="1.67" class="g">                                                                               </text></symbol><symbol id="4"><rect height="2.171" width="79" x="0" y="0" class="i"></rect><text x="0" y="1.67" class="j">                                 Hello, World!                                 </text></symbol><symbol id="5"><rect height="2.171" width="54" x="0" y="0" class="k"></rect><text x="0" y="1.67" class="g">                                                      </text></symbol><symbol id="6"><rect height="2.171" width="54" x="0" y="0" class="k"></rect><text x="0" y="1.67" class="l">               This is a custom header.               </text></symbol><symbol id="a"><rect height="24" width="80" x="0" y="0" class="m"></rect></symbol><symbol id="b"><rect height="2.171" width="1.1022" class="n"></rect></symbol></defs><rect height="52.104" width="80" class="a"></rect><g class="p"><svg x="0" y="0" width="480"><svg x="0"><use xlink:href="#a"></use><use xlink:href="#b" x="-0.0040000000000000036" y="0"></use></svg><svg x="80"><use xlink:href="#a"></use><use xlink:href="#b" x="-0.0040000000000000036" y="8.658999999999999"></use><use xlink:href="#1" y="0"></use><use xlink:href="#2" y="2.171"></use><use xlink:href="#1" y="4.342"></use></svg><svg x="160"><use xlink:href="#a"></use><use xlink:href="#b" x="78.996" y="8.658999999999999"></use><use xlink:href="#1" y="0"></use><use xlink:href="#2" y="2.171"></use><use xlink:href="#1" y="4.342"></use><use xlink:href="#3" y="8.684"></use></svg><svg x="240"><use xlink:href="#a"></use><use xlink:href="#b" x="-0.0040000000000000036" y="17.343"></use><use xlink:href="#1" y="0"></use><use xlink:href="#2" y="2.171"></use><use xlink:href="#1" y="4.342"></use><use xlink:href="#3" y="8.684"></use><use xlink:href="#4" y="10.855"></use><use xlink:href="#3" y="13.026"></use></svg><svg x="320"><use xlink:href="#a"></use><use xlink:href="#b" x="-0.0040000000000000036" y="26.027"></use><use xlink:href="#1" y="0"></use><use xlink:href="#2" y="2.171"></use><use xlink:href="#1" y="4.342"></use><use xlink:href="#3" y="8.684"></use><use xlink:href="#4" y="10.855"></use><use xlink:href="#3" y="13.026"></use><use xlink:href="#5" y="17.368"></use><use xlink:href="#6" y="19.539"></use><use xlink:href="#5" y="21.71"></use></svg><svg x="400"><use xlink:href="#a"></use><use xlink:href="#b" x="-0.0040000000000000036" y="30.369"></use><use xlink:href="#1" y="0"></use><use xlink:href="#2" y="2.171"></use><use xlink:href="#1" y="4.342"></use><use xlink:href="#3" y="8.684"></use><use xlink:href="#4" y="10.855"></use><use xlink:href="#3" y="13.026"></use><use xlink:href="#5" y="17.368"></use><use xlink:href="#6" y="19.539"></use><use xlink:href="#5" y="21.71"></use><text x="0" y="29.893" class="g">restarting...</text></svg></svg></g></g></svg></svg>