<svg xmlns="http://www.w3.org/2000/svg" xmlns:xlink="http://www.w3.org/1999/xlink" width="800" height="521.04"><rect width="800" height="521.04" rx="0" ry="0" class="a"/><svg height="521.04" viewBox="0 0 80 52.104" width="800" xmlns="http://www.w3.org/2000/svg" xmlns:xlink="http://www.w3.org/1999/xlink"><style>@keyframes i{0%{transform:translateX(0)}3.9%{transform:translateX(-80px)}4%{transform:translateX(-160px)}to{transform:translateX(-240px)}}.a{fill:#282d35}.e{fill:#e88388;white-space:pre}</style><g font-family="Monaco,Consolas,Menlo,'Bitstream Vera Sans Mono','Powerline Symbols',monospace" font-size="1.67"><defs><symbol id="1"><path fill="#e88388" d="M0 0h7v2.171H0z"/><text y="1.67" style="white-space:pre" fill="#fff">ERROR</text><text x="8.016" y="1.67" class="e">This</text><text x="13.026" y="1.67" class="e">is</text><text x="16.032" y="1.67" class="e">the</text><text x="20.04" y="1.67" class="e">default</text><text x="28.056" y="1.67" class="e">ErrorPrinter</text></symbol><symbol id="2"><path fill="#66c2cd" d="M0 0h10v2.171H0z"/><text y="1.67" class="e">OVERRIDE</text><text x="11.022" y="1.67" class="e">This</text><text x="16.032" y="1.67" class="e">is</text><text x="19.038" y="1.67" class="e">the</text><text x="23.046" y="1.67" class="e">default</text><text x="31.062" y="1.67" class="e">ErrorPrinter</text><text x="44.088" y="1.67" class="e">after</text><text x="50.1" y="1.67" class="e">the</text><text x="54.108" y="1.67" class="e">prefix</text><text x="61.122" y="1.67" class="e">was</text><text x="65.13" y="1.67" class="e">overridden</text></symbol><symbol id="a"><path fill="transparent" d="M0 0h80v24H0z"/></symbol><symbol id="b"><path fill="#6f7683" d="M0 0h1.102v2.171H0z"/></symbol></defs><path class="a" d="M0 0h80v52.104H0z"/><g style="animation-duration:5s;animation-iteration-count:infinite;animation-name:i;animation-timing-function:steps(1,end)"><svg width="320"><svg><use xlink:href="#a"/><use xlink:href="#b" x="-.004"/></svg><svg x="80"><use xlink:href="#a"/><use xlink:href="#b" x="-.004" y="2.146"/><use xlink:href="#1"/></svg><svg x="160"><use xlink:href="#a"/><use xlink:href="#b" x="-.004" y="4.317"/><use xlink:href="#1"/><use xlink:href="#2" y="2.171"/></svg><svg x="240"><use xlink:href="#a"/><use xlink:href="#b" x="-.004" y="8.659"/><use xlink:href="#1"/><use xlink:href="#2" y="2.171"/><text y="8.183" style="white-space:pre" fill="#b9c0cb">restarting...</text></svg></svg></g></g></svg></svg>