<svg xmlns="http://www.w3.org/2000/svg" xmlns:xlink="http://www.w3.org/1999/xlink" width="2360" height="320.52"><rect width="2360" height="320.52" rx="5" ry="5" class="a"></rect><svg y="0%" x="0%"><circle cx="20" cy="20" r="6" class="b"></circle><circle cx="40" cy="20" r="6" class="c"></circle><circle cx="60" cy="20" r="6" class="d"></circle></svg><svg height="260.52" viewBox="0 0 232 26.052" width="2320" x="15" xmlns="http://www.w3.org/2000/svg" xmlns:xlink="http://www.w3.org/1999/xlink" y="50"><style>.a{fill:rgb(35,35,35)}.b{fill:#ff5f58}.c{fill:#ffbd2e}.d{fill:#18c132}.e{font-family:Monaco,Consolas,Menlo,'Bitstream Vera Sans Mono','Powerline Symbols',monospace}.f{fill:rgb(232,131,136)}.g{white-space:pre}.h{fill:rgb(243,86,86);white-space:pre}.i{fill:rgb(102,194,205)}.j{fill:rgb(255,0,4);white-space:pre}.k{fill:transparent}.l{fill:rgb(160,160,160)}.n{animation-duration:5.668705s;animation-iteration-count:infinite;animation-name:m;animation-timing-function:steps(1,end)}.o{fill:rgb(160,160,160);white-space:pre}@keyframes m{0%{transform:translateX(-0px)}11.8%{transform:translateX(-232px)}100%{transform:translateX(-464px)}}</style><g font-family="Monaco, Consolas, Menlo, &#x27;Bitstream Vera Sans Mono&#x27;, &#x27;Powerline Symbols&#x27;, monospace" font-size="1.67" class="e"><defs><symbol id="1"><rect height="2.171" width="7" x="0" y="0" class="f"></rect><text x="0" y="1.67" class="g"> ERROR </text><text x="8.016" y="1.67" class="h">This</text><text x="13.026" y="1.67" class="h">is</text><text x="16.032" y="1.67" class="h">the</text><text x="20.04" y="1.67" class="h">default</text><text x="28.055999999999997" y="1.67" class="h">Error</text></symbol><symbol id="2"><rect height="2.171" width="10" x="0" y="0" class="i"></rect><text x="0" y="1.67" class="j"> OVERRIDE </text><text x="11.021999999999998" y="1.67" class="h">This</text><text x="16.032" y="1.67" class="h">is</text><text x="19.037999999999997" y="1.67" class="h">the</text><text x="23.045999999999996" y="1.67" class="h">default</text><text x="31.061999999999998" y="1.67" class="h">Error</text><text x="37.074" y="1.67" class="h">after</text><text x="43.086" y="1.67" class="h">the</text><text x="47.093999999999994" y="1.67" class="h">prefix</text><text x="54.108" y="1.67" class="h">was</text><text x="58.116" y="1.67" class="h">overridden</text></symbol><symbol id="a"><rect height="12" width="232" x="0" y="0" class="k"></rect></symbol><symbol id="b"><rect height="2.171" width="1.1022" class="l"></rect></symbol></defs><rect height="26.052" width="232" class="a"></rect><g class="n"><svg x="0" y="0" width="696"><svg x="0"><use xlink:href="#a"></use><use xlink:href="#b" x="-0.0040000000000000036" y="0"></use></svg><svg x="232"><use xlink:href="#a"></use><use xlink:href="#b" x="-0.0040000000000000036" y="4.317"></use><use xlink:href="#1" y="0"></use><use xlink:href="#2" y="2.171"></use></svg><svg x="464"><use xlink:href="#a"></use><use xlink:href="#b" x="-0.0040000000000000036" y="8.658999999999999"></use><use xlink:href="#1" y="0"></use><use xlink:href="#2" y="2.171"></use><text x="0" y="8.183" class="o">restarting...</text></svg></svg></g></g></svg></svg>