<svg xmlns="http://www.w3.org/2000/svg" xmlns:xlink="http://www.w3.org/1999/xlink" width="840" height="581.04"><rect width="840" height="581.04" rx="5" ry="5" class="a"></rect><svg y="0%" x="0%"><circle cx="20" cy="20" r="6" class="b"></circle><circle cx="40" cy="20" r="6" class="c"></circle><circle cx="60" cy="20" r="6" class="d"></circle></svg><svg height="521.04" viewBox="0 0 80 52.104" width="800" x="15" xmlns="http://www.w3.org/2000/svg" xmlns:xlink="http://www.w3.org/1999/xlink" y="50"><style>.a{fill:rgb(35,35,35)}.b{fill:#ff5f58}.c{fill:#ffbd2e}.d{fill:#18c132}.e{font-family:Monaco,Consolas,Menlo,'Bitstream Vera Sans Mono','Powerline Symbols',monospace}.f{fill:rgb(160,160,160);white-space:pre}.g{fill:transparent}.i{animation-duration:6.301088s;animation-iteration-count:infinite;animation-name:h;animation-timing-function:steps(1,end)}@keyframes h{0%{transform:translateX(-0px)}20.6%{transform:translateX(-80px)}100%{transform:translateX(-160px)}}</style><g font-family="Monaco, Consolas, Menlo, &#x27;Bitstream Vera Sans Mono&#x27;, &#x27;Powerline Symbols&#x27;, monospace" font-size="1.67" class="e"><defs><symbol id="1"><text x="0" y="1.67" class="f">#</text><text x="2.004" y="1.67" class="f">github.com/pterm/pterm/_examples/override-default-printer</text></symbol><symbol id="2"><text x="0" y="1.67" class="f">_examples/override-default-printer/main.go:10:3:</text><text x="49.098" y="1.67" class="f">cannot</text><text x="56.111999999999995" y="1.67" class="f">use</text><text x="60.11999999999999" y="1.67" class="f">pterm.Style</text><text x="72.14399999999999" y="1.67" class="f">literal</text></symbol><symbol id="3"><text x="0" y="1.67" class="f">(type</text><text x="6.012" y="1.67" class="f">pterm.Style)</text><text x="19.037999999999997" y="1.67" class="f">as</text><text x="22.043999999999997" y="1.67" class="f">type</text><text x="27.054" y="1.67" class="f">*pterm.Style</text><text x="40.08" y="1.67" class="f">in</text><text x="43.086" y="1.67" class="f">field</text><text x="49.098" y="1.67" class="f">value</text></symbol><symbol id="4"><text x="0" y="1.67" class="f">note:</text><text x="6.012" y="1.67" class="f">module</text><text x="13.026" y="1.67" class="f">requires</text><text x="22.043999999999997" y="1.67" class="f">Go</text><text x="25.05" y="1.67" class="f">1.15</text></symbol><symbol id="a"><rect height="24" width="80" x="0" y="0" class="g"></rect></symbol></defs><rect height="52.104" width="80" class="a"></rect><g class="i"><svg x="0" y="0" width="240"><svg x="0"><use xlink:href="#a"></use></svg><svg x="80"><use xlink:href="#a"></use><use xlink:href="#1" y="0"></use><use xlink:href="#2" y="2.171"></use><use xlink:href="#3" y="4.342"></use><use xlink:href="#4" y="6.513"></use></svg><svg x="160"><use xlink:href="#a"></use><use xlink:href="#1" y="0"></use><use xlink:href="#2" y="2.171"></use><use xlink:href="#3" y="4.342"></use><use xlink:href="#4" y="6.513"></use><text x="0" y="12.525" class="f">restarting...</text></svg></svg></g></g></svg></svg>