<svg xmlns="http://www.w3.org/2000/svg" xmlns:xlink="http://www.w3.org/1999/xlink" width="3160" height="363.94"><rect width="3160" height="363.94" rx="5" ry="5" class="a"></rect><svg y="0%" x="0%"><circle cx="20" cy="20" r="6" class="b"></circle><circle cx="40" cy="20" r="6" class="c"></circle><circle cx="60" cy="20" r="6" class="d"></circle></svg><svg height="303.94" viewBox="0 0 312 30.394" width="3120" x="15" xmlns="http://www.w3.org/2000/svg" xmlns:xlink="http://www.w3.org/1999/xlink" y="50"><style>@font-face{
  font-family: 'JetBrainsMono';
  src: url('https://cdn.jsdelivr.net/gh/JetBrains/JetBrainsMono/web/woff2/JetBrainsMono-Regular.woff2') format('woff2'),
    url('https://cdn.jsdelivr.net/gh/JetBrains/JetBrainsMono/web/woff/JetBrainsMono-Regular.woff') format('woff'),
    url('https://cdn.jsdelivr.net/gh/JetBrains/JetBrainsMono/ttf/JetBrainsMono-Regular.ttf') format('truetype');
  font-weight: 400;
  font-style: normal;
}.a{fill:rgb(35,35,35)}.b{fill:#ff5f58}.c{fill:#ffbd2e}.d{fill:#18c132}.e{font-family:Consolas,Monaco,Consolas,Menlo,'Bitstream Vera Sans Mono','Powerline Symbols',monospace}.f{fill:rgb(126,231,233);white-space:pre}.g{fill:rgb(255,255,255);white-space:pre}.h{fill:rgb(168,204,140)}.i{white-space:pre}.j{fill:rgb(124,255,0);white-space:pre}.k{fill:rgb(219,171,121)}.l{fill:rgb(255,241,0);white-space:pre}.m{fill:rgb(232,131,136)}.n{fill:rgb(243,86,86);white-space:pre}.o{fill:transparent}.q{animation-duration:20.587599s;animation-iteration-count:infinite;animation-name:p;animation-timing-function:steps(1,end)}.r{fill:rgb(160,160,160);white-space:pre}@keyframes p{0%{transform:translateX(-0px)}2.83%{transform:translateX(-312px)}3.81%{transform:translateX(-624px)}4.78%{transform:translateX(-936px)}5.76%{transform:translateX(-1248px)}6.73%{transform:translateX(-1560px)}7.71%{transform:translateX(-1872px)}8.68%{transform:translateX(-2184px)}9.66%{transform:translateX(-2496px)}10.64%{transform:translateX(-2808px)}11.61%{transform:translateX(-3120px)}12.59%{transform:translateX(-3432px)}13.56%{transform:translateX(-3744px)}14.54%{transform:translateX(-4056px)}15.52%{transform:translateX(-4368px)}16.49%{transform:translateX(-4680px)}17.41%{transform:translateX(-4992px)}17.41%{transform:translateX(-5304px)}18.38%{transform:translateX(-5616px)}19.36%{transform:translateX(-5928px)}20.34%{transform:translateX(-6240px)}21.31%{transform:translateX(-6552px)}22.29%{transform:translateX(-6864px)}23.27%{transform:translateX(-7176px)}24.24%{transform:translateX(-7488px)}25.22%{transform:translateX(-7800px)}26.19%{transform:translateX(-8112px)}27.17%{transform:translateX(-8424px)}28.15%{transform:translateX(-8736px)}29.12%{transform:translateX(-9048px)}30.1%{transform:translateX(-9360px)}31.08%{transform:translateX(-9672px)}31.99%{transform:translateX(-9984px)}31.99%{transform:translateX(-10296px)}32.96%{transform:translateX(-10608px)}33.94%{transform:translateX(-10920px)}34.91%{transform:translateX(-11232px)}35.89%{transform:translateX(-11544px)}36.87%{transform:translateX(-11856px)}37.84%{transform:translateX(-12168px)}38.82%{transform:translateX(-12480px)}39.79%{transform:translateX(-12792px)}40.77%{transform:translateX(-13104px)}41.74%{transform:translateX(-13416px)}42.72%{transform:translateX(-13728px)}43.69%{transform:translateX(-14040px)}44.66%{transform:translateX(-14352px)}45.64%{transform:translateX(-14664px)}46.56%{transform:translateX(-14976px)}46.56%{transform:translateX(-15288px)}47.54%{transform:translateX(-15600px)}48.51%{transform:translateX(-15912px)}49.49%{transform:translateX(-16224px)}50.47%{transform:translateX(-16536px)}51.44%{transform:translateX(-16848px)}52.42%{transform:translateX(-17160px)}53.4%{transform:translateX(-17472px)}54.37%{transform:translateX(-17784px)}55.35%{transform:translateX(-18096px)}56.28%{transform:translateX(-18408px)}56.33%{transform:translateX(-18720px)}57.3%{transform:translateX(-19032px)}58.28%{transform:translateX(-19344px)}59.26%{transform:translateX(-19656px)}60.23%{transform:translateX(-19968px)}61.21%{transform:translateX(-20280px)}62.19%{transform:translateX(-20592px)}63.16%{transform:translateX(-20904px)}64.14%{transform:translateX(-21216px)}65.11%{transform:translateX(-21528px)}66%{transform:translateX(-21840px)}66.09%{transform:translateX(-22152px)}67.07%{transform:translateX(-22464px)}68.05%{transform:translateX(-22776px)}69.02%{transform:translateX(-23088px)}70%{transform:translateX(-23400px)}70.97%{transform:translateX(-23712px)}71.95%{transform:translateX(-24024px)}72.93%{transform:translateX(-24336px)}73.9%{transform:translateX(-24648px)}74.88%{transform:translateX(-24960px)}75.71%{transform:translateX(-25272px)}75.71%{transform:translateX(-25584px)}100%{transform:translateX(-25896px)}}</style><g font-family="Consolas,Monaco, Consolas, Menlo, &#x27;Bitstream Vera Sans Mono&#x27;, &#x27;Powerline Symbols&#x27;, monospace" font-size="1.67" class="e"><defs><symbol id="1"><text x="0" y="1.67" class="f">▀</text><text x="3.006" y="1.67" class="g">Doing</text><text x="9.017999999999999" y="1.67" class="g">something</text><text x="19.037999999999997" y="1.67" class="g">important...</text><text x="32.064" y="1.67" class="g">(will</text><text x="38.07599999999999" y="1.67" class="g">succeed)</text></symbol><symbol id="2"><text x="1.002" y="1.67" class="f">▀</text><text x="3.006" y="1.67" class="g">Doing</text><text x="9.017999999999999" y="1.67" class="g">something</text><text x="19.037999999999997" y="1.67" class="g">important...</text><text x="32.064" y="1.67" class="g">(will</text><text x="38.07599999999999" y="1.67" class="g">succeed)</text></symbol><symbol id="3"><text x="1.002" y="1.67" class="f">▄</text><text x="3.006" y="1.67" class="g">Doing</text><text x="9.017999999999999" y="1.67" class="g">something</text><text x="19.037999999999997" y="1.67" class="g">important...</text><text x="32.064" y="1.67" class="g">(will</text><text x="38.07599999999999" y="1.67" class="g">succeed)</text></symbol><symbol id="4"><text x="0" y="1.67" class="f">▄</text><text x="3.006" y="1.67" class="g">Doing</text><text x="9.017999999999999" y="1.67" class="g">something</text><text x="19.037999999999997" y="1.67" class="g">important...</text><text x="32.064" y="1.67" class="g">(will</text><text x="38.07599999999999" y="1.67" class="g">succeed)</text></symbol><symbol id="5"><rect height="2.171" width="9" x="0" y="0" class="h"></rect><text x="0" y="1.67" class="i"> SUCCESS </text><text x="10.02" y="1.67" class="j">Doing</text><text x="16.032" y="1.67" class="j">something</text><text x="26.052" y="1.67" class="j">important...</text><text x="39.077999999999996" y="1.67" class="j">(will</text><text x="45.089999999999996" y="1.67" class="j">succeed)</text></symbol><symbol id="6"><text x="0" y="1.67" class="f">▀</text><text x="3.006" y="1.67" class="g">Doing</text><text x="9.017999999999999" y="1.67" class="g">something</text><text x="19.037999999999997" y="1.67" class="g">important...</text><text x="32.064" y="1.67" class="g">(will</text><text x="38.07599999999999" y="1.67" class="g">warn)</text></symbol><symbol id="7"><text x="1.002" y="1.67" class="f">▀</text><text x="3.006" y="1.67" class="g">Doing</text><text x="9.017999999999999" y="1.67" class="g">something</text><text x="19.037999999999997" y="1.67" class="g">important...</text><text x="32.064" y="1.67" class="g">(will</text><text x="38.07599999999999" y="1.67" class="g">warn)</text></symbol><symbol id="8"><text x="1.002" y="1.67" class="f">▄</text><text x="3.006" y="1.67" class="g">Doing</text><text x="9.017999999999999" y="1.67" class="g">something</text><text x="19.037999999999997" y="1.67" class="g">important...</text><text x="32.064" y="1.67" class="g">(will</text><text x="38.07599999999999" y="1.67" class="g">warn)</text></symbol><symbol id="9"><text x="0" y="1.67" class="f">▄</text><text x="3.006" y="1.67" class="g">Doing</text><text x="9.017999999999999" y="1.67" class="g">something</text><text x="19.037999999999997" y="1.67" class="g">important...</text><text x="32.064" y="1.67" class="g">(will</text><text x="38.07599999999999" y="1.67" class="g">warn)</text></symbol><symbol id="10"><rect height="2.171" width="9" x="0" y="0" class="k"></rect><text x="0" y="1.67" class="i"> WARNING </text><text x="10.02" y="1.67" class="l">Doing</text><text x="16.032" y="1.67" class="l">something</text><text x="26.052" y="1.67" class="l">important...</text><text x="39.077999999999996" y="1.67" class="l">(will</text><text x="45.089999999999996" y="1.67" class="l">warn)</text></symbol><symbol id="11"><text x="0" y="1.67" class="f">▀</text><text x="3.006" y="1.67" class="g">Doing</text><text x="9.017999999999999" y="1.67" class="g">something</text><text x="19.037999999999997" y="1.67" class="g">important...</text><text x="32.064" y="1.67" class="g">(will</text><text x="38.07599999999999" y="1.67" class="g">fail)</text></symbol><symbol id="12"><text x="1.002" y="1.67" class="f">▀</text><text x="3.006" y="1.67" class="g">Doing</text><text x="9.017999999999999" y="1.67" class="g">something</text><text x="19.037999999999997" y="1.67" class="g">important...</text><text x="32.064" y="1.67" class="g">(will</text><text x="38.07599999999999" y="1.67" class="g">fail)</text></symbol><symbol id="13"><text x="1.002" y="1.67" class="f">▄</text><text x="3.006" y="1.67" class="g">Doing</text><text x="9.017999999999999" y="1.67" class="g">something</text><text x="19.037999999999997" y="1.67" class="g">important...</text><text x="32.064" y="1.67" class="g">(will</text><text x="38.07599999999999" y="1.67" class="g">fail)</text></symbol><symbol id="14"><text x="0" y="1.67" class="f">▄</text><text x="3.006" y="1.67" class="g">Doing</text><text x="9.017999999999999" y="1.67" class="g">something</text><text x="19.037999999999997" y="1.67" class="g">important...</text><text x="32.064" y="1.67" class="g">(will</text><text x="38.07599999999999" y="1.67" class="g">fail)</text></symbol><symbol id="15"><rect height="2.171" width="9" x="0" y="0" class="m"></rect><text x="0" y="1.67" class="i">  ERROR  </text><text x="10.02" y="1.67" class="n">Doing</text><text x="16.032" y="1.67" class="n">something</text><text x="26.052" y="1.67" class="n">important...</text><text x="39.077999999999996" y="1.67" class="n">(will</text><text x="45.089999999999996" y="1.67" class="n">fail)</text></symbol><symbol id="16"><text x="0" y="1.67" class="f">▀</text><text x="3.006" y="1.67" class="g">Doing</text><text x="9.017999999999999" y="1.67" class="g">a</text><text x="11.021999999999998" y="1.67" class="g">lot</text><text x="15.029999999999998" y="1.67" class="g">of</text><text x="18.035999999999998" y="1.67" class="g">stuff...</text></symbol><symbol id="17"><text x="1.002" y="1.67" class="f">▀</text><text x="3.006" y="1.67" class="g">Doing</text><text x="9.017999999999999" y="1.67" class="g">a</text><text x="11.021999999999998" y="1.67" class="g">lot</text><text x="15.029999999999998" y="1.67" class="g">of</text><text x="18.035999999999998" y="1.67" class="g">stuff...</text></symbol><symbol id="18"><text x="1.002" y="1.67" class="f">▄</text><text x="3.006" y="1.67" class="g">Doing</text><text x="9.017999999999999" y="1.67" class="g">a</text><text x="11.021999999999998" y="1.67" class="g">lot</text><text x="15.029999999999998" y="1.67" class="g">of</text><text x="18.035999999999998" y="1.67" class="g">stuff...</text></symbol><symbol id="19"><text x="0" y="1.67" class="f">▄</text><text x="3.006" y="1.67" class="g">Doing</text><text x="9.017999999999999" y="1.67" class="g">a</text><text x="11.021999999999998" y="1.67" class="g">lot</text><text x="15.029999999999998" y="1.67" class="g">of</text><text x="18.035999999999998" y="1.67" class="g">stuff...</text></symbol><symbol id="20"><text x="1.002" y="1.67" class="f">▄</text><text x="3.006" y="1.67" class="g">It&#x27;s</text><text x="8.016" y="1.67" class="g">really</text><text x="15.029999999999998" y="1.67" class="g">much</text></symbol><symbol id="21"><text x="0" y="1.67" class="f">▄</text><text x="3.006" y="1.67" class="g">It&#x27;s</text><text x="8.016" y="1.67" class="g">really</text><text x="15.029999999999998" y="1.67" class="g">much</text></symbol><symbol id="22"><text x="0" y="1.67" class="f">▀</text><text x="3.006" y="1.67" class="g">It&#x27;s</text><text x="8.016" y="1.67" class="g">really</text><text x="15.029999999999998" y="1.67" class="g">much</text></symbol><symbol id="23"><text x="1.002" y="1.67" class="f">▀</text><text x="3.006" y="1.67" class="g">It&#x27;s</text><text x="8.016" y="1.67" class="g">really</text><text x="15.029999999999998" y="1.67" class="g">much</text></symbol><symbol id="24"><text x="0" y="1.67" class="f">▀</text><text x="3.006" y="1.67" class="g">We&#x27;re</text><text x="9.017999999999999" y="1.67" class="g">nearly</text><text x="16.032" y="1.67" class="g">done!</text></symbol><symbol id="25"><text x="1.002" y="1.67" class="f">▀</text><text x="3.006" y="1.67" class="g">We&#x27;re</text><text x="9.017999999999999" y="1.67" class="g">nearly</text><text x="16.032" y="1.67" class="g">done!</text></symbol><symbol id="26"><text x="1.002" y="1.67" class="f">▄</text><text x="3.006" y="1.67" class="g">We&#x27;re</text><text x="9.017999999999999" y="1.67" class="g">nearly</text><text x="16.032" y="1.67" class="g">done!</text></symbol><symbol id="27"><text x="0" y="1.67" class="f">▄</text><text x="3.006" y="1.67" class="g">We&#x27;re</text><text x="9.017999999999999" y="1.67" class="g">nearly</text><text x="16.032" y="1.67" class="g">done!</text></symbol><symbol id="28"><rect height="2.171" width="9" x="0" y="0" class="h"></rect><text x="0" y="1.67" class="i"> SUCCESS </text><text x="10.02" y="1.67" class="j">Finally!</text></symbol><symbol id="a"><rect height="14" width="312" x="0" y="0" class="o"></rect></symbol></defs><rect height="30.394" width="312" class="a"></rect><g class="q"><svg x="0" y="0" width="26208"><svg x="0"><use xlink:href="#a"></use></svg><svg x="312"><use xlink:href="#a"></use><use xlink:href="#1" y="0"></use></svg><svg x="624"><use xlink:href="#a"></use><use xlink:href="#2" y="0"></use></svg><svg x="936"><use xlink:href="#a"></use><use xlink:href="#3" y="0"></use></svg><svg x="1248"><use xlink:href="#a"></use><use xlink:href="#4" y="0"></use></svg><svg x="1560"><use xlink:href="#a"></use><use xlink:href="#1" y="0"></use></svg><svg x="1872"><use xlink:href="#a"></use><use xlink:href="#2" y="0"></use></svg><svg x="2184"><use xlink:href="#a"></use><use xlink:href="#3" y="0"></use></svg><svg x="2496"><use xlink:href="#a"></use><use xlink:href="#4" y="0"></use></svg><svg x="2808"><use xlink:href="#a"></use><use xlink:href="#1" y="0"></use></svg><svg x="3120"><use xlink:href="#a"></use><use xlink:href="#2" y="0"></use></svg><svg x="3432"><use xlink:href="#a"></use><use xlink:href="#3" y="0"></use></svg><svg x="3744"><use xlink:href="#a"></use><use xlink:href="#4" y="0"></use></svg><svg x="4056"><use xlink:href="#a"></use><use xlink:href="#1" y="0"></use></svg><svg x="4368"><use xlink:href="#a"></use><use xlink:href="#2" y="0"></use></svg><svg x="4680"><use xlink:href="#a"></use><use xlink:href="#3" y="0"></use></svg><svg x="4992"><use xlink:href="#a"></use></svg><svg x="5304"><use xlink:href="#a"></use><use xlink:href="#5" y="0"></use><use xlink:href="#6" y="2.171"></use></svg><svg x="5616"><use xlink:href="#a"></use><use xlink:href="#5" y="0"></use><use xlink:href="#7" y="2.171"></use></svg><svg x="5928"><use xlink:href="#a"></use><use xlink:href="#5" y="0"></use><use xlink:href="#8" y="2.171"></use></svg><svg x="6240"><use xlink:href="#a"></use><use xlink:href="#5" y="0"></use><use xlink:href="#9" y="2.171"></use></svg><svg x="6552"><use xlink:href="#a"></use><use xlink:href="#5" y="0"></use><use xlink:href="#6" y="2.171"></use></svg><svg x="6864"><use xlink:href="#a"></use><use xlink:href="#5" y="0"></use><use xlink:href="#7" y="2.171"></use></svg><svg x="7176"><use xlink:href="#a"></use><use xlink:href="#5" y="0"></use><use xlink:href="#8" y="2.171"></use></svg><svg x="7488"><use xlink:href="#a"></use><use xlink:href="#5" y="0"></use><use xlink:href="#9" y="2.171"></use></svg><svg x="7800"><use xlink:href="#a"></use><use xlink:href="#5" y="0"></use><use xlink:href="#6" y="2.171"></use></svg><svg x="8112"><use xlink:href="#a"></use><use xlink:href="#5" y="0"></use><use xlink:href="#7" y="2.171"></use></svg><svg x="8424"><use xlink:href="#a"></use><use xlink:href="#5" y="0"></use><use xlink:href="#8" y="2.171"></use></svg><svg x="8736"><use xlink:href="#a"></use><use xlink:href="#5" y="0"></use><use xlink:href="#9" y="2.171"></use></svg><svg x="9048"><use xlink:href="#a"></use><use xlink:href="#5" y="0"></use><use xlink:href="#6" y="2.171"></use></svg><svg x="9360"><use xlink:href="#a"></use><use xlink:href="#5" y="0"></use><use xlink:href="#7" y="2.171"></use></svg><svg x="9672"><use xlink:href="#a"></use><use xlink:href="#5" y="0"></use><use xlink:href="#8" y="2.171"></use></svg><svg x="9984"><use xlink:href="#a"></use><use xlink:href="#5" y="0"></use><use xlink:href="#10" y="2.171"></use></svg><svg x="10296"><use xlink:href="#a"></use><use xlink:href="#5" y="0"></use><use xlink:href="#10" y="2.171"></use><use xlink:href="#11" y="4.342"></use></svg><svg x="10608"><use xlink:href="#a"></use><use xlink:href="#5" y="0"></use><use xlink:href="#10" y="2.171"></use><use xlink:href="#12" y="4.342"></use></svg><svg x="10920"><use xlink:href="#a"></use><use xlink:href="#5" y="0"></use><use xlink:href="#10" y="2.171"></use><use xlink:href="#13" y="4.342"></use></svg><svg x="11232"><use xlink:href="#a"></use><use xlink:href="#5" y="0"></use><use xlink:href="#10" y="2.171"></use><use xlink:href="#14" y="4.342"></use></svg><svg x="11544"><use xlink:href="#a"></use><use xlink:href="#5" y="0"></use><use xlink:href="#10" y="2.171"></use><use xlink:href="#11" y="4.342"></use></svg><svg x="11856"><use xlink:href="#a"></use><use xlink:href="#5" y="0"></use><use xlink:href="#10" y="2.171"></use><use xlink:href="#12" y="4.342"></use></svg><svg x="12168"><use xlink:href="#a"></use><use xlink:href="#5" y="0"></use><use xlink:href="#10" y="2.171"></use><use xlink:href="#13" y="4.342"></use></svg><svg x="12480"><use xlink:href="#a"></use><use xlink:href="#5" y="0"></use><use xlink:href="#10" y="2.171"></use><use xlink:href="#14" y="4.342"></use></svg><svg x="12792"><use xlink:href="#a"></use><use xlink:href="#5" y="0"></use><use xlink:href="#10" y="2.171"></use><use xlink:href="#11" y="4.342"></use></svg><svg x="13104"><use xlink:href="#a"></use><use xlink:href="#5" y="0"></use><use xlink:href="#10" y="2.171"></use><use xlink:href="#12" y="4.342"></use></svg><svg x="13416"><use xlink:href="#a"></use><use xlink:href="#5" y="0"></use><use xlink:href="#10" y="2.171"></use><use xlink:href="#13" y="4.342"></use></svg><svg x="13728"><use xlink:href="#a"></use><use xlink:href="#5" y="0"></use><use xlink:href="#10" y="2.171"></use><use xlink:href="#14" y="4.342"></use></svg><svg x="14040"><use xlink:href="#a"></use><use xlink:href="#5" y="0"></use><use xlink:href="#10" y="2.171"></use><use xlink:href="#11" y="4.342"></use></svg><svg x="14352"><use xlink:href="#a"></use><use xlink:href="#5" y="0"></use><use xlink:href="#10" y="2.171"></use><use xlink:href="#12" y="4.342"></use></svg><svg x="14664"><use xlink:href="#a"></use><use xlink:href="#5" y="0"></use><use xlink:href="#10" y="2.171"></use><use xlink:href="#13" y="4.342"></use></svg><svg x="14976"><use xlink:href="#a"></use><use xlink:href="#5" y="0"></use><use xlink:href="#10" y="2.171"></use><use xlink:href="#15" y="4.342"></use></svg><svg x="15288"><use xlink:href="#a"></use><use xlink:href="#5" y="0"></use><use xlink:href="#10" y="2.171"></use><use xlink:href="#15" y="4.342"></use><use xlink:href="#16" y="6.513"></use></svg><svg x="15600"><use xlink:href="#a"></use><use xlink:href="#5" y="0"></use><use xlink:href="#10" y="2.171"></use><use xlink:href="#15" y="4.342"></use><use xlink:href="#17" y="6.513"></use></svg><svg x="15912"><use xlink:href="#a"></use><use xlink:href="#5" y="0"></use><use xlink:href="#10" y="2.171"></use><use xlink:href="#15" y="4.342"></use><use xlink:href="#18" y="6.513"></use></svg><svg x="16224"><use xlink:href="#a"></use><use xlink:href="#5" y="0"></use><use xlink:href="#10" y="2.171"></use><use xlink:href="#15" y="4.342"></use><use xlink:href="#19" y="6.513"></use></svg><svg x="16536"><use xlink:href="#a"></use><use xlink:href="#5" y="0"></use><use xlink:href="#10" y="2.171"></use><use xlink:href="#15" y="4.342"></use><use xlink:href="#16" y="6.513"></use></svg><svg x="16848"><use xlink:href="#a"></use><use xlink:href="#5" y="0"></use><use xlink:href="#10" y="2.171"></use><use xlink:href="#15" y="4.342"></use><use xlink:href="#17" y="6.513"></use></svg><svg x="17160"><use xlink:href="#a"></use><use xlink:href="#5" y="0"></use><use xlink:href="#10" y="2.171"></use><use xlink:href="#15" y="4.342"></use><use xlink:href="#18" y="6.513"></use></svg><svg x="17472"><use xlink:href="#a"></use><use xlink:href="#5" y="0"></use><use xlink:href="#10" y="2.171"></use><use xlink:href="#15" y="4.342"></use><use xlink:href="#19" y="6.513"></use></svg><svg x="17784"><use xlink:href="#a"></use><use xlink:href="#5" y="0"></use><use xlink:href="#10" y="2.171"></use><use xlink:href="#15" y="4.342"></use><use xlink:href="#16" y="6.513"></use></svg><svg x="18096"><use xlink:href="#a"></use><use xlink:href="#5" y="0"></use><use xlink:href="#10" y="2.171"></use><use xlink:href="#15" y="4.342"></use><use xlink:href="#17" y="6.513"></use></svg><svg x="18408"><use xlink:href="#a"></use><use xlink:href="#5" y="0"></use><use xlink:href="#10" y="2.171"></use><use xlink:href="#15" y="4.342"></use></svg><svg x="18720"><use xlink:href="#a"></use><use xlink:href="#5" y="0"></use><use xlink:href="#10" y="2.171"></use><use xlink:href="#15" y="4.342"></use><use xlink:href="#20" y="6.513"></use></svg><svg x="19032"><use xlink:href="#a"></use><use xlink:href="#5" y="0"></use><use xlink:href="#10" y="2.171"></use><use xlink:href="#15" y="4.342"></use><use xlink:href="#21" y="6.513"></use></svg><svg x="19344"><use xlink:href="#a"></use><use xlink:href="#5" y="0"></use><use xlink:href="#10" y="2.171"></use><use xlink:href="#15" y="4.342"></use><use xlink:href="#22" y="6.513"></use></svg><svg x="19656"><use xlink:href="#a"></use><use xlink:href="#5" y="0"></use><use xlink:href="#10" y="2.171"></use><use xlink:href="#15" y="4.342"></use><use xlink:href="#23" y="6.513"></use></svg><svg x="19968"><use xlink:href="#a"></use><use xlink:href="#5" y="0"></use><use xlink:href="#10" y="2.171"></use><use xlink:href="#15" y="4.342"></use><use xlink:href="#20" y="6.513"></use></svg><svg x="20280"><use xlink:href="#a"></use><use xlink:href="#5" y="0"></use><use xlink:href="#10" y="2.171"></use><use xlink:href="#15" y="4.342"></use><use xlink:href="#21" y="6.513"></use></svg><svg x="20592"><use xlink:href="#a"></use><use xlink:href="#5" y="0"></use><use xlink:href="#10" y="2.171"></use><use xlink:href="#15" y="4.342"></use><use xlink:href="#22" y="6.513"></use></svg><svg x="20904"><use xlink:href="#a"></use><use xlink:href="#5" y="0"></use><use xlink:href="#10" y="2.171"></use><use xlink:href="#15" y="4.342"></use><use xlink:href="#23" y="6.513"></use></svg><svg x="21216"><use xlink:href="#a"></use><use xlink:href="#5" y="0"></use><use xlink:href="#10" y="2.171"></use><use xlink:href="#15" y="4.342"></use><use xlink:href="#20" y="6.513"></use></svg><svg x="21528"><use xlink:href="#a"></use><use xlink:href="#5" y="0"></use><use xlink:href="#10" y="2.171"></use><use xlink:href="#15" y="4.342"></use><use xlink:href="#21" y="6.513"></use></svg><svg x="21840"><use xlink:href="#a"></use><use xlink:href="#5" y="0"></use><use xlink:href="#10" y="2.171"></use><use xlink:href="#15" y="4.342"></use></svg><svg x="22152"><use xlink:href="#a"></use><use xlink:href="#5" y="0"></use><use xlink:href="#10" y="2.171"></use><use xlink:href="#15" y="4.342"></use><use xlink:href="#24" y="6.513"></use></svg><svg x="22464"><use xlink:href="#a"></use><use xlink:href="#5" y="0"></use><use xlink:href="#10" y="2.171"></use><use xlink:href="#15" y="4.342"></use><use xlink:href="#25" y="6.513"></use></svg><svg x="22776"><use xlink:href="#a"></use><use xlink:href="#5" y="0"></use><use xlink:href="#10" y="2.171"></use><use xlink:href="#15" y="4.342"></use><use xlink:href="#26" y="6.513"></use></svg><svg x="23088"><use xlink:href="#a"></use><use xlink:href="#5" y="0"></use><use xlink:href="#10" y="2.171"></use><use xlink:href="#15" y="4.342"></use><use xlink:href="#27" y="6.513"></use></svg><svg x="23400"><use xlink:href="#a"></use><use xlink:href="#5" y="0"></use><use xlink:href="#10" y="2.171"></use><use xlink:href="#15" y="4.342"></use><use xlink:href="#24" y="6.513"></use></svg><svg x="23712"><use xlink:href="#a"></use><use xlink:href="#5" y="0"></use><use xlink:href="#10" y="2.171"></use><use xlink:href="#15" y="4.342"></use><use xlink:href="#25" y="6.513"></use></svg><svg x="24024"><use xlink:href="#a"></use><use xlink:href="#5" y="0"></use><use xlink:href="#10" y="2.171"></use><use xlink:href="#15" y="4.342"></use><use xlink:href="#26" y="6.513"></use></svg><svg x="24336"><use xlink:href="#a"></use><use xlink:href="#5" y="0"></use><use xlink:href="#10" y="2.171"></use><use xlink:href="#15" y="4.342"></use><use xlink:href="#27" y="6.513"></use></svg><svg x="24648"><use xlink:href="#a"></use><use xlink:href="#5" y="0"></use><use xlink:href="#10" y="2.171"></use><use xlink:href="#15" y="4.342"></use><use xlink:href="#24" y="6.513"></use></svg><svg x="24960"><use xlink:href="#a"></use><use xlink:href="#5" y="0"></use><use xlink:href="#10" y="2.171"></use><use xlink:href="#15" y="4.342"></use><use xlink:href="#25" y="6.513"></use></svg><svg x="25272"><use xlink:href="#a"></use><use xlink:href="#5" y="0"></use><use xlink:href="#10" y="2.171"></use><use xlink:href="#15" y="4.342"></use><use xlink:href="#28" y="6.513"></use></svg><svg x="25584"><use xlink:href="#a"></use><use xlink:href="#5" y="0"></use><use xlink:href="#10" y="2.171"></use><use xlink:href="#15" y="4.342"></use><use xlink:href="#28" y="6.513"></use></svg><svg x="25896"><use xlink:href="#a"></use><use xlink:href="#5" y="0"></use><use xlink:href="#10" y="2.171"></use><use xlink:href="#15" y="4.342"></use><use xlink:href="#28" y="6.513"></use><text x="0" y="12.525" class="r">Restarting</text><text x="11.021999999999998" y="12.525" class="r">animation...</text></svg></svg></g></g></svg></svg>