<svg xmlns="http://www.w3.org/2000/svg" xmlns:xlink="http://www.w3.org/1999/xlink" width="840" height="581.04"><rect width="840" height="581.04" rx="5" ry="5" class="a"></rect><svg y="0%" x="0%"><circle cx="20" cy="20" r="6" class="b"></circle><circle cx="40" cy="20" r="6" class="c"></circle><circle cx="60" cy="20" r="6" class="d"></circle></svg><svg height="521.04" viewBox="0 0 80 52.104" width="800" x="15" xmlns="http://www.w3.org/2000/svg" xmlns:xlink="http://www.w3.org/1999/xlink" y="50"><style>.e, .g, .f {
	font-family:
			'Courier New'
			Roboto,
			Helvetica,
			Arial,
			sans-serif,
			'Apple Color Emoji',
			'Segoe UI Emoji' !important;
}.a{fill:rgb(35,35,35)}.b{fill:#ff5f58}.c{fill:#ffbd2e}.d{fill:#18c132}.e{font-family:'JetBrainsMono',Monaco,Consolas,Menlo,'Bitstream Vera Sans Mono','Powerline Symbols',monospace}.f{fill:rgb(126,231,233);white-space:pre}.g{fill:rgb(255,255,255);white-space:pre}.h{fill:rgb(104,104,104);white-space:pre}.i{fill:rgb(168,204,140)}.j{white-space:pre}.k{fill:rgb(124,255,0);white-space:pre}.l{fill:rgb(219,171,121)}.m{fill:rgb(255,241,0);white-space:pre}.n{fill:rgb(232,131,136)}.o{fill:rgb(243,86,86);white-space:pre}.p{fill:transparent}.r{animation-duration:14.252851s;animation-iteration-count:infinite;animation-name:q;animation-timing-function:steps(1,end)}.s{fill:rgb(160,160,160);white-space:pre}@keyframes q{0%{transform:translateX(-0px)}1.7%{transform:translateX(-80px)}3.1%{transform:translateX(-160px)}4.6%{transform:translateX(-240px)}6%{transform:translateX(-320px)}7.4%{transform:translateX(-400px)}8.8%{transform:translateX(-480px)}10.2%{transform:translateX(-560px)}11.6%{transform:translateX(-640px)}13%{transform:translateX(-720px)}14.4%{transform:translateX(-800px)}15.8%{transform:translateX(-880px)}15.8%{transform:translateX(-960px)}17.2%{transform:translateX(-1040px)}18.6%{transform:translateX(-1120px)}20%{transform:translateX(-1200px)}21.4%{transform:translateX(-1280px)}22.8%{transform:translateX(-1360px)}24.2%{transform:translateX(-1440px)}25.6%{transform:translateX(-1520px)}27%{transform:translateX(-1600px)}28.4%{transform:translateX(-1680px)}29.8%{transform:translateX(-1760px)}29.8%{transform:translateX(-1840px)}31.2%{transform:translateX(-1920px)}32.6%{transform:translateX(-2000px)}34%{transform:translateX(-2080px)}35.4%{transform:translateX(-2160px)}36.8%{transform:translateX(-2240px)}38.3%{transform:translateX(-2320px)}39.7%{transform:translateX(-2400px)}41.1%{transform:translateX(-2480px)}42.5%{transform:translateX(-2560px)}43.9%{transform:translateX(-2640px)}43.9%{transform:translateX(-2720px)}45.3%{transform:translateX(-2800px)}46.7%{transform:translateX(-2880px)}48.1%{transform:translateX(-2960px)}49.5%{transform:translateX(-3040px)}50.9%{transform:translateX(-3120px)}50.9%{transform:translateX(-3200px)}50.9%{transform:translateX(-3280px)}52.3%{transform:translateX(-3360px)}53.7%{transform:translateX(-3440px)}55.1%{transform:translateX(-3520px)}56.5%{transform:translateX(-3600px)}57.9%{transform:translateX(-3680px)}57.9%{transform:translateX(-3760px)}59.3%{transform:translateX(-3840px)}60.7%{transform:translateX(-3920px)}62.1%{transform:translateX(-4000px)}63.6%{transform:translateX(-4080px)}64.9%{transform:translateX(-4160px)}100%{transform:translateX(-4240px)}}</style><g font-family="'JetBrainsMono',Monaco, Consolas, Menlo, &#x27;Bitstream Vera Sans Mono&#x27;, &#x27;Powerline Symbols&#x27;, monospace" font-size="1.67" class="e"><defs><symbol id="1"><text x="0" y="1.67" class="f">▄</text><text x="3.006" y="1.67" class="g">Doing</text><text x="9.017999999999999" y="1.67" class="g">something</text><text x="19.037999999999997" y="1.67" class="g">important...</text><text x="32.064" y="1.67" class="g">(will</text><text x="38.07599999999999" y="1.67" class="g">succeed)</text><text x="47.093999999999994" y="1.67" class="h">(1s)</text></symbol><symbol id="2"><rect height="2.171" width="9" x="0" y="0" class="i"></rect><text x="0" y="1.67" class="j"> SUCCESS </text><text x="10.02" y="1.67" class="k">Doing</text><text x="16.032" y="1.67" class="k">something</text><text x="26.052" y="1.67" class="k">important...</text><text x="39.077999999999996" y="1.67" class="k">(will</text><text x="45.089999999999996" y="1.67" class="k">succeed)</text></symbol><symbol id="3"><text x="0" y="1.67" class="f">▄</text><text x="3.006" y="1.67" class="g">Doing</text><text x="9.017999999999999" y="1.67" class="g">something</text><text x="19.037999999999997" y="1.67" class="g">important...</text><text x="32.064" y="1.67" class="g">(will</text><text x="38.07599999999999" y="1.67" class="g">warn)</text><text x="44.087999999999994" y="1.67" class="h">(1s)</text></symbol><symbol id="4"><rect height="2.171" width="9" x="0" y="0" class="l"></rect><text x="0" y="1.67" class="j"> WARNING </text><text x="10.02" y="1.67" class="m">Doing</text><text x="16.032" y="1.67" class="m">something</text><text x="26.052" y="1.67" class="m">important...</text><text x="39.077999999999996" y="1.67" class="m">(will</text><text x="45.089999999999996" y="1.67" class="m">warn)</text></symbol><symbol id="5"><text x="0" y="1.67" class="f">▄</text><text x="3.006" y="1.67" class="g">Doing</text><text x="9.017999999999999" y="1.67" class="g">something</text><text x="19.037999999999997" y="1.67" class="g">important...</text><text x="32.064" y="1.67" class="g">(will</text><text x="38.07599999999999" y="1.67" class="g">fail)</text><text x="44.087999999999994" y="1.67" class="h">(1s)</text></symbol><symbol id="6"><rect height="2.171" width="9" x="0" y="0" class="n"></rect><text x="0" y="1.67" class="j">  ERROR  </text><text x="10.02" y="1.67" class="o">Doing</text><text x="16.032" y="1.67" class="o">something</text><text x="26.052" y="1.67" class="o">important...</text><text x="39.077999999999996" y="1.67" class="o">(will</text><text x="45.089999999999996" y="1.67" class="o">fail)</text></symbol><symbol id="7"><rect height="2.171" width="9" x="0" y="0" class="i"></rect><text x="0" y="1.67" class="j"> SUCCESS </text><text x="10.02" y="1.67" class="k">Finally!</text></symbol><symbol id="a"><rect height="24" width="80" x="0" y="0" class="p"></rect></symbol></defs><rect height="52.104" width="80" class="a"></rect><g class="r"><svg x="0" y="0" width="4320"><svg x="0"><use xlink:href="#a"></use></svg><svg x="80"><use xlink:href="#a"></use><text x="0" y="1.67" class="f">▀</text><text x="3.006" y="1.67" class="g">Doing</text><text x="9.017999999999999" y="1.67" class="g">something</text><text x="19.037999999999997" y="1.67" class="g">important...</text><text x="32.064" y="1.67" class="g">(will</text><text x="38.07599999999999" y="1.67" class="g">succeed)</text><text x="47.093999999999994" y="1.67" class="h">(0s)</text></svg><svg x="160"><use xlink:href="#a"></use><text x="1.002" y="1.67" class="f">▀</text><text x="3.006" y="1.67" class="g">Doing</text><text x="9.017999999999999" y="1.67" class="g">something</text><text x="19.037999999999997" y="1.67" class="g">important...</text><text x="32.064" y="1.67" class="g">(will</text><text x="38.07599999999999" y="1.67" class="g">succeed)</text><text x="47.093999999999994" y="1.67" class="h">(0s)</text></svg><svg x="240"><use xlink:href="#a"></use><text x="1.002" y="1.67" class="f">▄</text><text x="3.006" y="1.67" class="g">Doing</text><text x="9.017999999999999" y="1.67" class="g">something</text><text x="19.037999999999997" y="1.67" class="g">important...</text><text x="32.064" y="1.67" class="g">(will</text><text x="38.07599999999999" y="1.67" class="g">succeed)</text><text x="47.093999999999994" y="1.67" class="h">(0s)</text></svg><svg x="320"><use xlink:href="#a"></use><use xlink:href="#1" y="0"></use></svg><svg x="400"><use xlink:href="#a"></use><text x="0" y="1.67" class="f">▀</text><text x="3.006" y="1.67" class="g">Doing</text><text x="9.017999999999999" y="1.67" class="g">something</text><text x="19.037999999999997" y="1.67" class="g">important...</text><text x="32.064" y="1.67" class="g">(will</text><text x="38.07599999999999" y="1.67" class="g">succeed)</text><text x="47.093999999999994" y="1.67" class="h">(1s)</text></svg><svg x="480"><use xlink:href="#a"></use><text x="1.002" y="1.67" class="f">▀</text><text x="3.006" y="1.67" class="g">Doing</text><text x="9.017999999999999" y="1.67" class="g">something</text><text x="19.037999999999997" y="1.67" class="g">important...</text><text x="32.064" y="1.67" class="g">(will</text><text x="38.07599999999999" y="1.67" class="g">succeed)</text><text x="47.093999999999994" y="1.67" class="h">(1s)</text></svg><svg x="560"><use xlink:href="#a"></use><text x="1.002" y="1.67" class="f">▄</text><text x="3.006" y="1.67" class="g">Doing</text><text x="9.017999999999999" y="1.67" class="g">something</text><text x="19.037999999999997" y="1.67" class="g">important...</text><text x="32.064" y="1.67" class="g">(will</text><text x="38.07599999999999" y="1.67" class="g">succeed)</text><text x="47.093999999999994" y="1.67" class="h">(1s)</text></svg><svg x="640"><use xlink:href="#a"></use><use xlink:href="#1" y="0"></use></svg><svg x="720"><use xlink:href="#a"></use><text x="0" y="1.67" class="f">▀</text><text x="3.006" y="1.67" class="g">Doing</text><text x="9.017999999999999" y="1.67" class="g">something</text><text x="19.037999999999997" y="1.67" class="g">important...</text><text x="32.064" y="1.67" class="g">(will</text><text x="38.07599999999999" y="1.67" class="g">succeed)</text><text x="47.093999999999994" y="1.67" class="h">(2s)</text></svg><svg x="800"><use xlink:href="#a"></use><text x="1.002" y="1.67" class="f">▀</text><text x="3.006" y="1.67" class="g">Doing</text><text x="9.017999999999999" y="1.67" class="g">something</text><text x="19.037999999999997" y="1.67" class="g">important...</text><text x="32.064" y="1.67" class="g">(will</text><text x="38.07599999999999" y="1.67" class="g">succeed)</text><text x="47.093999999999994" y="1.67" class="h">(2s)</text></svg><svg x="880"><use xlink:href="#a"></use></svg><svg x="960"><use xlink:href="#a"></use><use xlink:href="#2" y="0"></use><text x="0" y="3.8409999999999997" class="f">▀</text><text x="3.006" y="3.8409999999999997" class="g">Doing</text><text x="9.017999999999999" y="3.8409999999999997" class="g">something</text><text x="19.037999999999997" y="3.8409999999999997" class="g">important...</text><text x="32.064" y="3.8409999999999997" class="g">(will</text><text x="38.07599999999999" y="3.8409999999999997" class="g">warn)</text><text x="44.087999999999994" y="3.8409999999999997" class="h">(0s)</text></svg><svg x="1040"><use xlink:href="#a"></use><use xlink:href="#2" y="0"></use><text x="1.002" y="3.8409999999999997" class="f">▀</text><text x="3.006" y="3.8409999999999997" class="g">Doing</text><text x="9.017999999999999" y="3.8409999999999997" class="g">something</text><text x="19.037999999999997" y="3.8409999999999997" class="g">important...</text><text x="32.064" y="3.8409999999999997" class="g">(will</text><text x="38.07599999999999" y="3.8409999999999997" class="g">warn)</text><text x="44.087999999999994" y="3.8409999999999997" class="h">(0s)</text></svg><svg x="1120"><use xlink:href="#a"></use><use xlink:href="#2" y="0"></use><text x="1.002" y="3.8409999999999997" class="f">▄</text><text x="3.006" y="3.8409999999999997" class="g">Doing</text><text x="9.017999999999999" y="3.8409999999999997" class="g">something</text><text x="19.037999999999997" y="3.8409999999999997" class="g">important...</text><text x="32.064" y="3.8409999999999997" class="g">(will</text><text x="38.07599999999999" y="3.8409999999999997" class="g">warn)</text><text x="44.087999999999994" y="3.8409999999999997" class="h">(0s)</text></svg><svg x="1200"><use xlink:href="#a"></use><use xlink:href="#2" y="0"></use><use xlink:href="#3" y="2.171"></use></svg><svg x="1280"><use xlink:href="#a"></use><use xlink:href="#2" y="0"></use><text x="0" y="3.8409999999999997" class="f">▀</text><text x="3.006" y="3.8409999999999997" class="g">Doing</text><text x="9.017999999999999" y="3.8409999999999997" class="g">something</text><text x="19.037999999999997" y="3.8409999999999997" class="g">important...</text><text x="32.064" y="3.8409999999999997" class="g">(will</text><text x="38.07599999999999" y="3.8409999999999997" class="g">warn)</text><text x="44.087999999999994" y="3.8409999999999997" class="h">(1s)</text></svg><svg x="1360"><use xlink:href="#a"></use><use xlink:href="#2" y="0"></use><text x="1.002" y="3.8409999999999997" class="f">▀</text><text x="3.006" y="3.8409999999999997" class="g">Doing</text><text x="9.017999999999999" y="3.8409999999999997" class="g">something</text><text x="19.037999999999997" y="3.8409999999999997" class="g">important...</text><text x="32.064" y="3.8409999999999997" class="g">(will</text><text x="38.07599999999999" y="3.8409999999999997" class="g">warn)</text><text x="44.087999999999994" y="3.8409999999999997" class="h">(1s)</text></svg><svg x="1440"><use xlink:href="#a"></use><use xlink:href="#2" y="0"></use><text x="1.002" y="3.8409999999999997" class="f">▄</text><text x="3.006" y="3.8409999999999997" class="g">Doing</text><text x="9.017999999999999" y="3.8409999999999997" class="g">something</text><text x="19.037999999999997" y="3.8409999999999997" class="g">important...</text><text x="32.064" y="3.8409999999999997" class="g">(will</text><text x="38.07599999999999" y="3.8409999999999997" class="g">warn)</text><text x="44.087999999999994" y="3.8409999999999997" class="h">(1s)</text></svg><svg x="1520"><use xlink:href="#a"></use><use xlink:href="#2" y="0"></use><use xlink:href="#3" y="2.171"></use></svg><svg x="1600"><use xlink:href="#a"></use><use xlink:href="#2" y="0"></use><text x="0" y="3.8409999999999997" class="f">▀</text><text x="3.006" y="3.8409999999999997" class="g">Doing</text><text x="9.017999999999999" y="3.8409999999999997" class="g">something</text><text x="19.037999999999997" y="3.8409999999999997" class="g">important...</text><text x="32.064" y="3.8409999999999997" class="g">(will</text><text x="38.07599999999999" y="3.8409999999999997" class="g">warn)</text><text x="44.087999999999994" y="3.8409999999999997" class="h">(2s)</text></svg><svg x="1680"><use xlink:href="#a"></use><use xlink:href="#2" y="0"></use><text x="1.002" y="3.8409999999999997" class="f">▀</text><text x="3.006" y="3.8409999999999997" class="g">Doing</text><text x="9.017999999999999" y="3.8409999999999997" class="g">something</text><text x="19.037999999999997" y="3.8409999999999997" class="g">important...</text><text x="32.064" y="3.8409999999999997" class="g">(will</text><text x="38.07599999999999" y="3.8409999999999997" class="g">warn)</text><text x="44.087999999999994" y="3.8409999999999997" class="h">(2s)</text></svg><svg x="1760"><use xlink:href="#a"></use><use xlink:href="#2" y="0"></use><use xlink:href="#4" y="2.171"></use></svg><svg x="1840"><use xlink:href="#a"></use><use xlink:href="#2" y="0"></use><use xlink:href="#4" y="2.171"></use><text x="0" y="6.012" class="f">▀</text><text x="3.006" y="6.012" class="g">Doing</text><text x="9.017999999999999" y="6.012" class="g">something</text><text x="19.037999999999997" y="6.012" class="g">important...</text><text x="32.064" y="6.012" class="g">(will</text><text x="38.07599999999999" y="6.012" class="g">fail)</text><text x="44.087999999999994" y="6.012" class="h">(0s)</text></svg><svg x="1920"><use xlink:href="#a"></use><use xlink:href="#2" y="0"></use><use xlink:href="#4" y="2.171"></use><text x="1.002" y="6.012" class="f">▀</text><text x="3.006" y="6.012" class="g">Doing</text><text x="9.017999999999999" y="6.012" class="g">something</text><text x="19.037999999999997" y="6.012" class="g">important...</text><text x="32.064" y="6.012" class="g">(will</text><text x="38.07599999999999" y="6.012" class="g">fail)</text><text x="44.087999999999994" y="6.012" class="h">(0s)</text></svg><svg x="2000"><use xlink:href="#a"></use><use xlink:href="#2" y="0"></use><use xlink:href="#4" y="2.171"></use><text x="1.002" y="6.012" class="f">▄</text><text x="3.006" y="6.012" class="g">Doing</text><text x="9.017999999999999" y="6.012" class="g">something</text><text x="19.037999999999997" y="6.012" class="g">important...</text><text x="32.064" y="6.012" class="g">(will</text><text x="38.07599999999999" y="6.012" class="g">fail)</text><text x="44.087999999999994" y="6.012" class="h">(0s)</text></svg><svg x="2080"><use xlink:href="#a"></use><use xlink:href="#2" y="0"></use><use xlink:href="#4" y="2.171"></use><use xlink:href="#5" y="4.342"></use></svg><svg x="2160"><use xlink:href="#a"></use><use xlink:href="#2" y="0"></use><use xlink:href="#4" y="2.171"></use><text x="0" y="6.012" class="f">▀</text><text x="3.006" y="6.012" class="g">Doing</text><text x="9.017999999999999" y="6.012" class="g">something</text><text x="19.037999999999997" y="6.012" class="g">important...</text><text x="32.064" y="6.012" class="g">(will</text><text x="38.07599999999999" y="6.012" class="g">fail)</text><text x="44.087999999999994" y="6.012" class="h">(1s)</text></svg><svg x="2240"><use xlink:href="#a"></use><use xlink:href="#2" y="0"></use><use xlink:href="#4" y="2.171"></use><text x="1.002" y="6.012" class="f">▀</text><text x="3.006" y="6.012" class="g">Doing</text><text x="9.017999999999999" y="6.012" class="g">something</text><text x="19.037999999999997" y="6.012" class="g">important...</text><text x="32.064" y="6.012" class="g">(will</text><text x="38.07599999999999" y="6.012" class="g">fail)</text><text x="44.087999999999994" y="6.012" class="h">(1s)</text></svg><svg x="2320"><use xlink:href="#a"></use><use xlink:href="#2" y="0"></use><use xlink:href="#4" y="2.171"></use><text x="1.002" y="6.012" class="f">▄</text><text x="3.006" y="6.012" class="g">Doing</text><text x="9.017999999999999" y="6.012" class="g">something</text><text x="19.037999999999997" y="6.012" class="g">important...</text><text x="32.064" y="6.012" class="g">(will</text><text x="38.07599999999999" y="6.012" class="g">fail)</text><text x="44.087999999999994" y="6.012" class="h">(1s)</text></svg><svg x="2400"><use xlink:href="#a"></use><use xlink:href="#2" y="0"></use><use xlink:href="#4" y="2.171"></use><use xlink:href="#5" y="4.342"></use></svg><svg x="2480"><use xlink:href="#a"></use><use xlink:href="#2" y="0"></use><use xlink:href="#4" y="2.171"></use><text x="0" y="6.012" class="f">▀</text><text x="3.006" y="6.012" class="g">Doing</text><text x="9.017999999999999" y="6.012" class="g">something</text><text x="19.037999999999997" y="6.012" class="g">important...</text><text x="32.064" y="6.012" class="g">(will</text><text x="38.07599999999999" y="6.012" class="g">fail)</text><text x="44.087999999999994" y="6.012" class="h">(2s)</text></svg><svg x="2560"><use xlink:href="#a"></use><use xlink:href="#2" y="0"></use><use xlink:href="#4" y="2.171"></use><text x="1.002" y="6.012" class="f">▀</text><text x="3.006" y="6.012" class="g">Doing</text><text x="9.017999999999999" y="6.012" class="g">something</text><text x="19.037999999999997" y="6.012" class="g">important...</text><text x="32.064" y="6.012" class="g">(will</text><text x="38.07599999999999" y="6.012" class="g">fail)</text><text x="44.087999999999994" y="6.012" class="h">(2s)</text></svg><svg x="2640"><use xlink:href="#a"></use><use xlink:href="#2" y="0"></use><use xlink:href="#4" y="2.171"></use></svg><svg x="2720"><use xlink:href="#a"></use><use xlink:href="#2" y="0"></use><use xlink:href="#4" y="2.171"></use><use xlink:href="#6" y="4.342"></use><text x="0" y="8.183" class="f">▀</text><text x="3.006" y="8.183" class="g">Doing</text><text x="9.017999999999999" y="8.183" class="g">a</text><text x="11.021999999999998" y="8.183" class="g">lot</text><text x="15.029999999999998" y="8.183" class="g">of</text><text x="18.035999999999998" y="8.183" class="g">stuff...</text><text x="27.054" y="8.183" class="h">(0s)</text></svg><svg x="2800"><use xlink:href="#a"></use><use xlink:href="#2" y="0"></use><use xlink:href="#4" y="2.171"></use><use xlink:href="#6" y="4.342"></use><text x="1.002" y="8.183" class="f">▀</text><text x="3.006" y="8.183" class="g">Doing</text><text x="9.017999999999999" y="8.183" class="g">a</text><text x="11.021999999999998" y="8.183" class="g">lot</text><text x="15.029999999999998" y="8.183" class="g">of</text><text x="18.035999999999998" y="8.183" class="g">stuff...</text><text x="27.054" y="8.183" class="h">(0s)</text></svg><svg x="2880"><use xlink:href="#a"></use><use xlink:href="#2" y="0"></use><use xlink:href="#4" y="2.171"></use><use xlink:href="#6" y="4.342"></use><text x="1.002" y="8.183" class="f">▄</text><text x="3.006" y="8.183" class="g">Doing</text><text x="9.017999999999999" y="8.183" class="g">a</text><text x="11.021999999999998" y="8.183" class="g">lot</text><text x="15.029999999999998" y="8.183" class="g">of</text><text x="18.035999999999998" y="8.183" class="g">stuff...</text><text x="27.054" y="8.183" class="h">(0s)</text></svg><svg x="2960"><use xlink:href="#a"></use><use xlink:href="#2" y="0"></use><use xlink:href="#4" y="2.171"></use><use xlink:href="#6" y="4.342"></use><text x="0" y="8.183" class="f">▄</text><text x="3.006" y="8.183" class="g">Doing</text><text x="9.017999999999999" y="8.183" class="g">a</text><text x="11.021999999999998" y="8.183" class="g">lot</text><text x="15.029999999999998" y="8.183" class="g">of</text><text x="18.035999999999998" y="8.183" class="g">stuff...</text><text x="27.054" y="8.183" class="h">(1s)</text></svg><svg x="3040"><use xlink:href="#a"></use><use xlink:href="#2" y="0"></use><use xlink:href="#4" y="2.171"></use><use xlink:href="#6" y="4.342"></use><text x="0" y="8.183" class="f">▀</text><text x="3.006" y="8.183" class="g">Doing</text><text x="9.017999999999999" y="8.183" class="g">a</text><text x="11.021999999999998" y="8.183" class="g">lot</text><text x="15.029999999999998" y="8.183" class="g">of</text><text x="18.035999999999998" y="8.183" class="g">stuff...</text><text x="27.054" y="8.183" class="h">(1s)</text></svg><svg x="3120"><use xlink:href="#a"></use><use xlink:href="#2" y="0"></use><use xlink:href="#4" y="2.171"></use><use xlink:href="#6" y="4.342"></use></svg><svg x="3200"><use xlink:href="#a"></use><use xlink:href="#2" y="0"></use><use xlink:href="#4" y="2.171"></use><use xlink:href="#6" y="4.342"></use><text x="0" y="8.183" class="f">▀</text><text x="3.006" y="8.183" class="g">It&#x27;s</text><text x="8.016" y="8.183" class="g">really</text><text x="15.029999999999998" y="8.183" class="g">much</text></svg><svg x="3280"><use xlink:href="#a"></use><use xlink:href="#2" y="0"></use><use xlink:href="#4" y="2.171"></use><use xlink:href="#6" y="4.342"></use><text x="1.002" y="8.183" class="f">▀</text><text x="3.006" y="8.183" class="g">It&#x27;s</text><text x="8.016" y="8.183" class="g">really</text><text x="15.029999999999998" y="8.183" class="g">much</text><text x="20.04" y="8.183" class="h">(1s)</text></svg><svg x="3360"><use xlink:href="#a"></use><use xlink:href="#2" y="0"></use><use xlink:href="#4" y="2.171"></use><use xlink:href="#6" y="4.342"></use><text x="1.002" y="8.183" class="f">▄</text><text x="3.006" y="8.183" class="g">It&#x27;s</text><text x="8.016" y="8.183" class="g">really</text><text x="15.029999999999998" y="8.183" class="g">much</text><text x="20.04" y="8.183" class="h">(1s)</text></svg><svg x="3440"><use xlink:href="#a"></use><use xlink:href="#2" y="0"></use><use xlink:href="#4" y="2.171"></use><use xlink:href="#6" y="4.342"></use><text x="0" y="8.183" class="f">▄</text><text x="3.006" y="8.183" class="g">It&#x27;s</text><text x="8.016" y="8.183" class="g">really</text><text x="15.029999999999998" y="8.183" class="g">much</text><text x="20.04" y="8.183" class="h">(1s)</text></svg><svg x="3520"><use xlink:href="#a"></use><use xlink:href="#2" y="0"></use><use xlink:href="#4" y="2.171"></use><use xlink:href="#6" y="4.342"></use><text x="0" y="8.183" class="f">▀</text><text x="3.006" y="8.183" class="g">It&#x27;s</text><text x="8.016" y="8.183" class="g">really</text><text x="15.029999999999998" y="8.183" class="g">much</text><text x="20.04" y="8.183" class="h">(2s)</text></svg><svg x="3600"><use xlink:href="#a"></use><use xlink:href="#2" y="0"></use><use xlink:href="#4" y="2.171"></use><use xlink:href="#6" y="4.342"></use><text x="1.002" y="8.183" class="f">▀</text><text x="3.006" y="8.183" class="g">It&#x27;s</text><text x="8.016" y="8.183" class="g">really</text><text x="15.029999999999998" y="8.183" class="g">much</text><text x="20.04" y="8.183" class="h">(2s)</text></svg><svg x="3680"><use xlink:href="#a"></use><use xlink:href="#2" y="0"></use><use xlink:href="#4" y="2.171"></use><use xlink:href="#6" y="4.342"></use><text x="1.002" y="8.183" class="f">▀</text><text x="3.006" y="8.183" class="g">We&#x27;re</text><text x="9.017999999999999" y="8.183" class="g">nearly</text><text x="16.032" y="8.183" class="g">done!</text></svg><svg x="3760"><use xlink:href="#a"></use><use xlink:href="#2" y="0"></use><use xlink:href="#4" y="2.171"></use><use xlink:href="#6" y="4.342"></use><text x="1.002" y="8.183" class="f">▄</text><text x="3.006" y="8.183" class="g">We&#x27;re</text><text x="9.017999999999999" y="8.183" class="g">nearly</text><text x="16.032" y="8.183" class="g">done!</text><text x="22.043999999999997" y="8.183" class="h">(2s)</text></svg><svg x="3840"><use xlink:href="#a"></use><use xlink:href="#2" y="0"></use><use xlink:href="#4" y="2.171"></use><use xlink:href="#6" y="4.342"></use><text x="0" y="8.183" class="f">▄</text><text x="3.006" y="8.183" class="g">We&#x27;re</text><text x="9.017999999999999" y="8.183" class="g">nearly</text><text x="16.032" y="8.183" class="g">done!</text><text x="22.043999999999997" y="8.183" class="h">(2s)</text></svg><svg x="3920"><use xlink:href="#a"></use><use xlink:href="#2" y="0"></use><use xlink:href="#4" y="2.171"></use><use xlink:href="#6" y="4.342"></use><text x="0" y="8.183" class="f">▀</text><text x="3.006" y="8.183" class="g">We&#x27;re</text><text x="9.017999999999999" y="8.183" class="g">nearly</text><text x="16.032" y="8.183" class="g">done!</text><text x="22.043999999999997" y="8.183" class="h">(2s)</text></svg><svg x="4000"><use xlink:href="#a"></use><use xlink:href="#2" y="0"></use><use xlink:href="#4" y="2.171"></use><use xlink:href="#6" y="4.342"></use><text x="1.002" y="8.183" class="f">▀</text><text x="3.006" y="8.183" class="g">We&#x27;re</text><text x="9.017999999999999" y="8.183" class="g">nearly</text><text x="16.032" y="8.183" class="g">done!</text><text x="22.043999999999997" y="8.183" class="h">(3s)</text></svg><svg x="4080"><use xlink:href="#a"></use><use xlink:href="#2" y="0"></use><use xlink:href="#4" y="2.171"></use><use xlink:href="#6" y="4.342"></use><text x="1.002" y="8.183" class="f">▄</text><text x="3.006" y="8.183" class="g">We&#x27;re</text><text x="9.017999999999999" y="8.183" class="g">nearly</text><text x="16.032" y="8.183" class="g">done!</text><text x="22.043999999999997" y="8.183" class="h">(3s)</text></svg><svg x="4160"><use xlink:href="#a"></use><use xlink:href="#2" y="0"></use><use xlink:href="#4" y="2.171"></use><use xlink:href="#6" y="4.342"></use><use xlink:href="#7" y="6.513"></use></svg><svg x="4240"><use xlink:href="#a"></use><use xlink:href="#2" y="0"></use><use xlink:href="#4" y="2.171"></use><use xlink:href="#6" y="4.342"></use><use xlink:href="#7" y="6.513"></use><text x="0" y="12.525" class="s">Restarting</text><text x="11.021999999999998" y="12.525" class="s">animation...</text></svg></svg></g></g></svg></svg>