<svg xmlns="http://www.w3.org/2000/svg" xmlns:xlink="http://www.w3.org/1999/xlink" width="840" height="581.04"><rect width="840" height="581.04" rx="5" ry="5" class="a"></rect><svg y="0%" x="0%"><circle cx="20" cy="20" r="6" class="b"></circle><circle cx="40" cy="20" r="6" class="c"></circle><circle cx="60" cy="20" r="6" class="d"></circle></svg><svg height="521.04" viewBox="0 0 80 52.104" width="800" x="15" xmlns="http://www.w3.org/2000/svg" xmlns:xlink="http://www.w3.org/1999/xlink" y="50"><style>.e, .g, .f {
	font-family:
			'Courier New'
			Roboto,
			Helvetica,
			Arial,
			sans-serif,
			'Apple Color Emoji',
			'Segoe UI Emoji' !important;
}.a{fill:rgb(35,35,35)}.b{fill:#ff5f58}.c{fill:#ffbd2e}.d{fill:#18c132}.e{font-family:'JetBrainsMono',Monaco,Consolas,Menlo,'Bitstream Vera Sans Mono','Powerline Symbols',monospace}.f{fill:rgb(126,231,233);white-space:pre}.g{fill:rgb(255,255,255);white-space:pre}.h{fill:rgb(168,204,140)}.i{white-space:pre}.j{fill:rgb(124,255,0);white-space:pre}.k{fill:rgb(219,171,121)}.l{fill:rgb(255,241,0);white-space:pre}.m{fill:rgb(232,131,136)}.n{fill:rgb(243,86,86);white-space:pre}.o{fill:transparent}.q{animation-duration:14.3521s;animation-iteration-count:infinite;animation-name:p;animation-timing-function:steps(1,end)}.r{fill:rgb(160,160,160);white-space:pre}@keyframes p{0%{transform:translateX(-0px)}2.4%{transform:translateX(-80px)}3.8%{transform:translateX(-160px)}5.2%{transform:translateX(-240px)}6.6%{transform:translateX(-320px)}8%{transform:translateX(-400px)}9.4%{transform:translateX(-480px)}10.8%{transform:translateX(-560px)}12.2%{transform:translateX(-640px)}13.6%{transform:translateX(-720px)}15%{transform:translateX(-800px)}16.4%{transform:translateX(-880px)}17.8%{transform:translateX(-960px)}19.2%{transform:translateX(-1040px)}20.6%{transform:translateX(-1120px)}22%{transform:translateX(-1200px)}23.4%{transform:translateX(-1280px)}24.8%{transform:translateX(-1360px)}26.1%{transform:translateX(-1440px)}27.5%{transform:translateX(-1520px)}28.9%{transform:translateX(-1600px)}30.3%{transform:translateX(-1680px)}31.7%{transform:translateX(-1760px)}33.1%{transform:translateX(-1840px)}34.5%{transform:translateX(-1920px)}35.9%{transform:translateX(-2000px)}37.3%{transform:translateX(-2080px)}38.7%{transform:translateX(-2160px)}40.1%{transform:translateX(-2240px)}41.5%{transform:translateX(-2320px)}42.9%{transform:translateX(-2400px)}44.2%{transform:translateX(-2480px)}44.3%{transform:translateX(-2560px)}45.6%{transform:translateX(-2640px)}47%{transform:translateX(-2720px)}48.4%{transform:translateX(-2800px)}49.8%{transform:translateX(-2880px)}51.2%{transform:translateX(-2960px)}51.2%{transform:translateX(-3040px)}52.6%{transform:translateX(-3120px)}54%{transform:translateX(-3200px)}55.4%{transform:translateX(-3280px)}56.8%{transform:translateX(-3360px)}58.2%{transform:translateX(-3440px)}58.2%{transform:translateX(-3520px)}59.6%{transform:translateX(-3600px)}61%{transform:translateX(-3680px)}62.4%{transform:translateX(-3760px)}63.8%{transform:translateX(-3840px)}65.2%{transform:translateX(-3920px)}65.2%{transform:translateX(-4000px)}100%{transform:translateX(-4080px)}}</style><g font-family="'JetBrainsMono',Monaco, Consolas, Menlo, &#x27;Bitstream Vera Sans Mono&#x27;, &#x27;Powerline Symbols&#x27;, monospace" font-size="1.67" class="e"><defs><symbol id="1"><text x="0" y="1.67" class="f">▀</text><text x="3.006" y="1.67" class="g">Doing</text><text x="9.017999999999999" y="1.67" class="g">something</text><text x="19.037999999999997" y="1.67" class="g">important...</text><text x="32.064" y="1.67" class="g">(will</text><text x="38.07599999999999" y="1.67" class="g">succeed)</text></symbol><symbol id="2"><text x="1.002" y="1.67" class="f">▀</text><text x="3.006" y="1.67" class="g">Doing</text><text x="9.017999999999999" y="1.67" class="g">something</text><text x="19.037999999999997" y="1.67" class="g">important...</text><text x="32.064" y="1.67" class="g">(will</text><text x="38.07599999999999" y="1.67" class="g">succeed)</text></symbol><symbol id="3"><text x="1.002" y="1.67" class="f">▄</text><text x="3.006" y="1.67" class="g">Doing</text><text x="9.017999999999999" y="1.67" class="g">something</text><text x="19.037999999999997" y="1.67" class="g">important...</text><text x="32.064" y="1.67" class="g">(will</text><text x="38.07599999999999" y="1.67" class="g">succeed)</text></symbol><symbol id="4"><text x="0" y="1.67" class="f">▄</text><text x="3.006" y="1.67" class="g">Doing</text><text x="9.017999999999999" y="1.67" class="g">something</text><text x="19.037999999999997" y="1.67" class="g">important...</text><text x="32.064" y="1.67" class="g">(will</text><text x="38.07599999999999" y="1.67" class="g">succeed)</text></symbol><symbol id="5"><rect height="2.171" width="9" x="0" y="0" class="h"></rect><text x="0" y="1.67" class="i"> SUCCESS </text><text x="10.02" y="1.67" class="j">Doing</text><text x="16.032" y="1.67" class="j">something</text><text x="26.052" y="1.67" class="j">important...</text><text x="39.077999999999996" y="1.67" class="j">(will</text><text x="45.089999999999996" y="1.67" class="j">succeed)</text></symbol><symbol id="6"><text x="0" y="1.67" class="f">▀</text><text x="3.006" y="1.67" class="g">Doing</text><text x="9.017999999999999" y="1.67" class="g">something</text><text x="19.037999999999997" y="1.67" class="g">important...</text><text x="32.064" y="1.67" class="g">(will</text><text x="38.07599999999999" y="1.67" class="g">warn)</text></symbol><symbol id="7"><text x="1.002" y="1.67" class="f">▀</text><text x="3.006" y="1.67" class="g">Doing</text><text x="9.017999999999999" y="1.67" class="g">something</text><text x="19.037999999999997" y="1.67" class="g">important...</text><text x="32.064" y="1.67" class="g">(will</text><text x="38.07599999999999" y="1.67" class="g">warn)</text></symbol><symbol id="8"><text x="1.002" y="1.67" class="f">▄</text><text x="3.006" y="1.67" class="g">Doing</text><text x="9.017999999999999" y="1.67" class="g">something</text><text x="19.037999999999997" y="1.67" class="g">important...</text><text x="32.064" y="1.67" class="g">(will</text><text x="38.07599999999999" y="1.67" class="g">warn)</text></symbol><symbol id="9"><text x="0" y="1.67" class="f">▄</text><text x="3.006" y="1.67" class="g">Doing</text><text x="9.017999999999999" y="1.67" class="g">something</text><text x="19.037999999999997" y="1.67" class="g">important...</text><text x="32.064" y="1.67" class="g">(will</text><text x="38.07599999999999" y="1.67" class="g">warn)</text></symbol><symbol id="10"><rect height="2.171" width="9" x="0" y="0" class="k"></rect><text x="0" y="1.67" class="i"> WARNING </text><text x="10.02" y="1.67" class="l">Doing</text><text x="16.032" y="1.67" class="l">something</text><text x="26.052" y="1.67" class="l">important...</text><text x="39.077999999999996" y="1.67" class="l">(will</text><text x="45.089999999999996" y="1.67" class="l">warn)</text></symbol><symbol id="11"><text x="0" y="1.67" class="f">▀</text><text x="3.006" y="1.67" class="g">Doing</text><text x="9.017999999999999" y="1.67" class="g">something</text><text x="19.037999999999997" y="1.67" class="g">important...</text><text x="32.064" y="1.67" class="g">(will</text><text x="38.07599999999999" y="1.67" class="g">fail)</text></symbol><symbol id="12"><text x="1.002" y="1.67" class="f">▀</text><text x="3.006" y="1.67" class="g">Doing</text><text x="9.017999999999999" y="1.67" class="g">something</text><text x="19.037999999999997" y="1.67" class="g">important...</text><text x="32.064" y="1.67" class="g">(will</text><text x="38.07599999999999" y="1.67" class="g">fail)</text></symbol><symbol id="13"><text x="1.002" y="1.67" class="f">▄</text><text x="3.006" y="1.67" class="g">Doing</text><text x="9.017999999999999" y="1.67" class="g">something</text><text x="19.037999999999997" y="1.67" class="g">important...</text><text x="32.064" y="1.67" class="g">(will</text><text x="38.07599999999999" y="1.67" class="g">fail)</text></symbol><symbol id="14"><text x="0" y="1.67" class="f">▄</text><text x="3.006" y="1.67" class="g">Doing</text><text x="9.017999999999999" y="1.67" class="g">something</text><text x="19.037999999999997" y="1.67" class="g">important...</text><text x="32.064" y="1.67" class="g">(will</text><text x="38.07599999999999" y="1.67" class="g">fail)</text></symbol><symbol id="15"><rect height="2.171" width="9" x="0" y="0" class="m"></rect><text x="0" y="1.67" class="i">  ERROR  </text><text x="10.02" y="1.67" class="n">Doing</text><text x="16.032" y="1.67" class="n">something</text><text x="26.052" y="1.67" class="n">important...</text><text x="39.077999999999996" y="1.67" class="n">(will</text><text x="45.089999999999996" y="1.67" class="n">fail)</text></symbol><symbol id="16"><text x="0" y="1.67" class="f">▀</text><text x="3.006" y="1.67" class="g">Doing</text><text x="9.017999999999999" y="1.67" class="g">a</text><text x="11.021999999999998" y="1.67" class="g">lot</text><text x="15.029999999999998" y="1.67" class="g">of</text><text x="18.035999999999998" y="1.67" class="g">stuff...</text></symbol><symbol id="17"><text x="1.002" y="1.67" class="f">▀</text><text x="3.006" y="1.67" class="g">It&#x27;s</text><text x="8.016" y="1.67" class="g">really</text><text x="15.029999999999998" y="1.67" class="g">muchtuff...</text></symbol><symbol id="18"><text x="1.002" y="1.67" class="f">▄</text><text x="3.006" y="1.67" class="g">We&#x27;re</text><text x="9.017999999999999" y="1.67" class="g">nearly</text><text x="16.032" y="1.67" class="g">done!</text></symbol><symbol id="19"><rect height="2.171" width="9" x="0" y="0" class="h"></rect><text x="0" y="1.67" class="i"> SUCCESS </text><text x="10.02" y="1.67" class="j">Finally!</text></symbol><symbol id="a"><rect height="24" width="80" x="0" y="0" class="o"></rect></symbol></defs><rect height="52.104" width="80" class="a"></rect><g class="q"><svg x="0" y="0" width="4160"><svg x="0"><use xlink:href="#a"></use></svg><svg x="80"><use xlink:href="#a"></use><use xlink:href="#1" y="0"></use></svg><svg x="160"><use xlink:href="#a"></use><use xlink:href="#2" y="0"></use></svg><svg x="240"><use xlink:href="#a"></use><use xlink:href="#3" y="0"></use></svg><svg x="320"><use xlink:href="#a"></use><use xlink:href="#4" y="0"></use></svg><svg x="400"><use xlink:href="#a"></use><use xlink:href="#1" y="0"></use></svg><svg x="480"><use xlink:href="#a"></use><use xlink:href="#2" y="0"></use></svg><svg x="560"><use xlink:href="#a"></use><use xlink:href="#3" y="0"></use></svg><svg x="640"><use xlink:href="#a"></use><use xlink:href="#4" y="0"></use></svg><svg x="720"><use xlink:href="#a"></use><use xlink:href="#1" y="0"></use></svg><svg x="800"><use xlink:href="#a"></use><use xlink:href="#2" y="0"></use></svg><svg x="880"><use xlink:href="#a"></use><use xlink:href="#5" y="0"></use><use xlink:href="#6" y="2.171"></use></svg><svg x="960"><use xlink:href="#a"></use><use xlink:href="#5" y="0"></use><use xlink:href="#7" y="2.171"></use></svg><svg x="1040"><use xlink:href="#a"></use><use xlink:href="#5" y="0"></use><use xlink:href="#8" y="2.171"></use></svg><svg x="1120"><use xlink:href="#a"></use><use xlink:href="#5" y="0"></use><use xlink:href="#9" y="2.171"></use></svg><svg x="1200"><use xlink:href="#a"></use><use xlink:href="#5" y="0"></use><use xlink:href="#6" y="2.171"></use></svg><svg x="1280"><use xlink:href="#a"></use><use xlink:href="#5" y="0"></use><use xlink:href="#7" y="2.171"></use></svg><svg x="1360"><use xlink:href="#a"></use><use xlink:href="#5" y="0"></use><use xlink:href="#8" y="2.171"></use></svg><svg x="1440"><use xlink:href="#a"></use><use xlink:href="#5" y="0"></use><use xlink:href="#9" y="2.171"></use></svg><svg x="1520"><use xlink:href="#a"></use><use xlink:href="#5" y="0"></use><use xlink:href="#6" y="2.171"></use></svg><svg x="1600"><use xlink:href="#a"></use><use xlink:href="#5" y="0"></use><use xlink:href="#7" y="2.171"></use></svg><svg x="1680"><use xlink:href="#a"></use><use xlink:href="#5" y="0"></use><use xlink:href="#10" y="2.171"></use><use xlink:href="#11" y="4.342"></use></svg><svg x="1760"><use xlink:href="#a"></use><use xlink:href="#5" y="0"></use><use xlink:href="#10" y="2.171"></use><use xlink:href="#12" y="4.342"></use></svg><svg x="1840"><use xlink:href="#a"></use><use xlink:href="#5" y="0"></use><use xlink:href="#10" y="2.171"></use><use xlink:href="#13" y="4.342"></use></svg><svg x="1920"><use xlink:href="#a"></use><use xlink:href="#5" y="0"></use><use xlink:href="#10" y="2.171"></use><use xlink:href="#14" y="4.342"></use></svg><svg x="2000"><use xlink:href="#a"></use><use xlink:href="#5" y="0"></use><use xlink:href="#10" y="2.171"></use><use xlink:href="#11" y="4.342"></use></svg><svg x="2080"><use xlink:href="#a"></use><use xlink:href="#5" y="0"></use><use xlink:href="#10" y="2.171"></use><use xlink:href="#12" y="4.342"></use></svg><svg x="2160"><use xlink:href="#a"></use><use xlink:href="#5" y="0"></use><use xlink:href="#10" y="2.171"></use><use xlink:href="#13" y="4.342"></use></svg><svg x="2240"><use xlink:href="#a"></use><use xlink:href="#5" y="0"></use><use xlink:href="#10" y="2.171"></use><use xlink:href="#14" y="4.342"></use></svg><svg x="2320"><use xlink:href="#a"></use><use xlink:href="#5" y="0"></use><use xlink:href="#10" y="2.171"></use><use xlink:href="#11" y="4.342"></use></svg><svg x="2400"><use xlink:href="#a"></use><use xlink:href="#5" y="0"></use><use xlink:href="#10" y="2.171"></use><use xlink:href="#12" y="4.342"></use></svg><svg x="2480"><use xlink:href="#a"></use><use xlink:href="#5" y="0"></use><use xlink:href="#10" y="2.171"></use><use xlink:href="#15" y="4.342"></use></svg><svg x="2560"><use xlink:href="#a"></use><use xlink:href="#5" y="0"></use><use xlink:href="#10" y="2.171"></use><use xlink:href="#15" y="4.342"></use><use xlink:href="#16" y="6.513"></use></svg><svg x="2640"><use xlink:href="#a"></use><use xlink:href="#5" y="0"></use><use xlink:href="#10" y="2.171"></use><use xlink:href="#15" y="4.342"></use><text x="1.002" y="8.183" class="f">▀</text><text x="3.006" y="8.183" class="g">Doing</text><text x="9.017999999999999" y="8.183" class="g">a</text><text x="11.021999999999998" y="8.183" class="g">lot</text><text x="15.029999999999998" y="8.183" class="g">of</text><text x="18.035999999999998" y="8.183" class="g">stuff...</text></svg><svg x="2720"><use xlink:href="#a"></use><use xlink:href="#5" y="0"></use><use xlink:href="#10" y="2.171"></use><use xlink:href="#15" y="4.342"></use><text x="1.002" y="8.183" class="f">▄</text><text x="3.006" y="8.183" class="g">Doing</text><text x="9.017999999999999" y="8.183" class="g">a</text><text x="11.021999999999998" y="8.183" class="g">lot</text><text x="15.029999999999998" y="8.183" class="g">of</text><text x="18.035999999999998" y="8.183" class="g">stuff...</text></svg><svg x="2800"><use xlink:href="#a"></use><use xlink:href="#5" y="0"></use><use xlink:href="#10" y="2.171"></use><use xlink:href="#15" y="4.342"></use><text x="0" y="8.183" class="f">▄</text><text x="3.006" y="8.183" class="g">Doing</text><text x="9.017999999999999" y="8.183" class="g">a</text><text x="11.021999999999998" y="8.183" class="g">lot</text><text x="15.029999999999998" y="8.183" class="g">of</text><text x="18.035999999999998" y="8.183" class="g">stuff...</text></svg><svg x="2880"><use xlink:href="#a"></use><use xlink:href="#5" y="0"></use><use xlink:href="#10" y="2.171"></use><use xlink:href="#15" y="4.342"></use><use xlink:href="#16" y="6.513"></use></svg><svg x="2960"><use xlink:href="#a"></use><use xlink:href="#5" y="0"></use><use xlink:href="#10" y="2.171"></use><use xlink:href="#15" y="4.342"></use><use xlink:href="#16" y="6.513"></use></svg><svg x="3040"><use xlink:href="#a"></use><use xlink:href="#5" y="0"></use><use xlink:href="#10" y="2.171"></use><use xlink:href="#15" y="4.342"></use><use xlink:href="#17" y="6.513"></use></svg><svg x="3120"><use xlink:href="#a"></use><use xlink:href="#5" y="0"></use><use xlink:href="#10" y="2.171"></use><use xlink:href="#15" y="4.342"></use><text x="1.002" y="8.183" class="f">▄</text><text x="3.006" y="8.183" class="g">It&#x27;s</text><text x="8.016" y="8.183" class="g">really</text><text x="15.029999999999998" y="8.183" class="g">muchtuff...</text></svg><svg x="3200"><use xlink:href="#a"></use><use xlink:href="#5" y="0"></use><use xlink:href="#10" y="2.171"></use><use xlink:href="#15" y="4.342"></use><text x="0" y="8.183" class="f">▄</text><text x="3.006" y="8.183" class="g">It&#x27;s</text><text x="8.016" y="8.183" class="g">really</text><text x="15.029999999999998" y="8.183" class="g">muchtuff...</text></svg><svg x="3280"><use xlink:href="#a"></use><use xlink:href="#5" y="0"></use><use xlink:href="#10" y="2.171"></use><use xlink:href="#15" y="4.342"></use><text x="0" y="8.183" class="f">▀</text><text x="3.006" y="8.183" class="g">It&#x27;s</text><text x="8.016" y="8.183" class="g">really</text><text x="15.029999999999998" y="8.183" class="g">muchtuff...</text></svg><svg x="3360"><use xlink:href="#a"></use><use xlink:href="#5" y="0"></use><use xlink:href="#10" y="2.171"></use><use xlink:href="#15" y="4.342"></use><use xlink:href="#17" y="6.513"></use></svg><svg x="3440"><use xlink:href="#a"></use><use xlink:href="#5" y="0"></use><use xlink:href="#10" y="2.171"></use><use xlink:href="#15" y="4.342"></use><text x="1.002" y="8.183" class="f">▀</text><text x="3.006" y="8.183" class="g">It&#x27;s</text><text x="8.016" y="8.183" class="g">really</text><text x="15.029999999999998" y="8.183" class="g">much</text></svg><svg x="3520"><use xlink:href="#a"></use><use xlink:href="#5" y="0"></use><use xlink:href="#10" y="2.171"></use><use xlink:href="#15" y="4.342"></use><use xlink:href="#18" y="6.513"></use></svg><svg x="3600"><use xlink:href="#a"></use><use xlink:href="#5" y="0"></use><use xlink:href="#10" y="2.171"></use><use xlink:href="#15" y="4.342"></use><text x="0" y="8.183" class="f">▄</text><text x="3.006" y="8.183" class="g">We&#x27;re</text><text x="9.017999999999999" y="8.183" class="g">nearly</text><text x="16.032" y="8.183" class="g">done!</text></svg><svg x="3680"><use xlink:href="#a"></use><use xlink:href="#5" y="0"></use><use xlink:href="#10" y="2.171"></use><use xlink:href="#15" y="4.342"></use><text x="0" y="8.183" class="f">▀</text><text x="3.006" y="8.183" class="g">We&#x27;re</text><text x="9.017999999999999" y="8.183" class="g">nearly</text><text x="16.032" y="8.183" class="g">done!</text></svg><svg x="3760"><use xlink:href="#a"></use><use xlink:href="#5" y="0"></use><use xlink:href="#10" y="2.171"></use><use xlink:href="#15" y="4.342"></use><text x="1.002" y="8.183" class="f">▀</text><text x="3.006" y="8.183" class="g">We&#x27;re</text><text x="9.017999999999999" y="8.183" class="g">nearly</text><text x="16.032" y="8.183" class="g">done!</text></svg><svg x="3840"><use xlink:href="#a"></use><use xlink:href="#5" y="0"></use><use xlink:href="#10" y="2.171"></use><use xlink:href="#15" y="4.342"></use><use xlink:href="#18" y="6.513"></use></svg><svg x="3920"><use xlink:href="#a"></use><use xlink:href="#5" y="0"></use><use xlink:href="#10" y="2.171"></use><use xlink:href="#15" y="4.342"></use></svg><svg x="4000"><use xlink:href="#a"></use><use xlink:href="#5" y="0"></use><use xlink:href="#10" y="2.171"></use><use xlink:href="#15" y="4.342"></use><use xlink:href="#19" y="6.513"></use></svg><svg x="4080"><use xlink:href="#a"></use><use xlink:href="#5" y="0"></use><use xlink:href="#10" y="2.171"></use><use xlink:href="#15" y="4.342"></use><use xlink:href="#19" y="6.513"></use><text x="0" y="12.525" class="r">Restarting</text><text x="11.021999999999998" y="12.525" class="r">animation...</text></svg></svg></g></g></svg></svg>