<svg xmlns="http://www.w3.org/2000/svg" xmlns:xlink="http://www.w3.org/1999/xlink" width="2360" height="320.52"><rect width="2360" height="320.52" rx="5" ry="5" class="a"></rect><svg y="0%" x="0%"><circle cx="20" cy="20" r="6" class="b"></circle><circle cx="40" cy="20" r="6" class="c"></circle><circle cx="60" cy="20" r="6" class="d"></circle></svg><svg height="260.52" viewBox="0 0 232 26.052" width="2320" x="15" xmlns="http://www.w3.org/2000/svg" xmlns:xlink="http://www.w3.org/1999/xlink" y="50"><style>.a{fill:rgb(35,35,35)}.b{fill:#ff5f58}.c{fill:#ffbd2e}.d{fill:#18c132}.e{font-family:Monaco,Consolas,Menlo,'Bitstream Vera Sans Mono','Powerline Symbols',monospace}.f{fill:rgb(126,231,233);white-space:pre}.g{fill:rgb(255,255,255);white-space:pre}.h{fill:rgb(168,204,140)}.i{white-space:pre}.j{fill:rgb(124,255,0);white-space:pre}.k{fill:rgb(219,171,121)}.l{fill:rgb(255,241,0);white-space:pre}.m{fill:rgb(232,131,136)}.n{fill:rgb(243,86,86);white-space:pre}.o{fill:transparent}.p{fill:rgb(160,160,160)}.r{animation-duration:20.570735s;animation-iteration-count:infinite;animation-name:q;animation-timing-function:steps(1,end)}.s{fill:rgb(160,160,160);white-space:pre}@keyframes q{0%{transform:translateX(-0px)}2.76%{transform:translateX(-232px)}3.73%{transform:translateX(-464px)}4.71%{transform:translateX(-696px)}5.68%{transform:translateX(-928px)}6.66%{transform:translateX(-1160px)}7.63%{transform:translateX(-1392px)}8.61%{transform:translateX(-1624px)}9.59%{transform:translateX(-1856px)}10.56%{transform:translateX(-2088px)}11.54%{transform:translateX(-2320px)}12.52%{transform:translateX(-2552px)}13.5%{transform:translateX(-2784px)}14.47%{transform:translateX(-3016px)}15.45%{transform:translateX(-3248px)}16.43%{transform:translateX(-3480px)}17.35%{transform:translateX(-3712px)}17.35%{transform:translateX(-3944px)}18.32%{transform:translateX(-4176px)}19.3%{transform:translateX(-4408px)}20.27%{transform:translateX(-4640px)}21.25%{transform:translateX(-4872px)}22.22%{transform:translateX(-5104px)}23.2%{transform:translateX(-5336px)}24.18%{transform:translateX(-5568px)}25.16%{transform:translateX(-5800px)}26.13%{transform:translateX(-6032px)}27.11%{transform:translateX(-6264px)}28.08%{transform:translateX(-6496px)}29.06%{transform:translateX(-6728px)}30.03%{transform:translateX(-6960px)}31.01%{transform:translateX(-7192px)}31.93%{transform:translateX(-7424px)}31.93%{transform:translateX(-7656px)}32.91%{transform:translateX(-7888px)}33.89%{transform:translateX(-8120px)}34.87%{transform:translateX(-8352px)}35.84%{transform:translateX(-8584px)}36.81%{transform:translateX(-8816px)}37.79%{transform:translateX(-9048px)}38.76%{transform:translateX(-9280px)}39.74%{transform:translateX(-9512px)}40.72%{transform:translateX(-9744px)}41.7%{transform:translateX(-9976px)}42.67%{transform:translateX(-10208px)}43.65%{transform:translateX(-10440px)}44.62%{transform:translateX(-10672px)}45.6%{transform:translateX(-10904px)}46.52%{transform:translateX(-11136px)}46.52%{transform:translateX(-11368px)}47.49%{transform:translateX(-11600px)}48.47%{transform:translateX(-11832px)}49.45%{transform:translateX(-12064px)}50.42%{transform:translateX(-12296px)}51.4%{transform:translateX(-12528px)}52.38%{transform:translateX(-12760px)}53.36%{transform:translateX(-12992px)}54.33%{transform:translateX(-13224px)}55.31%{transform:translateX(-13456px)}56.24%{transform:translateX(-13688px)}56.28%{transform:translateX(-13920px)}57.25%{transform:translateX(-14152px)}58.23%{transform:translateX(-14384px)}59.21%{transform:translateX(-14616px)}60.19%{transform:translateX(-14848px)}61.16%{transform:translateX(-15080px)}62.14%{transform:translateX(-15312px)}63.12%{transform:translateX(-15544px)}64.09%{transform:translateX(-15776px)}65.07%{transform:translateX(-16008px)}65.97%{transform:translateX(-16240px)}66.05%{transform:translateX(-16472px)}67.02%{transform:translateX(-16704px)}68%{transform:translateX(-16936px)}68.98%{transform:translateX(-17168px)}69.95%{transform:translateX(-17400px)}70.92%{transform:translateX(-17632px)}71.9%{transform:translateX(-17864px)}72.87%{transform:translateX(-18096px)}73.85%{transform:translateX(-18328px)}74.83%{transform:translateX(-18560px)}75.69%{transform:translateX(-18792px)}100%{transform:translateX(-19024px)}}</style><g font-family="Monaco, Consolas, Menlo, &#x27;Bitstream Vera Sans Mono&#x27;, &#x27;Powerline Symbols&#x27;, monospace" font-size="1.67" class="e"><defs><symbol id="1"><text x="0" y="1.67" class="f">▀</text><text x="3.006" y="1.67" class="g">Doing</text><text x="9.017999999999999" y="1.67" class="g">something</text><text x="19.037999999999997" y="1.67" class="g">important...</text><text x="32.064" y="1.67" class="g">(will</text><text x="38.07599999999999" y="1.67" class="g">succeed)</text></symbol><symbol id="2"><text x="1.002" y="1.67" class="f">▀</text><text x="3.006" y="1.67" class="g">Doing</text><text x="9.017999999999999" y="1.67" class="g">something</text><text x="19.037999999999997" y="1.67" class="g">important...</text><text x="32.064" y="1.67" class="g">(will</text><text x="38.07599999999999" y="1.67" class="g">succeed)</text></symbol><symbol id="3"><text x="1.002" y="1.67" class="f">▄</text><text x="3.006" y="1.67" class="g">Doing</text><text x="9.017999999999999" y="1.67" class="g">something</text><text x="19.037999999999997" y="1.67" class="g">important...</text><text x="32.064" y="1.67" class="g">(will</text><text x="38.07599999999999" y="1.67" class="g">succeed)</text></symbol><symbol id="4"><text x="0" y="1.67" class="f">▄</text><text x="3.006" y="1.67" class="g">Doing</text><text x="9.017999999999999" y="1.67" class="g">something</text><text x="19.037999999999997" y="1.67" class="g">important...</text><text x="32.064" y="1.67" class="g">(will</text><text x="38.07599999999999" y="1.67" class="g">succeed)</text></symbol><symbol id="5"><rect height="2.171" width="9" x="0" y="0" class="h"></rect><text x="0" y="1.67" class="i"> SUCCESS </text><text x="10.02" y="1.67" class="j">Doing</text><text x="16.032" y="1.67" class="j">something</text><text x="26.052" y="1.67" class="j">important...</text><text x="39.077999999999996" y="1.67" class="j">(will</text><text x="45.089999999999996" y="1.67" class="j">succeed)</text></symbol><symbol id="6"><text x="0" y="1.67" class="f">▀</text><text x="3.006" y="1.67" class="g">Doing</text><text x="9.017999999999999" y="1.67" class="g">something</text><text x="19.037999999999997" y="1.67" class="g">important...</text><text x="32.064" y="1.67" class="g">(will</text><text x="38.07599999999999" y="1.67" class="g">warn)</text></symbol><symbol id="7"><text x="1.002" y="1.67" class="f">▀</text><text x="3.006" y="1.67" class="g">Doing</text><text x="9.017999999999999" y="1.67" class="g">something</text><text x="19.037999999999997" y="1.67" class="g">important...</text><text x="32.064" y="1.67" class="g">(will</text><text x="38.07599999999999" y="1.67" class="g">warn)</text></symbol><symbol id="8"><text x="1.002" y="1.67" class="f">▄</text><text x="3.006" y="1.67" class="g">Doing</text><text x="9.017999999999999" y="1.67" class="g">something</text><text x="19.037999999999997" y="1.67" class="g">important...</text><text x="32.064" y="1.67" class="g">(will</text><text x="38.07599999999999" y="1.67" class="g">warn)</text></symbol><symbol id="9"><text x="0" y="1.67" class="f">▄</text><text x="3.006" y="1.67" class="g">Doing</text><text x="9.017999999999999" y="1.67" class="g">something</text><text x="19.037999999999997" y="1.67" class="g">important...</text><text x="32.064" y="1.67" class="g">(will</text><text x="38.07599999999999" y="1.67" class="g">warn)</text></symbol><symbol id="10"><rect height="2.171" width="9" x="0" y="0" class="k"></rect><text x="0" y="1.67" class="i"> WARNING </text><text x="10.02" y="1.67" class="l">Doing</text><text x="16.032" y="1.67" class="l">something</text><text x="26.052" y="1.67" class="l">important...</text><text x="39.077999999999996" y="1.67" class="l">(will</text><text x="45.089999999999996" y="1.67" class="l">warn)</text></symbol><symbol id="11"><text x="0" y="1.67" class="f">▀</text><text x="3.006" y="1.67" class="g">Doing</text><text x="9.017999999999999" y="1.67" class="g">something</text><text x="19.037999999999997" y="1.67" class="g">important...</text><text x="32.064" y="1.67" class="g">(will</text><text x="38.07599999999999" y="1.67" class="g">fail)</text></symbol><symbol id="12"><text x="1.002" y="1.67" class="f">▀</text><text x="3.006" y="1.67" class="g">Doing</text><text x="9.017999999999999" y="1.67" class="g">something</text><text x="19.037999999999997" y="1.67" class="g">important...</text><text x="32.064" y="1.67" class="g">(will</text><text x="38.07599999999999" y="1.67" class="g">fail)</text></symbol><symbol id="13"><text x="1.002" y="1.67" class="f">▄</text><text x="3.006" y="1.67" class="g">Doing</text><text x="9.017999999999999" y="1.67" class="g">something</text><text x="19.037999999999997" y="1.67" class="g">important...</text><text x="32.064" y="1.67" class="g">(will</text><text x="38.07599999999999" y="1.67" class="g">fail)</text></symbol><symbol id="14"><text x="0" y="1.67" class="f">▄</text><text x="3.006" y="1.67" class="g">Doing</text><text x="9.017999999999999" y="1.67" class="g">something</text><text x="19.037999999999997" y="1.67" class="g">important...</text><text x="32.064" y="1.67" class="g">(will</text><text x="38.07599999999999" y="1.67" class="g">fail)</text></symbol><symbol id="15"><rect height="2.171" width="7" x="0" y="0" class="m"></rect><text x="0" y="1.67" class="i"> ERROR </text><text x="8.016" y="1.67" class="n">Doing</text><text x="14.027999999999999" y="1.67" class="n">something</text><text x="24.048" y="1.67" class="n">important...</text><text x="37.074" y="1.67" class="n">(will</text><text x="43.086" y="1.67" class="n">fail)</text></symbol><symbol id="16"><text x="0" y="1.67" class="f">▀</text><text x="3.006" y="1.67" class="g">Doing</text><text x="9.017999999999999" y="1.67" class="g">a</text><text x="11.021999999999998" y="1.67" class="g">lot</text><text x="15.029999999999998" y="1.67" class="g">of</text><text x="18.035999999999998" y="1.67" class="g">stuff...</text></symbol><symbol id="17"><text x="1.002" y="1.67" class="f">▀</text><text x="3.006" y="1.67" class="g">Doing</text><text x="9.017999999999999" y="1.67" class="g">a</text><text x="11.021999999999998" y="1.67" class="g">lot</text><text x="15.029999999999998" y="1.67" class="g">of</text><text x="18.035999999999998" y="1.67" class="g">stuff...</text></symbol><symbol id="18"><text x="1.002" y="1.67" class="f">▄</text><text x="3.006" y="1.67" class="g">Doing</text><text x="9.017999999999999" y="1.67" class="g">a</text><text x="11.021999999999998" y="1.67" class="g">lot</text><text x="15.029999999999998" y="1.67" class="g">of</text><text x="18.035999999999998" y="1.67" class="g">stuff...</text></symbol><symbol id="19"><text x="0" y="1.67" class="f">▄</text><text x="3.006" y="1.67" class="g">Doing</text><text x="9.017999999999999" y="1.67" class="g">a</text><text x="11.021999999999998" y="1.67" class="g">lot</text><text x="15.029999999999998" y="1.67" class="g">of</text><text x="18.035999999999998" y="1.67" class="g">stuff...</text></symbol><symbol id="20"><text x="1.002" y="1.67" class="f">▄</text><text x="3.006" y="1.67" class="g">It&#x27;s</text><text x="8.016" y="1.67" class="g">really</text><text x="15.029999999999998" y="1.67" class="g">much</text></symbol><symbol id="21"><text x="0" y="1.67" class="f">▄</text><text x="3.006" y="1.67" class="g">It&#x27;s</text><text x="8.016" y="1.67" class="g">really</text><text x="15.029999999999998" y="1.67" class="g">much</text></symbol><symbol id="22"><text x="0" y="1.67" class="f">▀</text><text x="3.006" y="1.67" class="g">It&#x27;s</text><text x="8.016" y="1.67" class="g">really</text><text x="15.029999999999998" y="1.67" class="g">much</text></symbol><symbol id="23"><text x="1.002" y="1.67" class="f">▀</text><text x="3.006" y="1.67" class="g">It&#x27;s</text><text x="8.016" y="1.67" class="g">really</text><text x="15.029999999999998" y="1.67" class="g">much</text></symbol><symbol id="24"><text x="0" y="1.67" class="f">▀</text><text x="3.006" y="1.67" class="g">We&#x27;re</text><text x="9.017999999999999" y="1.67" class="g">nearly</text><text x="16.032" y="1.67" class="g">done!</text></symbol><symbol id="25"><text x="1.002" y="1.67" class="f">▀</text><text x="3.006" y="1.67" class="g">We&#x27;re</text><text x="9.017999999999999" y="1.67" class="g">nearly</text><text x="16.032" y="1.67" class="g">done!</text></symbol><symbol id="26"><text x="1.002" y="1.67" class="f">▄</text><text x="3.006" y="1.67" class="g">We&#x27;re</text><text x="9.017999999999999" y="1.67" class="g">nearly</text><text x="16.032" y="1.67" class="g">done!</text></symbol><symbol id="27"><text x="0" y="1.67" class="f">▄</text><text x="3.006" y="1.67" class="g">We&#x27;re</text><text x="9.017999999999999" y="1.67" class="g">nearly</text><text x="16.032" y="1.67" class="g">done!</text></symbol><symbol id="28"><rect height="2.171" width="9" x="0" y="0" class="h"></rect><text x="0" y="1.67" class="i"> SUCCESS </text><text x="10.02" y="1.67" class="j">Finally!</text></symbol><symbol id="a"><rect height="12" width="232" x="0" y="0" class="o"></rect></symbol><symbol id="b"><rect height="2.171" width="1.1022" class="p"></rect></symbol></defs><rect height="26.052" width="232" class="a"></rect><g class="r"><svg x="0" y="0" width="19256"><svg x="0"><use xlink:href="#a"></use><use xlink:href="#b" x="-0.0040000000000000036" y="0"></use></svg><svg x="232"><use xlink:href="#a"></use><use xlink:href="#b" x="45.996" y="0"></use><use xlink:href="#1" y="0"></use></svg><svg x="464"><use xlink:href="#a"></use><use xlink:href="#b" x="45.996" y="0"></use><use xlink:href="#2" y="0"></use></svg><svg x="696"><use xlink:href="#a"></use><use xlink:href="#b" x="45.996" y="0"></use><use xlink:href="#3" y="0"></use></svg><svg x="928"><use xlink:href="#a"></use><use xlink:href="#b" x="45.996" y="0"></use><use xlink:href="#4" y="0"></use></svg><svg x="1160"><use xlink:href="#a"></use><use xlink:href="#b" x="45.996" y="0"></use><use xlink:href="#1" y="0"></use></svg><svg x="1392"><use xlink:href="#a"></use><use xlink:href="#b" x="45.996" y="0"></use><use xlink:href="#2" y="0"></use></svg><svg x="1624"><use xlink:href="#a"></use><use xlink:href="#b" x="45.996" y="0"></use><use xlink:href="#3" y="0"></use></svg><svg x="1856"><use xlink:href="#a"></use><use xlink:href="#b" x="45.996" y="0"></use><use xlink:href="#4" y="0"></use></svg><svg x="2088"><use xlink:href="#a"></use><use xlink:href="#b" x="45.996" y="0"></use><use xlink:href="#1" y="0"></use></svg><svg x="2320"><use xlink:href="#a"></use><use xlink:href="#b" x="45.996" y="0"></use><use xlink:href="#2" y="0"></use></svg><svg x="2552"><use xlink:href="#a"></use><use xlink:href="#b" x="45.996" y="0"></use><use xlink:href="#3" y="0"></use></svg><svg x="2784"><use xlink:href="#a"></use><use xlink:href="#b" x="45.996" y="0"></use><use xlink:href="#4" y="0"></use></svg><svg x="3016"><use xlink:href="#a"></use><use xlink:href="#b" x="45.996" y="0"></use><use xlink:href="#1" y="0"></use></svg><svg x="3248"><use xlink:href="#a"></use><use xlink:href="#b" x="45.996" y="0"></use><use xlink:href="#2" y="0"></use></svg><svg x="3480"><use xlink:href="#a"></use><use xlink:href="#b" x="45.996" y="0"></use><use xlink:href="#3" y="0"></use></svg><svg x="3712"><use xlink:href="#a"></use><use xlink:href="#b" x="79.996" y="0"></use></svg><svg x="3944"><use xlink:href="#a"></use><use xlink:href="#b" x="42.996" y="2.146"></use><use xlink:href="#5" y="0"></use><use xlink:href="#6" y="2.171"></use></svg><svg x="4176"><use xlink:href="#a"></use><use xlink:href="#b" x="42.996" y="2.146"></use><use xlink:href="#5" y="0"></use><use xlink:href="#7" y="2.171"></use></svg><svg x="4408"><use xlink:href="#a"></use><use xlink:href="#b" x="42.996" y="2.146"></use><use xlink:href="#5" y="0"></use><use xlink:href="#8" y="2.171"></use></svg><svg x="4640"><use xlink:href="#a"></use><use xlink:href="#b" x="42.996" y="2.146"></use><use xlink:href="#5" y="0"></use><use xlink:href="#9" y="2.171"></use></svg><svg x="4872"><use xlink:href="#a"></use><use xlink:href="#b" x="42.996" y="2.146"></use><use xlink:href="#5" y="0"></use><use xlink:href="#6" y="2.171"></use></svg><svg x="5104"><use xlink:href="#a"></use><use xlink:href="#b" x="42.996" y="2.146"></use><use xlink:href="#5" y="0"></use><use xlink:href="#7" y="2.171"></use></svg><svg x="5336"><use xlink:href="#a"></use><use xlink:href="#b" x="42.996" y="2.146"></use><use xlink:href="#5" y="0"></use><use xlink:href="#8" y="2.171"></use></svg><svg x="5568"><use xlink:href="#a"></use><use xlink:href="#b" x="42.996" y="2.146"></use><use xlink:href="#5" y="0"></use><use xlink:href="#9" y="2.171"></use></svg><svg x="5800"><use xlink:href="#a"></use><use xlink:href="#b" x="42.996" y="2.146"></use><use xlink:href="#5" y="0"></use><use xlink:href="#6" y="2.171"></use></svg><svg x="6032"><use xlink:href="#a"></use><use xlink:href="#b" x="42.996" y="2.146"></use><use xlink:href="#5" y="0"></use><use xlink:href="#7" y="2.171"></use></svg><svg x="6264"><use xlink:href="#a"></use><use xlink:href="#b" x="42.996" y="2.146"></use><use xlink:href="#5" y="0"></use><use xlink:href="#8" y="2.171"></use></svg><svg x="6496"><use xlink:href="#a"></use><use xlink:href="#b" x="42.996" y="2.146"></use><use xlink:href="#5" y="0"></use><use xlink:href="#9" y="2.171"></use></svg><svg x="6728"><use xlink:href="#a"></use><use xlink:href="#b" x="42.996" y="2.146"></use><use xlink:href="#5" y="0"></use><use xlink:href="#6" y="2.171"></use></svg><svg x="6960"><use xlink:href="#a"></use><use xlink:href="#b" x="42.996" y="2.146"></use><use xlink:href="#5" y="0"></use><use xlink:href="#7" y="2.171"></use></svg><svg x="7192"><use xlink:href="#a"></use><use xlink:href="#b" x="42.996" y="2.146"></use><use xlink:href="#5" y="0"></use><use xlink:href="#8" y="2.171"></use></svg><svg x="7424"><use xlink:href="#a"></use><use xlink:href="#b" x="79.996" y="2.146"></use><use xlink:href="#5" y="0"></use></svg><svg x="7656"><use xlink:href="#a"></use><use xlink:href="#b" x="42.996" y="4.317"></use><use xlink:href="#5" y="0"></use><use xlink:href="#10" y="2.171"></use><use xlink:href="#11" y="4.342"></use></svg><svg x="7888"><use xlink:href="#a"></use><use xlink:href="#b" x="42.996" y="4.317"></use><use xlink:href="#5" y="0"></use><use xlink:href="#10" y="2.171"></use><use xlink:href="#12" y="4.342"></use></svg><svg x="8120"><use xlink:href="#a"></use><use xlink:href="#b" x="42.996" y="4.317"></use><use xlink:href="#5" y="0"></use><use xlink:href="#10" y="2.171"></use><use xlink:href="#13" y="4.342"></use></svg><svg x="8352"><use xlink:href="#a"></use><use xlink:href="#b" x="42.996" y="4.317"></use><use xlink:href="#5" y="0"></use><use xlink:href="#10" y="2.171"></use><use xlink:href="#14" y="4.342"></use></svg><svg x="8584"><use xlink:href="#a"></use><use xlink:href="#b" x="42.996" y="4.317"></use><use xlink:href="#5" y="0"></use><use xlink:href="#10" y="2.171"></use><use xlink:href="#11" y="4.342"></use></svg><svg x="8816"><use xlink:href="#a"></use><use xlink:href="#b" x="42.996" y="4.317"></use><use xlink:href="#5" y="0"></use><use xlink:href="#10" y="2.171"></use><use xlink:href="#12" y="4.342"></use></svg><svg x="9048"><use xlink:href="#a"></use><use xlink:href="#b" x="42.996" y="4.317"></use><use xlink:href="#5" y="0"></use><use xlink:href="#10" y="2.171"></use><use xlink:href="#13" y="4.342"></use></svg><svg x="9280"><use xlink:href="#a"></use><use xlink:href="#b" x="42.996" y="4.317"></use><use xlink:href="#5" y="0"></use><use xlink:href="#10" y="2.171"></use><use xlink:href="#14" y="4.342"></use></svg><svg x="9512"><use xlink:href="#a"></use><use xlink:href="#b" x="42.996" y="4.317"></use><use xlink:href="#5" y="0"></use><use xlink:href="#10" y="2.171"></use><use xlink:href="#11" y="4.342"></use></svg><svg x="9744"><use xlink:href="#a"></use><use xlink:href="#b" x="42.996" y="4.317"></use><use xlink:href="#5" y="0"></use><use xlink:href="#10" y="2.171"></use><use xlink:href="#12" y="4.342"></use></svg><svg x="9976"><use xlink:href="#a"></use><use xlink:href="#b" x="42.996" y="4.317"></use><use xlink:href="#5" y="0"></use><use xlink:href="#10" y="2.171"></use><use xlink:href="#13" y="4.342"></use></svg><svg x="10208"><use xlink:href="#a"></use><use xlink:href="#b" x="42.996" y="4.317"></use><use xlink:href="#5" y="0"></use><use xlink:href="#10" y="2.171"></use><use xlink:href="#14" y="4.342"></use></svg><svg x="10440"><use xlink:href="#a"></use><use xlink:href="#b" x="42.996" y="4.317"></use><use xlink:href="#5" y="0"></use><use xlink:href="#10" y="2.171"></use><use xlink:href="#11" y="4.342"></use></svg><svg x="10672"><use xlink:href="#a"></use><use xlink:href="#b" x="42.996" y="4.317"></use><use xlink:href="#5" y="0"></use><use xlink:href="#10" y="2.171"></use><use xlink:href="#12" y="4.342"></use></svg><svg x="10904"><use xlink:href="#a"></use><use xlink:href="#b" x="42.996" y="4.317"></use><use xlink:href="#5" y="0"></use><use xlink:href="#10" y="2.171"></use><use xlink:href="#13" y="4.342"></use></svg><svg x="11136"><use xlink:href="#a"></use><use xlink:href="#b" x="79.996" y="4.317"></use><use xlink:href="#5" y="0"></use><use xlink:href="#10" y="2.171"></use></svg><svg x="11368"><use xlink:href="#a"></use><use xlink:href="#b" x="25.996" y="6.4879999999999995"></use><use xlink:href="#5" y="0"></use><use xlink:href="#10" y="2.171"></use><use xlink:href="#15" y="4.342"></use><use xlink:href="#16" y="6.513"></use></svg><svg x="11600"><use xlink:href="#a"></use><use xlink:href="#b" x="25.996" y="6.4879999999999995"></use><use xlink:href="#5" y="0"></use><use xlink:href="#10" y="2.171"></use><use xlink:href="#15" y="4.342"></use><use xlink:href="#17" y="6.513"></use></svg><svg x="11832"><use xlink:href="#a"></use><use xlink:href="#b" x="25.996" y="6.4879999999999995"></use><use xlink:href="#5" y="0"></use><use xlink:href="#10" y="2.171"></use><use xlink:href="#15" y="4.342"></use><use xlink:href="#18" y="6.513"></use></svg><svg x="12064"><use xlink:href="#a"></use><use xlink:href="#b" x="25.996" y="6.4879999999999995"></use><use xlink:href="#5" y="0"></use><use xlink:href="#10" y="2.171"></use><use xlink:href="#15" y="4.342"></use><use xlink:href="#19" y="6.513"></use></svg><svg x="12296"><use xlink:href="#a"></use><use xlink:href="#b" x="25.996" y="6.4879999999999995"></use><use xlink:href="#5" y="0"></use><use xlink:href="#10" y="2.171"></use><use xlink:href="#15" y="4.342"></use><use xlink:href="#16" y="6.513"></use></svg><svg x="12528"><use xlink:href="#a"></use><use xlink:href="#b" x="25.996" y="6.4879999999999995"></use><use xlink:href="#5" y="0"></use><use xlink:href="#10" y="2.171"></use><use xlink:href="#15" y="4.342"></use><use xlink:href="#17" y="6.513"></use></svg><svg x="12760"><use xlink:href="#a"></use><use xlink:href="#b" x="25.996" y="6.4879999999999995"></use><use xlink:href="#5" y="0"></use><use xlink:href="#10" y="2.171"></use><use xlink:href="#15" y="4.342"></use><use xlink:href="#18" y="6.513"></use></svg><svg x="12992"><use xlink:href="#a"></use><use xlink:href="#b" x="25.996" y="6.4879999999999995"></use><use xlink:href="#5" y="0"></use><use xlink:href="#10" y="2.171"></use><use xlink:href="#15" y="4.342"></use><use xlink:href="#19" y="6.513"></use></svg><svg x="13224"><use xlink:href="#a"></use><use xlink:href="#b" x="25.996" y="6.4879999999999995"></use><use xlink:href="#5" y="0"></use><use xlink:href="#10" y="2.171"></use><use xlink:href="#15" y="4.342"></use><use xlink:href="#16" y="6.513"></use></svg><svg x="13456"><use xlink:href="#a"></use><use xlink:href="#b" x="25.996" y="6.4879999999999995"></use><use xlink:href="#5" y="0"></use><use xlink:href="#10" y="2.171"></use><use xlink:href="#15" y="4.342"></use><use xlink:href="#17" y="6.513"></use></svg><svg x="13688"><use xlink:href="#a"></use><use xlink:href="#b" x="79.996" y="6.4879999999999995"></use><use xlink:href="#5" y="0"></use><use xlink:href="#10" y="2.171"></use><use xlink:href="#15" y="4.342"></use></svg><svg x="13920"><use xlink:href="#a"></use><use xlink:href="#b" x="18.996" y="6.4879999999999995"></use><use xlink:href="#5" y="0"></use><use xlink:href="#10" y="2.171"></use><use xlink:href="#15" y="4.342"></use><use xlink:href="#20" y="6.513"></use></svg><svg x="14152"><use xlink:href="#a"></use><use xlink:href="#b" x="18.996" y="6.4879999999999995"></use><use xlink:href="#5" y="0"></use><use xlink:href="#10" y="2.171"></use><use xlink:href="#15" y="4.342"></use><use xlink:href="#21" y="6.513"></use></svg><svg x="14384"><use xlink:href="#a"></use><use xlink:href="#b" x="18.996" y="6.4879999999999995"></use><use xlink:href="#5" y="0"></use><use xlink:href="#10" y="2.171"></use><use xlink:href="#15" y="4.342"></use><use xlink:href="#22" y="6.513"></use></svg><svg x="14616"><use xlink:href="#a"></use><use xlink:href="#b" x="18.996" y="6.4879999999999995"></use><use xlink:href="#5" y="0"></use><use xlink:href="#10" y="2.171"></use><use xlink:href="#15" y="4.342"></use><use xlink:href="#23" y="6.513"></use></svg><svg x="14848"><use xlink:href="#a"></use><use xlink:href="#b" x="18.996" y="6.4879999999999995"></use><use xlink:href="#5" y="0"></use><use xlink:href="#10" y="2.171"></use><use xlink:href="#15" y="4.342"></use><use xlink:href="#20" y="6.513"></use></svg><svg x="15080"><use xlink:href="#a"></use><use xlink:href="#b" x="18.996" y="6.4879999999999995"></use><use xlink:href="#5" y="0"></use><use xlink:href="#10" y="2.171"></use><use xlink:href="#15" y="4.342"></use><use xlink:href="#21" y="6.513"></use></svg><svg x="15312"><use xlink:href="#a"></use><use xlink:href="#b" x="18.996" y="6.4879999999999995"></use><use xlink:href="#5" y="0"></use><use xlink:href="#10" y="2.171"></use><use xlink:href="#15" y="4.342"></use><use xlink:href="#22" y="6.513"></use></svg><svg x="15544"><use xlink:href="#a"></use><use xlink:href="#b" x="18.996" y="6.4879999999999995"></use><use xlink:href="#5" y="0"></use><use xlink:href="#10" y="2.171"></use><use xlink:href="#15" y="4.342"></use><use xlink:href="#23" y="6.513"></use></svg><svg x="15776"><use xlink:href="#a"></use><use xlink:href="#b" x="18.996" y="6.4879999999999995"></use><use xlink:href="#5" y="0"></use><use xlink:href="#10" y="2.171"></use><use xlink:href="#15" y="4.342"></use><use xlink:href="#20" y="6.513"></use></svg><svg x="16008"><use xlink:href="#a"></use><use xlink:href="#b" x="18.996" y="6.4879999999999995"></use><use xlink:href="#5" y="0"></use><use xlink:href="#10" y="2.171"></use><use xlink:href="#15" y="4.342"></use><use xlink:href="#21" y="6.513"></use></svg><svg x="16240"><use xlink:href="#a"></use><use xlink:href="#b" x="79.996" y="6.4879999999999995"></use><use xlink:href="#5" y="0"></use><use xlink:href="#10" y="2.171"></use><use xlink:href="#15" y="4.342"></use></svg><svg x="16472"><use xlink:href="#a"></use><use xlink:href="#b" x="20.996" y="6.4879999999999995"></use><use xlink:href="#5" y="0"></use><use xlink:href="#10" y="2.171"></use><use xlink:href="#15" y="4.342"></use><use xlink:href="#24" y="6.513"></use></svg><svg x="16704"><use xlink:href="#a"></use><use xlink:href="#b" x="20.996" y="6.4879999999999995"></use><use xlink:href="#5" y="0"></use><use xlink:href="#10" y="2.171"></use><use xlink:href="#15" y="4.342"></use><use xlink:href="#25" y="6.513"></use></svg><svg x="16936"><use xlink:href="#a"></use><use xlink:href="#b" x="20.996" y="6.4879999999999995"></use><use xlink:href="#5" y="0"></use><use xlink:href="#10" y="2.171"></use><use xlink:href="#15" y="4.342"></use><use xlink:href="#26" y="6.513"></use></svg><svg x="17168"><use xlink:href="#a"></use><use xlink:href="#b" x="20.996" y="6.4879999999999995"></use><use xlink:href="#5" y="0"></use><use xlink:href="#10" y="2.171"></use><use xlink:href="#15" y="4.342"></use><use xlink:href="#27" y="6.513"></use></svg><svg x="17400"><use xlink:href="#a"></use><use xlink:href="#b" x="20.996" y="6.4879999999999995"></use><use xlink:href="#5" y="0"></use><use xlink:href="#10" y="2.171"></use><use xlink:href="#15" y="4.342"></use><use xlink:href="#24" y="6.513"></use></svg><svg x="17632"><use xlink:href="#a"></use><use xlink:href="#b" x="20.996" y="6.4879999999999995"></use><use xlink:href="#5" y="0"></use><use xlink:href="#10" y="2.171"></use><use xlink:href="#15" y="4.342"></use><use xlink:href="#25" y="6.513"></use></svg><svg x="17864"><use xlink:href="#a"></use><use xlink:href="#b" x="20.996" y="6.4879999999999995"></use><use xlink:href="#5" y="0"></use><use xlink:href="#10" y="2.171"></use><use xlink:href="#15" y="4.342"></use><use xlink:href="#26" y="6.513"></use></svg><svg x="18096"><use xlink:href="#a"></use><use xlink:href="#b" x="20.996" y="6.4879999999999995"></use><use xlink:href="#5" y="0"></use><use xlink:href="#10" y="2.171"></use><use xlink:href="#15" y="4.342"></use><use xlink:href="#27" y="6.513"></use></svg><svg x="18328"><use xlink:href="#a"></use><use xlink:href="#b" x="20.996" y="6.4879999999999995"></use><use xlink:href="#5" y="0"></use><use xlink:href="#10" y="2.171"></use><use xlink:href="#15" y="4.342"></use><use xlink:href="#24" y="6.513"></use></svg><svg x="18560"><use xlink:href="#a"></use><use xlink:href="#b" x="20.996" y="6.4879999999999995"></use><use xlink:href="#5" y="0"></use><use xlink:href="#10" y="2.171"></use><use xlink:href="#15" y="4.342"></use><use xlink:href="#25" y="6.513"></use></svg><svg x="18792"><use xlink:href="#a"></use><use xlink:href="#b" x="-0.0040000000000000036" y="8.658999999999999"></use><use xlink:href="#5" y="0"></use><use xlink:href="#10" y="2.171"></use><use xlink:href="#15" y="4.342"></use><use xlink:href="#28" y="6.513"></use></svg><svg x="19024"><use xlink:href="#a"></use><use xlink:href="#b" x="-0.0040000000000000036" y="13.001"></use><use xlink:href="#5" y="0"></use><use xlink:href="#10" y="2.171"></use><use xlink:href="#15" y="4.342"></use><use xlink:href="#28" y="6.513"></use><text x="0" y="12.525" class="s">restarting...</text></svg></svg></g></g></svg></svg>