<svg xmlns="http://www.w3.org/2000/svg" xmlns:xlink="http://www.w3.org/1999/xlink" width="840" height="581.04"><rect width="840" height="581.04" rx="5" ry="5" class="a"></rect><svg y="0%" x="0%"><circle cx="20" cy="20" r="6" class="b"></circle><circle cx="40" cy="20" r="6" class="c"></circle><circle cx="60" cy="20" r="6" class="d"></circle></svg><svg height="521.04" viewBox="0 0 80 52.104" width="800" x="15" xmlns="http://www.w3.org/2000/svg" xmlns:xlink="http://www.w3.org/1999/xlink" y="50"><style>.a{fill:rgb(40,45,53)}.b{fill:#ff5f58}.c{fill:#ffbd2e}.d{fill:#18c132}.e{font-family:Monaco,Consolas,Menlo,'Bitstream Vera Sans Mono','Powerline Symbols',monospace}.f{fill:rgb(102,194,205);white-space:pre}.g{fill:rgb(255,255,255);white-space:pre}.h{fill:rgb(168,204,140)}.i{white-space:pre}.j{fill:rgb(168,204,140);white-space:pre}.k{fill:rgb(219,171,121)}.l{fill:rgb(219,171,121);white-space:pre}.m{fill:rgb(232,131,136)}.n{fill:rgb(232,131,136);white-space:pre}.o{fill:transparent}.p{fill:rgb(111,118,131)}.r{animation-duration:21.368459s;animation-iteration-count:infinite;animation-name:q;animation-timing-function:steps(1,end)}.s{fill:rgb(185,192,203);white-space:pre}@keyframes q{0%{transform:translateX(-0px)}6.39%{transform:translateX(-80px)}7.33%{transform:translateX(-160px)}8.26%{transform:translateX(-240px)}9.2%{transform:translateX(-320px)}10.14%{transform:translateX(-400px)}11.08%{transform:translateX(-480px)}12.01%{transform:translateX(-560px)}12.95%{transform:translateX(-640px)}13.89%{transform:translateX(-720px)}14.83%{transform:translateX(-800px)}15.76%{transform:translateX(-880px)}16.7%{transform:translateX(-960px)}17.64%{transform:translateX(-1040px)}18.58%{transform:translateX(-1120px)}19.51%{transform:translateX(-1200px)}20.43%{transform:translateX(-1280px)}20.43%{transform:translateX(-1360px)}21.37%{transform:translateX(-1440px)}22.31%{transform:translateX(-1520px)}23.24%{transform:translateX(-1600px)}24.18%{transform:translateX(-1680px)}25.12%{transform:translateX(-1760px)}26.06%{transform:translateX(-1840px)}26.99%{transform:translateX(-1920px)}27.93%{transform:translateX(-2000px)}28.87%{transform:translateX(-2080px)}29.81%{transform:translateX(-2160px)}30.74%{transform:translateX(-2240px)}31.68%{transform:translateX(-2320px)}32.62%{transform:translateX(-2400px)}33.55%{transform:translateX(-2480px)}34.47%{transform:translateX(-2560px)}34.47%{transform:translateX(-2640px)}35.41%{transform:translateX(-2720px)}36.35%{transform:translateX(-2800px)}37.28%{transform:translateX(-2880px)}38.22%{transform:translateX(-2960px)}39.16%{transform:translateX(-3040px)}40.09%{transform:translateX(-3120px)}41.03%{transform:translateX(-3200px)}41.97%{transform:translateX(-3280px)}42.9%{transform:translateX(-3360px)}43.84%{transform:translateX(-3440px)}44.78%{transform:translateX(-3520px)}45.72%{transform:translateX(-3600px)}46.65%{transform:translateX(-3680px)}47.59%{transform:translateX(-3760px)}48.51%{transform:translateX(-3840px)}48.51%{transform:translateX(-3920px)}49.45%{transform:translateX(-4000px)}50.39%{transform:translateX(-4080px)}51.32%{transform:translateX(-4160px)}52.26%{transform:translateX(-4240px)}53.2%{transform:translateX(-4320px)}54.13%{transform:translateX(-4400px)}55.07%{transform:translateX(-4480px)}56.01%{transform:translateX(-4560px)}56.95%{transform:translateX(-4640px)}57.88%{transform:translateX(-4720px)}57.88%{transform:translateX(-4800px)}58.82%{transform:translateX(-4880px)}59.76%{transform:translateX(-4960px)}60.69%{transform:translateX(-5040px)}61.63%{transform:translateX(-5120px)}62.57%{transform:translateX(-5200px)}63.51%{transform:translateX(-5280px)}64.44%{transform:translateX(-5360px)}65.38%{transform:translateX(-5440px)}66.32%{transform:translateX(-5520px)}67.24%{transform:translateX(-5600px)}67.25%{transform:translateX(-5680px)}68.19%{transform:translateX(-5760px)}69.13%{transform:translateX(-5840px)}70.06%{transform:translateX(-5920px)}71%{transform:translateX(-6000px)}71.94%{transform:translateX(-6080px)}72.87%{transform:translateX(-6160px)}73.81%{transform:translateX(-6240px)}74.75%{transform:translateX(-6320px)}75.69%{transform:translateX(-6400px)}76.6%{transform:translateX(-6480px)}100%{transform:translateX(-6560px)}}</style><g font-family="Monaco, Consolas, Menlo, &#x27;Bitstream Vera Sans Mono&#x27;, &#x27;Powerline Symbols&#x27;, monospace" font-size="1.67" class="e"><defs><symbol id="1"><text x="0" y="1.67" class="f">▀</text><text x="3.006" y="1.67" class="g">Doing</text><text x="9.017999999999999" y="1.67" class="g">something</text><text x="19.037999999999997" y="1.67" class="g">important...</text><text x="32.064" y="1.67" class="g">(will</text><text x="38.07599999999999" y="1.67" class="g">succeed)</text></symbol><symbol id="2"><text x="1.002" y="1.67" class="f">▀</text><text x="3.006" y="1.67" class="g">Doing</text><text x="9.017999999999999" y="1.67" class="g">something</text><text x="19.037999999999997" y="1.67" class="g">important...</text><text x="32.064" y="1.67" class="g">(will</text><text x="38.07599999999999" y="1.67" class="g">succeed)</text></symbol><symbol id="3"><text x="1.002" y="1.67" class="f">▄</text><text x="3.006" y="1.67" class="g">Doing</text><text x="9.017999999999999" y="1.67" class="g">something</text><text x="19.037999999999997" y="1.67" class="g">important...</text><text x="32.064" y="1.67" class="g">(will</text><text x="38.07599999999999" y="1.67" class="g">succeed)</text></symbol><symbol id="4"><text x="0" y="1.67" class="f">▄</text><text x="3.006" y="1.67" class="g">Doing</text><text x="9.017999999999999" y="1.67" class="g">something</text><text x="19.037999999999997" y="1.67" class="g">important...</text><text x="32.064" y="1.67" class="g">(will</text><text x="38.07599999999999" y="1.67" class="g">succeed)</text></symbol><symbol id="5"><rect height="2.171" width="9" x="0" y="0" class="h"></rect><text x="0" y="1.67" class="i"> SUCCESS </text><text x="10.02" y="1.67" class="j">Doing</text><text x="16.032" y="1.67" class="j">something</text><text x="26.052" y="1.67" class="j">important...</text><text x="39.077999999999996" y="1.67" class="j">(will</text><text x="45.089999999999996" y="1.67" class="j">succeed)</text></symbol><symbol id="6"><text x="0" y="1.67" class="f">▀</text><text x="3.006" y="1.67" class="g">Doing</text><text x="9.017999999999999" y="1.67" class="g">something</text><text x="19.037999999999997" y="1.67" class="g">important...</text><text x="32.064" y="1.67" class="g">(will</text><text x="38.07599999999999" y="1.67" class="g">warn)</text></symbol><symbol id="7"><text x="1.002" y="1.67" class="f">▀</text><text x="3.006" y="1.67" class="g">Doing</text><text x="9.017999999999999" y="1.67" class="g">something</text><text x="19.037999999999997" y="1.67" class="g">important...</text><text x="32.064" y="1.67" class="g">(will</text><text x="38.07599999999999" y="1.67" class="g">warn)</text></symbol><symbol id="8"><text x="1.002" y="1.67" class="f">▄</text><text x="3.006" y="1.67" class="g">Doing</text><text x="9.017999999999999" y="1.67" class="g">something</text><text x="19.037999999999997" y="1.67" class="g">important...</text><text x="32.064" y="1.67" class="g">(will</text><text x="38.07599999999999" y="1.67" class="g">warn)</text></symbol><symbol id="9"><text x="0" y="1.67" class="f">▄</text><text x="3.006" y="1.67" class="g">Doing</text><text x="9.017999999999999" y="1.67" class="g">something</text><text x="19.037999999999997" y="1.67" class="g">important...</text><text x="32.064" y="1.67" class="g">(will</text><text x="38.07599999999999" y="1.67" class="g">warn)</text></symbol><symbol id="10"><rect height="2.171" width="9" x="0" y="0" class="k"></rect><text x="0" y="1.67" class="i"> WARNING </text><text x="10.02" y="1.67" class="l">Doing</text><text x="16.032" y="1.67" class="l">something</text><text x="26.052" y="1.67" class="l">important...</text><text x="39.077999999999996" y="1.67" class="l">(will</text><text x="45.089999999999996" y="1.67" class="l">warn)</text></symbol><symbol id="11"><text x="0" y="1.67" class="f">▀</text><text x="3.006" y="1.67" class="g">Doing</text><text x="9.017999999999999" y="1.67" class="g">something</text><text x="19.037999999999997" y="1.67" class="g">important...</text><text x="32.064" y="1.67" class="g">(will</text><text x="38.07599999999999" y="1.67" class="g">fail)</text></symbol><symbol id="12"><text x="1.002" y="1.67" class="f">▀</text><text x="3.006" y="1.67" class="g">Doing</text><text x="9.017999999999999" y="1.67" class="g">something</text><text x="19.037999999999997" y="1.67" class="g">important...</text><text x="32.064" y="1.67" class="g">(will</text><text x="38.07599999999999" y="1.67" class="g">fail)</text></symbol><symbol id="13"><text x="1.002" y="1.67" class="f">▄</text><text x="3.006" y="1.67" class="g">Doing</text><text x="9.017999999999999" y="1.67" class="g">something</text><text x="19.037999999999997" y="1.67" class="g">important...</text><text x="32.064" y="1.67" class="g">(will</text><text x="38.07599999999999" y="1.67" class="g">fail)</text></symbol><symbol id="14"><text x="0" y="1.67" class="f">▄</text><text x="3.006" y="1.67" class="g">Doing</text><text x="9.017999999999999" y="1.67" class="g">something</text><text x="19.037999999999997" y="1.67" class="g">important...</text><text x="32.064" y="1.67" class="g">(will</text><text x="38.07599999999999" y="1.67" class="g">fail)</text></symbol><symbol id="15"><rect height="2.171" width="7" x="0" y="0" class="m"></rect><text x="0" y="1.67" class="i"> ERROR </text><text x="8.016" y="1.67" class="n">Doing</text><text x="14.027999999999999" y="1.67" class="n">something</text><text x="24.048" y="1.67" class="n">important...</text><text x="37.074" y="1.67" class="n">(will</text><text x="43.086" y="1.67" class="n">fail)</text></symbol><symbol id="16"><text x="0" y="1.67" class="f">▀</text><text x="3.006" y="1.67" class="g">Doing</text><text x="9.017999999999999" y="1.67" class="g">a</text><text x="11.021999999999998" y="1.67" class="g">lot</text><text x="15.029999999999998" y="1.67" class="g">of</text><text x="18.035999999999998" y="1.67" class="g">stuff...</text></symbol><symbol id="17"><text x="1.002" y="1.67" class="f">▀</text><text x="3.006" y="1.67" class="g">Doing</text><text x="9.017999999999999" y="1.67" class="g">a</text><text x="11.021999999999998" y="1.67" class="g">lot</text><text x="15.029999999999998" y="1.67" class="g">of</text><text x="18.035999999999998" y="1.67" class="g">stuff...</text></symbol><symbol id="18"><text x="1.002" y="1.67" class="f">▄</text><text x="3.006" y="1.67" class="g">Doing</text><text x="9.017999999999999" y="1.67" class="g">a</text><text x="11.021999999999998" y="1.67" class="g">lot</text><text x="15.029999999999998" y="1.67" class="g">of</text><text x="18.035999999999998" y="1.67" class="g">stuff...</text></symbol><symbol id="19"><text x="0" y="1.67" class="f">▄</text><text x="3.006" y="1.67" class="g">Doing</text><text x="9.017999999999999" y="1.67" class="g">a</text><text x="11.021999999999998" y="1.67" class="g">lot</text><text x="15.029999999999998" y="1.67" class="g">of</text><text x="18.035999999999998" y="1.67" class="g">stuff...</text></symbol><symbol id="20"><text x="1.002" y="1.67" class="f">▄</text><text x="3.006" y="1.67" class="g">It&#x27;s</text><text x="8.016" y="1.67" class="g">really</text><text x="15.029999999999998" y="1.67" class="g">much</text></symbol><symbol id="21"><text x="0" y="1.67" class="f">▄</text><text x="3.006" y="1.67" class="g">It&#x27;s</text><text x="8.016" y="1.67" class="g">really</text><text x="15.029999999999998" y="1.67" class="g">much</text></symbol><symbol id="22"><text x="0" y="1.67" class="f">▀</text><text x="3.006" y="1.67" class="g">It&#x27;s</text><text x="8.016" y="1.67" class="g">really</text><text x="15.029999999999998" y="1.67" class="g">much</text></symbol><symbol id="23"><text x="1.002" y="1.67" class="f">▀</text><text x="3.006" y="1.67" class="g">It&#x27;s</text><text x="8.016" y="1.67" class="g">really</text><text x="15.029999999999998" y="1.67" class="g">much</text></symbol><symbol id="24"><text x="0" y="1.67" class="f">▀</text><text x="3.006" y="1.67" class="g">We&#x27;re</text><text x="9.017999999999999" y="1.67" class="g">nearly</text><text x="16.032" y="1.67" class="g">done!</text></symbol><symbol id="25"><text x="1.002" y="1.67" class="f">▀</text><text x="3.006" y="1.67" class="g">We&#x27;re</text><text x="9.017999999999999" y="1.67" class="g">nearly</text><text x="16.032" y="1.67" class="g">done!</text></symbol><symbol id="26"><text x="1.002" y="1.67" class="f">▄</text><text x="3.006" y="1.67" class="g">We&#x27;re</text><text x="9.017999999999999" y="1.67" class="g">nearly</text><text x="16.032" y="1.67" class="g">done!</text></symbol><symbol id="27"><text x="0" y="1.67" class="f">▄</text><text x="3.006" y="1.67" class="g">We&#x27;re</text><text x="9.017999999999999" y="1.67" class="g">nearly</text><text x="16.032" y="1.67" class="g">done!</text></symbol><symbol id="28"><rect height="2.171" width="9" x="0" y="0" class="h"></rect><text x="0" y="1.67" class="i"> SUCCESS </text><text x="10.02" y="1.67" class="j">Finally!</text></symbol><symbol id="a"><rect height="24" width="80" x="0" y="0" class="o"></rect></symbol><symbol id="b"><rect height="2.171" width="1.1022" class="p"></rect></symbol></defs><rect height="52.104" width="80" class="a"></rect><g class="r"><svg x="0" y="0" width="6640"><svg x="0"><use xlink:href="#a"></use><use xlink:href="#b" x="-0.0040000000000000036" y="0"></use></svg><svg x="80"><use xlink:href="#a"></use><use xlink:href="#b" x="45.996" y="0"></use><use xlink:href="#1" y="0"></use></svg><svg x="160"><use xlink:href="#a"></use><use xlink:href="#b" x="45.996" y="0"></use><use xlink:href="#2" y="0"></use></svg><svg x="240"><use xlink:href="#a"></use><use xlink:href="#b" x="45.996" y="0"></use><use xlink:href="#3" y="0"></use></svg><svg x="320"><use xlink:href="#a"></use><use xlink:href="#b" x="45.996" y="0"></use><use xlink:href="#4" y="0"></use></svg><svg x="400"><use xlink:href="#a"></use><use xlink:href="#b" x="45.996" y="0"></use><use xlink:href="#1" y="0"></use></svg><svg x="480"><use xlink:href="#a"></use><use xlink:href="#b" x="45.996" y="0"></use><use xlink:href="#2" y="0"></use></svg><svg x="560"><use xlink:href="#a"></use><use xlink:href="#b" x="45.996" y="0"></use><use xlink:href="#3" y="0"></use></svg><svg x="640"><use xlink:href="#a"></use><use xlink:href="#b" x="45.996" y="0"></use><use xlink:href="#4" y="0"></use></svg><svg x="720"><use xlink:href="#a"></use><use xlink:href="#b" x="45.996" y="0"></use><use xlink:href="#1" y="0"></use></svg><svg x="800"><use xlink:href="#a"></use><use xlink:href="#b" x="45.996" y="0"></use><use xlink:href="#2" y="0"></use></svg><svg x="880"><use xlink:href="#a"></use><use xlink:href="#b" x="45.996" y="0"></use><use xlink:href="#3" y="0"></use></svg><svg x="960"><use xlink:href="#a"></use><use xlink:href="#b" x="45.996" y="0"></use><use xlink:href="#4" y="0"></use></svg><svg x="1040"><use xlink:href="#a"></use><use xlink:href="#b" x="45.996" y="0"></use><use xlink:href="#1" y="0"></use></svg><svg x="1120"><use xlink:href="#a"></use><use xlink:href="#b" x="45.996" y="0"></use><use xlink:href="#2" y="0"></use></svg><svg x="1200"><use xlink:href="#a"></use><use xlink:href="#b" x="45.996" y="0"></use><use xlink:href="#3" y="0"></use></svg><svg x="1280"><use xlink:href="#a"></use><use xlink:href="#b" x="79.996" y="0"></use></svg><svg x="1360"><use xlink:href="#a"></use><use xlink:href="#b" x="42.996" y="2.146"></use><use xlink:href="#5" y="0"></use><use xlink:href="#6" y="2.171"></use></svg><svg x="1440"><use xlink:href="#a"></use><use xlink:href="#b" x="42.996" y="2.146"></use><use xlink:href="#5" y="0"></use><use xlink:href="#7" y="2.171"></use></svg><svg x="1520"><use xlink:href="#a"></use><use xlink:href="#b" x="42.996" y="2.146"></use><use xlink:href="#5" y="0"></use><use xlink:href="#8" y="2.171"></use></svg><svg x="1600"><use xlink:href="#a"></use><use xlink:href="#b" x="42.996" y="2.146"></use><use xlink:href="#5" y="0"></use><use xlink:href="#9" y="2.171"></use></svg><svg x="1680"><use xlink:href="#a"></use><use xlink:href="#b" x="42.996" y="2.146"></use><use xlink:href="#5" y="0"></use><use xlink:href="#6" y="2.171"></use></svg><svg x="1760"><use xlink:href="#a"></use><use xlink:href="#b" x="42.996" y="2.146"></use><use xlink:href="#5" y="0"></use><use xlink:href="#7" y="2.171"></use></svg><svg x="1840"><use xlink:href="#a"></use><use xlink:href="#b" x="42.996" y="2.146"></use><use xlink:href="#5" y="0"></use><use xlink:href="#8" y="2.171"></use></svg><svg x="1920"><use xlink:href="#a"></use><use xlink:href="#b" x="42.996" y="2.146"></use><use xlink:href="#5" y="0"></use><use xlink:href="#9" y="2.171"></use></svg><svg x="2000"><use xlink:href="#a"></use><use xlink:href="#b" x="42.996" y="2.146"></use><use xlink:href="#5" y="0"></use><use xlink:href="#6" y="2.171"></use></svg><svg x="2080"><use xlink:href="#a"></use><use xlink:href="#b" x="42.996" y="2.146"></use><use xlink:href="#5" y="0"></use><use xlink:href="#7" y="2.171"></use></svg><svg x="2160"><use xlink:href="#a"></use><use xlink:href="#b" x="42.996" y="2.146"></use><use xlink:href="#5" y="0"></use><use xlink:href="#8" y="2.171"></use></svg><svg x="2240"><use xlink:href="#a"></use><use xlink:href="#b" x="42.996" y="2.146"></use><use xlink:href="#5" y="0"></use><use xlink:href="#9" y="2.171"></use></svg><svg x="2320"><use xlink:href="#a"></use><use xlink:href="#b" x="42.996" y="2.146"></use><use xlink:href="#5" y="0"></use><use xlink:href="#6" y="2.171"></use></svg><svg x="2400"><use xlink:href="#a"></use><use xlink:href="#b" x="42.996" y="2.146"></use><use xlink:href="#5" y="0"></use><use xlink:href="#7" y="2.171"></use></svg><svg x="2480"><use xlink:href="#a"></use><use xlink:href="#b" x="42.996" y="2.146"></use><use xlink:href="#5" y="0"></use><use xlink:href="#8" y="2.171"></use></svg><svg x="2560"><use xlink:href="#a"></use><use xlink:href="#b" x="79.996" y="2.146"></use><use xlink:href="#5" y="0"></use></svg><svg x="2640"><use xlink:href="#a"></use><use xlink:href="#b" x="42.996" y="4.317"></use><use xlink:href="#5" y="0"></use><use xlink:href="#10" y="2.171"></use><use xlink:href="#11" y="4.342"></use></svg><svg x="2720"><use xlink:href="#a"></use><use xlink:href="#b" x="42.996" y="4.317"></use><use xlink:href="#5" y="0"></use><use xlink:href="#10" y="2.171"></use><use xlink:href="#12" y="4.342"></use></svg><svg x="2800"><use xlink:href="#a"></use><use xlink:href="#b" x="42.996" y="4.317"></use><use xlink:href="#5" y="0"></use><use xlink:href="#10" y="2.171"></use><use xlink:href="#13" y="4.342"></use></svg><svg x="2880"><use xlink:href="#a"></use><use xlink:href="#b" x="42.996" y="4.317"></use><use xlink:href="#5" y="0"></use><use xlink:href="#10" y="2.171"></use><use xlink:href="#14" y="4.342"></use></svg><svg x="2960"><use xlink:href="#a"></use><use xlink:href="#b" x="42.996" y="4.317"></use><use xlink:href="#5" y="0"></use><use xlink:href="#10" y="2.171"></use><use xlink:href="#11" y="4.342"></use></svg><svg x="3040"><use xlink:href="#a"></use><use xlink:href="#b" x="42.996" y="4.317"></use><use xlink:href="#5" y="0"></use><use xlink:href="#10" y="2.171"></use><use xlink:href="#12" y="4.342"></use></svg><svg x="3120"><use xlink:href="#a"></use><use xlink:href="#b" x="42.996" y="4.317"></use><use xlink:href="#5" y="0"></use><use xlink:href="#10" y="2.171"></use><use xlink:href="#13" y="4.342"></use></svg><svg x="3200"><use xlink:href="#a"></use><use xlink:href="#b" x="42.996" y="4.317"></use><use xlink:href="#5" y="0"></use><use xlink:href="#10" y="2.171"></use><use xlink:href="#14" y="4.342"></use></svg><svg x="3280"><use xlink:href="#a"></use><use xlink:href="#b" x="42.996" y="4.317"></use><use xlink:href="#5" y="0"></use><use xlink:href="#10" y="2.171"></use><use xlink:href="#11" y="4.342"></use></svg><svg x="3360"><use xlink:href="#a"></use><use xlink:href="#b" x="42.996" y="4.317"></use><use xlink:href="#5" y="0"></use><use xlink:href="#10" y="2.171"></use><use xlink:href="#12" y="4.342"></use></svg><svg x="3440"><use xlink:href="#a"></use><use xlink:href="#b" x="42.996" y="4.317"></use><use xlink:href="#5" y="0"></use><use xlink:href="#10" y="2.171"></use><use xlink:href="#13" y="4.342"></use></svg><svg x="3520"><use xlink:href="#a"></use><use xlink:href="#b" x="42.996" y="4.317"></use><use xlink:href="#5" y="0"></use><use xlink:href="#10" y="2.171"></use><use xlink:href="#14" y="4.342"></use></svg><svg x="3600"><use xlink:href="#a"></use><use xlink:href="#b" x="42.996" y="4.317"></use><use xlink:href="#5" y="0"></use><use xlink:href="#10" y="2.171"></use><use xlink:href="#11" y="4.342"></use></svg><svg x="3680"><use xlink:href="#a"></use><use xlink:href="#b" x="42.996" y="4.317"></use><use xlink:href="#5" y="0"></use><use xlink:href="#10" y="2.171"></use><use xlink:href="#12" y="4.342"></use></svg><svg x="3760"><use xlink:href="#a"></use><use xlink:href="#b" x="42.996" y="4.317"></use><use xlink:href="#5" y="0"></use><use xlink:href="#10" y="2.171"></use><use xlink:href="#13" y="4.342"></use></svg><svg x="3840"><use xlink:href="#a"></use><use xlink:href="#b" x="-0.0040000000000000036" y="6.4879999999999995"></use><use xlink:href="#5" y="0"></use><use xlink:href="#10" y="2.171"></use><use xlink:href="#15" y="4.342"></use></svg><svg x="3920"><use xlink:href="#a"></use><use xlink:href="#b" x="25.996" y="6.4879999999999995"></use><use xlink:href="#5" y="0"></use><use xlink:href="#10" y="2.171"></use><use xlink:href="#15" y="4.342"></use><use xlink:href="#16" y="6.513"></use></svg><svg x="4000"><use xlink:href="#a"></use><use xlink:href="#b" x="25.996" y="6.4879999999999995"></use><use xlink:href="#5" y="0"></use><use xlink:href="#10" y="2.171"></use><use xlink:href="#15" y="4.342"></use><use xlink:href="#17" y="6.513"></use></svg><svg x="4080"><use xlink:href="#a"></use><use xlink:href="#b" x="25.996" y="6.4879999999999995"></use><use xlink:href="#5" y="0"></use><use xlink:href="#10" y="2.171"></use><use xlink:href="#15" y="4.342"></use><use xlink:href="#18" y="6.513"></use></svg><svg x="4160"><use xlink:href="#a"></use><use xlink:href="#b" x="25.996" y="6.4879999999999995"></use><use xlink:href="#5" y="0"></use><use xlink:href="#10" y="2.171"></use><use xlink:href="#15" y="4.342"></use><use xlink:href="#19" y="6.513"></use></svg><svg x="4240"><use xlink:href="#a"></use><use xlink:href="#b" x="25.996" y="6.4879999999999995"></use><use xlink:href="#5" y="0"></use><use xlink:href="#10" y="2.171"></use><use xlink:href="#15" y="4.342"></use><use xlink:href="#16" y="6.513"></use></svg><svg x="4320"><use xlink:href="#a"></use><use xlink:href="#b" x="25.996" y="6.4879999999999995"></use><use xlink:href="#5" y="0"></use><use xlink:href="#10" y="2.171"></use><use xlink:href="#15" y="4.342"></use><use xlink:href="#17" y="6.513"></use></svg><svg x="4400"><use xlink:href="#a"></use><use xlink:href="#b" x="25.996" y="6.4879999999999995"></use><use xlink:href="#5" y="0"></use><use xlink:href="#10" y="2.171"></use><use xlink:href="#15" y="4.342"></use><use xlink:href="#18" y="6.513"></use></svg><svg x="4480"><use xlink:href="#a"></use><use xlink:href="#b" x="25.996" y="6.4879999999999995"></use><use xlink:href="#5" y="0"></use><use xlink:href="#10" y="2.171"></use><use xlink:href="#15" y="4.342"></use><use xlink:href="#19" y="6.513"></use></svg><svg x="4560"><use xlink:href="#a"></use><use xlink:href="#b" x="25.996" y="6.4879999999999995"></use><use xlink:href="#5" y="0"></use><use xlink:href="#10" y="2.171"></use><use xlink:href="#15" y="4.342"></use><use xlink:href="#16" y="6.513"></use></svg><svg x="4640"><use xlink:href="#a"></use><use xlink:href="#b" x="25.996" y="6.4879999999999995"></use><use xlink:href="#5" y="0"></use><use xlink:href="#10" y="2.171"></use><use xlink:href="#15" y="4.342"></use><use xlink:href="#17" y="6.513"></use></svg><svg x="4720"><use xlink:href="#a"></use><use xlink:href="#b" x="79.996" y="6.4879999999999995"></use><use xlink:href="#5" y="0"></use><use xlink:href="#10" y="2.171"></use><use xlink:href="#15" y="4.342"></use></svg><svg x="4800"><use xlink:href="#a"></use><use xlink:href="#b" x="18.996" y="6.4879999999999995"></use><use xlink:href="#5" y="0"></use><use xlink:href="#10" y="2.171"></use><use xlink:href="#15" y="4.342"></use><use xlink:href="#20" y="6.513"></use></svg><svg x="4880"><use xlink:href="#a"></use><use xlink:href="#b" x="18.996" y="6.4879999999999995"></use><use xlink:href="#5" y="0"></use><use xlink:href="#10" y="2.171"></use><use xlink:href="#15" y="4.342"></use><use xlink:href="#21" y="6.513"></use></svg><svg x="4960"><use xlink:href="#a"></use><use xlink:href="#b" x="18.996" y="6.4879999999999995"></use><use xlink:href="#5" y="0"></use><use xlink:href="#10" y="2.171"></use><use xlink:href="#15" y="4.342"></use><use xlink:href="#22" y="6.513"></use></svg><svg x="5040"><use xlink:href="#a"></use><use xlink:href="#b" x="18.996" y="6.4879999999999995"></use><use xlink:href="#5" y="0"></use><use xlink:href="#10" y="2.171"></use><use xlink:href="#15" y="4.342"></use><use xlink:href="#23" y="6.513"></use></svg><svg x="5120"><use xlink:href="#a"></use><use xlink:href="#b" x="18.996" y="6.4879999999999995"></use><use xlink:href="#5" y="0"></use><use xlink:href="#10" y="2.171"></use><use xlink:href="#15" y="4.342"></use><use xlink:href="#20" y="6.513"></use></svg><svg x="5200"><use xlink:href="#a"></use><use xlink:href="#b" x="18.996" y="6.4879999999999995"></use><use xlink:href="#5" y="0"></use><use xlink:href="#10" y="2.171"></use><use xlink:href="#15" y="4.342"></use><use xlink:href="#21" y="6.513"></use></svg><svg x="5280"><use xlink:href="#a"></use><use xlink:href="#b" x="18.996" y="6.4879999999999995"></use><use xlink:href="#5" y="0"></use><use xlink:href="#10" y="2.171"></use><use xlink:href="#15" y="4.342"></use><use xlink:href="#22" y="6.513"></use></svg><svg x="5360"><use xlink:href="#a"></use><use xlink:href="#b" x="18.996" y="6.4879999999999995"></use><use xlink:href="#5" y="0"></use><use xlink:href="#10" y="2.171"></use><use xlink:href="#15" y="4.342"></use><use xlink:href="#23" y="6.513"></use></svg><svg x="5440"><use xlink:href="#a"></use><use xlink:href="#b" x="18.996" y="6.4879999999999995"></use><use xlink:href="#5" y="0"></use><use xlink:href="#10" y="2.171"></use><use xlink:href="#15" y="4.342"></use><use xlink:href="#20" y="6.513"></use></svg><svg x="5520"><use xlink:href="#a"></use><use xlink:href="#b" x="18.996" y="6.4879999999999995"></use><use xlink:href="#5" y="0"></use><use xlink:href="#10" y="2.171"></use><use xlink:href="#15" y="4.342"></use><use xlink:href="#21" y="6.513"></use></svg><svg x="5600"><use xlink:href="#a"></use><use xlink:href="#b" x="79.996" y="6.4879999999999995"></use><use xlink:href="#5" y="0"></use><use xlink:href="#10" y="2.171"></use><use xlink:href="#15" y="4.342"></use></svg><svg x="5680"><use xlink:href="#a"></use><use xlink:href="#b" x="20.996" y="6.4879999999999995"></use><use xlink:href="#5" y="0"></use><use xlink:href="#10" y="2.171"></use><use xlink:href="#15" y="4.342"></use><use xlink:href="#24" y="6.513"></use></svg><svg x="5760"><use xlink:href="#a"></use><use xlink:href="#b" x="20.996" y="6.4879999999999995"></use><use xlink:href="#5" y="0"></use><use xlink:href="#10" y="2.171"></use><use xlink:href="#15" y="4.342"></use><use xlink:href="#25" y="6.513"></use></svg><svg x="5840"><use xlink:href="#a"></use><use xlink:href="#b" x="20.996" y="6.4879999999999995"></use><use xlink:href="#5" y="0"></use><use xlink:href="#10" y="2.171"></use><use xlink:href="#15" y="4.342"></use><use xlink:href="#26" y="6.513"></use></svg><svg x="5920"><use xlink:href="#a"></use><use xlink:href="#b" x="20.996" y="6.4879999999999995"></use><use xlink:href="#5" y="0"></use><use xlink:href="#10" y="2.171"></use><use xlink:href="#15" y="4.342"></use><use xlink:href="#27" y="6.513"></use></svg><svg x="6000"><use xlink:href="#a"></use><use xlink:href="#b" x="20.996" y="6.4879999999999995"></use><use xlink:href="#5" y="0"></use><use xlink:href="#10" y="2.171"></use><use xlink:href="#15" y="4.342"></use><use xlink:href="#24" y="6.513"></use></svg><svg x="6080"><use xlink:href="#a"></use><use xlink:href="#b" x="20.996" y="6.4879999999999995"></use><use xlink:href="#5" y="0"></use><use xlink:href="#10" y="2.171"></use><use xlink:href="#15" y="4.342"></use><use xlink:href="#25" y="6.513"></use></svg><svg x="6160"><use xlink:href="#a"></use><use xlink:href="#b" x="20.996" y="6.4879999999999995"></use><use xlink:href="#5" y="0"></use><use xlink:href="#10" y="2.171"></use><use xlink:href="#15" y="4.342"></use><use xlink:href="#26" y="6.513"></use></svg><svg x="6240"><use xlink:href="#a"></use><use xlink:href="#b" x="20.996" y="6.4879999999999995"></use><use xlink:href="#5" y="0"></use><use xlink:href="#10" y="2.171"></use><use xlink:href="#15" y="4.342"></use><use xlink:href="#27" y="6.513"></use></svg><svg x="6320"><use xlink:href="#a"></use><use xlink:href="#b" x="20.996" y="6.4879999999999995"></use><use xlink:href="#5" y="0"></use><use xlink:href="#10" y="2.171"></use><use xlink:href="#15" y="4.342"></use><use xlink:href="#24" y="6.513"></use></svg><svg x="6400"><use xlink:href="#a"></use><use xlink:href="#b" x="20.996" y="6.4879999999999995"></use><use xlink:href="#5" y="0"></use><use xlink:href="#10" y="2.171"></use><use xlink:href="#15" y="4.342"></use><use xlink:href="#25" y="6.513"></use></svg><svg x="6480"><use xlink:href="#a"></use><use xlink:href="#b" x="-0.0040000000000000036" y="8.658999999999999"></use><use xlink:href="#5" y="0"></use><use xlink:href="#10" y="2.171"></use><use xlink:href="#15" y="4.342"></use><use xlink:href="#28" y="6.513"></use></svg><svg x="6560"><use xlink:href="#a"></use><use xlink:href="#b" x="-0.0040000000000000036" y="13.001"></use><use xlink:href="#5" y="0"></use><use xlink:href="#10" y="2.171"></use><use xlink:href="#15" y="4.342"></use><use xlink:href="#28" y="6.513"></use><text x="0" y="12.525" class="s">restarting...</text></svg></svg></g></g></svg></svg>