<svg xmlns="http://www.w3.org/2000/svg" xmlns:xlink="http://www.w3.org/1999/xlink" width="840" height="581.04"><rect width="840" height="581.04" rx="5" ry="5" class="a"></rect><svg y="0%" x="0%"><circle cx="20" cy="20" r="6" class="b"></circle><circle cx="40" cy="20" r="6" class="c"></circle><circle cx="60" cy="20" r="6" class="d"></circle></svg><svg height="521.04" viewBox="0 0 80 52.104" width="800" x="15" xmlns="http://www.w3.org/2000/svg" xmlns:xlink="http://www.w3.org/1999/xlink" y="50"><style>.e, .g, .f {
	font-family:
			'Courier New'
			Roboto,
			Helvetica,
			Arial,
			sans-serif,
			'Apple Color Emoji',
			'Segoe UI Emoji' !important;
}.a{fill:rgb(35,35,35)}.b{fill:#ff5f58}.c{fill:#ffbd2e}.d{fill:#18c132}.e{font-family:'Courier New',Monaco,Consolas,Menlo,'Bitstream Vera Sans Mono','Powerline Symbols',monospace}.f{fill:rgb(104,104,104);white-space:pre}.g{fill:rgb(0,198,255);font-weight:bold;white-space:pre}.h{fill:rgb(160,160,160);white-space:pre}.i{fill:rgb(0,71,255);font-weight:bold;white-space:pre}.j{fill:rgb(124,255,0);font-weight:bold;white-space:pre}.k{fill:rgb(255,241,0);font-weight:bold;white-space:pre}.l{fill:rgb(255,0,4);font-weight:bold;white-space:pre}.m{fill:transparent}.o{animation-duration:23.202794000000004s;animation-iteration-count:infinite;animation-name:n;animation-timing-function:steps(1,end)}@keyframes n{0%{transform:translateX(-0px)}0.83%{transform:translateX(-80px)}13.77%{transform:translateX(-160px)}26.7%{transform:translateX(-240px)}39.63%{transform:translateX(-320px)}39.63%{transform:translateX(-400px)}39.63%{transform:translateX(-480px)}39.63%{transform:translateX(-560px)}39.63%{transform:translateX(-640px)}39.63%{transform:translateX(-720px)}52.57%{transform:translateX(-800px)}52.58%{transform:translateX(-880px)}65.51%{transform:translateX(-960px)}65.51%{transform:translateX(-1040px)}65.51%{transform:translateX(-1120px)}65.51%{transform:translateX(-1200px)}65.51%{transform:translateX(-1280px)}65.51%{transform:translateX(-1360px)}65.52%{transform:translateX(-1440px)}65.52%{transform:translateX(-1520px)}78.45%{transform:translateX(-1600px)}100%{transform:translateX(-1680px)}}</style><g font-family="'Courier New',Monaco, Consolas, Menlo, &#x27;Bitstream Vera Sans Mono&#x27;, &#x27;Powerline Symbols&#x27;, monospace" font-size="1.67" class="e"><defs><symbol id="1"><text x="0" y="1.67" class="f">2024-11-27</text><text x="11.021999999999998" y="1.67" class="f">12:35:37</text><text x="20.04" y="1.67" class="g">TRACE</text><text x="26.052" y="1.67" class="h">Doing</text><text x="32.064" y="1.67" class="h">not</text><text x="36.071999999999996" y="1.67" class="h">so</text><text x="39.077999999999996" y="1.67" class="h">important</text><text x="49.098" y="1.67" class="h">stuff</text><text x="55.10999999999999" y="1.67" class="g">priority:</text><text x="65.13" y="1.67" class="h">super</text><text x="71.142" y="1.67" class="h">low</text></symbol><symbol id="2"><text x="0" y="1.67" class="f">2024-11-27</text><text x="11.021999999999998" y="1.67" class="f">12:35:40</text><text x="20.04" y="1.67" class="i">DEBUG</text><text x="26.052" y="1.67" class="h">This</text><text x="31.061999999999998" y="1.67" class="h">might</text><text x="37.074" y="1.67" class="h">be</text><text x="40.08" y="1.67" class="h">interesting</text></symbol><symbol id="3"><text x="22.043999999999997" y="1.67" class="h">├</text><text x="24.048" y="1.67" class="i">when</text><text x="29.058" y="1.67" class="i">were</text><text x="34.068" y="1.67" class="i">crayons</text><text x="42.083999999999996" y="1.67" class="i">invented:</text><text x="52.104" y="1.67" class="h">1903</text></symbol><symbol id="4"><text x="22.043999999999997" y="1.67" class="h">├</text><text x="24.048" y="1.67" class="i">what</text><text x="29.058" y="1.67" class="i">is</text><text x="32.064" y="1.67" class="i">the</text><text x="36.071999999999996" y="1.67" class="i">meaning</text><text x="44.087999999999994" y="1.67" class="i">of</text><text x="47.093999999999994" y="1.67" class="i">life:</text><text x="53.105999999999995" y="1.67" class="h">42</text></symbol><symbol id="5"><text x="22.043999999999997" y="1.67" class="h">└</text><text x="24.048" y="1.67" class="i">is</text><text x="27.054" y="1.67" class="i">this</text><text x="32.064" y="1.67" class="i">interesting:</text><text x="45.089999999999996" y="1.67" class="h">true</text></symbol><symbol id="6"><text x="0" y="1.67" class="f">2024-11-27</text><text x="11.021999999999998" y="1.67" class="f">12:35:43</text><text x="20.04" y="1.67" class="j">INFO</text><text x="26.052" y="1.67" class="h">That</text><text x="31.061999999999998" y="1.67" class="h">was</text><text x="35.06999999999999" y="1.67" class="h">actually</text><text x="44.087999999999994" y="1.67" class="h">interesting</text><text x="56.111999999999995" y="1.67" class="j">such:</text><text x="62.123999999999995" y="1.67" class="h">wow</text></symbol><symbol id="7"><text x="0" y="1.67" class="f">2024-11-27</text><text x="11.021999999999998" y="1.67" class="f">12:35:46</text><text x="20.04" y="1.67" class="k">WARN</text><text x="26.052" y="1.67" class="h">Oh</text><text x="29.058" y="1.67" class="h">no,</text><text x="33.065999999999995" y="1.67" class="h">I</text><text x="35.06999999999999" y="1.67" class="h">see</text><text x="39.077999999999996" y="1.67" class="h">an</text><text x="42.083999999999996" y="1.67" class="h">error</text><text x="48.096" y="1.67" class="h">coming</text><text x="55.10999999999999" y="1.67" class="h">to</text><text x="58.116" y="1.67" class="h">us!</text></symbol><symbol id="8"><text x="22.043999999999997" y="1.67" class="h">├</text><text x="24.048" y="1.67" class="k">speed:</text><text x="31.061999999999998" y="1.67" class="h">88</text></symbol><symbol id="9"><text x="22.043999999999997" y="1.67" class="h">└</text><text x="24.048" y="1.67" class="k">measures:</text><text x="34.068" y="1.67" class="h">mph</text></symbol><symbol id="10"><text x="0" y="1.67" class="f">2024-11-27</text><text x="11.021999999999998" y="1.67" class="f">12:35:49</text><text x="20.04" y="1.67" class="l">ERROR</text><text x="26.052" y="1.67" class="h">Damn,</text><text x="32.064" y="1.67" class="h">here</text><text x="37.074" y="1.67" class="h">it</text><text x="40.08" y="1.67" class="h">is!</text><text x="44.087999999999994" y="1.67" class="l">error:</text><text x="51.102" y="1.67" class="h">something</text><text x="61.12199999999999" y="1.67" class="h">went</text><text x="66.13199999999999" y="1.67" class="h">wrong</text></symbol><symbol id="11"><text x="0" y="1.67" class="f">2024-11-27</text><text x="11.021999999999998" y="1.67" class="f">12:35:52</text><text x="20.04" y="1.67" class="j">INFO</text><text x="26.052" y="1.67" class="h">But</text><text x="30.059999999999995" y="1.67" class="h">what&#x27;s</text><text x="37.074" y="1.67" class="h">really</text><text x="44.087999999999994" y="1.67" class="h">cool</text><text x="49.098" y="1.67" class="h">is,</text><text x="53.105999999999995" y="1.67" class="h">that</text><text x="58.116" y="1.67" class="h">you</text><text x="62.123999999999995" y="1.67" class="h">can</text><text x="66.13199999999999" y="1.67" class="h">print</text><text x="72.14399999999999" y="1.67" class="h">very</text></symbol><symbol id="12"><text x="22.043999999999997" y="1.67" class="h">│</text><text x="26.052" y="1.67" class="h">long</text><text x="31.061999999999998" y="1.67" class="h">logs,</text><text x="37.074" y="1.67" class="h">and</text><text x="41.082" y="1.67" class="h">PTerm</text><text x="47.093999999999994" y="1.67" class="h">will</text><text x="52.104" y="1.67" class="h">automatically</text><text x="66.13199999999999" y="1.67" class="h">wrap</text><text x="71.142" y="1.67" class="h">them</text><text x="76.15199999999999" y="1.67" class="h">for</text></symbol><symbol id="13"><text x="22.043999999999997" y="1.67" class="h">│</text><text x="26.052" y="1.67" class="h">you!</text><text x="31.061999999999998" y="1.67" class="h">Say</text><text x="35.06999999999999" y="1.67" class="h">goodbye</text><text x="43.086" y="1.67" class="h">to</text><text x="46.09199999999999" y="1.67" class="h">text,</text><text x="52.104" y="1.67" class="h">that</text><text x="57.114" y="1.67" class="h">has</text><text x="61.12199999999999" y="1.67" class="h">weird</text><text x="67.134" y="1.67" class="h">line</text><text x="72.14399999999999" y="1.67" class="h">breaks!</text></symbol><symbol id="14"><text x="22.043999999999997" y="1.67" class="h">└</text><text x="24.048" y="1.67" class="j">very:</text><text x="30.059999999999995" y="1.67" class="h">long</text></symbol><symbol id="15"><text x="0" y="1.67" class="f">2024-11-27</text><text x="11.021999999999998" y="1.67" class="f">12:35:55</text><text x="20.04" y="1.67" class="l">FATAL</text><text x="26.052" y="1.67" class="h">Oh</text><text x="29.058" y="1.67" class="h">no,</text><text x="33.065999999999995" y="1.67" class="h">this</text><text x="38.07599999999999" y="1.67" class="h">process</text><text x="46.09199999999999" y="1.67" class="h">is</text><text x="49.098" y="1.67" class="h">getting</text><text x="57.114" y="1.67" class="h">killed!</text><text x="65.13" y="1.67" class="l">fatal:</text><text x="72.14399999999999" y="1.67" class="h">true</text></symbol><symbol id="a"><rect height="24" width="80" x="0" y="0" class="m"></rect></symbol></defs><rect height="52.104" width="80" class="a"></rect><g class="o"><svg x="0" y="0" width="1760"><svg x="0"><use xlink:href="#a"></use></svg><svg x="80"><use xlink:href="#a"></use><use xlink:href="#1" y="0"></use></svg><svg x="160"><use xlink:href="#a"></use><use xlink:href="#1" y="0"></use><use xlink:href="#2" y="2.171"></use><use xlink:href="#3" y="4.342"></use><use xlink:href="#4" y="6.513"></use><use xlink:href="#5" y="8.684"></use></svg><svg x="240"><use xlink:href="#a"></use><use xlink:href="#1" y="0"></use><use xlink:href="#2" y="2.171"></use><use xlink:href="#3" y="4.342"></use><use xlink:href="#4" y="6.513"></use><use xlink:href="#5" y="8.684"></use><use xlink:href="#6" y="10.855"></use></svg><svg x="320"><use xlink:href="#a"></use><use xlink:href="#1" y="0"></use><use xlink:href="#2" y="2.171"></use><use xlink:href="#3" y="4.342"></use><use xlink:href="#4" y="6.513"></use><use xlink:href="#5" y="8.684"></use><use xlink:href="#6" y="10.855"></use><use xlink:href="#7" y="13.026"></use></svg><svg x="400"><use xlink:href="#a"></use><use xlink:href="#1" y="0"></use><use xlink:href="#2" y="2.171"></use><use xlink:href="#3" y="4.342"></use><use xlink:href="#4" y="6.513"></use><use xlink:href="#5" y="8.684"></use><use xlink:href="#6" y="10.855"></use><use xlink:href="#7" y="13.026"></use></svg><svg x="480"><use xlink:href="#a"></use><use xlink:href="#1" y="0"></use><use xlink:href="#2" y="2.171"></use><use xlink:href="#3" y="4.342"></use><use xlink:href="#4" y="6.513"></use><use xlink:href="#5" y="8.684"></use><use xlink:href="#6" y="10.855"></use><use xlink:href="#7" y="13.026"></use><use xlink:href="#8" y="15.197"></use></svg><svg x="560"><use xlink:href="#a"></use><use xlink:href="#1" y="0"></use><use xlink:href="#2" y="2.171"></use><use xlink:href="#3" y="4.342"></use><use xlink:href="#4" y="6.513"></use><use xlink:href="#5" y="8.684"></use><use xlink:href="#6" y="10.855"></use><use xlink:href="#7" y="13.026"></use><use xlink:href="#8" y="15.197"></use></svg><svg x="640"><use xlink:href="#a"></use><use xlink:href="#1" y="0"></use><use xlink:href="#2" y="2.171"></use><use xlink:href="#3" y="4.342"></use><use xlink:href="#4" y="6.513"></use><use xlink:href="#5" y="8.684"></use><use xlink:href="#6" y="10.855"></use><use xlink:href="#7" y="13.026"></use><use xlink:href="#8" y="15.197"></use><use xlink:href="#9" y="17.368"></use></svg><svg x="720"><use xlink:href="#a"></use><use xlink:href="#1" y="0"></use><use xlink:href="#2" y="2.171"></use><use xlink:href="#3" y="4.342"></use><use xlink:href="#4" y="6.513"></use><use xlink:href="#5" y="8.684"></use><use xlink:href="#6" y="10.855"></use><use xlink:href="#7" y="13.026"></use><use xlink:href="#8" y="15.197"></use><use xlink:href="#9" y="17.368"></use></svg><svg x="800"><use xlink:href="#a"></use><use xlink:href="#1" y="0"></use><use xlink:href="#2" y="2.171"></use><use xlink:href="#3" y="4.342"></use><use xlink:href="#4" y="6.513"></use><use xlink:href="#5" y="8.684"></use><use xlink:href="#6" y="10.855"></use><use xlink:href="#7" y="13.026"></use><use xlink:href="#8" y="15.197"></use><use xlink:href="#9" y="17.368"></use><use xlink:href="#10" y="19.539"></use></svg><svg x="880"><use xlink:href="#a"></use><use xlink:href="#1" y="0"></use><use xlink:href="#2" y="2.171"></use><use xlink:href="#3" y="4.342"></use><use xlink:href="#4" y="6.513"></use><use xlink:href="#5" y="8.684"></use><use xlink:href="#6" y="10.855"></use><use xlink:href="#7" y="13.026"></use><use xlink:href="#8" y="15.197"></use><use xlink:href="#9" y="17.368"></use><use xlink:href="#10" y="19.539"></use></svg><svg x="960"><use xlink:href="#a"></use><use xlink:href="#1" y="0"></use><use xlink:href="#2" y="2.171"></use><use xlink:href="#3" y="4.342"></use><use xlink:href="#4" y="6.513"></use><use xlink:href="#5" y="8.684"></use><use xlink:href="#6" y="10.855"></use><use xlink:href="#7" y="13.026"></use><use xlink:href="#8" y="15.197"></use><use xlink:href="#9" y="17.368"></use><use xlink:href="#10" y="19.539"></use><use xlink:href="#11" y="21.71"></use></svg><svg x="1040"><use xlink:href="#a"></use><use xlink:href="#1" y="0"></use><use xlink:href="#2" y="2.171"></use><use xlink:href="#3" y="4.342"></use><use xlink:href="#4" y="6.513"></use><use xlink:href="#5" y="8.684"></use><use xlink:href="#6" y="10.855"></use><use xlink:href="#7" y="13.026"></use><use xlink:href="#8" y="15.197"></use><use xlink:href="#9" y="17.368"></use><use xlink:href="#10" y="19.539"></use><use xlink:href="#11" y="21.71"></use></svg><svg x="1120"><use xlink:href="#a"></use><use xlink:href="#1" y="0"></use><use xlink:href="#2" y="2.171"></use><use xlink:href="#3" y="4.342"></use><use xlink:href="#4" y="6.513"></use><use xlink:href="#5" y="8.684"></use><use xlink:href="#6" y="10.855"></use><use xlink:href="#7" y="13.026"></use><use xlink:href="#8" y="15.197"></use><use xlink:href="#9" y="17.368"></use><use xlink:href="#10" y="19.539"></use><use xlink:href="#11" y="21.71"></use><use xlink:href="#12" y="23.880999999999997"></use></svg><svg x="1200"><use xlink:href="#a"></use><use xlink:href="#1" y="0"></use><use xlink:href="#2" y="2.171"></use><use xlink:href="#3" y="4.342"></use><use xlink:href="#4" y="6.513"></use><use xlink:href="#5" y="8.684"></use><use xlink:href="#6" y="10.855"></use><use xlink:href="#7" y="13.026"></use><use xlink:href="#8" y="15.197"></use><use xlink:href="#9" y="17.368"></use><use xlink:href="#10" y="19.539"></use><use xlink:href="#11" y="21.71"></use><use xlink:href="#12" y="23.880999999999997"></use></svg><svg x="1280"><use xlink:href="#a"></use><use xlink:href="#1" y="0"></use><use xlink:href="#2" y="2.171"></use><use xlink:href="#3" y="4.342"></use><use xlink:href="#4" y="6.513"></use><use xlink:href="#5" y="8.684"></use><use xlink:href="#6" y="10.855"></use><use xlink:href="#7" y="13.026"></use><use xlink:href="#8" y="15.197"></use><use xlink:href="#9" y="17.368"></use><use xlink:href="#10" y="19.539"></use><use xlink:href="#11" y="21.71"></use><use xlink:href="#12" y="23.880999999999997"></use><use xlink:href="#13" y="26.052"></use></svg><svg x="1360"><use xlink:href="#a"></use><use xlink:href="#1" y="0"></use><use xlink:href="#2" y="2.171"></use><use xlink:href="#3" y="4.342"></use><use xlink:href="#4" y="6.513"></use><use xlink:href="#5" y="8.684"></use><use xlink:href="#6" y="10.855"></use><use xlink:href="#7" y="13.026"></use><use xlink:href="#8" y="15.197"></use><use xlink:href="#9" y="17.368"></use><use xlink:href="#10" y="19.539"></use><use xlink:href="#11" y="21.71"></use><use xlink:href="#12" y="23.880999999999997"></use><use xlink:href="#13" y="26.052"></use></svg><svg x="1440"><use xlink:href="#a"></use><use xlink:href="#1" y="0"></use><use xlink:href="#2" y="2.171"></use><use xlink:href="#3" y="4.342"></use><use xlink:href="#4" y="6.513"></use><use xlink:href="#5" y="8.684"></use><use xlink:href="#6" y="10.855"></use><use xlink:href="#7" y="13.026"></use><use xlink:href="#8" y="15.197"></use><use xlink:href="#9" y="17.368"></use><use xlink:href="#10" y="19.539"></use><use xlink:href="#11" y="21.71"></use><use xlink:href="#12" y="23.880999999999997"></use><use xlink:href="#13" y="26.052"></use><use xlink:href="#14" y="28.223000000000003"></use></svg><svg x="1520"><use xlink:href="#a"></use><use xlink:href="#1" y="0"></use><use xlink:href="#2" y="2.171"></use><use xlink:href="#3" y="4.342"></use><use xlink:href="#4" y="6.513"></use><use xlink:href="#5" y="8.684"></use><use xlink:href="#6" y="10.855"></use><use xlink:href="#7" y="13.026"></use><use xlink:href="#8" y="15.197"></use><use xlink:href="#9" y="17.368"></use><use xlink:href="#10" y="19.539"></use><use xlink:href="#11" y="21.71"></use><use xlink:href="#12" y="23.880999999999997"></use><use xlink:href="#13" y="26.052"></use><use xlink:href="#14" y="28.223000000000003"></use></svg><svg x="1600"><use xlink:href="#a"></use><use xlink:href="#1" y="0"></use><use xlink:href="#2" y="2.171"></use><use xlink:href="#3" y="4.342"></use><use xlink:href="#4" y="6.513"></use><use xlink:href="#5" y="8.684"></use><use xlink:href="#6" y="10.855"></use><use xlink:href="#7" y="13.026"></use><use xlink:href="#8" y="15.197"></use><use xlink:href="#9" y="17.368"></use><use xlink:href="#10" y="19.539"></use><use xlink:href="#11" y="21.71"></use><use xlink:href="#12" y="23.880999999999997"></use><use xlink:href="#13" y="26.052"></use><use xlink:href="#14" y="28.223000000000003"></use><use xlink:href="#15" y="30.394"></use></svg><svg x="1680"><use xlink:href="#a"></use><use xlink:href="#1" y="0"></use><use xlink:href="#2" y="2.171"></use><use xlink:href="#3" y="4.342"></use><use xlink:href="#4" y="6.513"></use><use xlink:href="#5" y="8.684"></use><use xlink:href="#6" y="10.855"></use><use xlink:href="#7" y="13.026"></use><use xlink:href="#8" y="15.197"></use><use xlink:href="#9" y="17.368"></use><use xlink:href="#10" y="19.539"></use><use xlink:href="#11" y="21.71"></use><use xlink:href="#12" y="23.880999999999997"></use><use xlink:href="#13" y="26.052"></use><use xlink:href="#14" y="28.223000000000003"></use><use xlink:href="#15" y="30.394"></use><text x="0" y="36.406" class="h">Restarting</text><text x="11.021999999999998" y="36.406" class="h">animation...</text></svg></svg></g></g></svg></svg>