<svg xmlns="http://www.w3.org/2000/svg" xmlns:xlink="http://www.w3.org/1999/xlink" width="2560" height="472.48999999999995"><rect width="2560" height="472.48999999999995" rx="5" ry="5" class="a"></rect><svg y="0%" x="0%"><circle cx="20" cy="20" r="6" class="b"></circle><circle cx="40" cy="20" r="6" class="c"></circle><circle cx="60" cy="20" r="6" class="d"></circle></svg><svg height="412.48999999999995" viewBox="0 0 252 41.248999999999995" width="2520" x="15" xmlns="http://www.w3.org/2000/svg" xmlns:xlink="http://www.w3.org/1999/xlink" y="50"><style>.e, .g, .f {
	font-family:
			'Courier New'
			Roboto,
			Helvetica,
			Arial,
			sans-serif,
			'Apple Color Emoji',
			'Segoe UI Emoji' !important;
}.a{fill:rgb(35,35,35)}.b{fill:#ff5f58}.c{fill:#ffbd2e}.d{fill:#18c132}.e{font-family:'JetBrainsMono',Monaco,Consolas,Menlo,'Bitstream Vera Sans Mono','Powerline Symbols',monospace}.f{fill:rgb(160,160,160);white-space:pre}.g{fill:transparent}.i{animation-duration:39.769578s;animation-iteration-count:infinite;animation-name:h;animation-timing-function:steps(1,end)}@keyframes h{0%{transform:translateX(-0px)}4.4%{transform:translateX(-252px)}4.4%{transform:translateX(-504px)}6.91%{transform:translateX(-756px)}9.43%{transform:translateX(-1008px)}11.94%{transform:translateX(-1260px)}14.46%{transform:translateX(-1512px)}16.97%{transform:translateX(-1764px)}19.49%{transform:translateX(-2016px)}22%{transform:translateX(-2268px)}24.52%{transform:translateX(-2520px)}27.03%{transform:translateX(-2772px)}29.55%{transform:translateX(-3024px)}32.06%{transform:translateX(-3276px)}34.58%{transform:translateX(-3528px)}37.09%{transform:translateX(-3780px)}39.61%{transform:translateX(-4032px)}42.12%{transform:translateX(-4284px)}44.64%{transform:translateX(-4536px)}45.9%{transform:translateX(-4788px)}47.16%{transform:translateX(-5040px)}48.41%{transform:translateX(-5292px)}49.67%{transform:translateX(-5544px)}50.93%{transform:translateX(-5796px)}52.19%{transform:translateX(-6048px)}53.45%{transform:translateX(-6300px)}54.71%{transform:translateX(-6552px)}55.97%{transform:translateX(-6804px)}57.23%{transform:translateX(-7056px)}58.49%{transform:translateX(-7308px)}59.75%{transform:translateX(-7560px)}64.78%{transform:translateX(-7812px)}64.78%{transform:translateX(-8064px)}74.85%{transform:translateX(-8316px)}74.85%{transform:translateX(-8568px)}84.91%{transform:translateX(-8820px)}84.91%{transform:translateX(-9072px)}87.43%{transform:translateX(-9324px)}100%{transform:translateX(-9576px)}}</style><g font-family="'JetBrainsMono',Monaco, Consolas, Menlo, &#x27;Bitstream Vera Sans Mono&#x27;, &#x27;Powerline Symbols&#x27;, monospace" font-size="1.67" class="e"><defs><symbol id="1"><text x="0" y="1.67" class="f">PTerm</text></symbol><symbol id="2"><text x="0" y="1.67" class="f">PTDP</text><text x="5.01" y="1.67" class="f">-</text><text x="7.013999999999999" y="1.67" class="f">PTerm</text><text x="13.026" y="1.67" class="f">Demo</text><text x="18.035999999999998" y="1.67" class="f">ProgramINFO:</text><text x="31.061999999999998" y="1.67" class="f">This</text><text x="36.071999999999996" y="1.67" class="f">animation</text><text x="46.09199999999999" y="1.67" class="f">was</text><text x="50.1" y="1.67" class="f">generated</text><text x="60.11999999999999" y="1.67" class="f">with</text><text x="65.13" y="1.67" class="f">the</text><text x="69.13799999999999" y="1.67" class="f">latest</text><text x="76.15199999999999" y="1.67" class="f">version</text><text x="84.16799999999999" y="1.67" class="f">of</text><text x="87.17399999999999" y="1.67" class="f">PTerm!</text></symbol><symbol id="3"><text x="0" y="1.67" class="f">PTerm</text><text x="6.012" y="1.67" class="f">works</text><text x="12.024" y="1.67" class="f">on</text><text x="15.029999999999998" y="1.67" class="f">nearly</text><text x="22.043999999999997" y="1.67" class="f">every</text><text x="28.055999999999997" y="1.67" class="f">terminal</text><text x="37.074" y="1.67" class="f">and</text><text x="41.082" y="1.67" class="f">operating</text><text x="51.102" y="1.67" class="f">system.</text></symbol><symbol id="4"><text x="0" y="1.67" class="f">It&#x27;s</text><text x="5.01" y="1.67" class="f">super</text><text x="11.021999999999998" y="1.67" class="f">easy</text><text x="16.032" y="1.67" class="f">to</text><text x="19.037999999999997" y="1.67" class="f">use!</text></symbol><symbol id="5"><text x="0" y="1.67" class="f">If</text><text x="3.006" y="1.67" class="f">you</text><text x="7.013999999999999" y="1.67" class="f">want,</text><text x="13.026" y="1.67" class="f">you</text><text x="17.034" y="1.67" class="f">can</text><text x="21.041999999999998" y="1.67" class="f">customize</text><text x="31.061999999999998" y="1.67" class="f">everything</text><text x="42.083999999999996" y="1.67" class="f">:)</text></symbol><symbol id="6"><text x="0" y="1.67" class="f">You</text><text x="4.008" y="1.67" class="f">can</text><text x="8.016" y="1.67" class="f">see</text><text x="12.024" y="1.67" class="f">the</text><text x="16.032" y="1.67" class="f">code</text><text x="21.041999999999998" y="1.67" class="f">of</text><text x="24.048" y="1.67" class="f">this</text><text x="29.058" y="1.67" class="f">demo</text><text x="34.068" y="1.67" class="f">in</text><text x="37.074" y="1.67" class="f">the</text><text x="41.082" y="1.67" class="f">./_examples/demo</text><text x="58.116" y="1.67" class="f">directory.</text></symbol><symbol id="7"><text x="0" y="1.67" class="f">This</text><text x="5.01" y="1.67" class="f">demo</text><text x="10.02" y="1.67" class="f">was</text><text x="14.027999999999999" y="1.67" class="f">updated</text><text x="22.043999999999997" y="1.67" class="f">at:</text><text x="26.052" y="1.67" class="f">21</text><text x="29.058" y="1.67" class="f">Apr</text><text x="33.065999999999995" y="1.67" class="f">2022</text><text x="38.07599999999999" y="1.67" class="f">-</text><text x="40.08" y="1.67" class="f">01:55:17</text><text x="49.098" y="1.67" class="f">CEST</text></symbol><symbol id="8"><text x="0" y="1.67" class="f">Waiting</text><text x="8.016" y="1.67" class="f">for</text><text x="12.024" y="1.67" class="f">15</text><text x="15.029999999999998" y="1.67" class="f">seconds...</text></symbol><symbol id="9"><text x="0" y="1.67" class="f">Waiting</text><text x="8.016" y="1.67" class="f">for</text><text x="12.024" y="1.67" class="f">14</text><text x="15.029999999999998" y="1.67" class="f">seconds...</text></symbol><symbol id="10"><text x="0" y="1.67" class="f">Waiting</text><text x="8.016" y="1.67" class="f">for</text><text x="12.024" y="1.67" class="f">13</text><text x="15.029999999999998" y="1.67" class="f">seconds...</text></symbol><symbol id="11"><text x="0" y="1.67" class="f">Waiting</text><text x="8.016" y="1.67" class="f">for</text><text x="12.024" y="1.67" class="f">12</text><text x="15.029999999999998" y="1.67" class="f">seconds...</text></symbol><symbol id="12"><text x="0" y="1.67" class="f">Waiting</text><text x="8.016" y="1.67" class="f">for</text><text x="12.024" y="1.67" class="f">11</text><text x="15.029999999999998" y="1.67" class="f">seconds...</text></symbol><symbol id="13"><text x="0" y="1.67" class="f">Waiting</text><text x="8.016" y="1.67" class="f">for</text><text x="12.024" y="1.67" class="f">10</text><text x="15.029999999999998" y="1.67" class="f">seconds...</text></symbol><symbol id="14"><text x="0" y="1.67" class="f">Waiting</text><text x="8.016" y="1.67" class="f">for</text><text x="12.024" y="1.67" class="f">9</text><text x="14.027999999999999" y="1.67" class="f">seconds...</text></symbol><symbol id="15"><text x="0" y="1.67" class="f">Waiting</text><text x="8.016" y="1.67" class="f">for</text><text x="12.024" y="1.67" class="f">8</text><text x="14.027999999999999" y="1.67" class="f">seconds...</text></symbol><symbol id="16"><text x="0" y="1.67" class="f">Waiting</text><text x="8.016" y="1.67" class="f">for</text><text x="12.024" y="1.67" class="f">7</text><text x="14.027999999999999" y="1.67" class="f">seconds...</text></symbol><symbol id="17"><text x="0" y="1.67" class="f">Waiting</text><text x="8.016" y="1.67" class="f">for</text><text x="12.024" y="1.67" class="f">6</text><text x="14.027999999999999" y="1.67" class="f">seconds...</text></symbol><symbol id="18"><text x="0" y="1.67" class="f">Waiting</text><text x="8.016" y="1.67" class="f">for</text><text x="12.024" y="1.67" class="f">5</text><text x="14.027999999999999" y="1.67" class="f">seconds...</text></symbol><symbol id="19"><text x="0" y="1.67" class="f">Waiting</text><text x="8.016" y="1.67" class="f">for</text><text x="12.024" y="1.67" class="f">4</text><text x="14.027999999999999" y="1.67" class="f">seconds...</text></symbol><symbol id="20"><text x="0" y="1.67" class="f">Waiting</text><text x="8.016" y="1.67" class="f">for</text><text x="12.024" y="1.67" class="f">3</text><text x="14.027999999999999" y="1.67" class="f">seconds...</text></symbol><symbol id="21"><text x="0" y="1.67" class="f">Waiting</text><text x="8.016" y="1.67" class="f">for</text><text x="12.024" y="1.67" class="f">2</text><text x="14.027999999999999" y="1.67" class="f">seconds...</text></symbol><symbol id="22"><text x="0" y="1.67" class="f">Pseudo</text><text x="7.013999999999999" y="1.67" class="f">Application</text><text x="19.037999999999997" y="1.67" class="f">created</text><text x="27.054" y="1.67" class="f">with</text><text x="32.064" y="1.67" class="f">PTerm</text></symbol><symbol id="23"><text x="0" y="1.67" class="f">#</text><text x="2.004" y="1.67" class="f">Installing</text><text x="13.026" y="1.67" class="f">pseudo</text><text x="20.04" y="1.67" class="f">programs</text></symbol><symbol id="24"><text x="0" y="1.67" class="f">Installing</text><text x="11.021999999999998" y="1.67" class="f">stuff</text></symbol><symbol id="25"><text x="0" y="1.67" class="f">SUCCESS:</text><text x="9.017999999999999" y="1.67" class="f">Installing</text><text x="20.04" y="1.67" class="f">pseudo-excel</text></symbol><symbol id="26"><text x="0" y="1.67" class="f">SUCCESS:</text><text x="9.017999999999999" y="1.67" class="f">Installing</text><text x="20.04" y="1.67" class="f">pseudo-photoshop</text></symbol><symbol id="27"><text x="0" y="1.67" class="f">SUCCESS:</text><text x="9.017999999999999" y="1.67" class="f">Installing</text><text x="20.04" y="1.67" class="f">pseudo-chrome</text></symbol><symbol id="28"><text x="0" y="1.67" class="f">SUCCESS:</text><text x="9.017999999999999" y="1.67" class="f">Installing</text><text x="20.04" y="1.67" class="f">pseudo-outlook</text></symbol><symbol id="29"><text x="0" y="1.67" class="f">SUCCESS:</text><text x="9.017999999999999" y="1.67" class="f">Installing</text><text x="20.04" y="1.67" class="f">pseudo-explorer</text></symbol><symbol id="30"><text x="0" y="1.67" class="f">SUCCESS:</text><text x="9.017999999999999" y="1.67" class="f">Installing</text><text x="20.04" y="1.67" class="f">pseudo-dops</text></symbol><symbol id="31"><text x="0" y="1.67" class="f">SUCCESS:</text><text x="9.017999999999999" y="1.67" class="f">Installing</text><text x="20.04" y="1.67" class="f">pseudo-git</text></symbol><symbol id="32"><text x="0" y="1.67" class="f">SUCCESS:</text><text x="9.017999999999999" y="1.67" class="f">Installing</text><text x="20.04" y="1.67" class="f">pseudo-vsc</text></symbol><symbol id="33"><text x="0" y="1.67" class="f">SUCCESS:</text><text x="9.017999999999999" y="1.67" class="f">Installing</text><text x="20.04" y="1.67" class="f">pseudo-intellij</text></symbol><symbol id="34"><text x="0" y="1.67" class="f">WARNING:</text><text x="9.017999999999999" y="1.67" class="f">Could</text><text x="15.029999999999998" y="1.67" class="f">not</text><text x="19.037999999999997" y="1.67" class="f">install</text><text x="27.054" y="1.67" class="f">pseudo-minecraft</text></symbol><symbol id="35"><text x="0" y="1.67" class="f">The</text><text x="4.008" y="1.67" class="f">company</text><text x="12.024" y="1.67" class="f">policy</text><text x="19.037999999999997" y="1.67" class="f">forbids</text><text x="27.054" y="1.67" class="f">games.</text></symbol><symbol id="36"><text x="0" y="1.67" class="f">SUCCESS:</text><text x="9.017999999999999" y="1.67" class="f">Installing</text><text x="20.04" y="1.67" class="f">pseudo-scoop</text></symbol><symbol id="37"><text x="0" y="1.67" class="f">SUCCESS:</text><text x="9.017999999999999" y="1.67" class="f">Installing</text><text x="20.04" y="1.67" class="f">pseudo-chocolatey</text></symbol><symbol id="38"><text x="0" y="1.67" class="f">##</text><text x="3.006" y="1.67" class="f">Program</text><text x="11.021999999999998" y="1.67" class="f">Install</text><text x="19.037999999999997" y="1.67" class="f">Report</text></symbol><symbol id="39"><text x="0" y="1.67" class="f">Program</text><text x="8.016" y="1.67" class="f">Name</text><text x="18.035999999999998" y="1.67" class="f">|</text><text x="20.04" y="1.67" class="f">Status</text><text x="27.054" y="1.67" class="f">|</text><text x="29.058" y="1.67" class="f">Size</text></symbol><symbol id="40"><text x="0" y="1.67" class="f">pseudo-excel</text><text x="18.035999999999998" y="1.67" class="f">|</text><text x="20.04" y="1.67" class="f">pass</text><text x="27.054" y="1.67" class="f">|</text><text x="29.058" y="1.67" class="f">137mb</text></symbol><symbol id="41"><text x="0" y="1.67" class="f">pseudo-photoshop</text><text x="18.035999999999998" y="1.67" class="f">|</text><text x="20.04" y="1.67" class="f">pass</text><text x="27.054" y="1.67" class="f">|</text><text x="29.058" y="1.67" class="f">24mb</text></symbol><symbol id="42"><text x="0" y="1.67" class="f">pseudo-chrome</text><text x="18.035999999999998" y="1.67" class="f">|</text><text x="20.04" y="1.67" class="f">pass</text><text x="27.054" y="1.67" class="f">|</text><text x="29.058" y="1.67" class="f">37mb</text></symbol><symbol id="43"><text x="0" y="1.67" class="f">pseudo-outlook</text><text x="18.035999999999998" y="1.67" class="f">|</text><text x="20.04" y="1.67" class="f">pass</text><text x="27.054" y="1.67" class="f">|</text><text x="29.058" y="1.67" class="f">117mb</text></symbol><symbol id="44"><text x="0" y="1.67" class="f">pseudo-explorer</text><text x="18.035999999999998" y="1.67" class="f">|</text><text x="20.04" y="1.67" class="f">pass</text><text x="27.054" y="1.67" class="f">|</text><text x="29.058" y="1.67" class="f">24mb</text></symbol><symbol id="45"><text x="0" y="1.67" class="f">pseudo-dops</text><text x="18.035999999999998" y="1.67" class="f">|</text><text x="20.04" y="1.67" class="f">pass</text><text x="27.054" y="1.67" class="f">|</text><text x="29.058" y="1.67" class="f">150mb</text></symbol><symbol id="46"><text x="0" y="1.67" class="f">pseudo-git</text><text x="18.035999999999998" y="1.67" class="f">|</text><text x="20.04" y="1.67" class="f">pass</text><text x="27.054" y="1.67" class="f">|</text><text x="29.058" y="1.67" class="f">10mb</text></symbol><symbol id="47"><text x="0" y="1.67" class="f">pseudo-vsc</text><text x="18.035999999999998" y="1.67" class="f">|</text><text x="20.04" y="1.67" class="f">pass</text><text x="27.054" y="1.67" class="f">|</text><text x="29.058" y="1.67" class="f">56mb</text></symbol><symbol id="48"><text x="0" y="1.67" class="f">pseudo-intellij</text><text x="18.035999999999998" y="1.67" class="f">|</text><text x="20.04" y="1.67" class="f">pass</text><text x="27.054" y="1.67" class="f">|</text><text x="29.058" y="1.67" class="f">182mb</text></symbol><symbol id="49"><text x="0" y="1.67" class="f">pseudo-minecraft</text><text x="18.035999999999998" y="1.67" class="f">|</text><text x="20.04" y="1.67" class="f">fail</text><text x="27.054" y="1.67" class="f">|</text><text x="29.058" y="1.67" class="f">0mb</text></symbol><symbol id="50"><text x="0" y="1.67" class="f">pseudo-scoop</text><text x="18.035999999999998" y="1.67" class="f">|</text><text x="20.04" y="1.67" class="f">pass</text><text x="27.054" y="1.67" class="f">|</text><text x="29.058" y="1.67" class="f">194mb</text></symbol><symbol id="51"><text x="0" y="1.67" class="f">pseudo-chocolatey</text><text x="18.035999999999998" y="1.67" class="f">|</text><text x="20.04" y="1.67" class="f">pass</text><text x="27.054" y="1.67" class="f">|</text><text x="29.058" y="1.67" class="f">61mb</text></symbol><symbol id="52"><text x="4.008" y="1.67" class="f">│</text><text x="6.012" y="1.67" class="f">├──pseudo-Tabs</text></symbol><symbol id="53"><text x="4.008" y="1.67" class="f">│</text><text x="6.012" y="1.67" class="f">├─┬pseudo-Extensions</text></symbol><symbol id="54"><text x="4.008" y="1.67" class="f">│</text><text x="6.012" y="1.67" class="f">│</text><text x="8.016" y="1.67" class="f">├──Refined</text><text x="19.037999999999997" y="1.67" class="f">GitHub</text></symbol><symbol id="55"><text x="4.008" y="1.67" class="f">│</text><text x="6.012" y="1.67" class="f">│</text><text x="8.016" y="1.67" class="f">└──GitHub</text><text x="18.035999999999998" y="1.67" class="f">Dark</text><text x="23.045999999999996" y="1.67" class="f">Theme</text></symbol><symbol id="56"><text x="4.008" y="1.67" class="f">│</text><text x="6.012" y="1.67" class="f">└─┬pseudo-Bookmarks</text></symbol><symbol id="57"><text x="4.008" y="1.67" class="f">│</text><text x="8.016" y="1.67" class="f">└──PTerm</text></symbol><symbol id="58"><text x="4.008" y="1.67" class="f">├──pseudo-outlook</text></symbol><symbol id="59"><text x="4.008" y="1.67" class="f">├──pseudo-explorer</text></symbol><symbol id="60"><text x="4.008" y="1.67" class="f">├──pseudo-dops</text></symbol><symbol id="61"><text x="4.008" y="1.67" class="f">├──pseudo-git</text></symbol><symbol id="62"><text x="4.008" y="1.67" class="f">├──pseudo-vsc</text></symbol><symbol id="63"><text x="4.008" y="1.67" class="f">├──pseudo-intellij</text></symbol><symbol id="64"><text x="4.008" y="1.67" class="f">├──pseudo-scoop</text></symbol><symbol id="65"><text x="4.008" y="1.67" class="f">└──pseudo-chocolatey</text></symbol><symbol id="66"><text x="0" y="1.67" class="f">#</text><text x="2.004" y="1.67" class="f">TrueColor</text><text x="12.024" y="1.67" class="f">Support</text></symbol><symbol id="67"><text x="0" y="1.67" class="f">INFO:</text><text x="6.012" y="1.67" class="f">If</text><text x="9.017999999999999" y="1.67" class="f">your</text><text x="14.027999999999999" y="1.67" class="f">terminal</text><text x="23.045999999999996" y="1.67" class="f">has</text><text x="27.054" y="1.67" class="f">TrueColor</text><text x="37.074" y="1.67" class="f">support,</text><text x="46.09199999999999" y="1.67" class="f">you</text><text x="50.1" y="1.67" class="f">can</text><text x="54.108" y="1.67" class="f">use</text><text x="58.116" y="1.67" class="f">RGB</text><text x="62.123999999999995" y="1.67" class="f">colors!</text></symbol><symbol id="68"><text x="0" y="1.67" class="f">You</text><text x="4.008" y="1.67" class="f">can</text><text x="8.016" y="1.67" class="f">even</text><text x="13.026" y="1.67" class="f">fade</text><text x="18.035999999999998" y="1.67" class="f">them</text><text x="23.045999999999996" y="1.67" class="f">:)</text></symbol><symbol id="69"><text x="0" y="1.67" class="f">#</text><text x="2.004" y="1.67" class="f">Bullet</text><text x="9.017999999999999" y="1.67" class="f">List</text><text x="14.027999999999999" y="1.67" class="f">Printer</text></symbol><symbol id="70"><text x="0" y="1.67" class="f">•</text><text x="2.004" y="1.67" class="f">Good</text><text x="7.013999999999999" y="1.67" class="f">bye</text></symbol><symbol id="71"><text x="1.002" y="1.67" class="f">•</text><text x="3.006" y="1.67" class="f">Have</text><text x="8.016" y="1.67" class="f">a</text><text x="10.02" y="1.67" class="f">nice</text><text x="15.029999999999998" y="1.67" class="f">day!</text></symbol><symbol id="a"><rect height="19" width="252" x="0" y="0" class="g"></rect></symbol></defs><rect height="41.248999999999995" width="252" class="a"></rect><g class="i"><svg x="0" y="0" width="9828"><svg x="0"><use xlink:href="#a"></use></svg><svg x="252"><use xlink:href="#a"></use><use xlink:href="#1" y="0"></use><use xlink:href="#2" y="2.171"></use><use xlink:href="#3" y="4.342"></use><use xlink:href="#4" y="6.513"></use><use xlink:href="#5" y="8.684"></use><use xlink:href="#6" y="10.855"></use><use xlink:href="#7" y="15.197"></use></svg><svg x="504"><use xlink:href="#a"></use><use xlink:href="#1" y="0"></use><use xlink:href="#2" y="2.171"></use><use xlink:href="#3" y="4.342"></use><use xlink:href="#4" y="6.513"></use><use xlink:href="#5" y="8.684"></use><use xlink:href="#6" y="10.855"></use><use xlink:href="#7" y="15.197"></use><use xlink:href="#8" y="19.539"></use></svg><svg x="756"><use xlink:href="#a"></use><use xlink:href="#1" y="0"></use><use xlink:href="#2" y="2.171"></use><use xlink:href="#3" y="4.342"></use><use xlink:href="#4" y="6.513"></use><use xlink:href="#5" y="8.684"></use><use xlink:href="#6" y="10.855"></use><use xlink:href="#7" y="15.197"></use><use xlink:href="#8" y="19.539"></use><use xlink:href="#9" y="21.71"></use></svg><svg x="1008"><use xlink:href="#a"></use><use xlink:href="#1" y="0"></use><use xlink:href="#2" y="2.171"></use><use xlink:href="#3" y="4.342"></use><use xlink:href="#4" y="6.513"></use><use xlink:href="#5" y="8.684"></use><use xlink:href="#6" y="10.855"></use><use xlink:href="#7" y="15.197"></use><use xlink:href="#8" y="19.539"></use><use xlink:href="#9" y="21.71"></use><use xlink:href="#10" y="23.880999999999997"></use></svg><svg x="1260"><use xlink:href="#a"></use><use xlink:href="#1" y="0"></use><use xlink:href="#2" y="2.171"></use><use xlink:href="#3" y="4.342"></use><use xlink:href="#4" y="6.513"></use><use xlink:href="#5" y="8.684"></use><use xlink:href="#6" y="10.855"></use><use xlink:href="#7" y="15.197"></use><use xlink:href="#8" y="19.539"></use><use xlink:href="#9" y="21.71"></use><use xlink:href="#10" y="23.880999999999997"></use><use xlink:href="#11" y="26.052"></use></svg><svg x="1512"><use xlink:href="#a"></use><use xlink:href="#1" y="0"></use><use xlink:href="#2" y="2.171"></use><use xlink:href="#3" y="4.342"></use><use xlink:href="#4" y="6.513"></use><use xlink:href="#5" y="8.684"></use><use xlink:href="#6" y="10.855"></use><use xlink:href="#7" y="15.197"></use><use xlink:href="#8" y="19.539"></use><use xlink:href="#9" y="21.71"></use><use xlink:href="#10" y="23.880999999999997"></use><use xlink:href="#11" y="26.052"></use><use xlink:href="#12" y="28.223000000000003"></use></svg><svg x="1764"><use xlink:href="#a"></use><use xlink:href="#1" y="0"></use><use xlink:href="#2" y="2.171"></use><use xlink:href="#3" y="4.342"></use><use xlink:href="#4" y="6.513"></use><use xlink:href="#5" y="8.684"></use><use xlink:href="#6" y="10.855"></use><use xlink:href="#7" y="15.197"></use><use xlink:href="#8" y="19.539"></use><use xlink:href="#9" y="21.71"></use><use xlink:href="#10" y="23.880999999999997"></use><use xlink:href="#11" y="26.052"></use><use xlink:href="#12" y="28.223000000000003"></use><use xlink:href="#13" y="30.394"></use></svg><svg x="2016"><use xlink:href="#a"></use><use xlink:href="#1" y="0"></use><use xlink:href="#2" y="2.171"></use><use xlink:href="#3" y="4.342"></use><use xlink:href="#4" y="6.513"></use><use xlink:href="#5" y="8.684"></use><use xlink:href="#6" y="10.855"></use><use xlink:href="#7" y="15.197"></use><use xlink:href="#8" y="19.539"></use><use xlink:href="#9" y="21.71"></use><use xlink:href="#10" y="23.880999999999997"></use><use xlink:href="#11" y="26.052"></use><use xlink:href="#12" y="28.223000000000003"></use><use xlink:href="#13" y="30.394"></use><use xlink:href="#14" y="32.565"></use></svg><svg x="2268"><use xlink:href="#a"></use><use xlink:href="#1" y="0"></use><use xlink:href="#2" y="2.171"></use><use xlink:href="#3" y="4.342"></use><use xlink:href="#4" y="6.513"></use><use xlink:href="#5" y="8.684"></use><use xlink:href="#6" y="10.855"></use><use xlink:href="#7" y="15.197"></use><use xlink:href="#8" y="19.539"></use><use xlink:href="#9" y="21.71"></use><use xlink:href="#10" y="23.880999999999997"></use><use xlink:href="#11" y="26.052"></use><use xlink:href="#12" y="28.223000000000003"></use><use xlink:href="#13" y="30.394"></use><use xlink:href="#14" y="32.565"></use><use xlink:href="#15" y="34.736"></use></svg><svg x="2520"><use xlink:href="#a"></use><use xlink:href="#1" y="0"></use><use xlink:href="#2" y="2.171"></use><use xlink:href="#3" y="4.342"></use><use xlink:href="#4" y="6.513"></use><use xlink:href="#5" y="8.684"></use><use xlink:href="#6" y="10.855"></use><use xlink:href="#7" y="15.197"></use><use xlink:href="#8" y="19.539"></use><use xlink:href="#9" y="21.71"></use><use xlink:href="#10" y="23.880999999999997"></use><use xlink:href="#11" y="26.052"></use><use xlink:href="#12" y="28.223000000000003"></use><use xlink:href="#13" y="30.394"></use><use xlink:href="#14" y="32.565"></use><use xlink:href="#15" y="34.736"></use><use xlink:href="#16" y="36.907000000000004"></use></svg><svg x="2772"><use xlink:href="#a"></use><use xlink:href="#2" y="0"></use><use xlink:href="#3" y="2.171"></use><use xlink:href="#4" y="4.342"></use><use xlink:href="#5" y="6.513"></use><use xlink:href="#6" y="8.684"></use><use xlink:href="#7" y="13.026"></use><use xlink:href="#8" y="17.368"></use><use xlink:href="#9" y="19.539"></use><use xlink:href="#10" y="21.71"></use><use xlink:href="#11" y="23.880999999999997"></use><use xlink:href="#12" y="26.052"></use><use xlink:href="#13" y="28.223000000000003"></use><use xlink:href="#14" y="30.394"></use><use xlink:href="#15" y="32.565"></use><use xlink:href="#16" y="34.736"></use><use xlink:href="#17" y="36.907000000000004"></use></svg><svg x="3024"><use xlink:href="#a"></use><use xlink:href="#3" y="0"></use><use xlink:href="#4" y="2.171"></use><use xlink:href="#5" y="4.342"></use><use xlink:href="#6" y="6.513"></use><use xlink:href="#7" y="10.855"></use><use xlink:href="#8" y="15.197"></use><use xlink:href="#9" y="17.368"></use><use xlink:href="#10" y="19.539"></use><use xlink:href="#11" y="21.71"></use><use xlink:href="#12" y="23.880999999999997"></use><use xlink:href="#13" y="26.052"></use><use xlink:href="#14" y="28.223000000000003"></use><use xlink:href="#15" y="30.394"></use><use xlink:href="#16" y="32.565"></use><use xlink:href="#17" y="34.736"></use><use xlink:href="#18" y="36.907000000000004"></use></svg><svg x="3276"><use xlink:href="#a"></use><use xlink:href="#4" y="0"></use><use xlink:href="#5" y="2.171"></use><use xlink:href="#6" y="4.342"></use><use xlink:href="#7" y="8.684"></use><use xlink:href="#8" y="13.026"></use><use xlink:href="#9" y="15.197"></use><use xlink:href="#10" y="17.368"></use><use xlink:href="#11" y="19.539"></use><use xlink:href="#12" y="21.71"></use><use xlink:href="#13" y="23.880999999999997"></use><use xlink:href="#14" y="26.052"></use><use xlink:href="#15" y="28.223000000000003"></use><use xlink:href="#16" y="30.394"></use><use xlink:href="#17" y="32.565"></use><use xlink:href="#18" y="34.736"></use><use xlink:href="#19" y="36.907000000000004"></use></svg><svg x="3528"><use xlink:href="#a"></use><use xlink:href="#5" y="0"></use><use xlink:href="#6" y="2.171"></use><use xlink:href="#7" y="6.513"></use><use xlink:href="#8" y="10.855"></use><use xlink:href="#9" y="13.026"></use><use xlink:href="#10" y="15.197"></use><use xlink:href="#11" y="17.368"></use><use xlink:href="#12" y="19.539"></use><use xlink:href="#13" y="21.71"></use><use xlink:href="#14" y="23.880999999999997"></use><use xlink:href="#15" y="26.052"></use><use xlink:href="#16" y="28.223000000000003"></use><use xlink:href="#17" y="30.394"></use><use xlink:href="#18" y="32.565"></use><use xlink:href="#19" y="34.736"></use><use xlink:href="#20" y="36.907000000000004"></use></svg><svg x="3780"><use xlink:href="#a"></use><use xlink:href="#6" y="0"></use><use xlink:href="#7" y="4.342"></use><use xlink:href="#8" y="8.684"></use><use xlink:href="#9" y="10.855"></use><use xlink:href="#10" y="13.026"></use><use xlink:href="#11" y="15.197"></use><use xlink:href="#12" y="17.368"></use><use xlink:href="#13" y="19.539"></use><use xlink:href="#14" y="21.71"></use><use xlink:href="#15" y="23.880999999999997"></use><use xlink:href="#16" y="26.052"></use><use xlink:href="#17" y="28.223000000000003"></use><use xlink:href="#18" y="30.394"></use><use xlink:href="#19" y="32.565"></use><use xlink:href="#20" y="34.736"></use><use xlink:href="#21" y="36.907000000000004"></use></svg><svg x="4032"><use xlink:href="#a"></use><use xlink:href="#7" y="2.171"></use><use xlink:href="#8" y="6.513"></use><use xlink:href="#9" y="8.684"></use><use xlink:href="#10" y="10.855"></use><use xlink:href="#11" y="13.026"></use><use xlink:href="#12" y="15.197"></use><use xlink:href="#13" y="17.368"></use><use xlink:href="#14" y="19.539"></use><use xlink:href="#15" y="21.71"></use><use xlink:href="#16" y="23.880999999999997"></use><use xlink:href="#17" y="26.052"></use><use xlink:href="#18" y="28.223000000000003"></use><use xlink:href="#19" y="30.394"></use><use xlink:href="#20" y="32.565"></use><use xlink:href="#21" y="34.736"></use><text x="0" y="38.577000000000005" class="f">Waiting</text><text x="8.016" y="38.577000000000005" class="f">for</text><text x="12.024" y="38.577000000000005" class="f">1</text><text x="14.027999999999999" y="38.577000000000005" class="f">second...</text></svg><svg x="4284"><use xlink:href="#a"></use><use xlink:href="#22" y="0"></use></svg><svg x="4536"><use xlink:href="#a"></use><use xlink:href="#22" y="0"></use><use xlink:href="#23" y="2.171"></use><use xlink:href="#24" y="6.513"></use><use xlink:href="#25" y="8.684"></use></svg><svg x="4788"><use xlink:href="#a"></use><use xlink:href="#22" y="0"></use><use xlink:href="#23" y="2.171"></use><use xlink:href="#24" y="6.513"></use><use xlink:href="#25" y="8.684"></use><use xlink:href="#26" y="10.855"></use></svg><svg x="5040"><use xlink:href="#a"></use><use xlink:href="#22" y="0"></use><use xlink:href="#23" y="2.171"></use><use xlink:href="#24" y="6.513"></use><use xlink:href="#25" y="8.684"></use><use xlink:href="#26" y="10.855"></use><use xlink:href="#27" y="13.026"></use></svg><svg x="5292"><use xlink:href="#a"></use><use xlink:href="#22" y="0"></use><use xlink:href="#23" y="2.171"></use><use xlink:href="#24" y="6.513"></use><use xlink:href="#25" y="8.684"></use><use xlink:href="#26" y="10.855"></use><use xlink:href="#27" y="13.026"></use><use xlink:href="#28" y="15.197"></use></svg><svg x="5544"><use xlink:href="#a"></use><use xlink:href="#22" y="0"></use><use xlink:href="#23" y="2.171"></use><use xlink:href="#24" y="6.513"></use><use xlink:href="#25" y="8.684"></use><use xlink:href="#26" y="10.855"></use><use xlink:href="#27" y="13.026"></use><use xlink:href="#28" y="15.197"></use><use xlink:href="#29" y="17.368"></use></svg><svg x="5796"><use xlink:href="#a"></use><use xlink:href="#22" y="0"></use><use xlink:href="#23" y="2.171"></use><use xlink:href="#24" y="6.513"></use><use xlink:href="#25" y="8.684"></use><use xlink:href="#26" y="10.855"></use><use xlink:href="#27" y="13.026"></use><use xlink:href="#28" y="15.197"></use><use xlink:href="#29" y="17.368"></use><use xlink:href="#30" y="19.539"></use></svg><svg x="6048"><use xlink:href="#a"></use><use xlink:href="#22" y="0"></use><use xlink:href="#23" y="2.171"></use><use xlink:href="#24" y="6.513"></use><use xlink:href="#25" y="8.684"></use><use xlink:href="#26" y="10.855"></use><use xlink:href="#27" y="13.026"></use><use xlink:href="#28" y="15.197"></use><use xlink:href="#29" y="17.368"></use><use xlink:href="#30" y="19.539"></use><use xlink:href="#31" y="21.71"></use></svg><svg x="6300"><use xlink:href="#a"></use><use xlink:href="#22" y="0"></use><use xlink:href="#23" y="2.171"></use><use xlink:href="#24" y="6.513"></use><use xlink:href="#25" y="8.684"></use><use xlink:href="#26" y="10.855"></use><use xlink:href="#27" y="13.026"></use><use xlink:href="#28" y="15.197"></use><use xlink:href="#29" y="17.368"></use><use xlink:href="#30" y="19.539"></use><use xlink:href="#31" y="21.71"></use><use xlink:href="#32" y="23.880999999999997"></use></svg><svg x="6552"><use xlink:href="#a"></use><use xlink:href="#22" y="0"></use><use xlink:href="#23" y="2.171"></use><use xlink:href="#24" y="6.513"></use><use xlink:href="#25" y="8.684"></use><use xlink:href="#26" y="10.855"></use><use xlink:href="#27" y="13.026"></use><use xlink:href="#28" y="15.197"></use><use xlink:href="#29" y="17.368"></use><use xlink:href="#30" y="19.539"></use><use xlink:href="#31" y="21.71"></use><use xlink:href="#32" y="23.880999999999997"></use><use xlink:href="#33" y="26.052"></use></svg><svg x="6804"><use xlink:href="#a"></use><use xlink:href="#22" y="0"></use><use xlink:href="#23" y="2.171"></use><use xlink:href="#24" y="6.513"></use><use xlink:href="#25" y="8.684"></use><use xlink:href="#26" y="10.855"></use><use xlink:href="#27" y="13.026"></use><use xlink:href="#28" y="15.197"></use><use xlink:href="#29" y="17.368"></use><use xlink:href="#30" y="19.539"></use><use xlink:href="#31" y="21.71"></use><use xlink:href="#32" y="23.880999999999997"></use><use xlink:href="#33" y="26.052"></use><use xlink:href="#34" y="28.223000000000003"></use><use xlink:href="#35" y="30.394"></use></svg><svg x="7056"><use xlink:href="#a"></use><use xlink:href="#22" y="0"></use><use xlink:href="#23" y="2.171"></use><use xlink:href="#24" y="6.513"></use><use xlink:href="#25" y="8.684"></use><use xlink:href="#26" y="10.855"></use><use xlink:href="#27" y="13.026"></use><use xlink:href="#28" y="15.197"></use><use xlink:href="#29" y="17.368"></use><use xlink:href="#30" y="19.539"></use><use xlink:href="#31" y="21.71"></use><use xlink:href="#32" y="23.880999999999997"></use><use xlink:href="#33" y="26.052"></use><use xlink:href="#34" y="28.223000000000003"></use><use xlink:href="#35" y="30.394"></use><use xlink:href="#36" y="32.565"></use></svg><svg x="7308"><use xlink:href="#a"></use><use xlink:href="#22" y="0"></use><use xlink:href="#23" y="2.171"></use><use xlink:href="#24" y="6.513"></use><use xlink:href="#25" y="8.684"></use><use xlink:href="#26" y="10.855"></use><use xlink:href="#27" y="13.026"></use><use xlink:href="#28" y="15.197"></use><use xlink:href="#29" y="17.368"></use><use xlink:href="#30" y="19.539"></use><use xlink:href="#31" y="21.71"></use><use xlink:href="#32" y="23.880999999999997"></use><use xlink:href="#33" y="26.052"></use><use xlink:href="#34" y="28.223000000000003"></use><use xlink:href="#35" y="30.394"></use><use xlink:href="#36" y="32.565"></use><use xlink:href="#37" y="34.736"></use></svg><svg x="7560"><use xlink:href="#a"></use><use xlink:href="#22" y="0"></use><use xlink:href="#23" y="2.171"></use><use xlink:href="#24" y="6.513"></use><use xlink:href="#25" y="8.684"></use><use xlink:href="#26" y="10.855"></use><use xlink:href="#27" y="13.026"></use><use xlink:href="#28" y="15.197"></use><use xlink:href="#29" y="17.368"></use><use xlink:href="#30" y="19.539"></use><use xlink:href="#31" y="21.71"></use><use xlink:href="#32" y="23.880999999999997"></use><use xlink:href="#33" y="26.052"></use><use xlink:href="#34" y="28.223000000000003"></use><use xlink:href="#35" y="30.394"></use><use xlink:href="#36" y="32.565"></use><use xlink:href="#37" y="34.736"></use></svg><svg x="7812"><use xlink:href="#a"></use><use xlink:href="#24" y="0"></use><use xlink:href="#25" y="2.171"></use><use xlink:href="#26" y="4.342"></use><use xlink:href="#27" y="6.513"></use><use xlink:href="#28" y="8.684"></use><use xlink:href="#29" y="10.855"></use><use xlink:href="#30" y="13.026"></use><use xlink:href="#31" y="15.197"></use><use xlink:href="#32" y="17.368"></use><use xlink:href="#33" y="19.539"></use><use xlink:href="#34" y="21.71"></use><use xlink:href="#35" y="23.880999999999997"></use><use xlink:href="#36" y="26.052"></use><use xlink:href="#37" y="28.223000000000003"></use><use xlink:href="#38" y="34.736"></use></svg><svg x="8064"><use xlink:href="#a"></use><use xlink:href="#37" y="0"></use><use xlink:href="#38" y="6.513"></use><use xlink:href="#39" y="10.855"></use><use xlink:href="#40" y="13.026"></use><use xlink:href="#41" y="15.197"></use><use xlink:href="#42" y="17.368"></use><use xlink:href="#43" y="19.539"></use><use xlink:href="#44" y="21.71"></use><use xlink:href="#45" y="23.880999999999997"></use><use xlink:href="#46" y="26.052"></use><use xlink:href="#47" y="28.223000000000003"></use><use xlink:href="#48" y="30.394"></use><use xlink:href="#49" y="32.565"></use><use xlink:href="#50" y="34.736"></use><use xlink:href="#51" y="36.907000000000004"></use></svg><svg x="8316"><use xlink:href="#a"></use><use xlink:href="#38" y="0"></use><use xlink:href="#39" y="4.342"></use><use xlink:href="#40" y="6.513"></use><use xlink:href="#41" y="8.684"></use><use xlink:href="#42" y="10.855"></use><use xlink:href="#43" y="13.026"></use><use xlink:href="#44" y="15.197"></use><use xlink:href="#45" y="17.368"></use><use xlink:href="#46" y="19.539"></use><use xlink:href="#47" y="21.71"></use><use xlink:href="#48" y="23.880999999999997"></use><use xlink:href="#49" y="26.052"></use><use xlink:href="#50" y="28.223000000000003"></use><use xlink:href="#51" y="30.394"></use><text x="0" y="36.406" class="f">#</text><text x="2.004" y="36.406" class="f">Tree</text><text x="7.013999999999999" y="36.406" class="f">Printer</text></svg><svg x="8568"><use xlink:href="#a"></use><text x="4.008" y="1.67" class="f">├──pseudo-excel</text><text x="4.008" y="3.8409999999999997" class="f">├──pseudo-photoshop</text><text x="4.008" y="6.012" class="f">├─┬pseudo-chrome</text><use xlink:href="#52" y="6.513"></use><use xlink:href="#53" y="8.684"></use><use xlink:href="#54" y="10.855"></use><use xlink:href="#55" y="13.026"></use><use xlink:href="#56" y="15.197"></use><use xlink:href="#57" y="17.368"></use><use xlink:href="#58" y="19.539"></use><use xlink:href="#59" y="21.71"></use><use xlink:href="#60" y="23.880999999999997"></use><use xlink:href="#61" y="26.052"></use><use xlink:href="#62" y="28.223000000000003"></use><use xlink:href="#63" y="30.394"></use><use xlink:href="#64" y="32.565"></use><use xlink:href="#65" y="34.736"></use></svg><svg x="8820"><use xlink:href="#a"></use><use xlink:href="#52" y="0"></use><use xlink:href="#53" y="2.171"></use><use xlink:href="#54" y="4.342"></use><use xlink:href="#55" y="6.513"></use><use xlink:href="#56" y="8.684"></use><use xlink:href="#57" y="10.855"></use><use xlink:href="#58" y="13.026"></use><use xlink:href="#59" y="15.197"></use><use xlink:href="#60" y="17.368"></use><use xlink:href="#61" y="19.539"></use><use xlink:href="#62" y="21.71"></use><use xlink:href="#63" y="23.880999999999997"></use><use xlink:href="#64" y="26.052"></use><use xlink:href="#65" y="28.223000000000003"></use><use xlink:href="#66" y="34.736"></use></svg><svg x="9072"><use xlink:href="#a"></use><use xlink:href="#54" y="0"></use><use xlink:href="#55" y="2.171"></use><use xlink:href="#56" y="4.342"></use><use xlink:href="#57" y="6.513"></use><use xlink:href="#58" y="8.684"></use><use xlink:href="#59" y="10.855"></use><use xlink:href="#60" y="13.026"></use><use xlink:href="#61" y="15.197"></use><use xlink:href="#62" y="17.368"></use><use xlink:href="#63" y="19.539"></use><use xlink:href="#64" y="21.71"></use><use xlink:href="#65" y="23.880999999999997"></use><use xlink:href="#66" y="30.394"></use><use xlink:href="#67" y="34.736"></use><use xlink:href="#68" y="36.907000000000004"></use></svg><svg x="9324"><use xlink:href="#a"></use><use xlink:href="#60" y="0"></use><use xlink:href="#61" y="2.171"></use><use xlink:href="#62" y="4.342"></use><use xlink:href="#63" y="6.513"></use><use xlink:href="#64" y="8.684"></use><use xlink:href="#65" y="10.855"></use><use xlink:href="#66" y="17.368"></use><use xlink:href="#67" y="21.71"></use><use xlink:href="#68" y="23.880999999999997"></use><use xlink:href="#69" y="28.223000000000003"></use><use xlink:href="#70" y="32.565"></use><use xlink:href="#71" y="34.736"></use></svg><svg x="9576"><use xlink:href="#a"></use><use xlink:href="#62" y="0"></use><use xlink:href="#63" y="2.171"></use><use xlink:href="#64" y="4.342"></use><use xlink:href="#65" y="6.513"></use><use xlink:href="#66" y="13.026"></use><use xlink:href="#67" y="17.368"></use><use xlink:href="#68" y="19.539"></use><use xlink:href="#69" y="23.880999999999997"></use><use xlink:href="#70" y="28.223000000000003"></use><use xlink:href="#71" y="30.394"></use><text x="0" y="38.577000000000005" class="f">Restarting</text><text x="11.021999999999998" y="38.577000000000005" class="f">animation...</text></svg></svg></g></g></svg></svg>