<svg xmlns="http://www.w3.org/2000/svg" xmlns:xlink="http://www.w3.org/1999/xlink" width="840" height="581.04"><rect width="840" height="581.04" rx="5" ry="5" class="a"></rect><svg y="0%" x="0%"><circle cx="20" cy="20" r="6" class="b"></circle><circle cx="40" cy="20" r="6" class="c"></circle><circle cx="60" cy="20" r="6" class="d"></circle></svg><svg height="521.04" viewBox="0 0 80 52.104" width="800" x="15" xmlns="http://www.w3.org/2000/svg" xmlns:xlink="http://www.w3.org/1999/xlink" y="50"><style>.e, .g, .f {
	font-family:
			'Courier New'
			Roboto,
			Helvetica,
			Arial,
			sans-serif,
			'Apple Color Emoji',
			'Segoe UI Emoji' !important;
}.a{fill:rgb(35,35,35)}.b{fill:#ff5f58}.c{fill:#ffbd2e}.d{fill:#18c132}.e{font-family:'Courier New',Monaco,Consolas,Menlo,'Bitstream Vera Sans Mono','Powerline Symbols',monospace}.f{fill:rgb(126,231,233);white-space:pre}.g{fill:rgb(160,160,160);white-space:pre}.h{fill:rgb(234,89,246);white-space:pre}.i{fill:rgb(255,0,4);white-space:pre}.j{fill:rgb(234,89,246);font-weight:bold;white-space:pre}.k{fill:rgb(124,255,0);white-space:pre}.l{fill:rgb(102,194,205)}.m{white-space:pre}.n{fill:transparent}.o{fill:rgb(160,160,160)}.q{animation-duration:14.880214s;animation-iteration-count:infinite;animation-name:p;animation-timing-function:steps(1,end)}@keyframes p{0%{transform:translateX(-0px)}1.7%{transform:translateX(-80px)}2.1%{transform:translateX(-160px)}8.4%{transform:translateX(-240px)}8.4%{transform:translateX(-320px)}8.4%{transform:translateX(-400px)}8.5%{transform:translateX(-480px)}8.5%{transform:translateX(-560px)}9.2%{transform:translateX(-640px)}9.2%{transform:translateX(-720px)}9.2%{transform:translateX(-800px)}9.2%{transform:translateX(-880px)}9.2%{transform:translateX(-960px)}9.2%{transform:translateX(-1040px)}9.2%{transform:translateX(-1120px)}12.5%{transform:translateX(-1200px)}12.5%{transform:translateX(-1280px)}12.5%{transform:translateX(-1360px)}12.5%{transform:translateX(-1440px)}12.5%{transform:translateX(-1520px)}12.5%{transform:translateX(-1600px)}12.5%{transform:translateX(-1680px)}15.9%{transform:translateX(-1760px)}16.6%{transform:translateX(-1840px)}16.6%{transform:translateX(-1920px)}16.6%{transform:translateX(-2000px)}16.6%{transform:translateX(-2080px)}16.6%{transform:translateX(-2160px)}16.6%{transform:translateX(-2240px)}16.6%{transform:translateX(-2320px)}16.6%{transform:translateX(-2400px)}19.9%{transform:translateX(-2480px)}19.9%{transform:translateX(-2560px)}19.9%{transform:translateX(-2640px)}19.9%{transform:translateX(-2720px)}19.9%{transform:translateX(-2800px)}19.9%{transform:translateX(-2880px)}23.3%{transform:translateX(-2960px)}23.3%{transform:translateX(-3040px)}23.3%{transform:translateX(-3120px)}23.3%{transform:translateX(-3200px)}23.3%{transform:translateX(-3280px)}24%{transform:translateX(-3360px)}24%{transform:translateX(-3440px)}24%{transform:translateX(-3520px)}24%{transform:translateX(-3600px)}24%{transform:translateX(-3680px)}24%{transform:translateX(-3760px)}27.3%{transform:translateX(-3840px)}30.7%{transform:translateX(-3920px)}30.7%{transform:translateX(-4000px)}30.7%{transform:translateX(-4080px)}30.7%{transform:translateX(-4160px)}30.7%{transform:translateX(-4240px)}30.7%{transform:translateX(-4320px)}31.4%{transform:translateX(-4400px)}31.4%{transform:translateX(-4480px)}31.4%{transform:translateX(-4560px)}31.4%{transform:translateX(-4640px)}31.4%{transform:translateX(-4720px)}31.4%{transform:translateX(-4800px)}34.7%{transform:translateX(-4880px)}38.1%{transform:translateX(-4960px)}38.1%{transform:translateX(-5040px)}38.1%{transform:translateX(-5120px)}38.1%{transform:translateX(-5200px)}38.1%{transform:translateX(-5280px)}38.8%{transform:translateX(-5360px)}38.8%{transform:translateX(-5440px)}38.8%{transform:translateX(-5520px)}38.8%{transform:translateX(-5600px)}38.8%{transform:translateX(-5680px)}42.1%{transform:translateX(-5760px)}42.1%{transform:translateX(-5840px)}42.1%{transform:translateX(-5920px)}42.1%{transform:translateX(-6000px)}42.1%{transform:translateX(-6080px)}42.1%{transform:translateX(-6160px)}52.2%{transform:translateX(-6240px)}52.2%{transform:translateX(-6320px)}52.2%{transform:translateX(-6400px)}52.2%{transform:translateX(-6480px)}52.2%{transform:translateX(-6560px)}53.2%{transform:translateX(-6640px)}53.2%{transform:translateX(-6720px)}53.2%{transform:translateX(-6800px)}53.2%{transform:translateX(-6880px)}53.2%{transform:translateX(-6960px)}54.2%{transform:translateX(-7040px)}54.2%{transform:translateX(-7120px)}54.2%{transform:translateX(-7200px)}54.3%{transform:translateX(-7280px)}54.3%{transform:translateX(-7360px)}55.3%{transform:translateX(-7440px)}55.3%{transform:translateX(-7520px)}55.3%{transform:translateX(-7600px)}55.3%{transform:translateX(-7680px)}56.3%{transform:translateX(-7760px)}56.3%{transform:translateX(-7840px)}56.3%{transform:translateX(-7920px)}56.3%{transform:translateX(-8000px)}56.3%{transform:translateX(-8080px)}64%{transform:translateX(-8160px)}66.4%{transform:translateX(-8240px)}66.4%{transform:translateX(-8320px)}66.4%{transform:translateX(-8400px)}66.4%{transform:translateX(-8480px)}66.4%{transform:translateX(-8560px)}66.4%{transform:translateX(-8640px)}100%{transform:translateX(-8720px)}}</style><g font-family="'Courier New',Monaco, Consolas, Menlo, &#x27;Bitstream Vera Sans Mono&#x27;, &#x27;Powerline Symbols&#x27;, monospace" font-size="1.67" class="e"><defs><symbol id="1"><text x="0" y="1.67" class="f">Please</text><text x="7.013999999999999" y="1.67" class="f">select</text><text x="14.027999999999999" y="1.67" class="f">your</text><text x="19.037999999999997" y="1.67" class="f">options</text><text x="26.052" y="1.67" class="g">:</text></symbol><symbol id="2"><text x="0" y="1.67" class="h">&gt;</text><text x="2.004" y="1.67" class="g">[</text><text x="3.006" y="1.67" class="i">-</text><text x="4.008" y="1.67" class="g">]</text><text x="6.012" y="1.67" class="g">Option</text><text x="13.026" y="1.67" class="g">0</text></symbol><symbol id="3"><text x="2.004" y="1.67" class="g">[</text><text x="3.006" y="1.67" class="i">-</text><text x="4.008" y="1.67" class="g">]</text><text x="6.012" y="1.67" class="g">Option</text><text x="13.026" y="1.67" class="g">1</text></symbol><symbol id="4"><text x="2.004" y="1.67" class="g">[</text><text x="3.006" y="1.67" class="i">-</text><text x="4.008" y="1.67" class="g">]</text><text x="6.012" y="1.67" class="g">Option</text><text x="13.026" y="1.67" class="g">2</text></symbol><symbol id="5"><text x="2.004" y="1.67" class="g">[</text><text x="3.006" y="1.67" class="i">-</text><text x="4.008" y="1.67" class="g">]</text><text x="6.012" y="1.67" class="g">Option</text><text x="13.026" y="1.67" class="g">3</text></symbol><symbol id="6"><text x="2.004" y="1.67" class="g">[</text><text x="3.006" y="1.67" class="i">-</text><text x="4.008" y="1.67" class="g">]</text><text x="6.012" y="1.67" class="g">Option</text><text x="13.026" y="1.67" class="g">4</text></symbol><symbol id="7"><text x="0" y="1.67" class="h">enter:</text><text x="7.013999999999999" y="1.67" class="j">select</text><text x="14.027999999999999" y="1.67" class="h">|</text><text x="16.032" y="1.67" class="h">tab:</text><text x="21.041999999999998" y="1.67" class="j">confirm</text><text x="29.058" y="1.67" class="h">|</text><text x="31.061999999999998" y="1.67" class="h">left:</text><text x="37.074" y="1.67" class="j">none</text><text x="42.083999999999996" y="1.67" class="h">|</text><text x="44.087999999999994" y="1.67" class="h">right:</text><text x="51.102" y="1.67" class="j">all</text></symbol><symbol id="8"><text x="2.004" y="1.67" class="g">[</text><text x="3.006" y="1.67" class="i">-</text><text x="4.008" y="1.67" class="g">]</text><text x="6.012" y="1.67" class="g">Option</text><text x="13.026" y="1.67" class="g">0</text></symbol><symbol id="9"><text x="0" y="1.67" class="h">&gt;</text><text x="2.004" y="1.67" class="g">[</text><text x="3.006" y="1.67" class="i">-</text><text x="4.008" y="1.67" class="g">]</text><text x="6.012" y="1.67" class="g">Option</text><text x="13.026" y="1.67" class="g">1</text></symbol><symbol id="10"><text x="0" y="1.67" class="h">&gt;</text><text x="2.004" y="1.67" class="g">[</text><text x="3.006" y="1.67" class="k">+</text><text x="4.008" y="1.67" class="g">]</text><text x="6.012" y="1.67" class="g">Option</text><text x="13.026" y="1.67" class="g">1</text></symbol><symbol id="11"><text x="2.004" y="1.67" class="g">[</text><text x="3.006" y="1.67" class="k">+</text><text x="4.008" y="1.67" class="g">]</text><text x="6.012" y="1.67" class="g">Option</text><text x="13.026" y="1.67" class="g">1</text></symbol><symbol id="12"><text x="0" y="1.67" class="h">&gt;</text><text x="2.004" y="1.67" class="g">[</text><text x="3.006" y="1.67" class="i">-</text><text x="4.008" y="1.67" class="g">]</text><text x="6.012" y="1.67" class="g">Option</text><text x="13.026" y="1.67" class="g">2</text></symbol><symbol id="13"><text x="0" y="1.67" class="h">&gt;</text><text x="2.004" y="1.67" class="g">[</text><text x="3.006" y="1.67" class="i">-</text><text x="4.008" y="1.67" class="g">]</text><text x="6.012" y="1.67" class="g">Option</text><text x="13.026" y="1.67" class="g">3</text></symbol><symbol id="14"><text x="0" y="1.67" class="h">&gt;</text><text x="2.004" y="1.67" class="g">[</text><text x="3.006" y="1.67" class="k">+</text><text x="4.008" y="1.67" class="g">]</text><text x="6.012" y="1.67" class="g">Option</text><text x="13.026" y="1.67" class="g">3</text></symbol><symbol id="15"><text x="2.004" y="1.67" class="g">[</text><text x="3.006" y="1.67" class="k">+</text><text x="4.008" y="1.67" class="g">]</text><text x="6.012" y="1.67" class="g">Option</text><text x="13.026" y="1.67" class="g">3</text></symbol><symbol id="16"><text x="0" y="1.67" class="h">&gt;</text><text x="2.004" y="1.67" class="g">[</text><text x="3.006" y="1.67" class="i">-</text><text x="4.008" y="1.67" class="g">]</text><text x="6.012" y="1.67" class="g">Option</text><text x="13.026" y="1.67" class="g">4</text></symbol><symbol id="17"><text x="0" y="1.67" class="h">&gt;</text><text x="2.004" y="1.67" class="g">[</text><text x="3.006" y="1.67" class="k">+</text><text x="4.008" y="1.67" class="g">]</text><text x="6.012" y="1.67" class="g">Option</text><text x="13.026" y="1.67" class="g">0</text></symbol><symbol id="18"><text x="2.004" y="1.67" class="g">[</text><text x="3.006" y="1.67" class="k">+</text><text x="4.008" y="1.67" class="g">]</text><text x="6.012" y="1.67" class="g">Option</text><text x="13.026" y="1.67" class="g">0</text></symbol><symbol id="19"><text x="2.004" y="1.67" class="g">[</text><text x="3.006" y="1.67" class="k">+</text><text x="4.008" y="1.67" class="g">]</text><text x="6.012" y="1.67" class="g">Option</text><text x="13.026" y="1.67" class="g">2</text></symbol><symbol id="20"><text x="2.004" y="1.67" class="g">[</text><text x="3.006" y="1.67" class="k">+</text><text x="4.008" y="1.67" class="g">]</text><text x="6.012" y="1.67" class="g">Option</text><text x="13.026" y="1.67" class="g">4</text></symbol><symbol id="21"><text x="2.004" y="1.67" class="h">&gt;</text><text x="4.008" y="1.67" class="g">Option</text><text x="11.021999999999998" y="1.67" class="g">1</text></symbol><symbol id="22"><text x="2.004" y="1.67" class="h">&gt;</text><text x="4.008" y="1.67" class="g">Option</text><text x="11.021999999999998" y="1.67" class="g">3</text></symbol><symbol id="23"><text x="2.004" y="1.67" class="h">&gt;</text><text x="4.008" y="1.67" class="g">Option</text><text x="11.021999999999998" y="1.67" class="g">2</text></symbol><symbol id="24"><text x="2.004" y="1.67" class="h">&gt;</text><text x="4.008" y="1.67" class="g">Option</text><text x="11.021999999999998" y="1.67" class="g">4</text></symbol><symbol id="25"><rect height="2.171" width="6" x="0" y="0" class="l"></rect><text x="0" y="1.67" class="m"> INFO </text><text x="7.013999999999999" y="1.67" class="f">Selected</text><text x="16.032" y="1.67" class="f">options:</text><text x="25.05" y="1.67" class="k">[Option</text><text x="33.065999999999995" y="1.67" class="k">1</text><text x="35.06999999999999" y="1.67" class="k">Option</text><text x="42.083999999999996" y="1.67" class="k">3</text><text x="44.087999999999994" y="1.67" class="k">Option</text><text x="51.102" y="1.67" class="k">2</text><text x="53.105999999999995" y="1.67" class="k">Option</text><text x="60.11999999999999" y="1.67" class="k">4]</text></symbol><symbol id="a"><rect height="24" width="80" x="0" y="0" class="n"></rect></symbol><symbol id="b"><rect height="2.171" width="1.1022" class="o"></rect></symbol></defs><rect height="52.104" width="80" class="a"></rect><g class="q"><svg x="0" y="0" width="8800"><svg x="0"><use xlink:href="#a"></use><use xlink:href="#b" x="-0.0040000000000000036" y="0"></use></svg><svg x="80"><use xlink:href="#a"></use><use xlink:href="#b" x="-0.0040000000000000036" y="0"></use></svg><svg x="160"><use xlink:href="#a"></use><use xlink:href="#1" y="0"></use><use xlink:href="#2" y="2.171"></use><use xlink:href="#3" y="4.342"></use><use xlink:href="#4" y="6.513"></use><use xlink:href="#5" y="8.684"></use><use xlink:href="#6" y="10.855"></use><use xlink:href="#7" y="13.026"></use></svg><svg x="240"><use xlink:href="#a"></use><use xlink:href="#1" y="0"></use><use xlink:href="#2" y="2.171"></use><use xlink:href="#3" y="4.342"></use><use xlink:href="#4" y="6.513"></use><use xlink:href="#5" y="8.684"></use><use xlink:href="#6" y="10.855"></use><use xlink:href="#7" y="13.026"></use></svg><svg x="320"><use xlink:href="#a"></use><use xlink:href="#1" y="0"></use><use xlink:href="#2" y="2.171"></use><use xlink:href="#3" y="4.342"></use><use xlink:href="#4" y="6.513"></use><use xlink:href="#5" y="8.684"></use><use xlink:href="#6" y="10.855"></use></svg><svg x="400"><use xlink:href="#a"></use><use xlink:href="#1" y="0"></use></svg><svg x="480"><use xlink:href="#a"></use><use xlink:href="#1" y="0"></use><use xlink:href="#8" y="2.171"></use><use xlink:href="#9" y="4.342"></use><use xlink:href="#4" y="6.513"></use><use xlink:href="#5" y="8.684"></use><use xlink:href="#6" y="10.855"></use></svg><svg x="560"><use xlink:href="#a"></use><use xlink:href="#1" y="0"></use><use xlink:href="#8" y="2.171"></use><use xlink:href="#9" y="4.342"></use><use xlink:href="#4" y="6.513"></use><use xlink:href="#5" y="8.684"></use><use xlink:href="#6" y="10.855"></use><use xlink:href="#7" y="13.026"></use></svg><svg x="640"><use xlink:href="#a"></use><use xlink:href="#1" y="0"></use><use xlink:href="#8" y="2.171"></use><use xlink:href="#9" y="4.342"></use><use xlink:href="#4" y="6.513"></use><use xlink:href="#5" y="8.684"></use><use xlink:href="#6" y="10.855"></use><use xlink:href="#7" y="13.026"></use></svg><svg x="720"><use xlink:href="#a"></use><use xlink:href="#1" y="0"></use><use xlink:href="#8" y="2.171"></use><use xlink:href="#9" y="4.342"></use><use xlink:href="#4" y="6.513"></use><use xlink:href="#5" y="8.684"></use><use xlink:href="#6" y="10.855"></use><use xlink:href="#7" y="13.026"></use></svg><svg x="800"><use xlink:href="#a"></use><use xlink:href="#1" y="0"></use><use xlink:href="#8" y="2.171"></use><use xlink:href="#9" y="4.342"></use><use xlink:href="#4" y="6.513"></use><use xlink:href="#5" y="8.684"></use><use xlink:href="#6" y="10.855"></use></svg><svg x="880"><use xlink:href="#a"></use><use xlink:href="#1" y="0"></use><use xlink:href="#8" y="2.171"></use><use xlink:href="#9" y="4.342"></use><use xlink:href="#4" y="6.513"></use><use xlink:href="#5" y="8.684"></use></svg><svg x="960"><use xlink:href="#a"></use><use xlink:href="#1" y="0"></use><use xlink:href="#8" y="2.171"></use><use xlink:href="#9" y="4.342"></use><use xlink:href="#4" y="6.513"></use></svg><svg x="1040"><use xlink:href="#a"></use><use xlink:href="#1" y="0"></use><use xlink:href="#8" y="2.171"></use><use xlink:href="#9" y="4.342"></use></svg><svg x="1120"><use xlink:href="#a"></use><use xlink:href="#1" y="0"></use><use xlink:href="#8" y="2.171"></use><use xlink:href="#10" y="4.342"></use><use xlink:href="#4" y="6.513"></use><use xlink:href="#5" y="8.684"></use><use xlink:href="#6" y="10.855"></use><use xlink:href="#7" y="13.026"></use></svg><svg x="1200"><use xlink:href="#a"></use><use xlink:href="#1" y="0"></use><use xlink:href="#8" y="2.171"></use><use xlink:href="#10" y="4.342"></use><use xlink:href="#4" y="6.513"></use><use xlink:href="#5" y="8.684"></use><use xlink:href="#6" y="10.855"></use><use xlink:href="#7" y="13.026"></use></svg><svg x="1280"><use xlink:href="#a"></use><use xlink:href="#1" y="0"></use><use xlink:href="#8" y="2.171"></use><use xlink:href="#10" y="4.342"></use><use xlink:href="#4" y="6.513"></use><use xlink:href="#5" y="8.684"></use><use xlink:href="#6" y="10.855"></use><use xlink:href="#7" y="13.026"></use></svg><svg x="1360"><use xlink:href="#a"></use><use xlink:href="#1" y="0"></use><use xlink:href="#8" y="2.171"></use><use xlink:href="#10" y="4.342"></use><use xlink:href="#4" y="6.513"></use><use xlink:href="#5" y="8.684"></use><use xlink:href="#6" y="10.855"></use><use xlink:href="#7" y="13.026"></use></svg><svg x="1440"><use xlink:href="#a"></use><use xlink:href="#1" y="0"></use><use xlink:href="#8" y="2.171"></use><use xlink:href="#10" y="4.342"></use><use xlink:href="#4" y="6.513"></use></svg><svg x="1520"><use xlink:href="#a"></use><use xlink:href="#1" y="0"></use></svg><svg x="1600"><use xlink:href="#a"></use><use xlink:href="#1" y="0"></use><use xlink:href="#8" y="2.171"></use><use xlink:href="#11" y="4.342"></use><use xlink:href="#12" y="6.513"></use></svg><svg x="1680"><use xlink:href="#a"></use><use xlink:href="#1" y="0"></use><use xlink:href="#8" y="2.171"></use><use xlink:href="#11" y="4.342"></use><use xlink:href="#12" y="6.513"></use><use xlink:href="#5" y="8.684"></use><use xlink:href="#6" y="10.855"></use><use xlink:href="#7" y="13.026"></use></svg><svg x="1760"><use xlink:href="#a"></use><use xlink:href="#1" y="0"></use><use xlink:href="#8" y="2.171"></use><use xlink:href="#11" y="4.342"></use><use xlink:href="#4" y="6.513"></use><use xlink:href="#13" y="8.684"></use><use xlink:href="#6" y="10.855"></use><use xlink:href="#7" y="13.026"></use></svg><svg x="1840"><use xlink:href="#a"></use><use xlink:href="#1" y="0"></use><use xlink:href="#8" y="2.171"></use><use xlink:href="#11" y="4.342"></use><use xlink:href="#4" y="6.513"></use><use xlink:href="#13" y="8.684"></use><use xlink:href="#6" y="10.855"></use><use xlink:href="#7" y="13.026"></use></svg><svg x="1920"><use xlink:href="#a"></use><use xlink:href="#1" y="0"></use><use xlink:href="#8" y="2.171"></use><use xlink:href="#11" y="4.342"></use><use xlink:href="#4" y="6.513"></use></svg><svg x="2000"><use xlink:href="#a"></use><use xlink:href="#1" y="0"></use><use xlink:href="#8" y="2.171"></use><use xlink:href="#11" y="4.342"></use></svg><svg x="2080"><use xlink:href="#a"></use><use xlink:href="#1" y="0"></use></svg><svg x="2160"><use xlink:href="#a"></use></svg><svg x="2240"><use xlink:href="#a"></use><use xlink:href="#1" y="0"></use><use xlink:href="#8" y="2.171"></use><use xlink:href="#11" y="4.342"></use></svg><svg x="2320"><use xlink:href="#a"></use><use xlink:href="#1" y="0"></use><use xlink:href="#8" y="2.171"></use><use xlink:href="#11" y="4.342"></use><use xlink:href="#4" y="6.513"></use><use xlink:href="#14" y="8.684"></use><use xlink:href="#6" y="10.855"></use></svg><svg x="2400"><use xlink:href="#a"></use><use xlink:href="#1" y="0"></use><use xlink:href="#8" y="2.171"></use><use xlink:href="#11" y="4.342"></use><use xlink:href="#4" y="6.513"></use><use xlink:href="#14" y="8.684"></use><use xlink:href="#6" y="10.855"></use><use xlink:href="#7" y="13.026"></use></svg><svg x="2480"><use xlink:href="#a"></use><use xlink:href="#1" y="0"></use><use xlink:href="#8" y="2.171"></use><use xlink:href="#11" y="4.342"></use><use xlink:href="#4" y="6.513"></use></svg><svg x="2560"><use xlink:href="#a"></use><use xlink:href="#1" y="0"></use><use xlink:href="#8" y="2.171"></use></svg><svg x="2640"><use xlink:href="#a"></use><use xlink:href="#1" y="0"></use></svg><svg x="2720"><use xlink:href="#a"></use><use xlink:href="#1" y="0"></use><use xlink:href="#8" y="2.171"></use></svg><svg x="2800"><use xlink:href="#a"></use><use xlink:href="#1" y="0"></use><use xlink:href="#8" y="2.171"></use><use xlink:href="#11" y="4.342"></use><use xlink:href="#4" y="6.513"></use><use xlink:href="#15" y="8.684"></use></svg><svg x="2880"><use xlink:href="#a"></use><use xlink:href="#1" y="0"></use><use xlink:href="#8" y="2.171"></use><use xlink:href="#11" y="4.342"></use><use xlink:href="#4" y="6.513"></use><use xlink:href="#15" y="8.684"></use><use xlink:href="#16" y="10.855"></use><use xlink:href="#7" y="13.026"></use></svg><svg x="2960"><use xlink:href="#a"></use><use xlink:href="#1" y="0"></use><use xlink:href="#8" y="2.171"></use><use xlink:href="#11" y="4.342"></use><use xlink:href="#4" y="6.513"></use><use xlink:href="#15" y="8.684"></use><use xlink:href="#16" y="10.855"></use><use xlink:href="#7" y="13.026"></use></svg><svg x="3040"><use xlink:href="#a"></use><use xlink:href="#1" y="0"></use><use xlink:href="#8" y="2.171"></use><use xlink:href="#11" y="4.342"></use><use xlink:href="#4" y="6.513"></use><use xlink:href="#15" y="8.684"></use><use xlink:href="#16" y="10.855"></use><use xlink:href="#7" y="13.026"></use></svg><svg x="3120"><use xlink:href="#a"></use><use xlink:href="#1" y="0"></use><use xlink:href="#8" y="2.171"></use><use xlink:href="#11" y="4.342"></use><use xlink:href="#4" y="6.513"></use><use xlink:href="#15" y="8.684"></use></svg><svg x="3200"><use xlink:href="#a"></use></svg><svg x="3280"><use xlink:href="#a"></use><use xlink:href="#1" y="0"></use><use xlink:href="#2" y="2.171"></use><use xlink:href="#11" y="4.342"></use><use xlink:href="#4" y="6.513"></use><use xlink:href="#15" y="8.684"></use><use xlink:href="#6" y="10.855"></use><use xlink:href="#7" y="13.026"></use></svg><svg x="3360"><use xlink:href="#a"></use><use xlink:href="#1" y="0"></use><use xlink:href="#2" y="2.171"></use><use xlink:href="#11" y="4.342"></use><use xlink:href="#4" y="6.513"></use><use xlink:href="#15" y="8.684"></use><use xlink:href="#6" y="10.855"></use><use xlink:href="#7" y="13.026"></use></svg><svg x="3440"><use xlink:href="#a"></use><use xlink:href="#1" y="0"></use><use xlink:href="#2" y="2.171"></use><use xlink:href="#11" y="4.342"></use><use xlink:href="#4" y="6.513"></use><use xlink:href="#15" y="8.684"></use><use xlink:href="#6" y="10.855"></use><use xlink:href="#7" y="13.026"></use></svg><svg x="3520"><use xlink:href="#a"></use><use xlink:href="#1" y="0"></use><use xlink:href="#2" y="2.171"></use><use xlink:href="#11" y="4.342"></use><use xlink:href="#4" y="6.513"></use><use xlink:href="#15" y="8.684"></use></svg><svg x="3600"><use xlink:href="#a"></use><use xlink:href="#1" y="0"></use><use xlink:href="#2" y="2.171"></use></svg><svg x="3680"><use xlink:href="#a"></use><use xlink:href="#1" y="0"></use></svg><svg x="3760"><use xlink:href="#a"></use><use xlink:href="#1" y="0"></use><use xlink:href="#17" y="2.171"></use><use xlink:href="#11" y="4.342"></use><use xlink:href="#4" y="6.513"></use><use xlink:href="#15" y="8.684"></use><use xlink:href="#6" y="10.855"></use><use xlink:href="#7" y="13.026"></use></svg><svg x="3840"><use xlink:href="#a"></use><use xlink:href="#1" y="0"></use><use xlink:href="#18" y="2.171"></use><use xlink:href="#10" y="4.342"></use><use xlink:href="#4" y="6.513"></use><use xlink:href="#15" y="8.684"></use><use xlink:href="#6" y="10.855"></use><use xlink:href="#7" y="13.026"></use></svg><svg x="3920"><use xlink:href="#a"></use><use xlink:href="#1" y="0"></use><use xlink:href="#18" y="2.171"></use><use xlink:href="#10" y="4.342"></use><use xlink:href="#4" y="6.513"></use><use xlink:href="#15" y="8.684"></use><use xlink:href="#6" y="10.855"></use><use xlink:href="#7" y="13.026"></use></svg><svg x="4000"><use xlink:href="#a"></use><use xlink:href="#1" y="0"></use><use xlink:href="#18" y="2.171"></use><use xlink:href="#10" y="4.342"></use><use xlink:href="#4" y="6.513"></use><use xlink:href="#15" y="8.684"></use><use xlink:href="#6" y="10.855"></use><use xlink:href="#7" y="13.026"></use></svg><svg x="4080"><use xlink:href="#a"></use><use xlink:href="#1" y="0"></use><use xlink:href="#18" y="2.171"></use><use xlink:href="#10" y="4.342"></use><use xlink:href="#4" y="6.513"></use><use xlink:href="#15" y="8.684"></use><use xlink:href="#6" y="10.855"></use></svg><svg x="4160"><use xlink:href="#a"></use><use xlink:href="#1" y="0"></use><use xlink:href="#18" y="2.171"></use></svg><svg x="4240"><use xlink:href="#a"></use><use xlink:href="#1" y="0"></use><use xlink:href="#18" y="2.171"></use><use xlink:href="#11" y="4.342"></use><use xlink:href="#12" y="6.513"></use><use xlink:href="#15" y="8.684"></use></svg><svg x="4320"><use xlink:href="#a"></use><use xlink:href="#1" y="0"></use><use xlink:href="#18" y="2.171"></use><use xlink:href="#11" y="4.342"></use><use xlink:href="#12" y="6.513"></use><use xlink:href="#15" y="8.684"></use><use xlink:href="#6" y="10.855"></use><use xlink:href="#7" y="13.026"></use></svg><svg x="4400"><use xlink:href="#a"></use><use xlink:href="#1" y="0"></use><use xlink:href="#18" y="2.171"></use><use xlink:href="#11" y="4.342"></use><use xlink:href="#12" y="6.513"></use><use xlink:href="#15" y="8.684"></use><use xlink:href="#6" y="10.855"></use><use xlink:href="#7" y="13.026"></use></svg><svg x="4480"><use xlink:href="#a"></use><use xlink:href="#1" y="0"></use><use xlink:href="#18" y="2.171"></use><use xlink:href="#11" y="4.342"></use><use xlink:href="#12" y="6.513"></use><use xlink:href="#15" y="8.684"></use><use xlink:href="#6" y="10.855"></use><use xlink:href="#7" y="13.026"></use></svg><svg x="4560"><use xlink:href="#a"></use><use xlink:href="#1" y="0"></use><use xlink:href="#18" y="2.171"></use><use xlink:href="#11" y="4.342"></use><use xlink:href="#12" y="6.513"></use><use xlink:href="#15" y="8.684"></use></svg><svg x="4640"><use xlink:href="#a"></use><use xlink:href="#1" y="0"></use><use xlink:href="#18" y="2.171"></use><use xlink:href="#11" y="4.342"></use></svg><svg x="4720"><use xlink:href="#a"></use><use xlink:href="#1" y="0"></use><use xlink:href="#18" y="2.171"></use></svg><svg x="4800"><use xlink:href="#a"></use><use xlink:href="#1" y="0"></use><use xlink:href="#18" y="2.171"></use><use xlink:href="#11" y="4.342"></use><text x="0" y="8.183" class="h">&gt;</text><text x="2.004" y="8.183" class="g">[</text><text x="3.006" y="8.183" class="k">+</text><text x="4.008" y="8.183" class="g">]</text><text x="6.012" y="8.183" class="g">Option</text><text x="13.026" y="8.183" class="g">2</text><use xlink:href="#15" y="8.684"></use><use xlink:href="#6" y="10.855"></use><use xlink:href="#7" y="13.026"></use></svg><svg x="4880"><use xlink:href="#a"></use><use xlink:href="#1" y="0"></use><use xlink:href="#18" y="2.171"></use><use xlink:href="#11" y="4.342"></use><use xlink:href="#19" y="6.513"></use><use xlink:href="#14" y="8.684"></use><use xlink:href="#6" y="10.855"></use><use xlink:href="#7" y="13.026"></use></svg><svg x="4960"><use xlink:href="#a"></use><use xlink:href="#1" y="0"></use><use xlink:href="#18" y="2.171"></use><use xlink:href="#11" y="4.342"></use><use xlink:href="#19" y="6.513"></use><use xlink:href="#14" y="8.684"></use><use xlink:href="#6" y="10.855"></use><use xlink:href="#7" y="13.026"></use></svg><svg x="5040"><use xlink:href="#a"></use><use xlink:href="#1" y="0"></use><use xlink:href="#18" y="2.171"></use><use xlink:href="#11" y="4.342"></use><use xlink:href="#19" y="6.513"></use><use xlink:href="#14" y="8.684"></use><use xlink:href="#6" y="10.855"></use><use xlink:href="#7" y="13.026"></use></svg><svg x="5120"><use xlink:href="#a"></use><use xlink:href="#1" y="0"></use><use xlink:href="#18" y="2.171"></use><use xlink:href="#11" y="4.342"></use></svg><svg x="5200"><use xlink:href="#a"></use><use xlink:href="#1" y="0"></use></svg><svg x="5280"><use xlink:href="#a"></use><use xlink:href="#1" y="0"></use><use xlink:href="#18" y="2.171"></use><use xlink:href="#11" y="4.342"></use><use xlink:href="#19" y="6.513"></use><use xlink:href="#15" y="8.684"></use><use xlink:href="#16" y="10.855"></use><use xlink:href="#7" y="13.026"></use></svg><svg x="5360"><use xlink:href="#a"></use><use xlink:href="#1" y="0"></use><use xlink:href="#18" y="2.171"></use><use xlink:href="#11" y="4.342"></use><use xlink:href="#19" y="6.513"></use><use xlink:href="#15" y="8.684"></use><use xlink:href="#16" y="10.855"></use><use xlink:href="#7" y="13.026"></use></svg><svg x="5440"><use xlink:href="#a"></use><use xlink:href="#1" y="0"></use><use xlink:href="#18" y="2.171"></use><use xlink:href="#11" y="4.342"></use><use xlink:href="#19" y="6.513"></use><use xlink:href="#15" y="8.684"></use><use xlink:href="#16" y="10.855"></use><use xlink:href="#7" y="13.026"></use></svg><svg x="5520"><use xlink:href="#a"></use><use xlink:href="#1" y="0"></use><use xlink:href="#18" y="2.171"></use><use xlink:href="#11" y="4.342"></use><use xlink:href="#19" y="6.513"></use><use xlink:href="#15" y="8.684"></use></svg><svg x="5600"><use xlink:href="#a"></use><use xlink:href="#1" y="0"></use></svg><svg x="5680"><use xlink:href="#a"></use><use xlink:href="#1" y="0"></use><use xlink:href="#18" y="2.171"></use><use xlink:href="#11" y="4.342"></use><use xlink:href="#19" y="6.513"></use><use xlink:href="#15" y="8.684"></use><text x="0" y="12.525" class="h">&gt;</text><text x="2.004" y="12.525" class="g">[</text><text x="3.006" y="12.525" class="k">+</text><text x="4.008" y="12.525" class="g">]</text><text x="6.012" y="12.525" class="g">Option</text><text x="13.026" y="12.525" class="g">4</text><use xlink:href="#7" y="13.026"></use></svg><svg x="5760"><use xlink:href="#a"></use><use xlink:href="#1" y="0"></use><use xlink:href="#18" y="2.171"></use><use xlink:href="#11" y="4.342"></use><use xlink:href="#19" y="6.513"></use><use xlink:href="#15" y="8.684"></use></svg><svg x="5840"><use xlink:href="#a"></use><use xlink:href="#1" y="0"></use><use xlink:href="#18" y="2.171"></use><use xlink:href="#11" y="4.342"></use></svg><svg x="5920"><use xlink:href="#a"></use><use xlink:href="#1" y="0"></use></svg><svg x="6000"><use xlink:href="#a"></use></svg><svg x="6080"><use xlink:href="#a"></use><use xlink:href="#1" y="0"></use><use xlink:href="#17" y="2.171"></use><use xlink:href="#11" y="4.342"></use><use xlink:href="#19" y="6.513"></use><use xlink:href="#15" y="8.684"></use><use xlink:href="#20" y="10.855"></use></svg><svg x="6160"><use xlink:href="#a"></use><use xlink:href="#1" y="0"></use><use xlink:href="#17" y="2.171"></use><use xlink:href="#11" y="4.342"></use><use xlink:href="#19" y="6.513"></use><use xlink:href="#15" y="8.684"></use><use xlink:href="#20" y="10.855"></use><use xlink:href="#7" y="13.026"></use></svg><svg x="6240"><use xlink:href="#a"></use><use xlink:href="#1" y="0"></use><use xlink:href="#17" y="2.171"></use><use xlink:href="#11" y="4.342"></use><use xlink:href="#19" y="6.513"></use><use xlink:href="#15" y="8.684"></use><use xlink:href="#20" y="10.855"></use><use xlink:href="#7" y="13.026"></use></svg><svg x="6320"><use xlink:href="#a"></use><use xlink:href="#1" y="0"></use><use xlink:href="#17" y="2.171"></use><use xlink:href="#11" y="4.342"></use><use xlink:href="#19" y="6.513"></use><use xlink:href="#15" y="8.684"></use><use xlink:href="#20" y="10.855"></use><use xlink:href="#7" y="13.026"></use></svg><svg x="6400"><use xlink:href="#a"></use><use xlink:href="#1" y="0"></use><use xlink:href="#17" y="2.171"></use><use xlink:href="#11" y="4.342"></use></svg><svg x="6480"><use xlink:href="#a"></use><use xlink:href="#1" y="0"></use></svg><svg x="6560"><use xlink:href="#a"></use><use xlink:href="#1" y="0"></use><use xlink:href="#17" y="2.171"></use><use xlink:href="#11" y="4.342"></use><use xlink:href="#19" y="6.513"></use><use xlink:href="#15" y="8.684"></use><use xlink:href="#20" y="10.855"></use><use xlink:href="#7" y="13.026"></use></svg><svg x="6640"><use xlink:href="#a"></use><use xlink:href="#1" y="0"></use><use xlink:href="#17" y="2.171"></use><use xlink:href="#11" y="4.342"></use><use xlink:href="#19" y="6.513"></use><use xlink:href="#15" y="8.684"></use><use xlink:href="#20" y="10.855"></use><use xlink:href="#7" y="13.026"></use></svg><svg x="6720"><use xlink:href="#a"></use><use xlink:href="#1" y="0"></use><use xlink:href="#17" y="2.171"></use><use xlink:href="#11" y="4.342"></use><use xlink:href="#19" y="6.513"></use><use xlink:href="#15" y="8.684"></use><use xlink:href="#20" y="10.855"></use><use xlink:href="#7" y="13.026"></use></svg><svg x="6800"><use xlink:href="#a"></use><use xlink:href="#1" y="0"></use><use xlink:href="#17" y="2.171"></use><use xlink:href="#11" y="4.342"></use><use xlink:href="#19" y="6.513"></use></svg><svg x="6880"><use xlink:href="#a"></use></svg><svg x="6960"><use xlink:href="#a"></use><use xlink:href="#1" y="0"></use><use xlink:href="#17" y="2.171"></use><use xlink:href="#11" y="4.342"></use><use xlink:href="#19" y="6.513"></use><use xlink:href="#15" y="8.684"></use><use xlink:href="#20" y="10.855"></use><use xlink:href="#7" y="13.026"></use></svg><svg x="7040"><use xlink:href="#a"></use><use xlink:href="#1" y="0"></use><use xlink:href="#17" y="2.171"></use><use xlink:href="#11" y="4.342"></use><use xlink:href="#19" y="6.513"></use><use xlink:href="#15" y="8.684"></use><use xlink:href="#20" y="10.855"></use><use xlink:href="#7" y="13.026"></use></svg><svg x="7120"><use xlink:href="#a"></use><use xlink:href="#1" y="0"></use><use xlink:href="#17" y="2.171"></use><use xlink:href="#11" y="4.342"></use><use xlink:href="#19" y="6.513"></use><use xlink:href="#15" y="8.684"></use><use xlink:href="#20" y="10.855"></use></svg><svg x="7200"><use xlink:href="#a"></use><use xlink:href="#1" y="0"></use><use xlink:href="#17" y="2.171"></use><use xlink:href="#11" y="4.342"></use></svg><svg x="7280"><use xlink:href="#a"></use><use xlink:href="#1" y="0"></use><use xlink:href="#17" y="2.171"></use><use xlink:href="#11" y="4.342"></use></svg><svg x="7360"><use xlink:href="#a"></use><use xlink:href="#1" y="0"></use><use xlink:href="#17" y="2.171"></use><use xlink:href="#11" y="4.342"></use><use xlink:href="#19" y="6.513"></use><use xlink:href="#15" y="8.684"></use><use xlink:href="#20" y="10.855"></use><use xlink:href="#7" y="13.026"></use></svg><svg x="7440"><use xlink:href="#a"></use><use xlink:href="#1" y="0"></use><use xlink:href="#17" y="2.171"></use><use xlink:href="#11" y="4.342"></use><use xlink:href="#19" y="6.513"></use><use xlink:href="#15" y="8.684"></use><use xlink:href="#20" y="10.855"></use><use xlink:href="#7" y="13.026"></use></svg><svg x="7520"><use xlink:href="#a"></use><use xlink:href="#1" y="0"></use><use xlink:href="#17" y="2.171"></use><use xlink:href="#11" y="4.342"></use><use xlink:href="#19" y="6.513"></use><use xlink:href="#15" y="8.684"></use><use xlink:href="#20" y="10.855"></use></svg><svg x="7600"><use xlink:href="#a"></use><use xlink:href="#1" y="0"></use></svg><svg x="7680"><use xlink:href="#a"></use><use xlink:href="#1" y="0"></use><use xlink:href="#17" y="2.171"></use><use xlink:href="#11" y="4.342"></use><use xlink:href="#19" y="6.513"></use><use xlink:href="#15" y="8.684"></use><use xlink:href="#20" y="10.855"></use><use xlink:href="#7" y="13.026"></use></svg><svg x="7760"><use xlink:href="#a"></use><use xlink:href="#1" y="0"></use><use xlink:href="#17" y="2.171"></use><use xlink:href="#11" y="4.342"></use><use xlink:href="#19" y="6.513"></use><use xlink:href="#15" y="8.684"></use><use xlink:href="#20" y="10.855"></use><use xlink:href="#7" y="13.026"></use></svg><svg x="7840"><use xlink:href="#a"></use><use xlink:href="#1" y="0"></use><use xlink:href="#17" y="2.171"></use><use xlink:href="#11" y="4.342"></use><use xlink:href="#19" y="6.513"></use><use xlink:href="#15" y="8.684"></use><use xlink:href="#20" y="10.855"></use><use xlink:href="#7" y="13.026"></use></svg><svg x="7920"><use xlink:href="#a"></use><use xlink:href="#1" y="0"></use><use xlink:href="#17" y="2.171"></use><use xlink:href="#11" y="4.342"></use></svg><svg x="8000"><use xlink:href="#a"></use></svg><svg x="8080"><use xlink:href="#a"></use><use xlink:href="#1" y="0"></use><use xlink:href="#17" y="2.171"></use><use xlink:href="#11" y="4.342"></use><use xlink:href="#19" y="6.513"></use><use xlink:href="#15" y="8.684"></use><use xlink:href="#20" y="10.855"></use><use xlink:href="#7" y="13.026"></use></svg><svg x="8160"><use xlink:href="#a"></use><use xlink:href="#1" y="0"></use><use xlink:href="#2" y="2.171"></use><use xlink:href="#11" y="4.342"></use><use xlink:href="#19" y="6.513"></use><use xlink:href="#15" y="8.684"></use><use xlink:href="#20" y="10.855"></use><use xlink:href="#7" y="13.026"></use></svg><svg x="8240"><use xlink:href="#a"></use><use xlink:href="#1" y="0"></use><use xlink:href="#2" y="2.171"></use><use xlink:href="#11" y="4.342"></use><use xlink:href="#19" y="6.513"></use><use xlink:href="#15" y="8.684"></use><use xlink:href="#20" y="10.855"></use><use xlink:href="#7" y="13.026"></use></svg><svg x="8320"><use xlink:href="#a"></use><use xlink:href="#1" y="0"></use><use xlink:href="#2" y="2.171"></use><use xlink:href="#11" y="4.342"></use><use xlink:href="#19" y="6.513"></use><use xlink:href="#15" y="8.684"></use></svg><svg x="8400"><use xlink:href="#a"></use></svg><svg x="8480"><use xlink:href="#a"></use><use xlink:href="#1" y="0"></use><use xlink:href="#21" y="2.171"></use><use xlink:href="#22" y="4.342"></use><use xlink:href="#23" y="6.513"></use><use xlink:href="#24" y="8.684"></use></svg><svg x="8560"><use xlink:href="#a"></use><use xlink:href="#b" x="-0.0040000000000000036" y="10.83"></use><use xlink:href="#1" y="0"></use><use xlink:href="#21" y="2.171"></use><use xlink:href="#22" y="4.342"></use><use xlink:href="#23" y="6.513"></use><use xlink:href="#24" y="8.684"></use></svg><svg x="8640"><use xlink:href="#a"></use><use xlink:href="#b" x="-0.0040000000000000036" y="13.001"></use><use xlink:href="#1" y="0"></use><use xlink:href="#21" y="2.171"></use><use xlink:href="#22" y="4.342"></use><use xlink:href="#23" y="6.513"></use><use xlink:href="#24" y="8.684"></use><use xlink:href="#25" y="10.855"></use></svg><svg x="8720"><use xlink:href="#a"></use><use xlink:href="#b" x="22.996" y="17.343"></use><use xlink:href="#1" y="0"></use><use xlink:href="#21" y="2.171"></use><use xlink:href="#22" y="4.342"></use><use xlink:href="#23" y="6.513"></use><use xlink:href="#24" y="8.684"></use><use xlink:href="#25" y="10.855"></use><text x="0" y="16.866999999999997" class="g">Restarting</text><text x="11.021999999999998" y="16.866999999999997" class="g">animation...</text></svg></svg></g></g></svg></svg>