<svg xmlns="http://www.w3.org/2000/svg" xmlns:xlink="http://www.w3.org/1999/xlink" width="840" height="581.04"><rect width="840" height="581.04" rx="5" ry="5" class="a"></rect><svg y="0%" x="0%"><circle cx="20" cy="20" r="6" class="b"></circle><circle cx="40" cy="20" r="6" class="c"></circle><circle cx="60" cy="20" r="6" class="d"></circle></svg><svg height="521.04" viewBox="0 0 80 52.104" width="800" x="15" xmlns="http://www.w3.org/2000/svg" xmlns:xlink="http://www.w3.org/1999/xlink" y="50"><style>.e, .g, .f {
	font-family:
			'Courier New'
			Roboto,
			Helvetica,
			Arial,
			sans-serif,
			'Apple Color Emoji',
			'Segoe UI Emoji' !important;
}.a{fill:rgb(35,35,35)}.b{fill:#ff5f58}.c{fill:#ffbd2e}.d{fill:#18c132}.e{font-family:'Courier New',Monaco,Consolas,Menlo,'Bitstream Vera Sans Mono','Powerline Symbols',monospace}.f{fill:rgb(126,231,233);white-space:pre}.g{fill:rgb(160,160,160);white-space:pre}.h{fill:rgb(234,89,246);white-space:pre}.i{fill:rgb(255,0,4);white-space:pre}.j{fill:rgb(234,89,246);font-weight:bold;white-space:pre}.k{fill:rgb(124,255,0);white-space:pre}.l{fill:rgb(102,194,205)}.m{white-space:pre}.n{fill:transparent}.o{fill:rgb(160,160,160)}.q{animation-duration:14.756278s;animation-iteration-count:infinite;animation-name:p;animation-timing-function:steps(1,end)}@keyframes p{0%{transform:translateX(-0px)}0.7%{transform:translateX(-80px)}7.5%{transform:translateX(-160px)}8.3%{transform:translateX(-240px)}11.6%{transform:translateX(-320px)}15%{transform:translateX(-400px)}15.9%{transform:translateX(-480px)}19.1%{transform:translateX(-560px)}22.5%{transform:translateX(-640px)}22.5%{transform:translateX(-720px)}23.2%{transform:translateX(-800px)}26.6%{transform:translateX(-880px)}30%{transform:translateX(-960px)}30.7%{transform:translateX(-1040px)}34.3%{transform:translateX(-1120px)}37.5%{transform:translateX(-1200px)}38.2%{transform:translateX(-1280px)}41.6%{transform:translateX(-1360px)}51.9%{transform:translateX(-1440px)}52.8%{transform:translateX(-1520px)}53.9%{transform:translateX(-1600px)}54.9%{transform:translateX(-1680px)}55.9%{transform:translateX(-1760px)}63.8%{transform:translateX(-1840px)}66.1%{transform:translateX(-1920px)}100%{transform:translateX(-2000px)}}</style><g font-family="'Courier New',Monaco, Consolas, Menlo, &#x27;Bitstream Vera Sans Mono&#x27;, &#x27;Powerline Symbols&#x27;, monospace" font-size="1.67" class="e"><defs><symbol id="1"><text x="0" y="1.67" class="f">Please</text><text x="7.013999999999999" y="1.67" class="f">select</text><text x="14.027999999999999" y="1.67" class="f">your</text><text x="19.037999999999997" y="1.67" class="f">options</text><text x="26.052" y="1.67" class="g">:</text></symbol><symbol id="2"><text x="0" y="1.67" class="h">&gt;</text><text x="2.004" y="1.67" class="g">[</text><text x="3.006" y="1.67" class="i">-</text><text x="4.008" y="1.67" class="g">]</text><text x="6.012" y="1.67" class="g">Option</text><text x="13.026" y="1.67" class="g">0</text></symbol><symbol id="3"><text x="2.004" y="1.67" class="g">[</text><text x="3.006" y="1.67" class="i">-</text><text x="4.008" y="1.67" class="g">]</text><text x="6.012" y="1.67" class="g">Option</text><text x="13.026" y="1.67" class="g">2</text></symbol><symbol id="4"><text x="2.004" y="1.67" class="g">[</text><text x="3.006" y="1.67" class="i">-</text><text x="4.008" y="1.67" class="g">]</text><text x="6.012" y="1.67" class="g">Option</text><text x="13.026" y="1.67" class="g">3</text></symbol><symbol id="5"><text x="2.004" y="1.67" class="g">[</text><text x="3.006" y="1.67" class="i">-</text><text x="4.008" y="1.67" class="g">]</text><text x="6.012" y="1.67" class="g">Option</text><text x="13.026" y="1.67" class="g">4</text></symbol><symbol id="6"><text x="0" y="1.67" class="h">enter:</text><text x="7.013999999999999" y="1.67" class="j">select</text><text x="14.027999999999999" y="1.67" class="h">|</text><text x="16.032" y="1.67" class="h">tab:</text><text x="21.041999999999998" y="1.67" class="j">confirm</text><text x="29.058" y="1.67" class="h">|</text><text x="31.061999999999998" y="1.67" class="h">left:</text><text x="37.074" y="1.67" class="j">none</text><text x="42.083999999999996" y="1.67" class="h">|</text><text x="44.087999999999994" y="1.67" class="h">right:</text><text x="51.102" y="1.67" class="j">all</text></symbol><symbol id="7"><text x="2.004" y="1.67" class="g">[</text><text x="3.006" y="1.67" class="i">-</text><text x="4.008" y="1.67" class="g">]</text><text x="6.012" y="1.67" class="g">Option</text><text x="13.026" y="1.67" class="g">0</text></symbol><symbol id="8"><text x="0" y="1.67" class="h">&gt;</text><text x="2.004" y="1.67" class="g">[</text><text x="3.006" y="1.67" class="k">+</text><text x="4.008" y="1.67" class="g">]</text><text x="6.012" y="1.67" class="g">Option</text><text x="13.026" y="1.67" class="g">1</text></symbol><symbol id="9"><text x="2.004" y="1.67" class="g">[</text><text x="3.006" y="1.67" class="k">+</text><text x="4.008" y="1.67" class="g">]</text><text x="6.012" y="1.67" class="g">Option</text><text x="13.026" y="1.67" class="g">1</text></symbol><symbol id="10"><text x="0" y="1.67" class="h">&gt;</text><text x="2.004" y="1.67" class="g">[</text><text x="3.006" y="1.67" class="i">-</text><text x="4.008" y="1.67" class="g">]</text><text x="6.012" y="1.67" class="g">Option</text><text x="13.026" y="1.67" class="g">2</text></symbol><symbol id="11"><text x="0" y="1.67" class="h">&gt;</text><text x="2.004" y="1.67" class="g">[</text><text x="3.006" y="1.67" class="k">+</text><text x="4.008" y="1.67" class="g">]</text><text x="6.012" y="1.67" class="g">Option</text><text x="13.026" y="1.67" class="g">3</text></symbol><symbol id="12"><text x="2.004" y="1.67" class="g">[</text><text x="3.006" y="1.67" class="k">+</text><text x="4.008" y="1.67" class="g">]</text><text x="6.012" y="1.67" class="g">Option</text><text x="13.026" y="1.67" class="g">3</text></symbol><symbol id="13"><text x="0" y="1.67" class="h">&gt;</text><text x="2.004" y="1.67" class="g">[</text><text x="3.006" y="1.67" class="i">-</text><text x="4.008" y="1.67" class="g">]</text><text x="6.012" y="1.67" class="g">Option</text><text x="13.026" y="1.67" class="g">4</text></symbol><symbol id="14"><text x="0" y="1.67" class="h">&gt;</text><text x="2.004" y="1.67" class="g">[</text><text x="3.006" y="1.67" class="k">+</text><text x="4.008" y="1.67" class="g">]</text><text x="6.012" y="1.67" class="g">Option</text><text x="13.026" y="1.67" class="g">0</text></symbol><symbol id="15"><text x="2.004" y="1.67" class="g">[</text><text x="3.006" y="1.67" class="k">+</text><text x="4.008" y="1.67" class="g">]</text><text x="6.012" y="1.67" class="g">Option</text><text x="13.026" y="1.67" class="g">0</text></symbol><symbol id="16"><text x="2.004" y="1.67" class="g">[</text><text x="3.006" y="1.67" class="k">+</text><text x="4.008" y="1.67" class="g">]</text><text x="6.012" y="1.67" class="g">Option</text><text x="13.026" y="1.67" class="g">2</text></symbol><symbol id="17"><text x="2.004" y="1.67" class="g">[</text><text x="3.006" y="1.67" class="k">+</text><text x="4.008" y="1.67" class="g">]</text><text x="6.012" y="1.67" class="g">Option</text><text x="13.026" y="1.67" class="g">4</text></symbol><symbol id="18"><text x="2.004" y="1.67" class="h">&gt;</text><text x="4.008" y="1.67" class="g">Option</text><text x="11.021999999999998" y="1.67" class="g">1</text></symbol><symbol id="19"><text x="2.004" y="1.67" class="h">&gt;</text><text x="4.008" y="1.67" class="g">Option</text><text x="11.021999999999998" y="1.67" class="g">3</text></symbol><symbol id="20"><text x="2.004" y="1.67" class="h">&gt;</text><text x="4.008" y="1.67" class="g">Option</text><text x="11.021999999999998" y="1.67" class="g">2</text></symbol><symbol id="21"><text x="2.004" y="1.67" class="h">&gt;</text><text x="4.008" y="1.67" class="g">Option</text><text x="11.021999999999998" y="1.67" class="g">4</text></symbol><symbol id="22"><rect height="2.171" width="6" x="0" y="0" class="l"></rect><text x="0" y="1.67" class="m"> INFO </text><text x="7.013999999999999" y="1.67" class="f">Selected</text><text x="16.032" y="1.67" class="f">options:</text><text x="25.05" y="1.67" class="k">[Option</text><text x="33.065999999999995" y="1.67" class="k">1</text><text x="35.06999999999999" y="1.67" class="k">Option</text><text x="42.083999999999996" y="1.67" class="k">3</text><text x="44.087999999999994" y="1.67" class="k">Option</text><text x="51.102" y="1.67" class="k">2</text><text x="53.105999999999995" y="1.67" class="k">Option</text><text x="60.11999999999999" y="1.67" class="k">4]</text></symbol><symbol id="a"><rect height="24" width="80" x="0" y="0" class="n"></rect></symbol><symbol id="b"><rect height="2.171" width="1.1022" class="o"></rect></symbol></defs><rect height="52.104" width="80" class="a"></rect><g class="q"><svg x="0" y="0" width="2080"><svg x="0"><use xlink:href="#a"></use><use xlink:href="#b" x="-0.0040000000000000036" y="0"></use></svg><svg x="80"><use xlink:href="#a"></use><use xlink:href="#1" y="0"></use><use xlink:href="#2" y="2.171"></use><text x="2.004" y="6.012" class="g">[</text><text x="3.006" y="6.012" class="i">-</text><text x="4.008" y="6.012" class="g">]</text><text x="6.012" y="6.012" class="g">Option</text><text x="13.026" y="6.012" class="g">1</text><use xlink:href="#3" y="6.513"></use><use xlink:href="#4" y="8.684"></use><use xlink:href="#5" y="10.855"></use><use xlink:href="#6" y="13.026"></use></svg><svg x="160"><use xlink:href="#a"></use><use xlink:href="#1" y="0"></use><use xlink:href="#7" y="2.171"></use><text x="0" y="6.012" class="h">&gt;</text><text x="2.004" y="6.012" class="g">[</text><text x="3.006" y="6.012" class="i">-</text><text x="4.008" y="6.012" class="g">]</text><text x="6.012" y="6.012" class="g">Option</text><text x="13.026" y="6.012" class="g">1</text><use xlink:href="#3" y="6.513"></use><use xlink:href="#4" y="8.684"></use><use xlink:href="#5" y="10.855"></use><use xlink:href="#6" y="13.026"></use></svg><svg x="240"><use xlink:href="#a"></use><use xlink:href="#1" y="0"></use><use xlink:href="#7" y="2.171"></use><use xlink:href="#8" y="4.342"></use><use xlink:href="#3" y="6.513"></use><use xlink:href="#4" y="8.684"></use><use xlink:href="#5" y="10.855"></use><use xlink:href="#6" y="13.026"></use></svg><svg x="320"><use xlink:href="#a"></use><use xlink:href="#1" y="0"></use><use xlink:href="#7" y="2.171"></use><use xlink:href="#9" y="4.342"></use><use xlink:href="#10" y="6.513"></use><use xlink:href="#4" y="8.684"></use><use xlink:href="#5" y="10.855"></use><use xlink:href="#6" y="13.026"></use></svg><svg x="400"><use xlink:href="#a"></use><use xlink:href="#1" y="0"></use><use xlink:href="#7" y="2.171"></use><use xlink:href="#9" y="4.342"></use><use xlink:href="#3" y="6.513"></use><text x="0" y="10.354" class="h">&gt;</text><text x="2.004" y="10.354" class="g">[</text><text x="3.006" y="10.354" class="i">-</text><text x="4.008" y="10.354" class="g">]</text><text x="6.012" y="10.354" class="g">Option</text><text x="13.026" y="10.354" class="g">3</text><use xlink:href="#5" y="10.855"></use><use xlink:href="#6" y="13.026"></use></svg><svg x="480"><use xlink:href="#a"></use><use xlink:href="#1" y="0"></use><use xlink:href="#7" y="2.171"></use><use xlink:href="#9" y="4.342"></use><use xlink:href="#3" y="6.513"></use><use xlink:href="#11" y="8.684"></use><use xlink:href="#5" y="10.855"></use><use xlink:href="#6" y="13.026"></use></svg><svg x="560"><use xlink:href="#a"></use><use xlink:href="#1" y="0"></use><use xlink:href="#7" y="2.171"></use><use xlink:href="#9" y="4.342"></use><use xlink:href="#3" y="6.513"></use><use xlink:href="#12" y="8.684"></use><use xlink:href="#13" y="10.855"></use><use xlink:href="#6" y="13.026"></use></svg><svg x="640"><use xlink:href="#a"></use><use xlink:href="#1" y="0"></use><use xlink:href="#2" y="2.171"></use><use xlink:href="#9" y="4.342"></use></svg><svg x="720"><use xlink:href="#a"></use><use xlink:href="#1" y="0"></use><use xlink:href="#2" y="2.171"></use><use xlink:href="#9" y="4.342"></use><use xlink:href="#3" y="6.513"></use><use xlink:href="#12" y="8.684"></use><use xlink:href="#5" y="10.855"></use><use xlink:href="#6" y="13.026"></use></svg><svg x="800"><use xlink:href="#a"></use><use xlink:href="#1" y="0"></use><use xlink:href="#14" y="2.171"></use><use xlink:href="#9" y="4.342"></use><use xlink:href="#3" y="6.513"></use><use xlink:href="#12" y="8.684"></use><use xlink:href="#5" y="10.855"></use><use xlink:href="#6" y="13.026"></use></svg><svg x="880"><use xlink:href="#a"></use><use xlink:href="#1" y="0"></use><use xlink:href="#15" y="2.171"></use><use xlink:href="#8" y="4.342"></use><use xlink:href="#3" y="6.513"></use><use xlink:href="#12" y="8.684"></use><use xlink:href="#5" y="10.855"></use><use xlink:href="#6" y="13.026"></use></svg><svg x="960"><use xlink:href="#a"></use><use xlink:href="#1" y="0"></use><use xlink:href="#15" y="2.171"></use><use xlink:href="#9" y="4.342"></use><use xlink:href="#10" y="6.513"></use><use xlink:href="#12" y="8.684"></use><use xlink:href="#5" y="10.855"></use><use xlink:href="#6" y="13.026"></use></svg><svg x="1040"><use xlink:href="#a"></use><use xlink:href="#1" y="0"></use><use xlink:href="#15" y="2.171"></use><use xlink:href="#9" y="4.342"></use><text x="0" y="8.183" class="h">&gt;</text><text x="2.004" y="8.183" class="g">[</text><text x="3.006" y="8.183" class="k">+</text><text x="4.008" y="8.183" class="g">]</text><text x="6.012" y="8.183" class="g">Option</text><text x="13.026" y="8.183" class="g">2</text><use xlink:href="#12" y="8.684"></use><use xlink:href="#5" y="10.855"></use><use xlink:href="#6" y="13.026"></use></svg><svg x="1120"><use xlink:href="#a"></use><use xlink:href="#1" y="0"></use><use xlink:href="#15" y="2.171"></use><use xlink:href="#9" y="4.342"></use><use xlink:href="#16" y="6.513"></use><use xlink:href="#11" y="8.684"></use><use xlink:href="#5" y="10.855"></use><use xlink:href="#6" y="13.026"></use></svg><svg x="1200"><use xlink:href="#a"></use><use xlink:href="#1" y="0"></use><use xlink:href="#15" y="2.171"></use><use xlink:href="#9" y="4.342"></use><use xlink:href="#16" y="6.513"></use><use xlink:href="#12" y="8.684"></use><use xlink:href="#13" y="10.855"></use><use xlink:href="#6" y="13.026"></use></svg><svg x="1280"><use xlink:href="#a"></use><use xlink:href="#1" y="0"></use><use xlink:href="#15" y="2.171"></use><use xlink:href="#9" y="4.342"></use><use xlink:href="#16" y="6.513"></use><use xlink:href="#12" y="8.684"></use><text x="0" y="12.525" class="h">&gt;</text><text x="2.004" y="12.525" class="g">[</text><text x="3.006" y="12.525" class="k">+</text><text x="4.008" y="12.525" class="g">]</text><text x="6.012" y="12.525" class="g">Option</text><text x="13.026" y="12.525" class="g">4</text><use xlink:href="#6" y="13.026"></use></svg><svg x="1360"><use xlink:href="#a"></use><use xlink:href="#1" y="0"></use><use xlink:href="#14" y="2.171"></use><use xlink:href="#9" y="4.342"></use><use xlink:href="#16" y="6.513"></use><use xlink:href="#12" y="8.684"></use><use xlink:href="#17" y="10.855"></use><use xlink:href="#6" y="13.026"></use></svg><svg x="1440"><use xlink:href="#a"></use><use xlink:href="#1" y="0"></use><use xlink:href="#14" y="2.171"></use><use xlink:href="#9" y="4.342"></use><use xlink:href="#16" y="6.513"></use><use xlink:href="#12" y="8.684"></use><use xlink:href="#17" y="10.855"></use><use xlink:href="#6" y="13.026"></use></svg><svg x="1520"><use xlink:href="#a"></use><use xlink:href="#1" y="0"></use><use xlink:href="#14" y="2.171"></use><use xlink:href="#9" y="4.342"></use><use xlink:href="#16" y="6.513"></use><use xlink:href="#12" y="8.684"></use><use xlink:href="#17" y="10.855"></use><use xlink:href="#6" y="13.026"></use></svg><svg x="1600"><use xlink:href="#a"></use><use xlink:href="#1" y="0"></use><use xlink:href="#14" y="2.171"></use><use xlink:href="#9" y="4.342"></use><use xlink:href="#16" y="6.513"></use><use xlink:href="#12" y="8.684"></use><use xlink:href="#17" y="10.855"></use><use xlink:href="#6" y="13.026"></use></svg><svg x="1680"><use xlink:href="#a"></use><use xlink:href="#1" y="0"></use><use xlink:href="#14" y="2.171"></use><use xlink:href="#9" y="4.342"></use><use xlink:href="#16" y="6.513"></use><use xlink:href="#12" y="8.684"></use><use xlink:href="#17" y="10.855"></use><use xlink:href="#6" y="13.026"></use></svg><svg x="1760"><use xlink:href="#a"></use><use xlink:href="#1" y="0"></use><use xlink:href="#14" y="2.171"></use><use xlink:href="#9" y="4.342"></use><use xlink:href="#16" y="6.513"></use><use xlink:href="#12" y="8.684"></use><use xlink:href="#17" y="10.855"></use><use xlink:href="#6" y="13.026"></use></svg><svg x="1840"><use xlink:href="#a"></use><use xlink:href="#1" y="0"></use><use xlink:href="#2" y="2.171"></use><use xlink:href="#9" y="4.342"></use><use xlink:href="#16" y="6.513"></use><use xlink:href="#12" y="8.684"></use><use xlink:href="#17" y="10.855"></use><use xlink:href="#6" y="13.026"></use></svg><svg x="1920"><use xlink:href="#a"></use><use xlink:href="#b" x="-0.0040000000000000036" y="13.001"></use><use xlink:href="#1" y="0"></use><use xlink:href="#18" y="2.171"></use><use xlink:href="#19" y="4.342"></use><use xlink:href="#20" y="6.513"></use><use xlink:href="#21" y="8.684"></use><use xlink:href="#22" y="10.855"></use></svg><svg x="2000"><use xlink:href="#a"></use><use xlink:href="#b" x="22.996" y="17.343"></use><use xlink:href="#1" y="0"></use><use xlink:href="#18" y="2.171"></use><use xlink:href="#19" y="4.342"></use><use xlink:href="#20" y="6.513"></use><use xlink:href="#21" y="8.684"></use><use xlink:href="#22" y="10.855"></use><text x="0" y="16.866999999999997" class="g">Restarting</text><text x="11.021999999999998" y="16.866999999999997" class="g">animation...</text></svg></svg></g></g></svg></svg>