<svg xmlns="http://www.w3.org/2000/svg" xmlns:xlink="http://www.w3.org/1999/xlink" width="800" height="521.04"><rect width="800" height="521.04" rx="0" ry="0" class="a"/><svg height="521.04" viewBox="0 0 80 52.104" width="800" xmlns="http://www.w3.org/2000/svg" xmlns:xlink="http://www.w3.org/1999/xlink"><style>@keyframes q{0%{transform:translateX(0)}5.4%{transform:translateX(-80px)}25.5%{transform:translateX(-160px)}45.5%{transform:translateX(-240px)}65.5%{transform:translateX(-320px)}85.5%{transform:translateX(-400px)}to{transform:translateX(-480px)}}.a{fill:#282d35}.c{fill:#a8cc8c}.d,.e{fill:#fff;white-space:pre}.e{fill:#a8cc8c}.f{fill:#b9bfca}.g{fill:#d290e3;font-weight:700;white-space:pre}.h,.i{fill:#66c2cd}.i{white-space:pre}.j,.k{fill:#dbab79}.k{white-space:pre}.l,.m{fill:#e88388}.m{white-space:pre}.n{fill:#6f7783}.t{fill:#b9c0cb;white-space:pre}</style><g font-family="Monaco,Consolas,Menlo,'Bitstream Vera Sans Mono','Powerline Symbols',monospace" font-size="1.67"><defs><symbol id="1"><path class="c" d="M0 0h9v2.171H0z"/><text y="1.67" class="d">SUCCESS</text><text x="10.02" y="1.67" class="e">This</text><text x="15.03" y="1.67" class="e">is</text><text x="18.036" y="1.67" class="e">the</text><text x="22.044" y="1.67" class="e">default</text><text x="30.06" y="1.67" class="e">SUCCESS</text><text x="38.076" y="1.67" class="e">printer.</text></symbol><symbol id="2"><path class="c" d="M0 0h18v2.171H0z"/><text y="1.67" class="d">SUCCESS (scope)</text><text x="19.038" y="1.67" class="e">This</text><text x="24.048" y="1.67" class="e">is</text><text x="27.054" y="1.67" class="e">the</text><text x="31.062" y="1.67" class="e">SUCCESS</text><text x="39.078" y="1.67" class="e">printer</text><text x="47.094" y="1.67" class="e">with</text><text x="52.104" y="1.67" class="e">a</text><text x="54.108" y="1.67" class="e">scope.</text></symbol><symbol id="3"><path class="c" d="M0 0h9v2.171H0z"/><text y="1.67" class="d">SUCCESS</text><path class="f" d="M9.018 0h10v2.171h-10z"/><text x="9.018" y="1.67" class="g">(custom)</text><text x="20.04" y="1.67" class="e">This</text><text x="25.05" y="1.67" class="e">is</text><text x="28.056" y="1.67" class="e">the</text><text x="32.064" y="1.67" class="e">SUCCESS</text><text x="40.08" y="1.67" class="e">printer</text><text x="48.096" y="1.67" class="e">with</text><text x="53.106" y="1.67" class="e">a</text><text x="55.11" y="1.67" class="e">custom</text><text x="62.124" y="1.67" class="e">scope</text><text x="68.136" y="1.67" class="e">style.</text></symbol><symbol id="4"><path class="h" d="M0 0h6v2.171H0z"/><text y="1.67" class="d">INFO</text><text x="7.014" y="1.67" class="i">This</text><text x="12.024" y="1.67" class="i">is</text><text x="15.03" y="1.67" class="i">the</text><text x="19.038" y="1.67" class="i">default</text><text x="27.054" y="1.67" class="i">INFO</text><text x="32.064" y="1.67" class="i">printer.</text></symbol><symbol id="5"><path class="h" d="M0 0h15v2.171H0z"/><text y="1.67" class="d">INFO (scope)</text><text x="16.032" y="1.67" class="i">This</text><text x="21.042" y="1.67" class="i">is</text><text x="24.048" y="1.67" class="i">the</text><text x="28.056" y="1.67" class="i">INFO</text><text x="33.066" y="1.67" class="i">printer</text><text x="41.082" y="1.67" class="i">with</text><text x="46.092" y="1.67" class="i">a</text><text x="48.096" y="1.67" class="i">scope.</text></symbol><symbol id="6"><path class="h" d="M0 0h6v2.171H0z"/><text y="1.67" class="d">INFO</text><path class="f" d="M6.012 0h10v2.171h-10z"/><text x="6.012" y="1.67" class="g">(custom)</text><text x="17.034" y="1.67" class="i">This</text><text x="22.044" y="1.67" class="i">is</text><text x="25.05" y="1.67" class="i">the</text><text x="29.058" y="1.67" class="i">INFO</text><text x="34.068" y="1.67" class="i">printer</text><text x="42.084" y="1.67" class="i">with</text><text x="47.094" y="1.67" class="i">a</text><text x="49.098" y="1.67" class="i">custom</text><text x="56.112" y="1.67" class="i">scope</text><text x="62.124" y="1.67" class="i">style.</text></symbol><symbol id="7"><path class="j" d="M0 0h9v2.171H0z"/><text y="1.67" class="d">WARNING</text><text x="10.02" y="1.67" class="k">This</text><text x="15.03" y="1.67" class="k">is</text><text x="18.036" y="1.67" class="k">the</text><text x="22.044" y="1.67" class="k">default</text><text x="30.06" y="1.67" class="k">WARNING</text><text x="38.076" y="1.67" class="k">printer.</text></symbol><symbol id="8"><path class="j" d="M0 0h18v2.171H0z"/><text y="1.67" class="d">WARNING (scope)</text><text x="19.038" y="1.67" class="k">This</text><text x="24.048" y="1.67" class="k">is</text><text x="27.054" y="1.67" class="k">the</text><text x="31.062" y="1.67" class="k">WARNING</text><text x="39.078" y="1.67" class="k">printer</text><text x="47.094" y="1.67" class="k">with</text><text x="52.104" y="1.67" class="k">a</text><text x="54.108" y="1.67" class="k">scope.</text></symbol><symbol id="9"><path class="j" d="M0 0h9v2.171H0z"/><text y="1.67" class="d">WARNING</text><path class="f" d="M9.018 0h10v2.171h-10z"/><text x="9.018" y="1.67" class="g">(custom)</text><text x="20.04" y="1.67" class="k">This</text><text x="25.05" y="1.67" class="k">is</text><text x="28.056" y="1.67" class="k">the</text><text x="32.064" y="1.67" class="k">WARNING</text><text x="40.08" y="1.67" class="k">printer</text><text x="48.096" y="1.67" class="k">with</text><text x="53.106" y="1.67" class="k">a</text><text x="55.11" y="1.67" class="k">custom</text><text x="62.124" y="1.67" class="k">scope</text><text x="68.136" y="1.67" class="k">style.</text></symbol><symbol id="10"><path class="l" d="M0 0h7v2.171H0z"/><text y="1.67" class="d">ERROR</text><text x="8.016" y="1.67" class="m">This</text><text x="13.026" y="1.67" class="m">is</text><text x="16.032" y="1.67" class="m">the</text><text x="20.04" y="1.67" class="m">default</text><text x="28.056" y="1.67" class="m">ERROR</text><text x="34.068" y="1.67" class="m">printer.</text></symbol><symbol id="11"><path class="l" d="M0 0h16v2.171H0z"/><text y="1.67" class="d">ERROR (scope)</text><text x="17.034" y="1.67" class="m">This</text><text x="22.044" y="1.67" class="m">is</text><text x="25.05" y="1.67" class="m">the</text><text x="29.058" y="1.67" class="m">ERROR</text><text x="35.07" y="1.67" class="m">printer</text><text x="43.086" y="1.67" class="m">with</text><text x="48.096" y="1.67" class="m">a</text><text x="50.1" y="1.67" class="m">scope.</text></symbol><symbol id="12"><path class="l" d="M0 0h7v2.171H0z"/><text y="1.67" class="d">ERROR</text><path class="f" d="M7.014 0h10v2.171h-10z"/><text x="7.014" y="1.67" class="g">(custom)</text><text x="18.036" y="1.67" class="m">This</text><text x="23.046" y="1.67" class="m">is</text><text x="26.052" y="1.67" class="m">the</text><text x="30.06" y="1.67" class="m">ERROR</text><text x="36.072" y="1.67" class="m">printer</text><text x="44.088" y="1.67" class="m">with</text><text x="49.098" y="1.67" class="m">a</text><text x="51.102" y="1.67" class="m">custom</text><text x="58.116" y="1.67" class="m">scope</text><text x="64.128" y="1.67" class="m">style.</text></symbol><symbol id="13"><path class="n" d="M0 0h54v2.171H0z"/><text y="1.67" class="d">Description This is the default Description printer.</text></symbol><symbol id="14"><path class="n" d="M0 0h68v2.171H0z"/><text y="1.67" class="d">Description (scope) This is the Description printer with a scope.</text></symbol><symbol id="15"><path class="n" d="M0 0h13v2.171H0z"/><text y="1.67" class="d">Description</text><path class="f" d="M13.026 0h10v2.171h-10z"/><text x="13.026" y="1.67" class="g">(custom)</text><path class="n" d="M23.046 0h57v2.171h-57z"/><text x="23.046" y="1.67" class="d">This is the Description printer with a custom scope styl</text></symbol><symbol id="16"><path class="n" d="M0 0h2v2.171H0z"/><text y="1.67" class="d">e.</text></symbol><symbol id="a"><path fill="transparent" d="M0 0h80v24H0z"/></symbol><symbol id="b"><path fill="#6f7683" d="M0 0h1.102v2.171H0z"/></symbol></defs><path class="a" d="M0 0h80v52.104H0z"/><g style="animation-duration:5s;animation-iteration-count:infinite;animation-name:q;animation-timing-function:steps(1,end)"><svg width="560"><svg><use xlink:href="#a"/><use xlink:href="#b" x="-.004"/></svg><svg x="80"><use xlink:href="#a"/><use xlink:href="#b" x="-.004" y="6.488"/><use xlink:href="#1"/><use xlink:href="#2" y="2.171"/><use xlink:href="#3" y="4.342"/></svg><svg x="160"><use xlink:href="#a"/><use xlink:href="#b" x="-.004" y="15.172"/><use xlink:href="#1"/><use xlink:href="#2" y="2.171"/><use xlink:href="#3" y="4.342"/><use xlink:href="#4" y="8.684"/><use xlink:href="#5" y="10.855"/><use xlink:href="#6" y="13.026"/></svg><svg x="240"><use xlink:href="#a"/><use xlink:href="#b" x="-.004" y="23.856"/><use xlink:href="#1"/><use xlink:href="#2" y="2.171"/><use xlink:href="#3" y="4.342"/><use xlink:href="#4" y="8.684"/><use xlink:href="#5" y="10.855"/><use xlink:href="#6" y="13.026"/><use xlink:href="#7" y="17.368"/><use xlink:href="#8" y="19.539"/><use xlink:href="#9" y="21.71"/></svg><svg x="320"><use xlink:href="#a"/><use xlink:href="#b" x="-.004" y="32.54"/><use xlink:href="#1"/><use xlink:href="#2" y="2.171"/><use xlink:href="#3" y="4.342"/><use xlink:href="#4" y="8.684"/><use xlink:href="#5" y="10.855"/><use xlink:href="#6" y="13.026"/><use xlink:href="#7" y="17.368"/><use xlink:href="#8" y="19.539"/><use xlink:href="#9" y="21.71"/><use xlink:href="#10" y="26.052"/><use xlink:href="#11" y="28.223"/><use xlink:href="#12" y="30.394"/></svg><svg x="400"><use xlink:href="#a"/><use xlink:href="#b" x="-.004" y="43.395"/><use xlink:href="#1"/><use xlink:href="#2" y="2.171"/><use xlink:href="#3" y="4.342"/><use xlink:href="#4" y="8.684"/><use xlink:href="#5" y="10.855"/><use xlink:href="#6" y="13.026"/><use xlink:href="#7" y="17.368"/><use xlink:href="#8" y="19.539"/><use xlink:href="#9" y="21.71"/><use xlink:href="#10" y="26.052"/><use xlink:href="#11" y="28.223"/><use xlink:href="#12" y="30.394"/><use xlink:href="#13" y="34.736"/><use xlink:href="#14" y="36.907"/><use xlink:href="#15" y="39.078"/><use xlink:href="#16" y="41.249"/></svg><svg x="480"><use xlink:href="#a"/><use xlink:href="#b" x="-.004" y="49.908"/><use xlink:href="#2"/><use xlink:href="#3" y="2.171"/><use xlink:href="#4" y="6.513"/><use xlink:href="#5" y="8.684"/><use xlink:href="#6" y="10.855"/><use xlink:href="#7" y="15.197"/><use xlink:href="#8" y="17.368"/><use xlink:href="#9" y="19.539"/><use xlink:href="#10" y="23.881"/><use xlink:href="#11" y="26.052"/><use xlink:href="#12" y="28.223"/><use xlink:href="#13" y="32.565"/><use xlink:href="#14" y="34.736"/><use xlink:href="#15" y="36.907"/><use xlink:href="#16" y="39.078"/><path fill="#71bef2" d="M0 43.42h8v2.171H0z"/><text y="45.09" class="m">CUSTOM</text><text x="9.018" y="45.09" class="t">This</text><text x="14.028" y="45.09" class="t">is</text><text x="17.034" y="45.09" class="t">a</text><text x="19.038" y="45.09" class="t">custom</text><text x="26.052" y="45.09" class="t">PrefixPrinter</text><text x="40.08" y="45.09" class="t">:)</text><text y="49.432" class="t">restarting...</text></svg></svg></g></g></svg></svg>