<svg xmlns="http://www.w3.org/2000/svg" xmlns:xlink="http://www.w3.org/1999/xlink" width="2360" height="363.94"><rect width="2360" height="363.94" rx="5" ry="5" class="a"></rect><svg y="0%" x="0%"><circle cx="20" cy="20" r="6" class="b"></circle><circle cx="40" cy="20" r="6" class="c"></circle><circle cx="60" cy="20" r="6" class="d"></circle></svg><svg height="303.94" viewBox="0 0 232 30.394" width="2320" x="15" xmlns="http://www.w3.org/2000/svg" xmlns:xlink="http://www.w3.org/1999/xlink" y="50"><style>.a{fill:rgb(40,45,53)}.b{fill:#ff5f58}.c{fill:#ffbd2e}.d{fill:#18c132}.e{font-family:Monaco,Consolas,Menlo,'Bitstream Vera Sans Mono','Powerline Symbols',monospace}.f{fill:rgb(111,119,131)}.g{fill:rgb(185,192,203);white-space:pre}.h{fill:rgb(255,255,255);font-weight:bold;white-space:pre}.i{fill:rgb(168,204,140)}.j{fill:rgb(255,255,255);white-space:pre}.k{fill:rgb(168,204,140);white-space:pre}.l{fill:rgb(102,194,205)}.m{fill:rgb(102,194,205);white-space:pre}.n{fill:rgb(232,131,136)}.o{fill:rgb(232,131,136);white-space:pre}.p{fill:rgb(219,171,121)}.q{fill:rgb(219,171,121);white-space:pre}.r{fill:rgb(113,190,242)}.s{fill:rgb(185,191,202)}.t{fill:rgb(210,144,227)}.u{fill:transparent}.v{fill:rgb(111,118,131)}.x{animation-duration:30.739206s;animation-iteration-count:infinite;animation-name:w;animation-timing-function:steps(1,end)}@keyframes w{0%{transform:translateX(-0px)}0.98%{transform:translateX(-232px)}10.74%{transform:translateX(-464px)}17.25%{transform:translateX(-696px)}17.25%{transform:translateX(-928px)}23.76%{transform:translateX(-1160px)}27.02%{transform:translateX(-1392px)}30.27%{transform:translateX(-1624px)}33.53%{transform:translateX(-1856px)}40.04%{transform:translateX(-2088px)}46.55%{transform:translateX(-2320px)}59.56%{transform:translateX(-2552px)}59.57%{transform:translateX(-2784px)}66.07%{transform:translateX(-3016px)}66.08%{transform:translateX(-3248px)}67.7%{transform:translateX(-3480px)}67.71%{transform:translateX(-3712px)}69.33%{transform:translateX(-3944px)}69.34%{transform:translateX(-4176px)}70.96%{transform:translateX(-4408px)}70.97%{transform:translateX(-4640px)}72.59%{transform:translateX(-4872px)}72.6%{transform:translateX(-5104px)}74.22%{transform:translateX(-5336px)}74.23%{transform:translateX(-5568px)}75.85%{transform:translateX(-5800px)}75.86%{transform:translateX(-6032px)}76.18%{transform:translateX(-6264px)}76.18%{transform:translateX(-6496px)}76.51%{transform:translateX(-6728px)}76.51%{transform:translateX(-6960px)}76.84%{transform:translateX(-7192px)}76.84%{transform:translateX(-7424px)}77.16%{transform:translateX(-7656px)}77.17%{transform:translateX(-7888px)}77.49%{transform:translateX(-8120px)}77.5%{transform:translateX(-8352px)}77.82%{transform:translateX(-8584px)}77.82%{transform:translateX(-8816px)}78.15%{transform:translateX(-9048px)}78.15%{transform:translateX(-9280px)}78.48%{transform:translateX(-9512px)}78.48%{transform:translateX(-9744px)}78.81%{transform:translateX(-9976px)}78.81%{transform:translateX(-10208px)}79.13%{transform:translateX(-10440px)}79.14%{transform:translateX(-10672px)}79.46%{transform:translateX(-10904px)}79.79%{transform:translateX(-11136px)}79.79%{transform:translateX(-11368px)}80.12%{transform:translateX(-11600px)}80.12%{transform:translateX(-11832px)}80.45%{transform:translateX(-12064px)}80.45%{transform:translateX(-12296px)}80.78%{transform:translateX(-12528px)}81.11%{transform:translateX(-12760px)}81.11%{transform:translateX(-12992px)}81.43%{transform:translateX(-13224px)}81.44%{transform:translateX(-13456px)}81.76%{transform:translateX(-13688px)}81.77%{transform:translateX(-13920px)}82.09%{transform:translateX(-14152px)}82.09%{transform:translateX(-14384px)}82.42%{transform:translateX(-14616px)}82.75%{transform:translateX(-14848px)}82.75%{transform:translateX(-15080px)}83.08%{transform:translateX(-15312px)}83.08%{transform:translateX(-15544px)}83.41%{transform:translateX(-15776px)}83.41%{transform:translateX(-16008px)}83.73%{transform:translateX(-16240px)}100%{transform:translateX(-16472px)}}</style><g font-family="Monaco, Consolas, Menlo, &#x27;Bitstream Vera Sans Mono&#x27;, &#x27;Powerline Symbols&#x27;, monospace" font-size="1.67" class="e"><defs><symbol id="1"><rect height="2.171" width="43" x="0" y="0" class="f"></rect><text x="0" y="1.67" class="g">                                           </text></symbol><symbol id="2"><rect height="2.171" width="43" x="0" y="0" class="f"></rect><text x="0" y="1.67" class="h">     You can do many things with PTerm     </text></symbol><symbol id="3"><rect height="2.171" width="9" x="0" y="0" class="i"></rect><text x="0" y="1.67" class="j"> SUCCESS </text><text x="10.02" y="1.67" class="k">You</text><text x="14.027999999999999" y="1.67" class="k">can</text><text x="18.035999999999998" y="1.67" class="k">print</text><text x="24.048" y="1.67" class="k">success</text><text x="32.064" y="1.67" class="k">messages!</text></symbol><symbol id="4"><rect height="2.171" width="6" x="0" y="0" class="l"></rect><text x="0" y="1.67" class="j"> INFO </text><text x="7.013999999999999" y="1.67" class="m">Or</text><text x="10.02" y="1.67" class="m">infos!</text></symbol><symbol id="5"><rect height="2.171" width="7" x="0" y="0" class="n"></rect><text x="0" y="1.67" class="j"> ERROR </text><text x="8.016" y="1.67" class="o">Or</text><text x="11.021999999999998" y="1.67" class="o">errors!</text></symbol><symbol id="6"><rect height="2.171" width="9" x="0" y="0" class="p"></rect><text x="0" y="1.67" class="j"> WARNING </text><text x="10.02" y="1.67" class="q">Or</text><text x="13.026" y="1.67" class="q">warnings!</text></symbol><symbol id="7"><rect height="2.171" width="49" x="0" y="0" class="f"></rect><text x="0" y="1.67" class="j"> Description  Even descriptions can be printed...</text></symbol><symbol id="8"><rect height="2.171" width="8" x="0" y="0" class="r"></rect><text x="0" y="1.67" class="o"> CUSTOM </text><text x="9.017999999999999" y="1.67" class="g">Or</text><text x="12.024" y="1.67" class="g">a</text><text x="14.027999999999999" y="1.67" class="g">custom</text><text x="21.041999999999998" y="1.67" class="g">PrefixPrinter</text><text x="35.06999999999999" y="1.67" class="g">can</text><text x="39.077999999999996" y="1.67" class="g">be</text><text x="42.083999999999996" y="1.67" class="g">crafted</text><text x="50.1" y="1.67" class="g">:)</text></symbol><symbol id="9"><rect height="2.171" width="39" x="0" y="0" class="f"></rect><text x="0" y="1.67" class="g">                                       </text></symbol><symbol id="10"><rect height="2.171" width="38" x="0" y="0" class="i"></rect><text x="0" y="1.67" class="g">                                      </text></symbol><symbol id="11"><rect height="2.171" width="38" x="0" y="0" class="s"></rect><text x="0" y="1.67" class="g">                                      </text></symbol><symbol id="12"><rect height="2.171" width="38" x="0" y="0" class="n"></rect><text x="0" y="1.67" class="g">                                      </text></symbol><symbol id="13"><rect height="2.171" width="38" x="0" y="0" class="r"></rect><text x="0" y="1.67" class="g">                                      </text></symbol><symbol id="14"><rect height="2.171" width="38" x="0" y="0" class="p"></rect><text x="0" y="1.67" class="g">                                      </text></symbol><symbol id="15"><rect height="2.171" width="38" x="0" y="0" class="t"></rect><text x="0" y="1.67" class="g">                                      </text></symbol><symbol id="16"><rect height="2.171" width="38" x="0" y="0" class="t"></rect><text x="0" y="1.67" class="j">     Everything can be customized     </text></symbol><symbol id="17"><rect height="2.171" width="40" x="0" y="0" class="t"></rect><text x="0" y="1.67" class="g">                                        </text></symbol><symbol id="18"><rect height="2.171" width="40" x="0" y="0" class="t"></rect><text x="0" y="1.67" class="j">      Everything can be customized      </text></symbol><symbol id="19"><rect height="2.171" width="42" x="0" y="0" class="t"></rect><text x="0" y="1.67" class="g">                                          </text></symbol><symbol id="20"><rect height="2.171" width="42" x="0" y="0" class="t"></rect><text x="0" y="1.67" class="j">       Everything can be customized       </text></symbol><symbol id="21"><rect height="2.171" width="44" x="0" y="0" class="t"></rect><text x="0" y="1.67" class="g">                                            </text></symbol><symbol id="22"><rect height="2.171" width="44" x="0" y="0" class="t"></rect><text x="0" y="1.67" class="j">        Everything can be customized        </text></symbol><symbol id="23"><rect height="2.171" width="46" x="0" y="0" class="t"></rect><text x="0" y="1.67" class="g">                                              </text></symbol><symbol id="24"><rect height="2.171" width="46" x="0" y="0" class="t"></rect><text x="0" y="1.67" class="j">         Everything can be customized         </text></symbol><symbol id="25"><rect height="2.171" width="48" x="0" y="0" class="t"></rect><text x="0" y="1.67" class="g">                                                </text></symbol><symbol id="26"><rect height="2.171" width="48" x="0" y="0" class="t"></rect><text x="0" y="1.67" class="j">          Everything can be customized          </text></symbol><symbol id="27"><rect height="2.171" width="50" x="0" y="0" class="t"></rect><text x="0" y="1.67" class="g">                                                  </text></symbol><symbol id="28"><rect height="2.171" width="50" x="0" y="0" class="t"></rect><text x="0" y="1.67" class="j">           Everything can be customized           </text></symbol><symbol id="29"><rect height="2.171" width="52" x="0" y="0" class="t"></rect><text x="0" y="1.67" class="g">                                                    </text></symbol><symbol id="30"><rect height="2.171" width="52" x="0" y="0" class="t"></rect><text x="0" y="1.67" class="j">            Everything can be customized            </text></symbol><symbol id="31"><rect height="2.171" width="54" x="0" y="0" class="t"></rect><text x="0" y="1.67" class="g">                                                      </text></symbol><symbol id="32"><rect height="2.171" width="54" x="0" y="0" class="t"></rect><text x="0" y="1.67" class="j">             Everything can be customized             </text></symbol><symbol id="33"><rect height="2.171" width="56" x="0" y="0" class="t"></rect><text x="0" y="1.67" class="g">                                                        </text></symbol><symbol id="34"><rect height="2.171" width="56" x="0" y="0" class="t"></rect><text x="0" y="1.67" class="j">              Everything can be customized              </text></symbol><symbol id="35"><rect height="2.171" width="58" x="0" y="0" class="t"></rect><text x="0" y="1.67" class="g">                                                          </text></symbol><symbol id="36"><rect height="2.171" width="36" x="0" y="0" class="t"></rect><text x="0" y="1.67" class="g">                                    </text></symbol><symbol id="37"><rect height="2.171" width="34" x="0" y="0" class="t"></rect><text x="0" y="1.67" class="g">                                  </text></symbol><symbol id="38"><rect height="2.171" width="32" x="0" y="0" class="t"></rect><text x="0" y="1.67" class="g">                                </text></symbol><symbol id="39"><rect height="2.171" width="30" x="0" y="0" class="t"></rect><text x="0" y="1.67" class="g">                              </text></symbol><symbol id="40"><rect height="2.171" width="30" x="0" y="0" class="t"></rect><text x="0" y="1.67" class="j"> Everything can be customized </text></symbol><symbol id="a"><rect height="14" width="232" x="0" y="0" class="u"></rect></symbol><symbol id="b"><rect height="2.171" width="1.1022" class="v"></rect></symbol></defs><rect height="30.394" width="232" class="a"></rect><g class="x"><svg x="0" y="0" width="16704"><svg x="0"><use xlink:href="#a"></use><use xlink:href="#b" x="-0.0040000000000000036" y="0"></use></svg><svg x="232"><use xlink:href="#a"></use><use xlink:href="#b" x="-0.0040000000000000036" y="8.658999999999999"></use><use xlink:href="#1" y="0"></use><use xlink:href="#2" y="2.171"></use><use xlink:href="#1" y="4.342"></use></svg><svg x="464"><use xlink:href="#a"></use><use xlink:href="#b" x="-0.0040000000000000036" y="10.83"></use><use xlink:href="#1" y="0"></use><use xlink:href="#2" y="2.171"></use><use xlink:href="#1" y="4.342"></use><text x="0" y="10.354" class="m">Like</text><text x="5.01" y="10.354" class="m">this</text><text x="10.02" y="10.354" class="m">header</text><text x="17.034" y="10.354" class="m">above!</text></svg><svg x="696"><use xlink:href="#a"></use><use xlink:href="#b" x="-0.0040000000000000036" y="0"></use></svg><svg x="928"><use xlink:href="#a"></use><use xlink:href="#b" x="-0.0040000000000000036" y="2.146"></use><use xlink:href="#3" y="0"></use></svg><svg x="1160"><use xlink:href="#a"></use><use xlink:href="#b" x="-0.0040000000000000036" y="4.317"></use><use xlink:href="#3" y="0"></use><use xlink:href="#4" y="2.171"></use></svg><svg x="1392"><use xlink:href="#a"></use><use xlink:href="#b" x="-0.0040000000000000036" y="6.4879999999999995"></use><use xlink:href="#3" y="0"></use><use xlink:href="#4" y="2.171"></use><use xlink:href="#5" y="4.342"></use></svg><svg x="1624"><use xlink:href="#a"></use><use xlink:href="#b" x="-0.0040000000000000036" y="8.658999999999999"></use><use xlink:href="#3" y="0"></use><use xlink:href="#4" y="2.171"></use><use xlink:href="#5" y="4.342"></use><use xlink:href="#6" y="6.513"></use></svg><svg x="1856"><use xlink:href="#a"></use><use xlink:href="#b" x="-0.0040000000000000036" y="10.83"></use><use xlink:href="#3" y="0"></use><use xlink:href="#4" y="2.171"></use><use xlink:href="#5" y="4.342"></use><use xlink:href="#6" y="6.513"></use><use xlink:href="#7" y="8.684"></use></svg><svg x="2088"><use xlink:href="#a"></use><use xlink:href="#b" x="-0.0040000000000000036" y="13.001"></use><use xlink:href="#3" y="0"></use><use xlink:href="#4" y="2.171"></use><use xlink:href="#5" y="4.342"></use><use xlink:href="#6" y="6.513"></use><use xlink:href="#7" y="8.684"></use><use xlink:href="#8" y="10.855"></use></svg><svg x="2320"><use xlink:href="#a"></use><use xlink:href="#b" x="-0.0040000000000000036" y="15.171999999999999"></use><use xlink:href="#3" y="0"></use><use xlink:href="#4" y="2.171"></use><use xlink:href="#5" y="4.342"></use><use xlink:href="#6" y="6.513"></use><use xlink:href="#7" y="8.684"></use><use xlink:href="#8" y="10.855"></use><rect height="2.171" width="25" x="0" y="13.026" class="p"></rect><text x="0" y="14.696" class="j"> WARNING  (custom-scope) </text><text x="26.052" y="14.696" class="q">PrefixPrinters</text><text x="41.082" y="14.696" class="q">also</text><text x="46.09199999999999" y="14.696" class="q">support</text><text x="54.108" y="14.696" class="q">scopes!</text></svg><svg x="2552"><use xlink:href="#a"></use><use xlink:href="#b" x="-0.0040000000000000036" y="0"></use></svg><svg x="2784"><use xlink:href="#a"></use><use xlink:href="#b" x="-0.0040000000000000036" y="8.658999999999999"></use><use xlink:href="#9" y="0"></use><rect height="2.171" width="39" x="0" y="2.171" class="f"></rect><text x="0" y="3.8409999999999997" class="h">     Everything can be customized!     </text><use xlink:href="#9" y="4.342"></use></svg><svg x="3016"><use xlink:href="#a"></use><use xlink:href="#b" x="-0.0040000000000000036" y="0"></use></svg><svg x="3248"><use xlink:href="#a"></use><use xlink:href="#b" x="-0.0040000000000000036" y="8.658999999999999"></use><use xlink:href="#10" y="0"></use><rect height="2.171" width="38" x="0" y="2.171" class="i"></rect><text x="0" y="3.8409999999999997" class="j">     Everything can be customized     </text><use xlink:href="#10" y="4.342"></use></svg><svg x="3480"><use xlink:href="#a"></use><use xlink:href="#b" x="-0.0040000000000000036" y="0"></use></svg><svg x="3712"><use xlink:href="#a"></use><use xlink:href="#b" x="-0.0040000000000000036" y="8.658999999999999"></use><use xlink:href="#11" y="0"></use><rect height="2.171" width="38" x="0" y="2.171" class="s"></rect><text x="0" y="3.8409999999999997" class="j">     Everything can be customized     </text><use xlink:href="#11" y="4.342"></use></svg><svg x="3944"><use xlink:href="#a"></use><use xlink:href="#b" x="-0.0040000000000000036" y="2.146"></use><use xlink:href="#12" y="0"></use></svg><svg x="4176"><use xlink:href="#a"></use><use xlink:href="#b" x="-0.0040000000000000036" y="8.658999999999999"></use><use xlink:href="#12" y="0"></use><rect height="2.171" width="38" x="0" y="2.171" class="n"></rect><text x="0" y="3.8409999999999997" class="j">     Everything can be customized     </text><use xlink:href="#12" y="4.342"></use></svg><svg x="4408"><use xlink:href="#a"></use><use xlink:href="#b" x="-0.0040000000000000036" y="0"></use></svg><svg x="4640"><use xlink:href="#a"></use><use xlink:href="#b" x="-0.0040000000000000036" y="8.658999999999999"></use><use xlink:href="#13" y="0"></use><rect height="2.171" width="38" x="0" y="2.171" class="r"></rect><text x="0" y="3.8409999999999997" class="j">     Everything can be customized     </text><use xlink:href="#13" y="4.342"></use></svg><svg x="4872"><use xlink:href="#a"></use><use xlink:href="#b" x="-0.0040000000000000036" y="0"></use></svg><svg x="5104"><use xlink:href="#a"></use><use xlink:href="#b" x="-0.0040000000000000036" y="8.658999999999999"></use><use xlink:href="#14" y="0"></use><rect height="2.171" width="38" x="0" y="2.171" class="p"></rect><text x="0" y="3.8409999999999997" class="j">     Everything can be customized     </text><use xlink:href="#14" y="4.342"></use></svg><svg x="5336"><use xlink:href="#a"></use><use xlink:href="#b" x="-0.0040000000000000036" y="0"></use></svg><svg x="5568"><use xlink:href="#a"></use><use xlink:href="#b" x="-0.0040000000000000036" y="8.658999999999999"></use><use xlink:href="#15" y="0"></use><use xlink:href="#16" y="2.171"></use><use xlink:href="#15" y="4.342"></use></svg><svg x="5800"><use xlink:href="#a"></use><use xlink:href="#b" x="-0.0040000000000000036" y="0"></use></svg><svg x="6032"><use xlink:href="#a"></use><use xlink:href="#b" x="-0.0040000000000000036" y="8.658999999999999"></use><use xlink:href="#15" y="0"></use><use xlink:href="#16" y="2.171"></use><use xlink:href="#15" y="4.342"></use></svg><svg x="6264"><use xlink:href="#a"></use><use xlink:href="#b" x="-0.0040000000000000036" y="0"></use></svg><svg x="6496"><use xlink:href="#a"></use><use xlink:href="#b" x="-0.0040000000000000036" y="8.658999999999999"></use><use xlink:href="#17" y="0"></use><use xlink:href="#18" y="2.171"></use><use xlink:href="#17" y="4.342"></use></svg><svg x="6728"><use xlink:href="#a"></use><use xlink:href="#b" x="-0.0040000000000000036" y="0"></use></svg><svg x="6960"><use xlink:href="#a"></use><use xlink:href="#b" x="-0.0040000000000000036" y="8.658999999999999"></use><use xlink:href="#19" y="0"></use><use xlink:href="#20" y="2.171"></use><use xlink:href="#19" y="4.342"></use></svg><svg x="7192"><use xlink:href="#a"></use><use xlink:href="#b" x="-0.0040000000000000036" y="0"></use></svg><svg x="7424"><use xlink:href="#a"></use><use xlink:href="#b" x="-0.0040000000000000036" y="8.658999999999999"></use><use xlink:href="#21" y="0"></use><use xlink:href="#22" y="2.171"></use><use xlink:href="#21" y="4.342"></use></svg><svg x="7656"><use xlink:href="#a"></use><use xlink:href="#b" x="-0.0040000000000000036" y="0"></use></svg><svg x="7888"><use xlink:href="#a"></use><use xlink:href="#b" x="-0.0040000000000000036" y="8.658999999999999"></use><use xlink:href="#23" y="0"></use><use xlink:href="#24" y="2.171"></use><use xlink:href="#23" y="4.342"></use></svg><svg x="8120"><use xlink:href="#a"></use><use xlink:href="#b" x="-0.0040000000000000036" y="0"></use></svg><svg x="8352"><use xlink:href="#a"></use><use xlink:href="#b" x="-0.0040000000000000036" y="8.658999999999999"></use><use xlink:href="#25" y="0"></use><use xlink:href="#26" y="2.171"></use><use xlink:href="#25" y="4.342"></use></svg><svg x="8584"><use xlink:href="#a"></use><use xlink:href="#b" x="-0.0040000000000000036" y="0"></use></svg><svg x="8816"><use xlink:href="#a"></use><use xlink:href="#b" x="-0.0040000000000000036" y="8.658999999999999"></use><use xlink:href="#27" y="0"></use><use xlink:href="#28" y="2.171"></use><use xlink:href="#27" y="4.342"></use></svg><svg x="9048"><use xlink:href="#a"></use><use xlink:href="#b" x="-0.0040000000000000036" y="0"></use></svg><svg x="9280"><use xlink:href="#a"></use><use xlink:href="#b" x="-0.0040000000000000036" y="8.658999999999999"></use><use xlink:href="#29" y="0"></use><use xlink:href="#30" y="2.171"></use><use xlink:href="#29" y="4.342"></use></svg><svg x="9512"><use xlink:href="#a"></use><use xlink:href="#b" x="-0.0040000000000000036" y="0"></use></svg><svg x="9744"><use xlink:href="#a"></use><use xlink:href="#b" x="-0.0040000000000000036" y="8.658999999999999"></use><use xlink:href="#31" y="0"></use><use xlink:href="#32" y="2.171"></use><use xlink:href="#31" y="4.342"></use></svg><svg x="9976"><use xlink:href="#a"></use><use xlink:href="#b" x="-0.0040000000000000036" y="0"></use></svg><svg x="10208"><use xlink:href="#a"></use><use xlink:href="#b" x="-0.0040000000000000036" y="8.658999999999999"></use><use xlink:href="#33" y="0"></use><use xlink:href="#34" y="2.171"></use><use xlink:href="#33" y="4.342"></use></svg><svg x="10440"><use xlink:href="#a"></use><use xlink:href="#b" x="-0.0040000000000000036" y="0"></use></svg><svg x="10672"><use xlink:href="#a"></use><use xlink:href="#b" x="-0.0040000000000000036" y="8.658999999999999"></use><use xlink:href="#35" y="0"></use><rect height="2.171" width="58" x="0" y="2.171" class="t"></rect><text x="0" y="3.8409999999999997" class="j">               Everything can be customized               </text><use xlink:href="#35" y="4.342"></use></svg><svg x="10904"><use xlink:href="#a"></use><use xlink:href="#b" x="-0.0040000000000000036" y="8.658999999999999"></use><use xlink:href="#33" y="0"></use><use xlink:href="#34" y="2.171"></use><use xlink:href="#33" y="4.342"></use></svg><svg x="11136"><use xlink:href="#a"></use><use xlink:href="#b" x="-0.0040000000000000036" y="0"></use></svg><svg x="11368"><use xlink:href="#a"></use><use xlink:href="#b" x="-0.0040000000000000036" y="8.658999999999999"></use><use xlink:href="#31" y="0"></use><use xlink:href="#32" y="2.171"></use><use xlink:href="#31" y="4.342"></use></svg><svg x="11600"><use xlink:href="#a"></use><use xlink:href="#b" x="-0.0040000000000000036" y="0"></use></svg><svg x="11832"><use xlink:href="#a"></use><use xlink:href="#b" x="-0.0040000000000000036" y="8.658999999999999"></use><use xlink:href="#29" y="0"></use><use xlink:href="#30" y="2.171"></use><use xlink:href="#29" y="4.342"></use></svg><svg x="12064"><use xlink:href="#a"></use><use xlink:href="#b" x="-0.0040000000000000036" y="0"></use></svg><svg x="12296"><use xlink:href="#a"></use><use xlink:href="#b" x="-0.0040000000000000036" y="8.658999999999999"></use><use xlink:href="#27" y="0"></use><use xlink:href="#28" y="2.171"></use><use xlink:href="#27" y="4.342"></use></svg><svg x="12528"><use xlink:href="#a"></use><use xlink:href="#b" x="-0.0040000000000000036" y="8.658999999999999"></use><use xlink:href="#25" y="0"></use><use xlink:href="#26" y="2.171"></use><use xlink:href="#25" y="4.342"></use></svg><svg x="12760"><use xlink:href="#a"></use><use xlink:href="#b" x="-0.0040000000000000036" y="0"></use></svg><svg x="12992"><use xlink:href="#a"></use><use xlink:href="#b" x="-0.0040000000000000036" y="8.658999999999999"></use><use xlink:href="#23" y="0"></use><use xlink:href="#24" y="2.171"></use><use xlink:href="#23" y="4.342"></use></svg><svg x="13224"><use xlink:href="#a"></use><use xlink:href="#b" x="-0.0040000000000000036" y="0"></use></svg><svg x="13456"><use xlink:href="#a"></use><use xlink:href="#b" x="-0.0040000000000000036" y="8.658999999999999"></use><use xlink:href="#21" y="0"></use><use xlink:href="#22" y="2.171"></use><use xlink:href="#21" y="4.342"></use></svg><svg x="13688"><use xlink:href="#a"></use><use xlink:href="#b" x="-0.0040000000000000036" y="2.146"></use><use xlink:href="#19" y="0"></use></svg><svg x="13920"><use xlink:href="#a"></use><use xlink:href="#b" x="-0.0040000000000000036" y="8.658999999999999"></use><use xlink:href="#19" y="0"></use><use xlink:href="#20" y="2.171"></use><use xlink:href="#19" y="4.342"></use></svg><svg x="14152"><use xlink:href="#a"></use><use xlink:href="#b" x="-0.0040000000000000036" y="0"></use></svg><svg x="14384"><use xlink:href="#a"></use><use xlink:href="#b" x="-0.0040000000000000036" y="8.658999999999999"></use><use xlink:href="#17" y="0"></use><use xlink:href="#18" y="2.171"></use><use xlink:href="#17" y="4.342"></use></svg><svg x="14616"><use xlink:href="#a"></use><use xlink:href="#b" x="-0.0040000000000000036" y="8.658999999999999"></use><use xlink:href="#15" y="0"></use><use xlink:href="#16" y="2.171"></use><use xlink:href="#15" y="4.342"></use></svg><svg x="14848"><use xlink:href="#a"></use><use xlink:href="#b" x="-0.0040000000000000036" y="0"></use></svg><svg x="15080"><use xlink:href="#a"></use><use xlink:href="#b" x="-0.0040000000000000036" y="8.658999999999999"></use><use xlink:href="#36" y="0"></use><rect height="2.171" width="36" x="0" y="2.171" class="t"></rect><text x="0" y="3.8409999999999997" class="j">    Everything can be customized    </text><use xlink:href="#36" y="4.342"></use></svg><svg x="15312"><use xlink:href="#a"></use><use xlink:href="#b" x="-0.0040000000000000036" y="0"></use></svg><svg x="15544"><use xlink:href="#a"></use><use xlink:href="#b" x="-0.0040000000000000036" y="8.658999999999999"></use><use xlink:href="#37" y="0"></use><rect height="2.171" width="34" x="0" y="2.171" class="t"></rect><text x="0" y="3.8409999999999997" class="j">   Everything can be customized   </text><use xlink:href="#37" y="4.342"></use></svg><svg x="15776"><use xlink:href="#a"></use><use xlink:href="#b" x="-0.0040000000000000036" y="0"></use></svg><svg x="16008"><use xlink:href="#a"></use><use xlink:href="#b" x="-0.0040000000000000036" y="8.658999999999999"></use><use xlink:href="#38" y="0"></use><rect height="2.171" width="32" x="0" y="2.171" class="t"></rect><text x="0" y="3.8409999999999997" class="j">  Everything can be customized  </text><use xlink:href="#38" y="4.342"></use></svg><svg x="16240"><use xlink:href="#a"></use><use xlink:href="#b" x="-0.0040000000000000036" y="8.658999999999999"></use><use xlink:href="#39" y="0"></use><use xlink:href="#40" y="2.171"></use><use xlink:href="#39" y="4.342"></use></svg><svg x="16472"><use xlink:href="#a"></use><use xlink:href="#b" x="-0.0040000000000000036" y="13.001"></use><use xlink:href="#39" y="0"></use><use xlink:href="#40" y="2.171"></use><use xlink:href="#39" y="4.342"></use><text x="0" y="12.525" class="g">restarting...</text></svg></svg></g></g></svg></svg>