<svg xmlns="http://www.w3.org/2000/svg" xmlns:xlink="http://www.w3.org/1999/xlink" width="840" height="581.04"><rect width="840" height="581.04" rx="5" ry="5" class="a"></rect><svg y="0%" x="0%"><circle cx="20" cy="20" r="6" class="b"></circle><circle cx="40" cy="20" r="6" class="c"></circle><circle cx="60" cy="20" r="6" class="d"></circle></svg><svg height="521.04" viewBox="0 0 80 52.104" width="800" x="15" xmlns="http://www.w3.org/2000/svg" xmlns:xlink="http://www.w3.org/1999/xlink" y="50"><style>.a{fill:rgb(40,45,53)}.b{fill:#ff5f58}.c{fill:#ffbd2e}.d{fill:#18c132}.e{font-family:Monaco,Consolas,Menlo,'Bitstream Vera Sans Mono','Powerline Symbols',monospace}.f{fill:rgb(111,119,131)}.g{fill:rgb(185,192,203);white-space:pre}.h{fill:rgb(255,255,255);font-weight:bold;white-space:pre}.i{fill:rgb(168,204,140)}.j{white-space:pre}.k{fill:rgb(168,204,140);white-space:pre}.l{fill:rgb(102,194,205)}.m{fill:rgb(102,194,205);white-space:pre}.n{fill:rgb(232,131,136)}.o{fill:rgb(232,131,136);white-space:pre}.p{fill:rgb(219,171,121)}.q{fill:rgb(219,171,121);white-space:pre}.r{fill:rgb(255,255,255);white-space:pre}.s{fill:rgb(113,190,242)}.t{fill:rgb(185,191,202)}.u{fill:rgb(210,144,227)}.v{fill:transparent}.w{fill:rgb(111,118,131)}.y{animation-duration:30.677954s;animation-iteration-count:infinite;animation-name:x;animation-timing-function:steps(1,end)}@keyframes x{0%{transform:translateX(-0px)}0.88%{transform:translateX(-80px)}10.66%{transform:translateX(-160px)}17.18%{transform:translateX(-240px)}23.7%{transform:translateX(-320px)}26.96%{transform:translateX(-400px)}30.22%{transform:translateX(-480px)}33.48%{transform:translateX(-560px)}40%{transform:translateX(-640px)}46.52%{transform:translateX(-720px)}59.56%{transform:translateX(-800px)}66.08%{transform:translateX(-880px)}67.71%{transform:translateX(-960px)}69.34%{transform:translateX(-1040px)}70.97%{transform:translateX(-1120px)}72.6%{transform:translateX(-1200px)}74.23%{transform:translateX(-1280px)}75.86%{transform:translateX(-1360px)}76.19%{transform:translateX(-1440px)}76.52%{transform:translateX(-1520px)}76.84%{transform:translateX(-1600px)}77.17%{transform:translateX(-1680px)}77.5%{transform:translateX(-1760px)}77.5%{transform:translateX(-1840px)}77.82%{transform:translateX(-1920px)}78.15%{transform:translateX(-2000px)}78.48%{transform:translateX(-2080px)}78.8%{transform:translateX(-2160px)}79.13%{transform:translateX(-2240px)}79.46%{transform:translateX(-2320px)}79.78%{transform:translateX(-2400px)}80.11%{transform:translateX(-2480px)}80.44%{transform:translateX(-2560px)}80.76%{transform:translateX(-2640px)}81.09%{transform:translateX(-2720px)}81.42%{transform:translateX(-2800px)}81.74%{transform:translateX(-2880px)}82.07%{transform:translateX(-2960px)}82.4%{transform:translateX(-3040px)}82.72%{transform:translateX(-3120px)}83.05%{transform:translateX(-3200px)}83.38%{transform:translateX(-3280px)}83.7%{transform:translateX(-3360px)}100%{transform:translateX(-3440px)}}</style><g font-family="Monaco, Consolas, Menlo, &#x27;Bitstream Vera Sans Mono&#x27;, &#x27;Powerline Symbols&#x27;, monospace" font-size="1.67" class="e"><defs><symbol id="1"><rect height="2.171" width="43" x="0" y="0" class="f"></rect><text x="0" y="1.67" class="g">                                           </text></symbol><symbol id="2"><rect height="2.171" width="43" x="0" y="0" class="f"></rect><text x="0" y="1.67" class="h">     You can do many things with PTerm     </text></symbol><symbol id="3"><rect height="2.171" width="9" x="0" y="0" class="i"></rect><text x="0" y="1.67" class="j"> SUCCESS </text><text x="10.02" y="1.67" class="k">You</text><text x="14.027999999999999" y="1.67" class="k">can</text><text x="18.035999999999998" y="1.67" class="k">print</text><text x="24.048" y="1.67" class="k">success</text><text x="32.064" y="1.67" class="k">messages!</text></symbol><symbol id="4"><rect height="2.171" width="6" x="0" y="0" class="l"></rect><text x="0" y="1.67" class="j"> INFO </text><text x="7.013999999999999" y="1.67" class="m">Or</text><text x="10.02" y="1.67" class="m">infos!</text></symbol><symbol id="5"><rect height="2.171" width="7" x="0" y="0" class="n"></rect><text x="0" y="1.67" class="j"> ERROR </text><text x="8.016" y="1.67" class="o">Or</text><text x="11.021999999999998" y="1.67" class="o">errors!</text></symbol><symbol id="6"><rect height="2.171" width="9" x="0" y="0" class="p"></rect><text x="0" y="1.67" class="j"> WARNING </text><text x="10.02" y="1.67" class="q">Or</text><text x="13.026" y="1.67" class="q">warnings!</text></symbol><symbol id="7"><rect height="2.171" width="49" x="0" y="0" class="f"></rect><text x="0" y="1.67" class="r"> Description  Even descriptions can be printed...</text></symbol><symbol id="8"><rect height="2.171" width="8" x="0" y="0" class="s"></rect><text x="0" y="1.67" class="o"> CUSTOM </text><text x="9.017999999999999" y="1.67" class="g">Or</text><text x="12.024" y="1.67" class="g">a</text><text x="14.027999999999999" y="1.67" class="g">custom</text><text x="21.041999999999998" y="1.67" class="g">PrefixPrinter</text><text x="35.06999999999999" y="1.67" class="g">can</text><text x="39.077999999999996" y="1.67" class="g">be</text><text x="42.083999999999996" y="1.67" class="g">crafted</text><text x="50.1" y="1.67" class="g">:)</text></symbol><symbol id="9"><rect height="2.171" width="39" x="0" y="0" class="f"></rect><text x="0" y="1.67" class="g">                                       </text></symbol><symbol id="10"><rect height="2.171" width="38" x="0" y="0" class="i"></rect><text x="0" y="1.67" class="g">                                      </text></symbol><symbol id="11"><rect height="2.171" width="38" x="0" y="0" class="t"></rect><text x="0" y="1.67" class="g">                                      </text></symbol><symbol id="12"><rect height="2.171" width="38" x="0" y="0" class="n"></rect><text x="0" y="1.67" class="g">                                      </text></symbol><symbol id="13"><rect height="2.171" width="38" x="0" y="0" class="s"></rect><text x="0" y="1.67" class="g">                                      </text></symbol><symbol id="14"><rect height="2.171" width="38" x="0" y="0" class="p"></rect><text x="0" y="1.67" class="g">                                      </text></symbol><symbol id="15"><rect height="2.171" width="38" x="0" y="0" class="u"></rect><text x="0" y="1.67" class="g">                                      </text></symbol><symbol id="16"><rect height="2.171" width="38" x="0" y="0" class="u"></rect><text x="0" y="1.67" class="r">     Everything can be customized     </text></symbol><symbol id="17"><rect height="2.171" width="40" x="0" y="0" class="u"></rect><text x="0" y="1.67" class="g">                                        </text></symbol><symbol id="18"><rect height="2.171" width="40" x="0" y="0" class="u"></rect><text x="0" y="1.67" class="r">      Everything can be customized      </text></symbol><symbol id="19"><rect height="2.171" width="42" x="0" y="0" class="u"></rect><text x="0" y="1.67" class="g">                                          </text></symbol><symbol id="20"><rect height="2.171" width="42" x="0" y="0" class="u"></rect><text x="0" y="1.67" class="r">       Everything can be customized       </text></symbol><symbol id="21"><rect height="2.171" width="44" x="0" y="0" class="u"></rect><text x="0" y="1.67" class="g">                                            </text></symbol><symbol id="22"><rect height="2.171" width="44" x="0" y="0" class="u"></rect><text x="0" y="1.67" class="r">        Everything can be customized        </text></symbol><symbol id="23"><rect height="2.171" width="46" x="0" y="0" class="u"></rect><text x="0" y="1.67" class="g">                                              </text></symbol><symbol id="24"><rect height="2.171" width="46" x="0" y="0" class="u"></rect><text x="0" y="1.67" class="r">         Everything can be customized         </text></symbol><symbol id="25"><rect height="2.171" width="48" x="0" y="0" class="u"></rect><text x="0" y="1.67" class="g">                                                </text></symbol><symbol id="26"><rect height="2.171" width="48" x="0" y="0" class="u"></rect><text x="0" y="1.67" class="r">          Everything can be customized          </text></symbol><symbol id="27"><rect height="2.171" width="50" x="0" y="0" class="u"></rect><text x="0" y="1.67" class="g">                                                  </text></symbol><symbol id="28"><rect height="2.171" width="50" x="0" y="0" class="u"></rect><text x="0" y="1.67" class="r">           Everything can be customized           </text></symbol><symbol id="29"><rect height="2.171" width="52" x="0" y="0" class="u"></rect><text x="0" y="1.67" class="g">                                                    </text></symbol><symbol id="30"><rect height="2.171" width="52" x="0" y="0" class="u"></rect><text x="0" y="1.67" class="r">            Everything can be customized            </text></symbol><symbol id="31"><rect height="2.171" width="54" x="0" y="0" class="u"></rect><text x="0" y="1.67" class="g">                                                      </text></symbol><symbol id="32"><rect height="2.171" width="54" x="0" y="0" class="u"></rect><text x="0" y="1.67" class="r">             Everything can be customized             </text></symbol><symbol id="33"><rect height="2.171" width="56" x="0" y="0" class="u"></rect><text x="0" y="1.67" class="g">                                                        </text></symbol><symbol id="34"><rect height="2.171" width="56" x="0" y="0" class="u"></rect><text x="0" y="1.67" class="r">              Everything can be customized              </text></symbol><symbol id="35"><rect height="2.171" width="58" x="0" y="0" class="u"></rect><text x="0" y="1.67" class="g">                                                          </text></symbol><symbol id="36"><rect height="2.171" width="36" x="0" y="0" class="u"></rect><text x="0" y="1.67" class="g">                                    </text></symbol><symbol id="37"><rect height="2.171" width="34" x="0" y="0" class="u"></rect><text x="0" y="1.67" class="g">                                  </text></symbol><symbol id="38"><rect height="2.171" width="32" x="0" y="0" class="u"></rect><text x="0" y="1.67" class="g">                                </text></symbol><symbol id="39"><rect height="2.171" width="30" x="0" y="0" class="u"></rect><text x="0" y="1.67" class="g">                              </text></symbol><symbol id="40"><rect height="2.171" width="30" x="0" y="0" class="u"></rect><text x="0" y="1.67" class="r"> Everything can be customized </text></symbol><symbol id="a"><rect height="24" width="80" x="0" y="0" class="v"></rect></symbol><symbol id="b"><rect height="2.171" width="1.1022" class="w"></rect></symbol></defs><rect height="52.104" width="80" class="a"></rect><g class="y"><svg x="0" y="0" width="3520"><svg x="0"><use xlink:href="#a"></use><use xlink:href="#b" x="-0.0040000000000000036" y="0"></use></svg><svg x="80"><use xlink:href="#a"></use><use xlink:href="#b" x="-0.0040000000000000036" y="8.658999999999999"></use><use xlink:href="#1" y="0"></use><use xlink:href="#2" y="2.171"></use><use xlink:href="#1" y="4.342"></use></svg><svg x="160"><use xlink:href="#a"></use><use xlink:href="#b" x="-0.0040000000000000036" y="10.83"></use><use xlink:href="#1" y="0"></use><use xlink:href="#2" y="2.171"></use><use xlink:href="#1" y="4.342"></use><text x="0" y="10.354" class="m">Like</text><text x="5.01" y="10.354" class="m">this</text><text x="10.02" y="10.354" class="m">header</text><text x="17.034" y="10.354" class="m">above!</text></svg><svg x="240"><use xlink:href="#a"></use><use xlink:href="#b" x="-0.0040000000000000036" y="2.146"></use><use xlink:href="#3" y="0"></use></svg><svg x="320"><use xlink:href="#a"></use><use xlink:href="#b" x="-0.0040000000000000036" y="4.317"></use><use xlink:href="#3" y="0"></use><use xlink:href="#4" y="2.171"></use></svg><svg x="400"><use xlink:href="#a"></use><use xlink:href="#b" x="-0.0040000000000000036" y="6.4879999999999995"></use><use xlink:href="#3" y="0"></use><use xlink:href="#4" y="2.171"></use><use xlink:href="#5" y="4.342"></use></svg><svg x="480"><use xlink:href="#a"></use><use xlink:href="#b" x="-0.0040000000000000036" y="8.658999999999999"></use><use xlink:href="#3" y="0"></use><use xlink:href="#4" y="2.171"></use><use xlink:href="#5" y="4.342"></use><use xlink:href="#6" y="6.513"></use></svg><svg x="560"><use xlink:href="#a"></use><use xlink:href="#b" x="-0.0040000000000000036" y="10.83"></use><use xlink:href="#3" y="0"></use><use xlink:href="#4" y="2.171"></use><use xlink:href="#5" y="4.342"></use><use xlink:href="#6" y="6.513"></use><use xlink:href="#7" y="8.684"></use></svg><svg x="640"><use xlink:href="#a"></use><use xlink:href="#b" x="-0.0040000000000000036" y="13.001"></use><use xlink:href="#3" y="0"></use><use xlink:href="#4" y="2.171"></use><use xlink:href="#5" y="4.342"></use><use xlink:href="#6" y="6.513"></use><use xlink:href="#7" y="8.684"></use><use xlink:href="#8" y="10.855"></use></svg><svg x="720"><use xlink:href="#a"></use><use xlink:href="#b" x="-0.0040000000000000036" y="15.171999999999999"></use><use xlink:href="#3" y="0"></use><use xlink:href="#4" y="2.171"></use><use xlink:href="#5" y="4.342"></use><use xlink:href="#6" y="6.513"></use><use xlink:href="#7" y="8.684"></use><use xlink:href="#8" y="10.855"></use><rect height="2.171" width="9" x="0" y="13.026" class="p"></rect><text x="0" y="14.696" class="j"> WARNING </text><text x="10.02" y="14.696" class="g">(custom-scope)</text><text x="26.052" y="14.696" class="q">PrefixPrinters</text><text x="41.082" y="14.696" class="q">also</text><text x="46.09199999999999" y="14.696" class="q">support</text><text x="54.108" y="14.696" class="q">scopes!</text></svg><svg x="800"><use xlink:href="#a"></use><use xlink:href="#b" x="-0.0040000000000000036" y="8.658999999999999"></use><use xlink:href="#9" y="0"></use><rect height="2.171" width="39" x="0" y="2.171" class="f"></rect><text x="0" y="3.8409999999999997" class="h">     Everything can be customized!     </text><use xlink:href="#9" y="4.342"></use></svg><svg x="880"><use xlink:href="#a"></use><use xlink:href="#b" x="-0.0040000000000000036" y="8.658999999999999"></use><use xlink:href="#10" y="0"></use><rect height="2.171" width="38" x="0" y="2.171" class="i"></rect><text x="0" y="3.8409999999999997" class="r">     Everything can be customized     </text><use xlink:href="#10" y="4.342"></use></svg><svg x="960"><use xlink:href="#a"></use><use xlink:href="#b" x="-0.0040000000000000036" y="8.658999999999999"></use><use xlink:href="#11" y="0"></use><rect height="2.171" width="38" x="0" y="2.171" class="t"></rect><text x="0" y="3.8409999999999997" class="r">     Everything can be customized     </text><use xlink:href="#11" y="4.342"></use></svg><svg x="1040"><use xlink:href="#a"></use><use xlink:href="#b" x="-0.0040000000000000036" y="8.658999999999999"></use><use xlink:href="#12" y="0"></use><rect height="2.171" width="38" x="0" y="2.171" class="n"></rect><text x="0" y="3.8409999999999997" class="r">     Everything can be customized     </text><use xlink:href="#12" y="4.342"></use></svg><svg x="1120"><use xlink:href="#a"></use><use xlink:href="#b" x="-0.0040000000000000036" y="8.658999999999999"></use><use xlink:href="#13" y="0"></use><rect height="2.171" width="38" x="0" y="2.171" class="s"></rect><text x="0" y="3.8409999999999997" class="r">     Everything can be customized     </text><use xlink:href="#13" y="4.342"></use></svg><svg x="1200"><use xlink:href="#a"></use><use xlink:href="#b" x="-0.0040000000000000036" y="8.658999999999999"></use><use xlink:href="#14" y="0"></use><rect height="2.171" width="38" x="0" y="2.171" class="p"></rect><text x="0" y="3.8409999999999997" class="r">     Everything can be customized     </text><use xlink:href="#14" y="4.342"></use></svg><svg x="1280"><use xlink:href="#a"></use><use xlink:href="#b" x="-0.0040000000000000036" y="8.658999999999999"></use><use xlink:href="#15" y="0"></use><use xlink:href="#16" y="2.171"></use><use xlink:href="#15" y="4.342"></use></svg><svg x="1360"><use xlink:href="#a"></use><use xlink:href="#b" x="-0.0040000000000000036" y="8.658999999999999"></use><use xlink:href="#15" y="0"></use><use xlink:href="#16" y="2.171"></use><use xlink:href="#15" y="4.342"></use></svg><svg x="1440"><use xlink:href="#a"></use><use xlink:href="#b" x="-0.0040000000000000036" y="8.658999999999999"></use><use xlink:href="#17" y="0"></use><use xlink:href="#18" y="2.171"></use><use xlink:href="#17" y="4.342"></use></svg><svg x="1520"><use xlink:href="#a"></use><use xlink:href="#b" x="-0.0040000000000000036" y="8.658999999999999"></use><use xlink:href="#19" y="0"></use><use xlink:href="#20" y="2.171"></use><use xlink:href="#19" y="4.342"></use></svg><svg x="1600"><use xlink:href="#a"></use><use xlink:href="#b" x="-0.0040000000000000036" y="8.658999999999999"></use><use xlink:href="#21" y="0"></use><use xlink:href="#22" y="2.171"></use><use xlink:href="#21" y="4.342"></use></svg><svg x="1680"><use xlink:href="#a"></use><use xlink:href="#b" x="-0.0040000000000000036" y="8.658999999999999"></use><use xlink:href="#23" y="0"></use><use xlink:href="#24" y="2.171"></use><use xlink:href="#23" y="4.342"></use></svg><svg x="1760"><use xlink:href="#a"></use><use xlink:href="#b" x="-0.0040000000000000036" y="6.4879999999999995"></use><use xlink:href="#25" y="0"></use><use xlink:href="#26" y="2.171"></use><use xlink:href="#25" y="4.342"></use></svg><svg x="1840"><use xlink:href="#a"></use><use xlink:href="#b" x="-0.0040000000000000036" y="8.658999999999999"></use><use xlink:href="#25" y="0"></use><use xlink:href="#26" y="2.171"></use><use xlink:href="#25" y="4.342"></use></svg><svg x="1920"><use xlink:href="#a"></use><use xlink:href="#b" x="-0.0040000000000000036" y="8.658999999999999"></use><use xlink:href="#27" y="0"></use><use xlink:href="#28" y="2.171"></use><use xlink:href="#27" y="4.342"></use></svg><svg x="2000"><use xlink:href="#a"></use><use xlink:href="#b" x="-0.0040000000000000036" y="8.658999999999999"></use><use xlink:href="#29" y="0"></use><use xlink:href="#30" y="2.171"></use><use xlink:href="#29" y="4.342"></use></svg><svg x="2080"><use xlink:href="#a"></use><use xlink:href="#b" x="-0.0040000000000000036" y="8.658999999999999"></use><use xlink:href="#31" y="0"></use><use xlink:href="#32" y="2.171"></use><use xlink:href="#31" y="4.342"></use></svg><svg x="2160"><use xlink:href="#a"></use><use xlink:href="#b" x="-0.0040000000000000036" y="8.658999999999999"></use><use xlink:href="#33" y="0"></use><use xlink:href="#34" y="2.171"></use><use xlink:href="#33" y="4.342"></use></svg><svg x="2240"><use xlink:href="#a"></use><use xlink:href="#b" x="-0.0040000000000000036" y="8.658999999999999"></use><use xlink:href="#35" y="0"></use><rect height="2.171" width="58" x="0" y="2.171" class="u"></rect><text x="0" y="3.8409999999999997" class="r">               Everything can be customized               </text><use xlink:href="#35" y="4.342"></use></svg><svg x="2320"><use xlink:href="#a"></use><use xlink:href="#b" x="-0.0040000000000000036" y="8.658999999999999"></use><use xlink:href="#33" y="0"></use><use xlink:href="#34" y="2.171"></use><use xlink:href="#33" y="4.342"></use></svg><svg x="2400"><use xlink:href="#a"></use><use xlink:href="#b" x="-0.0040000000000000036" y="8.658999999999999"></use><use xlink:href="#31" y="0"></use><use xlink:href="#32" y="2.171"></use><use xlink:href="#31" y="4.342"></use></svg><svg x="2480"><use xlink:href="#a"></use><use xlink:href="#b" x="-0.0040000000000000036" y="8.658999999999999"></use><use xlink:href="#29" y="0"></use><use xlink:href="#30" y="2.171"></use><use xlink:href="#29" y="4.342"></use></svg><svg x="2560"><use xlink:href="#a"></use><use xlink:href="#b" x="-0.0040000000000000036" y="8.658999999999999"></use><use xlink:href="#27" y="0"></use><use xlink:href="#28" y="2.171"></use><use xlink:href="#27" y="4.342"></use></svg><svg x="2640"><use xlink:href="#a"></use><use xlink:href="#b" x="-0.0040000000000000036" y="8.658999999999999"></use><use xlink:href="#25" y="0"></use><use xlink:href="#26" y="2.171"></use><use xlink:href="#25" y="4.342"></use></svg><svg x="2720"><use xlink:href="#a"></use><use xlink:href="#b" x="-0.0040000000000000036" y="8.658999999999999"></use><use xlink:href="#23" y="0"></use><use xlink:href="#24" y="2.171"></use><use xlink:href="#23" y="4.342"></use></svg><svg x="2800"><use xlink:href="#a"></use><use xlink:href="#b" x="-0.0040000000000000036" y="8.658999999999999"></use><use xlink:href="#21" y="0"></use><use xlink:href="#22" y="2.171"></use><use xlink:href="#21" y="4.342"></use></svg><svg x="2880"><use xlink:href="#a"></use><use xlink:href="#b" x="-0.0040000000000000036" y="8.658999999999999"></use><use xlink:href="#19" y="0"></use><use xlink:href="#20" y="2.171"></use><use xlink:href="#19" y="4.342"></use></svg><svg x="2960"><use xlink:href="#a"></use><use xlink:href="#b" x="-0.0040000000000000036" y="8.658999999999999"></use><use xlink:href="#17" y="0"></use><use xlink:href="#18" y="2.171"></use><use xlink:href="#17" y="4.342"></use></svg><svg x="3040"><use xlink:href="#a"></use><use xlink:href="#b" x="-0.0040000000000000036" y="8.658999999999999"></use><use xlink:href="#15" y="0"></use><use xlink:href="#16" y="2.171"></use><use xlink:href="#15" y="4.342"></use></svg><svg x="3120"><use xlink:href="#a"></use><use xlink:href="#b" x="-0.0040000000000000036" y="8.658999999999999"></use><use xlink:href="#36" y="0"></use><rect height="2.171" width="36" x="0" y="2.171" class="u"></rect><text x="0" y="3.8409999999999997" class="r">    Everything can be customized    </text><use xlink:href="#36" y="4.342"></use></svg><svg x="3200"><use xlink:href="#a"></use><use xlink:href="#b" x="-0.0040000000000000036" y="8.658999999999999"></use><use xlink:href="#37" y="0"></use><rect height="2.171" width="34" x="0" y="2.171" class="u"></rect><text x="0" y="3.8409999999999997" class="r">   Everything can be customized   </text><use xlink:href="#37" y="4.342"></use></svg><svg x="3280"><use xlink:href="#a"></use><use xlink:href="#b" x="-0.0040000000000000036" y="8.658999999999999"></use><use xlink:href="#38" y="0"></use><rect height="2.171" width="32" x="0" y="2.171" class="u"></rect><text x="0" y="3.8409999999999997" class="r">  Everything can be customized  </text><use xlink:href="#38" y="4.342"></use></svg><svg x="3360"><use xlink:href="#a"></use><use xlink:href="#b" x="-0.0040000000000000036" y="8.658999999999999"></use><use xlink:href="#39" y="0"></use><use xlink:href="#40" y="2.171"></use><use xlink:href="#39" y="4.342"></use></svg><svg x="3440"><use xlink:href="#a"></use><use xlink:href="#b" x="-0.0040000000000000036" y="13.001"></use><use xlink:href="#39" y="0"></use><use xlink:href="#40" y="2.171"></use><use xlink:href="#39" y="4.342"></use><text x="0" y="12.525" class="g">restarting...</text></svg></svg></g></g></svg></svg>