<svg xmlns="http://www.w3.org/2000/svg" xmlns:xlink="http://www.w3.org/1999/xlink" width="840" height="581.04"><rect width="840" height="581.04" rx="5" ry="5" class="a"></rect><svg y="0%" x="0%"><circle cx="20" cy="20" r="6" class="b"></circle><circle cx="40" cy="20" r="6" class="c"></circle><circle cx="60" cy="20" r="6" class="d"></circle></svg><svg height="521.04" viewBox="0 0 80 52.104" width="800" x="15" xmlns="http://www.w3.org/2000/svg" xmlns:xlink="http://www.w3.org/1999/xlink" y="50"><style>.a{fill:rgb(40,45,53)}.b{fill:#ff5f58}.c{fill:#ffbd2e}.d{fill:#18c132}.e{font-family:Monaco,Consolas,Menlo,'Bitstream Vera Sans Mono','Powerline Symbols',monospace}.f{fill:rgb(168,204,140)}.g{fill:rgb(255,255,255);white-space:pre}.h{fill:rgb(168,204,140);white-space:pre}.i{fill:rgb(185,191,202)}.j{fill:rgb(210,144,227);font-weight:bold;white-space:pre}.k{fill:rgb(102,194,205)}.l{fill:rgb(102,194,205);white-space:pre}.m{fill:rgb(219,171,121)}.n{fill:rgb(219,171,121);white-space:pre}.o{fill:rgb(232,131,136)}.p{fill:rgb(232,131,136);white-space:pre}.q{fill:rgb(111,119,131)}.r{fill:transparent}.s{fill:rgb(111,118,131)}.u{animation-duration:5s;animation-iteration-count:infinite;animation-name:t;animation-timing-function:steps(1,end)}.v{fill:rgb(113,190,242)}.w{fill:rgb(185,192,203);white-space:pre}@keyframes t{0%{transform:translateX(-0px)}5.6%{transform:translateX(-80px)}25.6%{transform:translateX(-160px)}25.6%{transform:translateX(-240px)}45.6%{transform:translateX(-320px)}45.6%{transform:translateX(-400px)}65.6%{transform:translateX(-480px)}85.6%{transform:translateX(-560px)}85.6%{transform:translateX(-640px)}100%{transform:translateX(-720px)}}</style><g font-family="Monaco, Consolas, Menlo, &#x27;Bitstream Vera Sans Mono&#x27;, &#x27;Powerline Symbols&#x27;, monospace" font-size="1.67" class="e"><defs><symbol id="1"><rect height="2.171" width="9" x="0" y="0" class="f"></rect><text x="0" y="1.67" class="g"> SUCCESS </text><text x="10.02" y="1.67" class="h">This</text><text x="15.029999999999998" y="1.67" class="h">is</text><text x="18.035999999999998" y="1.67" class="h">the</text><text x="22.043999999999997" y="1.67" class="h">default</text><text x="30.059999999999995" y="1.67" class="h">SUCCESS</text><text x="38.07599999999999" y="1.67" class="h">printer.</text></symbol><symbol id="2"><rect height="2.171" width="18" x="0" y="0" class="f"></rect><text x="0" y="1.67" class="g"> SUCCESS  (scope) </text><text x="19.037999999999997" y="1.67" class="h">This</text><text x="24.048" y="1.67" class="h">is</text><text x="27.054" y="1.67" class="h">the</text><text x="31.061999999999998" y="1.67" class="h">SUCCESS</text><text x="39.077999999999996" y="1.67" class="h">printer</text><text x="47.093999999999994" y="1.67" class="h">with</text><text x="52.104" y="1.67" class="h">a</text><text x="54.108" y="1.67" class="h">scope.</text></symbol><symbol id="3"><rect height="2.171" width="9" x="0" y="0" class="f"></rect><text x="0" y="1.67" class="g"> SUCCESS </text><rect height="2.171" width="10" x="9.017999999999999" y="0" class="i"></rect><text x="9.017999999999999" y="1.67" class="j"> (custom) </text><text x="20.04" y="1.67" class="h">This</text><text x="25.05" y="1.67" class="h">is</text><text x="28.055999999999997" y="1.67" class="h">the</text><text x="32.064" y="1.67" class="h">SUCCESS</text><text x="40.08" y="1.67" class="h">printer</text><text x="48.096" y="1.67" class="h">with</text><text x="53.105999999999995" y="1.67" class="h">a</text><text x="55.10999999999999" y="1.67" class="h">custom</text><text x="62.123999999999995" y="1.67" class="h">scope</text><text x="68.136" y="1.67" class="h">style.</text></symbol><symbol id="4"><rect height="2.171" width="6" x="0" y="0" class="k"></rect><text x="0" y="1.67" class="g"> INFO </text><text x="7.013999999999999" y="1.67" class="l">This</text><text x="12.024" y="1.67" class="l">is</text><text x="15.029999999999998" y="1.67" class="l">the</text><text x="19.037999999999997" y="1.67" class="l">default</text><text x="27.054" y="1.67" class="l">INFO</text><text x="32.064" y="1.67" class="l">printer.</text></symbol><symbol id="5"><rect height="2.171" width="15" x="0" y="0" class="k"></rect><text x="0" y="1.67" class="g"> INFO  (scope) </text><text x="16.032" y="1.67" class="l">This</text><text x="21.041999999999998" y="1.67" class="l">is</text><text x="24.048" y="1.67" class="l">the</text><text x="28.055999999999997" y="1.67" class="l">INFO</text><text x="33.065999999999995" y="1.67" class="l">printer</text><text x="41.082" y="1.67" class="l">with</text><text x="46.09199999999999" y="1.67" class="l">a</text><text x="48.096" y="1.67" class="l">scope.</text></symbol><symbol id="6"><rect height="2.171" width="6" x="0" y="0" class="k"></rect><text x="0" y="1.67" class="g"> INFO </text><rect height="2.171" width="10" x="6.012" y="0" class="i"></rect><text x="6.012" y="1.67" class="j"> (custom) </text><text x="17.034" y="1.67" class="l">This</text><text x="22.043999999999997" y="1.67" class="l">is</text><text x="25.05" y="1.67" class="l">the</text><text x="29.058" y="1.67" class="l">INFO</text><text x="34.068" y="1.67" class="l">printer</text><text x="42.083999999999996" y="1.67" class="l">with</text><text x="47.093999999999994" y="1.67" class="l">a</text><text x="49.098" y="1.67" class="l">custom</text><text x="56.111999999999995" y="1.67" class="l">scope</text><text x="62.123999999999995" y="1.67" class="l">style.</text></symbol><symbol id="7"><rect height="2.171" width="9" x="0" y="0" class="m"></rect><text x="0" y="1.67" class="g"> WARNING </text><text x="10.02" y="1.67" class="n">This</text><text x="15.029999999999998" y="1.67" class="n">is</text><text x="18.035999999999998" y="1.67" class="n">the</text><text x="22.043999999999997" y="1.67" class="n">default</text><text x="30.059999999999995" y="1.67" class="n">WARNING</text><text x="38.07599999999999" y="1.67" class="n">printer.</text></symbol><symbol id="8"><rect height="2.171" width="18" x="0" y="0" class="m"></rect><text x="0" y="1.67" class="g"> WARNING  (scope) </text><text x="19.037999999999997" y="1.67" class="n">This</text><text x="24.048" y="1.67" class="n">is</text><text x="27.054" y="1.67" class="n">the</text><text x="31.061999999999998" y="1.67" class="n">WARNING</text><text x="39.077999999999996" y="1.67" class="n">printer</text><text x="47.093999999999994" y="1.67" class="n">with</text><text x="52.104" y="1.67" class="n">a</text><text x="54.108" y="1.67" class="n">scope.</text></symbol><symbol id="9"><rect height="2.171" width="9" x="0" y="0" class="m"></rect><text x="0" y="1.67" class="g"> WARNING </text><rect height="2.171" width="10" x="9.017999999999999" y="0" class="i"></rect><text x="9.017999999999999" y="1.67" class="j"> (custom) </text><text x="20.04" y="1.67" class="n">This</text><text x="25.05" y="1.67" class="n">is</text><text x="28.055999999999997" y="1.67" class="n">the</text><text x="32.064" y="1.67" class="n">WARNING</text><text x="40.08" y="1.67" class="n">printer</text><text x="48.096" y="1.67" class="n">with</text><text x="53.105999999999995" y="1.67" class="n">a</text><text x="55.10999999999999" y="1.67" class="n">custom</text><text x="62.123999999999995" y="1.67" class="n">scope</text><text x="68.136" y="1.67" class="n">style.</text></symbol><symbol id="10"><rect height="2.171" width="7" x="0" y="0" class="o"></rect><text x="0" y="1.67" class="g"> ERROR </text><text x="8.016" y="1.67" class="p">This</text><text x="13.026" y="1.67" class="p">is</text><text x="16.032" y="1.67" class="p">the</text><text x="20.04" y="1.67" class="p">default</text><text x="28.055999999999997" y="1.67" class="p">ERROR</text><text x="34.068" y="1.67" class="p">printer.</text></symbol><symbol id="11"><rect height="2.171" width="16" x="0" y="0" class="o"></rect><text x="0" y="1.67" class="g"> ERROR  (scope) </text><text x="17.034" y="1.67" class="p">This</text><text x="22.043999999999997" y="1.67" class="p">is</text><text x="25.05" y="1.67" class="p">the</text><text x="29.058" y="1.67" class="p">ERROR</text><text x="35.06999999999999" y="1.67" class="p">printer</text><text x="43.086" y="1.67" class="p">with</text><text x="48.096" y="1.67" class="p">a</text><text x="50.1" y="1.67" class="p">scope.</text></symbol><symbol id="12"><rect height="2.171" width="7" x="0" y="0" class="o"></rect><text x="0" y="1.67" class="g"> ERROR </text><rect height="2.171" width="10" x="7.013999999999999" y="0" class="i"></rect><text x="7.013999999999999" y="1.67" class="j"> (custom) </text><text x="18.035999999999998" y="1.67" class="p">This</text><text x="23.045999999999996" y="1.67" class="p">is</text><text x="26.052" y="1.67" class="p">the</text><text x="30.059999999999995" y="1.67" class="p">ERROR</text><text x="36.071999999999996" y="1.67" class="p">printer</text><text x="44.087999999999994" y="1.67" class="p">with</text><text x="49.098" y="1.67" class="p">a</text><text x="51.102" y="1.67" class="p">custom</text><text x="58.116" y="1.67" class="p">scope</text><text x="64.128" y="1.67" class="p">style.</text></symbol><symbol id="13"><rect height="2.171" width="54" x="0" y="0" class="q"></rect><text x="0" y="1.67" class="g"> Description  This is the default Description printer.</text></symbol><symbol id="14"><rect height="2.171" width="68" x="0" y="0" class="q"></rect><text x="0" y="1.67" class="g"> Description  (scope)  This is the Description printer with a scope.</text></symbol><symbol id="15"><rect height="2.171" width="13" x="0" y="0" class="q"></rect><text x="0" y="1.67" class="g"> Description </text><rect height="2.171" width="10" x="13.026" y="0" class="i"></rect><text x="13.026" y="1.67" class="j"> (custom) </text><rect height="2.171" width="57" x="23.045999999999996" y="0" class="q"></rect><text x="23.045999999999996" y="1.67" class="g"> This is the Description printer with a custom scope styl</text></symbol><symbol id="16"><rect height="2.171" width="2" x="0" y="0" class="q"></rect><text x="0" y="1.67" class="g">e.</text></symbol><symbol id="a"><rect height="24" width="80" x="0" y="0" class="r"></rect></symbol><symbol id="b"><rect height="2.171" width="1.1022" class="s"></rect></symbol></defs><rect height="52.104" width="80" class="a"></rect><g class="u"><svg x="0" y="0" width="800"><svg x="0"><use xlink:href="#a"></use><use xlink:href="#b" x="-0.0040000000000000036" y="0"></use></svg><svg x="80"><use xlink:href="#a"></use><use xlink:href="#b" x="-0.0040000000000000036" y="6.4879999999999995"></use><use xlink:href="#1" y="0"></use><use xlink:href="#2" y="2.171"></use><use xlink:href="#3" y="4.342"></use></svg><svg x="160"><use xlink:href="#a"></use><use xlink:href="#b" x="-0.0040000000000000036" y="8.658999999999999"></use><use xlink:href="#1" y="0"></use><use xlink:href="#2" y="2.171"></use><use xlink:href="#3" y="4.342"></use></svg><svg x="240"><use xlink:href="#a"></use><use xlink:href="#b" x="-0.0040000000000000036" y="15.171999999999999"></use><use xlink:href="#1" y="0"></use><use xlink:href="#2" y="2.171"></use><use xlink:href="#3" y="4.342"></use><use xlink:href="#4" y="8.684"></use><use xlink:href="#5" y="10.855"></use><use xlink:href="#6" y="13.026"></use></svg><svg x="320"><use xlink:href="#a"></use><use xlink:href="#b" x="-0.0040000000000000036" y="17.343"></use><use xlink:href="#1" y="0"></use><use xlink:href="#2" y="2.171"></use><use xlink:href="#3" y="4.342"></use><use xlink:href="#4" y="8.684"></use><use xlink:href="#5" y="10.855"></use><use xlink:href="#6" y="13.026"></use></svg><svg x="400"><use xlink:href="#a"></use><use xlink:href="#b" x="-0.0040000000000000036" y="23.855999999999998"></use><use xlink:href="#1" y="0"></use><use xlink:href="#2" y="2.171"></use><use xlink:href="#3" y="4.342"></use><use xlink:href="#4" y="8.684"></use><use xlink:href="#5" y="10.855"></use><use xlink:href="#6" y="13.026"></use><use xlink:href="#7" y="17.368"></use><use xlink:href="#8" y="19.539"></use><use xlink:href="#9" y="21.71"></use></svg><svg x="480"><use xlink:href="#a"></use><use xlink:href="#b" x="-0.0040000000000000036" y="32.54"></use><use xlink:href="#1" y="0"></use><use xlink:href="#2" y="2.171"></use><use xlink:href="#3" y="4.342"></use><use xlink:href="#4" y="8.684"></use><use xlink:href="#5" y="10.855"></use><use xlink:href="#6" y="13.026"></use><use xlink:href="#7" y="17.368"></use><use xlink:href="#8" y="19.539"></use><use xlink:href="#9" y="21.71"></use><use xlink:href="#10" y="26.052"></use><use xlink:href="#11" y="28.223000000000003"></use><use xlink:href="#12" y="30.394"></use></svg><svg x="560"><use xlink:href="#a"></use><use xlink:href="#b" x="-0.0040000000000000036" y="36.882000000000005"></use><use xlink:href="#1" y="0"></use><use xlink:href="#2" y="2.171"></use><use xlink:href="#3" y="4.342"></use><use xlink:href="#4" y="8.684"></use><use xlink:href="#5" y="10.855"></use><use xlink:href="#6" y="13.026"></use><use xlink:href="#7" y="17.368"></use><use xlink:href="#8" y="19.539"></use><use xlink:href="#9" y="21.71"></use><use xlink:href="#10" y="26.052"></use><use xlink:href="#11" y="28.223000000000003"></use><use xlink:href="#12" y="30.394"></use><use xlink:href="#13" y="34.736"></use></svg><svg x="640"><use xlink:href="#a"></use><use xlink:href="#b" x="-0.0040000000000000036" y="43.395"></use><use xlink:href="#1" y="0"></use><use xlink:href="#2" y="2.171"></use><use xlink:href="#3" y="4.342"></use><use xlink:href="#4" y="8.684"></use><use xlink:href="#5" y="10.855"></use><use xlink:href="#6" y="13.026"></use><use xlink:href="#7" y="17.368"></use><use xlink:href="#8" y="19.539"></use><use xlink:href="#9" y="21.71"></use><use xlink:href="#10" y="26.052"></use><use xlink:href="#11" y="28.223000000000003"></use><use xlink:href="#12" y="30.394"></use><use xlink:href="#13" y="34.736"></use><use xlink:href="#14" y="36.907000000000004"></use><use xlink:href="#15" y="39.078"></use><use xlink:href="#16" y="41.248999999999995"></use></svg><svg x="720"><use xlink:href="#a"></use><use xlink:href="#b" x="-0.0040000000000000036" y="49.908"></use><use xlink:href="#2" y="0"></use><use xlink:href="#3" y="2.171"></use><use xlink:href="#4" y="6.513"></use><use xlink:href="#5" y="8.684"></use><use xlink:href="#6" y="10.855"></use><use xlink:href="#7" y="15.197"></use><use xlink:href="#8" y="17.368"></use><use xlink:href="#9" y="19.539"></use><use xlink:href="#10" y="23.880999999999997"></use><use xlink:href="#11" y="26.052"></use><use xlink:href="#12" y="28.223000000000003"></use><use xlink:href="#13" y="32.565"></use><use xlink:href="#14" y="34.736"></use><use xlink:href="#15" y="36.907000000000004"></use><use xlink:href="#16" y="39.078"></use><rect height="2.171" width="8" x="0" y="43.42" class="v"></rect><text x="0" y="45.09" class="p"> CUSTOM </text><text x="9.017999999999999" y="45.09" class="w">This</text><text x="14.027999999999999" y="45.09" class="w">is</text><text x="17.034" y="45.09" class="w">a</text><text x="19.037999999999997" y="45.09" class="w">custom</text><text x="26.052" y="45.09" class="w">PrefixPrinter</text><text x="40.08" y="45.09" class="w">:)</text><text x="0" y="49.431999999999995" class="w">restarting...</text></svg></svg></g></g></svg></svg>