<svg xmlns="http://www.w3.org/2000/svg" xmlns:xlink="http://www.w3.org/1999/xlink" width="840" height="581.04"><rect width="840" height="581.04" rx="5" ry="5" class="a"></rect><svg y="0%" x="0%"><circle cx="20" cy="20" r="6" class="b"></circle><circle cx="40" cy="20" r="6" class="c"></circle><circle cx="60" cy="20" r="6" class="d"></circle></svg><svg height="521.04" viewBox="0 0 80 52.104" width="800" x="15" xmlns="http://www.w3.org/2000/svg" xmlns:xlink="http://www.w3.org/1999/xlink" y="50"><style>.a{fill:rgb(40,45,53)}.b{fill:#ff5f58}.c{fill:#ffbd2e}.d{fill:#18c132}.e{font-family:Monaco,Consolas,Menlo,'Bitstream Vera Sans Mono','Powerline Symbols',monospace}.f{fill:rgb(185,192,203);white-space:pre}.g{fill:transparent}.h{fill:rgb(111,118,131)}.j{animation-duration:5.474741s;animation-iteration-count:infinite;animation-name:i;animation-timing-function:steps(1,end)}@keyframes i{0%{transform:translateX(-0px)}8.5%{transform:translateX(-80px)}8.7%{transform:translateX(-160px)}100%{transform:translateX(-240px)}}</style><g font-family="Monaco, Consolas, Menlo, &#x27;Bitstream Vera Sans Mono&#x27;, &#x27;Powerline Symbols&#x27;, monospace" font-size="1.67" class="e"><defs><symbol id="1"><text x="0" y="1.67" class="f">#</text><text x="2.004" y="1.67" class="f">github.com/pterm/pterm/_examples/demo</text></symbol><symbol id="2"><text x="0" y="1.67" class="f">_examples/demo/main.go:10:2:</text><text x="29.058" y="1.67" class="f">undefined:</text><text x="40.08" y="1.67" class="f">pterm.PrintHeader</text></symbol><symbol id="3"><text x="0" y="1.67" class="f">_examples/demo/main.go:20:2:</text><text x="29.058" y="1.67" class="f">undefined:</text><text x="40.08" y="1.67" class="f">pterm.PrintSuccess</text></symbol><symbol id="4"><text x="0" y="1.67" class="f">_examples/demo/main.go:24:2:</text><text x="29.058" y="1.67" class="f">undefined:</text><text x="40.08" y="1.67" class="f">pterm.PrintInfo</text></symbol><symbol id="5"><text x="0" y="1.67" class="f">_examples/demo/main.go:28:2:</text><text x="29.058" y="1.67" class="f">undefined:</text><text x="40.08" y="1.67" class="f">pterm.PrintError</text></symbol><symbol id="6"><text x="0" y="1.67" class="f">_examples/demo/main.go:32:2:</text><text x="29.058" y="1.67" class="f">undefined:</text><text x="40.08" y="1.67" class="f">pterm.PrintWarning</text></symbol><symbol id="7"><text x="0" y="1.67" class="f">_examples/demo/main.go:36:2:</text><text x="29.058" y="1.67" class="f">undefined:</text><text x="40.08" y="1.67" class="f">pterm.PrintDescription</text></symbol><symbol id="8"><text x="0" y="1.67" class="f">_examples/demo/main.go:57:2:</text><text x="29.058" y="1.67" class="f">undefined:</text><text x="40.08" y="1.67" class="f">pterm.PrintHeader</text></symbol><symbol id="9"><text x="0" y="1.67" class="f">note:</text><text x="6.012" y="1.67" class="f">module</text><text x="13.026" y="1.67" class="f">requires</text><text x="22.043999999999997" y="1.67" class="f">Go</text><text x="25.05" y="1.67" class="f">1.15</text></symbol><symbol id="a"><rect height="24" width="80" x="0" y="0" class="g"></rect></symbol><symbol id="b"><rect height="2.171" width="1.1022" class="h"></rect></symbol></defs><rect height="52.104" width="80" class="a"></rect><g class="j"><svg x="0" y="0" width="320"><svg x="0"><use xlink:href="#a"></use><use xlink:href="#b" x="-0.0040000000000000036" y="0"></use></svg><svg x="80"><use xlink:href="#a"></use><use xlink:href="#b" x="38.996" y="0"></use><use xlink:href="#1" y="0"></use></svg><svg x="160"><use xlink:href="#a"></use><use xlink:href="#b" x="-0.0040000000000000036" y="19.514000000000003"></use><use xlink:href="#1" y="0"></use><use xlink:href="#2" y="2.171"></use><use xlink:href="#3" y="4.342"></use><use xlink:href="#4" y="6.513"></use><use xlink:href="#5" y="8.684"></use><use xlink:href="#6" y="10.855"></use><use xlink:href="#7" y="13.026"></use><use xlink:href="#8" y="15.197"></use><use xlink:href="#9" y="17.368"></use></svg><svg x="240"><use xlink:href="#a"></use><use xlink:href="#b" x="-0.0040000000000000036" y="23.855999999999998"></use><use xlink:href="#1" y="0"></use><use xlink:href="#2" y="2.171"></use><use xlink:href="#3" y="4.342"></use><use xlink:href="#4" y="6.513"></use><use xlink:href="#5" y="8.684"></use><use xlink:href="#6" y="10.855"></use><use xlink:href="#7" y="13.026"></use><use xlink:href="#8" y="15.197"></use><use xlink:href="#9" y="17.368"></use><text x="0" y="23.380000000000003" class="f">restarting...</text></svg></svg></g></g></svg></svg>