<svg xmlns="http://www.w3.org/2000/svg" xmlns:xlink="http://www.w3.org/1999/xlink" width="840" height="581.04"><rect width="840" height="581.04" rx="5" ry="5" class="a"></rect><svg y="0%" x="0%"><circle cx="20" cy="20" r="6" class="b"></circle><circle cx="40" cy="20" r="6" class="c"></circle><circle cx="60" cy="20" r="6" class="d"></circle></svg><svg height="521.04" viewBox="0 0 80 52.104" width="800" x="15" xmlns="http://www.w3.org/2000/svg" xmlns:xlink="http://www.w3.org/1999/xlink" y="50"><style>.e, .g, .f {
	font-family:
			'Courier New'
			Roboto,
			Helvetica,
			Arial,
			sans-serif,
			'Apple Color Emoji',
			'Segoe UI Emoji' !important;
}.a{fill:rgb(35,35,35)}.b{fill:#ff5f58}.c{fill:#ffbd2e}.d{fill:#18c132}.e{font-family:'Courier New',Monaco,Consolas,Menlo,'Bitstream Vera Sans Mono','Powerline Symbols',monospace}.f{fill:rgb(160,160,160);white-space:pre}.g{fill:rgb(243,86,86);white-space:pre}.h{fill:transparent}.j{animation-duration:5.552251s;animation-iteration-count:infinite;animation-name:i;animation-timing-function:steps(1,end)}@keyframes i{0%{transform:translateX(-0px)}8.8%{transform:translateX(-80px)}9.9%{transform:translateX(-160px)}9.9%{transform:translateX(-240px)}100%{transform:translateX(-320px)}}</style><g font-family="'Courier New',Monaco, Consolas, Menlo, &#x27;Bitstream Vera Sans Mono&#x27;, &#x27;Powerline Symbols&#x27;, monospace" font-size="1.67" class="e"><defs><symbol id="1"><text x="0" y="1.67" class="f">┌─</text><text x="3.006" y="1.67" class="g">I&#x27;m</text><text x="7.013999999999999" y="1.67" class="g">a</text><text x="9.017999999999999" y="1.67" class="g">box!</text><text x="14.027999999999999" y="1.67" class="f">────────┐</text><text x="24.048" y="1.67" class="f">┌────</text><text x="30.059999999999995" y="1.67" class="g">I&#x27;m</text><text x="34.068" y="1.67" class="g">a</text><text x="36.071999999999996" y="1.67" class="g">box!</text><text x="41.082" y="1.67" class="f">─────┐</text><text x="48.096" y="1.67" class="f">┌────────</text><text x="58.116" y="1.67" class="g">I&#x27;m</text><text x="62.123999999999995" y="1.67" class="g">a</text><text x="64.128" y="1.67" class="g">box!</text><text x="69.13799999999999" y="1.67" class="f">─┐</text></symbol><symbol id="2"><text x="0" y="1.67" class="f">|</text><text x="22.043999999999997" y="1.67" class="f">|</text><text x="24.048" y="1.67" class="f">|</text><text x="46.09199999999999" y="1.67" class="f">|</text><text x="48.096" y="1.67" class="f">|</text><text x="70.13999999999999" y="1.67" class="f">|</text></symbol><symbol id="3"><text x="0" y="1.67" class="f">|</text><text x="5.01" y="1.67" class="f">Hello,</text><text x="12.024" y="1.67" class="f">World!</text><text x="22.043999999999997" y="1.67" class="f">|</text><text x="24.048" y="1.67" class="f">|</text><text x="29.058" y="1.67" class="f">Hello,</text><text x="36.071999999999996" y="1.67" class="f">World!</text><text x="46.09199999999999" y="1.67" class="f">|</text><text x="48.096" y="1.67" class="f">|</text><text x="53.105999999999995" y="1.67" class="f">Hello,</text><text x="60.11999999999999" y="1.67" class="f">World!</text><text x="70.13999999999999" y="1.67" class="f">|</text></symbol><symbol id="4"><text x="0" y="1.67" class="f">|</text><text x="11.021999999999998" y="1.67" class="f">1</text><text x="22.043999999999997" y="1.67" class="f">|</text><text x="24.048" y="1.67" class="f">|</text><text x="35.06999999999999" y="1.67" class="f">2</text><text x="46.09199999999999" y="1.67" class="f">|</text><text x="48.096" y="1.67" class="f">|</text><text x="59.117999999999995" y="1.67" class="f">3</text><text x="70.13999999999999" y="1.67" class="f">|</text></symbol><symbol id="5"><text x="0" y="1.67" class="f">└─────────────────────┘</text><text x="24.048" y="1.67" class="f">└─────────────────────┘</text><text x="48.096" y="1.67" class="f">└─────────────────────┘</text></symbol><symbol id="6"><text x="0" y="1.67" class="f">┌─────────────────────┐</text><text x="24.048" y="1.67" class="f">┌─────────────────────┐</text><text x="48.096" y="1.67" class="f">┌─────────────────────┐</text></symbol><symbol id="7"><text x="0" y="1.67" class="f">|</text><text x="11.021999999999998" y="1.67" class="f">4</text><text x="22.043999999999997" y="1.67" class="f">|</text><text x="24.048" y="1.67" class="f">|</text><text x="35.06999999999999" y="1.67" class="f">5</text><text x="46.09199999999999" y="1.67" class="f">|</text><text x="48.096" y="1.67" class="f">|</text><text x="59.117999999999995" y="1.67" class="f">6</text><text x="70.13999999999999" y="1.67" class="f">|</text></symbol><symbol id="8"><text x="0" y="1.67" class="f">└────────</text><text x="10.02" y="1.67" class="g">I&#x27;m</text><text x="14.027999999999999" y="1.67" class="g">a</text><text x="16.032" y="1.67" class="g">box!</text><text x="21.041999999999998" y="1.67" class="f">─┘</text><text x="24.048" y="1.67" class="f">└────</text><text x="30.059999999999995" y="1.67" class="g">I&#x27;m</text><text x="34.068" y="1.67" class="g">a</text><text x="36.071999999999996" y="1.67" class="g">box!</text><text x="41.082" y="1.67" class="f">─────┘</text><text x="48.096" y="1.67" class="f">└─</text><text x="51.102" y="1.67" class="g">I&#x27;m</text><text x="55.10999999999999" y="1.67" class="g">a</text><text x="57.114" y="1.67" class="g">box!</text><text x="62.123999999999995" y="1.67" class="f">────────┘</text></symbol><symbol id="9"><text x="0" y="1.67" class="f">┌─</text><text x="3.006" y="1.67" class="g">I&#x27;m</text><text x="7.013999999999999" y="1.67" class="g">a</text><text x="9.017999999999999" y="1.67" class="g">box!</text><text x="14.027999999999999" y="1.67" class="f">────────┐</text></symbol><symbol id="10"><text x="0" y="1.67" class="f">|</text><text x="22.043999999999997" y="1.67" class="f">|</text></symbol><symbol id="11"><text x="0" y="1.67" class="f">|</text><text x="5.01" y="1.67" class="f">Hello,</text><text x="12.024" y="1.67" class="f">World!</text><text x="22.043999999999997" y="1.67" class="f">|</text></symbol><symbol id="12"><text x="0" y="1.67" class="f">|</text><text x="11.021999999999998" y="1.67" class="f">7</text><text x="22.043999999999997" y="1.67" class="f">|</text></symbol><symbol id="13"><text x="0" y="1.67" class="f">└─────────────────────┘</text></symbol><symbol id="a"><rect height="24" width="80" x="0" y="0" class="h"></rect></symbol></defs><rect height="52.104" width="80" class="a"></rect><g class="j"><svg x="0" y="0" width="400"><svg x="0"><use xlink:href="#a"></use></svg><svg x="80"><use xlink:href="#a"></use><use xlink:href="#1" y="0"></use><use xlink:href="#2" y="2.171"></use><use xlink:href="#3" y="4.342"></use></svg><svg x="160"><use xlink:href="#a"></use><use xlink:href="#1" y="0"></use><use xlink:href="#2" y="2.171"></use><use xlink:href="#3" y="4.342"></use><use xlink:href="#4" y="6.513"></use><use xlink:href="#2" y="8.684"></use><use xlink:href="#5" y="10.855"></use><use xlink:href="#6" y="13.026"></use><use xlink:href="#2" y="15.197"></use><use xlink:href="#3" y="17.368"></use><text x="0" y="21.209000000000003" class="f">|</text><text x="11.021999999999998" y="21.209000000000003" class="f">4</text><text x="22.043999999999997" y="21.209000000000003" class="f">|</text><text x="24.048" y="21.209000000000003" class="f">|</text></svg><svg x="240"><use xlink:href="#a"></use><use xlink:href="#1" y="0"></use><use xlink:href="#2" y="2.171"></use><use xlink:href="#3" y="4.342"></use><use xlink:href="#4" y="6.513"></use><use xlink:href="#2" y="8.684"></use><use xlink:href="#5" y="10.855"></use><use xlink:href="#6" y="13.026"></use><use xlink:href="#2" y="15.197"></use><use xlink:href="#3" y="17.368"></use><use xlink:href="#7" y="19.539"></use><use xlink:href="#2" y="21.71"></use><use xlink:href="#8" y="23.880999999999997"></use><use xlink:href="#9" y="26.052"></use><use xlink:href="#10" y="28.223000000000003"></use><use xlink:href="#11" y="30.394"></use><use xlink:href="#12" y="32.565"></use><use xlink:href="#10" y="34.736"></use><use xlink:href="#13" y="36.907000000000004"></use></svg><svg x="320"><use xlink:href="#a"></use><use xlink:href="#1" y="0"></use><use xlink:href="#2" y="2.171"></use><use xlink:href="#3" y="4.342"></use><use xlink:href="#4" y="6.513"></use><use xlink:href="#2" y="8.684"></use><use xlink:href="#5" y="10.855"></use><use xlink:href="#6" y="13.026"></use><use xlink:href="#2" y="15.197"></use><use xlink:href="#3" y="17.368"></use><use xlink:href="#7" y="19.539"></use><use xlink:href="#2" y="21.71"></use><use xlink:href="#8" y="23.880999999999997"></use><use xlink:href="#9" y="26.052"></use><use xlink:href="#10" y="28.223000000000003"></use><use xlink:href="#11" y="30.394"></use><use xlink:href="#12" y="32.565"></use><use xlink:href="#10" y="34.736"></use><use xlink:href="#13" y="36.907000000000004"></use><text x="0" y="45.09" class="f">Restarting</text><text x="11.021999999999998" y="45.09" class="f">animation...</text></svg></svg></g></g></svg></svg>