<svg xmlns="http://www.w3.org/2000/svg" xmlns:xlink="http://www.w3.org/1999/xlink" width="840" height="581.04"><rect width="840" height="581.04" rx="5" ry="5" class="a"></rect><svg y="0%" x="0%"><circle cx="20" cy="20" r="6" class="b"></circle><circle cx="40" cy="20" r="6" class="c"></circle><circle cx="60" cy="20" r="6" class="d"></circle></svg><svg height="521.04" viewBox="0 0 80 52.104" width="800" x="15" xmlns="http://www.w3.org/2000/svg" xmlns:xlink="http://www.w3.org/1999/xlink" y="50"><style>.e, .g, .f {
	font-family:
			'Courier New'
			Roboto,
			Helvetica,
			Arial,
			sans-serif,
			'Apple Color Emoji',
			'Segoe UI Emoji' !important;
}.a{fill:rgb(35,35,35)}.b{fill:#ff5f58}.c{fill:#ffbd2e}.d{fill:#18c132}.e{font-family:'Courier New',Monaco,Consolas,Menlo,'Bitstream Vera Sans Mono','Powerline Symbols',monospace}.f{fill:rgb(160,160,160);white-space:pre}.g{fill:rgb(126,231,233);white-space:pre}.h{fill:rgb(104,104,104);white-space:pre}.i{fill:transparent}.k{animation-duration:5.203555s;animation-iteration-count:infinite;animation-name:j;animation-timing-function:steps(1,end)}@keyframes j{0%{transform:translateX(-0px)}3.2%{transform:translateX(-80px)}3.6%{transform:translateX(-160px)}3.6%{transform:translateX(-240px)}3.6%{transform:translateX(-320px)}3.6%{transform:translateX(-400px)}3.9%{transform:translateX(-480px)}3.9%{transform:translateX(-560px)}100%{transform:translateX(-640px)}}</style><g font-family="'Courier New',Monaco, Consolas, Menlo, &#x27;Bitstream Vera Sans Mono&#x27;, &#x27;Powerline Symbols&#x27;, monospace" font-size="1.67" class="e"><defs><symbol id="1"><text x="0" y="1.67" class="f">┌───────────────────────────────────────────────────────────────────────────────</text></symbol><symbol id="2"><text x="0" y="1.67" class="f">────┐</text></symbol><symbol id="3"><text x="0" y="1.67" class="f">|</text><text x="2.004" y="1.67" class="g">Firstname</text><text x="12.024" y="1.67" class="h">|</text><text x="14.027999999999999" y="1.67" class="g">Lastname</text><text x="23.045999999999996" y="1.67" class="h">|</text><text x="25.05" y="1.67" class="g">Email</text><text x="62.123999999999995" y="1.67" class="h">|</text><text x="64.128" y="1.67" class="g">Note</text></symbol><symbol id="4"><text x="4.008" y="1.67" class="f">|</text></symbol><symbol id="5"><text x="0" y="1.67" class="f">|</text><text x="2.004" y="1.67" class="f">Paul</text><text x="12.024" y="1.67" class="h">|</text><text x="14.027999999999999" y="1.67" class="f">Dean</text><text x="23.045999999999996" y="1.67" class="h">|</text><text x="25.05" y="1.67" class="f">nisi.dictum.augue@velitAliquam.co.uk</text><text x="62.123999999999995" y="1.67" class="h">|</text></symbol><symbol id="6"><text x="0" y="1.67" class="f">|</text><text x="2.004" y="1.67" class="f">Callie</text><text x="12.024" y="1.67" class="h">|</text><text x="14.027999999999999" y="1.67" class="f">Mckay</text><text x="23.045999999999996" y="1.67" class="h">|</text><text x="25.05" y="1.67" class="f">egestas.nunc.sed@est.com</text><text x="62.123999999999995" y="1.67" class="h">|</text><text x="64.128" y="1.67" class="f">这是一个测试,</text><text x="72.14399999999999" y="1.67" class="f">haha!</text><text x="78.15599999999999" y="1.67" class="f">|</text></symbol><symbol id="7"><text x="0" y="1.67" class="f">|</text><text x="2.004" y="1.67" class="f">Libby</text><text x="12.024" y="1.67" class="h">|</text><text x="14.027999999999999" y="1.67" class="f">Camacho</text><text x="23.045999999999996" y="1.67" class="h">|</text><text x="25.05" y="1.67" class="f">aliquet.lobortis@semper.com</text><text x="62.123999999999995" y="1.67" class="h">|</text><text x="64.128" y="1.67" class="f">just</text><text x="69.13799999999999" y="1.67" class="f">a</text><text x="71.142" y="1.67" class="f">test,</text><text x="77.154" y="1.67" class="f">hey</text></symbol><symbol id="8"><text x="0" y="1.67" class="f">!</text><text x="4.008" y="1.67" class="f">|</text></symbol><symbol id="9"><text x="0" y="1.67" class="f">└───────────────────────────────────────────────────────────────────────────────</text></symbol><symbol id="10"><text x="0" y="1.67" class="f">────┘</text></symbol><symbol id="a"><rect height="24" width="80" x="0" y="0" class="i"></rect></symbol></defs><rect height="52.104" width="80" class="a"></rect><g class="k"><svg x="0" y="0" width="720"><svg x="0"><use xlink:href="#a"></use></svg><svg x="80"><use xlink:href="#a"></use><text x="0" y="1.67" class="f">┌────────────────────────────────────────────────</text></svg><svg x="160"><use xlink:href="#a"></use><use xlink:href="#1" y="0"></use><use xlink:href="#2" y="2.171"></use><use xlink:href="#3" y="4.342"></use></svg><svg x="240"><use xlink:href="#a"></use><use xlink:href="#1" y="0"></use><use xlink:href="#2" y="2.171"></use><use xlink:href="#3" y="4.342"></use><use xlink:href="#4" y="6.513"></use><use xlink:href="#5" y="8.684"></use><use xlink:href="#4" y="10.855"></use><use xlink:href="#6" y="13.026"></use><use xlink:href="#7" y="15.197"></use><use xlink:href="#8" y="17.368"></use><text x="0" y="21.209000000000003" class="f">└──────────────</text></svg><svg x="320"><use xlink:href="#a"></use><use xlink:href="#1" y="0"></use><use xlink:href="#2" y="2.171"></use><use xlink:href="#3" y="4.342"></use><use xlink:href="#4" y="6.513"></use><use xlink:href="#5" y="8.684"></use><use xlink:href="#4" y="10.855"></use><use xlink:href="#6" y="13.026"></use><use xlink:href="#7" y="15.197"></use><use xlink:href="#8" y="17.368"></use><text x="0" y="21.209000000000003" class="f">└──────────────────────────────────────────────────────────────</text></svg><svg x="400"><use xlink:href="#a"></use><use xlink:href="#1" y="0"></use><use xlink:href="#2" y="2.171"></use><use xlink:href="#3" y="4.342"></use><use xlink:href="#4" y="6.513"></use><use xlink:href="#5" y="8.684"></use><use xlink:href="#4" y="10.855"></use><use xlink:href="#6" y="13.026"></use><use xlink:href="#7" y="15.197"></use><use xlink:href="#8" y="17.368"></use><text x="0" y="21.209000000000003" class="f">└───────────────────────────────────────────────────────────────</text></svg><svg x="480"><use xlink:href="#a"></use><use xlink:href="#1" y="0"></use><use xlink:href="#2" y="2.171"></use><use xlink:href="#3" y="4.342"></use><use xlink:href="#4" y="6.513"></use><use xlink:href="#5" y="8.684"></use><use xlink:href="#4" y="10.855"></use><use xlink:href="#6" y="13.026"></use><use xlink:href="#7" y="15.197"></use><use xlink:href="#8" y="17.368"></use><use xlink:href="#9" y="19.539"></use><use xlink:href="#10" y="21.71"></use></svg><svg x="560"><use xlink:href="#a"></use><use xlink:href="#1" y="0"></use><use xlink:href="#2" y="2.171"></use><use xlink:href="#3" y="4.342"></use><use xlink:href="#4" y="6.513"></use><use xlink:href="#5" y="8.684"></use><use xlink:href="#4" y="10.855"></use><use xlink:href="#6" y="13.026"></use><use xlink:href="#7" y="15.197"></use><use xlink:href="#8" y="17.368"></use><use xlink:href="#9" y="19.539"></use><use xlink:href="#10" y="21.71"></use></svg><svg x="640"><use xlink:href="#a"></use><use xlink:href="#1" y="0"></use><use xlink:href="#2" y="2.171"></use><use xlink:href="#3" y="4.342"></use><use xlink:href="#4" y="6.513"></use><use xlink:href="#5" y="8.684"></use><use xlink:href="#4" y="10.855"></use><use xlink:href="#6" y="13.026"></use><use xlink:href="#7" y="15.197"></use><use xlink:href="#8" y="17.368"></use><use xlink:href="#9" y="19.539"></use><use xlink:href="#10" y="21.71"></use><text x="0" y="27.722" class="f">Restarting</text><text x="11.021999999999998" y="27.722" class="f">animation...</text></svg></svg></g></g></svg></svg>