<svg xmlns="http://www.w3.org/2000/svg" xmlns:xlink="http://www.w3.org/1999/xlink" width="840" height="581.04"><rect width="840" height="581.04" rx="5" ry="5" class="a"></rect><svg y="0%" x="0%"><circle cx="20" cy="20" r="6" class="b"></circle><circle cx="40" cy="20" r="6" class="c"></circle><circle cx="60" cy="20" r="6" class="d"></circle></svg><svg height="521.04" viewBox="0 0 80 52.104" width="800" x="15" xmlns="http://www.w3.org/2000/svg" xmlns:xlink="http://www.w3.org/1999/xlink" y="50"><style>.e, .g, .f {
	font-family:
			'Courier New'
			Roboto,
			Helvetica,
			Arial,
			sans-serif,
			'Apple Color Emoji',
			'Segoe UI Emoji' !important;
}.a{fill:rgb(35,35,35)}.b{fill:#ff5f58}.c{fill:#ffbd2e}.d{fill:#18c132}.e{font-family:'Courier New',Monaco,Consolas,Menlo,'Bitstream Vera Sans Mono','Powerline Symbols',monospace}.f{fill:rgb(126,231,233);white-space:pre}.g{fill:rgb(255,255,255);white-space:pre}.h{fill:rgb(104,104,104);white-space:pre}.i{fill:rgb(168,204,140)}.j{white-space:pre}.k{fill:rgb(124,255,0);white-space:pre}.l{fill:rgb(232,131,136)}.m{fill:rgb(243,86,86);white-space:pre}.n{fill:rgb(219,171,121)}.o{fill:rgb(255,241,0);white-space:pre}.p{fill:transparent}.r{animation-duration:7.6449180000000005s;animation-iteration-count:infinite;animation-name:q;animation-timing-function:steps(1,end)}.s{fill:rgb(160,160,160);white-space:pre}@keyframes q{0%{transform:translateX(-0px)}7.5%{transform:translateX(-80px)}8.6%{transform:translateX(-160px)}10.1%{transform:translateX(-240px)}10.1%{transform:translateX(-320px)}10.1%{transform:translateX(-400px)}10.1%{transform:translateX(-480px)}12.7%{transform:translateX(-560px)}12.7%{transform:translateX(-640px)}12.7%{transform:translateX(-720px)}15.3%{transform:translateX(-800px)}15.3%{transform:translateX(-880px)}15.3%{transform:translateX(-960px)}17.9%{transform:translateX(-1040px)}20.6%{transform:translateX(-1120px)}20.6%{transform:translateX(-1200px)}23.2%{transform:translateX(-1280px)}23.2%{transform:translateX(-1360px)}23.2%{transform:translateX(-1440px)}25.8%{transform:translateX(-1520px)}25.8%{transform:translateX(-1600px)}25.8%{transform:translateX(-1680px)}28.4%{transform:translateX(-1760px)}28.4%{transform:translateX(-1840px)}31%{transform:translateX(-1920px)}31%{transform:translateX(-2000px)}31%{transform:translateX(-2080px)}33.6%{transform:translateX(-2160px)}33.6%{transform:translateX(-2240px)}33.7%{transform:translateX(-2320px)}34.6%{transform:translateX(-2400px)}34.6%{transform:translateX(-2480px)}34.6%{transform:translateX(-2560px)}100%{transform:translateX(-2640px)}}</style><g font-family="'Courier New',Monaco, Consolas, Menlo, &#x27;Bitstream Vera Sans Mono&#x27;, &#x27;Powerline Symbols&#x27;, monospace" font-size="1.67" class="e"><defs><symbol id="1"><text x="0" y="1.67" class="f">▀</text><text x="3.006" y="1.67" class="g">Spinner</text><text x="11.021999999999998" y="1.67" class="g">1</text><text x="13.026" y="1.67" class="h">(0s)</text></symbol><symbol id="2"><text x="0" y="1.67" class="f">▀</text><text x="3.006" y="1.67" class="g">Spinner</text><text x="11.021999999999998" y="1.67" class="g">2</text><text x="13.026" y="1.67" class="h">(0s)</text></symbol><symbol id="3"><text x="1.002" y="1.67" class="f">▀</text><text x="3.006" y="1.67" class="g">Spinner</text><text x="11.021999999999998" y="1.67" class="g">3</text><text x="13.026" y="1.67" class="h">(0s)</text></symbol><symbol id="4"><text x="1.002" y="1.67" class="f">▀</text><text x="3.006" y="1.67" class="g">Spinner</text><text x="11.021999999999998" y="1.67" class="g">1</text><text x="13.026" y="1.67" class="h">(0s)</text></symbol><symbol id="5"><text x="1.002" y="1.67" class="f">▀</text><text x="3.006" y="1.67" class="g">Spinner</text><text x="11.021999999999998" y="1.67" class="g">2</text><text x="13.026" y="1.67" class="h">(0s)</text></symbol><symbol id="6"><text x="1.002" y="1.67" class="f">▄</text><text x="3.006" y="1.67" class="g">Spinner</text><text x="11.021999999999998" y="1.67" class="g">1</text><text x="13.026" y="1.67" class="h">(0s)</text></symbol><symbol id="7"><text x="1.002" y="1.67" class="f">▄</text><text x="3.006" y="1.67" class="g">Spinner</text><text x="11.021999999999998" y="1.67" class="g">2</text><text x="13.026" y="1.67" class="h">(0s)</text></symbol><symbol id="8"><text x="1.002" y="1.67" class="f">▄</text><text x="3.006" y="1.67" class="g">Spinner</text><text x="11.021999999999998" y="1.67" class="g">3</text><text x="13.026" y="1.67" class="h">(0s)</text></symbol><symbol id="9"><text x="0" y="1.67" class="f">▄</text><text x="3.006" y="1.67" class="g">Spinner</text><text x="11.021999999999998" y="1.67" class="g">2</text><text x="13.026" y="1.67" class="h">(1s)</text></symbol><symbol id="10"><text x="0" y="1.67" class="f">▄</text><text x="3.006" y="1.67" class="g">Spinner</text><text x="11.021999999999998" y="1.67" class="g">3</text><text x="13.026" y="1.67" class="h">(1s)</text></symbol><symbol id="11"><rect height="2.171" width="9" x="0" y="0" class="i"></rect><text x="0" y="1.67" class="j"> SUCCESS </text><text x="10.02" y="1.67" class="k">Spinner</text><text x="18.035999999999998" y="1.67" class="k">1</text><text x="20.04" y="1.67" class="k">is</text><text x="23.045999999999996" y="1.67" class="k">done!</text></symbol><symbol id="12"><text x="0" y="1.67" class="f">▀</text><text x="3.006" y="1.67" class="g">Spinner</text><text x="11.021999999999998" y="1.67" class="g">2</text><text x="13.026" y="1.67" class="h">(1s)</text></symbol><symbol id="13"><text x="1.002" y="1.67" class="f">▀</text><text x="3.006" y="1.67" class="g">Spinner</text><text x="11.021999999999998" y="1.67" class="g">2</text><text x="13.026" y="1.67" class="h">(1s)</text></symbol><symbol id="14"><text x="1.002" y="1.67" class="f">▀</text><text x="3.006" y="1.67" class="g">Spinner</text><text x="11.021999999999998" y="1.67" class="g">3</text><text x="13.026" y="1.67" class="h">(1s)</text></symbol><symbol id="15"><text x="1.002" y="1.67" class="f">▄</text><text x="3.006" y="1.67" class="g">Spinner</text><text x="11.021999999999998" y="1.67" class="g">2</text><text x="13.026" y="1.67" class="h">(1s)</text></symbol><symbol id="16"><text x="1.002" y="1.67" class="f">▄</text><text x="3.006" y="1.67" class="g">Spinner</text><text x="11.021999999999998" y="1.67" class="g">3</text><text x="13.026" y="1.67" class="h">(1s)</text></symbol><symbol id="17"><rect height="2.171" width="9" x="0" y="0" class="l"></rect><text x="0" y="1.67" class="j">  ERROR  </text><text x="10.02" y="1.67" class="m">Spinner</text><text x="18.035999999999998" y="1.67" class="m">2</text><text x="20.04" y="1.67" class="m">failed!</text></symbol><symbol id="18"><text x="0" y="1.67" class="f">▀</text><text x="3.006" y="1.67" class="g">Spinner</text><text x="11.021999999999998" y="1.67" class="g">3</text><text x="13.026" y="1.67" class="h">(2s)</text></symbol><symbol id="19"><text x="1.002" y="1.67" class="f">▀</text><text x="3.006" y="1.67" class="g">Spinner</text><text x="11.021999999999998" y="1.67" class="g">3</text><text x="13.026" y="1.67" class="h">(2s)</text></symbol><symbol id="20"><text x="1.002" y="1.67" class="f">▄</text><text x="3.006" y="1.67" class="g">Spinner</text><text x="11.021999999999998" y="1.67" class="g">3</text><text x="13.026" y="1.67" class="h">(2s)</text></symbol><symbol id="21"><rect height="2.171" width="9" x="0" y="0" class="n"></rect><text x="0" y="1.67" class="j"> WARNING </text><text x="10.02" y="1.67" class="o">Spinner</text><text x="18.035999999999998" y="1.67" class="o">3</text><text x="20.04" y="1.67" class="o">has</text><text x="24.048" y="1.67" class="o">a</text><text x="26.052" y="1.67" class="o">warning!</text></symbol><symbol id="a"><rect height="24" width="80" x="0" y="0" class="p"></rect></symbol></defs><rect height="52.104" width="80" class="a"></rect><g class="r"><svg x="0" y="0" width="2720"><svg x="0"><use xlink:href="#a"></use></svg><svg x="80"><use xlink:href="#a"></use></svg><svg x="160"><use xlink:href="#a"></use><use xlink:href="#1" y="0"></use><use xlink:href="#2" y="2.171"></use><use xlink:href="#3" y="4.342"></use></svg><svg x="240"><use xlink:href="#a"></use><use xlink:href="#1" y="0"></use><use xlink:href="#2" y="2.171"></use><use xlink:href="#3" y="4.342"></use></svg><svg x="320"><use xlink:href="#a"></use><use xlink:href="#1" y="0"></use><use xlink:href="#2" y="2.171"></use></svg><svg x="400"><use xlink:href="#a"></use><use xlink:href="#4" y="0"></use><use xlink:href="#5" y="2.171"></use><use xlink:href="#3" y="4.342"></use></svg><svg x="480"><use xlink:href="#a"></use><use xlink:href="#4" y="0"></use><use xlink:href="#5" y="2.171"></use><use xlink:href="#3" y="4.342"></use></svg><svg x="560"><use xlink:href="#a"></use><use xlink:href="#4" y="0"></use><use xlink:href="#5" y="2.171"></use><use xlink:href="#3" y="4.342"></use></svg><svg x="640"><use xlink:href="#a"></use><use xlink:href="#6" y="0"></use></svg><svg x="720"><use xlink:href="#a"></use><use xlink:href="#6" y="0"></use><use xlink:href="#7" y="2.171"></use><use xlink:href="#8" y="4.342"></use></svg><svg x="800"><use xlink:href="#a"></use><use xlink:href="#6" y="0"></use><use xlink:href="#7" y="2.171"></use><use xlink:href="#8" y="4.342"></use></svg><svg x="880"><use xlink:href="#a"></use><use xlink:href="#6" y="0"></use></svg><svg x="960"><use xlink:href="#a"></use><text x="0" y="1.67" class="f">▄</text><text x="3.006" y="1.67" class="g">Spinner</text><text x="11.021999999999998" y="1.67" class="g">1</text><text x="13.026" y="1.67" class="h">(1s)</text><use xlink:href="#9" y="2.171"></use><use xlink:href="#10" y="4.342"></use></svg><svg x="1040"><use xlink:href="#a"></use><use xlink:href="#11" y="0"></use><use xlink:href="#12" y="2.171"></use><text x="0" y="6.012" class="f">▀</text><text x="3.006" y="6.012" class="g">Spinner</text><text x="11.021999999999998" y="6.012" class="g">3</text><text x="13.026" y="6.012" class="h">(1s)</text></svg><svg x="1120"><use xlink:href="#a"></use><use xlink:href="#11" y="0"></use><use xlink:href="#12" y="2.171"></use></svg><svg x="1200"><use xlink:href="#a"></use><use xlink:href="#11" y="0"></use><use xlink:href="#13" y="2.171"></use><use xlink:href="#14" y="4.342"></use></svg><svg x="1280"><use xlink:href="#a"></use><use xlink:href="#11" y="0"></use><use xlink:href="#13" y="2.171"></use><use xlink:href="#14" y="4.342"></use></svg><svg x="1360"><use xlink:href="#a"></use><use xlink:href="#11" y="0"></use></svg><svg x="1440"><use xlink:href="#a"></use><use xlink:href="#11" y="0"></use><use xlink:href="#15" y="2.171"></use><use xlink:href="#16" y="4.342"></use></svg><svg x="1520"><use xlink:href="#a"></use><use xlink:href="#11" y="0"></use><use xlink:href="#15" y="2.171"></use><use xlink:href="#16" y="4.342"></use></svg><svg x="1600"><use xlink:href="#a"></use></svg><svg x="1680"><use xlink:href="#a"></use><use xlink:href="#11" y="0"></use><use xlink:href="#9" y="2.171"></use><use xlink:href="#10" y="4.342"></use></svg><svg x="1760"><use xlink:href="#a"></use><use xlink:href="#11" y="0"></use><use xlink:href="#9" y="2.171"></use><use xlink:href="#10" y="4.342"></use></svg><svg x="1840"><use xlink:href="#a"></use><use xlink:href="#11" y="0"></use><use xlink:href="#17" y="2.171"></use><use xlink:href="#18" y="4.342"></use></svg><svg x="1920"><use xlink:href="#a"></use><use xlink:href="#11" y="0"></use><use xlink:href="#17" y="2.171"></use><use xlink:href="#18" y="4.342"></use></svg><svg x="2000"><use xlink:href="#a"></use></svg><svg x="2080"><use xlink:href="#a"></use><use xlink:href="#11" y="0"></use><use xlink:href="#17" y="2.171"></use><use xlink:href="#19" y="4.342"></use></svg><svg x="2160"><use xlink:href="#a"></use><use xlink:href="#11" y="0"></use><use xlink:href="#17" y="2.171"></use><use xlink:href="#19" y="4.342"></use></svg><svg x="2240"><use xlink:href="#a"></use><use xlink:href="#11" y="0"></use><use xlink:href="#17" y="2.171"></use><use xlink:href="#19" y="4.342"></use></svg><svg x="2320"><use xlink:href="#a"></use><use xlink:href="#11" y="0"></use><use xlink:href="#17" y="2.171"></use><use xlink:href="#20" y="4.342"></use></svg><svg x="2400"><use xlink:href="#a"></use><use xlink:href="#11" y="0"></use><use xlink:href="#17" y="2.171"></use><use xlink:href="#20" y="4.342"></use></svg><svg x="2480"><use xlink:href="#a"></use><use xlink:href="#11" y="0"></use></svg><svg x="2560"><use xlink:href="#a"></use><use xlink:href="#11" y="0"></use><use xlink:href="#17" y="2.171"></use><use xlink:href="#21" y="4.342"></use></svg><svg x="2640"><use xlink:href="#a"></use><use xlink:href="#11" y="0"></use><use xlink:href="#17" y="2.171"></use><use xlink:href="#21" y="4.342"></use><text x="0" y="10.354" class="s">Restarting</text><text x="11.021999999999998" y="10.354" class="s">animation...</text></svg></svg></g></g></svg></svg>