<svg xmlns="http://www.w3.org/2000/svg" xmlns:xlink="http://www.w3.org/1999/xlink" width="840" height="581.04"><rect width="840" height="581.04" rx="5" ry="5" class="a"></rect><svg y="0%" x="0%"><circle cx="20" cy="20" r="6" class="b"></circle><circle cx="40" cy="20" r="6" class="c"></circle><circle cx="60" cy="20" r="6" class="d"></circle></svg><svg height="521.04" viewBox="0 0 80 52.104" width="800" x="15" xmlns="http://www.w3.org/2000/svg" xmlns:xlink="http://www.w3.org/1999/xlink" y="50"><style>.e, .g, .f {
	font-family:
			'Courier New'
			Roboto,
			Helvetica,
			Arial,
			sans-serif,
			'Apple Color Emoji',
			'Segoe UI Emoji' !important;
}.a{fill:rgb(35,35,35)}.b{fill:#ff5f58}.c{fill:#ffbd2e}.d{fill:#18c132}.e{font-family:'Courier New',Monaco,Consolas,Menlo,'Bitstream Vera Sans Mono','Powerline Symbols',monospace}.f{fill:rgb(160,160,160);white-space:pre}.g{fill:transparent}.i{animation-duration:5.225417s;animation-iteration-count:infinite;animation-name:h;animation-timing-function:steps(1,end)}@keyframes h{0%{transform:translateX(-0px)}4.3%{transform:translateX(-80px)}100%{transform:translateX(-160px)}}</style><g font-family="'Courier New',Monaco, Consolas, Menlo, &#x27;Bitstream Vera Sans Mono&#x27;, &#x27;Powerline Symbols&#x27;, monospace" font-size="1.67" class="e"><defs><symbol id="1"><text x="0" y="1.67" class="f">This</text><text x="5.01" y="1.67" class="f">is</text><text x="8.016" y="1.67" class="f">a</text><text x="10.02" y="1.67" class="f">custom</text><text x="17.034" y="1.67" class="f">paragraph</text><text x="27.054" y="1.67" class="f">printer.</text><text x="36.071999999999996" y="1.67" class="f">As</text><text x="39.077999999999996" y="1.67" class="f">you</text><text x="43.086" y="1.67" class="f">can</text><text x="47.093999999999994" y="1.67" class="f">see,</text><text x="52.104" y="1.67" class="f">no</text><text x="55.10999999999999" y="1.67" class="f">words</text></symbol><symbol id="2"><text x="0" y="1.67" class="f">are</text><text x="4.008" y="1.67" class="f">separated,</text><text x="15.029999999999998" y="1.67" class="f">but</text><text x="19.037999999999997" y="1.67" class="f">the</text><text x="23.045999999999996" y="1.67" class="f">text</text><text x="28.055999999999997" y="1.67" class="f">is</text><text x="31.061999999999998" y="1.67" class="f">split</text><text x="37.074" y="1.67" class="f">at</text><text x="40.08" y="1.67" class="f">the</text><text x="44.087999999999994" y="1.67" class="f">spaces.</text><text x="52.104" y="1.67" class="f">This</text><text x="57.114" y="1.67" class="f">is</text></symbol><symbol id="3"><text x="0" y="1.67" class="f">useful</text><text x="7.013999999999999" y="1.67" class="f">for</text><text x="11.021999999999998" y="1.67" class="f">continuous</text><text x="22.043999999999997" y="1.67" class="f">text</text><text x="27.054" y="1.67" class="f">of</text><text x="30.059999999999995" y="1.67" class="f">all</text><text x="34.068" y="1.67" class="f">kinds.</text><text x="41.082" y="1.67" class="f">You</text><text x="45.089999999999996" y="1.67" class="f">can</text><text x="49.098" y="1.67" class="f">manually</text></symbol><symbol id="4"><text x="0" y="1.67" class="f">change</text><text x="7.013999999999999" y="1.67" class="f">the</text><text x="11.021999999999998" y="1.67" class="f">line</text><text x="16.032" y="1.67" class="f">width</text><text x="22.043999999999997" y="1.67" class="f">if</text><text x="25.05" y="1.67" class="f">you</text><text x="29.058" y="1.67" class="f">want</text><text x="34.068" y="1.67" class="f">to.Lorem</text><text x="43.086" y="1.67" class="f">ipsum</text><text x="49.098" y="1.67" class="f">dolor</text><text x="55.10999999999999" y="1.67" class="f">sit</text></symbol><symbol id="5"><text x="0" y="1.67" class="f">amet,</text><text x="6.012" y="1.67" class="f">consetetur</text><text x="17.034" y="1.67" class="f">sadipscing</text><text x="28.055999999999997" y="1.67" class="f">elitr,</text><text x="35.06999999999999" y="1.67" class="f">sed</text><text x="39.077999999999996" y="1.67" class="f">diam</text><text x="44.087999999999994" y="1.67" class="f">nonumy</text><text x="51.102" y="1.67" class="f">eirmod</text></symbol><symbol id="6"><text x="0" y="1.67" class="f">tempor</text><text x="7.013999999999999" y="1.67" class="f">invidunt</text><text x="16.032" y="1.67" class="f">ut</text><text x="19.037999999999997" y="1.67" class="f">labore</text><text x="26.052" y="1.67" class="f">et</text><text x="29.058" y="1.67" class="f">dolore</text><text x="36.071999999999996" y="1.67" class="f">magna</text><text x="42.083999999999996" y="1.67" class="f">aliquyam</text></symbol><symbol id="7"><text x="0" y="1.67" class="f">This</text><text x="5.01" y="1.67" class="f">text</text><text x="10.02" y="1.67" class="f">is</text><text x="13.026" y="1.67" class="f">written</text><text x="21.041999999999998" y="1.67" class="f">with</text><text x="26.052" y="1.67" class="f">the</text><text x="30.059999999999995" y="1.67" class="f">default</text><text x="38.07599999999999" y="1.67" class="f">Println()</text><text x="48.096" y="1.67" class="f">function.</text><text x="58.116" y="1.67" class="f">No</text><text x="61.12199999999999" y="1.67" class="f">intelligent</text><text x="73.146" y="1.67" class="f">splitti</text></symbol><symbol id="8"><text x="0" y="1.67" class="f">ng</text><text x="3.006" y="1.67" class="f">here.Lorem</text><text x="14.027999999999999" y="1.67" class="f">ipsum</text><text x="20.04" y="1.67" class="f">dolor</text><text x="26.052" y="1.67" class="f">sit</text><text x="30.059999999999995" y="1.67" class="f">amet,</text><text x="36.071999999999996" y="1.67" class="f">consetetur</text><text x="47.093999999999994" y="1.67" class="f">sadipscing</text><text x="58.116" y="1.67" class="f">elitr,</text><text x="65.13" y="1.67" class="f">sed</text><text x="69.13799999999999" y="1.67" class="f">diam</text><text x="74.148" y="1.67" class="f">nonumy</text></symbol><symbol id="9"><text x="1.002" y="1.67" class="f">eirmod</text><text x="8.016" y="1.67" class="f">tempor</text><text x="15.029999999999998" y="1.67" class="f">invidunt</text><text x="24.048" y="1.67" class="f">ut</text><text x="27.054" y="1.67" class="f">labore</text><text x="34.068" y="1.67" class="f">et</text><text x="37.074" y="1.67" class="f">dolore</text><text x="44.087999999999994" y="1.67" class="f">magna</text><text x="50.1" y="1.67" class="f">aliquyam</text></symbol><symbol id="a"><rect height="24" width="80" x="0" y="0" class="g"></rect></symbol></defs><rect height="52.104" width="80" class="a"></rect><g class="i"><svg x="0" y="0" width="240"><svg x="0"><use xlink:href="#a"></use></svg><svg x="80"><use xlink:href="#a"></use><use xlink:href="#1" y="0"></use><use xlink:href="#2" y="2.171"></use><use xlink:href="#3" y="4.342"></use><use xlink:href="#4" y="6.513"></use><use xlink:href="#5" y="8.684"></use><use xlink:href="#6" y="10.855"></use><use xlink:href="#7" y="15.197"></use><use xlink:href="#8" y="17.368"></use><use xlink:href="#9" y="19.539"></use></svg><svg x="160"><use xlink:href="#a"></use><use xlink:href="#1" y="0"></use><use xlink:href="#2" y="2.171"></use><use xlink:href="#3" y="4.342"></use><use xlink:href="#4" y="6.513"></use><use xlink:href="#5" y="8.684"></use><use xlink:href="#6" y="10.855"></use><use xlink:href="#7" y="15.197"></use><use xlink:href="#8" y="17.368"></use><use xlink:href="#9" y="19.539"></use><text x="0" y="25.550999999999995" class="f">Restarting</text><text x="11.021999999999998" y="25.550999999999995" class="f">animation...</text></svg></svg></g></g></svg></svg>