<svg xmlns="http://www.w3.org/2000/svg" xmlns:xlink="http://www.w3.org/1999/xlink" width="840" height="581.04"><rect width="840" height="581.04" rx="5" ry="5" class="a"></rect><svg y="0%" x="0%"><circle cx="20" cy="20" r="6" class="b"></circle><circle cx="40" cy="20" r="6" class="c"></circle><circle cx="60" cy="20" r="6" class="d"></circle></svg><svg height="521.04" viewBox="0 0 80 52.104" width="800" x="15" xmlns="http://www.w3.org/2000/svg" xmlns:xlink="http://www.w3.org/1999/xlink" y="50"><style>.e, .g, .f {
	font-family:
			'Courier New'
			Roboto,
			Helvetica,
			Arial,
			sans-serif,
			'Apple Color Emoji',
			'Segoe UI Emoji' !important;
}.a{fill:rgb(35,35,35)}.b{fill:#ff5f58}.c{fill:#ffbd2e}.d{fill:#18c132}.e{font-family:'Courier New',Monaco,Consolas,Menlo,'Bitstream Vera Sans Mono','Powerline Symbols',monospace}.f{fill:rgb(126,231,233);white-space:pre}.g{fill:rgb(160,160,160);white-space:pre}.h{fill:rgb(234,89,246);white-space:pre}.i{fill:rgb(255,0,4);white-space:pre}.j{fill:rgb(234,89,246);font-weight:bold;white-space:pre}.k{fill:rgb(124,255,0);white-space:pre}.l{fill:rgb(102,194,205)}.m{white-space:pre}.n{fill:transparent}.o{fill:rgb(160,160,160)}.q{animation-duration:7.172146s;animation-iteration-count:infinite;animation-name:p;animation-timing-function:steps(1,end)}@keyframes p{0%{transform:translateX(-0px)}5.1%{transform:translateX(-80px)}6.7%{transform:translateX(-160px)}19.1%{transform:translateX(-240px)}19.1%{transform:translateX(-320px)}19.1%{transform:translateX(-400px)}19.1%{transform:translateX(-480px)}19.1%{transform:translateX(-560px)}19.1%{transform:translateX(-640px)}19.1%{transform:translateX(-720px)}19.1%{transform:translateX(-800px)}19.1%{transform:translateX(-880px)}20.5%{transform:translateX(-960px)}20.5%{transform:translateX(-1040px)}20.5%{transform:translateX(-1120px)}20.5%{transform:translateX(-1200px)}20.5%{transform:translateX(-1280px)}20.5%{transform:translateX(-1360px)}24.7%{transform:translateX(-1440px)}24.7%{transform:translateX(-1520px)}24.7%{transform:translateX(-1600px)}24.7%{transform:translateX(-1680px)}24.7%{transform:translateX(-1760px)}24.7%{transform:translateX(-1840px)}26.1%{transform:translateX(-1920px)}26.1%{transform:translateX(-2000px)}26.1%{transform:translateX(-2080px)}26.1%{transform:translateX(-2160px)}26.1%{transform:translateX(-2240px)}26.1%{transform:translateX(-2320px)}26.1%{transform:translateX(-2400px)}30.3%{transform:translateX(-2480px)}30.3%{transform:translateX(-2560px)}30.3%{transform:translateX(-2640px)}30.3%{transform:translateX(-2720px)}30.3%{transform:translateX(-2800px)}30.3%{transform:translateX(-2880px)}100%{transform:translateX(-2960px)}}</style><g font-family="'Courier New',Monaco, Consolas, Menlo, &#x27;Bitstream Vera Sans Mono&#x27;, &#x27;Powerline Symbols&#x27;, monospace" font-size="1.67" class="e"><defs><symbol id="1"><text x="0" y="1.67" class="f">Please</text><text x="7.013999999999999" y="1.67" class="f">select</text><text x="14.027999999999999" y="1.67" class="f">your</text><text x="19.037999999999997" y="1.67" class="f">options</text><text x="26.052" y="1.67" class="g">:</text></symbol><symbol id="2"><text x="0" y="1.67" class="h">&gt;</text><text x="2.004" y="1.67" class="g">[</text><text x="3.006" y="1.67" class="i">✗</text><text x="4.008" y="1.67" class="g">]</text><text x="6.012" y="1.67" class="g">Option</text><text x="13.026" y="1.67" class="g">0</text></symbol><symbol id="3"><text x="2.004" y="1.67" class="g">[</text><text x="3.006" y="1.67" class="i">✗</text><text x="4.008" y="1.67" class="g">]</text><text x="6.012" y="1.67" class="g">Option</text><text x="13.026" y="1.67" class="g">1</text></symbol><symbol id="4"><text x="2.004" y="1.67" class="g">[</text><text x="3.006" y="1.67" class="i">✗</text><text x="4.008" y="1.67" class="g">]</text><text x="6.012" y="1.67" class="g">Option</text><text x="13.026" y="1.67" class="g">2</text></symbol><symbol id="5"><text x="2.004" y="1.67" class="g">[</text><text x="3.006" y="1.67" class="i">✗</text><text x="4.008" y="1.67" class="g">]</text><text x="6.012" y="1.67" class="g">Option</text><text x="13.026" y="1.67" class="g">3</text></symbol><symbol id="6"><text x="2.004" y="1.67" class="g">[</text><text x="3.006" y="1.67" class="i">✗</text><text x="4.008" y="1.67" class="g">]</text><text x="6.012" y="1.67" class="g">Option</text><text x="13.026" y="1.67" class="g">4</text></symbol><symbol id="7"><text x="0" y="1.67" class="h">space:</text><text x="7.013999999999999" y="1.67" class="j">select</text><text x="14.027999999999999" y="1.67" class="h">|</text><text x="16.032" y="1.67" class="h">enter:</text><text x="23.045999999999996" y="1.67" class="j">confirm</text><text x="31.061999999999998" y="1.67" class="h">|</text><text x="33.065999999999995" y="1.67" class="h">left:</text><text x="39.077999999999996" y="1.67" class="j">none</text><text x="44.087999999999994" y="1.67" class="h">|</text><text x="46.09199999999999" y="1.67" class="h">right:</text><text x="53.105999999999995" y="1.67" class="j">all</text></symbol><symbol id="8"><text x="2.004" y="1.67" class="g">[</text><text x="3.006" y="1.67" class="i">✗</text><text x="4.008" y="1.67" class="g">]</text><text x="6.012" y="1.67" class="g">Option</text><text x="13.026" y="1.67" class="g">0</text></symbol><symbol id="9"><text x="0" y="1.67" class="h">&gt;</text><text x="2.004" y="1.67" class="g">[</text><text x="3.006" y="1.67" class="i">✗</text><text x="4.008" y="1.67" class="g">]</text><text x="6.012" y="1.67" class="g">Option</text><text x="13.026" y="1.67" class="g">1</text></symbol><symbol id="10"><text x="0" y="1.67" class="h">&gt;</text><text x="2.004" y="1.67" class="g">[</text><text x="3.006" y="1.67" class="k">✓</text><text x="4.008" y="1.67" class="g">]</text><text x="6.012" y="1.67" class="g">Option</text><text x="13.026" y="1.67" class="g">1</text></symbol><symbol id="11"><text x="2.004" y="1.67" class="g">[</text><text x="3.006" y="1.67" class="k">✓</text><text x="4.008" y="1.67" class="g">]</text><text x="6.012" y="1.67" class="g">Option</text><text x="13.026" y="1.67" class="g">1</text></symbol><symbol id="12"><text x="0" y="1.67" class="h">&gt;</text><text x="2.004" y="1.67" class="g">[</text><text x="3.006" y="1.67" class="i">✗</text><text x="4.008" y="1.67" class="g">]</text><text x="6.012" y="1.67" class="g">Option</text><text x="13.026" y="1.67" class="g">2</text></symbol><symbol id="13"><text x="0" y="1.67" class="h">&gt;</text><text x="2.004" y="1.67" class="g">[</text><text x="3.006" y="1.67" class="k">✓</text><text x="4.008" y="1.67" class="g">]</text><text x="6.012" y="1.67" class="g">Option</text><text x="13.026" y="1.67" class="g">2</text></symbol><symbol id="14"><text x="2.004" y="1.67" class="h">&gt;</text><text x="4.008" y="1.67" class="g">Option</text><text x="11.021999999999998" y="1.67" class="g">1</text></symbol><symbol id="15"><text x="2.004" y="1.67" class="h">&gt;</text><text x="4.008" y="1.67" class="g">Option</text><text x="11.021999999999998" y="1.67" class="g">2</text></symbol><symbol id="16"><rect height="2.171" width="6" x="0" y="0" class="l"></rect><text x="0" y="1.67" class="m"> INFO </text><text x="7.013999999999999" y="1.67" class="f">Selected</text><text x="16.032" y="1.67" class="f">options:</text><text x="25.05" y="1.67" class="k">[Option</text><text x="33.065999999999995" y="1.67" class="k">1</text><text x="35.06999999999999" y="1.67" class="k">Option</text><text x="42.083999999999996" y="1.67" class="k">2]</text></symbol><symbol id="a"><rect height="24" width="80" x="0" y="0" class="n"></rect></symbol><symbol id="b"><rect height="2.171" width="1.1022" class="o"></rect></symbol></defs><rect height="52.104" width="80" class="a"></rect><g class="q"><svg x="0" y="0" width="3040"><svg x="0"><use xlink:href="#a"></use><use xlink:href="#b" x="-0.0040000000000000036" y="0"></use></svg><svg x="80"><use xlink:href="#a"></use><use xlink:href="#b" x="-0.0040000000000000036" y="13.001"></use><use xlink:href="#1" y="0"></use><use xlink:href="#2" y="2.171"></use><use xlink:href="#3" y="4.342"></use><use xlink:href="#4" y="6.513"></use><use xlink:href="#5" y="8.684"></use><use xlink:href="#6" y="10.855"></use><use xlink:href="#7" y="13.026"></use></svg><svg x="160"><use xlink:href="#a"></use><use xlink:href="#1" y="0"></use><use xlink:href="#2" y="2.171"></use><use xlink:href="#3" y="4.342"></use><use xlink:href="#4" y="6.513"></use><use xlink:href="#5" y="8.684"></use><use xlink:href="#6" y="10.855"></use><use xlink:href="#7" y="13.026"></use></svg><svg x="240"><use xlink:href="#a"></use><use xlink:href="#1" y="0"></use><use xlink:href="#2" y="2.171"></use><use xlink:href="#3" y="4.342"></use><use xlink:href="#4" y="6.513"></use><use xlink:href="#5" y="8.684"></use><use xlink:href="#6" y="10.855"></use><use xlink:href="#7" y="13.026"></use></svg><svg x="320"><use xlink:href="#a"></use><use xlink:href="#1" y="0"></use><use xlink:href="#2" y="2.171"></use><use xlink:href="#3" y="4.342"></use><use xlink:href="#4" y="6.513"></use><use xlink:href="#5" y="8.684"></use><use xlink:href="#6" y="10.855"></use><use xlink:href="#7" y="13.026"></use></svg><svg x="400"><use xlink:href="#a"></use><use xlink:href="#1" y="0"></use><use xlink:href="#2" y="2.171"></use><use xlink:href="#3" y="4.342"></use><use xlink:href="#4" y="6.513"></use><use xlink:href="#5" y="8.684"></use><use xlink:href="#6" y="10.855"></use><use xlink:href="#7" y="13.026"></use></svg><svg x="480"><use xlink:href="#a"></use><use xlink:href="#1" y="0"></use><use xlink:href="#2" y="2.171"></use><use xlink:href="#3" y="4.342"></use><use xlink:href="#4" y="6.513"></use><use xlink:href="#5" y="8.684"></use><use xlink:href="#6" y="10.855"></use></svg><svg x="560"><use xlink:href="#a"></use><use xlink:href="#1" y="0"></use><use xlink:href="#2" y="2.171"></use><use xlink:href="#3" y="4.342"></use><use xlink:href="#4" y="6.513"></use><use xlink:href="#5" y="8.684"></use><use xlink:href="#6" y="10.855"></use></svg><svg x="640"><use xlink:href="#a"></use><use xlink:href="#1" y="0"></use><use xlink:href="#2" y="2.171"></use><use xlink:href="#3" y="4.342"></use><use xlink:href="#4" y="6.513"></use><use xlink:href="#5" y="8.684"></use></svg><svg x="720"><use xlink:href="#a"></use><use xlink:href="#1" y="0"></use><use xlink:href="#2" y="2.171"></use><use xlink:href="#3" y="4.342"></use><use xlink:href="#4" y="6.513"></use></svg><svg x="800"><use xlink:href="#a"></use><use xlink:href="#1" y="0"></use></svg><svg x="880"><use xlink:href="#a"></use><use xlink:href="#1" y="0"></use><use xlink:href="#8" y="2.171"></use><use xlink:href="#9" y="4.342"></use><use xlink:href="#4" y="6.513"></use><use xlink:href="#5" y="8.684"></use><use xlink:href="#6" y="10.855"></use><use xlink:href="#7" y="13.026"></use></svg><svg x="960"><use xlink:href="#a"></use><use xlink:href="#1" y="0"></use><use xlink:href="#8" y="2.171"></use><use xlink:href="#9" y="4.342"></use><use xlink:href="#4" y="6.513"></use><use xlink:href="#5" y="8.684"></use><use xlink:href="#6" y="10.855"></use><use xlink:href="#7" y="13.026"></use></svg><svg x="1040"><use xlink:href="#a"></use><use xlink:href="#1" y="0"></use><use xlink:href="#8" y="2.171"></use><use xlink:href="#9" y="4.342"></use><use xlink:href="#4" y="6.513"></use><use xlink:href="#5" y="8.684"></use><use xlink:href="#6" y="10.855"></use><use xlink:href="#7" y="13.026"></use></svg><svg x="1120"><use xlink:href="#a"></use><use xlink:href="#1" y="0"></use><use xlink:href="#8" y="2.171"></use><use xlink:href="#9" y="4.342"></use><use xlink:href="#4" y="6.513"></use></svg><svg x="1200"><use xlink:href="#a"></use></svg><svg x="1280"><use xlink:href="#a"></use><use xlink:href="#1" y="0"></use><use xlink:href="#8" y="2.171"></use><use xlink:href="#10" y="4.342"></use><use xlink:href="#4" y="6.513"></use><use xlink:href="#5" y="8.684"></use><use xlink:href="#6" y="10.855"></use></svg><svg x="1360"><use xlink:href="#a"></use><use xlink:href="#1" y="0"></use><use xlink:href="#8" y="2.171"></use><use xlink:href="#10" y="4.342"></use><use xlink:href="#4" y="6.513"></use><use xlink:href="#5" y="8.684"></use><use xlink:href="#6" y="10.855"></use><use xlink:href="#7" y="13.026"></use></svg><svg x="1440"><use xlink:href="#a"></use><use xlink:href="#1" y="0"></use><use xlink:href="#8" y="2.171"></use><use xlink:href="#10" y="4.342"></use><use xlink:href="#4" y="6.513"></use><use xlink:href="#5" y="8.684"></use><use xlink:href="#6" y="10.855"></use><use xlink:href="#7" y="13.026"></use></svg><svg x="1520"><use xlink:href="#a"></use><use xlink:href="#1" y="0"></use><use xlink:href="#8" y="2.171"></use><use xlink:href="#10" y="4.342"></use><use xlink:href="#4" y="6.513"></use><use xlink:href="#5" y="8.684"></use><use xlink:href="#6" y="10.855"></use><use xlink:href="#7" y="13.026"></use></svg><svg x="1600"><use xlink:href="#a"></use><use xlink:href="#1" y="0"></use><use xlink:href="#8" y="2.171"></use><use xlink:href="#10" y="4.342"></use><use xlink:href="#4" y="6.513"></use><use xlink:href="#5" y="8.684"></use></svg><svg x="1680"><use xlink:href="#a"></use><use xlink:href="#1" y="0"></use></svg><svg x="1760"><use xlink:href="#a"></use><use xlink:href="#1" y="0"></use><use xlink:href="#8" y="2.171"></use><use xlink:href="#11" y="4.342"></use><use xlink:href="#12" y="6.513"></use><use xlink:href="#5" y="8.684"></use></svg><svg x="1840"><use xlink:href="#a"></use><use xlink:href="#1" y="0"></use><use xlink:href="#8" y="2.171"></use><use xlink:href="#11" y="4.342"></use><use xlink:href="#12" y="6.513"></use><use xlink:href="#5" y="8.684"></use><use xlink:href="#6" y="10.855"></use><use xlink:href="#7" y="13.026"></use></svg><svg x="1920"><use xlink:href="#a"></use><use xlink:href="#1" y="0"></use><use xlink:href="#8" y="2.171"></use><use xlink:href="#11" y="4.342"></use><use xlink:href="#12" y="6.513"></use><use xlink:href="#5" y="8.684"></use><use xlink:href="#6" y="10.855"></use><use xlink:href="#7" y="13.026"></use></svg><svg x="2000"><use xlink:href="#a"></use><use xlink:href="#1" y="0"></use><use xlink:href="#8" y="2.171"></use><use xlink:href="#11" y="4.342"></use><use xlink:href="#12" y="6.513"></use></svg><svg x="2080"><use xlink:href="#a"></use><use xlink:href="#1" y="0"></use><use xlink:href="#8" y="2.171"></use><use xlink:href="#11" y="4.342"></use></svg><svg x="2160"><use xlink:href="#a"></use><use xlink:href="#1" y="0"></use><use xlink:href="#8" y="2.171"></use></svg><svg x="2240"><use xlink:href="#a"></use></svg><svg x="2320"><use xlink:href="#a"></use><use xlink:href="#1" y="0"></use><use xlink:href="#8" y="2.171"></use><use xlink:href="#11" y="4.342"></use></svg><svg x="2400"><use xlink:href="#a"></use><use xlink:href="#1" y="0"></use><use xlink:href="#8" y="2.171"></use><use xlink:href="#11" y="4.342"></use><use xlink:href="#13" y="6.513"></use><use xlink:href="#5" y="8.684"></use><use xlink:href="#6" y="10.855"></use><use xlink:href="#7" y="13.026"></use></svg><svg x="2480"><use xlink:href="#a"></use><use xlink:href="#1" y="0"></use><use xlink:href="#8" y="2.171"></use><use xlink:href="#11" y="4.342"></use><use xlink:href="#13" y="6.513"></use><use xlink:href="#5" y="8.684"></use><use xlink:href="#6" y="10.855"></use><use xlink:href="#7" y="13.026"></use></svg><svg x="2560"><use xlink:href="#a"></use><use xlink:href="#1" y="0"></use><use xlink:href="#8" y="2.171"></use><use xlink:href="#11" y="4.342"></use><use xlink:href="#13" y="6.513"></use><use xlink:href="#5" y="8.684"></use><use xlink:href="#6" y="10.855"></use><use xlink:href="#7" y="13.026"></use></svg><svg x="2640"><use xlink:href="#a"></use><use xlink:href="#1" y="0"></use><use xlink:href="#8" y="2.171"></use></svg><svg x="2720"><use xlink:href="#a"></use><use xlink:href="#b" x="-0.0040000000000000036" y="6.4879999999999995"></use><use xlink:href="#1" y="0"></use><use xlink:href="#14" y="2.171"></use><use xlink:href="#15" y="4.342"></use></svg><svg x="2800"><use xlink:href="#a"></use><use xlink:href="#b" x="43.996" y="6.4879999999999995"></use><use xlink:href="#1" y="0"></use><use xlink:href="#14" y="2.171"></use><use xlink:href="#15" y="4.342"></use><use xlink:href="#16" y="6.513"></use></svg><svg x="2880"><use xlink:href="#a"></use><use xlink:href="#b" x="-0.0040000000000000036" y="8.658999999999999"></use><use xlink:href="#1" y="0"></use><use xlink:href="#14" y="2.171"></use><use xlink:href="#15" y="4.342"></use><use xlink:href="#16" y="6.513"></use></svg><svg x="2960"><use xlink:href="#a"></use><use xlink:href="#b" x="22.996" y="13.001"></use><use xlink:href="#1" y="0"></use><use xlink:href="#14" y="2.171"></use><use xlink:href="#15" y="4.342"></use><use xlink:href="#16" y="6.513"></use><text x="0" y="12.525" class="g">Restarting</text><text x="11.021999999999998" y="12.525" class="g">animation...</text></svg></svg></g></g></svg></svg>