<svg xmlns="http://www.w3.org/2000/svg" xmlns:xlink="http://www.w3.org/1999/xlink" width="2560" height="472.48999999999995"><rect width="2560" height="472.48999999999995" rx="5" ry="5" class="a"></rect><svg y="0%" x="0%"><circle cx="20" cy="20" r="6" class="b"></circle><circle cx="40" cy="20" r="6" class="c"></circle><circle cx="60" cy="20" r="6" class="d"></circle></svg><svg height="412.48999999999995" viewBox="0 0 252 41.248999999999995" width="2520" x="15" xmlns="http://www.w3.org/2000/svg" xmlns:xlink="http://www.w3.org/1999/xlink" y="50"><style>.e, .g, .f {
	font-family:
			'Courier New'
			Roboto,
			Helvetica,
			Arial,
			sans-serif,
			'Apple Color Emoji',
			'Segoe UI Emoji' !important;
}.a{fill:rgb(35,35,35)}.b{fill:#ff5f58}.c{fill:#ffbd2e}.d{fill:#18c132}.e{font-family:'JetBrainsMono',Monaco,Consolas,Menlo,'Bitstream Vera Sans Mono','Powerline Symbols',monospace}.f{fill:rgb(160,160,160);white-space:pre}.g{fill:rgb(0,198,255);white-space:pre}.h{fill:rgb(234,89,246);white-space:pre}.i{fill:transparent}.k{animation-duration:6.673623s;animation-iteration-count:infinite;animation-name:j;animation-timing-function:steps(1,end)}@keyframes j{0%{transform:translateX(-0px)}25.1%{transform:translateX(-252px)}25.1%{transform:translateX(-504px)}25.1%{transform:translateX(-756px)}100%{transform:translateX(-1008px)}}</style><g font-family="'JetBrainsMono',Monaco, Consolas, Menlo, &#x27;Bitstream Vera Sans Mono&#x27;, &#x27;Powerline Symbols&#x27;, monospace" font-size="1.67" class="e"><defs><symbol id="1"><text x="0" y="1.67" class="f">██████</text><text x="8.016" y="1.67" class="f">████████</text><text x="17.034" y="1.67" class="f">███████</text><text x="25.05" y="1.67" class="f">██████</text><text x="33.065999999999995" y="1.67" class="f">███</text><text x="40.08" y="1.67" class="f">███</text></symbol><symbol id="2"><text x="0" y="1.67" class="f">██</text><text x="5.01" y="1.67" class="f">██</text><text x="11.021999999999998" y="1.67" class="f">██</text><text x="17.034" y="1.67" class="f">██</text><text x="25.05" y="1.67" class="f">██</text><text x="30.059999999999995" y="1.67" class="f">██</text><text x="33.065999999999995" y="1.67" class="f">████</text><text x="39.077999999999996" y="1.67" class="f">████</text></symbol><symbol id="3"><text x="0" y="1.67" class="f">██████</text><text x="11.021999999999998" y="1.67" class="f">██</text><text x="17.034" y="1.67" class="f">█████</text><text x="25.05" y="1.67" class="f">██████</text><text x="33.065999999999995" y="1.67" class="f">██</text><text x="36.071999999999996" y="1.67" class="f">████</text><text x="41.082" y="1.67" class="f">██</text></symbol><symbol id="4"><text x="0" y="1.67" class="f">██</text><text x="11.021999999999998" y="1.67" class="f">██</text><text x="17.034" y="1.67" class="f">██</text><text x="25.05" y="1.67" class="f">██</text><text x="30.059999999999995" y="1.67" class="f">██</text><text x="33.065999999999995" y="1.67" class="f">██</text><text x="37.074" y="1.67" class="f">██</text><text x="41.082" y="1.67" class="f">██</text></symbol><symbol id="5"><text x="0" y="1.67" class="f">██</text><text x="11.021999999999998" y="1.67" class="f">██</text><text x="17.034" y="1.67" class="f">███████</text><text x="25.05" y="1.67" class="f">██</text><text x="30.059999999999995" y="1.67" class="f">██</text><text x="33.065999999999995" y="1.67" class="f">██</text><text x="41.082" y="1.67" class="f">██</text></symbol><symbol id="6"><text x="0" y="1.67" class="g">██████</text><text x="8.016" y="1.67" class="h">████████</text><text x="17.034" y="1.67" class="h">███████</text><text x="25.05" y="1.67" class="h">██████</text><text x="33.065999999999995" y="1.67" class="h">███</text><text x="40.08" y="1.67" class="h">███</text></symbol><symbol id="7"><text x="0" y="1.67" class="g">██</text><text x="5.01" y="1.67" class="g">██</text><text x="11.021999999999998" y="1.67" class="h">██</text><text x="17.034" y="1.67" class="h">██</text><text x="25.05" y="1.67" class="h">██</text><text x="30.059999999999995" y="1.67" class="h">██</text><text x="33.065999999999995" y="1.67" class="h">████</text><text x="39.077999999999996" y="1.67" class="h">████</text></symbol><symbol id="8"><text x="0" y="1.67" class="g">██████</text><text x="11.021999999999998" y="1.67" class="h">██</text><text x="17.034" y="1.67" class="h">█████</text><text x="25.05" y="1.67" class="h">██████</text><text x="33.065999999999995" y="1.67" class="h">██</text><text x="36.071999999999996" y="1.67" class="h">████</text><text x="41.082" y="1.67" class="h">██</text></symbol><symbol id="9"><text x="0" y="1.67" class="g">██</text><text x="11.021999999999998" y="1.67" class="h">██</text><text x="17.034" y="1.67" class="h">██</text><text x="25.05" y="1.67" class="h">██</text><text x="30.059999999999995" y="1.67" class="h">██</text><text x="33.065999999999995" y="1.67" class="h">██</text><text x="37.074" y="1.67" class="h">██</text><text x="41.082" y="1.67" class="h">██</text></symbol><symbol id="10"><text x="0" y="1.67" class="g">██</text><text x="11.021999999999998" y="1.67" class="h">██</text><text x="17.034" y="1.67" class="h">███████</text><text x="25.05" y="1.67" class="h">██</text><text x="30.059999999999995" y="1.67" class="h">██</text><text x="33.065999999999995" y="1.67" class="h">██</text><text x="41.082" y="1.67" class="h">██</text></symbol><symbol id="a"><rect height="19" width="252" x="0" y="0" class="i"></rect></symbol></defs><rect height="41.248999999999995" width="252" class="a"></rect><g class="k"><svg x="0" y="0" width="1260"><svg x="0"><use xlink:href="#a"></use></svg><svg x="252"><use xlink:href="#a"></use><use xlink:href="#1" y="0"></use><use xlink:href="#2" y="2.171"></use><use xlink:href="#3" y="4.342"></use><use xlink:href="#4" y="6.513"></use><use xlink:href="#5" y="8.684"></use></svg><svg x="504"><use xlink:href="#a"></use><use xlink:href="#1" y="0"></use><use xlink:href="#2" y="2.171"></use><use xlink:href="#3" y="4.342"></use><use xlink:href="#4" y="6.513"></use><use xlink:href="#5" y="8.684"></use><use xlink:href="#6" y="13.026"></use><use xlink:href="#7" y="15.197"></use><use xlink:href="#8" y="17.368"></use><use xlink:href="#9" y="19.539"></use><use xlink:href="#10" y="21.71"></use><use xlink:href="#1" y="26.052"></use></svg><svg x="756"><use xlink:href="#a"></use><use xlink:href="#1" y="0"></use><use xlink:href="#2" y="2.171"></use><use xlink:href="#3" y="4.342"></use><use xlink:href="#4" y="6.513"></use><use xlink:href="#5" y="8.684"></use><use xlink:href="#6" y="13.026"></use><use xlink:href="#7" y="15.197"></use><use xlink:href="#8" y="17.368"></use><use xlink:href="#9" y="19.539"></use><use xlink:href="#10" y="21.71"></use><use xlink:href="#1" y="26.052"></use><use xlink:href="#2" y="28.223000000000003"></use><use xlink:href="#3" y="30.394"></use><use xlink:href="#4" y="32.565"></use><use xlink:href="#5" y="34.736"></use></svg><svg x="1008"><use xlink:href="#a"></use><use xlink:href="#3" y="0"></use><use xlink:href="#4" y="2.171"></use><use xlink:href="#5" y="4.342"></use><use xlink:href="#6" y="8.684"></use><use xlink:href="#7" y="10.855"></use><use xlink:href="#8" y="13.026"></use><use xlink:href="#9" y="15.197"></use><use xlink:href="#10" y="17.368"></use><use xlink:href="#1" y="21.71"></use><use xlink:href="#2" y="23.880999999999997"></use><use xlink:href="#3" y="26.052"></use><use xlink:href="#4" y="28.223000000000003"></use><use xlink:href="#5" y="30.394"></use><text x="0" y="38.577000000000005" class="f">Restarting</text><text x="11.021999999999998" y="38.577000000000005" class="f">animation...</text></svg></svg></g></g></svg></svg>