<svg xmlns="http://www.w3.org/2000/svg" xmlns:xlink="http://www.w3.org/1999/xlink" width="840" height="581.04"><rect width="840" height="581.04" rx="5" ry="5" class="a"></rect><svg y="0%" x="0%"><circle cx="20" cy="20" r="6" class="b"></circle><circle cx="40" cy="20" r="6" class="c"></circle><circle cx="60" cy="20" r="6" class="d"></circle></svg><svg height="521.04" viewBox="0 0 80 52.104" width="800" x="15" xmlns="http://www.w3.org/2000/svg" xmlns:xlink="http://www.w3.org/1999/xlink" y="50"><style>.e, .g, .f {
	font-family:
			'Courier New'
			Roboto,
			Helvetica,
			Arial,
			sans-serif,
			'Apple Color Emoji',
			'Segoe UI Emoji' !important;
}.a{fill:rgb(35,35,35)}.b{fill:#ff5f58}.c{fill:#ffbd2e}.d{fill:#18c132}.e{font-family:'Courier New',Monaco,Consolas,Menlo,'Bitstream Vera Sans Mono','Powerline Symbols',monospace}.f{fill:rgb(126,231,233);white-space:pre}.g{fill:rgb(234,89,246);white-space:pre}.h{fill:rgb(160,160,160);white-space:pre}.i{fill:rgb(102,194,205)}.j{white-space:pre}.k{fill:rgb(124,255,0);white-space:pre}.l{fill:transparent}.m{fill:rgb(160,160,160)}.o{animation-duration:11.870075s;animation-iteration-count:infinite;animation-name:n;animation-timing-function:steps(1,end)}@keyframes n{0%{transform:translateX(-0px)}0.1%{transform:translateX(-80px)}0.1%{transform:translateX(-160px)}8.5%{transform:translateX(-240px)}10.6%{transform:translateX(-320px)}10.6%{transform:translateX(-400px)}12.7%{transform:translateX(-480px)}12.7%{transform:translateX(-560px)}14.8%{transform:translateX(-640px)}16.9%{transform:translateX(-720px)}19%{transform:translateX(-800px)}19%{transform:translateX(-880px)}19%{transform:translateX(-960px)}21.2%{transform:translateX(-1040px)}21.2%{transform:translateX(-1120px)}23.3%{transform:translateX(-1200px)}23.3%{transform:translateX(-1280px)}25.4%{transform:translateX(-1360px)}25.4%{transform:translateX(-1440px)}27.5%{transform:translateX(-1520px)}27.5%{transform:translateX(-1600px)}38%{transform:translateX(-1680px)}38%{transform:translateX(-1760px)}39.3%{transform:translateX(-1840px)}40.6%{transform:translateX(-1920px)}40.6%{transform:translateX(-2000px)}41.8%{transform:translateX(-2080px)}41.8%{transform:translateX(-2160px)}43.1%{transform:translateX(-2240px)}43.1%{transform:translateX(-2320px)}43.1%{transform:translateX(-2400px)}52.8%{transform:translateX(-2480px)}55.3%{transform:translateX(-2560px)}55.3%{transform:translateX(-2640px)}57.9%{transform:translateX(-2720px)}57.9%{transform:translateX(-2800px)}100%{transform:translateX(-2880px)}}</style><g font-family="'Courier New',Monaco, Consolas, Menlo, &#x27;Bitstream Vera Sans Mono&#x27;, &#x27;Powerline Symbols&#x27;, monospace" font-size="1.67" class="e"><defs><symbol id="1"><text x="0" y="1.67" class="f">Please</text><text x="7.013999999999999" y="1.67" class="f">select</text><text x="14.027999999999999" y="1.67" class="f">an</text><text x="17.034" y="1.67" class="f">option</text><text x="24.048" y="1.67" class="g">[type</text><text x="30.059999999999995" y="1.67" class="g">to</text><text x="33.065999999999995" y="1.67" class="g">search]</text><text x="40.08" y="1.67" class="h">:</text></symbol><symbol id="2"><text x="0" y="1.67" class="g">&gt;</text><text x="2.004" y="1.67" class="h">Option</text><text x="9.017999999999999" y="1.67" class="h">0</text></symbol><symbol id="3"><text x="2.004" y="1.67" class="h">Option</text><text x="9.017999999999999" y="1.67" class="h">1</text></symbol><symbol id="4"><text x="2.004" y="1.67" class="h">Option</text><text x="9.017999999999999" y="1.67" class="h">2</text></symbol><symbol id="5"><text x="2.004" y="1.67" class="h">Option</text><text x="9.017999999999999" y="1.67" class="h">3</text></symbol><symbol id="6"><text x="2.004" y="1.67" class="h">Option</text><text x="9.017999999999999" y="1.67" class="h">4</text></symbol><symbol id="7"><text x="2.004" y="1.67" class="h">Option</text><text x="9.017999999999999" y="1.67" class="h">0</text></symbol><symbol id="8"><text x="0" y="1.67" class="g">&gt;</text><text x="2.004" y="1.67" class="h">Option</text><text x="9.017999999999999" y="1.67" class="h">1</text></symbol><symbol id="9"><text x="2.004" y="1.67" class="h">Option</text><text x="9.017999999999999" y="1.67" class="h">5</text></symbol><symbol id="10"><text x="2.004" y="1.67" class="h">Option</text><text x="9.017999999999999" y="1.67" class="h">6</text></symbol><symbol id="11"><text x="2.004" y="1.67" class="h">Option</text><text x="9.017999999999999" y="1.67" class="h">7</text></symbol><symbol id="12"><text x="2.004" y="1.67" class="h">Option</text><text x="9.017999999999999" y="1.67" class="h">8</text></symbol><symbol id="13"><text x="0" y="1.67" class="g">&gt;</text><text x="2.004" y="1.67" class="h">You</text><text x="6.012" y="1.67" class="h">can</text><text x="10.02" y="1.67" class="h">use</text><text x="14.027999999999999" y="1.67" class="h">fuzzy</text><text x="20.04" y="1.67" class="h">searching</text><text x="30.059999999999995" y="1.67" class="h">(0)</text></symbol><symbol id="14"><text x="2.004" y="1.67" class="h">You</text><text x="6.012" y="1.67" class="h">can</text><text x="10.02" y="1.67" class="h">use</text><text x="14.027999999999999" y="1.67" class="h">fuzzy</text><text x="20.04" y="1.67" class="h">searching</text><text x="30.059999999999995" y="1.67" class="h">(1)</text></symbol><symbol id="15"><text x="2.004" y="1.67" class="h">You</text><text x="6.012" y="1.67" class="h">can</text><text x="10.02" y="1.67" class="h">use</text><text x="14.027999999999999" y="1.67" class="h">fuzzy</text><text x="20.04" y="1.67" class="h">searching</text><text x="30.059999999999995" y="1.67" class="h">(2)</text></symbol><symbol id="16"><text x="2.004" y="1.67" class="h">You</text><text x="6.012" y="1.67" class="h">can</text><text x="10.02" y="1.67" class="h">use</text><text x="14.027999999999999" y="1.67" class="h">fuzzy</text><text x="20.04" y="1.67" class="h">searching</text><text x="30.059999999999995" y="1.67" class="h">(3)</text></symbol><symbol id="17"><text x="2.004" y="1.67" class="h">You</text><text x="6.012" y="1.67" class="h">can</text><text x="10.02" y="1.67" class="h">use</text><text x="14.027999999999999" y="1.67" class="h">fuzzy</text><text x="20.04" y="1.67" class="h">searching</text><text x="30.059999999999995" y="1.67" class="h">(4)</text></symbol><symbol id="18"><text x="0" y="1.67" class="f">Please</text><text x="7.013999999999999" y="1.67" class="f">select</text><text x="14.027999999999999" y="1.67" class="f">an</text><text x="17.034" y="1.67" class="f">option</text><text x="24.048" y="1.67" class="g">[type</text><text x="30.059999999999995" y="1.67" class="g">to</text><text x="33.065999999999995" y="1.67" class="g">search]</text><text x="40.08" y="1.67" class="h">:</text><text x="42.083999999999996" y="1.67" class="h">fuz</text></symbol><symbol id="19"><text x="0" y="1.67" class="f">Please</text><text x="7.013999999999999" y="1.67" class="f">select</text><text x="14.027999999999999" y="1.67" class="f">an</text><text x="17.034" y="1.67" class="f">option</text><text x="24.048" y="1.67" class="g">[type</text><text x="30.059999999999995" y="1.67" class="g">to</text><text x="33.065999999999995" y="1.67" class="g">search]</text><text x="40.08" y="1.67" class="h">:</text><text x="42.083999999999996" y="1.67" class="h">fuzz</text></symbol><symbol id="20"><text x="0" y="1.67" class="f">Please</text><text x="7.013999999999999" y="1.67" class="f">select</text><text x="14.027999999999999" y="1.67" class="f">an</text><text x="17.034" y="1.67" class="f">option</text><text x="24.048" y="1.67" class="g">[type</text><text x="30.059999999999995" y="1.67" class="g">to</text><text x="33.065999999999995" y="1.67" class="g">search]</text><text x="40.08" y="1.67" class="h">:</text><text x="42.083999999999996" y="1.67" class="h">fuzzy</text></symbol><symbol id="21"><text x="2.004" y="1.67" class="h">You</text><text x="6.012" y="1.67" class="h">can</text><text x="10.02" y="1.67" class="h">use</text><text x="14.027999999999999" y="1.67" class="h">fuzzy</text><text x="20.04" y="1.67" class="h">searching</text><text x="30.059999999999995" y="1.67" class="h">(0)</text></symbol><symbol id="22"><text x="0" y="1.67" class="f">Please</text><text x="7.013999999999999" y="1.67" class="f">select</text><text x="14.027999999999999" y="1.67" class="f">an</text><text x="17.034" y="1.67" class="f">option</text><text x="23.045999999999996" y="1.67" class="h">:</text><text x="25.05" y="1.67" class="h">fuzzy</text></symbol><symbol id="23"><text x="2.004" y="1.67" class="g">&gt;</text><text x="4.008" y="1.67" class="h">You</text><text x="8.016" y="1.67" class="h">can</text><text x="12.024" y="1.67" class="h">use</text><text x="16.032" y="1.67" class="h">fuzzy</text><text x="22.043999999999997" y="1.67" class="h">searching</text><text x="32.064" y="1.67" class="h">(2)</text></symbol><symbol id="24"><rect height="2.171" width="6" x="0" y="0" class="i"></rect><text x="0" y="1.67" class="j"> INFO </text><text x="7.013999999999999" y="1.67" class="f">Selected</text><text x="16.032" y="1.67" class="f">option:</text><text x="24.048" y="1.67" class="k">You</text><text x="28.055999999999997" y="1.67" class="k">can</text><text x="32.064" y="1.67" class="k">use</text><text x="36.071999999999996" y="1.67" class="k">fuzzy</text><text x="42.083999999999996" y="1.67" class="k">searching</text><text x="52.104" y="1.67" class="k">(2)</text></symbol><symbol id="a"><rect height="24" width="80" x="0" y="0" class="l"></rect></symbol><symbol id="b"><rect height="2.171" width="1.1022" class="m"></rect></symbol></defs><rect height="52.104" width="80" class="a"></rect><g class="o"><svg x="0" y="0" width="2960"><svg x="0"><use xlink:href="#a"></use><use xlink:href="#b" x="-0.0040000000000000036" y="0"></use></svg><svg x="80"><use xlink:href="#a"></use><use xlink:href="#b" x="-0.0040000000000000036" y="15.171999999999999"></use><use xlink:href="#1" y="0"></use><use xlink:href="#2" y="2.171"></use><use xlink:href="#3" y="4.342"></use><use xlink:href="#4" y="6.513"></use><use xlink:href="#5" y="8.684"></use><use xlink:href="#6" y="10.855"></use></svg><svg x="160"><use xlink:href="#a"></use><use xlink:href="#1" y="0"></use><use xlink:href="#2" y="2.171"></use><use xlink:href="#3" y="4.342"></use><use xlink:href="#4" y="6.513"></use><use xlink:href="#5" y="8.684"></use><use xlink:href="#6" y="10.855"></use></svg><svg x="240"><use xlink:href="#a"></use><use xlink:href="#1" y="0"></use><use xlink:href="#7" y="2.171"></use><use xlink:href="#8" y="4.342"></use><use xlink:href="#4" y="6.513"></use><use xlink:href="#5" y="8.684"></use><use xlink:href="#6" y="10.855"></use></svg><svg x="320"><use xlink:href="#a"></use><use xlink:href="#1" y="0"></use><use xlink:href="#7" y="2.171"></use><use xlink:href="#8" y="4.342"></use><use xlink:href="#4" y="6.513"></use><use xlink:href="#5" y="8.684"></use></svg><svg x="400"><use xlink:href="#a"></use><use xlink:href="#1" y="0"></use><use xlink:href="#7" y="2.171"></use><use xlink:href="#3" y="4.342"></use><text x="0" y="8.183" class="g">&gt;</text><text x="2.004" y="8.183" class="h">Option</text><text x="9.017999999999999" y="8.183" class="h">2</text><use xlink:href="#5" y="8.684"></use><use xlink:href="#6" y="10.855"></use></svg><svg x="480"><use xlink:href="#a"></use><use xlink:href="#1" y="0"></use></svg><svg x="560"><use xlink:href="#a"></use><use xlink:href="#1" y="0"></use><use xlink:href="#7" y="2.171"></use><use xlink:href="#3" y="4.342"></use><use xlink:href="#4" y="6.513"></use><text x="0" y="10.354" class="g">&gt;</text><text x="2.004" y="10.354" class="h">Option</text><text x="9.017999999999999" y="10.354" class="h">3</text><use xlink:href="#6" y="10.855"></use></svg><svg x="640"><use xlink:href="#a"></use><use xlink:href="#1" y="0"></use><use xlink:href="#7" y="2.171"></use><use xlink:href="#3" y="4.342"></use><use xlink:href="#4" y="6.513"></use><use xlink:href="#5" y="8.684"></use><text x="0" y="12.525" class="g">&gt;</text><text x="2.004" y="12.525" class="h">Option</text><text x="9.017999999999999" y="12.525" class="h">4</text></svg><svg x="720"><use xlink:href="#a"></use><use xlink:href="#1" y="0"></use><use xlink:href="#3" y="2.171"></use><use xlink:href="#4" y="4.342"></use><use xlink:href="#5" y="6.513"></use><use xlink:href="#6" y="8.684"></use><text x="0" y="12.525" class="g">&gt;</text><text x="2.004" y="12.525" class="h">Option</text><text x="9.017999999999999" y="12.525" class="h">5</text></svg><svg x="800"><use xlink:href="#a"></use><use xlink:href="#1" y="0"></use><use xlink:href="#3" y="2.171"></use></svg><svg x="880"><use xlink:href="#a"></use><use xlink:href="#1" y="0"></use><use xlink:href="#4" y="2.171"></use></svg><svg x="960"><use xlink:href="#a"></use><use xlink:href="#1" y="0"></use><use xlink:href="#4" y="2.171"></use><use xlink:href="#5" y="4.342"></use><use xlink:href="#6" y="6.513"></use><use xlink:href="#9" y="8.684"></use><text x="0" y="12.525" class="g">&gt;</text><text x="2.004" y="12.525" class="h">Option</text><text x="9.017999999999999" y="12.525" class="h">6</text></svg><svg x="1040"><use xlink:href="#a"></use></svg><svg x="1120"><use xlink:href="#a"></use><use xlink:href="#1" y="0"></use><use xlink:href="#5" y="2.171"></use><use xlink:href="#6" y="4.342"></use><use xlink:href="#9" y="6.513"></use><use xlink:href="#10" y="8.684"></use><text x="0" y="12.525" class="g">&gt;</text><text x="2.004" y="12.525" class="h">Option</text><text x="9.017999999999999" y="12.525" class="h">7</text></svg><svg x="1200"><use xlink:href="#a"></use></svg><svg x="1280"><use xlink:href="#a"></use><use xlink:href="#1" y="0"></use><use xlink:href="#6" y="2.171"></use><use xlink:href="#9" y="4.342"></use><use xlink:href="#10" y="6.513"></use><use xlink:href="#11" y="8.684"></use><text x="0" y="12.525" class="g">&gt;</text><text x="2.004" y="12.525" class="h">Option</text><text x="9.017999999999999" y="12.525" class="h">8</text></svg><svg x="1360"><use xlink:href="#a"></use></svg><svg x="1440"><use xlink:href="#a"></use><use xlink:href="#1" y="0"></use><use xlink:href="#9" y="2.171"></use><use xlink:href="#10" y="4.342"></use><use xlink:href="#11" y="6.513"></use><use xlink:href="#12" y="8.684"></use><text x="0" y="12.525" class="g">&gt;</text><text x="2.004" y="12.525" class="h">Option</text><text x="9.017999999999999" y="12.525" class="h">9</text></svg><svg x="1520"><use xlink:href="#a"></use><use xlink:href="#1" y="0"></use><use xlink:href="#9" y="2.171"></use><use xlink:href="#10" y="4.342"></use></svg><svg x="1600"><use xlink:href="#a"></use><use xlink:href="#1" y="0"></use><use xlink:href="#10" y="2.171"></use><use xlink:href="#11" y="4.342"></use><use xlink:href="#12" y="6.513"></use><text x="2.004" y="10.354" class="h">Option</text><text x="9.017999999999999" y="10.354" class="h">9</text><text x="0" y="12.525" class="g">&gt;</text><text x="2.004" y="12.525" class="h">Option</text><text x="9.017999999999999" y="12.525" class="h">10</text></svg><svg x="1680"><use xlink:href="#a"></use></svg><svg x="1760"><use xlink:href="#a"></use><text x="0" y="1.67" class="f">Please</text><text x="7.013999999999999" y="1.67" class="f">select</text><text x="14.027999999999999" y="1.67" class="f">an</text><text x="17.034" y="1.67" class="f">option</text><text x="24.048" y="1.67" class="g">[type</text><text x="30.059999999999995" y="1.67" class="g">to</text><text x="33.065999999999995" y="1.67" class="g">search]</text><text x="40.08" y="1.67" class="h">:</text><text x="42.083999999999996" y="1.67" class="h">f</text><use xlink:href="#13" y="2.171"></use><use xlink:href="#14" y="4.342"></use><use xlink:href="#15" y="6.513"></use><use xlink:href="#16" y="8.684"></use><use xlink:href="#17" y="10.855"></use></svg><svg x="1840"><use xlink:href="#a"></use><text x="0" y="1.67" class="f">Please</text><text x="7.013999999999999" y="1.67" class="f">select</text><text x="14.027999999999999" y="1.67" class="f">an</text><text x="17.034" y="1.67" class="f">option</text><text x="24.048" y="1.67" class="g">[type</text><text x="30.059999999999995" y="1.67" class="g">to</text><text x="33.065999999999995" y="1.67" class="g">search]</text><text x="40.08" y="1.67" class="h">:</text><text x="42.083999999999996" y="1.67" class="h">fu</text><use xlink:href="#13" y="2.171"></use><use xlink:href="#14" y="4.342"></use><use xlink:href="#15" y="6.513"></use><use xlink:href="#16" y="8.684"></use><use xlink:href="#17" y="10.855"></use></svg><svg x="1920"><use xlink:href="#a"></use><use xlink:href="#18" y="0"></use><use xlink:href="#13" y="2.171"></use><use xlink:href="#14" y="4.342"></use><use xlink:href="#15" y="6.513"></use></svg><svg x="2000"><use xlink:href="#a"></use><use xlink:href="#18" y="0"></use><use xlink:href="#13" y="2.171"></use><use xlink:href="#14" y="4.342"></use><use xlink:href="#15" y="6.513"></use><use xlink:href="#16" y="8.684"></use><use xlink:href="#17" y="10.855"></use></svg><svg x="2080"><use xlink:href="#a"></use><use xlink:href="#18" y="0"></use><use xlink:href="#13" y="2.171"></use><use xlink:href="#14" y="4.342"></use><use xlink:href="#15" y="6.513"></use></svg><svg x="2160"><use xlink:href="#a"></use><use xlink:href="#19" y="0"></use><use xlink:href="#13" y="2.171"></use><use xlink:href="#14" y="4.342"></use><use xlink:href="#15" y="6.513"></use><use xlink:href="#16" y="8.684"></use><use xlink:href="#17" y="10.855"></use></svg><svg x="2240"><use xlink:href="#a"></use><use xlink:href="#19" y="0"></use></svg><svg x="2320"><use xlink:href="#a"></use><use xlink:href="#20" y="0"></use><use xlink:href="#13" y="2.171"></use><use xlink:href="#14" y="4.342"></use><use xlink:href="#15" y="6.513"></use><use xlink:href="#16" y="8.684"></use><use xlink:href="#17" y="10.855"></use></svg><svg x="2400"><use xlink:href="#a"></use><use xlink:href="#20" y="0"></use><use xlink:href="#13" y="2.171"></use><use xlink:href="#14" y="4.342"></use><use xlink:href="#15" y="6.513"></use><use xlink:href="#16" y="8.684"></use><use xlink:href="#17" y="10.855"></use></svg><svg x="2480"><use xlink:href="#a"></use><use xlink:href="#20" y="0"></use><use xlink:href="#21" y="2.171"></use><text x="0" y="6.012" class="g">&gt;</text><text x="2.004" y="6.012" class="h">You</text><text x="6.012" y="6.012" class="h">can</text><text x="10.02" y="6.012" class="h">use</text><text x="14.027999999999999" y="6.012" class="h">fuzzy</text><text x="20.04" y="6.012" class="h">searching</text><text x="30.059999999999995" y="6.012" class="h">(1)</text><use xlink:href="#15" y="6.513"></use><use xlink:href="#16" y="8.684"></use><use xlink:href="#17" y="10.855"></use></svg><svg x="2560"><use xlink:href="#a"></use></svg><svg x="2640"><use xlink:href="#a"></use><use xlink:href="#20" y="0"></use><use xlink:href="#21" y="2.171"></use><use xlink:href="#14" y="4.342"></use><text x="0" y="8.183" class="g">&gt;</text><text x="2.004" y="8.183" class="h">You</text><text x="6.012" y="8.183" class="h">can</text><text x="10.02" y="8.183" class="h">use</text><text x="14.027999999999999" y="8.183" class="h">fuzzy</text><text x="20.04" y="8.183" class="h">searching</text><text x="30.059999999999995" y="8.183" class="h">(2)</text><use xlink:href="#16" y="8.684"></use><use xlink:href="#17" y="10.855"></use></svg><svg x="2720"><use xlink:href="#a"></use><use xlink:href="#b" x="-0.0040000000000000036" y="6.4879999999999995"></use><use xlink:href="#22" y="0"></use><use xlink:href="#23" y="2.171"></use></svg><svg x="2800"><use xlink:href="#a"></use><use xlink:href="#b" x="-0.0040000000000000036" y="8.658999999999999"></use><use xlink:href="#22" y="0"></use><use xlink:href="#23" y="2.171"></use><use xlink:href="#24" y="6.513"></use></svg><svg x="2880"><use xlink:href="#a"></use><use xlink:href="#b" x="22.996" y="13.001"></use><use xlink:href="#22" y="0"></use><use xlink:href="#23" y="2.171"></use><use xlink:href="#24" y="6.513"></use><text x="0" y="12.525" class="h">Restarting</text><text x="11.021999999999998" y="12.525" class="h">animation...</text></svg></svg></g></g></svg></svg>