<svg xmlns="http://www.w3.org/2000/svg" xmlns:xlink="http://www.w3.org/1999/xlink" width="840" height="581.04"><rect width="840" height="581.04" rx="5" ry="5" class="a"></rect><svg y="0%" x="0%"><circle cx="20" cy="20" r="6" class="b"></circle><circle cx="40" cy="20" r="6" class="c"></circle><circle cx="60" cy="20" r="6" class="d"></circle></svg><svg height="521.04" viewBox="0 0 80 52.104" width="800" x="15" xmlns="http://www.w3.org/2000/svg" xmlns:xlink="http://www.w3.org/1999/xlink" y="50"><style>.a{fill:rgb(35,35,35)}.b{fill:#ff5f58}.c{fill:#ffbd2e}.d{fill:#18c132}.e{font-family:Monaco,Consolas,Menlo,'Bitstream Vera Sans Mono','Powerline Symbols',monospace}.f{fill:rgb(160,160,160);white-space:pre}.g{fill:transparent}.i{animation-duration:6.399025s;animation-iteration-count:infinite;animation-name:h;animation-timing-function:steps(1,end)}@keyframes h{0%{transform:translateX(-0px)}21.9%{transform:translateX(-80px)}100%{transform:translateX(-160px)}}</style><g font-family="Monaco, Consolas, Menlo, &#x27;Bitstream Vera Sans Mono&#x27;, &#x27;Powerline Symbols&#x27;, monospace" font-size="1.67" class="e"><defs><symbol id="1"><text x="0" y="1.67" class="f">#</text><text x="2.004" y="1.67" class="f">github.com/pterm/pterm/_examples/print-color-rgb</text></symbol><symbol id="2"><text x="0" y="1.67" class="f">_examples/print-color-rgb/main.go:6:28:</text><text x="40.08" y="1.67" class="f">cannot</text><text x="47.093999999999994" y="1.67" class="f">call</text><text x="52.104" y="1.67" class="f">pointer</text><text x="60.11999999999999" y="1.67" class="f">method</text><text x="67.134" y="1.67" class="f">on</text><text x="70.13999999999999" y="1.67" class="f">pterm.NewR</text></symbol><symbol id="3"><text x="0" y="1.67" class="f">GB(178,</text><text x="8.016" y="1.67" class="f">44,</text><text x="12.024" y="1.67" class="f">199)</text></symbol><symbol id="4"><text x="0" y="1.67" class="f">_examples/print-color-rgb/main.go:6:28:</text><text x="40.08" y="1.67" class="f">cannot</text><text x="47.093999999999994" y="1.67" class="f">take</text><text x="52.104" y="1.67" class="f">the</text><text x="56.111999999999995" y="1.67" class="f">address</text><text x="64.128" y="1.67" class="f">of</text><text x="67.134" y="1.67" class="f">pterm.NewRGB(</text></symbol><symbol id="5"><text x="0" y="1.67" class="f">178,</text><text x="5.01" y="1.67" class="f">44,</text><text x="9.017999999999999" y="1.67" class="f">199)</text></symbol><symbol id="6"><text x="0" y="1.67" class="f">_examples/print-color-rgb/main.go:7:28:</text><text x="40.08" y="1.67" class="f">cannot</text><text x="47.093999999999994" y="1.67" class="f">call</text><text x="52.104" y="1.67" class="f">pointer</text><text x="60.11999999999999" y="1.67" class="f">method</text><text x="67.134" y="1.67" class="f">on</text><text x="70.13999999999999" y="1.67" class="f">pterm.NewR</text></symbol><symbol id="7"><text x="0" y="1.67" class="f">GB(15,</text><text x="7.013999999999999" y="1.67" class="f">199,</text><text x="12.024" y="1.67" class="f">209)</text></symbol><symbol id="8"><text x="0" y="1.67" class="f">_examples/print-color-rgb/main.go:7:28:</text><text x="40.08" y="1.67" class="f">cannot</text><text x="47.093999999999994" y="1.67" class="f">take</text><text x="52.104" y="1.67" class="f">the</text><text x="56.111999999999995" y="1.67" class="f">address</text><text x="64.128" y="1.67" class="f">of</text><text x="67.134" y="1.67" class="f">pterm.NewRGB(</text></symbol><symbol id="9"><text x="0" y="1.67" class="f">15,</text><text x="4.008" y="1.67" class="f">199,</text><text x="9.017999999999999" y="1.67" class="f">209)</text></symbol><symbol id="10"><text x="0" y="1.67" class="f">_examples/print-color-rgb/main.go:8:28:</text><text x="40.08" y="1.67" class="f">cannot</text><text x="47.093999999999994" y="1.67" class="f">call</text><text x="52.104" y="1.67" class="f">pointer</text><text x="60.11999999999999" y="1.67" class="f">method</text><text x="67.134" y="1.67" class="f">on</text><text x="70.13999999999999" y="1.67" class="f">pterm.NewR</text></symbol><symbol id="11"><text x="0" y="1.67" class="f">GB(201,</text><text x="8.016" y="1.67" class="f">144,</text><text x="13.026" y="1.67" class="f">30)</text></symbol><symbol id="12"><text x="0" y="1.67" class="f">_examples/print-color-rgb/main.go:8:28:</text><text x="40.08" y="1.67" class="f">cannot</text><text x="47.093999999999994" y="1.67" class="f">take</text><text x="52.104" y="1.67" class="f">the</text><text x="56.111999999999995" y="1.67" class="f">address</text><text x="64.128" y="1.67" class="f">of</text><text x="67.134" y="1.67" class="f">pterm.NewRGB(</text></symbol><symbol id="13"><text x="0" y="1.67" class="f">201,</text><text x="5.01" y="1.67" class="f">144,</text><text x="10.02" y="1.67" class="f">30)</text></symbol><symbol id="14"><text x="0" y="1.67" class="f">note:</text><text x="6.012" y="1.67" class="f">module</text><text x="13.026" y="1.67" class="f">requires</text><text x="22.043999999999997" y="1.67" class="f">Go</text><text x="25.05" y="1.67" class="f">1.15</text></symbol><symbol id="a"><rect height="24" width="80" x="0" y="0" class="g"></rect></symbol></defs><rect height="52.104" width="80" class="a"></rect><g class="i"><svg x="0" y="0" width="240"><svg x="0"><use xlink:href="#a"></use></svg><svg x="80"><use xlink:href="#a"></use><use xlink:href="#1" y="0"></use><use xlink:href="#2" y="2.171"></use><use xlink:href="#3" y="4.342"></use><use xlink:href="#4" y="6.513"></use><use xlink:href="#5" y="8.684"></use><use xlink:href="#6" y="10.855"></use><use xlink:href="#7" y="13.026"></use><use xlink:href="#8" y="15.197"></use><use xlink:href="#9" y="17.368"></use><use xlink:href="#10" y="19.539"></use><use xlink:href="#11" y="21.71"></use><use xlink:href="#12" y="23.880999999999997"></use><use xlink:href="#13" y="26.052"></use><use xlink:href="#14" y="28.223000000000003"></use></svg><svg x="160"><use xlink:href="#a"></use><use xlink:href="#1" y="0"></use><use xlink:href="#2" y="2.171"></use><use xlink:href="#3" y="4.342"></use><use xlink:href="#4" y="6.513"></use><use xlink:href="#5" y="8.684"></use><use xlink:href="#6" y="10.855"></use><use xlink:href="#7" y="13.026"></use><use xlink:href="#8" y="15.197"></use><use xlink:href="#9" y="17.368"></use><use xlink:href="#10" y="19.539"></use><use xlink:href="#11" y="21.71"></use><use xlink:href="#12" y="23.880999999999997"></use><use xlink:href="#13" y="26.052"></use><use xlink:href="#14" y="28.223000000000003"></use><text x="0" y="34.235" class="f">restarting...</text></svg></svg></g></g></svg></svg>