<svg xmlns="http://www.w3.org/2000/svg" xmlns:xlink="http://www.w3.org/1999/xlink" width="840" height="581.04"><rect width="840" height="581.04" rx="5" ry="5" class="a"></rect><svg y="0%" x="0%"><circle cx="20" cy="20" r="6" class="b"></circle><circle cx="40" cy="20" r="6" class="c"></circle><circle cx="60" cy="20" r="6" class="d"></circle></svg><svg height="521.04" viewBox="0 0 80 52.104" width="800" x="15" xmlns="http://www.w3.org/2000/svg" xmlns:xlink="http://www.w3.org/1999/xlink" y="50"><style>.e, .g, .f {
	font-family:
			'Courier New'
			Roboto,
			Helvetica,
			Arial,
			sans-serif,
			'Apple Color Emoji',
			'Segoe UI Emoji' !important;
}.a{fill:rgb(35,35,35)}.b{fill:#ff5f58}.c{fill:#ffbd2e}.d{fill:#18c132}.e{font-family:'Courier New',Monaco,Consolas,Menlo,'Bitstream Vera Sans Mono','Powerline Symbols',monospace}.f{fill:rgb(102,194,205)}.g{white-space:pre}.h{fill:rgb(126,231,233);white-space:pre}.i{fill:rgb(160,160,160);white-space:pre}.j{fill:transparent}.l{animation-duration:14.01524s;animation-iteration-count:infinite;animation-name:k;animation-timing-function:steps(1,end)}@keyframes k{0%{transform:translateX(-0px)}0%{transform:translateX(-80px)}0.1%{transform:translateX(-160px)}0.1%{transform:translateX(-240px)}7.2%{transform:translateX(-320px)}7.2%{transform:translateX(-400px)}7.2%{transform:translateX(-480px)}14.3%{transform:translateX(-560px)}14.3%{transform:translateX(-640px)}21.5%{transform:translateX(-720px)}21.5%{transform:translateX(-800px)}28.6%{transform:translateX(-880px)}28.6%{transform:translateX(-960px)}35.8%{transform:translateX(-1040px)}35.8%{transform:translateX(-1120px)}35.8%{transform:translateX(-1200px)}42.9%{transform:translateX(-1280px)}42.9%{transform:translateX(-1360px)}42.9%{transform:translateX(-1440px)}50%{transform:translateX(-1520px)}50%{transform:translateX(-1600px)}50%{transform:translateX(-1680px)}57.2%{transform:translateX(-1760px)}57.2%{transform:translateX(-1840px)}57.2%{transform:translateX(-1920px)}64.3%{transform:translateX(-2000px)}64.3%{transform:translateX(-2080px)}64.3%{transform:translateX(-2160px)}100%{transform:translateX(-2240px)}}</style><g font-family="'Courier New',Monaco, Consolas, Menlo, &#x27;Bitstream Vera Sans Mono&#x27;, &#x27;Powerline Symbols&#x27;, monospace" font-size="1.67" class="e"><defs><symbol id="1"><rect height="2.171" width="6" x="0" y="0" class="f"></rect><text x="0" y="1.67" class="g"> INFO </text><text x="7.013999999999999" y="1.67" class="h">The</text><text x="11.021999999999998" y="1.67" class="h">previous</text><text x="20.04" y="1.67" class="h">text</text><text x="25.05" y="1.67" class="h">will</text><text x="30.059999999999995" y="1.67" class="h">stay</text><text x="35.06999999999999" y="1.67" class="h">in</text><text x="38.07599999999999" y="1.67" class="h">place,</text><text x="45.089999999999996" y="1.67" class="h">while</text><text x="51.102" y="1.67" class="h">the</text><text x="55.10999999999999" y="1.67" class="h">area</text><text x="60.11999999999999" y="1.67" class="h">updates.</text></symbol><symbol id="2"><text x="13.026" y="1.67" class="i">██████</text><text x="21.041999999999998" y="1.67" class="i">██████</text><text x="32.064" y="1.67" class="i">███████</text><text x="40.08" y="1.67" class="i">███████</text><text x="51.102" y="1.67" class="i">██████</text><text x="60.11999999999999" y="1.67" class="i">█████</text></symbol><symbol id="3"><text x="12.024" y="1.67" class="i">██</text><text x="16.032" y="1.67" class="i">████</text><text x="26.052" y="1.67" class="i">██</text><text x="29.058" y="1.67" class="i">██</text><text x="32.064" y="1.67" class="i">██</text><text x="40.08" y="1.67" class="i">██</text><text x="48.096" y="1.67" class="i">██</text><text x="56.111999999999995" y="1.67" class="i">██</text><text x="59.117999999999995" y="1.67" class="i">██</text><text x="64.128" y="1.67" class="i">██</text></symbol><symbol id="4"><text x="12.024" y="1.67" class="i">██</text><text x="15.029999999999998" y="1.67" class="i">██</text><text x="18.035999999999998" y="1.67" class="i">██</text><text x="22.043999999999997" y="1.67" class="i">█████</text><text x="32.064" y="1.67" class="i">███████</text><text x="40.08" y="1.67" class="i">███████</text><text x="52.104" y="1.67" class="i">█████</text><text x="60.11999999999999" y="1.67" class="i">█████</text></symbol><symbol id="5"><text x="12.024" y="1.67" class="i">████</text><text x="18.035999999999998" y="1.67" class="i">██</text><text x="26.052" y="1.67" class="i">██</text></symbol><symbol id="6"><text x="13.026" y="1.67" class="i">██████</text><text x="21.041999999999998" y="1.67" class="i">██████</text><text x="29.058" y="1.67" class="i">██</text><text x="32.064" y="1.67" class="i">███████</text><text x="40.08" y="1.67" class="i">███████</text><text x="48.096" y="1.67" class="i">██</text><text x="51.102" y="1.67" class="i">███████</text><text x="60.11999999999999" y="1.67" class="i">█████</text></symbol><symbol id="7"><text x="12.024" y="1.67" class="i">██</text><text x="15.029999999999998" y="1.67" class="i">██</text><text x="18.035999999999998" y="1.67" class="i">██</text><text x="22.043999999999997" y="1.67" class="i">█████</text><text x="32.064" y="1.67" class="i">███████</text><text x="40.08" y="1.67" class="i">███████</text><text x="52.104" y="1.67" class="i">█████</text><text x="60.11999999999999" y="1.67" class="i">██████</text></symbol><symbol id="8"><text x="12.024" y="1.67" class="i">████</text><text x="18.035999999999998" y="1.67" class="i">██</text><text x="26.052" y="1.67" class="i">██</text><text x="37.074" y="1.67" class="i">██</text><text x="45.089999999999996" y="1.67" class="i">██</text></symbol><symbol id="9"><text x="13.026" y="1.67" class="i">██████</text><text x="21.041999999999998" y="1.67" class="i">██████</text><text x="32.064" y="1.67" class="i">███████</text><text x="40.08" y="1.67" class="i">███████</text><text x="51.102" y="1.67" class="i">██████</text><text x="60.11999999999999" y="1.67" class="i">██████</text></symbol><symbol id="10"><text x="12.024" y="1.67" class="i">██</text><text x="16.032" y="1.67" class="i">████</text><text x="26.052" y="1.67" class="i">██</text><text x="29.058" y="1.67" class="i">██</text><text x="32.064" y="1.67" class="i">██</text><text x="40.08" y="1.67" class="i">██</text><text x="48.096" y="1.67" class="i">██</text><text x="56.111999999999995" y="1.67" class="i">██</text><text x="59.117999999999995" y="1.67" class="i">██</text><text x="63.12599999999999" y="1.67" class="i">████</text></symbol><symbol id="11"><text x="12.024" y="1.67" class="i">██</text><text x="15.029999999999998" y="1.67" class="i">██</text><text x="18.035999999999998" y="1.67" class="i">██</text><text x="22.043999999999997" y="1.67" class="i">█████</text><text x="32.064" y="1.67" class="i">███████</text><text x="40.08" y="1.67" class="i">███████</text><text x="52.104" y="1.67" class="i">█████</text><text x="59.117999999999995" y="1.67" class="i">██</text><text x="62.123999999999995" y="1.67" class="i">██</text><text x="65.13" y="1.67" class="i">██</text></symbol><symbol id="12"><text x="13.026" y="1.67" class="i">██████</text><text x="21.041999999999998" y="1.67" class="i">██████</text><text x="29.058" y="1.67" class="i">██</text><text x="32.064" y="1.67" class="i">███████</text><text x="40.08" y="1.67" class="i">███████</text><text x="48.096" y="1.67" class="i">██</text><text x="51.102" y="1.67" class="i">██████</text><text x="60.11999999999999" y="1.67" class="i">██████</text></symbol><symbol id="13"><text x="15.029999999999998" y="1.67" class="i">██████</text><text x="23.045999999999996" y="1.67" class="i">██████</text><text x="34.068" y="1.67" class="i">███████</text><text x="42.083999999999996" y="1.67" class="i">███████</text><text x="53.105999999999995" y="1.67" class="i">██████</text><text x="62.123999999999995" y="1.67" class="i">██</text></symbol><symbol id="14"><text x="14.027999999999999" y="1.67" class="i">██</text><text x="18.035999999999998" y="1.67" class="i">████</text><text x="28.055999999999997" y="1.67" class="i">██</text><text x="31.061999999999998" y="1.67" class="i">██</text><text x="34.068" y="1.67" class="i">██</text><text x="42.083999999999996" y="1.67" class="i">██</text><text x="50.1" y="1.67" class="i">██</text><text x="58.116" y="1.67" class="i">██</text><text x="61.12199999999999" y="1.67" class="i">███</text></symbol><symbol id="15"><text x="14.027999999999999" y="1.67" class="i">██</text><text x="17.034" y="1.67" class="i">██</text><text x="20.04" y="1.67" class="i">██</text><text x="24.048" y="1.67" class="i">█████</text><text x="34.068" y="1.67" class="i">███████</text><text x="42.083999999999996" y="1.67" class="i">███████</text><text x="54.108" y="1.67" class="i">█████</text><text x="62.123999999999995" y="1.67" class="i">██</text></symbol><symbol id="16"><text x="13.026" y="1.67" class="i">██████</text><text x="21.041999999999998" y="1.67" class="i">██████</text><text x="32.064" y="1.67" class="i">███████</text><text x="40.08" y="1.67" class="i">███████</text><text x="51.102" y="1.67" class="i">██████</text><text x="59.117999999999995" y="1.67" class="i">██████</text></symbol><symbol id="17"><text x="12.024" y="1.67" class="i">██</text><text x="16.032" y="1.67" class="i">████</text><text x="26.052" y="1.67" class="i">██</text><text x="29.058" y="1.67" class="i">██</text><text x="32.064" y="1.67" class="i">██</text><text x="40.08" y="1.67" class="i">██</text><text x="48.096" y="1.67" class="i">██</text><text x="56.111999999999995" y="1.67" class="i">██</text><text x="64.128" y="1.67" class="i">██</text></symbol><symbol id="18"><text x="13.026" y="1.67" class="i">██████</text><text x="21.041999999999998" y="1.67" class="i">██████</text><text x="29.058" y="1.67" class="i">██</text><text x="32.064" y="1.67" class="i">███████</text><text x="40.08" y="1.67" class="i">███████</text><text x="48.096" y="1.67" class="i">██</text><text x="51.102" y="1.67" class="i">██████</text><text x="59.117999999999995" y="1.67" class="i">███████</text></symbol><symbol id="19"><text x="12.024" y="1.67" class="i">████</text><text x="18.035999999999998" y="1.67" class="i">██</text><text x="26.052" y="1.67" class="i">██</text><text x="37.074" y="1.67" class="i">██</text><text x="45.089999999999996" y="1.67" class="i">██</text><text x="56.111999999999995" y="1.67" class="i">██</text><text x="64.128" y="1.67" class="i">██</text></symbol><symbol id="20"><text x="13.026" y="1.67" class="i">██████</text><text x="21.041999999999998" y="1.67" class="i">██████</text><text x="32.064" y="1.67" class="i">███████</text><text x="40.08" y="1.67" class="i">███████</text><text x="51.102" y="1.67" class="i">██████</text><text x="59.117999999999995" y="1.67" class="i">██</text><text x="64.128" y="1.67" class="i">██</text></symbol><symbol id="21"><text x="12.024" y="1.67" class="i">██</text><text x="15.029999999999998" y="1.67" class="i">██</text><text x="18.035999999999998" y="1.67" class="i">██</text><text x="22.043999999999997" y="1.67" class="i">█████</text><text x="32.064" y="1.67" class="i">███████</text><text x="40.08" y="1.67" class="i">███████</text><text x="52.104" y="1.67" class="i">█████</text><text x="59.117999999999995" y="1.67" class="i">███████</text></symbol><symbol id="22"><text x="13.026" y="1.67" class="i">██████</text><text x="21.041999999999998" y="1.67" class="i">██████</text><text x="32.064" y="1.67" class="i">███████</text><text x="40.08" y="1.67" class="i">███████</text><text x="51.102" y="1.67" class="i">██████</text><text x="59.117999999999995" y="1.67" class="i">███████</text></symbol><symbol id="23"><text x="12.024" y="1.67" class="i">██</text><text x="16.032" y="1.67" class="i">████</text><text x="26.052" y="1.67" class="i">██</text><text x="29.058" y="1.67" class="i">██</text><text x="32.064" y="1.67" class="i">██</text><text x="40.08" y="1.67" class="i">██</text><text x="48.096" y="1.67" class="i">██</text><text x="56.111999999999995" y="1.67" class="i">██</text><text x="59.117999999999995" y="1.67" class="i">██</text></symbol><symbol id="24"><text x="12.024" y="1.67" class="i">██</text><text x="15.029999999999998" y="1.67" class="i">██</text><text x="18.035999999999998" y="1.67" class="i">██</text><text x="22.043999999999997" y="1.67" class="i">█████</text><text x="32.064" y="1.67" class="i">███████</text><text x="40.08" y="1.67" class="i">███████</text><text x="52.104" y="1.67" class="i">█████</text><text x="63.12599999999999" y="1.67" class="i">██</text></symbol><symbol id="25"><text x="12.024" y="1.67" class="i">████</text><text x="18.035999999999998" y="1.67" class="i">██</text><text x="26.052" y="1.67" class="i">██</text><text x="37.074" y="1.67" class="i">██</text><text x="45.089999999999996" y="1.67" class="i">██</text><text x="56.111999999999995" y="1.67" class="i">██</text><text x="62.123999999999995" y="1.67" class="i">██</text></symbol><symbol id="26"><text x="13.026" y="1.67" class="i">██████</text><text x="21.041999999999998" y="1.67" class="i">██████</text><text x="29.058" y="1.67" class="i">██</text><text x="32.064" y="1.67" class="i">███████</text><text x="40.08" y="1.67" class="i">███████</text><text x="48.096" y="1.67" class="i">██</text><text x="51.102" y="1.67" class="i">██████</text><text x="62.123999999999995" y="1.67" class="i">██</text></symbol><symbol id="a"><rect height="24" width="80" x="0" y="0" class="j"></rect></symbol></defs><rect height="52.104" width="80" class="a"></rect><g class="l"><svg x="0" y="0" width="2320"><svg x="0"><use xlink:href="#a"></use></svg><svg x="80"><use xlink:href="#a"></use><use xlink:href="#1" y="0"></use></svg><svg x="160"><use xlink:href="#a"></use><use xlink:href="#1" y="0"></use><use xlink:href="#2" y="6.513"></use><use xlink:href="#3" y="8.684"></use><use xlink:href="#4" y="10.855"></use><use xlink:href="#5" y="13.026"></use></svg><svg x="240"><use xlink:href="#a"></use><use xlink:href="#1" y="0"></use><use xlink:href="#2" y="6.513"></use><use xlink:href="#3" y="8.684"></use><use xlink:href="#4" y="10.855"></use><text x="12.024" y="14.696" class="i">████</text><text x="18.035999999999998" y="14.696" class="i">██</text><text x="26.052" y="14.696" class="i">██</text><text x="37.074" y="14.696" class="i">██</text><text x="45.089999999999996" y="14.696" class="i">██</text><text x="51.102" y="14.696" class="i">██</text><text x="59.117999999999995" y="14.696" class="i">██</text><text x="64.128" y="14.696" class="i">██</text><use xlink:href="#6" y="15.197"></use></svg><svg x="320"><use xlink:href="#a"></use><use xlink:href="#1" y="0"></use></svg><svg x="400"><use xlink:href="#a"></use><use xlink:href="#1" y="0"></use><use xlink:href="#2" y="6.513"></use><use xlink:href="#3" y="8.684"></use><use xlink:href="#7" y="10.855"></use><use xlink:href="#8" y="13.026"></use></svg><svg x="480"><use xlink:href="#a"></use><use xlink:href="#1" y="0"></use><use xlink:href="#2" y="6.513"></use><use xlink:href="#3" y="8.684"></use><use xlink:href="#7" y="10.855"></use><text x="12.024" y="14.696" class="i">████</text><text x="18.035999999999998" y="14.696" class="i">██</text><text x="26.052" y="14.696" class="i">██</text><text x="37.074" y="14.696" class="i">██</text><text x="45.089999999999996" y="14.696" class="i">██</text><text x="51.102" y="14.696" class="i">██</text><text x="64.128" y="14.696" class="i">██</text><use xlink:href="#6" y="15.197"></use></svg><svg x="560"><use xlink:href="#a"></use><use xlink:href="#1" y="0"></use><use xlink:href="#9" y="6.513"></use><use xlink:href="#10" y="8.684"></use><use xlink:href="#11" y="10.855"></use><use xlink:href="#5" y="13.026"></use></svg><svg x="640"><use xlink:href="#a"></use><use xlink:href="#1" y="0"></use><use xlink:href="#9" y="6.513"></use><use xlink:href="#10" y="8.684"></use><use xlink:href="#11" y="10.855"></use><text x="12.024" y="14.696" class="i">████</text><text x="18.035999999999998" y="14.696" class="i">██</text><text x="26.052" y="14.696" class="i">██</text><text x="37.074" y="14.696" class="i">██</text><text x="45.089999999999996" y="14.696" class="i">██</text><text x="56.111999999999995" y="14.696" class="i">██</text><text x="59.117999999999995" y="14.696" class="i">████</text><text x="65.13" y="14.696" class="i">██</text><use xlink:href="#12" y="15.197"></use></svg><svg x="720"><use xlink:href="#a"></use><use xlink:href="#1" y="0"></use><use xlink:href="#13" y="6.513"></use><use xlink:href="#14" y="8.684"></use><use xlink:href="#15" y="10.855"></use><text x="14.027999999999999" y="14.696" class="i">████</text><text x="20.04" y="14.696" class="i">██</text><text x="28.055999999999997" y="14.696" class="i">██</text><text x="39.077999999999996" y="14.696" class="i">██</text></svg><svg x="800"><use xlink:href="#a"></use><use xlink:href="#1" y="0"></use><use xlink:href="#13" y="6.513"></use><use xlink:href="#14" y="8.684"></use><use xlink:href="#15" y="10.855"></use><text x="14.027999999999999" y="14.696" class="i">████</text><text x="20.04" y="14.696" class="i">██</text><text x="28.055999999999997" y="14.696" class="i">██</text><text x="39.077999999999996" y="14.696" class="i">██</text><text x="47.093999999999994" y="14.696" class="i">██</text><text x="58.116" y="14.696" class="i">██</text><text x="62.123999999999995" y="14.696" class="i">██</text><text x="15.029999999999998" y="16.866999999999997" class="i">██████</text><text x="23.045999999999996" y="16.866999999999997" class="i">██████</text><text x="31.061999999999998" y="16.866999999999997" class="i">██</text><text x="34.068" y="16.866999999999997" class="i">███████</text><text x="42.083999999999996" y="16.866999999999997" class="i">███████</text><text x="50.1" y="16.866999999999997" class="i">██</text><text x="53.105999999999995" y="16.866999999999997" class="i">██████</text><text x="62.123999999999995" y="16.866999999999997" class="i">██</text></svg><svg x="880"><use xlink:href="#a"></use><use xlink:href="#1" y="0"></use><use xlink:href="#16" y="6.513"></use><use xlink:href="#17" y="8.684"></use><use xlink:href="#4" y="10.855"></use><text x="12.024" y="14.696" class="i">████</text><text x="18.035999999999998" y="14.696" class="i">██</text><text x="26.052" y="14.696" class="i">██</text><text x="37.074" y="14.696" class="i">██</text></svg><svg x="960"><use xlink:href="#a"></use><use xlink:href="#1" y="0"></use><use xlink:href="#16" y="6.513"></use><use xlink:href="#17" y="8.684"></use><use xlink:href="#4" y="10.855"></use><text x="12.024" y="14.696" class="i">████</text><text x="18.035999999999998" y="14.696" class="i">██</text><text x="26.052" y="14.696" class="i">██</text><text x="37.074" y="14.696" class="i">██</text><text x="45.089999999999996" y="14.696" class="i">██</text><text x="56.111999999999995" y="14.696" class="i">██</text><text x="59.117999999999995" y="14.696" class="i">██</text><use xlink:href="#18" y="15.197"></use></svg><svg x="1040"><use xlink:href="#a"></use><use xlink:href="#1" y="0"></use><use xlink:href="#16" y="6.513"></use><use xlink:href="#17" y="8.684"></use><use xlink:href="#4" y="10.855"></use></svg><svg x="1120"><use xlink:href="#a"></use><use xlink:href="#1" y="0"></use><use xlink:href="#16" y="6.513"></use><use xlink:href="#17" y="8.684"></use><use xlink:href="#4" y="10.855"></use><use xlink:href="#8" y="13.026"></use></svg><svg x="1200"><use xlink:href="#a"></use><use xlink:href="#1" y="0"></use><use xlink:href="#16" y="6.513"></use><use xlink:href="#17" y="8.684"></use><use xlink:href="#4" y="10.855"></use><use xlink:href="#19" y="13.026"></use><text x="13.026" y="16.866999999999997" class="i">██████</text><text x="21.041999999999998" y="16.866999999999997" class="i">██████</text><text x="29.058" y="16.866999999999997" class="i">██</text><text x="32.064" y="16.866999999999997" class="i">███████</text><text x="40.08" y="16.866999999999997" class="i">███████</text><text x="48.096" y="16.866999999999997" class="i">██</text><text x="51.102" y="16.866999999999997" class="i">██████</text><text x="59.117999999999995" y="16.866999999999997" class="i">██████</text></svg><svg x="1280"><use xlink:href="#a"></use><use xlink:href="#1" y="0"></use><use xlink:href="#16" y="6.513"></use></svg><svg x="1360"><use xlink:href="#a"></use><use xlink:href="#1" y="0"></use><use xlink:href="#20" y="6.513"></use><use xlink:href="#3" y="8.684"></use><use xlink:href="#21" y="10.855"></use><use xlink:href="#8" y="13.026"></use></svg><svg x="1440"><use xlink:href="#a"></use><use xlink:href="#1" y="0"></use><use xlink:href="#20" y="6.513"></use><use xlink:href="#3" y="8.684"></use><use xlink:href="#21" y="10.855"></use><use xlink:href="#19" y="13.026"></use><text x="13.026" y="16.866999999999997" class="i">██████</text><text x="21.041999999999998" y="16.866999999999997" class="i">██████</text><text x="29.058" y="16.866999999999997" class="i">██</text><text x="32.064" y="16.866999999999997" class="i">███████</text><text x="40.08" y="16.866999999999997" class="i">███████</text><text x="48.096" y="16.866999999999997" class="i">██</text><text x="51.102" y="16.866999999999997" class="i">██████</text><text x="64.128" y="16.866999999999997" class="i">██</text></svg><svg x="1520"><use xlink:href="#a"></use><use xlink:href="#1" y="0"></use><use xlink:href="#20" y="6.513"></use><use xlink:href="#3" y="8.684"></use><use xlink:href="#21" y="10.855"></use></svg><svg x="1600"><use xlink:href="#a"></use><use xlink:href="#1" y="0"></use><use xlink:href="#22" y="6.513"></use><use xlink:href="#23" y="8.684"></use><use xlink:href="#21" y="10.855"></use><use xlink:href="#8" y="13.026"></use></svg><svg x="1680"><use xlink:href="#a"></use><use xlink:href="#1" y="0"></use><use xlink:href="#22" y="6.513"></use><use xlink:href="#23" y="8.684"></use><use xlink:href="#21" y="10.855"></use><use xlink:href="#19" y="13.026"></use><use xlink:href="#18" y="15.197"></use></svg><svg x="1760"><use xlink:href="#a"></use><use xlink:href="#1" y="0"></use></svg><svg x="1840"><use xlink:href="#a"></use><use xlink:href="#1" y="0"></use><use xlink:href="#9" y="6.513"></use><use xlink:href="#23" y="8.684"></use><use xlink:href="#21" y="10.855"></use><use xlink:href="#8" y="13.026"></use></svg><svg x="1920"><use xlink:href="#a"></use><use xlink:href="#1" y="0"></use><use xlink:href="#9" y="6.513"></use><use xlink:href="#23" y="8.684"></use><use xlink:href="#21" y="10.855"></use><text x="12.024" y="14.696" class="i">████</text><text x="18.035999999999998" y="14.696" class="i">██</text><text x="26.052" y="14.696" class="i">██</text><text x="37.074" y="14.696" class="i">██</text><text x="45.089999999999996" y="14.696" class="i">██</text><text x="56.111999999999995" y="14.696" class="i">██</text><text x="59.117999999999995" y="14.696" class="i">██</text><text x="65.13" y="14.696" class="i">██</text><use xlink:href="#12" y="15.197"></use></svg><svg x="2000"><use xlink:href="#a"></use><use xlink:href="#1" y="0"></use></svg><svg x="2080"><use xlink:href="#a"></use><use xlink:href="#1" y="0"></use><use xlink:href="#22" y="6.513"></use><use xlink:href="#17" y="8.684"></use><use xlink:href="#24" y="10.855"></use><use xlink:href="#8" y="13.026"></use></svg><svg x="2160"><use xlink:href="#a"></use><use xlink:href="#1" y="0"></use><use xlink:href="#22" y="6.513"></use><use xlink:href="#17" y="8.684"></use><use xlink:href="#24" y="10.855"></use><use xlink:href="#25" y="13.026"></use><use xlink:href="#26" y="15.197"></use></svg><svg x="2240"><use xlink:href="#a"></use><use xlink:href="#1" y="0"></use><use xlink:href="#22" y="6.513"></use><use xlink:href="#17" y="8.684"></use><use xlink:href="#24" y="10.855"></use><use xlink:href="#25" y="13.026"></use><use xlink:href="#26" y="15.197"></use><text x="0" y="25.550999999999995" class="i">Restarting</text><text x="11.021999999999998" y="25.550999999999995" class="i">animation...</text></svg></svg></g></g></svg></svg>