<svg xmlns="http://www.w3.org/2000/svg" xmlns:xlink="http://www.w3.org/1999/xlink" width="2560" height="472.48999999999995"><rect width="2560" height="472.48999999999995" rx="5" ry="5" class="a"></rect><svg y="0%" x="0%"><circle cx="20" cy="20" r="6" class="b"></circle><circle cx="40" cy="20" r="6" class="c"></circle><circle cx="60" cy="20" r="6" class="d"></circle></svg><svg height="412.48999999999995" viewBox="0 0 252 41.248999999999995" width="2520" x="15" xmlns="http://www.w3.org/2000/svg" xmlns:xlink="http://www.w3.org/1999/xlink" y="50"><style>.e, .g, .f {
	font-family:
			'Courier New'
			Roboto,
			Helvetica,
			Arial,
			sans-serif,
			'Apple Color Emoji',
			'Segoe UI Emoji' !important;
}.a{fill:rgb(35,35,35)}.b{fill:#ff5f58}.c{fill:#ffbd2e}.d{fill:#18c132}.e{font-family:'JetBrainsMono',Monaco,Consolas,Menlo,'Bitstream Vera Sans Mono','Powerline Symbols',monospace}.f{fill:rgb(102,194,205)}.g{white-space:pre}.h{fill:rgb(126,231,233);white-space:pre}.i{fill:rgb(160,160,160);white-space:pre}.j{fill:transparent}.l{animation-duration:15.721856s;animation-iteration-count:infinite;animation-name:k;animation-timing-function:steps(1,end)}@keyframes k{0%{transform:translateX(-0px)}10.9%{transform:translateX(-252px)}10.9%{transform:translateX(-504px)}10.9%{transform:translateX(-756px)}17.3%{transform:translateX(-1008px)}17.3%{transform:translateX(-1260px)}23.6%{transform:translateX(-1512px)}23.6%{transform:translateX(-1764px)}30%{transform:translateX(-2016px)}30%{transform:translateX(-2268px)}36.4%{transform:translateX(-2520px)}36.4%{transform:translateX(-2772px)}42.7%{transform:translateX(-3024px)}42.7%{transform:translateX(-3276px)}49.1%{transform:translateX(-3528px)}49.1%{transform:translateX(-3780px)}55.5%{transform:translateX(-4032px)}55.5%{transform:translateX(-4284px)}61.8%{transform:translateX(-4536px)}61.8%{transform:translateX(-4788px)}68.2%{transform:translateX(-5040px)}68.2%{transform:translateX(-5292px)}100%{transform:translateX(-5544px)}}</style><g font-family="'JetBrainsMono',Monaco, Consolas, Menlo, &#x27;Bitstream Vera Sans Mono&#x27;, &#x27;Powerline Symbols&#x27;, monospace" font-size="1.67" class="e"><defs><symbol id="1"><rect height="2.171" width="6" x="0" y="0" class="f"></rect><text x="0" y="1.67" class="g"> INFO </text><text x="7.013999999999999" y="1.67" class="h">The</text><text x="11.021999999999998" y="1.67" class="h">previous</text><text x="20.04" y="1.67" class="h">text</text><text x="25.05" y="1.67" class="h">will</text><text x="30.059999999999995" y="1.67" class="h">stay</text><text x="35.06999999999999" y="1.67" class="h">in</text><text x="38.07599999999999" y="1.67" class="h">place,</text><text x="45.089999999999996" y="1.67" class="h">while</text><text x="51.102" y="1.67" class="h">the</text><text x="55.10999999999999" y="1.67" class="h">area</text><text x="60.11999999999999" y="1.67" class="h">updates.</text></symbol><symbol id="2"><text x="15.029999999999998" y="1.67" class="i">██████</text><text x="24.048" y="1.67" class="i">██</text><text x="30.059999999999995" y="1.67" class="i">███████</text><text x="38.07599999999999" y="1.67" class="i">██████</text><text x="49.098" y="1.67" class="i">███████</text><text x="57.114" y="1.67" class="i">██</text><text x="62.123999999999995" y="1.67" class="i">██</text></symbol><symbol id="3"><text x="14.027999999999999" y="1.67" class="i">██</text><text x="18.035999999999998" y="1.67" class="i">████</text><text x="23.045999999999996" y="1.67" class="i">███</text><text x="27.054" y="1.67" class="i">██</text><text x="30.059999999999995" y="1.67" class="i">██</text><text x="43.086" y="1.67" class="i">██</text><text x="46.09199999999999" y="1.67" class="i">██</text><text x="49.098" y="1.67" class="i">██</text><text x="57.114" y="1.67" class="i">██</text><text x="62.123999999999995" y="1.67" class="i">██</text></symbol><symbol id="4"><text x="14.027999999999999" y="1.67" class="i">██</text><text x="17.034" y="1.67" class="i">██</text><text x="20.04" y="1.67" class="i">██</text><text x="24.048" y="1.67" class="i">██</text><text x="30.059999999999995" y="1.67" class="i">███████</text><text x="39.077999999999996" y="1.67" class="i">█████</text><text x="49.098" y="1.67" class="i">███████</text><text x="57.114" y="1.67" class="i">███████</text></symbol><symbol id="5"><text x="14.027999999999999" y="1.67" class="i">████</text><text x="20.04" y="1.67" class="i">██</text><text x="24.048" y="1.67" class="i">██</text><text x="35.06999999999999" y="1.67" class="i">██</text><text x="43.086" y="1.67" class="i">██</text></symbol><symbol id="6"><text x="14.027999999999999" y="1.67" class="i">████</text><text x="20.04" y="1.67" class="i">██</text><text x="24.048" y="1.67" class="i">██</text><text x="35.06999999999999" y="1.67" class="i">██</text><text x="43.086" y="1.67" class="i">██</text><text x="54.108" y="1.67" class="i">██</text><text x="62.123999999999995" y="1.67" class="i">██</text></symbol><symbol id="7"><text x="15.029999999999998" y="1.67" class="i">██████</text><text x="24.048" y="1.67" class="i">██</text><text x="30.059999999999995" y="1.67" class="i">███████</text><text x="38.07599999999999" y="1.67" class="i">██████</text><text x="49.098" y="1.67" class="i">███████</text><text x="57.114" y="1.67" class="i">███████</text></symbol><symbol id="8"><text x="14.027999999999999" y="1.67" class="i">██</text><text x="18.035999999999998" y="1.67" class="i">████</text><text x="23.045999999999996" y="1.67" class="i">███</text><text x="27.054" y="1.67" class="i">██</text><text x="30.059999999999995" y="1.67" class="i">██</text><text x="43.086" y="1.67" class="i">██</text><text x="46.09199999999999" y="1.67" class="i">██</text><text x="49.098" y="1.67" class="i">██</text><text x="57.114" y="1.67" class="i">██</text></symbol><symbol id="9"><text x="15.029999999999998" y="1.67" class="i">██████</text><text x="24.048" y="1.67" class="i">██</text><text x="30.059999999999995" y="1.67" class="i">███████</text><text x="38.07599999999999" y="1.67" class="i">██████</text><text x="49.098" y="1.67" class="i">███████</text><text x="58.116" y="1.67" class="i">██████</text></symbol><symbol id="10"><text x="14.027999999999999" y="1.67" class="i">██</text><text x="18.035999999999998" y="1.67" class="i">████</text><text x="23.045999999999996" y="1.67" class="i">███</text><text x="27.054" y="1.67" class="i">██</text><text x="30.059999999999995" y="1.67" class="i">██</text><text x="43.086" y="1.67" class="i">██</text><text x="46.09199999999999" y="1.67" class="i">██</text><text x="49.098" y="1.67" class="i">██</text><text x="62.123999999999995" y="1.67" class="i">██</text></symbol><symbol id="11"><text x="14.027999999999999" y="1.67" class="i">██</text><text x="17.034" y="1.67" class="i">██</text><text x="20.04" y="1.67" class="i">██</text><text x="24.048" y="1.67" class="i">██</text><text x="30.059999999999995" y="1.67" class="i">███████</text><text x="39.077999999999996" y="1.67" class="i">█████</text><text x="49.098" y="1.67" class="i">███████</text><text x="61.12199999999999" y="1.67" class="i">██</text></symbol><symbol id="12"><text x="15.029999999999998" y="1.67" class="i">██████</text><text x="24.048" y="1.67" class="i">██</text><text x="30.059999999999995" y="1.67" class="i">███████</text><text x="38.07599999999999" y="1.67" class="i">██████</text><text x="49.098" y="1.67" class="i">███████</text><text x="58.116" y="1.67" class="i">█████</text></symbol><symbol id="13"><text x="14.027999999999999" y="1.67" class="i">██</text><text x="17.034" y="1.67" class="i">██</text><text x="20.04" y="1.67" class="i">██</text><text x="24.048" y="1.67" class="i">██</text><text x="30.059999999999995" y="1.67" class="i">███████</text><text x="39.077999999999996" y="1.67" class="i">█████</text><text x="49.098" y="1.67" class="i">███████</text><text x="58.116" y="1.67" class="i">█████</text></symbol><symbol id="14"><text x="15.029999999999998" y="1.67" class="i">██████</text><text x="24.048" y="1.67" class="i">██</text><text x="27.054" y="1.67" class="i">██</text><text x="30.059999999999995" y="1.67" class="i">███████</text><text x="38.07599999999999" y="1.67" class="i">██████</text><text x="46.09199999999999" y="1.67" class="i">██</text><text x="49.098" y="1.67" class="i">███████</text><text x="58.116" y="1.67" class="i">█████</text></symbol><symbol id="15"><text x="14.027999999999999" y="1.67" class="i">██</text><text x="17.034" y="1.67" class="i">██</text><text x="20.04" y="1.67" class="i">██</text><text x="24.048" y="1.67" class="i">██</text><text x="30.059999999999995" y="1.67" class="i">███████</text><text x="39.077999999999996" y="1.67" class="i">█████</text><text x="49.098" y="1.67" class="i">███████</text><text x="58.116" y="1.67" class="i">██████</text></symbol><symbol id="16"><text x="14.027999999999999" y="1.67" class="i">██████</text><text x="23.045999999999996" y="1.67" class="i">██</text><text x="29.058" y="1.67" class="i">███████</text><text x="37.074" y="1.67" class="i">██</text><text x="42.083999999999996" y="1.67" class="i">██</text><text x="49.098" y="1.67" class="i">██████</text><text x="58.116" y="1.67" class="i">██████</text></symbol><symbol id="17"><text x="13.026" y="1.67" class="i">██</text><text x="17.034" y="1.67" class="i">████</text><text x="22.043999999999997" y="1.67" class="i">███</text><text x="26.052" y="1.67" class="i">██</text><text x="29.058" y="1.67" class="i">██</text><text x="37.074" y="1.67" class="i">██</text><text x="42.083999999999996" y="1.67" class="i">██</text><text x="45.089999999999996" y="1.67" class="i">██</text><text x="48.096" y="1.67" class="i">██</text><text x="52.104" y="1.67" class="i">████</text><text x="57.114" y="1.67" class="i">██</text><text x="61.12199999999999" y="1.67" class="i">████</text></symbol><symbol id="18"><text x="13.026" y="1.67" class="i">██</text><text x="16.032" y="1.67" class="i">██</text><text x="19.037999999999997" y="1.67" class="i">██</text><text x="23.045999999999996" y="1.67" class="i">██</text><text x="29.058" y="1.67" class="i">███████</text><text x="37.074" y="1.67" class="i">███████</text><text x="48.096" y="1.67" class="i">██</text><text x="51.102" y="1.67" class="i">██</text><text x="54.108" y="1.67" class="i">██</text><text x="57.114" y="1.67" class="i">██</text><text x="60.11999999999999" y="1.67" class="i">██</text><text x="63.12599999999999" y="1.67" class="i">██</text></symbol><symbol id="19"><text x="17.034" y="1.67" class="i">██████</text><text x="26.052" y="1.67" class="i">██</text><text x="32.064" y="1.67" class="i">███████</text><text x="40.08" y="1.67" class="i">██</text><text x="45.089999999999996" y="1.67" class="i">██</text><text x="52.104" y="1.67" class="i">██████</text><text x="61.12199999999999" y="1.67" class="i">██</text></symbol><symbol id="20"><text x="16.032" y="1.67" class="i">██</text><text x="20.04" y="1.67" class="i">████</text><text x="25.05" y="1.67" class="i">███</text><text x="29.058" y="1.67" class="i">██</text><text x="32.064" y="1.67" class="i">██</text><text x="40.08" y="1.67" class="i">██</text><text x="45.089999999999996" y="1.67" class="i">██</text><text x="48.096" y="1.67" class="i">██</text><text x="51.102" y="1.67" class="i">██</text><text x="55.10999999999999" y="1.67" class="i">████</text><text x="60.11999999999999" y="1.67" class="i">███</text></symbol><symbol id="21"><text x="16.032" y="1.67" class="i">██</text><text x="19.037999999999997" y="1.67" class="i">██</text><text x="22.043999999999997" y="1.67" class="i">██</text><text x="26.052" y="1.67" class="i">██</text><text x="32.064" y="1.67" class="i">███████</text><text x="40.08" y="1.67" class="i">███████</text><text x="51.102" y="1.67" class="i">██</text><text x="54.108" y="1.67" class="i">██</text><text x="57.114" y="1.67" class="i">██</text><text x="61.12199999999999" y="1.67" class="i">██</text></symbol><symbol id="22"><text x="15.029999999999998" y="1.67" class="i">██████</text><text x="24.048" y="1.67" class="i">██</text><text x="30.059999999999995" y="1.67" class="i">███████</text><text x="38.07599999999999" y="1.67" class="i">██</text><text x="43.086" y="1.67" class="i">██</text><text x="50.1" y="1.67" class="i">██████</text><text x="58.116" y="1.67" class="i">██████</text></symbol><symbol id="23"><text x="14.027999999999999" y="1.67" class="i">██</text><text x="18.035999999999998" y="1.67" class="i">████</text><text x="23.045999999999996" y="1.67" class="i">███</text><text x="27.054" y="1.67" class="i">██</text><text x="30.059999999999995" y="1.67" class="i">██</text><text x="38.07599999999999" y="1.67" class="i">██</text><text x="43.086" y="1.67" class="i">██</text><text x="46.09199999999999" y="1.67" class="i">██</text><text x="49.098" y="1.67" class="i">██</text><text x="53.105999999999995" y="1.67" class="i">████</text><text x="63.12599999999999" y="1.67" class="i">██</text></symbol><symbol id="24"><text x="14.027999999999999" y="1.67" class="i">██</text><text x="17.034" y="1.67" class="i">██</text><text x="20.04" y="1.67" class="i">██</text><text x="24.048" y="1.67" class="i">██</text><text x="30.059999999999995" y="1.67" class="i">███████</text><text x="38.07599999999999" y="1.67" class="i">███████</text><text x="49.098" y="1.67" class="i">██</text><text x="52.104" y="1.67" class="i">██</text><text x="55.10999999999999" y="1.67" class="i">██</text><text x="59.117999999999995" y="1.67" class="i">█████</text></symbol><symbol id="25"><text x="14.027999999999999" y="1.67" class="i">████</text><text x="20.04" y="1.67" class="i">██</text><text x="24.048" y="1.67" class="i">██</text><text x="35.06999999999999" y="1.67" class="i">██</text><text x="43.086" y="1.67" class="i">█</text></symbol><symbol id="26"><text x="14.027999999999999" y="1.67" class="i">████</text><text x="20.04" y="1.67" class="i">██</text><text x="24.048" y="1.67" class="i">██</text><text x="35.06999999999999" y="1.67" class="i">██</text><text x="43.086" y="1.67" class="i">██</text><text x="49.098" y="1.67" class="i">████</text><text x="55.10999999999999" y="1.67" class="i">██</text><text x="63.12599999999999" y="1.67" class="i">██</text></symbol><symbol id="27"><text x="15.029999999999998" y="1.67" class="i">██████</text><text x="24.048" y="1.67" class="i">██</text><text x="27.054" y="1.67" class="i">██</text><text x="30.059999999999995" y="1.67" class="i">███████</text><text x="43.086" y="1.67" class="i">██</text><text x="46.09199999999999" y="1.67" class="i">██</text><text x="50.1" y="1.67" class="i">██████</text><text x="58.116" y="1.67" class="i">██████</text></symbol><symbol id="a"><rect height="19" width="252" x="0" y="0" class="j"></rect></symbol></defs><rect height="41.248999999999995" width="252" class="a"></rect><g class="l"><svg x="0" y="0" width="5796"><svg x="0"><use xlink:href="#a"></use></svg><svg x="252"><use xlink:href="#a"></use><use xlink:href="#1" y="0"></use></svg><svg x="504"><use xlink:href="#a"></use><use xlink:href="#1" y="0"></use><use xlink:href="#2" y="6.513"></use><use xlink:href="#3" y="8.684"></use><use xlink:href="#4" y="10.855"></use><use xlink:href="#5" y="13.026"></use></svg><svg x="756"><use xlink:href="#a"></use><use xlink:href="#1" y="0"></use><use xlink:href="#2" y="6.513"></use><use xlink:href="#3" y="8.684"></use><use xlink:href="#4" y="10.855"></use><use xlink:href="#6" y="13.026"></use><text x="15.029999999999998" y="16.866999999999997" class="i">██████</text><text x="24.048" y="16.866999999999997" class="i">██</text><text x="27.054" y="16.866999999999997" class="i">██</text><text x="30.059999999999995" y="16.866999999999997" class="i">███████</text><text x="38.07599999999999" y="16.866999999999997" class="i">██████</text><text x="46.09199999999999" y="16.866999999999997" class="i">██</text><text x="49.098" y="16.866999999999997" class="i">███████</text><text x="62.123999999999995" y="16.866999999999997" class="i">██</text></svg><svg x="1008"><use xlink:href="#a"></use><use xlink:href="#1" y="0"></use><use xlink:href="#7" y="6.513"></use><use xlink:href="#8" y="8.684"></use><use xlink:href="#4" y="10.855"></use><use xlink:href="#5" y="13.026"></use></svg><svg x="1260"><use xlink:href="#a"></use><use xlink:href="#1" y="0"></use><use xlink:href="#7" y="6.513"></use><use xlink:href="#8" y="8.684"></use><use xlink:href="#4" y="10.855"></use><use xlink:href="#6" y="13.026"></use><text x="15.029999999999998" y="16.866999999999997" class="i">██████</text><text x="24.048" y="16.866999999999997" class="i">██</text><text x="27.054" y="16.866999999999997" class="i">██</text><text x="30.059999999999995" y="16.866999999999997" class="i">███████</text><text x="38.07599999999999" y="16.866999999999997" class="i">██████</text><text x="46.09199999999999" y="16.866999999999997" class="i">██</text><text x="49.098" y="16.866999999999997" class="i">███████</text><text x="57.114" y="16.866999999999997" class="i">███████</text></svg><svg x="1512"><use xlink:href="#a"></use><use xlink:href="#1" y="0"></use><use xlink:href="#9" y="6.513"></use><use xlink:href="#8" y="8.684"></use><use xlink:href="#4" y="10.855"></use><use xlink:href="#5" y="13.026"></use></svg><svg x="1764"><use xlink:href="#a"></use><use xlink:href="#1" y="0"></use><use xlink:href="#9" y="6.513"></use><use xlink:href="#8" y="8.684"></use><use xlink:href="#4" y="10.855"></use><text x="14.027999999999999" y="14.696" class="i">████</text><text x="20.04" y="14.696" class="i">██</text><text x="24.048" y="14.696" class="i">██</text><text x="35.06999999999999" y="14.696" class="i">██</text><text x="43.086" y="14.696" class="i">██</text><text x="54.108" y="14.696" class="i">██</text><text x="57.114" y="14.696" class="i">██</text><text x="63.12599999999999" y="14.696" class="i">██</text><text x="15.029999999999998" y="16.866999999999997" class="i">██████</text><text x="24.048" y="16.866999999999997" class="i">██</text><text x="27.054" y="16.866999999999997" class="i">██</text><text x="30.059999999999995" y="16.866999999999997" class="i">███████</text><text x="38.07599999999999" y="16.866999999999997" class="i">██████</text><text x="46.09199999999999" y="16.866999999999997" class="i">██</text><text x="49.098" y="16.866999999999997" class="i">███████</text><text x="58.116" y="16.866999999999997" class="i">██████</text></svg><svg x="2016"><use xlink:href="#a"></use><use xlink:href="#1" y="0"></use><use xlink:href="#7" y="6.513"></use><use xlink:href="#10" y="8.684"></use><use xlink:href="#11" y="10.855"></use><use xlink:href="#5" y="13.026"></use></svg><svg x="2268"><use xlink:href="#a"></use><use xlink:href="#1" y="0"></use><use xlink:href="#7" y="6.513"></use><use xlink:href="#10" y="8.684"></use><use xlink:href="#11" y="10.855"></use><text x="14.027999999999999" y="14.696" class="i">████</text><text x="20.04" y="14.696" class="i">██</text><text x="24.048" y="14.696" class="i">██</text><text x="35.06999999999999" y="14.696" class="i">██</text><text x="43.086" y="14.696" class="i">██</text><text x="54.108" y="14.696" class="i">██</text><text x="60.11999999999999" y="14.696" class="i">██</text><text x="15.029999999999998" y="16.866999999999997" class="i">██████</text><text x="24.048" y="16.866999999999997" class="i">██</text><text x="27.054" y="16.866999999999997" class="i">██</text><text x="30.059999999999995" y="16.866999999999997" class="i">███████</text><text x="38.07599999999999" y="16.866999999999997" class="i">██████</text><text x="46.09199999999999" y="16.866999999999997" class="i">██</text><text x="49.098" y="16.866999999999997" class="i">███████</text><text x="60.11999999999999" y="16.866999999999997" class="i">██</text></svg><svg x="2520"><use xlink:href="#a"></use><use xlink:href="#1" y="0"></use><use xlink:href="#12" y="6.513"></use><use xlink:href="#3" y="8.684"></use><use xlink:href="#13" y="10.855"></use><use xlink:href="#5" y="13.026"></use></svg><svg x="2772"><use xlink:href="#a"></use><use xlink:href="#1" y="0"></use><use xlink:href="#12" y="6.513"></use><use xlink:href="#3" y="8.684"></use><use xlink:href="#13" y="10.855"></use><text x="14.027999999999999" y="14.696" class="i">████</text><text x="20.04" y="14.696" class="i">██</text><text x="24.048" y="14.696" class="i">██</text><text x="35.06999999999999" y="14.696" class="i">██</text><text x="43.086" y="14.696" class="i">██</text><text x="54.108" y="14.696" class="i">██</text><text x="57.114" y="14.696" class="i">██</text><text x="62.123999999999995" y="14.696" class="i">██</text><use xlink:href="#14" y="15.197"></use></svg><svg x="3024"><use xlink:href="#a"></use><use xlink:href="#1" y="0"></use><use xlink:href="#12" y="6.513"></use><use xlink:href="#3" y="8.684"></use><use xlink:href="#15" y="10.855"></use><use xlink:href="#5" y="13.026"></use></svg><svg x="3276"><use xlink:href="#a"></use><use xlink:href="#1" y="0"></use><use xlink:href="#12" y="6.513"></use><use xlink:href="#3" y="8.684"></use><use xlink:href="#15" y="10.855"></use><use xlink:href="#6" y="13.026"></use><use xlink:href="#14" y="15.197"></use></svg><svg x="3528"><use xlink:href="#a"></use><use xlink:href="#1" y="0"></use><use xlink:href="#16" y="6.513"></use><use xlink:href="#17" y="8.684"></use><use xlink:href="#18" y="10.855"></use><text x="13.026" y="14.696" class="i">████</text><text x="19.037999999999997" y="14.696" class="i">██</text><text x="23.045999999999996" y="14.696" class="i">██</text><text x="34.068" y="14.696" class="i">██</text></svg><svg x="3780"><use xlink:href="#a"></use><use xlink:href="#1" y="0"></use><use xlink:href="#16" y="6.513"></use><use xlink:href="#17" y="8.684"></use><use xlink:href="#18" y="10.855"></use><text x="13.026" y="14.696" class="i">████</text><text x="19.037999999999997" y="14.696" class="i">██</text><text x="23.045999999999996" y="14.696" class="i">██</text><text x="34.068" y="14.696" class="i">██</text><text x="42.083999999999996" y="14.696" class="i">██</text><text x="48.096" y="14.696" class="i">████</text><text x="54.108" y="14.696" class="i">██</text><text x="57.114" y="14.696" class="i">████</text><text x="63.12599999999999" y="14.696" class="i">██</text><text x="14.027999999999999" y="16.866999999999997" class="i">██████</text><text x="23.045999999999996" y="16.866999999999997" class="i">██</text><text x="26.052" y="16.866999999999997" class="i">██</text><text x="29.058" y="16.866999999999997" class="i">███████</text><text x="42.083999999999996" y="16.866999999999997" class="i">██</text><text x="45.089999999999996" y="16.866999999999997" class="i">██</text><text x="49.098" y="16.866999999999997" class="i">██████</text><text x="58.116" y="16.866999999999997" class="i">██████</text></svg><svg x="4032"><use xlink:href="#a"></use><use xlink:href="#1" y="0"></use><use xlink:href="#19" y="6.513"></use><use xlink:href="#20" y="8.684"></use><use xlink:href="#21" y="10.855"></use><text x="16.032" y="14.696" class="i">████</text><text x="22.043999999999997" y="14.696" class="i">██</text><text x="26.052" y="14.696" class="i">██</text><text x="37.074" y="14.696" class="i">██</text><text x="45.089999999999996" y="14.696" class="i">██</text></svg><svg x="4284"><use xlink:href="#a"></use><use xlink:href="#1" y="0"></use><use xlink:href="#19" y="6.513"></use><use xlink:href="#20" y="8.684"></use><use xlink:href="#21" y="10.855"></use><text x="16.032" y="14.696" class="i">████</text><text x="22.043999999999997" y="14.696" class="i">██</text><text x="26.052" y="14.696" class="i">██</text><text x="37.074" y="14.696" class="i">██</text><text x="45.089999999999996" y="14.696" class="i">██</text><text x="51.102" y="14.696" class="i">████</text><text x="57.114" y="14.696" class="i">██</text><text x="61.12199999999999" y="14.696" class="i">██</text><text x="17.034" y="16.866999999999997" class="i">██████</text><text x="26.052" y="16.866999999999997" class="i">██</text><text x="29.058" y="16.866999999999997" class="i">██</text><text x="32.064" y="16.866999999999997" class="i">███████</text><text x="45.089999999999996" y="16.866999999999997" class="i">██</text><text x="48.096" y="16.866999999999997" class="i">██</text><text x="52.104" y="16.866999999999997" class="i">██████</text><text x="61.12199999999999" y="16.866999999999997" class="i">██</text></svg><svg x="4536"><use xlink:href="#a"></use><use xlink:href="#1" y="0"></use><use xlink:href="#22" y="6.513"></use><use xlink:href="#23" y="8.684"></use><use xlink:href="#24" y="10.855"></use><use xlink:href="#25" y="13.026"></use></svg><svg x="4788"><use xlink:href="#a"></use><use xlink:href="#1" y="0"></use><use xlink:href="#22" y="6.513"></use><use xlink:href="#23" y="8.684"></use><use xlink:href="#24" y="10.855"></use><text x="14.027999999999999" y="14.696" class="i">████</text><text x="20.04" y="14.696" class="i">██</text><text x="24.048" y="14.696" class="i">██</text><text x="35.06999999999999" y="14.696" class="i">██</text><text x="43.086" y="14.696" class="i">██</text><text x="49.098" y="14.696" class="i">████</text><text x="55.10999999999999" y="14.696" class="i">██</text><text x="58.116" y="14.696" class="i">██</text><text x="15.029999999999998" y="16.866999999999997" class="i">██████</text><text x="24.048" y="16.866999999999997" class="i">██</text><text x="27.054" y="16.866999999999997" class="i">██</text><text x="30.059999999999995" y="16.866999999999997" class="i">███████</text><text x="43.086" y="16.866999999999997" class="i">██</text><text x="46.09199999999999" y="16.866999999999997" class="i">██</text><text x="50.1" y="16.866999999999997" class="i">██████</text><text x="58.116" y="16.866999999999997" class="i">███████</text></svg><svg x="5040"><use xlink:href="#a"></use><use xlink:href="#1" y="0"></use><use xlink:href="#22" y="6.513"></use><use xlink:href="#23" y="8.684"></use><use xlink:href="#24" y="10.855"></use><use xlink:href="#25" y="13.026"></use></svg><svg x="5292"><use xlink:href="#a"></use><use xlink:href="#1" y="0"></use><use xlink:href="#22" y="6.513"></use><use xlink:href="#23" y="8.684"></use><use xlink:href="#24" y="10.855"></use><use xlink:href="#26" y="13.026"></use><use xlink:href="#27" y="15.197"></use></svg><svg x="5544"><use xlink:href="#a"></use><use xlink:href="#1" y="0"></use><use xlink:href="#22" y="6.513"></use><use xlink:href="#23" y="8.684"></use><use xlink:href="#24" y="10.855"></use><use xlink:href="#26" y="13.026"></use><use xlink:href="#27" y="15.197"></use><text x="0" y="25.550999999999995" class="i">Restarting</text><text x="11.021999999999998" y="25.550999999999995" class="i">animation...</text></svg></svg></g></g></svg></svg>