<svg xmlns="http://www.w3.org/2000/svg" xmlns:xlink="http://www.w3.org/1999/xlink" width="840" height="581.04"><rect width="840" height="581.04" rx="5" ry="5" class="a"></rect><svg y="0%" x="0%"><circle cx="20" cy="20" r="6" class="b"></circle><circle cx="40" cy="20" r="6" class="c"></circle><circle cx="60" cy="20" r="6" class="d"></circle></svg><svg height="521.04" viewBox="0 0 80 52.104" width="800" x="15" xmlns="http://www.w3.org/2000/svg" xmlns:xlink="http://www.w3.org/1999/xlink" y="50"><style>.e, .g, .f {
	font-family:
			'Courier New'
			Roboto,
			Helvetica,
			Arial,
			sans-serif,
			'Apple Color Emoji',
			'Segoe UI Emoji' !important;
}.a{fill:rgb(35,35,35)}.b{fill:#ff5f58}.c{fill:#ffbd2e}.d{fill:#18c132}.e{font-family:'Courier New',Monaco,Consolas,Menlo,'Bitstream Vera Sans Mono','Powerline Symbols',monospace}.f{fill:rgb(160,160,160);white-space:pre}.g{fill:transparent}.i{animation-duration:5.217768s;animation-iteration-count:infinite;animation-name:h;animation-timing-function:steps(1,end)}@keyframes h{0%{transform:translateX(-0px)}3.5%{transform:translateX(-80px)}4.2%{transform:translateX(-160px)}100%{transform:translateX(-240px)}}</style><g font-family="'Courier New',Monaco, Consolas, Menlo, &#x27;Bitstream Vera Sans Mono&#x27;, &#x27;Powerline Symbols&#x27;, monospace" font-size="1.67" class="e"><defs><symbol id="1"><text x="0" y="1.67" class="f">panic:</text><text x="7.013999999999999" y="1.67" class="f">runtime</text><text x="15.029999999999998" y="1.67" class="f">error:</text><text x="22.043999999999997" y="1.67" class="f">index</text><text x="28.055999999999997" y="1.67" class="f">out</text><text x="32.064" y="1.67" class="f">of</text><text x="35.06999999999999" y="1.67" class="f">range</text><text x="41.082" y="1.67" class="f">[1]</text><text x="45.089999999999996" y="1.67" class="f">with</text><text x="50.1" y="1.67" class="f">length</text><text x="57.114" y="1.67" class="f">1</text></symbol><symbol id="2"><text x="0" y="1.67" class="f">goroutine</text><text x="10.02" y="1.67" class="f">1</text><text x="12.024" y="1.67" class="f">[running]:</text></symbol><symbol id="3"><text x="0" y="1.67" class="f">github.com/pterm/pterm.TablePrinter.renderRow({0x6a14a0,</text><text x="57.114" y="1.67" class="f">0x1,</text><text x="62.123999999999995" y="1.67" class="f">0x6a14b8,</text><text x="72.14399999999999" y="1.67" class="f">{0x53237</text></symbol><symbol id="4"><text x="0" y="1.67" class="f">8,</text><text x="3.006" y="1.67" class="f">0x1},</text><text x="9.017999999999999" y="1.67" class="f">0x6a14d0,</text><text x="19.037999999999997" y="1.67" class="f">{0x532497,</text><text x="30.059999999999995" y="1.67" class="f">0x3},</text><text x="36.071999999999996" y="1.67" class="f">0x6a14d0,</text><text x="46.09199999999999" y="1.67" class="f">{0x532378,</text><text x="57.114" y="1.67" class="f">...},</text><text x="63.12599999999999" y="1.67" class="f">...},</text><text x="69.13799999999999" y="1.67" class="f">...)</text></symbol><symbol id="5"><text x="8.016" y="1.67" class="f">/github/workspace/table_printer.go:290</text><text x="47.093999999999994" y="1.67" class="f">+0x471</text></symbol><symbol id="6"><text x="0" y="1.67" class="f">github.com/pterm/pterm.TablePrinter.Srender({0x6a14a0,</text><text x="55.10999999999999" y="1.67" class="f">0x1,</text><text x="60.11999999999999" y="1.67" class="f">0x6a14b8,</text><text x="70.13999999999999" y="1.67" class="f">{0x532378,</text></symbol><symbol id="7"><text x="1.002" y="1.67" class="f">0x1},</text><text x="7.013999999999999" y="1.67" class="f">0x6a14d0,</text><text x="17.034" y="1.67" class="f">{0x532497,</text><text x="28.055999999999997" y="1.67" class="f">0x3},</text><text x="34.068" y="1.67" class="f">0x6a14d0,</text><text x="44.087999999999994" y="1.67" class="f">{0x532378,</text><text x="55.10999999999999" y="1.67" class="f">...},</text><text x="61.12199999999999" y="1.67" class="f">...})</text></symbol><symbol id="8"><text x="8.016" y="1.67" class="f">/github/workspace/table_printer.go:217</text><text x="47.093999999999994" y="1.67" class="f">+0x2e5</text></symbol><symbol id="9"><text x="0" y="1.67" class="f">github.com/pterm/pterm.TablePrinter.Render({0x6a14a0,</text><text x="54.108" y="1.67" class="f">0x1,</text><text x="59.117999999999995" y="1.67" class="f">0x6a14b8,</text><text x="69.13799999999999" y="1.67" class="f">{0x532378,</text></symbol><symbol id="10"><text x="0" y="1.67" class="f">0x1},</text><text x="6.012" y="1.67" class="f">0x6a14d0,</text><text x="16.032" y="1.67" class="f">{0x532497,</text><text x="27.054" y="1.67" class="f">0x3},</text><text x="33.065999999999995" y="1.67" class="f">0x6a14d0,</text><text x="43.086" y="1.67" class="f">{0x532378,</text><text x="54.108" y="1.67" class="f">...},</text><text x="60.11999999999999" y="1.67" class="f">...})</text></symbol><symbol id="11"><text x="8.016" y="1.67" class="f">/github/workspace/table_printer.go:302</text><text x="47.093999999999994" y="1.67" class="f">+0x58</text></symbol><symbol id="12"><text x="0" y="1.67" class="f">main.main()</text></symbol><symbol id="13"><text x="8.016" y="1.67" class="f">/github/workspace/_examples/table/multiple-lines/main.go:18</text><text x="68.136" y="1.67" class="f">+0x438</text></symbol><symbol id="a"><rect height="24" width="80" x="0" y="0" class="g"></rect></symbol></defs><rect height="52.104" width="80" class="a"></rect><g class="i"><svg x="0" y="0" width="320"><svg x="0"><use xlink:href="#a"></use></svg><svg x="80"><use xlink:href="#a"></use><use xlink:href="#1" y="0"></use><use xlink:href="#2" y="4.342"></use><text x="0" y="8.183" class="f">github.com/pterm/pterm.TablePrinter.renderRow</text></svg><svg x="160"><use xlink:href="#a"></use><use xlink:href="#1" y="0"></use><use xlink:href="#2" y="4.342"></use><use xlink:href="#3" y="6.513"></use><use xlink:href="#4" y="8.684"></use><use xlink:href="#5" y="10.855"></use><use xlink:href="#6" y="13.026"></use><use xlink:href="#7" y="15.197"></use><use xlink:href="#8" y="17.368"></use><use xlink:href="#9" y="19.539"></use><use xlink:href="#10" y="21.71"></use><use xlink:href="#11" y="23.880999999999997"></use><use xlink:href="#12" y="26.052"></use><use xlink:href="#13" y="28.223000000000003"></use></svg><svg x="240"><use xlink:href="#a"></use><use xlink:href="#1" y="0"></use><use xlink:href="#2" y="4.342"></use><use xlink:href="#3" y="6.513"></use><use xlink:href="#4" y="8.684"></use><use xlink:href="#5" y="10.855"></use><use xlink:href="#6" y="13.026"></use><use xlink:href="#7" y="15.197"></use><use xlink:href="#8" y="17.368"></use><use xlink:href="#9" y="19.539"></use><use xlink:href="#10" y="21.71"></use><use xlink:href="#11" y="23.880999999999997"></use><use xlink:href="#12" y="26.052"></use><use xlink:href="#13" y="28.223000000000003"></use><text x="0" y="34.235" class="f">Restarting</text><text x="11.021999999999998" y="34.235" class="f">animation...</text></svg></svg></g></g></svg></svg>