<svg xmlns="http://www.w3.org/2000/svg" xmlns:xlink="http://www.w3.org/1999/xlink" width="840" height="581.04"><rect width="840" height="581.04" rx="5" ry="5" class="a"></rect><svg y="0%" x="0%"><circle cx="20" cy="20" r="6" class="b"></circle><circle cx="40" cy="20" r="6" class="c"></circle><circle cx="60" cy="20" r="6" class="d"></circle></svg><svg height="521.04" viewBox="0 0 80 52.104" width="800" x="15" xmlns="http://www.w3.org/2000/svg" xmlns:xlink="http://www.w3.org/1999/xlink" y="50"><style>.e, .g, .f {
	font-family:
			'Courier New'
			Roboto,
			Helvetica,
			Arial,
			sans-serif,
			'Apple Color Emoji',
			'Segoe UI Emoji' !important;
}.a{fill:rgb(35,35,35)}.b{fill:#ff5f58}.c{fill:#ffbd2e}.d{fill:#18c132}.e{font-family:'Courier New',Monaco,Consolas,Menlo,'Bitstream Vera Sans Mono','Powerline Symbols',monospace}.f{fill:rgb(126,231,233);white-space:pre}.g{fill:rgb(104,104,104);white-space:pre}.h{fill:rgb(160,160,160);white-space:pre}.i{fill:transparent}.k{animation-duration:5.316967s;animation-iteration-count:infinite;animation-name:j;animation-timing-function:steps(1,end)}@keyframes j{0%{transform:translateX(-0px)}4.9%{transform:translateX(-80px)}6%{transform:translateX(-160px)}100%{transform:translateX(-240px)}}</style><g font-family="'Courier New',Monaco, Consolas, Menlo, &#x27;Bitstream Vera Sans Mono&#x27;, &#x27;Powerline Symbols&#x27;, monospace" font-size="1.67" class="e"><defs><symbol id="1"><text x="0" y="1.67" class="f">Firstname</text><text x="10.02" y="1.67" class="g">|</text><text x="12.024" y="1.67" class="f">Lastname</text><text x="21.041999999999998" y="1.67" class="g">|</text><text x="23.045999999999996" y="1.67" class="f">Email</text></symbol><symbol id="2"><text x="0" y="1.67" class="g">-----------------------------------------------</text></symbol><symbol id="3"><text x="0" y="1.67" class="h">Paul</text><text x="10.02" y="1.67" class="g">|</text><text x="12.024" y="1.67" class="h">Dean</text><text x="21.041999999999998" y="1.67" class="g">|</text><text x="23.045999999999996" y="1.67" class="h">augue@velitAliquam.co.uk</text></symbol><symbol id="4"><text x="10.02" y="1.67" class="g">|</text><text x="21.041999999999998" y="1.67" class="g">|</text></symbol><symbol id="5"><text x="0" y="1.67" class="h">Newline</text><text x="10.02" y="1.67" class="g">|</text><text x="21.041999999999998" y="1.67" class="g">|</text></symbol><symbol id="6"><text x="0" y="1.67" class="h">Callie</text><text x="10.02" y="1.67" class="g">|</text><text x="12.024" y="1.67" class="h">Mckay</text><text x="21.041999999999998" y="1.67" class="g">|</text><text x="23.045999999999996" y="1.67" class="h">nunc.sed@est.com</text></symbol><symbol id="7"><text x="10.02" y="1.67" class="g">|</text><text x="21.041999999999998" y="1.67" class="g">|</text><text x="23.045999999999996" y="1.67" class="h">Newline</text></symbol><symbol id="8"><text x="0" y="1.67" class="h">Libby</text><text x="10.02" y="1.67" class="g">|</text><text x="12.024" y="1.67" class="h">Camacho</text><text x="21.041999999999998" y="1.67" class="g">|</text><text x="23.045999999999996" y="1.67" class="h">lobortis@semper.com</text></symbol><symbol id="9"><text x="0" y="1.67" class="h">张</text><text x="9.017999999999999" y="1.67" class="g">|</text><text x="11.021999999999998" y="1.67" class="h">小宝</text><text x="18.035999999999998" y="1.67" class="g">|</text><text x="20.04" y="1.67" class="h">zhang@example.com</text></symbol><symbol id="a"><rect height="24" width="80" x="0" y="0" class="i"></rect></symbol></defs><rect height="52.104" width="80" class="a"></rect><g class="k"><svg x="0" y="0" width="320"><svg x="0"><use xlink:href="#a"></use></svg><svg x="80"><use xlink:href="#a"></use><use xlink:href="#1" y="0"></use><use xlink:href="#2" y="2.171"></use><use xlink:href="#3" y="4.342"></use><use xlink:href="#4" y="6.513"></use><use xlink:href="#5" y="8.684"></use><use xlink:href="#2" y="10.855"></use><use xlink:href="#6" y="13.026"></use><use xlink:href="#7" y="15.197"></use><use xlink:href="#2" y="17.368"></use><use xlink:href="#8" y="19.539"></use><text x="0" y="23.380000000000003" class="g">----------------------------------------</text></svg><svg x="160"><use xlink:href="#a"></use><use xlink:href="#1" y="0"></use><use xlink:href="#2" y="2.171"></use><use xlink:href="#3" y="4.342"></use><use xlink:href="#4" y="6.513"></use><use xlink:href="#5" y="8.684"></use><use xlink:href="#2" y="10.855"></use><use xlink:href="#6" y="13.026"></use><use xlink:href="#7" y="15.197"></use><use xlink:href="#2" y="17.368"></use><use xlink:href="#8" y="19.539"></use><use xlink:href="#2" y="21.71"></use><use xlink:href="#9" y="23.880999999999997"></use></svg><svg x="240"><use xlink:href="#a"></use><use xlink:href="#1" y="0"></use><use xlink:href="#2" y="2.171"></use><use xlink:href="#3" y="4.342"></use><use xlink:href="#4" y="6.513"></use><use xlink:href="#5" y="8.684"></use><use xlink:href="#2" y="10.855"></use><use xlink:href="#6" y="13.026"></use><use xlink:href="#7" y="15.197"></use><use xlink:href="#2" y="17.368"></use><use xlink:href="#8" y="19.539"></use><use xlink:href="#2" y="21.71"></use><use xlink:href="#9" y="23.880999999999997"></use><text x="0" y="32.064" class="h">Restarting</text><text x="11.021999999999998" y="32.064" class="h">animation...</text></svg></svg></g></g></svg></svg>