<svg xmlns="http://www.w3.org/2000/svg" xmlns:xlink="http://www.w3.org/1999/xlink" width="840" height="581.04"><rect width="840" height="581.04" rx="5" ry="5" class="a"></rect><svg y="0%" x="0%"><circle cx="20" cy="20" r="6" class="b"></circle><circle cx="40" cy="20" r="6" class="c"></circle><circle cx="60" cy="20" r="6" class="d"></circle></svg><svg height="521.04" viewBox="0 0 80 52.104" width="800" x="15" xmlns="http://www.w3.org/2000/svg" xmlns:xlink="http://www.w3.org/1999/xlink" y="50"><style>.e, .g, .f {
	font-family:
			'Courier New'
			Roboto,
			Helvetica,
			Arial,
			sans-serif,
			'Apple Color Emoji',
			'Segoe UI Emoji' !important;
}.a{fill:rgb(35,35,35)}.b{fill:#ff5f58}.c{fill:#ffbd2e}.d{fill:#18c132}.e{font-family:'Courier New',Monaco,Consolas,Menlo,'Bitstream Vera Sans Mono','Powerline Symbols',monospace}.f{fill:rgb(160,160,160);white-space:pre}.g{fill:rgb(0,71,255);font-weight:bold;white-space:pre}.h{fill:rgb(104,104,104);font-weight:bold;white-space:pre}.i{fill:rgb(104,104,104);white-space:pre}.j{fill:rgb(124,255,0);font-weight:bold;white-space:pre}.k{fill:rgb(255,241,0);font-weight:bold;white-space:pre}.l{fill:rgb(255,0,4);font-weight:bold;white-space:pre}.m{fill:transparent}.o{animation-duration:5.478987s;animation-iteration-count:infinite;animation-name:n;animation-timing-function:steps(1,end)}.p{fill:rgb(0,198,255);font-weight:bold;white-space:pre}@keyframes n{0%{transform:translateX(-0px)}6%{transform:translateX(-80px)}8.7%{transform:translateX(-160px)}100%{transform:translateX(-240px)}}</style><g font-family="'Courier New',Monaco, Consolas, Menlo, &#x27;Bitstream Vera Sans Mono&#x27;, &#x27;Powerline Symbols&#x27;, monospace" font-size="1.67" class="e"><defs><symbol id="1"><text x="22.043999999999997" y="1.67" class="f">├</text><text x="24.048" y="1.67" class="g">what</text><text x="29.058" y="1.67" class="g">is</text><text x="32.064" y="1.67" class="g">the</text><text x="36.071999999999996" y="1.67" class="g">meaning</text><text x="44.087999999999994" y="1.67" class="g">of</text><text x="47.093999999999994" y="1.67" class="g">life:</text><text x="53.105999999999995" y="1.67" class="f">42</text></symbol><symbol id="2"><text x="22.043999999999997" y="1.67" class="f">├</text><text x="24.048" y="1.67" class="g">is</text><text x="27.054" y="1.67" class="g">this</text><text x="32.064" y="1.67" class="g">interesting:</text><text x="45.089999999999996" y="1.67" class="f">true</text></symbol><symbol id="3"><text x="22.043999999999997" y="1.67" class="f">└</text><text x="24.048" y="1.67" class="h">caller:</text><text x="32.064" y="1.67" class="i">/_examples/logger/with-caller/main.go:20</text></symbol><symbol id="4"><text x="0" y="1.67" class="i">2024-11-27</text><text x="11.021999999999998" y="1.67" class="i">12:35:38</text><text x="20.04" y="1.67" class="j">INFO</text><text x="26.052" y="1.67" class="f">That</text><text x="31.061999999999998" y="1.67" class="f">was</text><text x="35.06999999999999" y="1.67" class="f">actually</text><text x="44.087999999999994" y="1.67" class="f">interesting</text></symbol><symbol id="5"><text x="22.043999999999997" y="1.67" class="f">├</text><text x="24.048" y="1.67" class="j">such:</text><text x="30.059999999999995" y="1.67" class="f">wow</text></symbol><symbol id="6"><text x="22.043999999999997" y="1.67" class="f">└</text><text x="24.048" y="1.67" class="h">caller:</text><text x="32.064" y="1.67" class="i">/_examples/logger/with-caller/main.go:23</text></symbol><symbol id="7"><text x="0" y="1.67" class="i">2024-11-27</text><text x="11.021999999999998" y="1.67" class="i">12:35:38</text><text x="20.04" y="1.67" class="k">WARN</text><text x="26.052" y="1.67" class="f">Oh</text><text x="29.058" y="1.67" class="f">no,</text><text x="33.065999999999995" y="1.67" class="f">I</text><text x="35.06999999999999" y="1.67" class="f">see</text><text x="39.077999999999996" y="1.67" class="f">an</text><text x="42.083999999999996" y="1.67" class="f">error</text><text x="48.096" y="1.67" class="f">coming</text><text x="55.10999999999999" y="1.67" class="f">to</text><text x="58.116" y="1.67" class="f">us!</text></symbol><symbol id="8"><text x="22.043999999999997" y="1.67" class="f">├</text><text x="24.048" y="1.67" class="k">speed:</text><text x="31.061999999999998" y="1.67" class="f">88</text></symbol><symbol id="9"><text x="22.043999999999997" y="1.67" class="f">├</text><text x="24.048" y="1.67" class="k">measures:</text><text x="34.068" y="1.67" class="f">mph</text></symbol><symbol id="10"><text x="22.043999999999997" y="1.67" class="f">└</text><text x="24.048" y="1.67" class="h">caller:</text><text x="32.064" y="1.67" class="i">/_examples/logger/with-caller/main.go:26</text></symbol><symbol id="11"><text x="0" y="1.67" class="i">2024-11-27</text><text x="11.021999999999998" y="1.67" class="i">12:35:38</text><text x="20.04" y="1.67" class="l">ERROR</text><text x="26.052" y="1.67" class="f">Damn,</text><text x="32.064" y="1.67" class="f">here</text><text x="37.074" y="1.67" class="f">it</text><text x="40.08" y="1.67" class="f">is!</text></symbol><symbol id="12"><text x="22.043999999999997" y="1.67" class="f">├</text><text x="24.048" y="1.67" class="l">error:</text><text x="31.061999999999998" y="1.67" class="f">something</text><text x="41.082" y="1.67" class="f">went</text><text x="46.09199999999999" y="1.67" class="f">wrong</text></symbol><symbol id="13"><text x="22.043999999999997" y="1.67" class="f">└</text><text x="24.048" y="1.67" class="h">caller:</text><text x="32.064" y="1.67" class="i">/_examples/logger/with-caller/main.go:29</text></symbol><symbol id="14"><text x="0" y="1.67" class="i">2024-11-27</text><text x="11.021999999999998" y="1.67" class="i">12:35:38</text><text x="20.04" y="1.67" class="j">INFO</text><text x="26.052" y="1.67" class="f">But</text><text x="30.059999999999995" y="1.67" class="f">what&#x27;s</text><text x="37.074" y="1.67" class="f">really</text><text x="44.087999999999994" y="1.67" class="f">cool</text><text x="49.098" y="1.67" class="f">is,</text><text x="53.105999999999995" y="1.67" class="f">that</text><text x="58.116" y="1.67" class="f">you</text><text x="62.123999999999995" y="1.67" class="f">can</text><text x="66.13199999999999" y="1.67" class="f">print</text><text x="72.14399999999999" y="1.67" class="f">very</text></symbol><symbol id="15"><text x="22.043999999999997" y="1.67" class="f">│</text><text x="26.052" y="1.67" class="f">long</text><text x="31.061999999999998" y="1.67" class="f">logs,</text><text x="37.074" y="1.67" class="f">and</text><text x="41.082" y="1.67" class="f">PTerm</text><text x="47.093999999999994" y="1.67" class="f">will</text><text x="52.104" y="1.67" class="f">automatically</text><text x="66.13199999999999" y="1.67" class="f">wrap</text><text x="71.142" y="1.67" class="f">them</text><text x="76.15199999999999" y="1.67" class="f">for</text></symbol><symbol id="16"><text x="22.043999999999997" y="1.67" class="f">│</text><text x="26.052" y="1.67" class="f">you!</text><text x="31.061999999999998" y="1.67" class="f">Say</text><text x="35.06999999999999" y="1.67" class="f">goodbye</text><text x="43.086" y="1.67" class="f">to</text><text x="46.09199999999999" y="1.67" class="f">text,</text><text x="52.104" y="1.67" class="f">that</text><text x="57.114" y="1.67" class="f">has</text><text x="61.12199999999999" y="1.67" class="f">weird</text><text x="67.134" y="1.67" class="f">line</text><text x="72.14399999999999" y="1.67" class="f">breaks!</text></symbol><symbol id="17"><text x="22.043999999999997" y="1.67" class="f">├</text><text x="24.048" y="1.67" class="j">very:</text><text x="30.059999999999995" y="1.67" class="f">long</text></symbol><symbol id="18"><text x="22.043999999999997" y="1.67" class="f">└</text><text x="24.048" y="1.67" class="h">caller:</text><text x="32.064" y="1.67" class="i">/_examples/logger/with-caller/main.go:32</text></symbol><symbol id="19"><text x="0" y="1.67" class="i">2024-11-27</text><text x="11.021999999999998" y="1.67" class="i">12:35:38</text><text x="20.04" y="1.67" class="l">FATAL</text><text x="26.052" y="1.67" class="f">Oh</text><text x="29.058" y="1.67" class="f">no,</text><text x="33.065999999999995" y="1.67" class="f">this</text><text x="38.07599999999999" y="1.67" class="f">process</text><text x="46.09199999999999" y="1.67" class="f">is</text><text x="49.098" y="1.67" class="f">getting</text><text x="57.114" y="1.67" class="f">killed!</text></symbol><symbol id="20"><text x="22.043999999999997" y="1.67" class="f">├</text><text x="24.048" y="1.67" class="l">fatal:</text><text x="31.061999999999998" y="1.67" class="f">true</text></symbol><symbol id="21"><text x="22.043999999999997" y="1.67" class="f">└</text><text x="24.048" y="1.67" class="h">caller:</text><text x="32.064" y="1.67" class="i">/_examples/logger/with-caller/main.go:35</text></symbol><symbol id="a"><rect height="24" width="80" x="0" y="0" class="m"></rect></symbol></defs><rect height="52.104" width="80" class="a"></rect><g class="o"><svg x="0" y="0" width="320"><svg x="0"><use xlink:href="#a"></use></svg><svg x="80"><use xlink:href="#a"></use><text x="0" y="1.67" class="i">2024-11-27</text><text x="11.021999999999998" y="1.67" class="i">12:35:38</text><text x="20.04" y="1.67" class="p">TRACE</text><text x="26.052" y="1.67" class="f">Doing</text><text x="32.064" y="1.67" class="f">not</text><text x="36.071999999999996" y="1.67" class="f">so</text><text x="39.077999999999996" y="1.67" class="f">important</text><text x="49.098" y="1.67" class="f">stuff</text></svg><svg x="160"><use xlink:href="#a"></use><text x="0" y="1.67" class="i">2024-11-27</text><text x="11.021999999999998" y="1.67" class="i">12:35:38</text><text x="20.04" y="1.67" class="g">DEBUG</text><text x="26.052" y="1.67" class="f">This</text><text x="31.061999999999998" y="1.67" class="f">might</text><text x="37.074" y="1.67" class="f">be</text><text x="40.08" y="1.67" class="f">interesting</text><text x="22.043999999999997" y="3.8409999999999997" class="f">├</text><text x="24.048" y="3.8409999999999997" class="g">when</text><text x="29.058" y="3.8409999999999997" class="g">were</text><text x="34.068" y="3.8409999999999997" class="g">crayons</text><text x="42.083999999999996" y="3.8409999999999997" class="g">invented:</text><text x="52.104" y="3.8409999999999997" class="f">1903</text><use xlink:href="#1" y="4.342"></use><use xlink:href="#2" y="6.513"></use><use xlink:href="#3" y="8.684"></use><use xlink:href="#4" y="10.855"></use><use xlink:href="#5" y="13.026"></use><use xlink:href="#6" y="15.197"></use><use xlink:href="#7" y="17.368"></use><use xlink:href="#8" y="19.539"></use><use xlink:href="#9" y="21.71"></use><use xlink:href="#10" y="23.880999999999997"></use><use xlink:href="#11" y="26.052"></use><use xlink:href="#12" y="28.223000000000003"></use><use xlink:href="#13" y="30.394"></use><use xlink:href="#14" y="32.565"></use><use xlink:href="#15" y="34.736"></use><use xlink:href="#16" y="36.907000000000004"></use><use xlink:href="#17" y="39.078"></use><use xlink:href="#18" y="41.248999999999995"></use><use xlink:href="#19" y="43.42"></use><use xlink:href="#20" y="45.591"></use><use xlink:href="#21" y="47.76199999999999"></use></svg><svg x="240"><use xlink:href="#a"></use><use xlink:href="#1" y="0"></use><use xlink:href="#2" y="2.171"></use><use xlink:href="#3" y="4.342"></use><use xlink:href="#4" y="6.513"></use><use xlink:href="#5" y="8.684"></use><use xlink:href="#6" y="10.855"></use><use xlink:href="#7" y="13.026"></use><use xlink:href="#8" y="15.197"></use><use xlink:href="#9" y="17.368"></use><use xlink:href="#10" y="19.539"></use><use xlink:href="#11" y="21.71"></use><use xlink:href="#12" y="23.880999999999997"></use><use xlink:href="#13" y="26.052"></use><use xlink:href="#14" y="28.223000000000003"></use><use xlink:href="#15" y="30.394"></use><use xlink:href="#16" y="32.565"></use><use xlink:href="#17" y="34.736"></use><use xlink:href="#18" y="36.907000000000004"></use><use xlink:href="#19" y="39.078"></use><use xlink:href="#20" y="41.248999999999995"></use><use xlink:href="#21" y="43.42"></use><text x="0" y="49.431999999999995" class="f">Restarting</text><text x="11.021999999999998" y="49.431999999999995" class="f">animation...</text></svg></svg></g></g></svg></svg>