<svg xmlns="http://www.w3.org/2000/svg" xmlns:xlink="http://www.w3.org/1999/xlink" width="840" height="581.04"><rect width="840" height="581.04" rx="5" ry="5" class="a"></rect><svg y="0%" x="0%"><circle cx="20" cy="20" r="6" class="b"></circle><circle cx="40" cy="20" r="6" class="c"></circle><circle cx="60" cy="20" r="6" class="d"></circle></svg><svg height="521.04" viewBox="0 0 80 52.104" width="800" x="15" xmlns="http://www.w3.org/2000/svg" xmlns:xlink="http://www.w3.org/1999/xlink" y="50"><style>.e, .g, .f {
	font-family:
			'Courier New'
			Roboto,
			Helvetica,
			Arial,
			sans-serif,
			'Apple Color Emoji',
			'Segoe UI Emoji' !important;
}.a{fill:rgb(35,35,35)}.b{fill:#ff5f58}.c{fill:#ffbd2e}.d{fill:#18c132}.e{font-family:'Courier New',Monaco,Consolas,Menlo,'Bitstream Vera Sans Mono','Powerline Symbols',monospace}.f{fill:rgb(104,104,104);white-space:pre}.g{fill:rgb(0,198,255);font-weight:bold;white-space:pre}.h{fill:rgb(160,160,160);white-space:pre}.i{fill:rgb(104,104,104);font-weight:bold;white-space:pre}.j{fill:rgb(0,71,255);font-weight:bold;white-space:pre}.k{fill:rgb(124,255,0);font-weight:bold;white-space:pre}.l{fill:rgb(255,241,0);font-weight:bold;white-space:pre}.m{fill:transparent}.o{animation-duration:5.305211s;animation-iteration-count:infinite;animation-name:n;animation-timing-function:steps(1,end)}@keyframes n{0%{transform:translateX(-0px)}5.2%{transform:translateX(-80px)}5.8%{transform:translateX(-160px)}100%{transform:translateX(-240px)}}</style><g font-family="'Courier New',Monaco, Consolas, Menlo, &#x27;Bitstream Vera Sans Mono&#x27;, &#x27;Powerline Symbols&#x27;, monospace" font-size="1.67" class="e"><defs><symbol id="1"><text x="0" y="1.67" class="f">2023-07-01</text><text x="11.021999999999998" y="1.67" class="f">11:07:06</text><text x="20.04" y="1.67" class="g">TRACE</text><text x="26.052" y="1.67" class="h">Doing</text><text x="32.064" y="1.67" class="h">not</text><text x="36.071999999999996" y="1.67" class="h">so</text><text x="39.077999999999996" y="1.67" class="h">important</text><text x="49.098" y="1.67" class="h">stuff</text></symbol><symbol id="2"><text x="22.043999999999997" y="1.67" class="h">├</text><text x="24.048" y="1.67" class="g">priority:</text><text x="34.068" y="1.67" class="h">super</text><text x="40.08" y="1.67" class="h">low</text></symbol><symbol id="3"><text x="22.043999999999997" y="1.67" class="h">└</text><text x="24.048" y="1.67" class="i">caller:</text><text x="32.064" y="1.67" class="f">/_examples/logger/with-caller/main.go:10</text></symbol><symbol id="4"><text x="0" y="1.67" class="f">2023-07-01</text><text x="11.021999999999998" y="1.67" class="f">11:07:06</text><text x="20.04" y="1.67" class="j">DEBUG</text><text x="26.052" y="1.67" class="h">This</text><text x="31.061999999999998" y="1.67" class="h">might</text><text x="37.074" y="1.67" class="h">be</text><text x="40.08" y="1.67" class="h">interesting</text></symbol><symbol id="5"><text x="22.043999999999997" y="1.67" class="h">├</text><text x="24.048" y="1.67" class="j">when</text><text x="29.058" y="1.67" class="j">were</text><text x="34.068" y="1.67" class="j">crayons</text><text x="42.083999999999996" y="1.67" class="j">invented:</text><text x="52.104" y="1.67" class="h">1903</text></symbol><symbol id="6"><text x="22.043999999999997" y="1.67" class="h">├</text><text x="24.048" y="1.67" class="j">what</text><text x="29.058" y="1.67" class="j">is</text><text x="32.064" y="1.67" class="j">the</text><text x="36.071999999999996" y="1.67" class="j">meaning</text><text x="44.087999999999994" y="1.67" class="j">of</text><text x="47.093999999999994" y="1.67" class="j">life:</text><text x="53.105999999999995" y="1.67" class="h">42</text></symbol><symbol id="7"><text x="22.043999999999997" y="1.67" class="h">├</text><text x="24.048" y="1.67" class="j">is</text><text x="27.054" y="1.67" class="j">this</text><text x="32.064" y="1.67" class="j">interesting:</text><text x="45.089999999999996" y="1.67" class="h">true</text></symbol><symbol id="8"><text x="22.043999999999997" y="1.67" class="h">└</text><text x="24.048" y="1.67" class="i">caller:</text><text x="32.064" y="1.67" class="f">/_examples/logger/with-caller/main.go:18</text></symbol><symbol id="9"><text x="0" y="1.67" class="f">2023-07-01</text><text x="11.021999999999998" y="1.67" class="f">11:07:06</text><text x="20.04" y="1.67" class="k">INFO</text><text x="26.052" y="1.67" class="h">That</text><text x="31.061999999999998" y="1.67" class="h">was</text><text x="35.06999999999999" y="1.67" class="h">actually</text><text x="44.087999999999994" y="1.67" class="h">interesting</text></symbol><symbol id="10"><text x="22.043999999999997" y="1.67" class="h">├</text><text x="24.048" y="1.67" class="k">such:</text><text x="30.059999999999995" y="1.67" class="h">wow</text></symbol><symbol id="11"><text x="22.043999999999997" y="1.67" class="h">└</text><text x="24.048" y="1.67" class="i">caller:</text><text x="32.064" y="1.67" class="f">/_examples/logger/with-caller/main.go:20</text></symbol><symbol id="12"><text x="0" y="1.67" class="f">2023-07-01</text><text x="11.021999999999998" y="1.67" class="f">11:07:06</text><text x="20.04" y="1.67" class="l">WARN</text><text x="26.052" y="1.67" class="h">Oh</text><text x="29.058" y="1.67" class="h">no,</text><text x="33.065999999999995" y="1.67" class="h">I</text><text x="35.06999999999999" y="1.67" class="h">see</text><text x="39.077999999999996" y="1.67" class="h">an</text><text x="42.083999999999996" y="1.67" class="h">error</text><text x="48.096" y="1.67" class="h">coming</text><text x="55.10999999999999" y="1.67" class="h">to</text><text x="58.116" y="1.67" class="h">us!</text></symbol><symbol id="13"><text x="22.043999999999997" y="1.67" class="h">├</text><text x="24.048" y="1.67" class="l">speed:</text><text x="31.061999999999998" y="1.67" class="h">88</text></symbol><symbol id="a"><rect height="24" width="80" x="0" y="0" class="m"></rect></symbol></defs><rect height="52.104" width="80" class="a"></rect><g class="o"><svg x="0" y="0" width="320"><svg x="0"><use xlink:href="#a"></use></svg><svg x="80"><use xlink:href="#a"></use><use xlink:href="#1" y="0"></use></svg><svg x="160"><use xlink:href="#a"></use><use xlink:href="#1" y="0"></use><use xlink:href="#2" y="2.171"></use><use xlink:href="#3" y="4.342"></use><use xlink:href="#4" y="6.513"></use><use xlink:href="#5" y="8.684"></use><use xlink:href="#6" y="10.855"></use><use xlink:href="#7" y="13.026"></use><use xlink:href="#8" y="15.197"></use><use xlink:href="#9" y="17.368"></use><use xlink:href="#10" y="19.539"></use><use xlink:href="#11" y="21.71"></use><use xlink:href="#12" y="23.880999999999997"></use><use xlink:href="#13" y="26.052"></use></svg><svg x="240"><use xlink:href="#a"></use><use xlink:href="#1" y="0"></use><use xlink:href="#2" y="2.171"></use><use xlink:href="#3" y="4.342"></use><use xlink:href="#4" y="6.513"></use><use xlink:href="#5" y="8.684"></use><use xlink:href="#6" y="10.855"></use><use xlink:href="#7" y="13.026"></use><use xlink:href="#8" y="15.197"></use><use xlink:href="#9" y="17.368"></use><use xlink:href="#10" y="19.539"></use><use xlink:href="#11" y="21.71"></use><use xlink:href="#12" y="23.880999999999997"></use><use xlink:href="#13" y="26.052"></use><text x="10.02" y="32.064" class="h">Restarting</text><text x="21.041999999999998" y="32.064" class="h">animation...</text></svg></svg></g></g></svg></svg>