<svg xmlns="http://www.w3.org/2000/svg" xmlns:xlink="http://www.w3.org/1999/xlink" width="840" height="602.75"><rect width="840" height="602.75" rx="5" ry="5" class="a"></rect><svg y="0%" x="0%"><circle cx="20" cy="20" r="6" class="b"></circle><circle cx="40" cy="20" r="6" class="c"></circle><circle cx="60" cy="20" r="6" class="d"></circle></svg><svg height="542.75" viewBox="0 0 80 54.275" width="800" x="15" xmlns="http://www.w3.org/2000/svg" xmlns:xlink="http://www.w3.org/1999/xlink" y="50"><style>.e, .g, .f {
	font-family:
			'Courier New'
			Roboto,
			Helvetica,
			Arial,
			sans-serif,
			'Apple Color Emoji',
			'Segoe UI Emoji' !important;
}.a{fill:rgb(35,35,35)}.b{fill:#ff5f58}.c{fill:#ffbd2e}.d{fill:#18c132}.e{font-family:'Courier New',Monaco,Consolas,Menlo,'Bitstream Vera Sans Mono','Powerline Symbols',monospace}.f{white-space:pre}.g{fill:rgb(104,104,104);white-space:pre}.h{fill:rgb(255,0,4);white-space:pre}.i{fill:rgb(124,255,0);white-space:pre}.j{fill:rgb(255,241,0);white-space:pre}.k{fill:rgb(0,71,255);white-space:pre}.l{fill:rgb(255,0,255);white-space:pre}.m{fill:rgb(0,198,255);white-space:pre}.n{fill:rgb(207,207,207);white-space:pre}.o{fill:rgb(243,86,86);white-space:pre}.p{fill:rgb(127,253,127);white-space:pre}.q{fill:rgb(220,239,139);white-space:pre}.r{fill:rgb(152,161,254);white-space:pre}.s{fill:rgb(234,89,246);white-space:pre}.t{fill:rgb(126,231,233);white-space:pre}.u{fill:rgb(255,255,255);white-space:pre}.v{fill:rgb(160,160,160);white-space:pre}.w{fill:rgb(232,131,136)}.x{fill:rgb(168,204,140)}.y{fill:rgb(219,171,121)}.z{fill:rgb(113,190,242)}.A{fill:rgb(210,144,228)}.B{fill:rgb(102,194,205)}.C{fill:rgb(185,191,202)}.D{fill:rgb(115,190,243)}.E{fill:rgb(210,144,227)}.F{fill:rgb(255,255,255)}.G{fill:rgb(127,253,127);font-weight:bold;white-space:pre}.H{fill:transparent}.J{animation-duration:5.055301s;animation-iteration-count:infinite;animation-name:I;animation-timing-function:steps(1,end)}@keyframes I{0%{transform:translateX(-0px)}1.1%{transform:translateX(-80px)}1.1%{transform:translateX(-160px)}1.1%{transform:translateX(-240px)}100%{transform:translateX(-320px)}}</style><g font-family="'Courier New',Monaco, Consolas, Menlo, &#x27;Bitstream Vera Sans Mono&#x27;, &#x27;Powerline Symbols&#x27;, monospace" font-size="1.67" class="e"><defs><symbol id="1"><text x="0" y="1.67" class="f">Black</text><text x="6.012" y="1.67" class="g">|</text><text x="8.016" y="1.67" class="h">Red</text><text x="18.035999999999998" y="1.67" class="g">|</text><text x="20.04" y="1.67" class="i">Green</text><text x="32.064" y="1.67" class="g">|</text><text x="34.068" y="1.67" class="j">Yellow</text><text x="47.093999999999994" y="1.67" class="g">|</text><text x="49.098" y="1.67" class="k">Blue</text><text x="60.11999999999999" y="1.67" class="g">|</text><text x="62.123999999999995" y="1.67" class="l">Magenta</text><text x="76.15199999999999" y="1.67" class="g">|</text><text x="78.15599999999999" y="1.67" class="m">Cy</text></symbol><symbol id="2"><text x="0" y="1.67" class="m">an</text><text x="9.017999999999999" y="1.67" class="g">|</text><text x="11.021999999999998" y="1.67" class="n">White</text></symbol><symbol id="3"><text x="6.012" y="1.67" class="g">|</text><text x="8.016" y="1.67" class="o">Light</text><text x="14.027999999999999" y="1.67" class="o">Red</text><text x="18.035999999999998" y="1.67" class="g">|</text><text x="20.04" y="1.67" class="p">Light</text><text x="26.052" y="1.67" class="p">Green</text><text x="32.064" y="1.67" class="g">|</text><text x="34.068" y="1.67" class="q">Light</text><text x="40.08" y="1.67" class="q">Yellow</text><text x="47.093999999999994" y="1.67" class="g">|</text><text x="49.098" y="1.67" class="r">Light</text><text x="55.10999999999999" y="1.67" class="r">Blue</text><text x="60.11999999999999" y="1.67" class="g">|</text><text x="62.123999999999995" y="1.67" class="s">Light</text><text x="68.136" y="1.67" class="s">Magenta</text><text x="76.15199999999999" y="1.67" class="g">|</text><text x="78.15599999999999" y="1.67" class="t">Li</text></symbol><symbol id="4"><text x="0" y="1.67" class="t">ght</text><text x="4.008" y="1.67" class="t">Cyan</text><text x="9.017999999999999" y="1.67" class="g">|</text><text x="11.021999999999998" y="1.67" class="u">Light</text><text x="17.034" y="1.67" class="u">White</text></symbol><symbol id="5">0<text x="0" y="1.67" class="v">Black</text><text x="6.012" y="1.67" class="g">|</text><rect height="2.171" width="3" x="8.016" y="0" class="w"></rect><text x="8.016" y="1.67" class="v">Red</text><text x="18.035999999999998" y="1.67" class="g">|</text><rect height="2.171" width="5" x="20.04" y="0" class="x"></rect><text x="20.04" y="1.67" class="v">Green</text><text x="32.064" y="1.67" class="g">|</text><rect height="2.171" width="6" x="34.068" y="0" class="y"></rect><text x="34.068" y="1.67" class="v">Yellow</text><text x="47.093999999999994" y="1.67" class="g">|</text><rect height="2.171" width="4" x="49.098" y="0" class="z"></rect><text x="49.098" y="1.67" class="v">Blue</text><text x="60.11999999999999" y="1.67" class="g">|</text><rect height="2.171" width="7" x="62.123999999999995" y="0" class="A"></rect><text x="62.123999999999995" y="1.67" class="v">Magenta</text><text x="76.15199999999999" y="1.67" class="g">|</text><rect height="2.171" width="2" x="78.15599999999999" y="0" class="B"></rect><text x="78.15599999999999" y="1.67" class="v">Cy</text></symbol><symbol id="6"><rect height="2.171" width="2" x="0" y="0" class="B"></rect><text x="0" y="1.67" class="v">an</text><text x="9.017999999999999" y="1.67" class="g">|</text><rect height="2.171" width="5" x="11.021999999999998" y="0" class="C"></rect><text x="11.021999999999998" y="1.67" class="v">White</text></symbol><symbol id="7"><text x="6.012" y="1.67" class="g">|</text><rect height="2.171" width="9" x="8.016" y="0" class="w"></rect><text x="8.016" y="1.67" class="v">Light Red</text><text x="18.035999999999998" y="1.67" class="g">|</text><rect height="2.171" width="11" x="20.04" y="0" class="x"></rect><text x="20.04" y="1.67" class="v">Light Green</text><text x="32.064" y="1.67" class="g">|</text><rect height="2.171" width="12" x="34.068" y="0" class="y"></rect><text x="34.068" y="1.67" class="v">Light Yellow</text><text x="47.093999999999994" y="1.67" class="g">|</text><rect height="2.171" width="10" x="49.098" y="0" class="D"></rect><text x="49.098" y="1.67" class="v">Light Blue</text><text x="60.11999999999999" y="1.67" class="g">|</text><rect height="2.171" width="13" x="62.123999999999995" y="0" class="E"></rect><text x="62.123999999999995" y="1.67" class="v">Light Magenta</text><text x="76.15199999999999" y="1.67" class="g">|</text><rect height="2.171" width="2" x="78.15599999999999" y="0" class="B"></rect><text x="78.15599999999999" y="1.67" class="v">Li</text></symbol><symbol id="8"><rect height="2.171" width="8" x="0" y="0" class="B"></rect><text x="0" y="1.67" class="v">ght Cyan</text><text x="9.017999999999999" y="1.67" class="g">|</text><rect height="2.171" width="11" x="11.021999999999998" y="0" class="F"></rect><text x="11.021999999999998" y="1.67" class="v">Light White</text></symbol><symbol id="9"><text x="0" y="1.67" class="h">Hello,</text><text x="7.013999999999999" y="1.67" class="i">World</text><text x="12.024" y="1.67" class="m">!</text></symbol><symbol id="10"><text x="0" y="1.67" class="h">Even</text><text x="5.01" y="1.67" class="m">nested</text><text x="12.024" y="1.67" class="i">colors</text><text x="19.037999999999997" y="1.67" class="h">are</text><text x="23.045999999999996" y="1.67" class="h">supported!</text></symbol><symbol id="11"><rect height="2.171" width="73" x="0" y="0" class="w"></rect><text x="0" y="1.67" class="G">This text uses a style and is bold and light green with a red background!</text></symbol><symbol id="a"><rect height="25" width="80" x="0" y="0" class="H"></rect></symbol></defs><rect height="54.275" width="80" class="a"></rect><g class="J"><svg x="0" y="0" width="400"><svg x="0"><use xlink:href="#a"></use></svg><svg x="80"><use xlink:href="#a"></use><use xlink:href="#1" y="0"></use><use xlink:href="#2" y="2.171"></use><text x="6.012" y="6.012" class="g">|</text><text x="8.016" y="6.012" class="o">Light</text><text x="14.027999999999999" y="6.012" class="o">Red</text><text x="18.035999999999998" y="6.012" class="g">|</text><text x="20.04" y="6.012" class="p">Light</text><text x="26.052" y="6.012" class="p">Green</text><text x="32.064" y="6.012" class="g">|</text><text x="34.068" y="6.012" class="q">Light</text><text x="40.08" y="6.012" class="q">Yellow</text><text x="47.093999999999994" y="6.012" class="g">|</text></svg><svg x="160"><use xlink:href="#a"></use><use xlink:href="#1" y="0"></use><use xlink:href="#2" y="2.171"></use><use xlink:href="#3" y="4.342"></use><use xlink:href="#4" y="6.513"></use><use xlink:href="#5" y="8.684"></use><use xlink:href="#6" y="10.855"></use></svg><svg x="240"><use xlink:href="#a"></use><use xlink:href="#1" y="0"></use><use xlink:href="#2" y="2.171"></use><use xlink:href="#3" y="4.342"></use><use xlink:href="#4" y="6.513"></use><use xlink:href="#5" y="8.684"></use><use xlink:href="#6" y="10.855"></use><use xlink:href="#7" y="13.026"></use><use xlink:href="#8" y="15.197"></use><use xlink:href="#9" y="19.539"></use><use xlink:href="#10" y="21.71"></use><use xlink:href="#11" y="26.052"></use></svg><svg x="320"><use xlink:href="#a"></use><use xlink:href="#1" y="0"></use><use xlink:href="#2" y="2.171"></use><use xlink:href="#3" y="4.342"></use><use xlink:href="#4" y="6.513"></use><use xlink:href="#5" y="8.684"></use><use xlink:href="#6" y="10.855"></use><use xlink:href="#7" y="13.026"></use><use xlink:href="#8" y="15.197"></use><use xlink:href="#9" y="19.539"></use><use xlink:href="#10" y="21.71"></use><use xlink:href="#11" y="26.052"></use><text x="0" y="32.064" class="v">Restarting</text><text x="11.021999999999998" y="32.064" class="v">animation...</text></svg></svg></g></g></svg></svg>