<svg xmlns="http://www.w3.org/2000/svg" xmlns:xlink="http://www.w3.org/1999/xlink" width="840" height="581.04"><rect width="840" height="581.04" rx="5" ry="5" class="a"></rect><svg y="0%" x="0%"><circle cx="20" cy="20" r="6" class="b"></circle><circle cx="40" cy="20" r="6" class="c"></circle><circle cx="60" cy="20" r="6" class="d"></circle></svg><svg height="521.04" viewBox="0 0 80 52.104" width="800" x="15" xmlns="http://www.w3.org/2000/svg" xmlns:xlink="http://www.w3.org/1999/xlink" y="50"><style>.a{fill:rgb(40,45,53)}.b{fill:#ff5f58}.c{fill:#ffbd2e}.d{fill:#18c132}.e{font-family:Monaco,Consolas,Menlo,'Bitstream Vera Sans Mono','Powerline Symbols',monospace}.f{fill:rgb(185,192,203);white-space:pre}.g{fill:transparent}.h{fill:rgb(111,118,131)}.j{animation-duration:5.889533s;animation-iteration-count:infinite;animation-name:i;animation-timing-function:steps(1,end)}@keyframes i{0%{transform:translateX(-0px)}15.1%{transform:translateX(-80px)}100%{transform:translateX(-160px)}}</style><g font-family="Monaco, Consolas, Menlo, &#x27;Bitstream Vera Sans Mono&#x27;, &#x27;Powerline Symbols&#x27;, monospace" font-size="1.67" class="e"><defs><symbol id="1"><text x="0" y="1.67" class="f">#</text><text x="2.004" y="1.67" class="f">github.com/pterm/pterm/_examples/header-custom</text></symbol><symbol id="2"><text x="0" y="1.67" class="f">_examples/header-custom/main.go:11:24:</text><text x="39.077999999999996" y="1.67" class="f">cannot</text><text x="46.09199999999999" y="1.67" class="f">use</text><text x="50.1" y="1.67" class="f">pterm.BgCyan</text><text x="63.12599999999999" y="1.67" class="f">(type</text><text x="69.13799999999999" y="1.67" class="f">pterm.Color</text></symbol><symbol id="3"><text x="0" y="1.67" class="f">)</text><text x="2.004" y="1.67" class="f">as</text><text x="5.01" y="1.67" class="f">type</text><text x="10.02" y="1.67" class="f">pterm.Style</text><text x="22.043999999999997" y="1.67" class="f">in</text><text x="25.05" y="1.67" class="f">argument</text><text x="34.068" y="1.67" class="f">to</text><text x="37.074" y="1.67" class="f">pterm.DefaultHeader.WithMargin(15).WithBack</text></symbol><symbol id="4"><text x="0" y="1.67" class="f">groundStyle</text></symbol><symbol id="5"><text x="0" y="1.67" class="f">_examples/header-custom/main.go:12:18:</text><text x="39.077999999999996" y="1.67" class="f">cannot</text><text x="46.09199999999999" y="1.67" class="f">use</text><text x="50.1" y="1.67" class="f">pterm.FgBlack</text><text x="64.128" y="1.67" class="f">(type</text><text x="70.13999999999999" y="1.67" class="f">pterm.Colo</text></symbol><symbol id="6"><text x="0" y="1.67" class="f">r)</text><text x="3.006" y="1.67" class="f">as</text><text x="6.012" y="1.67" class="f">type</text><text x="11.021999999999998" y="1.67" class="f">pterm.Style</text><text x="23.045999999999996" y="1.67" class="f">in</text><text x="26.052" y="1.67" class="f">argument</text><text x="35.06999999999999" y="1.67" class="f">to</text><text x="38.07599999999999" y="1.67" class="f">pterm.DefaultHeader.WithMargin(15).WithBac</text></symbol><symbol id="7"><text x="0" y="1.67" class="f">kgroundStyle(pterm.BgCyan).WithTextStyle</text></symbol><symbol id="8"><text x="0" y="1.67" class="f">note:</text><text x="6.012" y="1.67" class="f">module</text><text x="13.026" y="1.67" class="f">requires</text><text x="22.043999999999997" y="1.67" class="f">Go</text><text x="25.05" y="1.67" class="f">1.15</text></symbol><symbol id="a"><rect height="24" width="80" x="0" y="0" class="g"></rect></symbol><symbol id="b"><rect height="2.171" width="1.1022" class="h"></rect></symbol></defs><rect height="52.104" width="80" class="a"></rect><g class="j"><svg x="0" y="0" width="240"><svg x="0"><use xlink:href="#a"></use><use xlink:href="#b" x="-0.0040000000000000036" y="0"></use></svg><svg x="80"><use xlink:href="#a"></use><use xlink:href="#b" x="-0.0040000000000000036" y="17.343"></use><use xlink:href="#1" y="0"></use><use xlink:href="#2" y="2.171"></use><use xlink:href="#3" y="4.342"></use><use xlink:href="#4" y="6.513"></use><use xlink:href="#5" y="8.684"></use><use xlink:href="#6" y="10.855"></use><use xlink:href="#7" y="13.026"></use><use xlink:href="#8" y="15.197"></use></svg><svg x="160"><use xlink:href="#a"></use><use xlink:href="#b" x="-0.0040000000000000036" y="21.685000000000002"></use><use xlink:href="#1" y="0"></use><use xlink:href="#2" y="2.171"></use><use xlink:href="#3" y="4.342"></use><use xlink:href="#4" y="6.513"></use><use xlink:href="#5" y="8.684"></use><use xlink:href="#6" y="10.855"></use><use xlink:href="#7" y="13.026"></use><use xlink:href="#8" y="15.197"></use><text x="0" y="21.209000000000003" class="f">restarting...</text></svg></svg></g></g></svg></svg>