<svg xmlns="http://www.w3.org/2000/svg" xmlns:xlink="http://www.w3.org/1999/xlink" width="840" height="581.04"><rect width="840" height="581.04" rx="5" ry="5" class="a"></rect><svg y="0%" x="0%"><circle cx="20" cy="20" r="6" class="b"></circle><circle cx="40" cy="20" r="6" class="c"></circle><circle cx="60" cy="20" r="6" class="d"></circle></svg><svg height="521.04" viewBox="0 0 80 52.104" width="800" x="15" xmlns="http://www.w3.org/2000/svg" xmlns:xlink="http://www.w3.org/1999/xlink" y="50"><style>@font-face{
  font-family: 'JetBrainsMono';
  src: url('https://cdn.jsdelivr.net/gh/JetBrains/JetBrainsMono/web/woff2/JetBrainsMono-Regular.woff2') format('woff2'),
    url('https://cdn.jsdelivr.net/gh/JetBrains/JetBrainsMono/web/woff/JetBrainsMono-Regular.woff') format('woff'),
    url('https://cdn.jsdelivr.net/gh/JetBrains/JetBrainsMono/ttf/JetBrainsMono-Regular.ttf') format('truetype');
  font-weight: 400;
  font-style: normal;
}.a{fill:rgb(35,35,35)}.b{fill:#ff5f58}.c{fill:#ffbd2e}.d{fill:#18c132}.e{font-family:'JetBrainsMono',Monaco,Consolas,Menlo,'Bitstream Vera Sans Mono','Powerline Symbols',monospace}.f{fill:rgb(160,160,160);white-space:pre}.g{fill:transparent}.i{animation-duration:5.476707s;animation-iteration-count:infinite;animation-name:h;animation-timing-function:steps(1,end)}@keyframes h{0%{transform:translateX(-0px)}8.7%{transform:translateX(-80px)}8.7%{transform:translateX(-160px)}8.7%{transform:translateX(-240px)}8.7%{transform:translateX(-320px)}8.7%{transform:translateX(-400px)}8.7%{transform:translateX(-480px)}8.7%{transform:translateX(-560px)}100%{transform:translateX(-640px)}}</style><g font-family="'JetBrainsMono',Monaco, Consolas, Menlo, &#x27;Bitstream Vera Sans Mono&#x27;, &#x27;Powerline Symbols&#x27;, monospace" font-size="1.67" class="e"><defs><symbol id="1"><text x="0" y="1.67" class="f">┌────────────────────────────────────────────────────────────────────┐</text></symbol><symbol id="2"><text x="0" y="1.67" class="f">|</text><text x="2.004" y="1.67" class="f">┌──────────────────────────────────┐</text><text x="39.077999999999996" y="1.67" class="f">┌───────────────────────────┐</text><text x="69.13799999999999" y="1.67" class="f">|</text></symbol><symbol id="3"><text x="0" y="1.67" class="f">|</text><text x="2.004" y="1.67" class="f">|</text><text x="4.008" y="1.67" class="f">Lorem</text><text x="10.02" y="1.67" class="f">ipsum</text><text x="16.032" y="1.67" class="f">dolor</text><text x="22.043999999999997" y="1.67" class="f">sit</text><text x="26.052" y="1.67" class="f">amet,</text><text x="37.074" y="1.67" class="f">|</text><text x="39.077999999999996" y="1.67" class="f">|</text><text x="41.082" y="1.67" class="f">Ut</text><text x="44.087999999999994" y="1.67" class="f">enim</text><text x="49.098" y="1.67" class="f">ad</text><text x="52.104" y="1.67" class="f">minim</text><text x="58.116" y="1.67" class="f">veniam,</text><text x="67.134" y="1.67" class="f">|</text><text x="69.13799999999999" y="1.67" class="f">|</text></symbol><symbol id="4"><text x="0" y="1.67" class="f">|</text><text x="2.004" y="1.67" class="f">|</text><text x="4.008" y="1.67" class="f">consectetur</text><text x="16.032" y="1.67" class="f">adipiscing</text><text x="27.054" y="1.67" class="f">elit,</text><text x="37.074" y="1.67" class="f">|</text><text x="39.077999999999996" y="1.67" class="f">|</text><text x="41.082" y="1.67" class="f">quis</text><text x="46.09199999999999" y="1.67" class="f">nostrud</text><text x="54.108" y="1.67" class="f">exercitation</text><text x="67.134" y="1.67" class="f">|</text><text x="69.13799999999999" y="1.67" class="f">|</text></symbol><symbol id="5"><text x="0" y="1.67" class="f">|</text><text x="2.004" y="1.67" class="f">|</text><text x="4.008" y="1.67" class="f">sed</text><text x="8.016" y="1.67" class="f">do</text><text x="11.021999999999998" y="1.67" class="f">eiusmod</text><text x="19.037999999999997" y="1.67" class="f">tempor</text><text x="26.052" y="1.67" class="f">incididunt</text><text x="37.074" y="1.67" class="f">|</text><text x="39.077999999999996" y="1.67" class="f">|</text><text x="41.082" y="1.67" class="f">ullamco</text><text x="49.098" y="1.67" class="f">laboris</text><text x="67.134" y="1.67" class="f">|</text><text x="69.13799999999999" y="1.67" class="f">|</text></symbol><symbol id="6"><text x="0" y="1.67" class="f">|</text><text x="2.004" y="1.67" class="f">|</text><text x="4.008" y="1.67" class="f">ut</text><text x="7.013999999999999" y="1.67" class="f">labore</text><text x="14.027999999999999" y="1.67" class="f">et</text><text x="17.034" y="1.67" class="f">dolore</text><text x="37.074" y="1.67" class="f">|</text><text x="39.077999999999996" y="1.67" class="f">|</text><text x="41.082" y="1.67" class="f">nisi</text><text x="46.09199999999999" y="1.67" class="f">ut</text><text x="49.098" y="1.67" class="f">aliquip</text><text x="67.134" y="1.67" class="f">|</text><text x="69.13799999999999" y="1.67" class="f">|</text></symbol><symbol id="7"><text x="0" y="1.67" class="f">|</text><text x="2.004" y="1.67" class="f">|</text><text x="4.008" y="1.67" class="f">magna</text><text x="10.02" y="1.67" class="f">aliqua.</text><text x="37.074" y="1.67" class="f">|</text><text x="39.077999999999996" y="1.67" class="f">|</text><text x="41.082" y="1.67" class="f">ex</text><text x="44.087999999999994" y="1.67" class="f">ea</text><text x="47.093999999999994" y="1.67" class="f">commodo</text><text x="67.134" y="1.67" class="f">|</text><text x="69.13799999999999" y="1.67" class="f">|</text></symbol><symbol id="8"><text x="0" y="1.67" class="f">|</text><text x="2.004" y="1.67" class="f">└──────────────────────────────────┘</text><text x="39.077999999999996" y="1.67" class="f">|</text><text x="41.082" y="1.67" class="f">consequat.</text><text x="67.134" y="1.67" class="f">|</text><text x="69.13799999999999" y="1.67" class="f">|</text></symbol><symbol id="9"><text x="0" y="1.67" class="f">|</text><text x="39.077999999999996" y="1.67" class="f">└───────────────────────────┘</text><text x="69.13799999999999" y="1.67" class="f">|</text></symbol><symbol id="10"><text x="0" y="1.67" class="f">|</text><text x="2.004" y="1.67" class="f">┌────────────────────────────────┐</text><text x="69.13799999999999" y="1.67" class="f">|</text></symbol><symbol id="11"><text x="0" y="1.67" class="f">|</text><text x="2.004" y="1.67" class="f">|</text><text x="4.008" y="1.67" class="f">Duis</text><text x="9.017999999999999" y="1.67" class="f">aute</text><text x="14.027999999999999" y="1.67" class="f">irure</text><text x="35.06999999999999" y="1.67" class="f">|</text><text x="69.13799999999999" y="1.67" class="f">|</text></symbol><symbol id="12"><text x="0" y="1.67" class="f">|</text><text x="2.004" y="1.67" class="f">|</text><text x="4.008" y="1.67" class="f">dolor</text><text x="10.02" y="1.67" class="f">in</text><text x="13.026" y="1.67" class="f">reprehenderit</text><text x="35.06999999999999" y="1.67" class="f">|</text><text x="69.13799999999999" y="1.67" class="f">|</text></symbol><symbol id="13"><text x="0" y="1.67" class="f">|</text><text x="2.004" y="1.67" class="f">|</text><text x="4.008" y="1.67" class="f">in</text><text x="7.013999999999999" y="1.67" class="f">voluptate</text><text x="17.034" y="1.67" class="f">velit</text><text x="23.045999999999996" y="1.67" class="f">esse</text><text x="28.055999999999997" y="1.67" class="f">cillum</text><text x="35.06999999999999" y="1.67" class="f">|</text><text x="69.13799999999999" y="1.67" class="f">|</text></symbol><symbol id="14"><text x="0" y="1.67" class="f">|</text><text x="2.004" y="1.67" class="f">|</text><text x="4.008" y="1.67" class="f">dolore</text><text x="11.021999999999998" y="1.67" class="f">eu</text><text x="14.027999999999999" y="1.67" class="f">fugiat</text><text x="35.06999999999999" y="1.67" class="f">|</text><text x="69.13799999999999" y="1.67" class="f">|</text></symbol><symbol id="15"><text x="0" y="1.67" class="f">|</text><text x="2.004" y="1.67" class="f">|</text><text x="4.008" y="1.67" class="f">nulla</text><text x="10.02" y="1.67" class="f">pariatur.</text><text x="35.06999999999999" y="1.67" class="f">|</text><text x="69.13799999999999" y="1.67" class="f">|</text></symbol><symbol id="16"><text x="0" y="1.67" class="f">|</text><text x="2.004" y="1.67" class="f">└────────────────────────────────┘</text><text x="69.13799999999999" y="1.67" class="f">|</text></symbol><symbol id="17"><text x="0" y="1.67" class="f">|</text><text x="69.13799999999999" y="1.67" class="f">|</text></symbol><symbol id="18"><text x="0" y="1.67" class="f">└────────────────────────────────────────────────────────────────────┘</text></symbol><symbol id="a"><rect height="24" width="80" x="0" y="0" class="g"></rect></symbol></defs><rect height="52.104" width="80" class="a"></rect><g class="i"><svg x="0" y="0" width="720"><svg x="0"><use xlink:href="#a"></use></svg><svg x="80"><use xlink:href="#a"></use><use xlink:href="#1" y="0"></use><text x="0" y="3.8409999999999997" class="f">|</text><text x="2.004" y="3.8409999999999997" class="f">┌────────────</text></svg><svg x="160"><use xlink:href="#a"></use><use xlink:href="#1" y="0"></use><use xlink:href="#2" y="2.171"></use><use xlink:href="#3" y="4.342"></use><text x="0" y="8.183" class="f">|</text><text x="2.004" y="8.183" class="f">|</text><text x="4.008" y="8.183" class="f">consectetur</text><text x="16.032" y="8.183" class="f">adipiscing</text><text x="27.054" y="8.183" class="f">elit,</text><text x="37.074" y="8.183" class="f">|</text><text x="39.077999999999996" y="8.183" class="f">|</text><text x="41.082" y="8.183" class="f">quis</text><text x="46.09199999999999" y="8.183" class="f">nostrud</text><text x="54.108" y="8.183" class="f">exerc</text></svg><svg x="240"><use xlink:href="#a"></use><use xlink:href="#1" y="0"></use><use xlink:href="#2" y="2.171"></use><use xlink:href="#3" y="4.342"></use><use xlink:href="#4" y="6.513"></use><use xlink:href="#5" y="8.684"></use><use xlink:href="#6" y="10.855"></use><use xlink:href="#7" y="13.026"></use><text x="0" y="16.866999999999997" class="f">|</text><text x="2.004" y="16.866999999999997" class="f">└───────────────────────────────</text></svg><svg x="320"><use xlink:href="#a"></use><use xlink:href="#1" y="0"></use><use xlink:href="#2" y="2.171"></use><use xlink:href="#3" y="4.342"></use><use xlink:href="#4" y="6.513"></use><use xlink:href="#5" y="8.684"></use><use xlink:href="#6" y="10.855"></use><use xlink:href="#7" y="13.026"></use><use xlink:href="#8" y="15.197"></use><use xlink:href="#9" y="17.368"></use><text x="0" y="21.209000000000003" class="f">|</text><text x="2.004" y="21.209000000000003" class="f">┌────────────────────────────────</text></svg><svg x="400"><use xlink:href="#a"></use><use xlink:href="#1" y="0"></use><use xlink:href="#2" y="2.171"></use><use xlink:href="#3" y="4.342"></use><use xlink:href="#4" y="6.513"></use><use xlink:href="#5" y="8.684"></use><use xlink:href="#6" y="10.855"></use><use xlink:href="#7" y="13.026"></use><use xlink:href="#8" y="15.197"></use><use xlink:href="#9" y="17.368"></use><use xlink:href="#10" y="19.539"></use><use xlink:href="#11" y="21.71"></use><use xlink:href="#12" y="23.880999999999997"></use><use xlink:href="#13" y="26.052"></use><use xlink:href="#14" y="28.223000000000003"></use><use xlink:href="#15" y="30.394"></use><text x="0" y="34.235" class="f">|</text><text x="2.004" y="34.235" class="f">└─────────────────</text></svg><svg x="480"><use xlink:href="#a"></use><use xlink:href="#1" y="0"></use><use xlink:href="#2" y="2.171"></use><use xlink:href="#3" y="4.342"></use><use xlink:href="#4" y="6.513"></use><use xlink:href="#5" y="8.684"></use><use xlink:href="#6" y="10.855"></use><use xlink:href="#7" y="13.026"></use><use xlink:href="#8" y="15.197"></use><use xlink:href="#9" y="17.368"></use><use xlink:href="#10" y="19.539"></use><use xlink:href="#11" y="21.71"></use><use xlink:href="#12" y="23.880999999999997"></use><use xlink:href="#13" y="26.052"></use><use xlink:href="#14" y="28.223000000000003"></use><use xlink:href="#15" y="30.394"></use><use xlink:href="#16" y="32.565"></use><use xlink:href="#17" y="34.736"></use><text x="0" y="38.577000000000005" class="f">└───────────────────────────────────────────────────────</text></svg><svg x="560"><use xlink:href="#a"></use><use xlink:href="#1" y="0"></use><use xlink:href="#2" y="2.171"></use><use xlink:href="#3" y="4.342"></use><use xlink:href="#4" y="6.513"></use><use xlink:href="#5" y="8.684"></use><use xlink:href="#6" y="10.855"></use><use xlink:href="#7" y="13.026"></use><use xlink:href="#8" y="15.197"></use><use xlink:href="#9" y="17.368"></use><use xlink:href="#10" y="19.539"></use><use xlink:href="#11" y="21.71"></use><use xlink:href="#12" y="23.880999999999997"></use><use xlink:href="#13" y="26.052"></use><use xlink:href="#14" y="28.223000000000003"></use><use xlink:href="#15" y="30.394"></use><use xlink:href="#16" y="32.565"></use><use xlink:href="#17" y="34.736"></use><use xlink:href="#18" y="36.907000000000004"></use></svg><svg x="640"><use xlink:href="#a"></use><use xlink:href="#1" y="0"></use><use xlink:href="#2" y="2.171"></use><use xlink:href="#3" y="4.342"></use><use xlink:href="#4" y="6.513"></use><use xlink:href="#5" y="8.684"></use><use xlink:href="#6" y="10.855"></use><use xlink:href="#7" y="13.026"></use><use xlink:href="#8" y="15.197"></use><use xlink:href="#9" y="17.368"></use><use xlink:href="#10" y="19.539"></use><use xlink:href="#11" y="21.71"></use><use xlink:href="#12" y="23.880999999999997"></use><use xlink:href="#13" y="26.052"></use><use xlink:href="#14" y="28.223000000000003"></use><use xlink:href="#15" y="30.394"></use><use xlink:href="#16" y="32.565"></use><use xlink:href="#17" y="34.736"></use><use xlink:href="#18" y="36.907000000000004"></use><text x="0" y="42.919" class="f">Restarting</text><text x="11.021999999999998" y="42.919" class="f">animation...</text></svg></svg></g></g></svg></svg>