<svg xmlns="http://www.w3.org/2000/svg" xmlns:xlink="http://www.w3.org/1999/xlink" width="840" height="581.04"><rect width="840" height="581.04" rx="5" ry="5" class="a"></rect><svg y="0%" x="0%"><circle cx="20" cy="20" r="6" class="b"></circle><circle cx="40" cy="20" r="6" class="c"></circle><circle cx="60" cy="20" r="6" class="d"></circle></svg><svg height="521.04" viewBox="0 0 80 52.104" width="800" x="15" xmlns="http://www.w3.org/2000/svg" xmlns:xlink="http://www.w3.org/1999/xlink" y="50"><style>.e, .g, .f {
	font-family:
			'Courier New'
			Roboto,
			Helvetica,
			Arial,
			sans-serif,
			'Apple Color Emoji',
			'Segoe UI Emoji' !important;
}.a{fill:rgb(35,35,35)}.b{fill:#ff5f58}.c{fill:#ffbd2e}.d{fill:#18c132}.e{font-family:'JetBrainsMono',Monaco,Consolas,Menlo,'Bitstream Vera Sans Mono','Powerline Symbols',monospace}.f{fill:rgb(102,194,205)}.g{white-space:pre}.h{fill:rgb(126,231,233);white-space:pre}.i{fill:rgb(160,160,160);white-space:pre}.j{fill:transparent}.l{animation-duration:5.231855s;animation-iteration-count:infinite;animation-name:k;animation-timing-function:steps(1,end)}@keyframes k{0%{transform:translateX(-0px)}4.3%{transform:translateX(-80px)}4.4%{transform:translateX(-160px)}100%{transform:translateX(-240px)}}</style><g font-family="'JetBrainsMono',Monaco, Consolas, Menlo, &#x27;Bitstream Vera Sans Mono&#x27;, &#x27;Powerline Symbols&#x27;, monospace" font-size="1.67" class="e"><defs><symbol id="1"><rect height="2.171" width="6" x="0" y="0" class="f"></rect><text x="0" y="1.67" class="g"> INFO </text><text x="7.013999999999999" y="1.67" class="h">This</text><text x="12.024" y="1.67" class="h">might</text><text x="18.035999999999998" y="1.67" class="h">not</text><text x="22.043999999999997" y="1.67" class="h">be</text><text x="25.05" y="1.67" class="h">rendered</text><text x="34.068" y="1.67" class="h">correctly</text><text x="44.087999999999994" y="1.67" class="h">on</text><text x="47.093999999999994" y="1.67" class="h">GitHub,</text></symbol><symbol id="2"><rect height="2.171" width="6" x="0" y="0" class="f"></rect><text x="0" y="1.67" class="g">      </text><text x="7.013999999999999" y="1.67" class="h">but</text><text x="11.021999999999998" y="1.67" class="h">it</text><text x="14.027999999999999" y="1.67" class="h">will</text><text x="19.037999999999997" y="1.67" class="h">work</text><text x="24.048" y="1.67" class="h">in</text><text x="27.054" y="1.67" class="h">a</text><text x="29.058" y="1.67" class="h">real</text><text x="34.068" y="1.67" class="h">terminal.</text></symbol><symbol id="3"><rect height="2.171" width="6" x="0" y="0" class="f"></rect><text x="0" y="1.67" class="g">      </text><text x="7.013999999999999" y="1.67" class="h">This</text><text x="12.024" y="1.67" class="h">is</text><text x="15.029999999999998" y="1.67" class="h">because</text><text x="23.045999999999996" y="1.67" class="h">GitHub</text><text x="30.059999999999995" y="1.67" class="h">does</text><text x="35.06999999999999" y="1.67" class="h">not</text><text x="39.077999999999996" y="1.67" class="h">use</text><text x="43.086" y="1.67" class="h">a</text><text x="45.089999999999996" y="1.67" class="h">monospaced</text><text x="56.111999999999995" y="1.67" class="h">font</text><text x="61.12199999999999" y="1.67" class="h">by</text><text x="64.128" y="1.67" class="h">default</text><text x="72.14399999999999" y="1.67" class="h">for</text><text x="76.15199999999999" y="1.67" class="h">SVGs</text></symbol><symbol id="4"><text x="0" y="1.67" class="h">.</text></symbol><symbol id="5"><text x="0" y="1.67" class="i">┌────────────────────────────────────────────────</text></symbol><symbol id="a"><rect height="24" width="80" x="0" y="0" class="j"></rect></symbol></defs><rect height="52.104" width="80" class="a"></rect><g class="l"><svg x="0" y="0" width="320"><svg x="0"><use xlink:href="#a"></use></svg><svg x="80"><use xlink:href="#a"></use><use xlink:href="#1" y="0"></use><use xlink:href="#2" y="2.171"></use><use xlink:href="#3" y="4.342"></use><use xlink:href="#4" y="6.513"></use></svg><svg x="160"><use xlink:href="#a"></use><use xlink:href="#1" y="0"></use><use xlink:href="#2" y="2.171"></use><use xlink:href="#3" y="4.342"></use><use xlink:href="#4" y="6.513"></use><use xlink:href="#5" y="8.684"></use></svg><svg x="240"><use xlink:href="#a"></use><use xlink:href="#1" y="0"></use><use xlink:href="#2" y="2.171"></use><use xlink:href="#3" y="4.342"></use><use xlink:href="#4" y="6.513"></use><use xlink:href="#5" y="8.684"></use><text x="49.098" y="12.525" class="i">estarting</text><text x="59.117999999999995" y="12.525" class="i">animation...</text></svg></svg></g></g></svg></svg>