<svg xmlns="http://www.w3.org/2000/svg" xmlns:xlink="http://www.w3.org/1999/xlink" width="840" height="581.04"><rect width="840" height="581.04" rx="5" ry="5" class="a"></rect><svg y="0%" x="0%"><circle cx="20" cy="20" r="6" class="b"></circle><circle cx="40" cy="20" r="6" class="c"></circle><circle cx="60" cy="20" r="6" class="d"></circle></svg><svg height="521.04" viewBox="0 0 80 52.104" width="800" x="15" xmlns="http://www.w3.org/2000/svg" xmlns:xlink="http://www.w3.org/1999/xlink" y="50"><style>@font-face{
  font-family: 'JetBrainsMono';
  src: url('https://cdn.jsdelivr.net/gh/JetBrains/JetBrainsMono/web/woff2/JetBrainsMono-Regular.woff2') format('woff2'),
    url('https://cdn.jsdelivr.net/gh/JetBrains/JetBrainsMono/web/woff/JetBrainsMono-Regular.woff') format('woff'),
    url('https://cdn.jsdelivr.net/gh/JetBrains/JetBrainsMono/ttf/JetBrainsMono-Regular.ttf') format('truetype');
  font-weight: 400;
  font-style: normal;
}.a{fill:rgb(35,35,35)}.b{fill:#ff5f58}.c{fill:#ffbd2e}.d{fill:#18c132}.e{font-family:'JetBrainsMono',Monaco,Consolas,Menlo,'Bitstream Vera Sans Mono','Powerline Symbols',monospace}.f{fill:rgb(160,160,160);white-space:pre}.g{fill:transparent}.i{animation-duration:5.449673s;animation-iteration-count:infinite;animation-name:h;animation-timing-function:steps(1,end)}@keyframes h{0%{transform:translateX(-0px)}8.2%{transform:translateX(-80px)}8.3%{transform:translateX(-160px)}100%{transform:translateX(-240px)}}</style><g font-family="'JetBrainsMono',Monaco, Consolas, Menlo, &#x27;Bitstream Vera Sans Mono&#x27;, &#x27;Powerline Symbols&#x27;, monospace" font-size="1.67" class="e"><defs><symbol id="1"><text x="0" y="1.67" class="f">┌────────────────────────────────────────────────────────────────────┐</text></symbol><symbol id="2"><text x="0" y="1.67" class="f">|</text><text x="2.004" y="1.67" class="f">┌──────────────────────────────────┐</text><text x="39.077999999999996" y="1.67" class="f">┌───────────────────────────┐</text><text x="69.13799999999999" y="1.67" class="f">|</text></symbol><symbol id="3"><text x="0" y="1.67" class="f">|</text><text x="2.004" y="1.67" class="f">|</text><text x="4.008" y="1.67" class="f">Lorem</text><text x="10.02" y="1.67" class="f">ipsum</text><text x="16.032" y="1.67" class="f">dolor</text><text x="22.043999999999997" y="1.67" class="f">sit</text><text x="26.052" y="1.67" class="f">amet,</text><text x="37.074" y="1.67" class="f">|</text><text x="39.077999999999996" y="1.67" class="f">|</text><text x="41.082" y="1.67" class="f">Ut</text><text x="44.087999999999994" y="1.67" class="f">enim</text><text x="49.098" y="1.67" class="f">ad</text><text x="52.104" y="1.67" class="f">minim</text><text x="58.116" y="1.67" class="f">veniam,</text><text x="67.134" y="1.67" class="f">|</text><text x="69.13799999999999" y="1.67" class="f">|</text></symbol><symbol id="4"><text x="0" y="1.67" class="f">|</text><text x="2.004" y="1.67" class="f">|</text><text x="4.008" y="1.67" class="f">consectetur</text><text x="16.032" y="1.67" class="f">adipiscing</text><text x="27.054" y="1.67" class="f">elit,</text><text x="37.074" y="1.67" class="f">|</text><text x="39.077999999999996" y="1.67" class="f">|</text><text x="41.082" y="1.67" class="f">quis</text><text x="46.09199999999999" y="1.67" class="f">nostrud</text><text x="54.108" y="1.67" class="f">exerc</text></symbol><symbol id="a"><rect height="24" width="80" x="0" y="0" class="g"></rect></symbol></defs><rect height="52.104" width="80" class="a"></rect><g class="i"><svg x="0" y="0" width="320"><svg x="0"><use xlink:href="#a"></use></svg><svg x="80"><use xlink:href="#a"></use><use xlink:href="#1" y="0"></use><text x="0" y="3.8409999999999997" class="f">|</text><text x="2.004" y="3.8409999999999997" class="f">┌────────────</text></svg><svg x="160"><use xlink:href="#a"></use><use xlink:href="#1" y="0"></use><use xlink:href="#2" y="2.171"></use><use xlink:href="#3" y="4.342"></use><use xlink:href="#4" y="6.513"></use></svg><svg x="240"><use xlink:href="#a"></use><use xlink:href="#1" y="0"></use><use xlink:href="#2" y="2.171"></use><use xlink:href="#3" y="4.342"></use><use xlink:href="#4" y="6.513"></use><text x="59.117999999999995" y="10.354" class="f">Restarting</text><text x="70.13999999999999" y="10.354" class="f">animation.</text><text x="0" y="12.525" class="f">..</text></svg></svg></g></g></svg></svg>