<svg xmlns="http://www.w3.org/2000/svg" xmlns:xlink="http://www.w3.org/1999/xlink" width="840" height="581.04"><rect width="840" height="581.04" rx="5" ry="5" class="a"></rect><svg y="0%" x="0%"><circle cx="20" cy="20" r="6" class="b"></circle><circle cx="40" cy="20" r="6" class="c"></circle><circle cx="60" cy="20" r="6" class="d"></circle></svg><svg height="521.04" viewBox="0 0 80 52.104" width="800" x="15" xmlns="http://www.w3.org/2000/svg" xmlns:xlink="http://www.w3.org/1999/xlink" y="50"><style>.e, .g, .f {
	font-family:
			'Courier New'
			Roboto,
			Helvetica,
			Arial,
			sans-serif,
			'Apple Color Emoji',
			'Segoe UI Emoji' !important;
}.a{fill:rgb(35,35,35)}.b{fill:#ff5f58}.c{fill:#ffbd2e}.d{fill:#18c132}.e{font-family:'Courier New',Monaco,Consolas,Menlo,'Bitstream Vera Sans Mono','Powerline Symbols',monospace}.f{fill:rgb(104,104,104);white-space:pre}.g{fill:rgb(0,71,255);font-weight:bold;white-space:pre}.h{fill:rgb(160,160,160);white-space:pre}.i{fill:rgb(124,255,0);font-weight:bold;white-space:pre}.j{fill:rgb(255,241,0);font-weight:bold;white-space:pre}.k{fill:rgb(255,0,4);font-weight:bold;white-space:pre}.l{fill:transparent}.n{animation-duration:5.352826s;animation-iteration-count:infinite;animation-name:m;animation-timing-function:steps(1,end)}@keyframes m{0%{transform:translateX(-0px)}4.5%{transform:translateX(-80px)}6.6%{transform:translateX(-160px)}100%{transform:translateX(-240px)}}</style><g font-family="'Courier New',Monaco, Consolas, Menlo, &#x27;Bitstream Vera Sans Mono&#x27;, &#x27;Powerline Symbols&#x27;, monospace" font-size="1.67" class="e"><defs><symbol id="1"><text x="0" y="1.67" class="f">2024-11-27</text><text x="11.021999999999998" y="1.67" class="f">12:35:36</text><text x="20.04" y="1.67" class="g">DEBUG</text><text x="26.052" y="1.67" class="h">This</text><text x="31.061999999999998" y="1.67" class="h">is</text><text x="34.068" y="1.67" class="h">a</text><text x="36.071999999999996" y="1.67" class="h">debug</text><text x="42.083999999999996" y="1.67" class="h">message</text><text x="50.1" y="1.67" class="g">changedLevel:</text><text x="64.128" y="1.67" class="h">true</text></symbol><symbol id="2"><text x="0" y="1.67" class="f">2024-11-27</text><text x="11.021999999999998" y="1.67" class="f">12:35:36</text><text x="20.04" y="1.67" class="i">INFO</text><text x="26.052" y="1.67" class="h">This</text><text x="31.061999999999998" y="1.67" class="h">is</text><text x="34.068" y="1.67" class="h">an</text><text x="37.074" y="1.67" class="h">info</text><text x="42.083999999999996" y="1.67" class="h">message</text></symbol><symbol id="3"><text x="0" y="1.67" class="f">2024-11-27</text><text x="11.021999999999998" y="1.67" class="f">12:35:36</text><text x="20.04" y="1.67" class="j">WARN</text><text x="26.052" y="1.67" class="h">This</text><text x="31.061999999999998" y="1.67" class="h">is</text><text x="34.068" y="1.67" class="h">a</text><text x="36.071999999999996" y="1.67" class="h">warning</text><text x="44.087999999999994" y="1.67" class="h">message</text></symbol><symbol id="4"><text x="0" y="1.67" class="f">2024-11-27</text><text x="11.021999999999998" y="1.67" class="f">12:35:36</text><text x="20.04" y="1.67" class="k">ERROR</text><text x="26.052" y="1.67" class="h">This</text><text x="31.061999999999998" y="1.67" class="h">is</text><text x="34.068" y="1.67" class="h">an</text><text x="37.074" y="1.67" class="h">error</text><text x="43.086" y="1.67" class="h">message</text></symbol><symbol id="a"><rect height="24" width="80" x="0" y="0" class="l"></rect></symbol></defs><rect height="52.104" width="80" class="a"></rect><g class="n"><svg x="0" y="0" width="320"><svg x="0"><use xlink:href="#a"></use></svg><svg x="80"><use xlink:href="#a"></use><use xlink:href="#1" y="0"></use></svg><svg x="160"><use xlink:href="#a"></use><use xlink:href="#1" y="0"></use><use xlink:href="#2" y="2.171"></use><use xlink:href="#3" y="4.342"></use><use xlink:href="#4" y="6.513"></use></svg><svg x="240"><use xlink:href="#a"></use><use xlink:href="#1" y="0"></use><use xlink:href="#2" y="2.171"></use><use xlink:href="#3" y="4.342"></use><use xlink:href="#4" y="6.513"></use><text x="0" y="12.525" class="h">Restarting</text><text x="11.021999999999998" y="12.525" class="h">animation...</text></svg></svg></g></g></svg></svg>