<svg xmlns="http://www.w3.org/2000/svg" xmlns:xlink="http://www.w3.org/1999/xlink" width="840" height="581.04"><rect width="840" height="581.04" rx="5" ry="5" class="a"></rect><svg y="0%" x="0%"><circle cx="20" cy="20" r="6" class="b"></circle><circle cx="40" cy="20" r="6" class="c"></circle><circle cx="60" cy="20" r="6" class="d"></circle></svg><svg height="521.04" viewBox="0 0 80 52.104" width="800" x="15" xmlns="http://www.w3.org/2000/svg" xmlns:xlink="http://www.w3.org/1999/xlink" y="50"><style>.e, .g, .f {
	font-family:
			'Courier New'
			Roboto,
			Helvetica,
			Arial,
			sans-serif,
			'Apple Color Emoji',
			'Segoe UI Emoji' !important;
}.a{fill:rgb(35,35,35)}.b{fill:#ff5f58}.c{fill:#ffbd2e}.d{fill:#18c132}.e{font-family:'Courier New',Monaco,Consolas,Menlo,'Bitstream Vera Sans Mono','Powerline Symbols',monospace}.f{fill:rgb(178,44,199);white-space:pre}.g{fill:rgb(15,199,209);white-space:pre}.h{fill:rgb(201,144,30)}.i{fill:rgb(160,160,160);white-space:pre}.j{fill:transparent}.l{animation-duration:5.259155s;animation-iteration-count:infinite;animation-name:k;animation-timing-function:steps(1,end)}@keyframes k{0%{transform:translateX(-0px)}4.9%{transform:translateX(-80px)}100%{transform:translateX(-160px)}}</style><g font-family="'Courier New',Monaco, Consolas, Menlo, &#x27;Bitstream Vera Sans Mono&#x27;, &#x27;Powerline Symbols&#x27;, monospace" font-size="1.67" class="e"><defs><symbol id="1"><text x="0" y="1.67" class="f">This</text><text x="5.01" y="1.67" class="f">text</text><text x="10.02" y="1.67" class="f">is</text><text x="13.026" y="1.67" class="f">printed</text><text x="21.041999999999998" y="1.67" class="f">with</text><text x="26.052" y="1.67" class="f">a</text><text x="28.055999999999997" y="1.67" class="f">custom</text><text x="35.06999999999999" y="1.67" class="f">RGB!</text></symbol><symbol id="2"><text x="0" y="1.67" class="g">This</text><text x="5.01" y="1.67" class="g">text</text><text x="10.02" y="1.67" class="g">is</text><text x="13.026" y="1.67" class="g">printed</text><text x="21.041999999999998" y="1.67" class="g">with</text><text x="26.052" y="1.67" class="g">a</text><text x="28.055999999999997" y="1.67" class="g">custom</text><text x="35.06999999999999" y="1.67" class="g">RGB!</text></symbol><symbol id="3"><rect height="2.171" width="50" x="0" y="0" class="h"></rect><text x="0" y="1.67" class="i">This text is printed with a custom RGB background!</text></symbol><symbol id="a"><rect height="24" width="80" x="0" y="0" class="j"></rect></symbol></defs><rect height="52.104" width="80" class="a"></rect><g class="l"><svg x="0" y="0" width="240"><svg x="0"><use xlink:href="#a"></use></svg><svg x="80"><use xlink:href="#a"></use><use xlink:href="#1" y="0"></use><use xlink:href="#2" y="2.171"></use><use xlink:href="#3" y="4.342"></use></svg><svg x="160"><use xlink:href="#a"></use><use xlink:href="#1" y="0"></use><use xlink:href="#2" y="2.171"></use><use xlink:href="#3" y="4.342"></use><text x="0" y="10.354" class="i">Restarting</text><text x="11.021999999999998" y="10.354" class="i">animation...</text></svg></svg></g></g></svg></svg>