<svg xmlns="http://www.w3.org/2000/svg" xmlns:xlink="http://www.w3.org/1999/xlink" width="840" height="581.04"><rect width="840" height="581.04" rx="5" ry="5" class="a"></rect><svg y="0%" x="0%"><circle cx="20" cy="20" r="6" class="b"></circle><circle cx="40" cy="20" r="6" class="c"></circle><circle cx="60" cy="20" r="6" class="d"></circle></svg><svg height="521.04" viewBox="0 0 80 52.104" width="800" x="15" xmlns="http://www.w3.org/2000/svg" xmlns:xlink="http://www.w3.org/1999/xlink" y="50"><style>.e, .g, .f {
	font-family:
			'Courier New'
			Roboto,
			Helvetica,
			Arial,
			sans-serif,
			'Apple Color Emoji',
			'Segoe UI Emoji' !important;
}.a{fill:rgb(35,35,35)}.b{fill:#ff5f58}.c{fill:#ffbd2e}.d{fill:#18c132}.e{font-family:'Courier New',Monaco,Consolas,Menlo,'Bitstream Vera Sans Mono','Powerline Symbols',monospace}.f{fill:rgb(102,194,205)}.g{white-space:pre}.h{fill:rgb(126,231,233);white-space:pre}.i{fill:rgb(160,160,160);white-space:pre}.j{fill:rgb(168,204,140)}.k{fill:rgb(219,171,121)}.l{fill:rgb(232,131,136)}.m{fill:transparent}.o{animation-duration:5.3537s;animation-iteration-count:infinite;animation-name:n;animation-timing-function:steps(1,end)}@keyframes n{0%{transform:translateX(-0px)}5.1%{transform:translateX(-80px)}6.6%{transform:translateX(-160px)}6.6%{transform:translateX(-240px)}6.6%{transform:translateX(-320px)}100%{transform:translateX(-400px)}}</style><g font-family="'Courier New',Monaco, Consolas, Menlo, &#x27;Bitstream Vera Sans Mono&#x27;, &#x27;Powerline Symbols&#x27;, monospace" font-size="1.67" class="e"><defs><symbol id="1"><rect height="2.171" width="6" x="0" y="0" class="f"></rect><text x="0" y="1.67" class="g"> INFO </text><text x="7.013999999999999" y="1.67" class="h">The</text><text x="11.021999999999998" y="1.67" class="h">following</text><text x="21.041999999999998" y="1.67" class="h">table</text><text x="27.054" y="1.67" class="h">has</text><text x="31.061999999999998" y="1.67" class="h">no</text><text x="34.068" y="1.67" class="h">rgb</text><text x="38.07599999999999" y="1.67" class="h">(supported</text><text x="49.098" y="1.67" class="h">by</text><text x="52.104" y="1.67" class="h">every</text><text x="58.116" y="1.67" class="h">terminal),</text><text x="69.13799999999999" y="1.67" class="h">no</text><text x="72.14399999999999" y="1.67" class="h">axis</text><text x="77.154" y="1.67" class="h">dat</text></symbol><symbol id="2"><text x="0" y="1.67" class="h">a</text><text x="2.004" y="1.67" class="h">and</text><text x="6.012" y="1.67" class="h">no</text><text x="9.017999999999999" y="1.67" class="h">legend.</text></symbol><symbol id="3"><text x="1.002" y="1.67" class="h">1</text><text x="4.008" y="1.67" class="i">│</text><rect height="2.171" width="4" x="5.01" y="0" class="j"></rect><text x="5.01" y="1.67" class="g"> 0.9</text><text x="9.017999999999999" y="1.67" class="i">│</text><rect height="2.171" width="4" x="10.02" y="0" class="k"></rect><text x="10.02" y="1.67" class="g"> 0.2</text><text x="14.027999999999999" y="1.67" class="i">│</text><rect height="2.171" width="4" x="15.029999999999998" y="0" class="l"></rect><text x="15.029999999999998" y="1.67" class="g">-0.7</text><text x="19.037999999999997" y="1.67" class="i">│</text><rect height="2.171" width="4" x="20.04" y="0" class="j"></rect><text x="20.04" y="1.67" class="g"> 0.4</text><text x="24.048" y="1.67" class="i">│</text><rect height="2.171" width="4" x="25.05" y="0" class="l"></rect><text x="25.05" y="1.67" class="g">-0.5</text><text x="29.058" y="1.67" class="i">│</text><rect height="2.171" width="4" x="30.059999999999995" y="0" class="j"></rect><text x="30.059999999999995" y="1.67" class="g"> 0.6</text><text x="34.068" y="1.67" class="i">│</text><rect height="2.171" width="4" x="35.06999999999999" y="0" class="k"></rect><text x="35.06999999999999" y="1.67" class="g">-0.3</text><text x="39.077999999999996" y="1.67" class="i">│</text><rect height="2.171" width="4" x="40.08" y="0" class="j"></rect><text x="40.08" y="1.67" class="g"> 0.8</text><text x="44.087999999999994" y="1.67" class="i">│</text><rect height="2.171" width="4" x="45.089999999999996" y="0" class="k"></rect><text x="45.089999999999996" y="1.67" class="g">-0.1</text><text x="49.098" y="1.67" class="i">│</text><rect height="2.171" width="4" x="50.1" y="0" class="l"></rect><text x="50.1" y="1.67" class="g"> -1 </text><text x="54.108" y="1.67" class="i">│</text><rect height="2.171" width="4" x="55.10999999999999" y="0" class="k"></rect><text x="55.10999999999999" y="1.67" class="g"> 0.1</text><text x="59.117999999999995" y="1.67" class="i">│</text><rect height="2.171" width="4" x="60.11999999999999" y="0" class="l"></rect><text x="60.11999999999999" y="1.67" class="g">-0.8</text><text x="64.128" y="1.67" class="i">│</text><rect height="2.171" width="4" x="65.13" y="0" class="k"></rect><text x="65.13" y="1.67" class="g"> 0.3</text></symbol><symbol id="4"><text x="0" y="1.67" class="i">────┼────┼────┼────┼────┼────┼────┼────┼────┼────┼────┼────┼────┼────</text></symbol><symbol id="5"><text x="1.002" y="1.67" class="h">2</text><text x="4.008" y="1.67" class="i">│</text><rect height="2.171" width="4" x="5.01" y="0" class="k"></rect><text x="5.01" y="1.67" class="g"> 0.2</text><text x="9.017999999999999" y="1.67" class="i">│</text><rect height="2.171" width="4" x="10.02" y="0" class="l"></rect><text x="10.02" y="1.67" class="g">-0.7</text><text x="14.027999999999999" y="1.67" class="i">│</text><rect height="2.171" width="4" x="15.029999999999998" y="0" class="l"></rect><text x="15.029999999999998" y="1.67" class="g">-0.5</text><text x="19.037999999999997" y="1.67" class="i">│</text><rect height="2.171" width="4" x="20.04" y="0" class="k"></rect><text x="20.04" y="1.67" class="g">-0.3</text><text x="24.048" y="1.67" class="i">│</text><rect height="2.171" width="4" x="25.05" y="0" class="k"></rect><text x="25.05" y="1.67" class="g">-0.1</text><text x="29.058" y="1.67" class="i">│</text><rect height="2.171" width="4" x="30.059999999999995" y="0" class="k"></rect><text x="30.059999999999995" y="1.67" class="g"> 0.1</text><text x="34.068" y="1.67" class="i">│</text><rect height="2.171" width="4" x="35.06999999999999" y="0" class="k"></rect><text x="35.06999999999999" y="1.67" class="g"> 0.3</text><text x="39.077999999999996" y="1.67" class="i">│</text><rect height="2.171" width="4" x="40.08" y="0" class="j"></rect><text x="40.08" y="1.67" class="g"> 0.5</text><text x="44.087999999999994" y="1.67" class="i">│</text><rect height="2.171" width="4" x="45.089999999999996" y="0" class="j"></rect><text x="45.089999999999996" y="1.67" class="g"> 0.9</text><text x="49.098" y="1.67" class="i">│</text><rect height="2.171" width="4" x="50.1" y="0" class="l"></rect><text x="50.1" y="1.67" class="g">-0.9</text><text x="54.108" y="1.67" class="i">│</text><rect height="2.171" width="4" x="55.10999999999999" y="0" class="l"></rect><text x="55.10999999999999" y="1.67" class="g">-0.7</text><text x="59.117999999999995" y="1.67" class="i">│</text><rect height="2.171" width="4" x="60.11999999999999" y="0" class="l"></rect><text x="60.11999999999999" y="1.67" class="g">-0.5</text><text x="64.128" y="1.67" class="i">│</text><rect height="2.171" width="4" x="65.13" y="0" class="k"></rect><text x="65.13" y="1.67" class="g">-0.3</text></symbol><symbol id="6"><text x="1.002" y="1.67" class="h">3</text><text x="4.008" y="1.67" class="i">│</text><rect height="2.171" width="4" x="5.01" y="0" class="j"></rect><text x="5.01" y="1.67" class="g"> 0.4</text><text x="9.017999999999999" y="1.67" class="i">│</text><rect height="2.171" width="4" x="10.02" y="0" class="j"></rect><text x="10.02" y="1.67" class="g"> 0.4</text><text x="14.027999999999999" y="1.67" class="i">│</text><rect height="2.171" width="4" x="15.029999999999998" y="0" class="k"></rect><text x="15.029999999999998" y="1.67" class="g">-0.3</text><text x="19.037999999999997" y="1.67" class="i">│</text><rect height="2.171" width="4" x="20.04" y="0" class="l"></rect><text x="20.04" y="1.67" class="g"> -1 </text><text x="24.048" y="1.67" class="i">│</text><rect height="2.171" width="4" x="25.05" y="0" class="k"></rect><text x="25.05" y="1.67" class="g"> 0.3</text><text x="29.058" y="1.67" class="i">│</text><rect height="2.171" width="4" x="30.059999999999995" y="0" class="k"></rect><text x="30.059999999999995" y="1.67" class="g">-0.2</text><text x="34.068" y="1.67" class="i">│</text><rect height="2.171" width="4" x="35.06999999999999" y="0" class="l"></rect><text x="35.06999999999999" y="1.67" class="g">-0.9</text><text x="39.077999999999996" y="1.67" class="i">│</text><rect height="2.171" width="4" x="40.08" y="0" class="j"></rect><text x="40.08" y="1.67" class="g"> 0.5</text><text x="44.087999999999994" y="1.67" class="i">│</text><rect height="2.171" width="4" x="45.089999999999996" y="0" class="k"></rect><text x="45.089999999999996" y="1.67" class="g">-0.3</text><text x="49.098" y="1.67" class="i">│</text><rect height="2.171" width="4" x="50.1" y="0" class="l"></rect><text x="50.1" y="1.67" class="g"> -1 </text><text x="54.108" y="1.67" class="i">│</text><rect height="2.171" width="4" x="55.10999999999999" y="0" class="j"></rect><text x="55.10999999999999" y="1.67" class="g"> 0.6</text><text x="59.117999999999995" y="1.67" class="i">│</text><rect height="2.171" width="4" x="60.11999999999999" y="0" class="k"></rect><text x="60.11999999999999" y="1.67" class="g">-0.2</text><text x="64.128" y="1.67" class="i">│</text><rect height="2.171" width="4" x="65.13" y="0" class="l"></rect><text x="65.13" y="1.67" class="g">-0.9</text></symbol><symbol id="7"><text x="1.002" y="1.67" class="h">4</text><text x="4.008" y="1.67" class="i">│</text><rect height="2.171" width="4" x="5.01" y="0" class="j"></rect><text x="5.01" y="1.67" class="g"> 0.9</text><text x="9.017999999999999" y="1.67" class="i">│</text><rect height="2.171" width="4" x="10.02" y="0" class="l"></rect><text x="10.02" y="1.67" class="g">-0.5</text><text x="14.027999999999999" y="1.67" class="i">│</text><rect height="2.171" width="4" x="15.029999999999998" y="0" class="k"></rect><text x="15.029999999999998" y="1.67" class="g">-0.1</text><text x="19.037999999999997" y="1.67" class="i">│</text><rect height="2.171" width="4" x="20.04" y="0" class="k"></rect><text x="20.04" y="1.67" class="g"> 0.3</text><text x="24.048" y="1.67" class="i">│</text><rect height="2.171" width="4" x="25.05" y="0" class="j"></rect><text x="25.05" y="1.67" class="g"> 1  </text><text x="29.058" y="1.67" class="i">│</text><rect height="2.171" width="4" x="30.059999999999995" y="0" class="l"></rect><text x="30.059999999999995" y="1.67" class="g">-0.7</text><text x="34.068" y="1.67" class="i">│</text><rect height="2.171" width="4" x="35.06999999999999" y="0" class="k"></rect><text x="35.06999999999999" y="1.67" class="g">-0.3</text><text x="39.077999999999996" y="1.67" class="i">│</text><rect height="2.171" width="4" x="40.08" y="0" class="k"></rect><text x="40.08" y="1.67" class="g"> 0.1</text><text x="44.087999999999994" y="1.67" class="i">│</text><rect height="2.171" width="4" x="45.089999999999996" y="0" class="j"></rect><text x="45.089999999999996" y="1.67" class="g"> 0.7</text><text x="49.098" y="1.67" class="i">│</text><rect height="2.171" width="4" x="50.1" y="0" class="l"></rect><text x="50.1" y="1.67" class="g">-0.9</text><text x="54.108" y="1.67" class="i">│</text><rect height="2.171" width="4" x="55.10999999999999" y="0" class="l"></rect><text x="55.10999999999999" y="1.67" class="g">-0.5</text><text x="59.117999999999995" y="1.67" class="i">│</text><rect height="2.171" width="4" x="60.11999999999999" y="0" class="k"></rect><text x="60.11999999999999" y="1.67" class="g"> 0.2</text><text x="64.128" y="1.67" class="i">│</text><rect height="2.171" width="4" x="65.13" y="0" class="j"></rect><text x="65.13" y="1.67" class="g"> 0.6</text></symbol><symbol id="8"><text x="1.002" y="1.67" class="h">5</text><text x="4.008" y="1.67" class="i">│</text><rect height="2.171" width="4" x="5.01" y="0" class="j"></rect><text x="5.01" y="1.67" class="g"> 0.5</text><text x="9.017999999999999" y="1.67" class="i">│</text><rect height="2.171" width="4" x="10.02" y="0" class="j"></rect><text x="10.02" y="1.67" class="g"> 0.6</text><text x="14.027999999999999" y="1.67" class="i">│</text><rect height="2.171" width="4" x="15.029999999999998" y="0" class="k"></rect><text x="15.029999999999998" y="1.67" class="g"> 0.1</text><text x="19.037999999999997" y="1.67" class="i">│</text><rect height="2.171" width="4" x="20.04" y="0" class="k"></rect><text x="20.04" y="1.67" class="g">-0.2</text><text x="24.048" y="1.67" class="i">│</text><rect height="2.171" width="4" x="25.05" y="0" class="l"></rect><text x="25.05" y="1.67" class="g">-0.7</text><text x="29.058" y="1.67" class="i">│</text><rect height="2.171" width="4" x="30.059999999999995" y="0" class="j"></rect><text x="30.059999999999995" y="1.67" class="g"> 0.8</text><text x="34.068" y="1.67" class="i">│</text><rect height="2.171" width="4" x="35.06999999999999" y="0" class="j"></rect><text x="35.06999999999999" y="1.67" class="g"> 0.6</text><text x="39.077999999999996" y="1.67" class="i">│</text><rect height="2.171" width="4" x="40.08" y="0" class="k"></rect><text x="40.08" y="1.67" class="g"> 0.1</text><text x="44.087999999999994" y="1.67" class="i">│</text><rect height="2.171" width="4" x="45.089999999999996" y="0" class="l"></rect><text x="45.089999999999996" y="1.67" class="g">-0.5</text><text x="49.098" y="1.67" class="i">│</text><rect height="2.171" width="4" x="50.1" y="0" class="l"></rect><text x="50.1" y="1.67" class="g">-0.7</text><text x="54.108" y="1.67" class="i">│</text><rect height="2.171" width="4" x="55.10999999999999" y="0" class="j"></rect><text x="55.10999999999999" y="1.67" class="g"> 0.7</text><text x="59.117999999999995" y="1.67" class="i">│</text><rect height="2.171" width="4" x="60.11999999999999" y="0" class="k"></rect><text x="60.11999999999999" y="1.67" class="g"> 0.3</text><text x="64.128" y="1.67" class="i">│</text><rect height="2.171" width="4" x="65.13" y="0" class="k"></rect><text x="65.13" y="1.67" class="g"> 0  </text></symbol><symbol id="9"><text x="4.008" y="1.67" class="i">│</text><text x="6.012" y="1.67" class="h">a</text><text x="9.017999999999999" y="1.67" class="i">│</text><text x="11.021999999999998" y="1.67" class="h">b</text><text x="14.027999999999999" y="1.67" class="i">│</text><text x="16.032" y="1.67" class="h">c</text><text x="19.037999999999997" y="1.67" class="i">│</text><text x="21.041999999999998" y="1.67" class="h">d</text><text x="24.048" y="1.67" class="i">│</text><text x="26.052" y="1.67" class="h">e</text><text x="29.058" y="1.67" class="i">│</text><text x="31.061999999999998" y="1.67" class="h">f</text><text x="34.068" y="1.67" class="i">│</text><text x="36.071999999999996" y="1.67" class="h">g</text><text x="39.077999999999996" y="1.67" class="i">│</text><text x="41.082" y="1.67" class="h">h</text><text x="44.087999999999994" y="1.67" class="i">│</text><text x="46.09199999999999" y="1.67" class="h">i</text><text x="49.098" y="1.67" class="i">│</text><text x="51.102" y="1.67" class="h">j</text><text x="54.108" y="1.67" class="i">│</text><text x="56.111999999999995" y="1.67" class="h">k</text><text x="59.117999999999995" y="1.67" class="i">│</text><text x="61.12199999999999" y="1.67" class="h">l</text><text x="64.128" y="1.67" class="i">│</text><text x="66.13199999999999" y="1.67" class="h">m</text></symbol><symbol id="a"><rect height="24" width="80" x="0" y="0" class="m"></rect></symbol></defs><rect height="52.104" width="80" class="a"></rect><g class="o"><svg x="0" y="0" width="480"><svg x="0"><use xlink:href="#a"></use></svg><svg x="80"><use xlink:href="#a"></use><use xlink:href="#1" y="0"></use><use xlink:href="#2" y="2.171"></use></svg><svg x="160"><use xlink:href="#a"></use><use xlink:href="#1" y="0"></use><use xlink:href="#2" y="2.171"></use><use xlink:href="#3" y="6.513"></use><use xlink:href="#4" y="8.684"></use><use xlink:href="#5" y="10.855"></use><text x="0" y="14.696" class="i">────┼────┼────┼────┼────┼────┼────┼────┼────┼────┼────┼────┼───</text></svg><svg x="240"><use xlink:href="#a"></use><use xlink:href="#1" y="0"></use><use xlink:href="#2" y="2.171"></use><use xlink:href="#3" y="6.513"></use><use xlink:href="#4" y="8.684"></use><use xlink:href="#5" y="10.855"></use><use xlink:href="#4" y="13.026"></use><use xlink:href="#6" y="15.197"></use><use xlink:href="#4" y="17.368"></use><use xlink:href="#7" y="19.539"></use><text x="0" y="23.380000000000003" class="i">────┼────┼────┼────┼────┼────┼────┼────┼────┼────┼────┼───</text></svg><svg x="320"><use xlink:href="#a"></use><use xlink:href="#1" y="0"></use><use xlink:href="#2" y="2.171"></use><use xlink:href="#3" y="6.513"></use><use xlink:href="#4" y="8.684"></use><use xlink:href="#5" y="10.855"></use><use xlink:href="#4" y="13.026"></use><use xlink:href="#6" y="15.197"></use><use xlink:href="#4" y="17.368"></use><use xlink:href="#7" y="19.539"></use><use xlink:href="#4" y="21.71"></use><use xlink:href="#8" y="23.880999999999997"></use><use xlink:href="#4" y="26.052"></use><use xlink:href="#9" y="28.223000000000003"></use></svg><svg x="400"><use xlink:href="#a"></use><use xlink:href="#1" y="0"></use><use xlink:href="#2" y="2.171"></use><use xlink:href="#3" y="6.513"></use><use xlink:href="#4" y="8.684"></use><use xlink:href="#5" y="10.855"></use><use xlink:href="#4" y="13.026"></use><use xlink:href="#6" y="15.197"></use><use xlink:href="#4" y="17.368"></use><use xlink:href="#7" y="19.539"></use><use xlink:href="#4" y="21.71"></use><use xlink:href="#8" y="23.880999999999997"></use><use xlink:href="#4" y="26.052"></use><use xlink:href="#9" y="28.223000000000003"></use><text x="0" y="36.406" class="i">Restarting</text><text x="11.021999999999998" y="36.406" class="i">animation...</text></svg></svg></g></g></svg></svg>