<svg xmlns="http://www.w3.org/2000/svg" xmlns:xlink="http://www.w3.org/1999/xlink" width="2560" height="472.48999999999995"><rect width="2560" height="472.48999999999995" rx="5" ry="5" class="a"></rect><svg y="0%" x="0%"><circle cx="20" cy="20" r="6" class="b"></circle><circle cx="40" cy="20" r="6" class="c"></circle><circle cx="60" cy="20" r="6" class="d"></circle></svg><svg height="412.48999999999995" viewBox="0 0 252 41.248999999999995" width="2520" x="15" xmlns="http://www.w3.org/2000/svg" xmlns:xlink="http://www.w3.org/1999/xlink" y="50"><style>.e, .g, .f {
	font-family:
			'Courier New'
			Roboto,
			Helvetica,
			Arial,
			sans-serif,
			'Apple Color Emoji',
			'Segoe UI Emoji' !important;
}.a{fill:rgb(35,35,35)}.b{fill:#ff5f58}.c{fill:#ffbd2e}.d{fill:#18c132}.e{font-family:'JetBrainsMono',Monaco,Consolas,Menlo,'Bitstream Vera Sans Mono','Powerline Symbols',monospace}.f{fill:rgb(160,160,160);white-space:pre}.g{fill:rgb(255,241,0);font-weight:bold;white-space:pre}.h{fill:rgb(0,198,255);white-space:pre}.i{fill:rgb(126,231,233);white-space:pre}.j{fill:transparent}.l{animation-duration:6.819075s;animation-iteration-count:infinite;animation-name:k;animation-timing-function:steps(1,end)}@keyframes k{0%{transform:translateX(-0px)}26.6%{transform:translateX(-252px)}26.7%{transform:translateX(-504px)}26.7%{transform:translateX(-756px)}26.7%{transform:translateX(-1008px)}26.7%{transform:translateX(-1260px)}100%{transform:translateX(-1512px)}}</style><g font-family="'JetBrainsMono',Monaco, Consolas, Menlo, &#x27;Bitstream Vera Sans Mono&#x27;, &#x27;Powerline Symbols&#x27;, monospace" font-size="1.67" class="e"><defs><symbol id="1"><text x="0" y="1.67" class="f">#</text><text x="2.004" y="1.67" class="g">Chart</text><text x="8.016" y="1.67" class="g">example</text><text x="16.032" y="1.67" class="g">with</text><text x="21.041999999999998" y="1.67" class="g">mixed</text><text x="27.054" y="1.67" class="g">values</text><text x="34.068" y="1.67" class="g">(note</text><text x="40.08" y="1.67" class="g">screen</text><text x="47.093999999999994" y="1.67" class="g">space</text><text x="53.105999999999995" y="1.67" class="g">usage</text><text x="59.117999999999995" y="1.67" class="g">in</text><text x="62.123999999999995" y="1.67" class="g">case</text><text x="67.134" y="1.67" class="g">when</text><text x="72.14399999999999" y="1.67" class="g">ABSOLUTE</text><text x="81.16199999999999" y="1.67" class="g">values</text><text x="88.17599999999999" y="1.67" class="g">of</text><text x="91.182" y="1.67" class="g">negative</text><text x="100.2" y="1.67" class="g">and</text><text x="104.208" y="1.67" class="g">positive</text><text x="113.22599999999998" y="1.67" class="g">parts</text><text x="119.23799999999999" y="1.67" class="g">are</text><text x="123.246" y="1.67" class="g">differ</text><text x="130.26" y="1.67" class="g">too</text><text x="134.268" y="1.67" class="g">much)</text></symbol><symbol id="2"><text x="2.004" y="1.67" class="f">2</text><text x="23.045999999999996" y="1.67" class="f">5</text><text x="34.068" y="1.67" class="f">7</text></symbol><symbol id="3"><text x="34.068" y="1.67" class="h">██</text></symbol><symbol id="4"><text x="23.045999999999996" y="1.67" class="h">██</text><text x="34.068" y="1.67" class="h">██</text></symbol><symbol id="5"><text x="2.004" y="1.67" class="h">██</text><text x="23.045999999999996" y="1.67" class="h">██</text><text x="34.068" y="1.67" class="h">██</text></symbol><symbol id="6"><text x="9.017999999999999" y="1.67" class="h">██</text><text x="16.032" y="1.67" class="h">██</text></symbol><symbol id="7"><text x="9.017999999999999" y="1.67" class="h">██</text></symbol><symbol id="8"><text x="9.017999999999999" y="1.67" class="f">-3</text><text x="16.032" y="1.67" class="f">-2</text></symbol><symbol id="9"><text x="0" y="1.67" class="i">Bar</text><text x="4.008" y="1.67" class="i">1</text><text x="7.013999999999999" y="1.67" class="i">Bar</text><text x="11.021999999999998" y="1.67" class="i">2</text><text x="14.027999999999999" y="1.67" class="i">Bar</text><text x="18.035999999999998" y="1.67" class="i">3</text><text x="21.041999999999998" y="1.67" class="i">Bar</text><text x="25.05" y="1.67" class="i">4</text><text x="28.055999999999997" y="1.67" class="i">Longer</text><text x="35.06999999999999" y="1.67" class="i">Label</text></symbol><symbol id="10"><text x="0" y="1.67" class="i">Bar</text><text x="4.008" y="1.67" class="i">1</text><text x="24.048" y="1.67" class="h">███████</text><text x="52.104" y="1.67" class="f">2</text></symbol><symbol id="11"><text x="0" y="1.67" class="i">Bar</text><text x="4.008" y="1.67" class="i">2</text><text x="13.026" y="1.67" class="h">███████████</text><text x="51.102" y="1.67" class="f">-3</text></symbol><symbol id="12"><text x="0" y="1.67" class="i">Bar</text><text x="4.008" y="1.67" class="i">3</text><text x="17.034" y="1.67" class="h">███████</text><text x="51.102" y="1.67" class="f">-2</text></symbol><symbol id="13"><text x="0" y="1.67" class="i">Bar</text><text x="4.008" y="1.67" class="i">4</text><text x="24.048" y="1.67" class="h">██████████████████</text><text x="52.104" y="1.67" class="f">5</text></symbol><symbol id="14"><text x="0" y="1.67" class="i">Longer</text><text x="7.013999999999999" y="1.67" class="i">Label</text><text x="24.048" y="1.67" class="h">██████████████████████████</text><text x="52.104" y="1.67" class="f">7</text></symbol><symbol id="a"><rect height="19" width="252" x="0" y="0" class="j"></rect></symbol></defs><rect height="41.248999999999995" width="252" class="a"></rect><g class="l"><svg x="0" y="0" width="1764"><svg x="0"><use xlink:href="#a"></use></svg><svg x="252"><use xlink:href="#a"></use><use xlink:href="#1" y="2.171"></use></svg><svg x="504"><use xlink:href="#a"></use><use xlink:href="#1" y="2.171"></use><use xlink:href="#2" y="6.513"></use><use xlink:href="#3" y="8.684"></use><use xlink:href="#3" y="10.855"></use><use xlink:href="#3" y="13.026"></use><use xlink:href="#4" y="15.197"></use><use xlink:href="#4" y="17.368"></use><use xlink:href="#4" y="19.539"></use><use xlink:href="#5" y="21.71"></use><use xlink:href="#5" y="23.880999999999997"></use><use xlink:href="#6" y="26.052"></use><use xlink:href="#6" y="28.223000000000003"></use><use xlink:href="#7" y="30.394"></use><use xlink:href="#8" y="32.565"></use></svg><svg x="756"><use xlink:href="#a"></use><use xlink:href="#1" y="0"></use><use xlink:href="#2" y="4.342"></use><use xlink:href="#3" y="6.513"></use><use xlink:href="#3" y="8.684"></use><use xlink:href="#3" y="10.855"></use><use xlink:href="#4" y="13.026"></use><use xlink:href="#4" y="15.197"></use><use xlink:href="#4" y="17.368"></use><use xlink:href="#5" y="19.539"></use><use xlink:href="#5" y="21.71"></use><use xlink:href="#6" y="23.880999999999997"></use><use xlink:href="#6" y="26.052"></use><use xlink:href="#7" y="28.223000000000003"></use><use xlink:href="#8" y="30.394"></use><use xlink:href="#9" y="32.565"></use></svg><svg x="1008"><use xlink:href="#a"></use><use xlink:href="#3" y="0"></use><use xlink:href="#3" y="2.171"></use><use xlink:href="#4" y="4.342"></use><use xlink:href="#4" y="6.513"></use><use xlink:href="#4" y="8.684"></use><use xlink:href="#5" y="10.855"></use><use xlink:href="#5" y="13.026"></use><use xlink:href="#6" y="15.197"></use><use xlink:href="#6" y="17.368"></use><use xlink:href="#7" y="19.539"></use><use xlink:href="#8" y="21.71"></use><use xlink:href="#9" y="23.880999999999997"></use><use xlink:href="#10" y="32.565"></use><use xlink:href="#11" y="34.736"></use><use xlink:href="#12" y="36.907000000000004"></use><text x="0" y="40.748000000000005" class="i">Bar</text><text x="4.008" y="40.748000000000005" class="i">4</text><text x="24.048" y="40.748000000000005" class="h">█</text></svg><svg x="1260"><use xlink:href="#a"></use><use xlink:href="#4" y="0"></use><use xlink:href="#4" y="2.171"></use><use xlink:href="#5" y="4.342"></use><use xlink:href="#5" y="6.513"></use><use xlink:href="#6" y="8.684"></use><use xlink:href="#6" y="10.855"></use><use xlink:href="#7" y="13.026"></use><use xlink:href="#8" y="15.197"></use><use xlink:href="#9" y="17.368"></use><use xlink:href="#10" y="26.052"></use><use xlink:href="#11" y="28.223000000000003"></use><use xlink:href="#12" y="30.394"></use><use xlink:href="#13" y="32.565"></use><use xlink:href="#14" y="34.736"></use></svg><svg x="1512"><use xlink:href="#a"></use><use xlink:href="#5" y="0"></use><use xlink:href="#5" y="2.171"></use><use xlink:href="#6" y="4.342"></use><use xlink:href="#6" y="6.513"></use><use xlink:href="#7" y="8.684"></use><use xlink:href="#8" y="10.855"></use><use xlink:href="#9" y="13.026"></use><use xlink:href="#10" y="21.71"></use><use xlink:href="#11" y="23.880999999999997"></use><use xlink:href="#12" y="26.052"></use><use xlink:href="#13" y="28.223000000000003"></use><use xlink:href="#14" y="30.394"></use><text x="0" y="38.577000000000005" class="f">Restarting</text><text x="11.021999999999998" y="38.577000000000005" class="f">animation...</text></svg></svg></g></g></svg></svg>