<svg xmlns="http://www.w3.org/2000/svg" xmlns:xlink="http://www.w3.org/1999/xlink" width="840" height="581.04"><rect width="840" height="581.04" rx="5" ry="5" class="a"></rect><svg y="0%" x="0%"><circle cx="20" cy="20" r="6" class="b"></circle><circle cx="40" cy="20" r="6" class="c"></circle><circle cx="60" cy="20" r="6" class="d"></circle></svg><svg height="521.04" viewBox="0 0 80 52.104" width="800" x="15" xmlns="http://www.w3.org/2000/svg" xmlns:xlink="http://www.w3.org/1999/xlink" y="50"><style>.e, .g, .f {
	font-family:
			'Courier New'
			Roboto,
			Helvetica,
			Arial,
			sans-serif,
			'Apple Color Emoji',
			'Segoe UI Emoji' !important;
}.a{fill:rgb(35,35,35)}.b{fill:#ff5f58}.c{fill:#ffbd2e}.d{fill:#18c132}.e{font-family:'Courier New',Monaco,Consolas,Menlo,'Bitstream Vera Sans Mono','Powerline Symbols',monospace}.f{fill:rgb(0,198,255);white-space:pre}.g{fill:rgb(160,160,160);white-space:pre}.h{fill:rgb(126,231,233);white-space:pre}.i{fill:transparent}.k{animation-duration:5.245811s;animation-iteration-count:infinite;animation-name:j;animation-timing-function:steps(1,end)}.l{fill:rgb(255,241,0);font-weight:bold;white-space:pre}@keyframes j{0%{transform:translateX(-0px)}3%{transform:translateX(-80px)}4.7%{transform:translateX(-160px)}100%{transform:translateX(-240px)}}</style><g font-family="'Courier New',Monaco, Consolas, Menlo, &#x27;Bitstream Vera Sans Mono&#x27;, &#x27;Powerline Symbols&#x27;, monospace" font-size="1.67" class="e"><defs><symbol id="1"><text x="34.068" y="1.67" class="f">██</text></symbol><symbol id="2"><text x="23.045999999999996" y="1.67" class="f">██</text><text x="34.068" y="1.67" class="f">██</text></symbol><symbol id="3"><text x="2.004" y="1.67" class="f">██</text><text x="23.045999999999996" y="1.67" class="f">██</text><text x="34.068" y="1.67" class="f">██</text></symbol><symbol id="4"><text x="9.017999999999999" y="1.67" class="f">██</text><text x="16.032" y="1.67" class="f">██</text></symbol><symbol id="5"><text x="9.017999999999999" y="1.67" class="f">██</text></symbol><symbol id="6"><text x="9.017999999999999" y="1.67" class="g">-3</text><text x="16.032" y="1.67" class="g">-2</text></symbol><symbol id="7"><text x="0" y="1.67" class="h">Bar</text><text x="4.008" y="1.67" class="h">1</text><text x="7.013999999999999" y="1.67" class="h">Bar</text><text x="11.021999999999998" y="1.67" class="h">2</text><text x="14.027999999999999" y="1.67" class="h">Bar</text><text x="18.035999999999998" y="1.67" class="h">3</text><text x="21.041999999999998" y="1.67" class="h">Bar</text><text x="25.05" y="1.67" class="h">4</text><text x="28.055999999999997" y="1.67" class="h">Longer</text><text x="35.06999999999999" y="1.67" class="h">Label</text></symbol><symbol id="8"><text x="0" y="1.67" class="h">Bar</text><text x="4.008" y="1.67" class="h">1</text><text x="24.048" y="1.67" class="f">███████</text><text x="52.104" y="1.67" class="g">2</text></symbol><symbol id="9"><text x="0" y="1.67" class="h">Bar</text><text x="4.008" y="1.67" class="h">2</text><text x="13.026" y="1.67" class="f">███████████</text><text x="51.102" y="1.67" class="g">-3</text></symbol><symbol id="10"><text x="0" y="1.67" class="h">Bar</text><text x="4.008" y="1.67" class="h">3</text><text x="17.034" y="1.67" class="f">███████</text><text x="51.102" y="1.67" class="g">-2</text></symbol><symbol id="11"><text x="0" y="1.67" class="h">Bar</text><text x="4.008" y="1.67" class="h">4</text><text x="24.048" y="1.67" class="f">██████████████████</text><text x="52.104" y="1.67" class="g">5</text></symbol><symbol id="12"><text x="0" y="1.67" class="h">Longer</text><text x="7.013999999999999" y="1.67" class="h">Label</text><text x="24.048" y="1.67" class="f">██████████████████████████</text><text x="52.104" y="1.67" class="g">7</text></symbol><symbol id="a"><rect height="24" width="80" x="0" y="0" class="i"></rect></symbol></defs><rect height="52.104" width="80" class="a"></rect><g class="k"><svg x="0" y="0" width="320"><svg x="0"><use xlink:href="#a"></use></svg><svg x="80"><use xlink:href="#a"></use><text x="0" y="3.8409999999999997" class="g">#</text><text x="2.004" y="3.8409999999999997" class="l">Chart</text><text x="8.016" y="3.8409999999999997" class="l">example</text><text x="16.032" y="3.8409999999999997" class="l">with</text><text x="21.041999999999998" y="3.8409999999999997" class="l">mixed</text><text x="27.054" y="3.8409999999999997" class="l">values</text><text x="34.068" y="3.8409999999999997" class="l">(note</text><text x="40.08" y="3.8409999999999997" class="l">screen</text><text x="47.093999999999994" y="3.8409999999999997" class="l">space</text><text x="53.105999999999995" y="3.8409999999999997" class="l">usage</text><text x="59.117999999999995" y="3.8409999999999997" class="l">in</text><text x="62.123999999999995" y="3.8409999999999997" class="l">case</text><text x="67.134" y="3.8409999999999997" class="l">when</text><text x="72.14399999999999" y="3.8409999999999997" class="l">ABSOLUTE</text><text x="1.002" y="6.012" class="l">values</text><text x="8.016" y="6.012" class="l">of</text><text x="11.021999999999998" y="6.012" class="l">negative</text><text x="20.04" y="6.012" class="l">and</text><text x="24.048" y="6.012" class="l">positive</text><text x="33.065999999999995" y="6.012" class="l">parts</text><text x="39.077999999999996" y="6.012" class="l">are</text><text x="43.086" y="6.012" class="l">differ</text><text x="50.1" y="6.012" class="l">too</text><text x="54.108" y="6.012" class="l">much)</text></svg><svg x="160"><use xlink:href="#a"></use><text x="2.004" y="1.67" class="g">2</text><text x="23.045999999999996" y="1.67" class="g">5</text><text x="34.068" y="1.67" class="g">7</text><use xlink:href="#1" y="2.171"></use><use xlink:href="#1" y="4.342"></use><use xlink:href="#1" y="6.513"></use><use xlink:href="#2" y="8.684"></use><use xlink:href="#2" y="10.855"></use><use xlink:href="#2" y="13.026"></use><use xlink:href="#3" y="15.197"></use><use xlink:href="#3" y="17.368"></use><use xlink:href="#4" y="19.539"></use><use xlink:href="#4" y="21.71"></use><use xlink:href="#5" y="23.880999999999997"></use><use xlink:href="#6" y="26.052"></use><use xlink:href="#7" y="28.223000000000003"></use><use xlink:href="#8" y="36.907000000000004"></use><use xlink:href="#9" y="39.078"></use><use xlink:href="#10" y="41.248999999999995"></use><use xlink:href="#11" y="43.42"></use><use xlink:href="#12" y="45.591"></use></svg><svg x="240"><use xlink:href="#a"></use><use xlink:href="#1" y="0"></use><use xlink:href="#1" y="2.171"></use><use xlink:href="#2" y="4.342"></use><use xlink:href="#2" y="6.513"></use><use xlink:href="#2" y="8.684"></use><use xlink:href="#3" y="10.855"></use><use xlink:href="#3" y="13.026"></use><use xlink:href="#4" y="15.197"></use><use xlink:href="#4" y="17.368"></use><use xlink:href="#5" y="19.539"></use><use xlink:href="#6" y="21.71"></use><use xlink:href="#7" y="23.880999999999997"></use><use xlink:href="#8" y="32.565"></use><use xlink:href="#9" y="34.736"></use><use xlink:href="#10" y="36.907000000000004"></use><use xlink:href="#11" y="39.078"></use><use xlink:href="#12" y="41.248999999999995"></use><text x="0" y="49.431999999999995" class="g">Restarting</text><text x="11.021999999999998" y="49.431999999999995" class="g">animation...</text></svg></svg></g></g></svg></svg>