<svg xmlns="http://www.w3.org/2000/svg" xmlns:xlink="http://www.w3.org/1999/xlink" width="840" height="581.04"><rect width="840" height="581.04" rx="5" ry="5" class="a"></rect><svg y="0%" x="0%"><circle cx="20" cy="20" r="6" class="b"></circle><circle cx="40" cy="20" r="6" class="c"></circle><circle cx="60" cy="20" r="6" class="d"></circle></svg><svg height="521.04" viewBox="0 0 80 52.104" width="800" x="15" xmlns="http://www.w3.org/2000/svg" xmlns:xlink="http://www.w3.org/1999/xlink" y="50"><style>.a{fill:rgb(40,45,53)}.b{fill:#ff5f58}.c{fill:#ffbd2e}.d{fill:#18c132}.e{font-family:Monaco,Consolas,Menlo,'Bitstream Vera Sans Mono','Powerline Symbols',monospace}.f{fill:rgb(102,194,205);white-space:pre}.g{fill:rgb(111,119,131);white-space:pre}.h{fill:rgb(185,192,203);white-space:pre}.i{fill:transparent}.j{fill:rgb(111,118,131)}.l{animation-duration:7.596477999999999s;animation-iteration-count:infinite;animation-name:k;animation-timing-function:steps(1,end)}@keyframes k{0%{transform:translateX(-0px)}34.2%{transform:translateX(-80px)}100%{transform:translateX(-160px)}}</style><g font-family="Monaco, Consolas, Menlo, &#x27;Bitstream Vera Sans Mono&#x27;, &#x27;Powerline Symbols&#x27;, monospace" font-size="1.67" class="e"><defs><symbol id="1"><text x="0" y="1.67" class="f">Firstname</text><text x="10.02" y="1.67" class="g">|</text><text x="12.024" y="1.67" class="f">Lastname</text><text x="21.041999999999998" y="1.67" class="g">|</text><text x="23.045999999999996" y="1.67" class="f">Email</text></symbol><symbol id="2"><text x="0" y="1.67" class="h">Paul</text><text x="10.02" y="1.67" class="g">|</text><text x="12.024" y="1.67" class="h">Dean</text><text x="21.041999999999998" y="1.67" class="g">|</text><text x="23.045999999999996" y="1.67" class="h">nisi.dictum.augue@velitAliquam.co.uk</text></symbol><symbol id="3"><text x="0" y="1.67" class="h">Callie</text><text x="10.02" y="1.67" class="g">|</text><text x="12.024" y="1.67" class="h">Mckay</text><text x="21.041999999999998" y="1.67" class="g">|</text><text x="23.045999999999996" y="1.67" class="h">egestas.nunc.sed@est.com</text></symbol><symbol id="4"><text x="0" y="1.67" class="h">Libby</text><text x="10.02" y="1.67" class="g">|</text><text x="12.024" y="1.67" class="h">Camacho</text><text x="21.041999999999998" y="1.67" class="g">|</text><text x="23.045999999999996" y="1.67" class="h">aliquet.lobortis@semper.com</text></symbol><symbol id="a"><rect height="24" width="80" x="0" y="0" class="i"></rect></symbol><symbol id="b"><rect height="2.171" width="1.1022" class="j"></rect></symbol></defs><rect height="52.104" width="80" class="a"></rect><g class="l"><svg x="0" y="0" width="240"><svg x="0"><use xlink:href="#a"></use><use xlink:href="#b" x="-0.0040000000000000036" y="0"></use></svg><svg x="80"><use xlink:href="#a"></use><use xlink:href="#b" x="-0.0040000000000000036" y="8.658999999999999"></use><use xlink:href="#1" y="0"></use><use xlink:href="#2" y="2.171"></use><use xlink:href="#3" y="4.342"></use><use xlink:href="#4" y="6.513"></use></svg><svg x="160"><use xlink:href="#a"></use><use xlink:href="#b" x="-0.0040000000000000036" y="13.001"></use><use xlink:href="#1" y="0"></use><use xlink:href="#2" y="2.171"></use><use xlink:href="#3" y="4.342"></use><use xlink:href="#4" y="6.513"></use><text x="0" y="12.525" class="h">restarting...</text></svg></svg></g></g></svg></svg>