<svg xmlns="http://www.w3.org/2000/svg" xmlns:xlink="http://www.w3.org/1999/xlink" width="840" height="581.04"><rect width="840" height="581.04" rx="5" ry="5" class="a"></rect><svg y="0%" x="0%"><circle cx="20" cy="20" r="6" class="b"></circle><circle cx="40" cy="20" r="6" class="c"></circle><circle cx="60" cy="20" r="6" class="d"></circle></svg><svg height="521.04" viewBox="0 0 80 52.104" width="800" x="15" xmlns="http://www.w3.org/2000/svg" xmlns:xlink="http://www.w3.org/1999/xlink" y="50"><style>.e, .g, .f {
	font-family:
			'Courier New'
			Roboto,
			Helvetica,
			Arial,
			sans-serif,
			'Apple Color Emoji',
			'Segoe UI Emoji' !important;
}.a{fill:rgb(35,35,35)}.b{fill:#ff5f58}.c{fill:#ffbd2e}.d{fill:#18c132}.e{font-family:'Courier New',Monaco,Consolas,Menlo,'Bitstream Vera Sans Mono','Powerline Symbols',monospace}.f{fill:rgb(104,104,104);white-space:pre}.g{fill:rgb(124,255,0);font-weight:bold;white-space:pre}.h{fill:rgb(160,160,160);white-space:pre}.i{fill:rgb(255,0,4);white-space:pre}.j{fill:rgb(0,71,255);white-space:pre}.k{fill:transparent}.m{animation-duration:5.321254s;animation-iteration-count:infinite;animation-name:l;animation-timing-function:steps(1,end)}@keyframes l{0%{transform:translateX(-0px)}3.8%{transform:translateX(-80px)}6%{transform:translateX(-160px)}100%{transform:translateX(-240px)}}</style><g font-family="'Courier New',Monaco, Consolas, Menlo, &#x27;Bitstream Vera Sans Mono&#x27;, &#x27;Powerline Symbols&#x27;, monospace" font-size="1.67" class="e"><defs><symbol id="1"><text x="0" y="1.67" class="f">2024-11-27</text><text x="11.021999999999998" y="1.67" class="f">12:35:37</text><text x="20.04" y="1.67" class="g">INFO</text><text x="26.052" y="1.67" class="h">The</text><text x="30.059999999999995" y="1.67" class="h">priority</text><text x="39.077999999999996" y="1.67" class="h">key</text><text x="43.086" y="1.67" class="h">should</text><text x="50.1" y="1.67" class="h">now</text><text x="54.108" y="1.67" class="h">be</text><text x="57.114" y="1.67" class="h">red</text></symbol><symbol id="2"><text x="22.043999999999997" y="1.67" class="h">├</text><text x="24.048" y="1.67" class="i">priority:</text><text x="34.068" y="1.67" class="h">low</text></symbol><symbol id="3"><text x="22.043999999999997" y="1.67" class="h">└</text><text x="24.048" y="1.67" class="g">foo:</text><text x="29.058" y="1.67" class="h">bar</text></symbol><symbol id="4"><text x="0" y="1.67" class="f">2024-11-27</text><text x="11.021999999999998" y="1.67" class="f">12:35:37</text><text x="20.04" y="1.67" class="g">INFO</text><text x="26.052" y="1.67" class="h">The</text><text x="30.059999999999995" y="1.67" class="h">foo</text><text x="34.068" y="1.67" class="h">key</text><text x="38.07599999999999" y="1.67" class="h">should</text><text x="45.089999999999996" y="1.67" class="h">now</text><text x="49.098" y="1.67" class="h">be</text><text x="52.104" y="1.67" class="h">blue</text><text x="57.114" y="1.67" class="i">priority:</text><text x="67.134" y="1.67" class="h">low</text><text x="71.142" y="1.67" class="j">foo:</text><text x="76.15199999999999" y="1.67" class="h">bar</text></symbol><symbol id="a"><rect height="24" width="80" x="0" y="0" class="k"></rect></symbol></defs><rect height="52.104" width="80" class="a"></rect><g class="m"><svg x="0" y="0" width="320"><svg x="0"><use xlink:href="#a"></use></svg><svg x="80"><use xlink:href="#a"></use><use xlink:href="#1" y="0"></use></svg><svg x="160"><use xlink:href="#a"></use><use xlink:href="#1" y="0"></use><use xlink:href="#2" y="2.171"></use><use xlink:href="#3" y="4.342"></use><use xlink:href="#4" y="6.513"></use></svg><svg x="240"><use xlink:href="#a"></use><use xlink:href="#1" y="0"></use><use xlink:href="#2" y="2.171"></use><use xlink:href="#3" y="4.342"></use><use xlink:href="#4" y="6.513"></use><text x="0" y="12.525" class="h">Restarting</text><text x="11.021999999999998" y="12.525" class="h">animation...</text></svg></svg></g></g></svg></svg>