<svg xmlns="http://www.w3.org/2000/svg" xmlns:xlink="http://www.w3.org/1999/xlink" width="2560" height="472.48999999999995"><rect width="2560" height="472.48999999999995" rx="5" ry="5" class="a"></rect><svg y="0%" x="0%"><circle cx="20" cy="20" r="6" class="b"></circle><circle cx="40" cy="20" r="6" class="c"></circle><circle cx="60" cy="20" r="6" class="d"></circle></svg><svg height="412.48999999999995" viewBox="0 0 252 41.248999999999995" width="2520" x="15" xmlns="http://www.w3.org/2000/svg" xmlns:xlink="http://www.w3.org/1999/xlink" y="50"><style>.e, .g, .f {
	font-family:
			'Courier New'
			Roboto,
			Helvetica,
			Arial,
			sans-serif,
			'Apple Color Emoji',
			'Segoe UI Emoji' !important;
}.a{fill:rgb(35,35,35)}.b{fill:#ff5f58}.c{fill:#ffbd2e}.d{fill:#18c132}.e{font-family:'JetBrainsMono',Monaco,Consolas,Menlo,'Bitstream Vera Sans Mono','Powerline Symbols',monospace}.f{fill:rgb(160,160,160);white-space:pre}.g{fill:rgb(111,119,131)}.h{fill:rgb(255,255,255);font-weight:bold;white-space:pre}.i{fill:rgb(255,0,4);white-space:pre}.j{fill:transparent}.l{animation-duration:6.434106s;animation-iteration-count:infinite;animation-name:k;animation-timing-function:steps(1,end)}@keyframes k{0%{transform:translateX(-0px)}22.3%{transform:translateX(-252px)}100%{transform:translateX(-504px)}}</style><g font-family="'JetBrainsMono',Monaco, Consolas, Menlo, &#x27;Bitstream Vera Sans Mono&#x27;, &#x27;Powerline Symbols&#x27;, monospace" font-size="1.67" class="e"><defs><symbol id="1"><text x="0" y="1.67" class="f">This</text><text x="5.01" y="1.67" class="f">is</text><text x="8.016" y="1.67" class="f">the</text><text x="12.024" y="1.67" class="f">first</text><text x="18.035999999999998" y="1.67" class="f">panel</text><rect height="2.171" width="23" x="28.055999999999997" y="0" class="g"></rect><text x="28.055999999999997" y="1.67" class="f">                       </text><text x="56.111999999999995" y="1.67" class="f">This</text></symbol><symbol id="2"><rect height="2.171" width="23" x="28.055999999999997" y="0" class="g"></rect><text x="28.055999999999997" y="1.67" class="h">     Hello, World!     </text><text x="56.111999999999995" y="1.67" class="f">panel</text></symbol><symbol id="3"><rect height="2.171" width="23" x="28.055999999999997" y="0" class="g"></rect><text x="28.055999999999997" y="1.67" class="f">                       </text><text x="56.111999999999995" y="1.67" class="f">contains</text></symbol><symbol id="4"><text x="56.111999999999995" y="1.67" class="f">multiple</text></symbol><symbol id="5"><text x="56.111999999999995" y="1.67" class="f">lines</text></symbol><symbol id="6"><text x="0" y="1.67" class="i">This</text><text x="5.01" y="1.67" class="i">is</text><text x="8.016" y="1.67" class="i">another</text><text x="20.04" y="1.67" class="f">This</text><text x="25.05" y="1.67" class="f">is</text><text x="28.055999999999997" y="1.67" class="f">the</text><text x="32.064" y="1.67" class="f">second</text><text x="39.077999999999996" y="1.67" class="f">panel</text></symbol><symbol id="7"><text x="0" y="1.67" class="i">panel</text><text x="6.012" y="1.67" class="i">line</text><text x="20.04" y="1.67" class="f">with</text><text x="25.05" y="1.67" class="f">a</text><text x="27.054" y="1.67" class="f">new</text><text x="31.061999999999998" y="1.67" class="f">line</text></symbol><symbol id="a"><rect height="19" width="252" x="0" y="0" class="j"></rect></symbol></defs><rect height="41.248999999999995" width="252" class="a"></rect><g class="l"><svg x="0" y="0" width="756"><svg x="0"><use xlink:href="#a"></use></svg><svg x="252"><use xlink:href="#a"></use><use xlink:href="#1" y="0"></use><use xlink:href="#2" y="2.171"></use><use xlink:href="#3" y="4.342"></use><use xlink:href="#4" y="6.513"></use><use xlink:href="#5" y="8.684"></use><use xlink:href="#6" y="10.855"></use><use xlink:href="#7" y="13.026"></use></svg><svg x="504"><use xlink:href="#a"></use><use xlink:href="#1" y="0"></use><use xlink:href="#2" y="2.171"></use><use xlink:href="#3" y="4.342"></use><use xlink:href="#4" y="6.513"></use><use xlink:href="#5" y="8.684"></use><use xlink:href="#6" y="10.855"></use><use xlink:href="#7" y="13.026"></use><text x="0" y="21.209000000000003" class="f">Restarting</text><text x="11.021999999999998" y="21.209000000000003" class="f">animation...</text></svg></svg></g></g></svg></svg>