<svg xmlns="http://www.w3.org/2000/svg" xmlns:xlink="http://www.w3.org/1999/xlink" width="840" height="581.04"><rect width="840" height="581.04" rx="5" ry="5" class="a"></rect><svg y="0%" x="0%"><circle cx="20" cy="20" r="6" class="b"></circle><circle cx="40" cy="20" r="6" class="c"></circle><circle cx="60" cy="20" r="6" class="d"></circle></svg><svg height="521.04" viewBox="0 0 80 52.104" width="800" x="15" xmlns="http://www.w3.org/2000/svg" xmlns:xlink="http://www.w3.org/1999/xlink" y="50"><style>.e, .g, .f {
	font-family:
			'Courier New'
			Roboto,
			Helvetica,
			Arial,
			sans-serif,
			'Apple Color Emoji',
			'Segoe UI Emoji' !important;
}.a{fill:rgb(35,35,35)}.b{fill:#ff5f58}.c{fill:#ffbd2e}.d{fill:#18c132}.e{font-family:'Courier New',Monaco,Consolas,Menlo,'Bitstream Vera Sans Mono','Powerline Symbols',monospace}.f{fill:rgb(104,104,104);white-space:pre}.g{fill:rgb(160,160,160);white-space:pre}.h{fill:transparent}.j{animation-duration:5.0745s;animation-iteration-count:infinite;animation-name:i;animation-timing-function:steps(1,end)}@keyframes i{0%{transform:translateX(-0px)}1.5%{transform:translateX(-80px)}100%{transform:translateX(-160px)}}</style><g font-family="'Courier New',Monaco, Consolas, Menlo, &#x27;Bitstream Vera Sans Mono&#x27;, &#x27;Powerline Symbols&#x27;, monospace" font-size="1.67" class="e"><defs><symbol id="1"><text x="0" y="1.67" class="f">•</text><text x="2.004" y="1.67" class="g">Level</text><text x="8.016" y="1.67" class="g">0</text></symbol><symbol id="2"><text x="1.002" y="1.67" class="f">•</text><text x="3.006" y="1.67" class="g">Level</text><text x="9.017999999999999" y="1.67" class="g">1</text></symbol><symbol id="3"><text x="2.004" y="1.67" class="f">•</text><text x="4.008" y="1.67" class="g">Level</text><text x="10.02" y="1.67" class="g">2</text></symbol><symbol id="4"><text x="0" y="1.67" class="f">•</text><text x="2.004" y="1.67" class="g">0</text></symbol><symbol id="5"><text x="1.002" y="1.67" class="f">•</text><text x="3.006" y="1.67" class="g">1</text></symbol><symbol id="6"><text x="2.004" y="1.67" class="f">•</text><text x="4.008" y="1.67" class="g">2</text></symbol><symbol id="7"><text x="3.006" y="1.67" class="f">•</text><text x="5.01" y="1.67" class="g">3</text></symbol><symbol id="a"><rect height="24" width="80" x="0" y="0" class="h"></rect></symbol></defs><rect height="52.104" width="80" class="a"></rect><g class="j"><svg x="0" y="0" width="240"><svg x="0"><use xlink:href="#a"></use></svg><svg x="80"><use xlink:href="#a"></use><use xlink:href="#1" y="0"></use><use xlink:href="#2" y="2.171"></use><use xlink:href="#3" y="4.342"></use><use xlink:href="#4" y="8.684"></use><use xlink:href="#5" y="10.855"></use><use xlink:href="#6" y="13.026"></use><use xlink:href="#7" y="15.197"></use></svg><svg x="160"><use xlink:href="#a"></use><use xlink:href="#1" y="0"></use><use xlink:href="#2" y="2.171"></use><use xlink:href="#3" y="4.342"></use><use xlink:href="#4" y="8.684"></use><use xlink:href="#5" y="10.855"></use><use xlink:href="#6" y="13.026"></use><use xlink:href="#7" y="15.197"></use><text x="0" y="23.380000000000003" class="g">Restarting</text><text x="11.021999999999998" y="23.380000000000003" class="g">animation...</text></svg></svg></g></g></svg></svg>