<svg xmlns="http://www.w3.org/2000/svg" xmlns:xlink="http://www.w3.org/1999/xlink" width="840" height="581.04"><rect width="840" height="581.04" rx="5" ry="5" class="a"></rect><svg y="0%" x="0%"><circle cx="20" cy="20" r="6" class="b"></circle><circle cx="40" cy="20" r="6" class="c"></circle><circle cx="60" cy="20" r="6" class="d"></circle></svg><svg height="521.04" viewBox="0 0 80 52.104" width="800" x="15" xmlns="http://www.w3.org/2000/svg" xmlns:xlink="http://www.w3.org/1999/xlink" y="50"><style>.e, .g, .f {
	font-family:
			'Courier New'
			Roboto,
			Helvetica,
			Arial,
			sans-serif,
			'Apple Color Emoji',
			'Segoe UI Emoji' !important;
}.a{fill:rgb(35,35,35)}.b{fill:#ff5f58}.c{fill:#ffbd2e}.d{fill:#18c132}.e{font-family:'Courier New',Monaco,Consolas,Menlo,'Bitstream Vera Sans Mono','Powerline Symbols',monospace}.f{fill:rgb(160,160,160);white-space:pre}.g{fill:rgb(104,104,104);white-space:pre}.h{fill:transparent}.j{animation-duration:5.36541s;animation-iteration-count:infinite;animation-name:i;animation-timing-function:steps(1,end)}@keyframes i{0%{transform:translateX(-0px)}4.5%{transform:translateX(-80px)}6.8%{transform:translateX(-160px)}100%{transform:translateX(-240px)}}</style><g font-family="'Courier New',Monaco, Consolas, Menlo, &#x27;Bitstream Vera Sans Mono&#x27;, &#x27;Powerline Symbols&#x27;, monospace" font-size="1.67" class="e"><defs><symbol id="1"><text x="0" y="1.67" class="f">Firstname</text><text x="10.02" y="1.67" class="g">|</text><text x="12.024" y="1.67" class="f">Lastname</text><text x="21.041999999999998" y="1.67" class="g">|</text><text x="23.045999999999996" y="1.67" class="f">Email</text><text x="48.096" y="1.67" class="g">|</text><text x="50.1" y="1.67" class="f">Note</text></symbol><symbol id="2"><text x="0" y="1.67" class="f">Paul</text><text x="10.02" y="1.67" class="g">|</text><text x="12.024" y="1.67" class="f">Dean</text><text x="21.041999999999998" y="1.67" class="g">|</text><text x="23.045999999999996" y="1.67" class="f">augue@velitAliquam.co.uk</text><text x="48.096" y="1.67" class="g">|</text></symbol><symbol id="3"><text x="0" y="1.67" class="f">Callie</text><text x="10.02" y="1.67" class="g">|</text><text x="12.024" y="1.67" class="f">Mckay</text><text x="21.041999999999998" y="1.67" class="g">|</text><text x="23.045999999999996" y="1.67" class="f">nunc.sed@est.com</text><text x="48.096" y="1.67" class="g">|</text><text x="50.1" y="1.67" class="f">这是一个测试,</text><text x="58.116" y="1.67" class="f">haha!</text></symbol><symbol id="4"><text x="0" y="1.67" class="f">Libby</text><text x="10.02" y="1.67" class="g">|</text><text x="12.024" y="1.67" class="f">Camacho</text><text x="21.041999999999998" y="1.67" class="g">|</text><text x="23.045999999999996" y="1.67" class="f">lobortis@semper.com</text><text x="48.096" y="1.67" class="g">|</text><text x="50.1" y="1.67" class="f">just</text><text x="55.10999999999999" y="1.67" class="f">a</text><text x="57.114" y="1.67" class="f">test,</text><text x="63.12599999999999" y="1.67" class="f">hey!</text></symbol><symbol id="5"><text x="0" y="1.67" class="f">张</text><text x="9.017999999999999" y="1.67" class="g">|</text><text x="11.021999999999998" y="1.67" class="f">小宝</text><text x="18.035999999999998" y="1.67" class="g">|</text><text x="20.04" y="1.67" class="f">zhang@example.com</text><text x="45.089999999999996" y="1.67" class="g">|</text></symbol><symbol id="6"><text x="0" y="1.67" class="f">panic:</text><text x="7.013999999999999" y="1.67" class="f">runtime</text><text x="15.029999999999998" y="1.67" class="f">error:</text><text x="22.043999999999997" y="1.67" class="f">index</text><text x="28.055999999999997" y="1.67" class="f">out</text><text x="32.064" y="1.67" class="f">of</text><text x="35.06999999999999" y="1.67" class="f">range</text><text x="41.082" y="1.67" class="f">[1]</text><text x="45.089999999999996" y="1.67" class="f">with</text><text x="50.1" y="1.67" class="f">length</text><text x="57.114" y="1.67" class="f">1</text></symbol><symbol id="7"><text x="0" y="1.67" class="f">goroutine</text><text x="10.02" y="1.67" class="f">1</text><text x="12.024" y="1.67" class="f">[running]:</text></symbol><symbol id="8"><text x="0" y="1.67" class="f">github.com/pterm/pterm.TablePrinter.renderRow({0x67ff40,</text><text x="57.114" y="1.67" class="f">0x1,</text><text x="62.123999999999995" y="1.67" class="f">0x67ff58,</text><text x="72.14399999999999" y="1.67" class="f">{0x0,</text><text x="78.15599999999999" y="1.67" class="f">0x</text></symbol><symbol id="9"><text x="0" y="1.67" class="f">0},</text><text x="4.008" y="1.67" class="f">0x67ff70,</text><text x="14.027999999999999" y="1.67" class="f">{0x520af5,</text><text x="25.05" y="1.67" class="f">0x3},</text><text x="31.061999999999998" y="1.67" class="f">0x67ff70,</text><text x="41.082" y="1.67" class="f">{0x0,</text><text x="47.093999999999994" y="1.67" class="f">...},</text><text x="53.105999999999995" y="1.67" class="f">...},</text><text x="59.117999999999995" y="1.67" class="f">...)</text></symbol><symbol id="10"><text x="8.016" y="1.67" class="f">/github/workspace/table_printer.go:290</text><text x="47.093999999999994" y="1.67" class="f">+0x471</text></symbol><symbol id="11"><text x="0" y="1.67" class="f">github.com/pterm/pterm.TablePrinter.Srender({0x67ff40,</text><text x="55.10999999999999" y="1.67" class="f">0x1,</text><text x="60.11999999999999" y="1.67" class="f">0x67ff58,</text><text x="70.13999999999999" y="1.67" class="f">{0x0,</text><text x="76.15199999999999" y="1.67" class="f">0x0}</text></symbol><symbol id="12"><text x="0" y="1.67" class="f">,</text><text x="2.004" y="1.67" class="f">0x67ff70,</text><text x="12.024" y="1.67" class="f">{0x520af5,</text><text x="23.045999999999996" y="1.67" class="f">0x3},</text><text x="29.058" y="1.67" class="f">0x67ff70,</text><text x="39.077999999999996" y="1.67" class="f">{0x0,</text><text x="45.089999999999996" y="1.67" class="f">...},</text><text x="51.102" y="1.67" class="f">...})</text></symbol><symbol id="13"><text x="8.016" y="1.67" class="f">/github/workspace/table_printer.go:217</text><text x="47.093999999999994" y="1.67" class="f">+0x2e5</text></symbol><symbol id="14"><text x="0" y="1.67" class="f">github.com/pterm/pterm.TablePrinter.Render({0x67ff40,</text><text x="54.108" y="1.67" class="f">0x1,</text><text x="59.117999999999995" y="1.67" class="f">0x67ff58,</text><text x="69.13799999999999" y="1.67" class="f">{0x0,</text><text x="75.14999999999999" y="1.67" class="f">0x0},</text></symbol><symbol id="15"><text x="1.002" y="1.67" class="f">0x67ff70,</text><text x="11.021999999999998" y="1.67" class="f">{0x520af5,</text><text x="22.043999999999997" y="1.67" class="f">0x3},</text><text x="28.055999999999997" y="1.67" class="f">0x67ff70,</text><text x="38.07599999999999" y="1.67" class="f">{0x0,</text><text x="44.087999999999994" y="1.67" class="f">...},</text><text x="50.1" y="1.67" class="f">...})</text></symbol><symbol id="16"><text x="8.016" y="1.67" class="f">/github/workspace/table_printer.go:302</text><text x="47.093999999999994" y="1.67" class="f">+0x58</text></symbol><symbol id="17"><text x="0" y="1.67" class="f">main.main()</text></symbol><symbol id="18"><text x="8.016" y="1.67" class="f">/github/workspace/_examples/table/demo/main.go:30</text><text x="58.116" y="1.67" class="f">+0x758</text></symbol><symbol id="a"><rect height="24" width="80" x="0" y="0" class="h"></rect></symbol></defs><rect height="52.104" width="80" class="a"></rect><g class="j"><svg x="0" y="0" width="320"><svg x="0"><use xlink:href="#a"></use></svg><svg x="80"><use xlink:href="#a"></use><use xlink:href="#1" y="0"></use></svg><svg x="160"><use xlink:href="#a"></use><use xlink:href="#1" y="0"></use><use xlink:href="#2" y="2.171"></use><use xlink:href="#3" y="4.342"></use><use xlink:href="#4" y="6.513"></use><use xlink:href="#5" y="8.684"></use><use xlink:href="#6" y="15.197"></use><use xlink:href="#7" y="19.539"></use><use xlink:href="#8" y="21.71"></use><use xlink:href="#9" y="23.880999999999997"></use><use xlink:href="#10" y="26.052"></use><use xlink:href="#11" y="28.223000000000003"></use><use xlink:href="#12" y="30.394"></use><use xlink:href="#13" y="32.565"></use><use xlink:href="#14" y="34.736"></use><use xlink:href="#15" y="36.907000000000004"></use><use xlink:href="#16" y="39.078"></use><use xlink:href="#17" y="41.248999999999995"></use><use xlink:href="#18" y="43.42"></use></svg><svg x="240"><use xlink:href="#a"></use><use xlink:href="#1" y="0"></use><use xlink:href="#2" y="2.171"></use><use xlink:href="#3" y="4.342"></use><use xlink:href="#4" y="6.513"></use><use xlink:href="#5" y="8.684"></use><use xlink:href="#6" y="15.197"></use><use xlink:href="#7" y="19.539"></use><use xlink:href="#8" y="21.71"></use><use xlink:href="#9" y="23.880999999999997"></use><use xlink:href="#10" y="26.052"></use><use xlink:href="#11" y="28.223000000000003"></use><use xlink:href="#12" y="30.394"></use><use xlink:href="#13" y="32.565"></use><use xlink:href="#14" y="34.736"></use><use xlink:href="#15" y="36.907000000000004"></use><use xlink:href="#16" y="39.078"></use><use xlink:href="#17" y="41.248999999999995"></use><use xlink:href="#18" y="43.42"></use><text x="0" y="49.431999999999995" class="f">Restarting</text><text x="11.021999999999998" y="49.431999999999995" class="f">animation...</text></svg></svg></g></g></svg></svg>