<svg xmlns="http://www.w3.org/2000/svg" xmlns:xlink="http://www.w3.org/1999/xlink" width="840" height="581.04"><rect width="840" height="581.04" rx="5" ry="5" class="a"></rect><svg y="0%" x="0%"><circle cx="20" cy="20" r="6" class="b"></circle><circle cx="40" cy="20" r="6" class="c"></circle><circle cx="60" cy="20" r="6" class="d"></circle></svg><svg height="521.04" viewBox="0 0 80 52.104" width="800" x="15" xmlns="http://www.w3.org/2000/svg" xmlns:xlink="http://www.w3.org/1999/xlink" y="50"><style>.e, .g, .f {
	font-family:
			'Courier New'
			Roboto,
			Helvetica,
			Arial,
			sans-serif,
			'Apple Color Emoji',
			'Segoe UI Emoji' !important;
}.a{fill:rgb(35,35,35)}.b{fill:#ff5f58}.c{fill:#ffbd2e}.d{fill:#18c132}.e{font-family:'Courier New',Monaco,Consolas,Menlo,'Bitstream Vera Sans Mono','Powerline Symbols',monospace}.f{fill:rgb(126,231,233);white-space:pre}.g{fill:rgb(104,104,104);white-space:pre}.h{fill:rgb(160,160,160);white-space:pre}.i{fill:transparent}.k{animation-duration:5.007086s;animation-iteration-count:infinite;animation-name:j;animation-timing-function:steps(1,end)}@keyframes j{0%{transform:translateX(-0px)}0.1%{transform:translateX(-80px)}0.1%{transform:translateX(-160px)}0.1%{transform:translateX(-240px)}100%{transform:translateX(-320px)}}</style><g font-family="'Courier New',Monaco, Consolas, Menlo, &#x27;Bitstream Vera Sans Mono&#x27;, &#x27;Powerline Symbols&#x27;, monospace" font-size="1.67" class="e"><defs><symbol id="1"><text x="0" y="1.67" class="f">Firstname</text><text x="10.02" y="1.67" class="g">|</text><text x="12.024" y="1.67" class="f">Lastname</text><text x="21.041999999999998" y="1.67" class="g">|</text><text x="23.045999999999996" y="1.67" class="f">Email</text><text x="60.11999999999999" y="1.67" class="g">|</text><text x="62.123999999999995" y="1.67" class="f">Note</text></symbol><symbol id="2"><text x="0" y="1.67" class="h">Paul</text><text x="10.02" y="1.67" class="g">|</text><text x="12.024" y="1.67" class="h">Dean</text><text x="21.041999999999998" y="1.67" class="g">|</text><text x="23.045999999999996" y="1.67" class="h">nisi.dictum.augue@velitAliquam.co.uk</text><text x="60.11999999999999" y="1.67" class="g">|</text></symbol><symbol id="3"><text x="0" y="1.67" class="h">Callie</text><text x="10.02" y="1.67" class="g">|</text><text x="12.024" y="1.67" class="h">Mckay</text><text x="21.041999999999998" y="1.67" class="g">|</text><text x="23.045999999999996" y="1.67" class="h">egestas.nunc.sed@est.com</text><text x="60.11999999999999" y="1.67" class="g">|</text><text x="62.123999999999995" y="1.67" class="h">这是一个测试,</text><text x="70.13999999999999" y="1.67" class="h">haha!</text></symbol><symbol id="4"><text x="0" y="1.67" class="h">Libby</text><text x="10.02" y="1.67" class="g">|</text><text x="12.024" y="1.67" class="h">Camacho</text><text x="21.041999999999998" y="1.67" class="g">|</text><text x="23.045999999999996" y="1.67" class="h">aliquet.lobortis@semper.com</text><text x="60.11999999999999" y="1.67" class="g">|</text><text x="62.123999999999995" y="1.67" class="h">just</text><text x="67.134" y="1.67" class="h">a</text><text x="69.13799999999999" y="1.67" class="h">test,</text><text x="75.14999999999999" y="1.67" class="h">hey!</text></symbol><symbol id="5"><text x="0" y="1.67" class="f">Firstname</text><text x="10.02" y="1.67" class="g">|</text><text x="12.024" y="1.67" class="f">Lastname</text><text x="21.041999999999998" y="1.67" class="g">|</text><text x="54.108" y="1.67" class="f">Email</text></symbol><symbol id="6"><text x="5.01" y="1.67" class="h">Paul</text><text x="10.02" y="1.67" class="g">|</text><text x="16.032" y="1.67" class="h">Dean</text><text x="21.041999999999998" y="1.67" class="g">|</text><text x="23.045999999999996" y="1.67" class="h">nisi.dictum.augue@velitAliquam.co.uk</text></symbol><symbol id="7"><text x="3.006" y="1.67" class="h">Callie</text><text x="10.02" y="1.67" class="g">|</text><text x="15.029999999999998" y="1.67" class="h">Mckay</text><text x="21.041999999999998" y="1.67" class="g">|</text><text x="35.06999999999999" y="1.67" class="h">egestas.nunc.sed@est.com</text></symbol><symbol id="8"><text x="4.008" y="1.67" class="h">Libby</text><text x="10.02" y="1.67" class="g">|</text><text x="13.026" y="1.67" class="h">Camacho</text><text x="21.041999999999998" y="1.67" class="g">|</text><text x="32.064" y="1.67" class="h">aliquet.lobortis@semper.com</text></symbol><symbol id="9"><text x="7.013999999999999" y="1.67" class="h">张</text><text x="9.017999999999999" y="1.67" class="g">|</text><text x="15.029999999999998" y="1.67" class="h">小宝</text><text x="18.035999999999998" y="1.67" class="g">|</text><text x="39.077999999999996" y="1.67" class="h">zhang@example.com</text></symbol><symbol id="a"><rect height="24" width="80" x="0" y="0" class="i"></rect></symbol></defs><rect height="52.104" width="80" class="a"></rect><g class="k"><svg x="0" y="0" width="400"><svg x="0"><use xlink:href="#a"></use></svg><svg x="80"><use xlink:href="#a"></use><use xlink:href="#1" y="0"></use><use xlink:href="#2" y="4.342"></use><use xlink:href="#3" y="8.684"></use><text x="0" y="12.525" class="h">Libby</text></svg><svg x="160"><use xlink:href="#a"></use><use xlink:href="#1" y="0"></use><use xlink:href="#2" y="4.342"></use><use xlink:href="#3" y="8.684"></use><use xlink:href="#4" y="10.855"></use><use xlink:href="#5" y="17.368"></use><use xlink:href="#6" y="19.539"></use><use xlink:href="#7" y="21.71"></use><text x="4.008" y="25.550999999999995" class="h">Libby</text><text x="10.02" y="25.550999999999995" class="g">|</text></svg><svg x="240"><use xlink:href="#a"></use><use xlink:href="#1" y="0"></use><use xlink:href="#2" y="4.342"></use><use xlink:href="#3" y="8.684"></use><use xlink:href="#4" y="10.855"></use><use xlink:href="#5" y="17.368"></use><use xlink:href="#6" y="19.539"></use><use xlink:href="#7" y="21.71"></use><use xlink:href="#8" y="23.880999999999997"></use><use xlink:href="#9" y="26.052"></use></svg><svg x="320"><use xlink:href="#a"></use><use xlink:href="#1" y="0"></use><use xlink:href="#2" y="4.342"></use><use xlink:href="#3" y="8.684"></use><use xlink:href="#4" y="10.855"></use><use xlink:href="#5" y="17.368"></use><use xlink:href="#6" y="19.539"></use><use xlink:href="#7" y="21.71"></use><use xlink:href="#8" y="23.880999999999997"></use><use xlink:href="#9" y="26.052"></use><text x="0" y="32.064" class="h">Restarting</text><text x="11.021999999999998" y="32.064" class="h">animation...</text></svg></svg></g></g></svg></svg>