<svg xmlns="http://www.w3.org/2000/svg" xmlns:xlink="http://www.w3.org/1999/xlink" width="840" height="581.04"><rect width="840" height="581.04" rx="5" ry="5" class="a"></rect><svg y="0%" x="0%"><circle cx="20" cy="20" r="6" class="b"></circle><circle cx="40" cy="20" r="6" class="c"></circle><circle cx="60" cy="20" r="6" class="d"></circle></svg><svg height="521.04" viewBox="0 0 80 52.104" width="800" x="15" xmlns="http://www.w3.org/2000/svg" xmlns:xlink="http://www.w3.org/1999/xlink" y="50"><style>.e, .g, .f {
	font-family:
			'Courier New'
			Roboto,
			Helvetica,
			Arial,
			sans-serif,
			'Apple Color Emoji',
			'Segoe UI Emoji' !important;
}.a{fill:rgb(35,35,35)}.b{fill:#ff5f58}.c{fill:#ffbd2e}.d{fill:#18c132}.e{font-family:'Courier New',Monaco,Consolas,Menlo,'Bitstream Vera Sans Mono','Powerline Symbols',monospace}.f{fill:rgb(102,194,205)}.g{white-space:pre}.h{fill:rgb(126,231,233);white-space:pre}.i{fill:rgb(160,160,160);white-space:pre}.j{fill:transparent}.l{animation-duration:5.479667s;animation-iteration-count:infinite;animation-name:k;animation-timing-function:steps(1,end)}@keyframes k{0%{transform:translateX(-0px)}4.3%{transform:translateX(-80px)}6.2%{transform:translateX(-160px)}8.6%{transform:translateX(-240px)}8.6%{transform:translateX(-320px)}8.6%{transform:translateX(-400px)}8.6%{transform:translateX(-480px)}8.6%{transform:translateX(-560px)}8.6%{transform:translateX(-640px)}8.6%{transform:translateX(-720px)}8.6%{transform:translateX(-800px)}8.6%{transform:translateX(-880px)}8.6%{transform:translateX(-960px)}8.6%{transform:translateX(-1040px)}8.6%{transform:translateX(-1120px)}8.6%{transform:translateX(-1200px)}8.6%{transform:translateX(-1280px)}8.7%{transform:translateX(-1360px)}8.7%{transform:translateX(-1440px)}8.7%{transform:translateX(-1520px)}8.7%{transform:translateX(-1600px)}8.7%{transform:translateX(-1680px)}8.7%{transform:translateX(-1760px)}8.7%{transform:translateX(-1840px)}8.7%{transform:translateX(-1920px)}8.7%{transform:translateX(-2000px)}8.7%{transform:translateX(-2080px)}8.7%{transform:translateX(-2160px)}8.7%{transform:translateX(-2240px)}8.7%{transform:translateX(-2320px)}8.7%{transform:translateX(-2400px)}8.7%{transform:translateX(-2480px)}8.7%{transform:translateX(-2560px)}8.7%{transform:translateX(-2640px)}8.7%{transform:translateX(-2720px)}8.7%{transform:translateX(-2800px)}8.7%{transform:translateX(-2880px)}8.7%{transform:translateX(-2960px)}8.7%{transform:translateX(-3040px)}8.7%{transform:translateX(-3120px)}8.7%{transform:translateX(-3200px)}8.7%{transform:translateX(-3280px)}8.7%{transform:translateX(-3360px)}8.8%{transform:translateX(-3440px)}100%{transform:translateX(-3520px)}}</style><g font-family="'Courier New',Monaco, Consolas, Menlo, &#x27;Bitstream Vera Sans Mono&#x27;, &#x27;Powerline Symbols&#x27;, monospace" font-size="1.67" class="e"><defs><symbol id="1"><rect height="2.171" width="6" x="0" y="0" class="f"></rect><text x="0" y="1.67" class="g"> INFO </text><text x="7.013999999999999" y="1.67" class="h">This</text><text x="12.024" y="1.67" class="h">might</text><text x="18.035999999999998" y="1.67" class="h">not</text><text x="22.043999999999997" y="1.67" class="h">be</text><text x="25.05" y="1.67" class="h">rendered</text><text x="34.068" y="1.67" class="h">correctly</text><text x="44.087999999999994" y="1.67" class="h">on</text><text x="47.093999999999994" y="1.67" class="h">GitHub,</text></symbol><symbol id="2"><rect height="2.171" width="6" x="0" y="0" class="f"></rect><text x="0" y="1.67" class="g">      </text><text x="7.013999999999999" y="1.67" class="h">but</text><text x="11.021999999999998" y="1.67" class="h">it</text><text x="14.027999999999999" y="1.67" class="h">will</text><text x="19.037999999999997" y="1.67" class="h">work</text><text x="24.048" y="1.67" class="h">in</text><text x="27.054" y="1.67" class="h">a</text><text x="29.058" y="1.67" class="h">real</text><text x="34.068" y="1.67" class="h">terminal.</text></symbol><symbol id="3"><rect height="2.171" width="6" x="0" y="0" class="f"></rect><text x="0" y="1.67" class="g">      </text><text x="7.013999999999999" y="1.67" class="h">This</text><text x="12.024" y="1.67" class="h">is</text><text x="15.029999999999998" y="1.67" class="h">because</text><text x="23.045999999999996" y="1.67" class="h">GitHub</text><text x="30.059999999999995" y="1.67" class="h">does</text><text x="35.06999999999999" y="1.67" class="h">not</text><text x="39.077999999999996" y="1.67" class="h">use</text><text x="43.086" y="1.67" class="h">a</text><text x="45.089999999999996" y="1.67" class="h">monospaced</text><text x="56.111999999999995" y="1.67" class="h">font</text><text x="61.12199999999999" y="1.67" class="h">by</text><text x="64.128" y="1.67" class="h">default</text><text x="72.14399999999999" y="1.67" class="h">for</text><text x="76.15199999999999" y="1.67" class="h">SVGs</text></symbol><symbol id="4"><text x="0" y="1.67" class="i">┌────────────────────────────────────────────────────────────────────┐</text></symbol><symbol id="5"><text x="0" y="1.67" class="i">|</text><text x="2.004" y="1.67" class="i">┌──────────────────────────────────┐</text><text x="39.077999999999996" y="1.67" class="i">┌─</text><text x="42.083999999999996" y="1.67" class="i">title</text><text x="48.096" y="1.67" class="i">───────────────────┐</text><text x="69.13799999999999" y="1.67" class="i">|</text></symbol><symbol id="6"><text x="0" y="1.67" class="i">|</text><text x="2.004" y="1.67" class="i">|</text><text x="4.008" y="1.67" class="i">Lorem</text><text x="10.02" y="1.67" class="i">ipsum</text><text x="16.032" y="1.67" class="i">dolor</text><text x="22.043999999999997" y="1.67" class="i">sit</text><text x="26.052" y="1.67" class="i">amet,</text><text x="37.074" y="1.67" class="i">|</text><text x="39.077999999999996" y="1.67" class="i">|</text><text x="41.082" y="1.67" class="i">Ut</text><text x="44.087999999999994" y="1.67" class="i">enim</text><text x="49.098" y="1.67" class="i">ad</text><text x="52.104" y="1.67" class="i">minim</text><text x="58.116" y="1.67" class="i">veniam,</text><text x="67.134" y="1.67" class="i">|</text><text x="69.13799999999999" y="1.67" class="i">|</text></symbol><symbol id="7"><text x="0" y="1.67" class="i">|</text><text x="2.004" y="1.67" class="i">|</text><text x="4.008" y="1.67" class="i">consectetur</text><text x="16.032" y="1.67" class="i">adipiscing</text><text x="27.054" y="1.67" class="i">elit,</text><text x="37.074" y="1.67" class="i">|</text><text x="39.077999999999996" y="1.67" class="i">|</text><text x="41.082" y="1.67" class="i">quis</text><text x="46.09199999999999" y="1.67" class="i">nostrud</text><text x="54.108" y="1.67" class="i">exercitation</text><text x="67.134" y="1.67" class="i">|</text><text x="69.13799999999999" y="1.67" class="i">|</text></symbol><symbol id="8"><text x="0" y="1.67" class="i">|</text><text x="2.004" y="1.67" class="i">|</text><text x="4.008" y="1.67" class="i">sed</text><text x="8.016" y="1.67" class="i">do</text><text x="11.021999999999998" y="1.67" class="i">eiusmod</text><text x="19.037999999999997" y="1.67" class="i">tempor</text><text x="26.052" y="1.67" class="i">incididunt</text><text x="37.074" y="1.67" class="i">|</text><text x="39.077999999999996" y="1.67" class="i">|</text><text x="41.082" y="1.67" class="i">ullamco</text><text x="49.098" y="1.67" class="i">laboris</text><text x="67.134" y="1.67" class="i">|</text><text x="69.13799999999999" y="1.67" class="i">|</text></symbol><symbol id="9"><text x="0" y="1.67" class="i">|</text><text x="2.004" y="1.67" class="i">|</text><text x="4.008" y="1.67" class="i">ut</text><text x="7.013999999999999" y="1.67" class="i">labore</text><text x="14.027999999999999" y="1.67" class="i">et</text><text x="17.034" y="1.67" class="i">dolore</text><text x="37.074" y="1.67" class="i">|</text><text x="39.077999999999996" y="1.67" class="i">|</text><text x="41.082" y="1.67" class="i">nisi</text><text x="46.09199999999999" y="1.67" class="i">ut</text><text x="49.098" y="1.67" class="i">aliquip</text><text x="67.134" y="1.67" class="i">|</text><text x="69.13799999999999" y="1.67" class="i">|</text></symbol><symbol id="10"><text x="0" y="1.67" class="i">|</text><text x="2.004" y="1.67" class="i">|</text><text x="4.008" y="1.67" class="i">magna</text><text x="10.02" y="1.67" class="i">aliqua.</text><text x="37.074" y="1.67" class="i">|</text><text x="39.077999999999996" y="1.67" class="i">|</text><text x="41.082" y="1.67" class="i">ex</text><text x="44.087999999999994" y="1.67" class="i">ea</text><text x="47.093999999999994" y="1.67" class="i">commodo</text><text x="67.134" y="1.67" class="i">|</text><text x="69.13799999999999" y="1.67" class="i">|</text></symbol><symbol id="11"><text x="0" y="1.67" class="i">|</text><text x="2.004" y="1.67" class="i">└──────────────────────────────────┘</text><text x="39.077999999999996" y="1.67" class="i">|</text><text x="41.082" y="1.67" class="i">consequat.</text><text x="67.134" y="1.67" class="i">|</text><text x="69.13799999999999" y="1.67" class="i">|</text></symbol><symbol id="12"><text x="0" y="1.67" class="i">|</text><text x="39.077999999999996" y="1.67" class="i">└───────────────────────────┘</text><text x="69.13799999999999" y="1.67" class="i">|</text></symbol><symbol id="13"><text x="0" y="1.67" class="i">|</text><text x="2.004" y="1.67" class="i">┌────────────────────────────────┐</text><text x="69.13799999999999" y="1.67" class="i">|</text></symbol><symbol id="14"><text x="0" y="1.67" class="i">|</text><text x="2.004" y="1.67" class="i">|</text><text x="4.008" y="1.67" class="i">Duis</text><text x="9.017999999999999" y="1.67" class="i">aute</text><text x="14.027999999999999" y="1.67" class="i">irure</text><text x="35.06999999999999" y="1.67" class="i">|</text><text x="69.13799999999999" y="1.67" class="i">|</text></symbol><symbol id="15"><text x="0" y="1.67" class="i">|</text><text x="2.004" y="1.67" class="i">|</text><text x="4.008" y="1.67" class="i">dolor</text><text x="10.02" y="1.67" class="i">in</text><text x="13.026" y="1.67" class="i">reprehenderit</text><text x="35.06999999999999" y="1.67" class="i">|</text><text x="69.13799999999999" y="1.67" class="i">|</text></symbol><symbol id="16"><text x="0" y="1.67" class="i">|</text><text x="2.004" y="1.67" class="i">|</text><text x="4.008" y="1.67" class="i">in</text><text x="7.013999999999999" y="1.67" class="i">voluptate</text><text x="17.034" y="1.67" class="i">velit</text><text x="23.045999999999996" y="1.67" class="i">esse</text><text x="28.055999999999997" y="1.67" class="i">cillum</text><text x="35.06999999999999" y="1.67" class="i">|</text><text x="69.13799999999999" y="1.67" class="i">|</text></symbol><symbol id="17"><text x="0" y="1.67" class="i">|</text><text x="2.004" y="1.67" class="i">|</text><text x="4.008" y="1.67" class="i">dolore</text><text x="11.021999999999998" y="1.67" class="i">eu</text><text x="14.027999999999999" y="1.67" class="i">fugiat</text><text x="35.06999999999999" y="1.67" class="i">|</text><text x="69.13799999999999" y="1.67" class="i">|</text></symbol><symbol id="18"><text x="0" y="1.67" class="i">|</text><text x="2.004" y="1.67" class="i">|</text><text x="4.008" y="1.67" class="i">nulla</text><text x="10.02" y="1.67" class="i">pariatur.</text><text x="35.06999999999999" y="1.67" class="i">|</text><text x="69.13799999999999" y="1.67" class="i">|</text></symbol><symbol id="19"><text x="0" y="1.67" class="i">|</text><text x="2.004" y="1.67" class="i">└─────</text><text x="9.017999999999999" y="1.67" class="i">bottom</text><text x="16.032" y="1.67" class="i">center</text><text x="23.045999999999996" y="1.67" class="i">title</text><text x="29.058" y="1.67" class="i">──────┘</text><text x="69.13799999999999" y="1.67" class="i">|</text></symbol><symbol id="20"><text x="0" y="1.67" class="i">|</text><text x="69.13799999999999" y="1.67" class="i">|</text></symbol><symbol id="21"><text x="0" y="1.67" class="i">└──────────────────────────────────────────────────────</text><text x="56.111999999999995" y="1.67" class="i">Lorem</text><text x="62.123999999999995" y="1.67" class="i">Ipsum</text><text x="68.136" y="1.67" class="i">─┘</text></symbol><symbol id="a"><rect height="24" width="80" x="0" y="0" class="j"></rect></symbol></defs><rect height="52.104" width="80" class="a"></rect><g class="l"><svg x="0" y="0" width="3600"><svg x="0"><use xlink:href="#a"></use></svg><svg x="80"><use xlink:href="#a"></use><use xlink:href="#1" y="0"></use></svg><svg x="160"><use xlink:href="#a"></use><use xlink:href="#1" y="0"></use><use xlink:href="#2" y="2.171"></use><use xlink:href="#3" y="4.342"></use></svg><svg x="240"><use xlink:href="#a"></use><use xlink:href="#1" y="0"></use><use xlink:href="#2" y="2.171"></use><use xlink:href="#3" y="4.342"></use><use xlink:href="#4" y="6.513"></use></svg><svg x="320"><use xlink:href="#a"></use><use xlink:href="#1" y="0"></use><use xlink:href="#2" y="2.171"></use><use xlink:href="#3" y="4.342"></use><use xlink:href="#4" y="6.513"></use></svg><svg x="400"><use xlink:href="#a"></use><use xlink:href="#1" y="0"></use><use xlink:href="#2" y="2.171"></use><use xlink:href="#3" y="4.342"></use><use xlink:href="#4" y="6.513"></use><text x="0" y="10.354" class="i">|</text><text x="2.004" y="10.354" class="i">┌─────────────────</text></svg><svg x="480"><use xlink:href="#a"></use><use xlink:href="#1" y="0"></use><use xlink:href="#2" y="2.171"></use><use xlink:href="#3" y="4.342"></use><use xlink:href="#4" y="6.513"></use><use xlink:href="#5" y="8.684"></use></svg><svg x="560"><use xlink:href="#a"></use><use xlink:href="#1" y="0"></use><use xlink:href="#2" y="2.171"></use><use xlink:href="#3" y="4.342"></use><use xlink:href="#4" y="6.513"></use><use xlink:href="#5" y="8.684"></use></svg><svg x="640"><use xlink:href="#a"></use><use xlink:href="#1" y="0"></use><use xlink:href="#2" y="2.171"></use><use xlink:href="#3" y="4.342"></use><use xlink:href="#4" y="6.513"></use><use xlink:href="#5" y="8.684"></use><use xlink:href="#6" y="10.855"></use></svg><svg x="720"><use xlink:href="#a"></use><use xlink:href="#1" y="0"></use><use xlink:href="#2" y="2.171"></use><use xlink:href="#3" y="4.342"></use><use xlink:href="#4" y="6.513"></use><use xlink:href="#5" y="8.684"></use><use xlink:href="#6" y="10.855"></use></svg><svg x="800"><use xlink:href="#a"></use><use xlink:href="#1" y="0"></use><use xlink:href="#2" y="2.171"></use><use xlink:href="#3" y="4.342"></use><use xlink:href="#4" y="6.513"></use><use xlink:href="#5" y="8.684"></use><use xlink:href="#6" y="10.855"></use><use xlink:href="#7" y="13.026"></use></svg><svg x="880"><use xlink:href="#a"></use><use xlink:href="#1" y="0"></use><use xlink:href="#2" y="2.171"></use><use xlink:href="#3" y="4.342"></use><use xlink:href="#4" y="6.513"></use><use xlink:href="#5" y="8.684"></use><use xlink:href="#6" y="10.855"></use><use xlink:href="#7" y="13.026"></use></svg><svg x="960"><use xlink:href="#a"></use><use xlink:href="#1" y="0"></use><use xlink:href="#2" y="2.171"></use><use xlink:href="#3" y="4.342"></use><use xlink:href="#4" y="6.513"></use><use xlink:href="#5" y="8.684"></use><use xlink:href="#6" y="10.855"></use><use xlink:href="#7" y="13.026"></use><text x="0" y="16.866999999999997" class="i">|</text><text x="2.004" y="16.866999999999997" class="i">|</text></svg><svg x="1040"><use xlink:href="#a"></use><use xlink:href="#1" y="0"></use><use xlink:href="#2" y="2.171"></use><use xlink:href="#3" y="4.342"></use><use xlink:href="#4" y="6.513"></use><use xlink:href="#5" y="8.684"></use><use xlink:href="#6" y="10.855"></use><use xlink:href="#7" y="13.026"></use><use xlink:href="#8" y="15.197"></use></svg><svg x="1120"><use xlink:href="#a"></use><use xlink:href="#1" y="0"></use><use xlink:href="#2" y="2.171"></use><use xlink:href="#3" y="4.342"></use><use xlink:href="#4" y="6.513"></use><use xlink:href="#5" y="8.684"></use><use xlink:href="#6" y="10.855"></use><use xlink:href="#7" y="13.026"></use><use xlink:href="#8" y="15.197"></use></svg><svg x="1200"><use xlink:href="#a"></use><use xlink:href="#1" y="0"></use><use xlink:href="#2" y="2.171"></use><use xlink:href="#3" y="4.342"></use><use xlink:href="#4" y="6.513"></use><use xlink:href="#5" y="8.684"></use><use xlink:href="#6" y="10.855"></use><use xlink:href="#7" y="13.026"></use><use xlink:href="#8" y="15.197"></use><use xlink:href="#9" y="17.368"></use></svg><svg x="1280"><use xlink:href="#a"></use><use xlink:href="#1" y="0"></use><use xlink:href="#2" y="2.171"></use><use xlink:href="#3" y="4.342"></use><use xlink:href="#4" y="6.513"></use><use xlink:href="#5" y="8.684"></use><use xlink:href="#6" y="10.855"></use><use xlink:href="#7" y="13.026"></use><use xlink:href="#8" y="15.197"></use><use xlink:href="#9" y="17.368"></use></svg><svg x="1360"><use xlink:href="#a"></use><use xlink:href="#1" y="0"></use><use xlink:href="#2" y="2.171"></use><use xlink:href="#3" y="4.342"></use><use xlink:href="#4" y="6.513"></use><use xlink:href="#5" y="8.684"></use><use xlink:href="#6" y="10.855"></use><use xlink:href="#7" y="13.026"></use><use xlink:href="#8" y="15.197"></use><use xlink:href="#9" y="17.368"></use><use xlink:href="#10" y="19.539"></use></svg><svg x="1440"><use xlink:href="#a"></use><use xlink:href="#1" y="0"></use><use xlink:href="#2" y="2.171"></use><use xlink:href="#3" y="4.342"></use><use xlink:href="#4" y="6.513"></use><use xlink:href="#5" y="8.684"></use><use xlink:href="#6" y="10.855"></use><use xlink:href="#7" y="13.026"></use><use xlink:href="#8" y="15.197"></use><use xlink:href="#9" y="17.368"></use><use xlink:href="#10" y="19.539"></use></svg><svg x="1520"><use xlink:href="#a"></use><use xlink:href="#1" y="0"></use><use xlink:href="#2" y="2.171"></use><use xlink:href="#3" y="4.342"></use><use xlink:href="#4" y="6.513"></use><use xlink:href="#5" y="8.684"></use><use xlink:href="#6" y="10.855"></use><use xlink:href="#7" y="13.026"></use><use xlink:href="#8" y="15.197"></use><use xlink:href="#9" y="17.368"></use><use xlink:href="#10" y="19.539"></use><text x="0" y="23.380000000000003" class="i">|</text><text x="2.004" y="23.380000000000003" class="i">└──────────────────────────────────</text></svg><svg x="1600"><use xlink:href="#a"></use><use xlink:href="#1" y="0"></use><use xlink:href="#2" y="2.171"></use><use xlink:href="#3" y="4.342"></use><use xlink:href="#4" y="6.513"></use><use xlink:href="#5" y="8.684"></use><use xlink:href="#6" y="10.855"></use><use xlink:href="#7" y="13.026"></use><use xlink:href="#8" y="15.197"></use><use xlink:href="#9" y="17.368"></use><use xlink:href="#10" y="19.539"></use><use xlink:href="#11" y="21.71"></use></svg><svg x="1680"><use xlink:href="#a"></use><use xlink:href="#1" y="0"></use><use xlink:href="#2" y="2.171"></use><use xlink:href="#3" y="4.342"></use><use xlink:href="#4" y="6.513"></use><use xlink:href="#5" y="8.684"></use><use xlink:href="#6" y="10.855"></use><use xlink:href="#7" y="13.026"></use><use xlink:href="#8" y="15.197"></use><use xlink:href="#9" y="17.368"></use><use xlink:href="#10" y="19.539"></use><use xlink:href="#11" y="21.71"></use></svg><svg x="1760"><use xlink:href="#a"></use><use xlink:href="#1" y="0"></use><use xlink:href="#2" y="2.171"></use><use xlink:href="#3" y="4.342"></use><use xlink:href="#4" y="6.513"></use><use xlink:href="#5" y="8.684"></use><use xlink:href="#6" y="10.855"></use><use xlink:href="#7" y="13.026"></use><use xlink:href="#8" y="15.197"></use><use xlink:href="#9" y="17.368"></use><use xlink:href="#10" y="19.539"></use><use xlink:href="#11" y="21.71"></use><use xlink:href="#12" y="23.880999999999997"></use></svg><svg x="1840"><use xlink:href="#a"></use><use xlink:href="#1" y="0"></use><use xlink:href="#2" y="2.171"></use><use xlink:href="#3" y="4.342"></use><use xlink:href="#4" y="6.513"></use><use xlink:href="#5" y="8.684"></use><use xlink:href="#6" y="10.855"></use><use xlink:href="#7" y="13.026"></use><use xlink:href="#8" y="15.197"></use><use xlink:href="#9" y="17.368"></use><use xlink:href="#10" y="19.539"></use><use xlink:href="#11" y="21.71"></use><use xlink:href="#12" y="23.880999999999997"></use></svg><svg x="1920"><use xlink:href="#a"></use><use xlink:href="#1" y="0"></use><use xlink:href="#2" y="2.171"></use><use xlink:href="#3" y="4.342"></use><use xlink:href="#4" y="6.513"></use><use xlink:href="#5" y="8.684"></use><use xlink:href="#6" y="10.855"></use><use xlink:href="#7" y="13.026"></use><use xlink:href="#8" y="15.197"></use><use xlink:href="#9" y="17.368"></use><use xlink:href="#10" y="19.539"></use><use xlink:href="#11" y="21.71"></use><use xlink:href="#12" y="23.880999999999997"></use><text x="0" y="27.722" class="i">|</text><text x="2.004" y="27.722" class="i">┌──────────────────────────</text></svg><svg x="2000"><use xlink:href="#a"></use><use xlink:href="#1" y="0"></use><use xlink:href="#2" y="2.171"></use><use xlink:href="#3" y="4.342"></use><use xlink:href="#4" y="6.513"></use><use xlink:href="#5" y="8.684"></use><use xlink:href="#6" y="10.855"></use><use xlink:href="#7" y="13.026"></use><use xlink:href="#8" y="15.197"></use><use xlink:href="#9" y="17.368"></use><use xlink:href="#10" y="19.539"></use><use xlink:href="#11" y="21.71"></use><use xlink:href="#12" y="23.880999999999997"></use><use xlink:href="#13" y="26.052"></use></svg><svg x="2080"><use xlink:href="#a"></use><use xlink:href="#1" y="0"></use><use xlink:href="#2" y="2.171"></use><use xlink:href="#3" y="4.342"></use><use xlink:href="#4" y="6.513"></use><use xlink:href="#5" y="8.684"></use><use xlink:href="#6" y="10.855"></use><use xlink:href="#7" y="13.026"></use><use xlink:href="#8" y="15.197"></use><use xlink:href="#9" y="17.368"></use><use xlink:href="#10" y="19.539"></use><use xlink:href="#11" y="21.71"></use><use xlink:href="#12" y="23.880999999999997"></use><use xlink:href="#13" y="26.052"></use></svg><svg x="2160"><use xlink:href="#a"></use><use xlink:href="#1" y="0"></use><use xlink:href="#2" y="2.171"></use><use xlink:href="#3" y="4.342"></use><use xlink:href="#4" y="6.513"></use><use xlink:href="#5" y="8.684"></use><use xlink:href="#6" y="10.855"></use><use xlink:href="#7" y="13.026"></use><use xlink:href="#8" y="15.197"></use><use xlink:href="#9" y="17.368"></use><use xlink:href="#10" y="19.539"></use><use xlink:href="#11" y="21.71"></use><use xlink:href="#12" y="23.880999999999997"></use><use xlink:href="#13" y="26.052"></use><use xlink:href="#14" y="28.223000000000003"></use></svg><svg x="2240"><use xlink:href="#a"></use><use xlink:href="#1" y="0"></use><use xlink:href="#2" y="2.171"></use><use xlink:href="#3" y="4.342"></use><use xlink:href="#4" y="6.513"></use><use xlink:href="#5" y="8.684"></use><use xlink:href="#6" y="10.855"></use><use xlink:href="#7" y="13.026"></use><use xlink:href="#8" y="15.197"></use><use xlink:href="#9" y="17.368"></use><use xlink:href="#10" y="19.539"></use><use xlink:href="#11" y="21.71"></use><use xlink:href="#12" y="23.880999999999997"></use><use xlink:href="#13" y="26.052"></use><use xlink:href="#14" y="28.223000000000003"></use></svg><svg x="2320"><use xlink:href="#a"></use><use xlink:href="#1" y="0"></use><use xlink:href="#2" y="2.171"></use><use xlink:href="#3" y="4.342"></use><use xlink:href="#4" y="6.513"></use><use xlink:href="#5" y="8.684"></use><use xlink:href="#6" y="10.855"></use><use xlink:href="#7" y="13.026"></use><use xlink:href="#8" y="15.197"></use><use xlink:href="#9" y="17.368"></use><use xlink:href="#10" y="19.539"></use><use xlink:href="#11" y="21.71"></use><use xlink:href="#12" y="23.880999999999997"></use><use xlink:href="#13" y="26.052"></use><use xlink:href="#14" y="28.223000000000003"></use><use xlink:href="#15" y="30.394"></use></svg><svg x="2400"><use xlink:href="#a"></use><use xlink:href="#1" y="0"></use><use xlink:href="#2" y="2.171"></use><use xlink:href="#3" y="4.342"></use><use xlink:href="#4" y="6.513"></use><use xlink:href="#5" y="8.684"></use><use xlink:href="#6" y="10.855"></use><use xlink:href="#7" y="13.026"></use><use xlink:href="#8" y="15.197"></use><use xlink:href="#9" y="17.368"></use><use xlink:href="#10" y="19.539"></use><use xlink:href="#11" y="21.71"></use><use xlink:href="#12" y="23.880999999999997"></use><use xlink:href="#13" y="26.052"></use><use xlink:href="#14" y="28.223000000000003"></use><use xlink:href="#15" y="30.394"></use></svg><svg x="2480"><use xlink:href="#a"></use><use xlink:href="#1" y="0"></use><use xlink:href="#2" y="2.171"></use><use xlink:href="#3" y="4.342"></use><use xlink:href="#4" y="6.513"></use><use xlink:href="#5" y="8.684"></use><use xlink:href="#6" y="10.855"></use><use xlink:href="#7" y="13.026"></use><use xlink:href="#8" y="15.197"></use><use xlink:href="#9" y="17.368"></use><use xlink:href="#10" y="19.539"></use><use xlink:href="#11" y="21.71"></use><use xlink:href="#12" y="23.880999999999997"></use><use xlink:href="#13" y="26.052"></use><use xlink:href="#14" y="28.223000000000003"></use><use xlink:href="#15" y="30.394"></use><use xlink:href="#16" y="32.565"></use></svg><svg x="2560"><use xlink:href="#a"></use><use xlink:href="#1" y="0"></use><use xlink:href="#2" y="2.171"></use><use xlink:href="#3" y="4.342"></use><use xlink:href="#4" y="6.513"></use><use xlink:href="#5" y="8.684"></use><use xlink:href="#6" y="10.855"></use><use xlink:href="#7" y="13.026"></use><use xlink:href="#8" y="15.197"></use><use xlink:href="#9" y="17.368"></use><use xlink:href="#10" y="19.539"></use><use xlink:href="#11" y="21.71"></use><use xlink:href="#12" y="23.880999999999997"></use><use xlink:href="#13" y="26.052"></use><use xlink:href="#14" y="28.223000000000003"></use><use xlink:href="#15" y="30.394"></use><use xlink:href="#16" y="32.565"></use></svg><svg x="2640"><use xlink:href="#a"></use><use xlink:href="#1" y="0"></use><use xlink:href="#2" y="2.171"></use><use xlink:href="#3" y="4.342"></use><use xlink:href="#4" y="6.513"></use><use xlink:href="#5" y="8.684"></use><use xlink:href="#6" y="10.855"></use><use xlink:href="#7" y="13.026"></use><use xlink:href="#8" y="15.197"></use><use xlink:href="#9" y="17.368"></use><use xlink:href="#10" y="19.539"></use><use xlink:href="#11" y="21.71"></use><use xlink:href="#12" y="23.880999999999997"></use><use xlink:href="#13" y="26.052"></use><use xlink:href="#14" y="28.223000000000003"></use><use xlink:href="#15" y="30.394"></use><use xlink:href="#16" y="32.565"></use><use xlink:href="#17" y="34.736"></use></svg><svg x="2720"><use xlink:href="#a"></use><use xlink:href="#1" y="0"></use><use xlink:href="#2" y="2.171"></use><use xlink:href="#3" y="4.342"></use><use xlink:href="#4" y="6.513"></use><use xlink:href="#5" y="8.684"></use><use xlink:href="#6" y="10.855"></use><use xlink:href="#7" y="13.026"></use><use xlink:href="#8" y="15.197"></use><use xlink:href="#9" y="17.368"></use><use xlink:href="#10" y="19.539"></use><use xlink:href="#11" y="21.71"></use><use xlink:href="#12" y="23.880999999999997"></use><use xlink:href="#13" y="26.052"></use><use xlink:href="#14" y="28.223000000000003"></use><use xlink:href="#15" y="30.394"></use><use xlink:href="#16" y="32.565"></use><use xlink:href="#17" y="34.736"></use></svg><svg x="2800"><use xlink:href="#a"></use><use xlink:href="#1" y="0"></use><use xlink:href="#2" y="2.171"></use><use xlink:href="#3" y="4.342"></use><use xlink:href="#4" y="6.513"></use><use xlink:href="#5" y="8.684"></use><use xlink:href="#6" y="10.855"></use><use xlink:href="#7" y="13.026"></use><use xlink:href="#8" y="15.197"></use><use xlink:href="#9" y="17.368"></use><use xlink:href="#10" y="19.539"></use><use xlink:href="#11" y="21.71"></use><use xlink:href="#12" y="23.880999999999997"></use><use xlink:href="#13" y="26.052"></use><use xlink:href="#14" y="28.223000000000003"></use><use xlink:href="#15" y="30.394"></use><use xlink:href="#16" y="32.565"></use><use xlink:href="#17" y="34.736"></use><use xlink:href="#18" y="36.907000000000004"></use></svg><svg x="2880"><use xlink:href="#a"></use><use xlink:href="#1" y="0"></use><use xlink:href="#2" y="2.171"></use><use xlink:href="#3" y="4.342"></use><use xlink:href="#4" y="6.513"></use><use xlink:href="#5" y="8.684"></use><use xlink:href="#6" y="10.855"></use><use xlink:href="#7" y="13.026"></use><use xlink:href="#8" y="15.197"></use><use xlink:href="#9" y="17.368"></use><use xlink:href="#10" y="19.539"></use><use xlink:href="#11" y="21.71"></use><use xlink:href="#12" y="23.880999999999997"></use><use xlink:href="#13" y="26.052"></use><use xlink:href="#14" y="28.223000000000003"></use><use xlink:href="#15" y="30.394"></use><use xlink:href="#16" y="32.565"></use><use xlink:href="#17" y="34.736"></use><use xlink:href="#18" y="36.907000000000004"></use></svg><svg x="2960"><use xlink:href="#a"></use><use xlink:href="#1" y="0"></use><use xlink:href="#2" y="2.171"></use><use xlink:href="#3" y="4.342"></use><use xlink:href="#4" y="6.513"></use><use xlink:href="#5" y="8.684"></use><use xlink:href="#6" y="10.855"></use><use xlink:href="#7" y="13.026"></use><use xlink:href="#8" y="15.197"></use><use xlink:href="#9" y="17.368"></use><use xlink:href="#10" y="19.539"></use><use xlink:href="#11" y="21.71"></use><use xlink:href="#12" y="23.880999999999997"></use><use xlink:href="#13" y="26.052"></use><use xlink:href="#14" y="28.223000000000003"></use><use xlink:href="#15" y="30.394"></use><use xlink:href="#16" y="32.565"></use><use xlink:href="#17" y="34.736"></use><use xlink:href="#18" y="36.907000000000004"></use><use xlink:href="#19" y="39.078"></use></svg><svg x="3040"><use xlink:href="#a"></use><use xlink:href="#1" y="0"></use><use xlink:href="#2" y="2.171"></use><use xlink:href="#3" y="4.342"></use><use xlink:href="#4" y="6.513"></use><use xlink:href="#5" y="8.684"></use><use xlink:href="#6" y="10.855"></use><use xlink:href="#7" y="13.026"></use><use xlink:href="#8" y="15.197"></use><use xlink:href="#9" y="17.368"></use><use xlink:href="#10" y="19.539"></use><use xlink:href="#11" y="21.71"></use><use xlink:href="#12" y="23.880999999999997"></use><use xlink:href="#13" y="26.052"></use><use xlink:href="#14" y="28.223000000000003"></use><use xlink:href="#15" y="30.394"></use><use xlink:href="#16" y="32.565"></use><use xlink:href="#17" y="34.736"></use><use xlink:href="#18" y="36.907000000000004"></use><use xlink:href="#19" y="39.078"></use></svg><svg x="3120"><use xlink:href="#a"></use><use xlink:href="#1" y="0"></use><use xlink:href="#2" y="2.171"></use><use xlink:href="#3" y="4.342"></use><use xlink:href="#4" y="6.513"></use><use xlink:href="#5" y="8.684"></use><use xlink:href="#6" y="10.855"></use><use xlink:href="#7" y="13.026"></use><use xlink:href="#8" y="15.197"></use><use xlink:href="#9" y="17.368"></use><use xlink:href="#10" y="19.539"></use><use xlink:href="#11" y="21.71"></use><use xlink:href="#12" y="23.880999999999997"></use><use xlink:href="#13" y="26.052"></use><use xlink:href="#14" y="28.223000000000003"></use><use xlink:href="#15" y="30.394"></use><use xlink:href="#16" y="32.565"></use><use xlink:href="#17" y="34.736"></use><use xlink:href="#18" y="36.907000000000004"></use><use xlink:href="#19" y="39.078"></use><text x="0" y="42.919" class="i">|</text></svg><svg x="3200"><use xlink:href="#a"></use><use xlink:href="#1" y="0"></use><use xlink:href="#2" y="2.171"></use><use xlink:href="#3" y="4.342"></use><use xlink:href="#4" y="6.513"></use><use xlink:href="#5" y="8.684"></use><use xlink:href="#6" y="10.855"></use><use xlink:href="#7" y="13.026"></use><use xlink:href="#8" y="15.197"></use><use xlink:href="#9" y="17.368"></use><use xlink:href="#10" y="19.539"></use><use xlink:href="#11" y="21.71"></use><use xlink:href="#12" y="23.880999999999997"></use><use xlink:href="#13" y="26.052"></use><use xlink:href="#14" y="28.223000000000003"></use><use xlink:href="#15" y="30.394"></use><use xlink:href="#16" y="32.565"></use><use xlink:href="#17" y="34.736"></use><use xlink:href="#18" y="36.907000000000004"></use><use xlink:href="#19" y="39.078"></use><use xlink:href="#20" y="41.248999999999995"></use></svg><svg x="3280"><use xlink:href="#a"></use><use xlink:href="#1" y="0"></use><use xlink:href="#2" y="2.171"></use><use xlink:href="#3" y="4.342"></use><use xlink:href="#4" y="6.513"></use><use xlink:href="#5" y="8.684"></use><use xlink:href="#6" y="10.855"></use><use xlink:href="#7" y="13.026"></use><use xlink:href="#8" y="15.197"></use><use xlink:href="#9" y="17.368"></use><use xlink:href="#10" y="19.539"></use><use xlink:href="#11" y="21.71"></use><use xlink:href="#12" y="23.880999999999997"></use><use xlink:href="#13" y="26.052"></use><use xlink:href="#14" y="28.223000000000003"></use><use xlink:href="#15" y="30.394"></use><use xlink:href="#16" y="32.565"></use><use xlink:href="#17" y="34.736"></use><use xlink:href="#18" y="36.907000000000004"></use><use xlink:href="#19" y="39.078"></use><use xlink:href="#20" y="41.248999999999995"></use></svg><svg x="3360"><use xlink:href="#a"></use><use xlink:href="#1" y="0"></use><use xlink:href="#2" y="2.171"></use><use xlink:href="#3" y="4.342"></use><use xlink:href="#4" y="6.513"></use><use xlink:href="#5" y="8.684"></use><use xlink:href="#6" y="10.855"></use><use xlink:href="#7" y="13.026"></use><use xlink:href="#8" y="15.197"></use><use xlink:href="#9" y="17.368"></use><use xlink:href="#10" y="19.539"></use><use xlink:href="#11" y="21.71"></use><use xlink:href="#12" y="23.880999999999997"></use><use xlink:href="#13" y="26.052"></use><use xlink:href="#14" y="28.223000000000003"></use><use xlink:href="#15" y="30.394"></use><use xlink:href="#16" y="32.565"></use><use xlink:href="#17" y="34.736"></use><use xlink:href="#18" y="36.907000000000004"></use><use xlink:href="#19" y="39.078"></use><use xlink:href="#20" y="41.248999999999995"></use><use xlink:href="#21" y="43.42"></use></svg><svg x="3440"><use xlink:href="#a"></use><use xlink:href="#1" y="0"></use><use xlink:href="#2" y="2.171"></use><use xlink:href="#3" y="4.342"></use><use xlink:href="#4" y="6.513"></use><use xlink:href="#5" y="8.684"></use><use xlink:href="#6" y="10.855"></use><use xlink:href="#7" y="13.026"></use><use xlink:href="#8" y="15.197"></use><use xlink:href="#9" y="17.368"></use><use xlink:href="#10" y="19.539"></use><use xlink:href="#11" y="21.71"></use><use xlink:href="#12" y="23.880999999999997"></use><use xlink:href="#13" y="26.052"></use><use xlink:href="#14" y="28.223000000000003"></use><use xlink:href="#15" y="30.394"></use><use xlink:href="#16" y="32.565"></use><use xlink:href="#17" y="34.736"></use><use xlink:href="#18" y="36.907000000000004"></use><use xlink:href="#19" y="39.078"></use><use xlink:href="#20" y="41.248999999999995"></use><use xlink:href="#21" y="43.42"></use></svg><svg x="3520"><use xlink:href="#a"></use><use xlink:href="#1" y="0"></use><use xlink:href="#2" y="2.171"></use><use xlink:href="#3" y="4.342"></use><use xlink:href="#4" y="6.513"></use><use xlink:href="#5" y="8.684"></use><use xlink:href="#6" y="10.855"></use><use xlink:href="#7" y="13.026"></use><use xlink:href="#8" y="15.197"></use><use xlink:href="#9" y="17.368"></use><use xlink:href="#10" y="19.539"></use><use xlink:href="#11" y="21.71"></use><use xlink:href="#12" y="23.880999999999997"></use><use xlink:href="#13" y="26.052"></use><use xlink:href="#14" y="28.223000000000003"></use><use xlink:href="#15" y="30.394"></use><use xlink:href="#16" y="32.565"></use><use xlink:href="#17" y="34.736"></use><use xlink:href="#18" y="36.907000000000004"></use><use xlink:href="#19" y="39.078"></use><use xlink:href="#20" y="41.248999999999995"></use><use xlink:href="#21" y="43.42"></use><text x="0" y="49.431999999999995" class="i">Restarting</text><text x="11.021999999999998" y="49.431999999999995" class="i">animation...</text></svg></svg></g></g></svg></svg>