<svg xmlns="http://www.w3.org/2000/svg" xmlns:xlink="http://www.w3.org/1999/xlink" width="840" height="581.04"><rect width="840" height="581.04" rx="5" ry="5" class="a"></rect><svg y="0%" x="0%"><circle cx="20" cy="20" r="6" class="b"></circle><circle cx="40" cy="20" r="6" class="c"></circle><circle cx="60" cy="20" r="6" class="d"></circle></svg><svg height="521.04" viewBox="0 0 80 52.104" width="800" x="15" xmlns="http://www.w3.org/2000/svg" xmlns:xlink="http://www.w3.org/1999/xlink" y="50"><style>.a{fill:rgb(35,35,35)}.b{fill:#ff5f58}.c{fill:#ffbd2e}.d{fill:#18c132}.e{font-family:Monaco,Consolas,Menlo,'Bitstream Vera Sans Mono','Powerline Symbols',monospace}.f{fill:rgb(168,204,140)}.g{white-space:pre}.h{fill:rgb(124,255,0);white-space:pre}.i{fill:rgb(126,231,233);white-space:pre}.j{fill:rgb(104,104,104);white-space:pre}.k{fill:rgb(255,255,255);white-space:pre}.l{fill:rgb(0,255,0);white-space:pre}.m{fill:rgb(160,160,160);white-space:pre}.n{fill:transparent}.p{animation-duration:18.048536s;animation-iteration-count:infinite;animation-name:o;animation-timing-function:steps(1,end)}.q{fill:rgb(255,0,0);white-space:pre}.r{fill:rgb(233,21,0);white-space:pre}.s{fill:rgb(212,42,0);white-space:pre}.t{fill:rgb(191,63,0);white-space:pre}.u{fill:rgb(170,85,0);white-space:pre}.v{fill:rgb(148,106,0);white-space:pre}.w{fill:rgb(127,127,0);white-space:pre}.x{fill:rgb(106,148,0);white-space:pre}.y{fill:rgb(85,170,0);white-space:pre}.z{fill:rgb(63,191,0);white-space:pre}.A{fill:rgb(42,212,0);white-space:pre}.B{fill:rgb(21,233,0);white-space:pre}@keyframes o{0%{transform:translateX(-0px)}49.01%{transform:translateX(-80px)}49.05%{transform:translateX(-160px)}50.95%{transform:translateX(-240px)}50.96%{transform:translateX(-320px)}52.9%{transform:translateX(-400px)}54.83%{transform:translateX(-480px)}54.84%{transform:translateX(-560px)}56.78%{transform:translateX(-640px)}58.72%{transform:translateX(-720px)}60.66%{transform:translateX(-800px)}62.6%{transform:translateX(-880px)}64.54%{transform:translateX(-960px)}66.48%{transform:translateX(-1040px)}68.42%{transform:translateX(-1120px)}70.36%{transform:translateX(-1200px)}72.3%{transform:translateX(-1280px)}100%{transform:translateX(-1360px)}}</style><g font-family="Monaco, Consolas, Menlo, &#x27;Bitstream Vera Sans Mono&#x27;, &#x27;Powerline Symbols&#x27;, monospace" font-size="1.67" class="e"><defs><symbol id="1"><rect height="2.171" width="9" x="0" y="0" class="f"></rect><letters x="0" y="1.67" class="g"> SUCCESS </letters><letters x="10.02" y="1.67" class="h">Downloading</letters><letters x="22.043999999999997" y="1.67" class="h">pseudo-excel</letters></symbol><symbol id="2"><rect height="2.171" width="9" x="0" y="0" class="f"></rect><letters x="0" y="1.67" class="g"> SUCCESS </letters><letters x="10.02" y="1.67" class="h">Downloading</letters><letters x="22.043999999999997" y="1.67" class="h">pseudo-photoshop</letters></symbol><symbol id="3"><rect height="2.171" width="9" x="0" y="0" class="f"></rect><letters x="0" y="1.67" class="g"> SUCCESS </letters><letters x="10.02" y="1.67" class="h">Downloading</letters><letters x="22.043999999999997" y="1.67" class="h">pseudo-chrome</letters></symbol><symbol id="4"><rect height="2.171" width="9" x="0" y="0" class="f"></rect><letters x="0" y="1.67" class="g"> SUCCESS </letters><letters x="10.02" y="1.67" class="h">Downloading</letters><letters x="22.043999999999997" y="1.67" class="h">pseudo-outlook</letters></symbol><symbol id="5"><rect height="2.171" width="9" x="0" y="0" class="f"></rect><letters x="0" y="1.67" class="g"> SUCCESS </letters><letters x="10.02" y="1.67" class="h">Downloading</letters><letters x="22.043999999999997" y="1.67" class="h">pseudo-explorer</letters></symbol><symbol id="6"><rect height="2.171" width="9" x="0" y="0" class="f"></rect><letters x="0" y="1.67" class="g"> SUCCESS </letters><letters x="10.02" y="1.67" class="h">Downloading</letters><letters x="22.043999999999997" y="1.67" class="h">pseudo-dops</letters></symbol><symbol id="7"><rect height="2.171" width="9" x="0" y="0" class="f"></rect><letters x="0" y="1.67" class="g"> SUCCESS </letters><letters x="10.02" y="1.67" class="h">Downloading</letters><letters x="22.043999999999997" y="1.67" class="h">pseudo-git</letters></symbol><symbol id="8"><rect height="2.171" width="9" x="0" y="0" class="f"></rect><letters x="0" y="1.67" class="g"> SUCCESS </letters><letters x="10.02" y="1.67" class="h">Downloading</letters><letters x="22.043999999999997" y="1.67" class="h">pseudo-vsc</letters></symbol><symbol id="9"><rect height="2.171" width="9" x="0" y="0" class="f"></rect><letters x="0" y="1.67" class="g"> SUCCESS </letters><letters x="10.02" y="1.67" class="h">Downloading</letters><letters x="22.043999999999997" y="1.67" class="h">pseudo-intellij</letters></symbol><symbol id="10"><rect height="2.171" width="9" x="0" y="0" class="f"></rect><letters x="0" y="1.67" class="g"> SUCCESS </letters><letters x="10.02" y="1.67" class="h">Downloading</letters><letters x="22.043999999999997" y="1.67" class="h">pseudo-minecraft</letters></symbol><symbol id="11"><rect height="2.171" width="9" x="0" y="0" class="f"></rect><letters x="0" y="1.67" class="g"> SUCCESS </letters><letters x="10.02" y="1.67" class="h">Downloading</letters><letters x="22.043999999999997" y="1.67" class="h">pseudo-scoop</letters></symbol><symbol id="12"><rect height="2.171" width="9" x="0" y="0" class="f"></rect><letters x="0" y="1.67" class="g"> SUCCESS </letters><letters x="10.02" y="1.67" class="h">Downloading</letters><letters x="22.043999999999997" y="1.67" class="h">pseudo-chocolatey</letters></symbol><symbol id="13"><letters x="0" y="1.67" class="i">Downloading</letters><letters x="12.024" y="1.67" class="i">pseudo-chocolatey</letters><letters x="30.059999999999995" y="1.67" class="j">[</letters><letters x="31.061999999999998" y="1.67" class="k">12</letters><letters x="33.065999999999995" y="1.67" class="j">/</letters><letters x="34.068" y="1.67" class="k">12</letters><letters x="36.071999999999996" y="1.67" class="j">]</letters><letters x="38.07599999999999" y="1.67" class="i">████████████████████████████████</letters><letters x="71.142" y="1.67" class="l">100%</letters><letters x="76.15199999999999" y="1.67" class="m">|</letters><letters x="78.15599999999999" y="1.67" class="m">4s</letters></symbol><symbol id="14"><rect height="2.171" width="9" x="0" y="0" class="f"></rect><letters x="0" y="1.67" class="g"> SUCCESS </letters><letters x="10.02" y="1.67" class="h">Finished</letters><letters x="19.037999999999997" y="1.67" class="h">downloading!</letters></symbol><symbol id="a"><rect height="24" width="80" x="0" y="0" class="n"></rect></symbol></defs><rect height="52.104" width="80" class="a"></rect><g class="p"><svg x="0" y="0" width="1440"><svg x="0"><use xlink:href="#a"></use></svg><svg x="80"><use xlink:href="#a"></use><letters x="0" y="1.67" class="i">Downloading</letters><letters x="12.024" y="1.67" class="i">stuff</letters><letters x="18.035999999999998" y="1.67" class="j">[</letters><letters x="19.037999999999997" y="1.67" class="k">0</letters><letters x="20.04" y="1.67" class="j">/</letters><letters x="21.041999999999998" y="1.67" class="k">12</letters><letters x="23.045999999999996" y="1.67" class="j">]</letters><letters x="25.05" y="1.67" class="i">█</letters><letters x="73.146" y="1.67" class="q">0%</letters><letters x="76.15199999999999" y="1.67" class="m">|</letters><letters x="78.15599999999999" y="1.67" class="m">0s</letters></svg><svg x="160"><use xlink:href="#a"></use><use xlink:href="#1" y="0"></use><letters x="0" y="3.8409999999999997" class="i">Downloading</letters><letters x="12.024" y="3.8409999999999997" class="i">pseudo-excel</letters><letters x="25.05" y="3.8409999999999997" class="j">[</letters><letters x="26.052" y="3.8409999999999997" class="k">1</letters><letters x="27.054" y="3.8409999999999997" class="j">/</letters><letters x="28.055999999999997" y="3.8409999999999997" class="k">12</letters><letters x="30.059999999999995" y="3.8409999999999997" class="j">]</letters><letters x="32.064" y="3.8409999999999997" class="i">████</letters><letters x="73.146" y="3.8409999999999997" class="r">8%</letters><letters x="76.15199999999999" y="3.8409999999999997" class="m">|</letters><letters x="78.15599999999999" y="3.8409999999999997" class="m">0s</letters></svg><svg x="240"><use xlink:href="#a"></use><use xlink:href="#1" y="0"></use><use xlink:href="#2" y="2.171"></use></svg><svg x="320"><use xlink:href="#a"></use><use xlink:href="#1" y="0"></use><use xlink:href="#2" y="2.171"></use><letters x="0" y="6.012" class="i">Downloading</letters><letters x="12.024" y="6.012" class="i">pseudo-photoshop</letters><letters x="29.058" y="6.012" class="j">[</letters><letters x="30.059999999999995" y="6.012" class="k">2</letters><letters x="31.061999999999998" y="6.012" class="j">/</letters><letters x="32.064" y="6.012" class="k">12</letters><letters x="34.068" y="6.012" class="j">]</letters><letters x="36.071999999999996" y="6.012" class="i">██████</letters><letters x="72.14399999999999" y="6.012" class="s">17%</letters><letters x="76.15199999999999" y="6.012" class="m">|</letters><letters x="78.15599999999999" y="6.012" class="m">0s</letters></svg><svg x="400"><use xlink:href="#a"></use><use xlink:href="#1" y="0"></use><use xlink:href="#2" y="2.171"></use><use xlink:href="#3" y="4.342"></use><letters x="0" y="8.183" class="i">Downloading</letters><letters x="12.024" y="8.183" class="i">pseudo-chrome</letters><letters x="26.052" y="8.183" class="j">[</letters><letters x="27.054" y="8.183" class="k">3</letters><letters x="28.055999999999997" y="8.183" class="j">/</letters><letters x="29.058" y="8.183" class="k">12</letters><letters x="31.061999999999998" y="8.183" class="j">]</letters><letters x="33.065999999999995" y="8.183" class="i">██████████</letters><letters x="72.14399999999999" y="8.183" class="t">25%</letters><letters x="76.15199999999999" y="8.183" class="m">|</letters><letters x="78.15599999999999" y="8.183" class="m">1s</letters></svg><svg x="480"><use xlink:href="#a"></use><use xlink:href="#1" y="0"></use><use xlink:href="#2" y="2.171"></use><use xlink:href="#3" y="4.342"></use><use xlink:href="#4" y="6.513"></use></svg><svg x="560"><use xlink:href="#a"></use><use xlink:href="#1" y="0"></use><use xlink:href="#2" y="2.171"></use><use xlink:href="#3" y="4.342"></use><use xlink:href="#4" y="6.513"></use><letters x="0" y="10.354" class="i">Downloading</letters><letters x="12.024" y="10.354" class="i">pseudo-outlook</letters><letters x="27.054" y="10.354" class="j">[</letters><letters x="28.055999999999997" y="10.354" class="k">4</letters><letters x="29.058" y="10.354" class="j">/</letters><letters x="30.059999999999995" y="10.354" class="k">12</letters><letters x="32.064" y="10.354" class="j">]</letters><letters x="34.068" y="10.354" class="i">█████████████</letters><letters x="72.14399999999999" y="10.354" class="u">33%</letters><letters x="76.15199999999999" y="10.354" class="m">|</letters><letters x="78.15599999999999" y="10.354" class="m">1s</letters></svg><svg x="640"><use xlink:href="#a"></use><use xlink:href="#1" y="0"></use><use xlink:href="#2" y="2.171"></use><use xlink:href="#3" y="4.342"></use><use xlink:href="#4" y="6.513"></use><use xlink:href="#5" y="8.684"></use><letters x="0" y="12.525" class="i">Downloading</letters><letters x="12.024" y="12.525" class="i">pseudo-explorer</letters><letters x="28.055999999999997" y="12.525" class="j">[</letters><letters x="29.058" y="12.525" class="k">5</letters><letters x="30.059999999999995" y="12.525" class="j">/</letters><letters x="31.061999999999998" y="12.525" class="k">12</letters><letters x="33.065999999999995" y="12.525" class="j">]</letters><letters x="35.06999999999999" y="12.525" class="i">███████████████</letters><letters x="72.14399999999999" y="12.525" class="v">42%</letters><letters x="76.15199999999999" y="12.525" class="m">|</letters><letters x="78.15599999999999" y="12.525" class="m">1s</letters></svg><svg x="720"><use xlink:href="#a"></use><use xlink:href="#1" y="0"></use><use xlink:href="#2" y="2.171"></use><use xlink:href="#3" y="4.342"></use><use xlink:href="#4" y="6.513"></use><use xlink:href="#5" y="8.684"></use><use xlink:href="#6" y="10.855"></use><letters x="0" y="14.696" class="i">Downloading</letters><letters x="12.024" y="14.696" class="i">pseudo-dops</letters><letters x="24.048" y="14.696" class="j">[</letters><letters x="25.05" y="14.696" class="k">6</letters><letters x="26.052" y="14.696" class="j">/</letters><letters x="27.054" y="14.696" class="k">12</letters><letters x="29.058" y="14.696" class="j">]</letters><letters x="31.061999999999998" y="14.696" class="i">████████████████████</letters><letters x="72.14399999999999" y="14.696" class="w">50%</letters><letters x="76.15199999999999" y="14.696" class="m">|</letters><letters x="78.15599999999999" y="14.696" class="m">2s</letters></svg><svg x="800"><use xlink:href="#a"></use><use xlink:href="#1" y="0"></use><use xlink:href="#2" y="2.171"></use><use xlink:href="#3" y="4.342"></use><use xlink:href="#4" y="6.513"></use><use xlink:href="#5" y="8.684"></use><use xlink:href="#6" y="10.855"></use><use xlink:href="#7" y="13.026"></use><letters x="0" y="16.866999999999997" class="i">Downloading</letters><letters x="12.024" y="16.866999999999997" class="i">pseudo-git</letters><letters x="23.045999999999996" y="16.866999999999997" class="j">[</letters><letters x="24.048" y="16.866999999999997" class="k">7</letters><letters x="25.05" y="16.866999999999997" class="j">/</letters><letters x="26.052" y="16.866999999999997" class="k">12</letters><letters x="28.055999999999997" y="16.866999999999997" class="j">]</letters><letters x="30.059999999999995" y="16.866999999999997" class="i">████████████████████████</letters><letters x="72.14399999999999" y="16.866999999999997" class="x">58%</letters><letters x="76.15199999999999" y="16.866999999999997" class="m">|</letters><letters x="78.15599999999999" y="16.866999999999997" class="m">2s</letters></svg><svg x="880"><use xlink:href="#a"></use><use xlink:href="#1" y="0"></use><use xlink:href="#2" y="2.171"></use><use xlink:href="#3" y="4.342"></use><use xlink:href="#4" y="6.513"></use><use xlink:href="#5" y="8.684"></use><use xlink:href="#6" y="10.855"></use><use xlink:href="#7" y="13.026"></use><use xlink:href="#8" y="15.197"></use><letters x="0" y="19.037999999999997" class="i">Downloading</letters><letters x="12.024" y="19.037999999999997" class="i">pseudo-vsc</letters><letters x="23.045999999999996" y="19.037999999999997" class="j">[</letters><letters x="24.048" y="19.037999999999997" class="k">8</letters><letters x="25.05" y="19.037999999999997" class="j">/</letters><letters x="26.052" y="19.037999999999997" class="k">12</letters><letters x="28.055999999999997" y="19.037999999999997" class="j">]</letters><letters x="30.059999999999995" y="19.037999999999997" class="i">███████████████████████████</letters><letters x="72.14399999999999" y="19.037999999999997" class="y">67%</letters><letters x="76.15199999999999" y="19.037999999999997" class="m">|</letters><letters x="78.15599999999999" y="19.037999999999997" class="m">2s</letters></svg><svg x="960"><use xlink:href="#a"></use><use xlink:href="#1" y="0"></use><use xlink:href="#2" y="2.171"></use><use xlink:href="#3" y="4.342"></use><use xlink:href="#4" y="6.513"></use><use xlink:href="#5" y="8.684"></use><use xlink:href="#6" y="10.855"></use><use xlink:href="#7" y="13.026"></use><use xlink:href="#8" y="15.197"></use><use xlink:href="#9" y="17.368"></use><letters x="0" y="21.209000000000003" class="i">Downloading</letters><letters x="12.024" y="21.209000000000003" class="i">pseudo-intellij</letters><letters x="28.055999999999997" y="21.209000000000003" class="j">[</letters><letters x="29.058" y="21.209000000000003" class="k">9</letters><letters x="30.059999999999995" y="21.209000000000003" class="j">/</letters><letters x="31.061999999999998" y="21.209000000000003" class="k">12</letters><letters x="33.065999999999995" y="21.209000000000003" class="j">]</letters><letters x="35.06999999999999" y="21.209000000000003" class="i">███████████████████████████</letters><letters x="72.14399999999999" y="21.209000000000003" class="z">75%</letters><letters x="76.15199999999999" y="21.209000000000003" class="m">|</letters><letters x="78.15599999999999" y="21.209000000000003" class="m">3s</letters></svg><svg x="1040"><use xlink:href="#a"></use><use xlink:href="#1" y="0"></use><use xlink:href="#2" y="2.171"></use><use xlink:href="#3" y="4.342"></use><use xlink:href="#4" y="6.513"></use><use xlink:href="#5" y="8.684"></use><use xlink:href="#6" y="10.855"></use><use xlink:href="#7" y="13.026"></use><use xlink:href="#8" y="15.197"></use><use xlink:href="#9" y="17.368"></use><use xlink:href="#10" y="19.539"></use><letters x="0" y="23.380000000000003" class="i">Downloading</letters><letters x="12.024" y="23.380000000000003" class="i">pseudo-minecraft</letters><letters x="29.058" y="23.380000000000003" class="j">[</letters><letters x="30.059999999999995" y="23.380000000000003" class="k">10</letters><letters x="32.064" y="23.380000000000003" class="j">/</letters><letters x="33.065999999999995" y="23.380000000000003" class="k">12</letters><letters x="35.06999999999999" y="23.380000000000003" class="j">]</letters><letters x="37.074" y="23.380000000000003" class="i">████████████████████████████</letters><letters x="72.14399999999999" y="23.380000000000003" class="A">83%</letters><letters x="76.15199999999999" y="23.380000000000003" class="m">|</letters><letters x="78.15599999999999" y="23.380000000000003" class="m">3s</letters></svg><svg x="1120"><use xlink:href="#a"></use><use xlink:href="#1" y="0"></use><use xlink:href="#2" y="2.171"></use><use xlink:href="#3" y="4.342"></use><use xlink:href="#4" y="6.513"></use><use xlink:href="#5" y="8.684"></use><use xlink:href="#6" y="10.855"></use><use xlink:href="#7" y="13.026"></use><use xlink:href="#8" y="15.197"></use><use xlink:href="#9" y="17.368"></use><use xlink:href="#10" y="19.539"></use><use xlink:href="#11" y="21.71"></use><letters x="0" y="25.550999999999995" class="i">Downloading</letters><letters x="12.024" y="25.550999999999995" class="i">pseudo-scoop</letters><letters x="25.05" y="25.550999999999995" class="j">[</letters><letters x="26.052" y="25.550999999999995" class="k">11</letters><letters x="28.055999999999997" y="25.550999999999995" class="j">/</letters><letters x="29.058" y="25.550999999999995" class="k">12</letters><letters x="31.061999999999998" y="25.550999999999995" class="j">]</letters><letters x="33.065999999999995" y="25.550999999999995" class="i">██████████████████████████████████</letters><letters x="72.14399999999999" y="25.550999999999995" class="B">92%</letters><letters x="76.15199999999999" y="25.550999999999995" class="m">|</letters><letters x="78.15599999999999" y="25.550999999999995" class="m">4s</letters></svg><svg x="1200"><use xlink:href="#a"></use><use xlink:href="#1" y="0"></use><use xlink:href="#2" y="2.171"></use><use xlink:href="#3" y="4.342"></use><use xlink:href="#4" y="6.513"></use><use xlink:href="#5" y="8.684"></use><use xlink:href="#6" y="10.855"></use><use xlink:href="#7" y="13.026"></use><use xlink:href="#8" y="15.197"></use><use xlink:href="#9" y="17.368"></use><use xlink:href="#10" y="19.539"></use><use xlink:href="#11" y="21.71"></use><use xlink:href="#12" y="23.880999999999997"></use><use xlink:href="#13" y="26.052"></use></svg><svg x="1280"><use xlink:href="#a"></use><use xlink:href="#1" y="0"></use><use xlink:href="#2" y="2.171"></use><use xlink:href="#3" y="4.342"></use><use xlink:href="#4" y="6.513"></use><use xlink:href="#5" y="8.684"></use><use xlink:href="#6" y="10.855"></use><use xlink:href="#7" y="13.026"></use><use xlink:href="#8" y="15.197"></use><use xlink:href="#9" y="17.368"></use><use xlink:href="#10" y="19.539"></use><use xlink:href="#11" y="21.71"></use><use xlink:href="#12" y="23.880999999999997"></use><use xlink:href="#13" y="26.052"></use><use xlink:href="#14" y="28.223000000000003"></use></svg><svg x="1360"><use xlink:href="#a"></use><use xlink:href="#1" y="0"></use><use xlink:href="#2" y="2.171"></use><use xlink:href="#3" y="4.342"></use><use xlink:href="#4" y="6.513"></use><use xlink:href="#5" y="8.684"></use><use xlink:href="#6" y="10.855"></use><use xlink:href="#7" y="13.026"></use><use xlink:href="#8" y="15.197"></use><use xlink:href="#9" y="17.368"></use><use xlink:href="#10" y="19.539"></use><use xlink:href="#11" y="21.71"></use><use xlink:href="#12" y="23.880999999999997"></use><use xlink:href="#13" y="26.052"></use><use xlink:href="#14" y="28.223000000000003"></use><letters x="0" y="34.235" class="m">restarting...</letters></svg></svg></g></g></svg></svg>