<svg xmlns="http://www.w3.org/2000/svg" xmlns:xlink="http://www.w3.org/1999/xlink" width="840" height="581.04"><rect width="840" height="581.04" rx="5" ry="5" class="a"></rect><svg y="0%" x="0%"><circle cx="20" cy="20" r="6" class="b"></circle><circle cx="40" cy="20" r="6" class="c"></circle><circle cx="60" cy="20" r="6" class="d"></circle></svg><svg height="521.04" viewBox="0 0 80 52.104" width="800" x="15" xmlns="http://www.w3.org/2000/svg" xmlns:xlink="http://www.w3.org/1999/xlink" y="50"><style>.a{fill:rgb(35,35,35)}.b{fill:#ff5f58}.c{fill:#ffbd2e}.d{fill:#18c132}.e{font-family:Monaco,Consolas,Menlo,'Bitstream Vera Sans Mono','Powerline Symbols',monospace}.f{fill:rgb(168,204,140)}.g{white-space:pre}.h{fill:rgb(124,255,0);white-space:pre}.i{fill:rgb(126,231,233);white-space:pre}.j{fill:rgb(104,104,104);white-space:pre}.k{fill:rgb(255,255,255);white-space:pre}.l{fill:rgb(0,255,0);white-space:pre}.m{fill:rgb(160,160,160);white-space:pre}.n{fill:transparent}.p{animation-duration:9.505085s;animation-iteration-count:infinite;animation-name:o;animation-timing-function:steps(1,end)}.q{fill:rgb(233,21,0);white-space:pre}.r{fill:rgb(212,42,0);white-space:pre}.s{fill:rgb(191,63,0);white-space:pre}.t{fill:rgb(170,85,0);white-space:pre}.u{fill:rgb(148,106,0);white-space:pre}.v{fill:rgb(127,127,0);white-space:pre}.w{fill:rgb(106,148,0);white-space:pre}.x{fill:rgb(85,170,0);white-space:pre}.y{fill:rgb(63,191,0);white-space:pre}.z{fill:rgb(42,212,0);white-space:pre}.A{fill:rgb(21,233,0);white-space:pre}@keyframes o{0%{transform:translateX(-0px)}6.9%{transform:translateX(-80px)}10.5%{transform:translateX(-160px)}14.2%{transform:translateX(-240px)}14.2%{transform:translateX(-320px)}17.9%{transform:translateX(-400px)}21.6%{transform:translateX(-480px)}25.3%{transform:translateX(-560px)}29%{transform:translateX(-640px)}32.7%{transform:translateX(-720px)}36.3%{transform:translateX(-800px)}40%{transform:translateX(-880px)}43.7%{transform:translateX(-960px)}47.4%{transform:translateX(-1040px)}100%{transform:translateX(-1120px)}}</style><g font-family="Monaco, Consolas, Menlo, &#x27;Bitstream Vera Sans Mono&#x27;, &#x27;Powerline Symbols&#x27;, monospace" font-size="1.67" class="e"><defs><symbol id="1"><rect height="2.171" width="9" x="0" y="0" class="f"></rect><text x="0" y="1.67" class="g"> SUCCESS </text><text x="10.02" y="1.67" class="h">Downloading</text><text x="22.043999999999997" y="1.67" class="h">pseudo-excel</text></symbol><symbol id="2"><rect height="2.171" width="9" x="0" y="0" class="f"></rect><text x="0" y="1.67" class="g"> SUCCESS </text><text x="10.02" y="1.67" class="h">Downloading</text><text x="22.043999999999997" y="1.67" class="h">pseudo-photoshop</text></symbol><symbol id="3"><rect height="2.171" width="9" x="0" y="0" class="f"></rect><text x="0" y="1.67" class="g"> SUCCESS </text><text x="10.02" y="1.67" class="h">Downloading</text><text x="22.043999999999997" y="1.67" class="h">pseudo-chrome</text></symbol><symbol id="4"><rect height="2.171" width="9" x="0" y="0" class="f"></rect><text x="0" y="1.67" class="g"> SUCCESS </text><text x="10.02" y="1.67" class="h">Downloading</text><text x="22.043999999999997" y="1.67" class="h">pseudo-outlook</text></symbol><symbol id="5"><rect height="2.171" width="9" x="0" y="0" class="f"></rect><text x="0" y="1.67" class="g"> SUCCESS </text><text x="10.02" y="1.67" class="h">Downloading</text><text x="22.043999999999997" y="1.67" class="h">pseudo-explorer</text></symbol><symbol id="6"><rect height="2.171" width="9" x="0" y="0" class="f"></rect><text x="0" y="1.67" class="g"> SUCCESS </text><text x="10.02" y="1.67" class="h">Downloading</text><text x="22.043999999999997" y="1.67" class="h">pseudo-dops</text></symbol><symbol id="7"><rect height="2.171" width="9" x="0" y="0" class="f"></rect><text x="0" y="1.67" class="g"> SUCCESS </text><text x="10.02" y="1.67" class="h">Downloading</text><text x="22.043999999999997" y="1.67" class="h">pseudo-git</text></symbol><symbol id="8"><rect height="2.171" width="9" x="0" y="0" class="f"></rect><text x="0" y="1.67" class="g"> SUCCESS </text><text x="10.02" y="1.67" class="h">Downloading</text><text x="22.043999999999997" y="1.67" class="h">pseudo-vsc</text></symbol><symbol id="9"><rect height="2.171" width="9" x="0" y="0" class="f"></rect><text x="0" y="1.67" class="g"> SUCCESS </text><text x="10.02" y="1.67" class="h">Downloading</text><text x="22.043999999999997" y="1.67" class="h">pseudo-intellij</text></symbol><symbol id="10"><rect height="2.171" width="9" x="0" y="0" class="f"></rect><text x="0" y="1.67" class="g"> SUCCESS </text><text x="10.02" y="1.67" class="h">Downloading</text><text x="22.043999999999997" y="1.67" class="h">pseudo-minecraft</text></symbol><symbol id="11"><rect height="2.171" width="9" x="0" y="0" class="f"></rect><text x="0" y="1.67" class="g"> SUCCESS </text><text x="10.02" y="1.67" class="h">Downloading</text><text x="22.043999999999997" y="1.67" class="h">pseudo-scoop</text></symbol><symbol id="12"><rect height="2.171" width="9" x="0" y="0" class="f"></rect><text x="0" y="1.67" class="g"> SUCCESS </text><text x="10.02" y="1.67" class="h">Downloading</text><text x="22.043999999999997" y="1.67" class="h">pseudo-chocolatey</text></symbol><symbol id="13"><text x="0" y="1.67" class="i">Downloading</text><text x="12.024" y="1.67" class="i">pseudo-chocolatey</text><text x="30.059999999999995" y="1.67" class="j">[</text><text x="31.061999999999998" y="1.67" class="k">12</text><text x="33.065999999999995" y="1.67" class="j">/</text><text x="34.068" y="1.67" class="k">12</text><text x="36.071999999999996" y="1.67" class="j">]</text><text x="38.07599999999999" y="1.67" class="i">████████████████████████████████</text><text x="71.142" y="1.67" class="l">100%</text><text x="76.15199999999999" y="1.67" class="m">|</text><text x="78.15599999999999" y="1.67" class="m">4s</text></symbol><symbol id="a"><rect height="24" width="80" x="0" y="0" class="n"></rect></symbol></defs><rect height="52.104" width="80" class="a"></rect><g class="p"><svg x="0" y="0" width="1200"><svg x="0"><use xlink:href="#a"></use></svg><svg x="80"><use xlink:href="#a"></use><use xlink:href="#1" y="0"></use><text x="0" y="3.8409999999999997" class="i">Downloading</text><text x="12.024" y="3.8409999999999997" class="i">pseudo-excel</text><text x="25.05" y="3.8409999999999997" class="j">[</text><text x="26.052" y="3.8409999999999997" class="k">1</text><text x="27.054" y="3.8409999999999997" class="j">/</text><text x="28.055999999999997" y="3.8409999999999997" class="k">12</text><text x="30.059999999999995" y="3.8409999999999997" class="j">]</text><text x="32.064" y="3.8409999999999997" class="i">████</text><text x="73.146" y="3.8409999999999997" class="q">8%</text><text x="76.15199999999999" y="3.8409999999999997" class="m">|</text><text x="78.15599999999999" y="3.8409999999999997" class="m">0s</text></svg><svg x="160"><use xlink:href="#a"></use><use xlink:href="#1" y="0"></use><use xlink:href="#2" y="2.171"></use><text x="0" y="6.012" class="i">Downloading</text><text x="12.024" y="6.012" class="i">pseudo-photoshop</text><text x="29.058" y="6.012" class="j">[</text><text x="30.059999999999995" y="6.012" class="k">2</text><text x="31.061999999999998" y="6.012" class="j">/</text><text x="32.064" y="6.012" class="k">12</text><text x="34.068" y="6.012" class="j">]</text><text x="36.071999999999996" y="6.012" class="i">██████</text><text x="72.14399999999999" y="6.012" class="r">17%</text><text x="76.15199999999999" y="6.012" class="m">|</text><text x="78.15599999999999" y="6.012" class="m">0s</text></svg><svg x="240"><use xlink:href="#a"></use><use xlink:href="#1" y="0"></use><use xlink:href="#2" y="2.171"></use><use xlink:href="#3" y="4.342"></use></svg><svg x="320"><use xlink:href="#a"></use><use xlink:href="#1" y="0"></use><use xlink:href="#2" y="2.171"></use><use xlink:href="#3" y="4.342"></use><text x="0" y="8.183" class="i">Downloading</text><text x="12.024" y="8.183" class="i">pseudo-chrome</text><text x="26.052" y="8.183" class="j">[</text><text x="27.054" y="8.183" class="k">3</text><text x="28.055999999999997" y="8.183" class="j">/</text><text x="29.058" y="8.183" class="k">12</text><text x="31.061999999999998" y="8.183" class="j">]</text><text x="33.065999999999995" y="8.183" class="i">██████████</text><text x="72.14399999999999" y="8.183" class="s">25%</text><text x="76.15199999999999" y="8.183" class="m">|</text><text x="78.15599999999999" y="8.183" class="m">1s</text></svg><svg x="400"><use xlink:href="#a"></use><use xlink:href="#1" y="0"></use><use xlink:href="#2" y="2.171"></use><use xlink:href="#3" y="4.342"></use><use xlink:href="#4" y="6.513"></use><text x="0" y="10.354" class="i">Downloading</text><text x="12.024" y="10.354" class="i">pseudo-outlook</text><text x="27.054" y="10.354" class="j">[</text><text x="28.055999999999997" y="10.354" class="k">4</text><text x="29.058" y="10.354" class="j">/</text><text x="30.059999999999995" y="10.354" class="k">12</text><text x="32.064" y="10.354" class="j">]</text><text x="34.068" y="10.354" class="i">█████████████</text><text x="72.14399999999999" y="10.354" class="t">33%</text><text x="76.15199999999999" y="10.354" class="m">|</text><text x="78.15599999999999" y="10.354" class="m">1s</text></svg><svg x="480"><use xlink:href="#a"></use><use xlink:href="#1" y="0"></use><use xlink:href="#2" y="2.171"></use><use xlink:href="#3" y="4.342"></use><use xlink:href="#4" y="6.513"></use><use xlink:href="#5" y="8.684"></use><text x="0" y="12.525" class="i">Downloading</text><text x="12.024" y="12.525" class="i">pseudo-explorer</text><text x="28.055999999999997" y="12.525" class="j">[</text><text x="29.058" y="12.525" class="k">5</text><text x="30.059999999999995" y="12.525" class="j">/</text><text x="31.061999999999998" y="12.525" class="k">12</text><text x="33.065999999999995" y="12.525" class="j">]</text><text x="35.06999999999999" y="12.525" class="i">███████████████</text><text x="72.14399999999999" y="12.525" class="u">42%</text><text x="76.15199999999999" y="12.525" class="m">|</text><text x="78.15599999999999" y="12.525" class="m">1s</text></svg><svg x="560"><use xlink:href="#a"></use><use xlink:href="#1" y="0"></use><use xlink:href="#2" y="2.171"></use><use xlink:href="#3" y="4.342"></use><use xlink:href="#4" y="6.513"></use><use xlink:href="#5" y="8.684"></use><use xlink:href="#6" y="10.855"></use><text x="0" y="14.696" class="i">Downloading</text><text x="12.024" y="14.696" class="i">pseudo-dops</text><text x="24.048" y="14.696" class="j">[</text><text x="25.05" y="14.696" class="k">6</text><text x="26.052" y="14.696" class="j">/</text><text x="27.054" y="14.696" class="k">12</text><text x="29.058" y="14.696" class="j">]</text><text x="31.061999999999998" y="14.696" class="i">████████████████████</text><text x="72.14399999999999" y="14.696" class="v">50%</text><text x="76.15199999999999" y="14.696" class="m">|</text><text x="78.15599999999999" y="14.696" class="m">2s</text></svg><svg x="640"><use xlink:href="#a"></use><use xlink:href="#1" y="0"></use><use xlink:href="#2" y="2.171"></use><use xlink:href="#3" y="4.342"></use><use xlink:href="#4" y="6.513"></use><use xlink:href="#5" y="8.684"></use><use xlink:href="#6" y="10.855"></use><use xlink:href="#7" y="13.026"></use><text x="0" y="16.866999999999997" class="i">Downloading</text><text x="12.024" y="16.866999999999997" class="i">pseudo-git</text><text x="23.045999999999996" y="16.866999999999997" class="j">[</text><text x="24.048" y="16.866999999999997" class="k">7</text><text x="25.05" y="16.866999999999997" class="j">/</text><text x="26.052" y="16.866999999999997" class="k">12</text><text x="28.055999999999997" y="16.866999999999997" class="j">]</text><text x="30.059999999999995" y="16.866999999999997" class="i">████████████████████████</text><text x="72.14399999999999" y="16.866999999999997" class="w">58%</text><text x="76.15199999999999" y="16.866999999999997" class="m">|</text><text x="78.15599999999999" y="16.866999999999997" class="m">2s</text></svg><svg x="720"><use xlink:href="#a"></use><use xlink:href="#1" y="0"></use><use xlink:href="#2" y="2.171"></use><use xlink:href="#3" y="4.342"></use><use xlink:href="#4" y="6.513"></use><use xlink:href="#5" y="8.684"></use><use xlink:href="#6" y="10.855"></use><use xlink:href="#7" y="13.026"></use><use xlink:href="#8" y="15.197"></use><text x="0" y="19.037999999999997" class="i">Downloading</text><text x="12.024" y="19.037999999999997" class="i">pseudo-vsc</text><text x="23.045999999999996" y="19.037999999999997" class="j">[</text><text x="24.048" y="19.037999999999997" class="k">8</text><text x="25.05" y="19.037999999999997" class="j">/</text><text x="26.052" y="19.037999999999997" class="k">12</text><text x="28.055999999999997" y="19.037999999999997" class="j">]</text><text x="30.059999999999995" y="19.037999999999997" class="i">███████████████████████████</text><text x="72.14399999999999" y="19.037999999999997" class="x">67%</text><text x="76.15199999999999" y="19.037999999999997" class="m">|</text><text x="78.15599999999999" y="19.037999999999997" class="m">2s</text></svg><svg x="800"><use xlink:href="#a"></use><use xlink:href="#1" y="0"></use><use xlink:href="#2" y="2.171"></use><use xlink:href="#3" y="4.342"></use><use xlink:href="#4" y="6.513"></use><use xlink:href="#5" y="8.684"></use><use xlink:href="#6" y="10.855"></use><use xlink:href="#7" y="13.026"></use><use xlink:href="#8" y="15.197"></use><use xlink:href="#9" y="17.368"></use><text x="0" y="21.209000000000003" class="i">Downloading</text><text x="12.024" y="21.209000000000003" class="i">pseudo-intellij</text><text x="28.055999999999997" y="21.209000000000003" class="j">[</text><text x="29.058" y="21.209000000000003" class="k">9</text><text x="30.059999999999995" y="21.209000000000003" class="j">/</text><text x="31.061999999999998" y="21.209000000000003" class="k">12</text><text x="33.065999999999995" y="21.209000000000003" class="j">]</text><text x="35.06999999999999" y="21.209000000000003" class="i">███████████████████████████</text><text x="72.14399999999999" y="21.209000000000003" class="y">75%</text><text x="76.15199999999999" y="21.209000000000003" class="m">|</text><text x="78.15599999999999" y="21.209000000000003" class="m">3s</text></svg><svg x="880"><use xlink:href="#a"></use><use xlink:href="#1" y="0"></use><use xlink:href="#2" y="2.171"></use><use xlink:href="#3" y="4.342"></use><use xlink:href="#4" y="6.513"></use><use xlink:href="#5" y="8.684"></use><use xlink:href="#6" y="10.855"></use><use xlink:href="#7" y="13.026"></use><use xlink:href="#8" y="15.197"></use><use xlink:href="#9" y="17.368"></use><use xlink:href="#10" y="19.539"></use><text x="0" y="23.380000000000003" class="i">Downloading</text><text x="12.024" y="23.380000000000003" class="i">pseudo-minecraft</text><text x="29.058" y="23.380000000000003" class="j">[</text><text x="30.059999999999995" y="23.380000000000003" class="k">10</text><text x="32.064" y="23.380000000000003" class="j">/</text><text x="33.065999999999995" y="23.380000000000003" class="k">12</text><text x="35.06999999999999" y="23.380000000000003" class="j">]</text><text x="37.074" y="23.380000000000003" class="i">████████████████████████████</text><text x="72.14399999999999" y="23.380000000000003" class="z">83%</text><text x="76.15199999999999" y="23.380000000000003" class="m">|</text><text x="78.15599999999999" y="23.380000000000003" class="m">3s</text></svg><svg x="960"><use xlink:href="#a"></use><use xlink:href="#1" y="0"></use><use xlink:href="#2" y="2.171"></use><use xlink:href="#3" y="4.342"></use><use xlink:href="#4" y="6.513"></use><use xlink:href="#5" y="8.684"></use><use xlink:href="#6" y="10.855"></use><use xlink:href="#7" y="13.026"></use><use xlink:href="#8" y="15.197"></use><use xlink:href="#9" y="17.368"></use><use xlink:href="#10" y="19.539"></use><use xlink:href="#11" y="21.71"></use><text x="0" y="25.550999999999995" class="i">Downloading</text><text x="12.024" y="25.550999999999995" class="i">pseudo-scoop</text><text x="25.05" y="25.550999999999995" class="j">[</text><text x="26.052" y="25.550999999999995" class="k">11</text><text x="28.055999999999997" y="25.550999999999995" class="j">/</text><text x="29.058" y="25.550999999999995" class="k">12</text><text x="31.061999999999998" y="25.550999999999995" class="j">]</text><text x="33.065999999999995" y="25.550999999999995" class="i">██████████████████████████████████</text><text x="72.14399999999999" y="25.550999999999995" class="A">92%</text><text x="76.15199999999999" y="25.550999999999995" class="m">|</text><text x="78.15599999999999" y="25.550999999999995" class="m">4s</text></svg><svg x="1040"><use xlink:href="#a"></use><use xlink:href="#1" y="0"></use><use xlink:href="#2" y="2.171"></use><use xlink:href="#3" y="4.342"></use><use xlink:href="#4" y="6.513"></use><use xlink:href="#5" y="8.684"></use><use xlink:href="#6" y="10.855"></use><use xlink:href="#7" y="13.026"></use><use xlink:href="#8" y="15.197"></use><use xlink:href="#9" y="17.368"></use><use xlink:href="#10" y="19.539"></use><use xlink:href="#11" y="21.71"></use><use xlink:href="#12" y="23.880999999999997"></use><use xlink:href="#13" y="26.052"></use></svg><svg x="1120"><use xlink:href="#a"></use><use xlink:href="#1" y="0"></use><use xlink:href="#2" y="2.171"></use><use xlink:href="#3" y="4.342"></use><use xlink:href="#4" y="6.513"></use><use xlink:href="#5" y="8.684"></use><use xlink:href="#6" y="10.855"></use><use xlink:href="#7" y="13.026"></use><use xlink:href="#8" y="15.197"></use><use xlink:href="#9" y="17.368"></use><use xlink:href="#10" y="19.539"></use><use xlink:href="#11" y="21.71"></use><use xlink:href="#12" y="23.880999999999997"></use><use xlink:href="#13" y="26.052"></use><text x="0" y="32.064" class="m">Restarting</text><text x="11.021999999999998" y="32.064" class="m">animation...</text></svg></svg></g></g></svg></svg>