<svg xmlns="http://www.w3.org/2000/svg" xmlns:xlink="http://www.w3.org/1999/xlink" width="2560" height="472.48999999999995"><rect width="2560" height="472.48999999999995" rx="5" ry="5" class="a"></rect><svg y="0%" x="0%"><circle cx="20" cy="20" r="6" class="b"></circle><circle cx="40" cy="20" r="6" class="c"></circle><circle cx="60" cy="20" r="6" class="d"></circle></svg><svg height="412.48999999999995" viewBox="0 0 252 41.248999999999995" width="2520" x="15" xmlns="http://www.w3.org/2000/svg" xmlns:xlink="http://www.w3.org/1999/xlink" y="50"><style>.e, .g, .f {
	font-family:
			'Courier New'
			Roboto,
			Helvetica,
			Arial,
			sans-serif,
			'Apple Color Emoji',
			'Segoe UI Emoji' !important;
}.a{fill:rgb(35,35,35)}.b{fill:#ff5f58}.c{fill:#ffbd2e}.d{fill:#18c132}.e{font-family:'JetBrainsMono',Monaco,Consolas,Menlo,'Bitstream Vera Sans Mono','Powerline Symbols',monospace}.f{fill:rgb(185,69,255);white-space:pre}.g{fill:rgb(231,23,255);white-space:pre}.h{fill:rgb(255,0,231);white-space:pre}.i{fill:rgb(255,0,185);white-space:pre}.j{fill:rgb(255,0,139);white-space:pre}.k{fill:rgb(255,0,92);white-space:pre}.l{fill:rgb(255,0,46);white-space:pre}.m{fill:rgb(255,0,0);white-space:pre}.n{fill:rgb(208,46,0);white-space:pre}.o{fill:rgb(162,92,0);white-space:pre}.p{fill:rgb(115,139,0);white-space:pre}.q{fill:rgb(69,185,0);white-space:pre}.r{fill:rgb(23,231,0);white-space:pre}.s{fill:rgb(23,255,23);white-space:pre}.t{fill:rgb(69,255,69);white-space:pre}.u{fill:rgb(115,255,115);white-space:pre}.v{fill:rgb(162,255,162);white-space:pre}.w{fill:rgb(208,255,208);white-space:pre}.x{fill:transparent}.z{animation-duration:6.57556s;animation-iteration-count:infinite;animation-name:y;animation-timing-function:steps(1,end)}.A{fill:rgb(102,194,205)}.B{white-space:pre}.C{fill:rgb(0,255,255);white-space:pre}.D{fill:rgb(4,250,255);white-space:pre}.E{fill:rgb(8,246,255);white-space:pre}.F{fill:rgb(17,237,255);white-space:pre}.G{fill:rgb(21,233,255);white-space:pre}.H{fill:rgb(26,228,255);white-space:pre}.I{fill:rgb(30,224,255);white-space:pre}.J{fill:rgb(35,219,255);white-space:pre}.K{fill:rgb(39,215,255);white-space:pre}.L{fill:rgb(48,206,255);white-space:pre}.M{fill:rgb(52,202,255);white-space:pre}.N{fill:rgb(57,197,255);white-space:pre}.O{fill:rgb(61,193,255);white-space:pre}.P{fill:rgb(70,184,255);white-space:pre}.Q{fill:rgb(74,180,255);white-space:pre}.R{fill:rgb(79,175,255);white-space:pre}.S{fill:rgb(83,171,255);white-space:pre}.T{fill:rgb(92,162,255);white-space:pre}.U{fill:rgb(96,158,255);white-space:pre}.V{fill:rgb(105,149,255);white-space:pre}.W{fill:rgb(109,145,255);white-space:pre}.X{fill:rgb(114,140,255);white-space:pre}.Y{fill:rgb(118,136,255);white-space:pre}.Z{fill:rgb(123,131,255);white-space:pre}.aa{fill:rgb(127,127,255);white-space:pre}.ab{fill:rgb(131,123,255);white-space:pre}.ac{fill:rgb(136,118,255);white-space:pre}.ad{fill:rgb(140,114,255);white-space:pre}.ae{fill:rgb(149,105,255);white-space:pre}.af{fill:rgb(153,101,255);white-space:pre}.ag{fill:rgb(158,96,255);white-space:pre}.ah{fill:rgb(162,92,255);white-space:pre}.ai{fill:rgb(167,87,255);white-space:pre}.aj{fill:rgb(175,79,255);white-space:pre}.ak{fill:rgb(180,74,255);white-space:pre}.al{fill:rgb(184,70,255);white-space:pre}.am{fill:rgb(189,65,255);white-space:pre}.an{fill:rgb(193,61,255);white-space:pre}.ao{fill:rgb(197,57,255);white-space:pre}.ap{fill:rgb(202,52,255);white-space:pre}.aq{fill:rgb(211,43,255);white-space:pre}.ar{fill:rgb(215,39,255);white-space:pre}.as{fill:rgb(219,35,255);white-space:pre}.at{fill:rgb(224,30,255);white-space:pre}.au{fill:rgb(228,26,255);white-space:pre}.av{fill:rgb(233,21,255);white-space:pre}.aw{fill:rgb(237,17,255);white-space:pre}.ax{fill:rgb(241,13,255);white-space:pre}.ay{fill:rgb(246,8,255);white-space:pre}.az{fill:rgb(250,4,255);white-space:pre}.aA{fill:rgb(46,208,255);white-space:pre}.aB{fill:rgb(139,115,255);white-space:pre}.aC{fill:rgb(160,160,160);white-space:pre}@keyframes y{0%{transform:translateX(-0px)}24%{transform:translateX(-252px)}24%{transform:translateX(-504px)}24%{transform:translateX(-756px)}100%{transform:translateX(-1008px)}}</style><g font-family="'JetBrainsMono',Monaco, Consolas, Menlo, &#x27;Bitstream Vera Sans Mono&#x27;, &#x27;Powerline Symbols&#x27;, monospace" font-size="1.67" class="e"><defs><symbol id="1"><text x="0" y="1.67" class="f">Hello,</text><text x="7.013999999999999" y="1.67" class="f">World!</text></symbol><symbol id="2"><text x="0" y="1.67" class="g">Hello,</text><text x="7.013999999999999" y="1.67" class="g">World!</text></symbol><symbol id="3"><text x="0" y="1.67" class="h">Hello,</text><text x="7.013999999999999" y="1.67" class="h">World!</text></symbol><symbol id="4"><text x="0" y="1.67" class="i">Hello,</text><text x="7.013999999999999" y="1.67" class="i">World!</text></symbol><symbol id="5"><text x="0" y="1.67" class="j">Hello,</text><text x="7.013999999999999" y="1.67" class="j">World!</text></symbol><symbol id="6"><text x="0" y="1.67" class="k">Hello,</text><text x="7.013999999999999" y="1.67" class="k">World!</text></symbol><symbol id="7"><text x="0" y="1.67" class="l">Hello,</text><text x="7.013999999999999" y="1.67" class="l">World!</text></symbol><symbol id="8"><text x="0" y="1.67" class="m">Hello,</text><text x="7.013999999999999" y="1.67" class="m">World!</text></symbol><symbol id="9"><text x="0" y="1.67" class="n">Hello,</text><text x="7.013999999999999" y="1.67" class="n">World!</text></symbol><symbol id="10"><text x="0" y="1.67" class="o">Hello,</text><text x="7.013999999999999" y="1.67" class="o">World!</text></symbol><symbol id="11"><text x="0" y="1.67" class="p">Hello,</text><text x="7.013999999999999" y="1.67" class="p">World!</text></symbol><symbol id="12"><text x="0" y="1.67" class="q">Hello,</text><text x="7.013999999999999" y="1.67" class="q">World!</text></symbol><symbol id="13"><text x="0" y="1.67" class="r">Hello,</text><text x="7.013999999999999" y="1.67" class="r">World!</text></symbol><symbol id="14"><text x="0" y="1.67" class="s">Hello,</text><text x="7.013999999999999" y="1.67" class="s">World!</text></symbol><symbol id="15"><text x="0" y="1.67" class="t">Hello,</text><text x="7.013999999999999" y="1.67" class="t">World!</text></symbol><symbol id="16"><text x="0" y="1.67" class="u">Hello,</text><text x="7.013999999999999" y="1.67" class="u">World!</text></symbol><symbol id="17"><text x="0" y="1.67" class="v">Hello,</text><text x="7.013999999999999" y="1.67" class="v">World!</text></symbol><symbol id="18"><text x="0" y="1.67" class="w">Hello,</text><text x="7.013999999999999" y="1.67" class="w">World!</text></symbol><symbol id="a"><rect height="19" width="252" x="0" y="0" class="x"></rect></symbol></defs><rect height="41.248999999999995" width="252" class="a"></rect><g class="z"><svg x="0" y="0" width="1260"><svg x="0"><use xlink:href="#a"></use></svg><svg x="252"><use xlink:href="#a"></use><rect height="2.171" width="6" x="0" y="0" class="A"></rect><text x="0" y="1.67" class="B"> INFO </text><text x="7.013999999999999" y="1.67" class="C">R</text><text x="8.016" y="1.67" class="D">G</text><text x="9.017999999999999" y="1.67" class="E">B</text><text x="11.021999999999998" y="1.67" class="F">c</text><text x="12.024" y="1.67" class="G">o</text><text x="13.026" y="1.67" class="H">l</text><text x="14.027999999999999" y="1.67" class="I">o</text><text x="15.029999999999998" y="1.67" class="J">r</text><text x="16.032" y="1.67" class="K">s</text><text x="18.035999999999998" y="1.67" class="L">o</text><text x="19.037999999999997" y="1.67" class="M">n</text><text x="20.04" y="1.67" class="N">l</text><text x="21.041999999999998" y="1.67" class="O">y</text><text x="23.045999999999996" y="1.67" class="P">w</text><text x="24.048" y="1.67" class="Q">o</text><text x="25.05" y="1.67" class="R">r</text><text x="26.052" y="1.67" class="S">k</text><text x="28.055999999999997" y="1.67" class="T">i</text><text x="29.058" y="1.67" class="U">n</text><text x="31.061999999999998" y="1.67" class="V">T</text><text x="32.064" y="1.67" class="W">e</text><text x="33.065999999999995" y="1.67" class="X">r</text><text x="34.068" y="1.67" class="Y">m</text><text x="35.06999999999999" y="1.67" class="Z">i</text><text x="36.071999999999996" y="1.67" class="aa">n</text><text x="37.074" y="1.67" class="ab">a</text><text x="38.07599999999999" y="1.67" class="ac">l</text><text x="39.077999999999996" y="1.67" class="ad">s</text><text x="41.082" y="1.67" class="ae">w</text></svg><svg x="504"><use xlink:href="#a"></use><rect height="2.171" width="6" x="0" y="0" class="A"></rect><text x="0" y="1.67" class="B"> INFO </text><text x="7.013999999999999" y="1.67" class="C">R</text><text x="8.016" y="1.67" class="D">G</text><text x="9.017999999999999" y="1.67" class="E">B</text><text x="11.021999999999998" y="1.67" class="F">c</text><text x="12.024" y="1.67" class="G">o</text><text x="13.026" y="1.67" class="H">l</text><text x="14.027999999999999" y="1.67" class="I">o</text><text x="15.029999999999998" y="1.67" class="J">r</text><text x="16.032" y="1.67" class="K">s</text><text x="18.035999999999998" y="1.67" class="L">o</text><text x="19.037999999999997" y="1.67" class="M">n</text><text x="20.04" y="1.67" class="N">l</text><text x="21.041999999999998" y="1.67" class="O">y</text><text x="23.045999999999996" y="1.67" class="P">w</text><text x="24.048" y="1.67" class="Q">o</text><text x="25.05" y="1.67" class="R">r</text><text x="26.052" y="1.67" class="S">k</text><text x="28.055999999999997" y="1.67" class="T">i</text><text x="29.058" y="1.67" class="U">n</text><text x="31.061999999999998" y="1.67" class="V">T</text><text x="32.064" y="1.67" class="W">e</text><text x="33.065999999999995" y="1.67" class="X">r</text><text x="34.068" y="1.67" class="Y">m</text><text x="35.06999999999999" y="1.67" class="Z">i</text><text x="36.071999999999996" y="1.67" class="aa">n</text><text x="37.074" y="1.67" class="ab">a</text><text x="38.07599999999999" y="1.67" class="ac">l</text><text x="39.077999999999996" y="1.67" class="ad">s</text><text x="41.082" y="1.67" class="ae">w</text><text x="42.083999999999996" y="1.67" class="af">h</text><text x="43.086" y="1.67" class="ag">i</text><text x="44.087999999999994" y="1.67" class="ah">c</text><text x="45.089999999999996" y="1.67" class="ai">h</text><text x="47.093999999999994" y="1.67" class="aj">s</text><text x="48.096" y="1.67" class="ak">u</text><text x="49.098" y="1.67" class="al">p</text><text x="50.1" y="1.67" class="am">p</text><text x="51.102" y="1.67" class="an">o</text><text x="52.104" y="1.67" class="ao">r</text><text x="53.105999999999995" y="1.67" class="ap">t</text><text x="55.10999999999999" y="1.67" class="aq">T</text><text x="56.111999999999995" y="1.67" class="ar">r</text><text x="57.114" y="1.67" class="as">u</text><text x="58.116" y="1.67" class="at">e</text><text x="59.117999999999995" y="1.67" class="au">C</text><text x="60.11999999999999" y="1.67" class="av">o</text><text x="61.12199999999999" y="1.67" class="aw">l</text><text x="62.123999999999995" y="1.67" class="ax">o</text><text x="63.12599999999999" y="1.67" class="ay">r</text><text x="64.128" y="1.67" class="az">.</text><text x="0" y="3.8409999999999997" class="C">Hello,</text><text x="7.013999999999999" y="3.8409999999999997" class="C">World!</text><text x="0" y="6.012" class="aA">Hello,</text><text x="7.013999999999999" y="6.012" class="aA">World!</text><text x="0" y="8.183" class="T">Hello,</text><text x="7.013999999999999" y="8.183" class="T">World!</text><text x="0" y="10.354" class="aB">Hello,</text><text x="7.013999999999999" y="10.354" class="aB">World!</text><use xlink:href="#1" y="10.855"></use><use xlink:href="#2" y="13.026"></use><use xlink:href="#3" y="15.197"></use><use xlink:href="#4" y="17.368"></use><use xlink:href="#5" y="19.539"></use><use xlink:href="#6" y="21.71"></use></svg><svg x="756"><use xlink:href="#a"></use><use xlink:href="#1" y="0"></use><use xlink:href="#2" y="2.171"></use><use xlink:href="#3" y="4.342"></use><use xlink:href="#4" y="6.513"></use><use xlink:href="#5" y="8.684"></use><use xlink:href="#6" y="10.855"></use><use xlink:href="#7" y="13.026"></use><use xlink:href="#8" y="15.197"></use><use xlink:href="#9" y="17.368"></use><use xlink:href="#10" y="19.539"></use><use xlink:href="#11" y="21.71"></use><use xlink:href="#12" y="23.880999999999997"></use><use xlink:href="#13" y="26.052"></use><use xlink:href="#14" y="28.223000000000003"></use><use xlink:href="#15" y="30.394"></use><use xlink:href="#16" y="32.565"></use><use xlink:href="#17" y="34.736"></use><use xlink:href="#18" y="36.907000000000004"></use></svg><svg x="1008"><use xlink:href="#a"></use><use xlink:href="#3" y="0"></use><use xlink:href="#4" y="2.171"></use><use xlink:href="#5" y="4.342"></use><use xlink:href="#6" y="6.513"></use><use xlink:href="#7" y="8.684"></use><use xlink:href="#8" y="10.855"></use><use xlink:href="#9" y="13.026"></use><use xlink:href="#10" y="15.197"></use><use xlink:href="#11" y="17.368"></use><use xlink:href="#12" y="19.539"></use><use xlink:href="#13" y="21.71"></use><use xlink:href="#14" y="23.880999999999997"></use><use xlink:href="#15" y="26.052"></use><use xlink:href="#16" y="28.223000000000003"></use><use xlink:href="#17" y="30.394"></use><use xlink:href="#18" y="32.565"></use><text x="0" y="38.577000000000005" class="aC">Restarting</text><text x="11.021999999999998" y="38.577000000000005" class="aC">animation...</text></svg></svg></g></g></svg></svg>