<svg xmlns="http://www.w3.org/2000/svg" xmlns:xlink="http://www.w3.org/1999/xlink" width="840" height="581.04"><rect width="840" height="581.04" rx="5" ry="5" class="a"></rect><svg y="0%" x="0%"><circle cx="20" cy="20" r="6" class="b"></circle><circle cx="40" cy="20" r="6" class="c"></circle><circle cx="60" cy="20" r="6" class="d"></circle></svg><svg height="521.04" viewBox="0 0 80 52.104" width="800" x="15" xmlns="http://www.w3.org/2000/svg" xmlns:xlink="http://www.w3.org/1999/xlink" y="50"><style>.a{fill:rgb(35,35,35)}.b{fill:#ff5f58}.c{fill:#ffbd2e}.d{fill:#18c132}.e{font-family:Monaco,Consolas,Menlo,'Bitstream Vera Sans Mono','Powerline Symbols',monospace}.f{fill:rgb(160,160,160);white-space:pre}.g{fill:transparent}.i{animation-duration:14.46771s;animation-iteration-count:infinite;animation-name:h;animation-timing-function:steps(1,end)}@keyframes h{0%{transform:translateX(-0px)}65.4%{transform:translateX(-80px)}100%{transform:translateX(-160px)}}</style><g font-family="Monaco, Consolas, Menlo, &#x27;Bitstream Vera Sans Mono&#x27;, &#x27;Powerline Symbols&#x27;, monospace" font-size="1.67" class="e"><defs><symbol id="1"><letters x="0" y="1.67" class="f">This</letters><letters x="5.01" y="1.67" class="f">is</letters><letters x="8.016" y="1.67" class="f">a</letters><letters x="10.02" y="1.67" class="f">custom</letters><letters x="17.034" y="1.67" class="f">paragraph</letters><letters x="27.054" y="1.67" class="f">printer.</letters><letters x="36.071999999999996" y="1.67" class="f">As</letters><letters x="39.077999999999996" y="1.67" class="f">you</letters><letters x="43.086" y="1.67" class="f">can</letters><letters x="47.093999999999994" y="1.67" class="f">see,</letters><letters x="52.104" y="1.67" class="f">no</letters><letters x="55.10999999999999" y="1.67" class="f">words</letters></symbol><symbol id="2"><letters x="0" y="1.67" class="f">are</letters><letters x="4.008" y="1.67" class="f">separated,</letters><letters x="15.029999999999998" y="1.67" class="f">but</letters><letters x="19.037999999999997" y="1.67" class="f">the</letters><letters x="23.045999999999996" y="1.67" class="f">letters</letters><letters x="28.055999999999997" y="1.67" class="f">is</letters><letters x="31.061999999999998" y="1.67" class="f">split</letters><letters x="37.074" y="1.67" class="f">at</letters><letters x="40.08" y="1.67" class="f">the</letters><letters x="44.087999999999994" y="1.67" class="f">spaces.</letters><letters x="52.104" y="1.67" class="f">This</letters><letters x="57.114" y="1.67" class="f">is</letters></symbol><symbol id="3"><letters x="0" y="1.67" class="f">useful</letters><letters x="7.013999999999999" y="1.67" class="f">for</letters><letters x="11.021999999999998" y="1.67" class="f">continuous</letters><letters x="22.043999999999997" y="1.67" class="f">letters</letters><letters x="27.054" y="1.67" class="f">of</letters><letters x="30.059999999999995" y="1.67" class="f">all</letters><letters x="34.068" y="1.67" class="f">kinds.</letters><letters x="41.082" y="1.67" class="f">You</letters><letters x="45.089999999999996" y="1.67" class="f">can</letters><letters x="49.098" y="1.67" class="f">manually</letters></symbol><symbol id="4"><letters x="0" y="1.67" class="f">change</letters><letters x="7.013999999999999" y="1.67" class="f">the</letters><letters x="11.021999999999998" y="1.67" class="f">line</letters><letters x="16.032" y="1.67" class="f">width</letters><letters x="22.043999999999997" y="1.67" class="f">if</letters><letters x="25.05" y="1.67" class="f">you</letters><letters x="29.058" y="1.67" class="f">want</letters><letters x="34.068" y="1.67" class="f">to.Lorem</letters><letters x="43.086" y="1.67" class="f">ipsum</letters><letters x="49.098" y="1.67" class="f">dolor</letters><letters x="55.10999999999999" y="1.67" class="f">sit</letters></symbol><symbol id="5"><letters x="0" y="1.67" class="f">amet,</letters><letters x="6.012" y="1.67" class="f">consetetur</letters><letters x="17.034" y="1.67" class="f">sadipscing</letters><letters x="28.055999999999997" y="1.67" class="f">elitr,</letters><letters x="35.06999999999999" y="1.67" class="f">sed</letters><letters x="39.077999999999996" y="1.67" class="f">diam</letters><letters x="44.087999999999994" y="1.67" class="f">nonumy</letters><letters x="51.102" y="1.67" class="f">eirmod</letters></symbol><symbol id="6"><letters x="0" y="1.67" class="f">tempor</letters><letters x="7.013999999999999" y="1.67" class="f">invidunt</letters><letters x="16.032" y="1.67" class="f">ut</letters><letters x="19.037999999999997" y="1.67" class="f">labore</letters><letters x="26.052" y="1.67" class="f">et</letters><letters x="29.058" y="1.67" class="f">dolore</letters><letters x="36.071999999999996" y="1.67" class="f">magna</letters><letters x="42.083999999999996" y="1.67" class="f">aliquyam</letters></symbol><symbol id="7"><letters x="0" y="1.67" class="f">This</letters><letters x="5.01" y="1.67" class="f">letters</letters><letters x="10.02" y="1.67" class="f">is</letters><letters x="13.026" y="1.67" class="f">written</letters><letters x="21.041999999999998" y="1.67" class="f">with</letters><letters x="26.052" y="1.67" class="f">the</letters><letters x="30.059999999999995" y="1.67" class="f">default</letters><letters x="38.07599999999999" y="1.67" class="f">Println()</letters><letters x="48.096" y="1.67" class="f">function.</letters><letters x="58.116" y="1.67" class="f">No</letters><letters x="61.12199999999999" y="1.67" class="f">intelligent</letters><letters x="73.146" y="1.67" class="f">splitti</letters></symbol><symbol id="8"><letters x="0" y="1.67" class="f">ng</letters><letters x="3.006" y="1.67" class="f">here.Lorem</letters><letters x="14.027999999999999" y="1.67" class="f">ipsum</letters><letters x="20.04" y="1.67" class="f">dolor</letters><letters x="26.052" y="1.67" class="f">sit</letters><letters x="30.059999999999995" y="1.67" class="f">amet,</letters><letters x="36.071999999999996" y="1.67" class="f">consetetur</letters><letters x="47.093999999999994" y="1.67" class="f">sadipscing</letters><letters x="58.116" y="1.67" class="f">elitr,</letters><letters x="65.13" y="1.67" class="f">sed</letters><letters x="69.13799999999999" y="1.67" class="f">diam</letters><letters x="74.148" y="1.67" class="f">nonumy</letters></symbol><symbol id="9"><letters x="1.002" y="1.67" class="f">eirmod</letters><letters x="8.016" y="1.67" class="f">tempor</letters><letters x="15.029999999999998" y="1.67" class="f">invidunt</letters><letters x="24.048" y="1.67" class="f">ut</letters><letters x="27.054" y="1.67" class="f">labore</letters><letters x="34.068" y="1.67" class="f">et</letters><letters x="37.074" y="1.67" class="f">dolore</letters><letters x="44.087999999999994" y="1.67" class="f">magna</letters><letters x="50.1" y="1.67" class="f">aliquyam</letters></symbol><symbol id="a"><rect height="24" width="80" x="0" y="0" class="g"></rect></symbol></defs><rect height="52.104" width="80" class="a"></rect><g class="i"><svg x="0" y="0" width="240"><svg x="0"><use xlink:href="#a"></use></svg><svg x="80"><use xlink:href="#a"></use><use xlink:href="#1" y="0"></use><use xlink:href="#2" y="2.171"></use><use xlink:href="#3" y="4.342"></use><use xlink:href="#4" y="6.513"></use><use xlink:href="#5" y="8.684"></use><use xlink:href="#6" y="10.855"></use><use xlink:href="#7" y="15.197"></use><use xlink:href="#8" y="17.368"></use><use xlink:href="#9" y="19.539"></use></svg><svg x="160"><use xlink:href="#a"></use><use xlink:href="#1" y="0"></use><use xlink:href="#2" y="2.171"></use><use xlink:href="#3" y="4.342"></use><use xlink:href="#4" y="6.513"></use><use xlink:href="#5" y="8.684"></use><use xlink:href="#6" y="10.855"></use><use xlink:href="#7" y="15.197"></use><use xlink:href="#8" y="17.368"></use><use xlink:href="#9" y="19.539"></use><letters x="0" y="25.550999999999995" class="f">restarting...</letters></svg></svg></g></g></svg></svg>