<svg xmlns="http://www.w3.org/2000/svg" xmlns:xlink="http://www.w3.org/1999/xlink" width="840" height="581.04"><rect width="840" height="581.04" rx="5" ry="5" class="a"></rect><svg y="0%" x="0%"><circle cx="20" cy="20" r="6" class="b"></circle><circle cx="40" cy="20" r="6" class="c"></circle><circle cx="60" cy="20" r="6" class="d"></circle></svg><svg height="521.04" viewBox="0 0 80 52.104" width="800" x="15" xmlns="http://www.w3.org/2000/svg" xmlns:xlink="http://www.w3.org/1999/xlink" y="50"><style>.e, .g, .f {
	font-family:
			'Courier New'
			Roboto,
			Helvetica,
			Arial,
			sans-serif,
			'Apple Color Emoji',
			'Segoe UI Emoji' !important;
}.a{fill:rgb(35,35,35)}.b{fill:#ff5f58}.c{fill:#ffbd2e}.d{fill:#18c132}.e{font-family:'Courier New',Monaco,Consolas,Menlo,'Bitstream Vera Sans Mono','Powerline Symbols',monospace}.f{fill:rgb(126,231,233);white-space:pre}.g{fill:rgb(104,104,104);white-space:pre}.h{fill:rgb(124,255,0);font-weight:bold;white-space:pre}.i{fill:rgb(160,160,160);white-space:pre}.j{fill:transparent}.k{fill:rgb(160,160,160)}.m{animation-duration:9.369023s;animation-iteration-count:infinite;animation-name:l;animation-timing-function:steps(1,end)}@keyframes l{0%{transform:translateX(-0px)}0.9%{transform:translateX(-80px)}11.4%{transform:translateX(-160px)}14.2%{transform:translateX(-240px)}16.8%{transform:translateX(-320px)}19.5%{transform:translateX(-400px)}22.3%{transform:translateX(-480px)}24.9%{transform:translateX(-560px)}27.8%{transform:translateX(-640px)}30.4%{transform:translateX(-720px)}33.1%{transform:translateX(-800px)}33.1%{transform:translateX(-880px)}35.8%{transform:translateX(-960px)}38.5%{transform:translateX(-1040px)}41.1%{transform:translateX(-1120px)}44.1%{transform:translateX(-1200px)}46.6%{transform:translateX(-1280px)}100%{transform:translateX(-1360px)}}</style><g font-family="'Courier New',Monaco, Consolas, Menlo, &#x27;Bitstream Vera Sans Mono&#x27;, &#x27;Powerline Symbols&#x27;, monospace" font-size="1.67" class="e"><defs><symbol id="1"><text x="0" y="1.67" class="f">Enter</text><text x="6.012" y="1.67" class="f">your</text><text x="11.021999999999998" y="1.67" class="f">password:</text><text x="21.041999999999998" y="1.67" class="g">********</text></symbol><symbol id="2"><text x="0" y="1.67" class="f">Enter</text><text x="6.012" y="1.67" class="f">your</text><text x="11.021999999999998" y="1.67" class="f">password:</text><text x="21.041999999999998" y="1.67" class="g">*************</text></symbol><symbol id="3"><text x="0" y="1.67" class="g">2024-10-04</text><text x="11.021999999999998" y="1.67" class="g">17:07:56</text><text x="20.04" y="1.67" class="h">INFO</text><text x="26.052" y="1.67" class="i">Password</text><text x="35.06999999999999" y="1.67" class="i">received</text><text x="44.087999999999994" y="1.67" class="h">password:</text><text x="54.108" y="1.67" class="i">Hello,</text><text x="61.12199999999999" y="1.67" class="i">World!</text></symbol><symbol id="a"><rect height="24" width="80" x="0" y="0" class="j"></rect></symbol><symbol id="b"><rect height="2.171" width="1.1022" class="k"></rect></symbol></defs><rect height="52.104" width="80" class="a"></rect><g class="m"><svg x="0" y="0" width="1440"><svg x="0"><use xlink:href="#a"></use><use xlink:href="#b" x="-0.0040000000000000036" y="0"></use></svg><svg x="80"><use xlink:href="#a"></use><use xlink:href="#b" x="20.996" y="0"></use><text x="0" y="1.67" class="f">Enter</text><text x="6.012" y="1.67" class="f">your</text><text x="11.021999999999998" y="1.67" class="f">password:</text></svg><svg x="160"><use xlink:href="#a"></use><use xlink:href="#b" x="21.996" y="0"></use><text x="0" y="1.67" class="f">Enter</text><text x="6.012" y="1.67" class="f">your</text><text x="11.021999999999998" y="1.67" class="f">password:</text><text x="21.041999999999998" y="1.67" class="g">*</text></svg><svg x="240"><use xlink:href="#a"></use><use xlink:href="#b" x="22.996" y="0"></use><text x="0" y="1.67" class="f">Enter</text><text x="6.012" y="1.67" class="f">your</text><text x="11.021999999999998" y="1.67" class="f">password:</text><text x="21.041999999999998" y="1.67" class="g">**</text></svg><svg x="320"><use xlink:href="#a"></use><use xlink:href="#b" x="23.996" y="0"></use><text x="0" y="1.67" class="f">Enter</text><text x="6.012" y="1.67" class="f">your</text><text x="11.021999999999998" y="1.67" class="f">password:</text><text x="21.041999999999998" y="1.67" class="g">***</text></svg><svg x="400"><use xlink:href="#a"></use><use xlink:href="#b" x="24.996" y="0"></use><text x="0" y="1.67" class="f">Enter</text><text x="6.012" y="1.67" class="f">your</text><text x="11.021999999999998" y="1.67" class="f">password:</text><text x="21.041999999999998" y="1.67" class="g">****</text></svg><svg x="480"><use xlink:href="#a"></use><use xlink:href="#b" x="25.996" y="0"></use><text x="0" y="1.67" class="f">Enter</text><text x="6.012" y="1.67" class="f">your</text><text x="11.021999999999998" y="1.67" class="f">password:</text><text x="21.041999999999998" y="1.67" class="g">*****</text></svg><svg x="560"><use xlink:href="#a"></use><use xlink:href="#b" x="26.996" y="0"></use><text x="0" y="1.67" class="f">Enter</text><text x="6.012" y="1.67" class="f">your</text><text x="11.021999999999998" y="1.67" class="f">password:</text><text x="21.041999999999998" y="1.67" class="g">******</text></svg><svg x="640"><use xlink:href="#a"></use><use xlink:href="#b" x="27.996" y="0"></use><text x="0" y="1.67" class="f">Enter</text><text x="6.012" y="1.67" class="f">your</text><text x="11.021999999999998" y="1.67" class="f">password:</text><text x="21.041999999999998" y="1.67" class="g">*******</text></svg><svg x="720"><use xlink:href="#a"></use><use xlink:href="#b" x="28.996" y="0"></use><use xlink:href="#1" y="0"></use></svg><svg x="800"><use xlink:href="#a"></use><use xlink:href="#b" x="-0.0040000000000000036" y="0"></use><use xlink:href="#1" y="0"></use></svg><svg x="880"><use xlink:href="#a"></use><use xlink:href="#b" x="29.996" y="0"></use><text x="0" y="1.67" class="f">Enter</text><text x="6.012" y="1.67" class="f">your</text><text x="11.021999999999998" y="1.67" class="f">password:</text><text x="21.041999999999998" y="1.67" class="g">*********</text></svg><svg x="960"><use xlink:href="#a"></use><use xlink:href="#b" x="30.996" y="0"></use><text x="0" y="1.67" class="f">Enter</text><text x="6.012" y="1.67" class="f">your</text><text x="11.021999999999998" y="1.67" class="f">password:</text><text x="21.041999999999998" y="1.67" class="g">**********</text></svg><svg x="1040"><use xlink:href="#a"></use><use xlink:href="#b" x="31.996" y="0"></use><text x="0" y="1.67" class="f">Enter</text><text x="6.012" y="1.67" class="f">your</text><text x="11.021999999999998" y="1.67" class="f">password:</text><text x="21.041999999999998" y="1.67" class="g">***********</text></svg><svg x="1120"><use xlink:href="#a"></use><use xlink:href="#b" x="32.996" y="0"></use><text x="0" y="1.67" class="f">Enter</text><text x="6.012" y="1.67" class="f">your</text><text x="11.021999999999998" y="1.67" class="f">password:</text><text x="21.041999999999998" y="1.67" class="g">************</text></svg><svg x="1200"><use xlink:href="#a"></use><use xlink:href="#b" x="33.996" y="0"></use><use xlink:href="#2" y="0"></use></svg><svg x="1280"><use xlink:href="#a"></use><use xlink:href="#b" x="-0.0040000000000000036" y="4.317"></use><use xlink:href="#2" y="0"></use><use xlink:href="#3" y="2.171"></use></svg><svg x="1360"><use xlink:href="#a"></use><use xlink:href="#b" x="22.996" y="8.658999999999999"></use><use xlink:href="#2" y="0"></use><use xlink:href="#3" y="2.171"></use><text x="0" y="8.183" class="i">Restarting</text><text x="11.021999999999998" y="8.183" class="i">animation...</text></svg></svg></g></g></svg></svg>